<svg width="24" height="24" viewBox="0 0 24 24" fill="none" xmlns="http://www.w3.org/2000/svg">
<path d="M14.6668 1.33333H22.6668V9.33333H14.6668V1.33333ZM1.3335 14.6667H9.3335V22.6667H1.3335V14.6667Z" stroke="#F15929" stroke-width="2.66667" stroke-linecap="round" stroke-linejoin="round"/>
<path d="M18.667 22.6667C20.8761 22.6667 22.667 20.8758 22.667 18.6667C22.667 16.4575 20.8761 14.6667 18.667 14.6667C16.4579 14.6667 14.667 16.4575 14.667 18.6667C14.667 20.8758 16.4579 22.6667 18.667 22.6667Z" stroke="#F15929" stroke-width="2.66667" stroke-linecap="round" stroke-linejoin="round"/>
<path d="M5.3335 9.33333C7.54264 9.33333 9.3335 7.54247 9.3335 5.33333C9.3335 3.12419 7.54264 1.33333 5.3335 1.33333C3.12436 1.33333 1.3335 3.12419 1.3335 5.33333C1.3335 7.54247 3.12436 9.33333 5.3335 9.33333Z" stroke="#F15929" stroke-width="2.66667" stroke-linecap="round" stroke-linejoin="round"/>
</svg>
