<svg width="40" height="40" viewBox="0 0 40 40" fill="none" xmlns="http://www.w3.org/2000/svg">
<g opacity="0.5">
<path fill-rule="evenodd" clip-rule="evenodd" d="M27.4284 4.80485C22.502 4.09695 17.4998 4.09695 12.5734 4.80485C10.1309 5.15583 8.24912 7.13815 8.02557 9.59558L7.81396 11.9218C7.32504 17.2964 7.32504 22.7043 7.81396 28.079L8.02557 30.4052C8.24912 32.8626 10.1309 34.8449 12.5734 35.1959C17.4998 35.9038 22.502 35.9038 27.4284 35.1959C29.8708 34.8449 31.7527 32.8626 31.9762 30.4052L32.1878 28.079C32.6767 22.7043 32.6767 17.2964 32.1878 11.9218L31.9762 9.59557C31.7527 7.13815 29.8708 5.15583 27.4284 4.80485ZM16.6675 15.0004C16.6675 13.1594 18.1599 11.6671 20.0009 11.6671C21.8418 11.6671 23.3342 13.1594 23.3342 15.0004C23.3342 16.8413 21.8418 18.3337 20.0009 18.3337C18.1599 18.3337 16.6675 16.8413 16.6675 15.0004ZM13.3342 25.8337C13.3342 23.0723 15.5728 20.8337 18.3342 20.8337H21.6675C24.429 20.8337 26.6675 23.0723 26.6675 25.8337C26.6675 26.7542 25.9214 27.5004 25.0009 27.5004H15.0009C14.0804 27.5004 13.3342 26.7542 13.3342 25.8337Z" fill="#F15929"/>
</g>
</svg>
