<svg width="400" height="400" viewBox="0 0 400 400" fill="none" xmlns="http://www.w3.org/2000/svg">
<path d="M77.9469 217.634C77.8249 217.434 66.9469 197.85 59.2609 184.666C59.0844 184.215 58.7384 183.851 58.297 183.652C57.8556 183.453 57.3538 183.434 56.8989 183.6C42.6089 186.264 30.3129 188.5 11.7969 192.084C17.5329 205.706 12.7969 195.568 27.2609 226.662C27.4749 227.2 27.6889 227.628 28.4409 227.414C33.9189 226.34 39.3969 225.498 44.8709 224.414C53.8969 222.6 75.9049 218.17 77.9469 217.634Z" fill="#F0623C"/>
<path d="M151.721 134.626C151.293 134.626 150.645 133.874 150.541 133.336C149.875 129.904 137.959 65.044 137.655 63.966C137.199 62.366 137.867 61.366 139.587 61.166C145.587 60.468 231.937 51.166 236.879 50.642C237.951 50.53 238.613 50.744 238.919 51.93C239.829 55.462 254.367 116.58 255.563 121.838C255.643 122.152 255.651 122.48 255.586 122.798C255.522 123.115 255.386 123.414 255.19 123.672C254.994 123.93 254.742 124.14 254.454 124.287C254.165 124.435 253.847 124.515 253.523 124.522C249.227 124.852 153.225 134.732 151.721 134.626Z" fill="#212121"/>
<path d="M79.7704 235.674C79.2944 232.346 78.0964 229.822 81.0604 228.91C83.3344 228.208 83.3144 228.264 83.3144 224.4C83.0991 220.17 84.4354 216.008 87.0724 212.694C88.8018 210.18 91.0106 208.032 93.5719 206.374C96.1333 204.715 98.9969 203.579 101.998 203.03C106.894 201.998 108.13 201.35 121.22 202.922C125.82 203.474 138.552 206.05 144.42 206.144C151.64 206.26 157.998 203.72 155.798 196.8C152.786 187.274 143.94 183.268 134.428 177.256C129.654 174.238 125.712 171.532 129.166 166.41C130.802 164.151 132.981 162.341 135.502 161.148C142.514 157.472 142.214 157.926 145.702 157.388C145.702 157.174 145.702 156.744 145.916 156.638C147.316 155.564 146.866 154.278 146.56 152.986C146.047 150.097 146.157 147.131 146.882 144.288C147.098 143.505 147.558 142.81 148.195 142.307C148.833 141.803 149.614 141.516 150.426 141.488C155.052 141.128 255.998 130.544 260.286 130C261.878 129.734 263.51 129.838 265.055 130.303C266.601 130.769 268.018 131.583 269.198 132.684C278.842 141.174 297.088 155.354 306.568 163.182C307.487 163.772 308.179 164.656 308.53 165.69C308.881 166.724 308.872 167.846 308.502 168.874C308.048 170.2 307.646 174.76 301.95 175.424C284.66 177.44 213.806 184.52 189.95 187.344C177.4 188.828 164.26 180.206 156.124 170.698C153.467 167.793 151.16 164.585 149.25 161.142C149.036 160.498 147.63 160.594 147.318 160.282C146.566 159.1 145.6 159.53 144.634 159.852C139.465 161.098 134.788 163.867 131.208 167.8C127.236 172.638 135.43 174.818 146.242 182.082C152.162 186.058 158.62 193.184 158.484 200.014C158.395 201.536 157.9 203.007 157.05 204.273C156.201 205.539 155.027 206.555 153.652 207.214C142.298 212.234 122.398 203.956 108.55 204.852C99.9504 205.406 92.8124 208.744 88.3624 216.452C86.5109 219.521 85.6136 223.072 85.7844 226.652C85.7844 227.512 85.9984 228.156 87.0724 228.37C89.1144 228.586 89.4564 230.298 89.8724 231.914C90.4404 234.162 90.4144 234.114 92.6724 233.848C124.376 230.144 111.672 231.08 121.988 230.088C123.482 230.063 124.953 230.463 126.228 231.242C127.503 232.021 128.529 233.147 129.188 234.488C133.932 244.85 151.174 279.006 151.632 284.636C151.844 285.872 151.572 287.141 150.871 288.181C150.171 289.221 149.097 289.951 147.872 290.22C143.828 291.935 139.618 293.23 135.308 294.086C135.072 294.142 93.2424 302.908 86.7704 303.536C84.8344 303.724 78.0724 304.074 75.2804 302.57C68.6084 300.484 63.6064 288.614 60.7844 282.17C48.4244 253.944 48.6244 253.17 48.1124 247.486C47.9623 246.171 48.3084 244.848 49.0831 243.775C49.8578 242.702 51.0052 241.957 52.3004 241.686C58.8404 240.034 65.3924 238.642 71.9524 237.176C76.1464 236.236 79.3804 236.066 79.7704 235.674ZM53.8904 255.756C53.6941 255.79 53.5083 255.869 53.3472 255.987C53.186 256.104 53.0538 256.256 52.9606 256.433C52.8674 256.609 52.8157 256.804 52.8094 257.003C52.8032 257.202 52.8425 257.4 52.9244 257.582C56.2704 265.138 70.8584 295.596 71.5024 296.454C72.3024 297.254 146.674 282.54 146.886 282.494C147.112 282.446 147.324 282.348 147.506 282.207C147.688 282.066 147.836 281.885 147.939 281.679C148.043 281.473 148.098 281.246 148.102 281.016C148.105 280.786 148.057 280.557 147.96 280.348C144.416 272.988 131.422 245.232 130.36 243.084C130.231 242.896 130.052 242.747 129.844 242.652C129.636 242.558 129.406 242.522 129.178 242.548C120.798 243.944 65.0584 253.716 53.8904 255.756ZM152.148 160.934C154.373 165.115 157.195 168.95 160.524 172.318C170.852 182.118 182.552 185.598 186.296 185.318C189.73 185.056 293.15 173.868 300.662 172.97C301.893 172.911 303.066 172.43 303.985 171.609C304.904 170.788 305.513 169.676 305.71 168.46C305.882 167.811 305.873 167.128 305.684 166.484C305.495 165.84 305.132 165.26 304.636 164.808C292.124 154.458 279.584 143.904 267.158 133.452C266.541 132.852 265.794 132.404 264.974 132.143C264.154 131.882 263.285 131.815 262.434 131.948C254.936 133.054 161.926 142.96 151.29 144.084C147.624 144.47 148.578 145.454 149.464 154.392C149.56 155.36 150.108 155.68 151.064 155.68C152.096 155.665 153.108 155.965 153.964 156.54C154.765 157.391 155.354 158.419 155.682 159.54C156.112 160.4 155.682 160.94 154.716 160.94C153.864 161.045 153.001 161.043 152.148 160.934Z" fill="#101E2C"/>
<path d="M292.401 86.516C291.435 83.294 290.575 80.18 289.501 77.174C289.13 72.4275 289.455 67.6523 290.467 63C292.067 62.2 294.183 66.778 297.019 69.764C299.267 72.132 299.595 75.134 300.455 77.926C300.885 79.326 301.313 80.61 301.743 82.006C301.801 82.0127 301.86 82.0065 301.916 81.9879C301.972 81.9692 302.022 81.9385 302.065 81.898C301.851 80.498 300.991 66.65 300.991 61.498C300.991 58.298 303.409 54.992 306.469 56.45C309.403 57.85 309.649 60.784 310.119 64.074C312.375 63.86 312.657 64.074 313.119 66.33C313.58 68.6702 313.58 71.0778 313.119 73.418C312.897 74.302 312.609 74.666 312.045 74.384C311.829 71.584 311.185 65.9 311.077 65.9C310.883 66.6414 310.74 67.3952 310.649 68.156C310.972 73.2027 311.401 78.2493 311.937 83.296C311.937 83.596 312.229 85.138 313.119 84.696C314.495 76.651 316.326 68.6903 318.601 60.852C319.141 58.75 320.641 56.782 322.789 57.522C323.363 57.8971 323.812 58.4343 324.08 59.0653C324.348 59.6964 324.422 60.3927 324.293 61.066C324.293 61.28 324.185 61.388 324.185 61.604C324.723 61.8056 325.181 62.1761 325.491 62.66C325.8 63.1439 325.945 63.7151 325.903 64.288C325.957 66.76 325.957 69.118 325.903 71.59C325.883 71.8531 325.768 72.0998 325.579 72.2839C325.39 72.4681 325.14 72.5769 324.876 72.5902C324.613 72.6034 324.354 72.5201 324.147 72.3559C323.941 72.1917 323.801 71.9577 323.755 71.698C323.707 70.9031 323.599 70.1128 323.433 69.334C317.791 97.546 321.813 83.856 328.587 69.656C329.185 68.6077 329.906 67.6347 330.735 66.758C331.56 65.5286 332.497 64.3784 333.535 63.322C333.692 63.054 333.91 62.8267 334.171 62.6585C334.433 62.4903 334.73 62.386 335.039 62.354C336.005 62.354 336.127 62.998 336.219 63.966C336.477 66.646 336.865 69.228 337.187 71.912C337.365 72.808 337.061 73.194 331.173 86.194C330.737 87.158 331.173 87.682 331.925 88.128C332.795 88.648 333.751 89.202 334.609 89.63C335.275 89.9735 335.807 90.5309 336.119 91.2127C336.43 91.8946 336.503 92.6614 336.327 93.39C335.483 98.778 328.405 137.832 327.629 142.678C325.735 154.492 308.473 152.262 296.809 149.766C290.951 148.514 291.363 144.966 289.937 138.814C289.165 135.488 280.357 97.984 278.877 92.638C277.499 87.702 287.347 86.244 292.401 86.516ZM333.001 94.57C315.819 98.222 298.851 98.544 282.099 92.638C286.751 115.892 288.939 122.224 294.557 143.638C295.253 146.296 296.937 145.956 297.885 146.438C310.823 147.838 315.855 149.438 321.617 146.76C322.425 146.469 323.14 145.967 323.687 145.306C324.235 144.645 324.595 143.85 324.731 143.002C332.617 100.8 330.201 110.76 332.989 94.57H333.001ZM291.871 76.636C292.719 81.9016 294.156 87.0552 296.155 92C296.273 92.2591 296.459 92.4816 296.693 92.644C298.625 92.966 300.557 93.18 302.599 93.396C302.275 92.098 297.293 76.196 297.229 75.996C296.263 73.522 291.431 76.1 291.859 76.636H291.871ZM332.141 73.522C331.605 73.63 331.065 74.072 330.531 73.952C330.099 73.856 329.779 73.2 329.349 72.664C326.449 79.428 322.907 85.864 320.329 92.96C322.261 92.744 323.873 92.53 325.483 92.316C326.265 92.316 326.361 91.844 333.107 76.1C333.463 75.366 332.727 74.52 332.129 73.522H332.141ZM316.571 72.02C315.067 79.42 313.771 86.302 312.275 93.496C313.779 93.39 314.745 93.282 315.819 93.282C317.599 93.282 316.587 93.328 321.187 73.2C319.565 72.772 318.061 72.448 316.559 72.02H316.571ZM310.127 93.496C309.449 84.012 308.983 79.618 308.727 75.24C308.591 72.88 308.297 72.44 305.827 72.664C305.174 72.8072 304.529 72.9861 303.895 73.2C304.539 79.966 305.183 86.732 305.721 93.496H310.127ZM308.195 70.096C307.765 66.768 307.355 63.22 306.691 59.788C306.275 57.638 304.113 58.714 303.791 59.25C303.364 59.8437 303.138 60.5587 303.147 61.29C303.319 68.502 303.791 69.182 303.791 71.062C305.283 70.73 306.571 70.4 308.183 70.086L308.195 70.096ZM294.985 71.922C292.945 68.808 292.945 68.808 291.549 69.238C290.905 74.07 290.475 73.318 291.871 73.318C293.006 73.115 294.072 72.6317 294.973 71.912L294.985 71.922ZM331.497 70.848C333.001 69.99 333.001 69.99 334.497 72.136H334.819C334.714 70.74 334.606 69.344 334.497 67.948C333.935 67.7362 333.362 67.5572 332.779 67.412C330.733 69.656 330.733 69.656 331.485 70.838L331.497 70.848Z" fill="#101E2C"/>
<path d="M22.7508 339.302C21.718 339.448 20.6697 339.448 19.6368 339.302C19.4426 339.258 19.2625 339.166 19.1127 339.034C18.963 338.903 18.8482 338.737 18.7788 338.55C18.6708 338.336 19.1008 337.906 19.3148 337.584C19.6896 337.203 20.1437 336.909 20.645 336.723C21.1462 336.538 21.6822 336.465 22.2148 336.51C41.0468 332.978 346.903 277.11 380.989 270.468C384.145 269.852 386.065 272.912 383.567 273.468C381.349 273.974 22.9508 339.266 22.7508 339.302Z" fill="#101E2C"/>
<path d="M387.966 282.388C388.34 282.244 388.753 282.24 389.129 282.379C389.504 282.517 389.816 282.788 390.006 283.14C389.792 284.32 388.826 284.54 387.86 284.858C266.06 314.036 36.6604 356.162 25.6484 356.162C25.6484 351.568 98.2544 345.8 387.966 282.388Z" fill="#101E2C"/>
<path d="M75.9055 169.418C72.9055 171.996 64.4255 170.69 61.4095 168.774C59.3413 167.459 57.6501 165.63 56.5018 163.465C55.3536 161.3 54.7877 158.874 54.8595 156.424C54.5495 146.044 63.3615 142.6 68.9255 147.296C69.3555 147.618 69.7855 148.048 70.1075 147.296C70.9621 145.653 72.2158 144.251 73.7534 143.219C75.2911 142.187 77.0634 141.558 78.9075 141.39C89.7275 139.522 95.2155 138.4 111.446 141.498C116.286 142.422 118.846 146.544 118.426 151.806C117.743 159.399 114.741 166.597 109.826 172.424C108.075 174.619 105.538 176.045 102.754 176.4C97.8155 177.16 92.8054 177.34 87.8255 176.936C81.7255 176.428 77.9435 171.164 75.9055 169.418ZM71.6115 150.304C71.2718 154.166 71.9373 158.05 73.5435 161.578C75.6685 165.874 78.7116 169.65 82.4575 172.64C83.8153 173.877 85.5642 174.599 87.3995 174.68C93.2512 175.134 99.1373 174.809 104.904 173.714C105.488 173.543 106.01 173.207 106.408 172.746C112.168 166.804 116.83 157.734 116.502 149.23C116.316 144.414 111.284 142.952 106.516 142.25C95.8835 140.682 72.6475 139.628 71.6115 150.304ZM89.3295 142.678C106.848 140.878 118.076 146.326 113.492 148.37C105.324 152.012 91.6915 154.112 76.1215 150.088C74.5075 149.672 71.8175 147.488 75.3695 145.47C77.8335 144.066 86.3215 142.986 89.3295 142.678ZM69.1415 151.162C69.2736 150.5 69.1591 149.813 68.8195 149.23C68.1326 148.387 67.2336 147.742 66.215 147.361C65.1963 146.981 64.0947 146.878 63.0233 147.064C61.9518 147.25 60.9492 147.718 60.1183 148.419C59.2875 149.121 58.6583 150.031 58.2955 151.056C57.6087 152.654 57.2657 154.379 57.2889 156.118C57.3121 157.857 57.7009 159.572 58.4301 161.151C59.1593 162.73 60.2126 164.138 61.5215 165.284C62.8304 166.429 64.3657 167.287 66.0275 167.8C68.868 168.929 72.0039 169.08 74.9395 168.228C74.4035 167.476 73.8655 166.828 73.4355 166.188C67.1735 168.416 55.0715 156.76 62.9135 151.262C63.7936 150.557 64.883 150.165 66.0104 150.147C67.1379 150.128 68.2393 150.486 69.1415 151.162ZM72.8995 165.444C70.6957 161.928 69.4721 157.888 69.3555 153.74C69.1829 153.31 68.9159 152.925 68.5744 152.612C68.2329 152.299 67.8255 152.067 67.3822 151.933C66.939 151.798 66.4713 151.765 66.0136 151.836C65.5558 151.906 65.1198 152.078 64.7375 152.34C58.7995 155.636 66.1695 165.444 72.8995 165.444ZM88.1475 146.116C85.1475 144.612 79.7715 145.148 78.0535 147.834C81.4895 147.2 84.5995 146.652 88.1475 146.116Z" fill="#101E2C"/>
<path d="M144.954 139.78C145.384 144.29 143.036 140.422 142.914 139.672C142.244 135.578 129.566 69.446 129.06 65.898C128.573 63.6332 128.796 61.2732 129.7 59.1399C130.603 57.0067 132.143 55.2041 134.108 53.978C135.247 53.3943 136.485 53.0299 137.758 52.904C140.544 52.438 230.542 44.034 234.406 43.884C246.458 43.416 245.34 45.016 262.862 126.786C262.862 129.042 261.168 128.284 260.93 127.322C260.636 126.134 260.15 124.968 259.856 123.78C244.284 60.82 244.488 52.768 243.104 50.22C242.562 48.9585 241.639 47.8977 240.465 47.1854C239.291 46.473 237.924 46.1447 236.554 46.246C233.332 46.466 137.428 55.246 135.826 56.234C132.078 58.528 132.026 61.806 131.53 64.824C131.638 64.932 143.88 133.552 144.954 139.78Z" fill="#101E2C"/>
<path d="M68.2828 221.714C65.8228 222.196 56.6828 224.166 54.5388 224.614C51.1968 225.312 43.0868 226.504 29.1948 229.554C28.6523 229.717 28.0824 229.768 27.5196 229.704C26.9568 229.64 26.4129 229.462 25.9208 229.182C25.4288 228.901 24.9988 228.524 24.6571 228.072C24.3154 227.62 24.0689 227.104 23.9328 226.554C9.30877 191.818 9.80077 192.852 10.0808 190.894C10.0808 190.23 9.51077 190.532 49.0608 182.948C51.8608 182.414 54.6508 181.9 57.4368 181.23C58.7288 180.92 59.3708 181.66 59.9068 182.63C73.2268 206.606 67.7748 197.83 77.7328 213.986C78.5928 215.386 79.2548 216.766 80.0948 218.068C80.6448 218.918 80.2008 219.562 79.3448 219.786C78.6008 219.976 71.4008 221.104 68.2828 221.714ZM77.9488 217.634C77.8268 217.434 66.9488 197.85 59.2628 184.666C59.0863 184.215 58.7403 183.851 58.2989 183.652C57.8575 183.453 57.3557 183.434 56.9008 183.6C42.6108 186.264 30.3148 188.5 11.7988 192.084C17.5348 205.706 12.7988 195.568 27.2628 226.662C27.4768 227.2 27.6908 227.628 28.4428 227.414C33.9208 226.34 39.3988 225.498 44.8728 224.414C53.8988 222.6 75.9068 218.17 77.9488 217.634Z" fill="#101E2C"/>
<path d="M16.4152 130C14.1052 130.462 13.0032 127.362 15.3412 126.778C18.3412 126.418 129.769 116.658 133.357 116.362C134.859 116.238 135.397 116.468 135.505 117.542C135.613 118.616 135.289 119.154 134.105 119.154C130.083 119.162 17.0492 130 16.4152 130Z" fill="#101E2C"/>
<path d="M351.027 186.384C344.913 184.718 348.341 186.37 332.557 180.478C328.395 178.727 324.493 176.415 320.957 173.606C320.211 173.092 319.372 172.727 318.487 172.532C317.835 172.442 317.22 172.175 316.709 171.76C316.198 171.344 315.81 170.797 315.589 170.177C315.367 169.557 315.32 168.887 315.452 168.242C315.585 167.597 315.891 167.001 316.339 166.518C318.829 163.557 322.051 161.299 325.683 159.968C331.933 157.334 338.139 158.252 344.259 160.398C353.397 163.598 364.701 166.926 367.459 175.862C367.888 177.504 367.787 179.239 367.169 180.82C366.552 182.4 365.451 183.745 364.023 184.662C356.411 188.856 354.371 187.296 351.027 186.384ZM323.751 174.036C330.486 178.243 337.843 181.36 345.551 183.27C344.297 182.018 346.963 183.602 324.503 173.82C323.627 173.238 323.225 173.772 323.751 174.036ZM330.623 160.076C326.309 161.076 320.223 163.764 317.737 167.378C316.637 168.978 317.089 170.078 319.027 170.6C329.033 173.192 338.616 177.205 347.483 182.518C352.411 185.004 356.305 187.106 362.733 181.768C365.733 179.28 365.849 177.148 363.805 173.82C362.163 171.02 359.685 168.805 356.719 167.486C351.675 165.33 346.519 163.404 341.255 161.578C337.836 160.419 334.23 159.91 330.623 160.076Z" fill="#101E2C"/>
<path d="M313.336 212.91C313.55 208.828 316.652 207.238 320.208 209.258C320.408 209.376 347.846 224.5 369.284 236.858C371.184 238.942 372.874 241.208 374.33 243.624C374.824 244.372 374.582 245.224 373.364 245.224C363.844 244.166 372.29 247.52 316.128 216.024C315.162 215.164 313.766 214.306 313.336 212.91ZM367.888 237.93L327.4 214.95C327.075 214.675 326.695 214.474 326.284 214.362C325.874 214.25 325.444 214.229 325.025 214.3C324.605 214.372 324.207 214.535 323.857 214.777C323.507 215.019 323.215 215.335 323 215.702C322.12 216.758 322.146 217.302 323.322 217.956C341.846 228.218 364.936 241.688 365.418 241.688C366.17 240.508 366.922 239.218 367.888 237.93ZM371.324 241.58L369.714 239.004C367.672 239.862 366.814 240.936 366.914 242.654C368.424 242.44 370.142 243.514 371.324 241.58ZM316.124 213.876C316.982 212.586 317.734 211.406 318.594 210.116C318.335 209.973 318.05 209.884 317.756 209.856C317.462 209.827 317.165 209.859 316.884 209.95C316.603 210.041 316.343 210.188 316.121 210.383C315.9 210.578 315.72 210.817 315.594 211.084C314.84 212.372 315.162 213.446 316.128 213.876H316.124ZM320.204 216.452C321.278 215.052 322.244 213.982 323.204 212.802C322.446 212.752 321.695 212.972 321.085 213.425C320.475 213.877 320.046 214.532 319.874 215.272C319.886 215.6 320.2 216.13 320.2 216.452H320.204ZM318.056 215.378C319.024 213.778 319.774 212.578 320.42 211.298C318.808 211.62 317.734 212.48 317.62 213.876C317.68 214.398 317.829 214.906 318.06 215.378H318.056Z" fill="#101E2C"/>
<path d="M114.46 171.028C120.984 172.164 119.126 185.73 96.3116 187.136C87.4576 187.682 68.0396 184.208 71.3976 177.258C71.6788 176.435 72.1947 175.713 72.8817 175.18C73.5687 174.646 74.3967 174.326 75.2636 174.258C75.1002 174.583 74.8365 174.847 74.5116 175.01C73.9656 175.298 73.512 175.734 73.2029 176.269C72.8938 176.803 72.7418 177.414 72.7644 178.031C72.787 178.648 72.9832 179.246 73.3305 179.756C73.6777 180.267 74.162 180.669 74.7276 180.916C84.3956 186.792 104.266 187.428 114.246 179.316C114.792 178.912 115.25 178.401 115.591 177.814C115.932 177.227 116.15 176.576 116.23 175.901C116.311 175.227 116.252 174.543 116.058 173.892C115.865 173.241 115.54 172.637 115.104 172.116C114.782 171.888 114.674 171.458 114.46 171.028Z" fill="#101E2C"/>
<path d="M339.539 99.618C337.979 99.618 337.681 98.298 338.787 97.47C340.609 95.506 363.929 94.034 364.131 94.034C364.672 93.9913 365.208 94.1653 365.621 94.5177C366.034 94.87 366.29 95.372 366.332 95.913C366.375 96.454 366.201 96.9899 365.849 97.4027C365.496 97.8154 364.994 98.0713 364.453 98.114C356.184 99.0912 347.866 99.5934 339.539 99.618Z" fill="#101E2C"/>
<path d="M268.126 103.268C276.526 102.31 277.914 102.166 279.08 102.838C279.3 102.94 279.485 103.105 279.611 103.312C279.737 103.52 279.798 103.76 279.787 104.002C279.775 104.245 279.691 104.478 279.546 104.673C279.401 104.867 279.201 105.014 278.972 105.094C277.475 105.639 275.928 106.035 274.354 106.276C270.6 106.74 266.73 107.028 262.864 107.242C261.254 107.456 258.346 104.384 268.126 103.268Z" fill="#101E2C"/>
<path d="M300.557 201.526C299.807 200.56 298.957 199.378 297.337 200.022C297.015 200.13 293.761 200.364 292.937 198.948C291.391 196.308 285.479 194.748 283.165 194.548C261.213 192.196 251.299 196.672 240.427 202.816C238.333 203.714 239.853 203.258 233.123 200.884C220.147 196.018 198.211 197.108 177.283 210.442C174.58 212.108 172.272 214.343 170.519 216.992C169.163 219.022 168.137 218.67 165.149 219.992C164.828 220.065 164.53 220.217 164.281 220.433C164.032 220.65 163.841 220.924 163.724 221.232C163.607 221.54 163.568 221.873 163.61 222.2C163.653 222.527 163.776 222.838 163.967 223.106C165.685 226.006 196.827 278.196 199.619 283.028C200.479 284.532 201.123 284.854 202.733 284.532C208.641 283.242 258.403 273.58 269.421 271.216C271.169 270.742 272.983 270.561 274.789 270.678C278.527 271.127 282.294 270.125 285.313 267.878C286.161 267.257 287.165 266.884 288.213 266.804C293.259 266.16 331.919 260.468 335.891 259.932C347.679 258.702 351.743 267.928 300.557 201.526ZM205.415 279.488C204.615 278.688 170.863 222.988 170.729 222.788C171.667 221.85 168.729 217.888 204.877 277.556C206.031 279.478 206.041 278.862 205.415 279.488ZM222.381 274.118C235.639 268.252 249.884 264.936 264.369 264.346L222.381 274.118ZM226.677 270.252C236.019 265.528 245.791 262.522 255.779 262.95C245.839 264.304 236.079 266.753 226.677 270.252ZM208.099 278.414C195.857 258.441 183.615 238.503 171.373 218.6C189.697 203 214.161 197.062 234.839 204.426C237.392 205.31 239.557 207.057 240.959 209.366C258.651 236.482 274.347 259.784 276.503 263.38C250.839 255.434 228.503 262.414 208.099 278.414ZM279.081 262.95C266.517 244.05 253.845 224.936 241.067 205.822C253.105 195.858 278.401 194.736 291.001 199.378C291.955 199.618 331.285 250.946 332.129 252.212C323.062 250.269 313.654 250.601 304.745 253.178C295.781 255.235 287.144 258.524 279.081 262.95ZM323.967 253.716C316.567 254.79 308.719 255.756 300.987 256.83C311.297 254.038 320.961 252.856 323.967 253.716ZM290.679 261.662C290.594 261.536 290.555 261.384 290.571 261.232C293.041 260.588 295.619 259.832 298.303 259.406C303.715 258.584 325.067 255.364 330.625 255.112C331.353 255.121 332.075 255.229 332.773 255.434C318.601 257.582 304.639 259.622 290.679 261.662Z" fill="#101E2C"/>
<path d="M316.127 213.876C313.927 212.896 315.773 208.758 318.489 210.116C317.737 211.4 316.879 212.586 316.127 213.876Z" fill="#F15929"/>
<path d="M127.13 282.71C126.914 283.89 126.268 284.45 125.196 284.32C120.134 283.706 126.752 286.62 105.116 273.796C99.4739 270.452 76.3359 257.982 76.3359 253.716C76.8619 253.19 82.9079 254.116 83.8539 254.682C131.714 283.59 123.694 278.416 127.13 282.71ZM104.686 271.756C105.228 272.298 115.212 278.242 122.404 282.494C123.15 282.936 123.478 282.602 123.908 282.066C124.338 281.42 123.908 281.102 123.372 280.776C121.352 279.55 109.302 272.176 105.438 269.93C105.225 270.553 104.974 271.163 104.686 271.756Z" fill="#101E2C"/>
<path d="M262.541 136.022C264.505 136.324 263.141 135.55 292.717 161.042C293.833 161.786 293.015 162.546 292.287 162.546C288.207 162.974 191.023 174.044 186.621 174.68C185.932 174.793 185.226 174.712 184.581 174.446C183.936 174.181 183.378 173.741 182.969 173.176C161.969 147.71 161.297 147.776 161.599 146.866C162.445 145.174 262.305 135.984 262.541 136.022ZM181.359 154.492C180.069 154.706 179.103 154.92 178.029 155.028C177.063 155.244 177.921 155.566 178.567 155.566C182.389 154.504 184.025 157.02 188.445 162.546C186.943 162.76 185.761 162.868 184.579 163.082C183.505 163.512 184.473 163.404 184.579 163.512C185.614 163.626 186.658 163.626 187.693 163.512C188.228 163.386 188.789 163.421 189.304 163.612C189.82 163.803 190.268 164.142 190.593 164.586C191.615 165.608 192.69 166.575 193.815 167.484C194.137 167.7 194.459 167.914 194.137 167.162C193.063 165.982 192.097 164.8 190.915 163.62C190.893 163.594 190.878 163.562 190.871 163.529C190.865 163.495 190.867 163.46 190.878 163.428C190.889 163.395 190.908 163.366 190.933 163.343C190.958 163.32 190.989 163.304 191.023 163.296C192.741 163.082 200.043 162.116 203.801 161.794C204.343 161.867 204.84 162.134 205.201 162.546C207.967 165.312 211.705 169.646 210.571 167.378C209.067 165.552 207.571 163.62 205.953 161.794C206.383 161.578 209.395 161.3 217.659 160.394C221.419 159.994 222.623 159.512 223.779 160.824C224.979 162.196 226.249 163.508 227.431 164.904C227.967 165.762 228.397 165.334 227.753 164.582C226.679 162.97 225.497 161.468 224.317 159.75C228.933 159.212 233.445 158.676 238.061 158.138C239.661 158.138 241.525 161.664 243.645 163.078L243.967 162.756C242.787 161.252 241.713 159.756 240.531 158.246C240.229 157.646 240.151 158.022 253.095 156.312C254.601 156.112 255.565 155.884 256.639 157.386C258.573 160.824 259.439 161.36 258.679 159.428C258.357 158.89 257.605 157.386 257.177 156.528C257.146 156.472 257.13 156.41 257.131 156.346C257.132 156.283 257.15 156.221 257.182 156.166C257.215 156.112 257.261 156.067 257.317 156.036C257.372 156.005 257.435 155.989 257.499 155.99C259.217 155.776 263.515 154.936 267.377 154.488C270.923 154.076 272.005 153.406 273.283 154.81C274.257 155.878 275.325 156.85 276.399 157.924C277.149 158.782 277.471 158.568 276.827 157.602L273.827 153.95C273.775 153.91 273.738 153.855 273.72 153.792C273.703 153.729 273.707 153.662 273.731 153.601C273.755 153.541 273.799 153.489 273.855 153.456C273.91 153.422 273.976 153.407 274.041 153.414L277.693 152.448C278.551 152.232 278.123 152.018 277.585 152.018C272.563 152.474 272.963 153.382 270.283 150.192C269.107 148.792 264.913 145.252 264.269 144.608C264.615 144.407 264.974 144.227 265.343 144.07C266.095 143.856 266.095 143.534 265.021 143.748C264.414 143.877 263.783 143.84 263.195 143.642C262.981 143.534 261.371 141.602 260.833 140.956C260.189 140.42 260.189 140.742 260.511 141.172L261.911 143.426C261.942 143.482 261.957 143.544 261.956 143.608C261.955 143.671 261.938 143.733 261.905 143.788C261.872 143.842 261.826 143.887 261.77 143.918C261.715 143.949 261.652 143.965 261.589 143.964C257.079 144.5 252.675 145.038 248.273 145.466C246.839 145.466 246.273 144.496 244.729 143.212C244.299 142.46 243.977 142.782 244.515 143.426C245.051 144.178 245.481 144.93 246.019 145.682C246.233 146.112 246.125 146.218 245.911 146.218C243.871 146.648 239.789 146.746 237.311 147.078C231.081 147.914 230.745 148.058 228.291 145.144C227.734 144.519 227.123 143.944 226.465 143.426C226.143 142.998 225.929 143.32 226.143 143.748C227.111 144.93 228.291 146.434 229.365 147.722C229.386 147.748 229.401 147.779 229.407 147.813C229.413 147.846 229.411 147.881 229.4 147.913C229.389 147.945 229.37 147.974 229.345 147.997C229.32 148.02 229.29 148.036 229.257 148.044C227.647 148.152 220.991 148.478 218.089 149.01C215.729 149.444 215.289 149.332 213.473 147.186C212.995 146.494 212.455 145.847 211.861 145.252C211.109 144.286 211.325 145.038 211.539 145.574C212.291 146.648 213.043 147.83 213.795 149.01C213.817 149.059 213.83 149.113 213.831 149.167C213.832 149.221 213.822 149.275 213.802 149.325C213.782 149.376 213.752 149.421 213.713 149.46C213.675 149.498 213.629 149.528 213.579 149.548C208.639 150.3 203.829 151.068 198.979 151.802C197.205 152.072 197.821 151.402 195.005 148.582L194.683 148.904C195.329 149.978 196.083 150.944 196.939 152.124C192.751 152.876 188.669 153.406 184.589 154.272C183.988 154.448 183.344 154.403 182.773 154.147C182.203 153.89 181.742 153.438 181.475 152.872C178.791 149.544 178.361 149.758 178.791 150.296C179.506 151.776 180.366 153.182 181.359 154.492Z" fill="#212121"/>
<path d="M182.649 181.338C182.449 181.138 180.737 179.828 182.863 179.298C187.263 178.76 297.229 166.196 301.953 165.66C302.879 165.66 303.525 166.798 302.061 167.162C290.743 168.624 184.923 180.882 182.649 181.338Z" fill="#101E2C"/>
<path d="M151.075 146.438C180.457 179.438 181.151 178.508 179.855 179.62C179.103 180.264 178.573 179.506 178.137 178.976C172.523 172.136 149.465 147.3 149.465 146.866C149.465 146.544 149.457 144.618 151.075 146.438Z" fill="#101E2C"/>
<path d="M197.467 220.748C196.223 221.386 195.023 222.102 194.667 221.178C194.239 219.464 203.299 215.522 204.225 215.164C212.657 211.857 221.708 210.428 230.749 210.976C232.308 211.146 233.851 211.434 235.367 211.836C240.001 214.146 217.873 210.292 197.467 220.748Z" fill="#101E2C"/>
<path d="M236.233 219.03C238.809 220.104 236.339 220.43 235.909 220.43C230.69 220.46 225.495 221.146 220.447 222.47C220.125 222.578 217.547 222.256 220.017 221.07C229.599 218 231.715 217.988 236.233 219.03Z" fill="#101E2C"/>
<path d="M280.155 241.474C278.867 239.434 277.577 237.5 276.289 235.568C276.101 235.445 275.889 235.362 275.668 235.325C275.446 235.288 275.219 235.297 275.001 235.352C273.919 235.65 272.745 235.996 271.563 236.212C272.209 234.708 273.711 234.386 275.001 233.526C274.033 231.916 273.175 230.306 272.201 228.588C268.329 229.988 268.561 229.916 267.475 229.554C268.127 228.576 266.981 228.954 271.449 227.084C270.159 224.828 268.979 222.684 267.689 220.426C266.831 220.748 265.971 221.07 265.005 221.392C265.005 219.89 266.293 219.792 266.939 219.138C265.971 217.098 265.005 215.056 264.039 212.908C264.147 212.802 264.091 211.152 265.757 213.446C268.557 217.298 268.813 218.386 269.623 218.386C273.167 217.634 276.603 216.774 280.147 215.916C276.495 209.258 275.959 207.002 281.435 214.842C281.559 215.205 281.817 215.508 282.156 215.687C282.496 215.867 282.891 215.91 283.261 215.808C285.835 215.558 288.415 215.486 291.207 215.378C290.849 214.731 290.561 214.047 290.349 213.338C287.549 204.64 291.851 212.694 291.851 212.802C293.827 218.73 298.613 213.73 300.651 217.526C298.933 217.42 297.107 217.312 294.959 217.204C296.141 219.03 297.107 220.64 298.181 222.252C298.433 222.754 303.697 222.29 305.269 223.852C303.443 224.818 301.617 223.852 299.577 224.496C300.437 225.896 301.295 227.296 302.263 228.684C302.369 228.9 302.907 228.9 303.335 228.9C304.947 229.006 306.451 229.006 308.061 229.114C308.505 229.208 308.937 229.353 309.349 229.544C309.349 230.324 309.985 229.708 303.549 230.724C304.515 232.336 305.375 233.946 306.449 235.45C307.007 236.01 308.849 235.622 313.213 235.88C313.635 235.88 315.613 236.584 315.039 237.168C312.677 237.382 310.313 237.598 307.839 237.812C308.024 238.619 308.275 239.409 308.589 240.174C311.389 247.906 311.275 248.228 307.189 241.142C306.389 240.072 305.689 238.242 304.613 238.242C301.813 238.672 299.135 239.102 296.237 239.53C296.989 241.356 298.385 245.008 298.813 246.404C299.781 248.98 298.169 246.618 298.063 246.51C295.339 242.654 294.545 240.282 293.337 240.282C290.115 240.926 287.001 241.682 283.779 242.322C284.747 244.04 285.605 245.652 286.465 247.262C287.217 248.444 286.357 248.228 285.927 247.584C285.283 246.832 284.527 246.184 283.887 245.436C283.139 244.574 282.487 243.182 281.633 242.966C280.499 242.59 279.267 243.66 275.619 244.47C276.289 242.87 278.329 242.548 280.155 241.474ZM273.389 226.332C276.825 225.474 280.155 224.506 283.483 223.648C282.625 221.714 281.659 219.89 280.683 217.742C277.139 218.386 273.483 219.142 269.623 219.89C271.027 222.144 272.201 224.292 273.389 226.332ZM277.899 234.386C279.299 236.534 280.585 238.574 281.873 240.508C281.96 240.619 282.079 240.699 282.214 240.737C282.349 240.776 282.493 240.77 282.625 240.722C285.739 239.862 288.961 239.004 292.181 238.038C291.109 236.212 290.035 234.494 288.961 232.776C288.883 232.652 288.77 232.555 288.635 232.498C288.501 232.44 288.352 232.425 288.209 232.454C284.879 233.098 281.551 233.742 277.899 234.386ZM287.565 230.628C286.705 229.124 285.739 227.628 284.879 226.118C284.495 225.348 282.949 226.204 274.249 227.836C275.215 229.554 275.967 230.836 276.825 232.236C277.041 232.452 277.471 232.774 277.793 232.666C281.013 232.024 284.235 231.38 287.565 230.628ZM290.893 231.916C293.639 236.41 294.203 237.716 294.867 237.716C297.667 237.286 300.451 236.748 303.349 236.212C302.383 234.6 301.525 233.098 300.549 231.594C300.247 230.974 299.449 231.032 290.893 231.916ZM282.625 217.526C285.807 223.36 284.851 223.406 288.639 223.004C290.679 222.786 292.719 222.574 294.867 222.358C294.007 220.748 293.173 219.228 292.289 217.848C292.184 217.677 292.044 217.531 291.877 217.42C291.71 217.309 291.521 217.235 291.323 217.204C288.529 217.258 285.739 217.42 282.625 217.526ZM286.813 225.258C287.779 226.976 288.639 228.372 289.613 229.768C289.715 229.899 289.845 230.006 289.993 230.08C290.142 230.155 290.305 230.195 290.471 230.198C293.371 229.876 296.163 229.446 299.169 229.124C295.293 223.322 298.343 224.434 286.813 225.258Z" fill="#101E2C"/>
<path d="M261.252 207.432C260.93 206.466 261.682 205.928 262.434 205.714C273.348 201.694 284.52 202.458 286.594 204.532C287.528 205.466 286.498 206.03 285.844 205.822C278.042 203.338 269.008 205.494 261.252 207.432Z" fill="#101E2C"/>
<path d="M43.047 187.674C46.4679 187.706 49.8031 188.748 52.633 190.671C55.4629 192.593 57.661 195.309 58.9509 198.478C60.2407 201.647 60.5647 205.126 59.8821 208.478C59.1994 211.83 57.5406 214.906 55.1143 217.318C52.6881 219.73 49.6027 221.37 46.2464 222.033C42.8901 222.695 39.4128 222.351 36.252 221.042C33.0911 219.733 30.3879 217.519 28.4824 214.678C26.5768 211.836 25.5542 208.495 25.543 205.074C25.5657 200.448 27.4205 196.02 30.7012 192.759C33.9819 189.498 38.4211 187.669 43.047 187.674ZM40.471 202.386C40.471 202.278 36.927 195.298 35.101 191.54C33.383 193.15 31.879 194.54 30.161 196.05C33.705 198.304 40.363 202.386 40.471 202.386ZM29.517 212.8C31.235 214.626 32.739 216.128 34.349 217.846C36.605 214.196 40.901 207.216 40.901 207.108C40.601 207.418 33.305 210.908 29.517 212.8ZM28.765 211.4C32.739 209.36 39.933 205.6 39.933 205.494C35.853 205.278 31.773 205.172 27.369 204.956C27.801 207.218 28.229 209.15 28.765 211.4ZM56.685 212.58C57.331 210.434 57.975 208.5 58.619 206.46C54.219 206.246 46.055 205.922 45.947 206.03C49.491 208.184 52.927 210.332 56.685 212.586V212.58ZM44.659 189.6C44.443 194 44.121 202.164 44.229 202.164C46.377 198.728 48.525 195.292 50.887 191.534C48.739 190.896 46.801 190.25 44.659 189.6ZM42.189 201.842C42.297 201.842 42.725 193.788 42.941 189.494C40.793 189.922 38.753 190.46 36.605 190.894C38.537 194.76 40.363 198.304 42.189 201.848V201.842ZM55.719 214.084C52.175 211.83 45.411 207.748 45.303 207.856C47.129 211.292 48.953 214.728 50.779 218.38C52.497 217 54.001 215.6 55.719 214.09V214.084ZM39.289 204.098C39.289 203.99 32.847 199.698 29.303 197.44C28.659 199.48 28.013 201.412 27.369 203.454C31.665 203.674 35.531 203.888 39.289 204.104V204.098ZM57.437 198.942C53.679 200.768 50.135 202.486 46.699 204.204C46.699 204.312 54.539 204.742 58.727 204.956C58.297 202.814 57.867 200.882 57.437 198.948V198.942ZM49.277 219.132C47.343 215.48 43.693 208.714 43.693 208.714C43.585 212.474 43.369 216.34 43.263 220.42C45.303 220 47.129 219.566 49.277 219.138V219.132ZM52.401 192.614C50.253 196.05 48.213 199.164 46.065 202.278C46.171 202.386 52.937 198.948 56.589 197.124C55.075 195.62 53.787 194.116 52.401 192.614ZM41.339 220.318C41.661 216.346 41.983 208.828 41.877 208.828C39.837 211.942 37.903 215.164 35.649 218.6C37.679 219.244 39.401 219.782 41.329 220.318H41.339Z" fill="white"/>
<path d="M326.758 162.974C328.37 162.974 329.874 162.868 331.376 162.974C332.236 163.082 334.376 165.552 335.028 166.088C333.628 165.874 330.518 165.338 330.302 165.23C329.228 164.586 328.154 163.834 326.758 162.974Z" fill="#F15929"/>
<path d="M222.058 158.68C220.126 158.894 218.516 159.122 216.904 159.324C213.256 159.782 209.602 160.076 205.95 160.504C205.52 160.504 204.876 160.504 204.662 160.182C202.728 157.928 200.796 155.566 198.648 152.982C200.904 152.66 210.686 151.326 213.468 150.834C213.961 150.702 214.482 150.724 214.962 150.897C215.441 151.069 215.857 151.384 216.152 151.8C217.856 153.966 219.91 156.21 222.058 158.68Z" fill="#212121"/>
<path d="M270.273 152.344C270.324 152.384 270.361 152.439 270.379 152.502C270.396 152.565 270.392 152.632 270.368 152.693C270.344 152.753 270.3 152.805 270.245 152.838C270.189 152.872 270.123 152.887 270.059 152.88C268.601 153.052 262.561 153.992 256.313 154.492C254.547 154.492 255.797 154.64 248.797 147.292C248.745 147.252 248.708 147.197 248.69 147.134C248.673 147.071 248.677 147.004 248.701 146.943C248.725 146.883 248.769 146.831 248.824 146.798C248.88 146.764 248.946 146.749 249.011 146.756C262.611 144.88 262.611 144.47 263.079 144.93C265.549 147.4 267.883 149.9 270.273 152.344Z" fill="#212121"/>
<path d="M231.938 148.692C236.896 148.072 243.293 147.476 245.789 147.082C246.282 146.988 246.792 147.028 247.264 147.198C247.736 147.368 248.154 147.661 248.473 148.048C250.343 150.268 252.34 152.448 254.382 154.814C251.322 155.25 251.771 155.106 239.883 156.532C239.433 156.54 238.989 156.429 238.595 156.21C236.339 153.954 234.195 151.592 231.938 149.23V148.692Z" fill="#212121"/>
<path d="M237.63 156.854C233.978 157.284 230.43 157.494 226.89 158.254C225.658 158.589 224.349 158.494 223.178 157.985C222.007 157.476 221.044 156.583 220.448 155.454C219.273 153.888 218.018 152.382 216.688 150.944C216.648 150.891 216.622 150.828 216.611 150.762C216.6 150.696 216.606 150.629 216.627 150.565C216.648 150.502 216.684 150.444 216.733 150.398C216.781 150.352 216.84 150.318 216.904 150.3C229.996 148.9 228.122 149.024 229.576 148.9C230.22 148.9 230.544 149.326 230.976 149.758C233.355 151.967 235.578 154.338 237.63 156.854Z" fill="#212121"/>
<path d="M183.831 155.244C187.481 154.706 189.527 154.322 193.925 153.74C196.505 153.398 197.571 152.392 198.863 154.598C200.957 158.174 202.091 158.312 203.697 160.72C197.461 161.412 194.589 161.894 190.811 162.224C189.171 162.224 189.011 161.548 183.723 155.672C183.68 155.647 183.646 155.608 183.627 155.562C183.608 155.517 183.604 155.466 183.616 155.418C183.629 155.369 183.656 155.326 183.695 155.295C183.733 155.264 183.781 155.246 183.831 155.244Z" fill="#212121"/>
</svg>
