<svg width="16" height="16" viewBox="0 0 16 16" fill="none" xmlns="http://www.w3.org/2000/svg">
<path d="M1.68047 8.0332C1.34714 8.96654 1.94714 9.76654 2.94714 9.76654H5.61381C6.01381 9.76654 6.34714 10.0999 6.28047 10.5665L5.94714 12.6999C5.81381 13.2999 6.21381 13.9665 6.81381 14.1665C7.34714 14.3665 8.01381 14.0999 8.28047 13.6999L11.0138 9.6332" stroke="#212121" stroke-width="1.5" stroke-miterlimit="10" stroke-linecap="round" stroke-linejoin="round"/>
<path d="M11.0129 3.7666L8.9462 2.1666C8.67953 1.89993 8.07953 1.7666 7.67953 1.7666H5.1462C4.3462 1.7666 3.47953 2.3666 3.27953 3.1666L2.51953 5.47993" stroke="#212121" stroke-width="1.5" stroke-miterlimit="10" stroke-linecap="round" stroke-linejoin="round"/>
<path d="M14.4134 3.76667V10.3C14.4134 11.2333 14.0134 11.5667 13.0801 11.5667H12.4134C11.4801 11.5667 11.0801 11.2333 11.0801 10.3V3.76667C11.0801 2.83333 11.4801 2.5 12.4134 2.5H13.0801C14.0134 2.5 14.4134 2.83333 14.4134 3.76667Z" stroke="#212121" stroke-width="1.5" stroke-linecap="round" stroke-linejoin="round"/>
</svg>
