<svg width="24" height="24" viewBox="0 0 24 24" fill="none" xmlns="http://www.w3.org/2000/svg">
<path d="M23.3834 11.4549C23.3834 17.7286 18.2975 22.8145 12.0237 22.8145C5.74996 22.8145 0.664062 17.7286 0.664062 11.4549C0.664062 5.1811 5.74996 0.0952148 12.0237 0.0952148C18.2975 0.0952148 23.3834 5.1811 23.3834 11.4549Z" fill="#FFF0D9"/>
<path fill-rule="evenodd" clip-rule="evenodd" d="M11.5472 21.3949C16.7753 21.3949 21.0136 17.1566 21.0136 11.9285C21.0136 6.70036 16.7753 2.46212 11.5472 2.46212C6.31902 2.46212 2.08078 6.70036 2.08078 11.9285C2.08078 17.1566 6.31902 21.3949 11.5472 21.3949ZM11.5472 23.2881C17.8209 23.2881 22.9068 18.2023 22.9068 11.9285C22.9068 5.65474 17.8209 0.568848 11.5472 0.568848C5.2734 0.568848 0.1875 5.65474 0.1875 11.9285C0.1875 18.2023 5.2734 23.2881 11.5472 23.2881Z" fill="#F15929"/>
<path fill-rule="evenodd" clip-rule="evenodd" d="M12.0237 20.9212C17.2519 20.9212 21.4901 16.683 21.4901 11.4549C21.4901 6.22673 17.2519 1.98849 12.0237 1.98849C6.79559 1.98849 2.55734 6.22673 2.55734 11.4549C2.55734 16.683 6.79559 20.9212 12.0237 20.9212ZM12.0237 22.8145C18.2975 22.8145 23.3834 17.7286 23.3834 11.4549C23.3834 5.1811 18.2975 0.0952148 12.0237 0.0952148C5.74996 0.0952148 0.664062 5.1811 0.664062 11.4549C0.664062 17.7286 5.74996 22.8145 12.0237 22.8145Z" fill="#F15929"/>
<mask id="mask0_13420_57975" style="mask-type:alpha" maskUnits="userSpaceOnUse" x="0" y="0" width="24" height="23">
<path fill-rule="evenodd" clip-rule="evenodd" d="M12.0237 20.9212C17.2519 20.9212 21.4901 16.683 21.4901 11.4549C21.4901 6.22673 17.2519 1.98849 12.0237 1.98849C6.79559 1.98849 2.55734 6.22673 2.55734 11.4549C2.55734 16.683 6.79559 20.9212 12.0237 20.9212ZM12.0237 22.8145C18.2975 22.8145 23.3834 17.7286 23.3834 11.4549C23.3834 5.1811 18.2975 0.0952148 12.0237 0.0952148C5.74996 0.0952148 0.664062 5.1811 0.664062 11.4549C0.664062 17.7286 5.74996 22.8145 12.0237 22.8145Z" fill="white" fill-opacity="0.5"/>
</mask>
<g mask="url(#mask0_13420_57975)">
<path d="M-11.6348 28.0327L27.189 -10.791L32.4405 -5.53945L-6.38323 33.2842L-11.6348 28.0327Z" fill="#FFF0D9"/>
<path d="M-3.63867 31.7793L35.1851 -7.0444L35.9972 -6.23227L-2.82655 32.5914L-3.63867 31.7793Z" fill="#FFF0D9"/>
</g>
<path fill-rule="evenodd" clip-rule="evenodd" d="M10.1257 7.19482H8.23246V9.0881V10.9814H6.8125L7.28582 12.8746H8.23246V14.7679V16.6612H10.1257H11.7824C14.2657 16.6612 16.2789 14.648 16.2789 12.1647V11.6914C16.2789 9.20799 14.2657 7.19482 11.7824 7.19482H10.1257ZM10.1257 12.8746V14.7679H11.7824C11.8621 14.7679 11.9411 14.7643 12.019 14.7573C13.3458 14.6377 14.3856 13.5226 14.3856 12.1647V11.6914C14.3856 10.3334 13.3458 9.21828 12.019 9.09871C11.9411 9.09169 11.8621 9.0881 11.7824 9.0881H10.1257V10.9814H11.0724L11.5457 12.8746H10.1257Z" fill="#FFF0D9"/>
<path fill-rule="evenodd" clip-rule="evenodd" d="M10.6023 6.72168H8.70902V8.61495V10.5082H7.28906L7.76238 12.4015H8.70902V14.2948V16.1881H10.6023H12.2589C14.7423 16.1881 16.7554 14.1749 16.7554 11.6915V11.2182C16.7554 8.73484 14.7423 6.72168 12.2589 6.72168H10.6023ZM10.6023 12.4015V14.2948H12.2589C12.3387 14.2948 12.4176 14.2912 12.4956 14.2842C13.8224 14.1646 14.8622 13.0495 14.8622 11.6915V11.2182C14.8622 9.86025 13.8224 8.74513 12.4956 8.62557C12.4176 8.61854 12.3387 8.61495 12.2589 8.61495H10.6023V10.5082H11.5489L12.0223 12.4015H10.6023Z" fill="#F15929"/>
</svg>
