<svg width="263" height="312" viewBox="0 0 263 312" fill="none" xmlns="http://www.w3.org/2000/svg">
<path d="M202.837 217.416C202.539 216.818 201.931 216.458 201.264 216.424C190.07 215.854 172.498 215.439 166.39 215.086C165.52 215.036 164.812 214.409 164.626 213.558C162.484 203.762 159.309 189.401 157.998 182.426C157.989 182.377 158.012 182.332 158.051 182.302C166.357 176.938 173.819 162.409 162.524 141.917C162.176 141.285 161.499 140.893 160.778 140.907C145.504 141.196 131.43 144.658 118.411 152.387C117.745 152.782 117.38 153.534 117.464 154.304C117.664 156.118 117.837 157.732 117.968 159.043C118.053 159.891 117.563 160.704 116.787 161.055C79.1396 178.126 71.8148 183.274 70.3978 191.868C68.7428 201.963 77.4798 216.351 103.015 258.504C103.294 258.964 103.752 259.31 104.282 259.408C113.806 261.164 127.493 256.002 131.404 247.767C131.644 247.261 131.611 246.674 131.362 246.172C127.301 237.973 115.883 214.991 110.844 205.605C110.26 204.519 110.773 203.17 111.929 202.744C119.264 200.039 127.217 196.967 134.788 193.744C136.88 192.853 138.93 195.816 137.345 197.447C134.466 200.41 131.696 203.34 129.923 205.359C129.466 205.88 129.328 206.602 129.544 207.26C134.265 221.655 139.75 237.921 145.68 240.665C152.736 243.926 156.01 244.892 201.514 244.903C202.007 244.903 202.51 244.729 202.833 244.358C207.312 239.215 206.373 224.516 202.837 217.416Z" fill="#F15929"/>
<path d="M57.9373 38.5706C56.9687 38.0466 55.7578 38.4036 55.2431 39.3771C54.3331 41.0987 53.4884 42.7766 52.6959 44.3848C44.3139 61.6786 42.6624 73.1143 42.6919 81.6521C42.7231 85.8587 43.1282 89.3487 43.3479 92.527C43.3479 92.5463 43.3582 92.5641 43.3749 92.5738C43.5969 92.7025 43.8142 92.8315 44.0358 92.9638C44.6769 93.3467 45.4535 93.0815 46.0537 92.6373C47.0245 91.919 48.1752 92.4094 50.5147 93.5552C54.7213 95.6118 55.1264 95.7988 55.4347 98.759C55.4781 99.2794 56.034 99.5514 56.4915 99.2994C59.1908 97.813 62.22 96.2606 65.624 94.0784C72.822 89.4356 81.4845 81.8325 91.3622 65.3489C92.2961 63.7846 93.2475 62.1706 94.2033 60.4613C94.7416 59.4987 94.3784 58.2869 93.4083 57.7621L57.9373 38.5706ZM70.1444 71.5342C69.3203 71.6599 68.6607 72.2836 68.489 73.0993L67.9628 75.5989C67.5724 77.453 65.0626 77.7754 64.2163 76.0802L63.0805 73.8053C62.7052 73.0535 61.9001 72.6165 61.0653 72.7114L58.589 72.9928C56.7034 73.2071 55.6074 70.9204 56.9555 69.5848L58.7587 67.7984C59.3524 67.2102 59.5178 66.3148 59.1734 65.5534L58.1233 63.2316C57.3424 61.5052 59.1765 59.7619 60.8611 60.6292L63.1246 61.7947C63.8664 62.1766 64.7673 62.0579 65.3848 61.497L67.2543 59.7989C68.6558 58.526 70.8773 59.7322 70.573 61.6009L70.1595 64.1397C70.0249 64.9659 70.4192 65.7886 71.1475 66.2013L73.3262 67.4359C74.9777 68.3717 74.5185 70.8666 72.6419 71.153L70.1444 71.5342Z" fill="#F15929"/>
<path d="M218.841 25.096C217.978 24.7263 217.268 25.4526 217.262 26.3912C217.262 26.437 217.262 26.4827 217.262 26.5283C217.255 27.847 218.596 28.8597 219.67 28.094C220.155 27.7478 220.418 27.3878 220.493 27.0278C220.666 26.2108 219.769 25.4937 218.841 25.096Z" fill="#FFF0D9"/>
<path d="M207.078 219.493C206.77 219.191 206.359 219.026 205.928 219.03C204.768 219.041 204.065 220.241 204.396 221.352C206.258 227.601 206.318 235.851 204.686 240.937C204.472 241.605 204.552 242.348 205.011 242.879C208.709 247.153 216.98 252.846 224.26 255.506C225.53 255.97 226.787 254.956 226.564 253.622C224.479 241.18 212.656 224.945 207.078 219.493Z" fill="#FFF0D9"/>
<path d="M199.429 26.484C199.198 25.8292 198.527 25.4547 197.869 25.6764C197.134 25.9241 196.338 26.422 196.338 27.3093C196.338 27.8129 196.742 28.3556 197.667 28.8363C198.693 29.3689 199.879 28.5683 199.678 27.4308C199.621 27.1095 199.538 26.7928 199.429 26.484Z" fill="#FFF0D9"/>
<path d="M164.518 111.761C163.841 112.137 163.442 112.871 163.496 113.643C163.586 114.914 163.682 116.223 163.779 117.543C163.949 119.857 167.838 120.305 168.484 118.077C169.042 116.15 169.579 114.306 170.075 112.617C170.582 110.894 168.738 109.415 167.168 110.287L164.518 111.761Z" fill="#FFF0D9"/>
<path d="M153.281 48.9076C152.329 48.9699 150.698 48.5339 149.8 48.2126C148.82 47.8621 145.418 47.7545 144.39 47.9179C144.351 47.9242 144.311 47.9313 144.271 47.9393C143.246 48.1455 140.483 48.2674 139.454 48.4501C139.377 48.4638 139.3 48.4802 139.222 48.4992C138.123 48.7684 134.733 49.5011 133.873 50.236C133.281 50.7425 132.776 51.5189 132.59 52.5141C132.255 54.3033 131.942 55.9922 131.671 57.5807C131.426 59.0141 132.774 60.1879 134.195 59.8795C136.439 59.3925 138.718 59.0859 141.011 58.9628C142.316 58.8928 143.271 60.1411 143.168 61.4439C142.971 63.9568 143.452 65.9101 144.524 63.6382C145.927 60.6157 149.51 62.8903 146.984 66.8477C146.578 67.6668 146.41 68.5849 146.504 69.4951C146.603 70.4407 147.696 70.2224 147.895 69.2927C149.174 63.3104 153.144 56.5745 154.494 53.6047C155.962 50.3897 154.875 48.8033 153.281 48.9076Z" fill="#FFF0D9"/>
<path d="M128.004 196.554C127.014 196.949 126.501 198.049 126.839 199.061C127.24 200.262 127.651 201.503 128.068 202.774C128.558 204.265 130.518 204.669 131.592 203.524C133.157 201.854 135.079 199.894 137.062 197.916C138.703 196.279 136.503 193.035 134.369 193.939C132.247 194.838 130.118 195.712 128.004 196.554Z" fill="#FFF0D9"/>
<path d="M138.821 77.593C138.275 77.79 137.892 78.3003 137.862 78.8802C137.797 80.0915 139.132 80.8641 139.931 79.9511C140.102 79.7545 140.269 79.5531 140.429 79.3472C141.232 78.3166 140.05 77.1499 138.821 77.593Z" fill="#FFF0D9"/>
<path d="M128.968 251.379C129.742 250.531 131.055 250.317 131.903 251.09C132.468 251.605 133.01 252.145 133.529 252.707C134.038 253.259 134.156 254.061 133.85 254.747C127.519 268.956 115.699 281.154 108.659 286.751C107.385 287.764 105.663 286.765 105.822 285.146C106.643 276.814 108.473 268.609 111.274 260.712C111.522 260.012 112.145 259.521 112.876 259.394C118.815 258.367 125.169 255.536 128.968 251.379Z" fill="#FFF0D9"/>
<path d="M114.328 127.71C114.128 125.957 111.887 125.263 110.691 126.559C109.01 128.381 106.938 130.519 104.65 132.698C102.965 134.304 104.924 137.793 107.071 136.894C109.297 135.961 111.504 134.983 113.691 133.958C114.466 133.595 114.917 132.774 114.817 131.924C114.648 130.485 114.484 129.074 114.328 127.71Z" fill="#FFF0D9"/>
<path d="M59.8012 103.214C59.3158 102.927 58.5806 103.093 57.883 103.668C57.2982 104.15 57.2713 105.022 57.7655 105.597C57.9481 105.809 58.1447 106.008 58.3539 106.192C59.2658 106.997 60.6087 106.287 60.5615 105.072C60.5224 104.068 60.2288 103.466 59.8012 103.214Z" fill="#FFF0D9"/>
<path d="M50.449 122.023C51.3996 122.593 51.5996 123.927 50.6791 124.545C49.9855 125.01 49.4201 125.127 48.9907 124.994C48.3995 124.811 48.1152 124.081 48.1043 123.107C48.0913 121.938 49.4464 121.421 50.449 122.023Z" fill="#FFF0D9"/>
<path d="M28.6411 238.976C33.8211 238.976 38.0203 234.776 38.0203 229.597C38.0203 224.417 33.8211 220.218 28.6411 220.218C23.4612 220.218 19.262 224.417 19.262 229.597C19.262 234.776 23.4612 238.976 28.6411 238.976Z" fill="#FFF0D9"/>
<path d="M43.3474 117.889C43.406 115.224 44.5929 112.394 46.5664 108.649C46.8137 108.18 46.8606 107.634 46.747 107.116C46.4669 105.839 46.4213 104.52 46.615 103.223C46.8495 101.652 47.4289 100.152 48.3117 98.8318C47.9466 99.3964 47.5421 99.934 47.1017 100.441C46.6823 100.923 46.5981 101.612 46.6395 102.25C46.7415 103.821 45.5719 105.451 43.6755 104.893C43.4993 104.841 43.3186 105.047 43.4166 105.202C43.4326 105.228 43.4556 105.249 43.4814 105.264C46.4652 106.994 44.8632 110.682 41.8591 109.963C41.7173 109.929 41.5777 110.153 41.6859 110.25C41.6937 110.257 41.7027 110.264 41.7119 110.269C44.9323 111.987 42.9077 116.117 39.4229 114.592C38.3961 114.131 37.4961 113.755 36.704 113.425C36.0367 113.147 35.4258 113.159 34.8195 113.553C32.9837 114.745 31.7165 118.987 33.6413 120.029L38.2695 122.535C40.2327 123.598 43.3098 120.259 43.3443 118.027C43.345 117.981 43.3461 117.935 43.3474 117.889Z" fill="#FFF0D9"/>
<path d="M24.7605 115.232C23.8948 114.763 22.8165 114.994 22.2187 115.776L18.8187 120.225C18.0729 121.201 18.3747 122.612 19.4543 123.198L43.6697 136.331C44.7487 136.916 46.0954 136.4 46.5072 135.244L48.3893 129.96C48.7201 129.031 48.3248 128 47.458 127.53L24.7605 115.232Z" fill="#FFF0D9"/>
<path d="M52.2302 123.125C49.2782 121.193 45.8736 119.48 43.3185 117.828" stroke="black" stroke-linecap="round" stroke-linejoin="round"/>
<path d="M131.063 61.6467L125.99 8.43282C125.791 6.3436 122.919 5.93238 122.141 7.88178L79.8986 113.809" stroke="black" stroke-linecap="round" stroke-linejoin="round"/>
<path d="M133.836 90.9965L132.59 77.6289" stroke="black" stroke-linecap="round" stroke-linejoin="round"/>
<path d="M199.364 216.324L240.63 112.842C241.21 111.387 239.968 109.86 238.424 110.132L167.145 122.72" stroke="black" stroke-linecap="round" stroke-linejoin="round"/>
<path d="M154.807 243.496L160.534 303.565C160.733 305.655 163.605 306.066 164.383 304.116L188.023 244.836" stroke="black" stroke-linecap="round" stroke-linejoin="round"/>
<path d="M70.425 137.551L45.8608 199.154C45.2804 200.609 46.5234 202.137 48.0666 201.864L70.4561 197.908" stroke="black" stroke-linecap="round" stroke-linejoin="round"/>
<path d="M52.7263 44.4454L38.2813 36.6395C37.3101 36.1147 36.09 36.4813 35.599 37.4701C24.155 60.5166 35.5841 77.8542 42.724 81.7128" stroke="black" stroke-linecap="round" stroke-linejoin="round"/>
<path d="M63.1059 73.8208C62.7296 73.0762 61.9307 72.6435 61.1015 72.735L58.5852 73.0128C56.7022 73.2206 55.6124 70.9376 56.958 69.6042L58.7508 67.8277C59.3444 67.2395 59.5097 66.3443 59.1653 65.5829L58.114 63.2584C57.3333 61.5323 59.1667 59.7891 60.8512 60.6558L63.1135 61.8197C63.8567 62.2021 64.7594 62.082 65.3767 61.5186L67.2355 59.8221C68.6362 58.5438 70.8634 59.7504 70.5576 61.6219L70.1515 64.107C70.0168 64.9315 70.4088 65.7528 71.1345 66.1668L73.3523 67.4318C74.9984 68.3707 74.5373 70.8592 72.6641 71.146L70.1529 71.5305C69.3247 71.6573 68.6633 72.2868 68.4959 73.1078L67.9922 75.5772C67.6133 77.4351 65.1029 77.772 64.2476 76.0797L63.1059 73.8208Z" stroke="black" stroke-linecap="round" stroke-linejoin="round"/>
<path d="M91.4752 65.3906L105.816 73.1891C106.785 73.7162 107.144 74.9379 106.585 75.8889C93.5308 98.0716 72.7715 97.9754 65.6603 94.1167" stroke="black" stroke-linecap="round" stroke-linejoin="round"/>
<path d="M41.5196 265.281C51.672 265.281 59.9024 257.052 59.9024 246.898C59.9024 236.745 51.672 228.516 41.5196 228.516C31.367 228.516 23.1368 236.745 23.1368 246.898C23.1368 257.052 31.367 265.281 41.5196 265.281Z" stroke="black" stroke-linecap="round" stroke-linejoin="round"/>
<path d="M242.023 64.3574C245.156 64.3574 247.694 61.8184 247.694 58.6863C247.694 55.5542 245.156 53.0152 242.023 53.0152C238.891 53.0152 236.352 55.5542 236.352 58.6863C236.352 61.8184 238.891 64.3574 242.023 64.3574Z" stroke="black" stroke-linecap="round" stroke-linejoin="round"/>
<path d="M21.7845 158.804C23.385 158.804 24.6824 157.506 24.6824 155.906C24.6824 154.305 23.385 153.008 21.7845 153.008C20.184 153.008 18.8866 154.305 18.8866 155.906C18.8866 157.506 20.184 158.804 21.7845 158.804Z" stroke="black" stroke-linecap="round" stroke-linejoin="round"/>
<path d="M169.982 16.4629L167.832 25.0615C167.481 26.4674 168.695 27.7688 170.122 27.5158L172.834 27.035C174.261 26.782 175.474 28.0834 175.123 29.4894L172.973 38.0879" stroke="black" stroke-linecap="round" stroke-linejoin="round"/>
<path d="M41.0139 109.633C44.5399 111.306 46.7129 107.083 43.4132 105.205C40.9532 103.806 39.1755 102.929 37.1812 101.902C36.5871 101.559 35.8835 101.458 35.217 101.621C34.5505 101.784 33.9722 102.197 33.6029 102.775C33.2336 103.353 33.1014 104.052 33.2339 104.725C33.3664 105.398 33.7535 105.994 34.3145 106.389C35.902 107.391 37.7782 108.098 41.0139 109.633Z" stroke="black" stroke-linecap="round" stroke-linejoin="round"/>
<path d="M45.2179 93.6793C43.9715 92.9315 43.0712 92.4264 41.8526 91.7113C41.2777 91.3358 40.5792 91.1988 39.905 91.3296C39.2309 91.4601 38.6341 91.8481 38.2412 92.4113C37.8483 92.9745 37.6898 93.6684 37.7999 94.3463C37.9098 95.0241 38.2792 95.6324 38.8301 96.0426C40.1628 96.932 41.5583 97.7234 43.0056 98.4108" stroke="black" stroke-linecap="round" stroke-linejoin="round"/>
<path d="M39.452 114.588C42.9108 116.115 44.9345 111.976 41.6955 110.257C39.2946 108.983 37.5152 108.179 35.5882 107.266C35.0068 106.939 34.3213 106.851 33.676 107.019C33.0306 107.188 32.476 107.6 32.1288 108.17C31.7814 108.739 31.6686 109.421 31.8141 110.072C31.9595 110.723 32.3518 111.292 32.9084 111.659C34.4664 112.561 36.2737 113.186 39.452 114.588Z" stroke="black" stroke-linecap="round" stroke-linejoin="round"/>
<path d="M42.9402 98.5389C41.6626 97.8534 40.5343 97.3368 39.2945 96.6693C38.6995 96.3 37.9841 96.1765 37.2997 96.3251C36.6154 96.4735 36.0154 96.8823 35.6269 97.465C35.2386 98.0477 35.092 98.7587 35.2181 99.4475C35.3442 100.136 35.7334 100.749 36.3031 101.156C37.9218 102.219 39.7684 102.982 43.0271 104.615C45.7429 105.975 47.2649 103.088 46.3301 101.188" stroke="black" stroke-linecap="round" stroke-linejoin="round"/>
<path d="M57.0289 104.586C57.9326 103.308 59.1101 102.821 59.8022 103.215C61.0371 103.92 61.1404 107.515 57.3094 115.087C53.2258 123.157 50.3591 125.438 48.9585 124.995C47.9909 124.689 47.8367 122.783 48.4288 120.851" stroke="black" stroke-linecap="round" stroke-linejoin="round"/>
<path d="M60.3245 107.359C58.2056 106.486 56.0605 104.93 55.4636 98.7588C55.1733 95.8068 54.7485 95.6083 50.5436 93.5551C45.6236 91.1525 45.9007 91.5869 42.1927 100.317C41.2808 102.463 44.6232 104.679 48.487 98.447C45.4645 103.214 46.027 107.959 48.7986 110.973" stroke="black" stroke-linecap="round" stroke-linejoin="round"/>
<path d="M211.204 12.8812C210.896 16.7762 206.171 16.9008 206.188 13.1304C206.199 10.326 206.319 8.33173 206.437 6.08821C206.634 2.34901 211.621 2.38017 211.734 5.46501C211.806 7.33461 211.491 9.29775 211.204 12.8812Z" stroke="black" stroke-linecap="round" stroke-linejoin="round"/>
<path d="M195.344 10.0179C195.313 8.64683 195.334 7.64635 195.313 6.33763C195.256 2.78539 200.317 2.62467 200.548 5.58979C200.655 7.10439 200.655 8.62452 200.548 10.1392" stroke="black" stroke-linecap="round" stroke-linejoin="round"/>
<path d="M216.567 13.7872C216.177 17.5904 211.596 17.5887 211.737 13.9119C211.842 11.2009 212.013 9.26901 212.174 7.11897C212.444 3.51097 217.284 3.66021 217.284 6.62697C217.284 8.42769 216.923 10.3301 216.567 13.7872Z" stroke="black" stroke-linecap="round" stroke-linejoin="round"/>
<path d="M200.674 10.1077C200.705 8.64316 200.828 7.39668 200.861 5.99448C200.949 2.19296 206.025 2.13064 206.22 5.24664C206.34 7.1474 206.065 9.14172 205.878 12.7907C205.889 13.3349 205.727 13.8685 205.412 14.3125C205.095 14.7564 204.646 15.0869 204.128 15.2548C203.611 15.4228 203.052 15.4191 202.537 15.2448C202.02 15.0703 201.576 14.7341 201.266 14.2864" stroke="black" stroke-linecap="round" stroke-linejoin="round"/>
<path d="M198.93 25.4705C197.372 25.7198 196.375 26.4676 196.375 27.2466C196.375 28.6488 199.398 30.3266 207.842 30.1757C216.816 30.0117 220.216 28.4307 220.524 26.9974C220.746 25.9691 219.434 25.0294 217.471 24.7227" stroke="black" stroke-linecap="round" stroke-linejoin="round"/>
<path d="M199.708 29.5209C199.989 27.2462 199.697 24.6763 194.691 21.4505C192.287 19.9007 192.322 19.4251 192.635 14.7822C193.005 9.29806 193.228 9.76054 202.606 10.2329C204.912 10.3493 205.161 14.3148 197.87 15.0627C203.478 14.4395 207.311 16.9946 208.53 20.7649" stroke="black" stroke-linecap="round" stroke-linejoin="round"/>
<path d="M217.315 29.113C217.128 22.694 217.807 12.3489 217.315 7.36328" stroke="black" stroke-linecap="round" stroke-linejoin="round"/>
<path d="M196.375 27.2793C196.435 34.8005 196.379 53.6501 195.898 63.3272C195.867 63.959 195.542 64.5257 194.992 64.8378C190.472 67.4022 173.334 75.9406 165.651 79.5035C158.119 82.9983 151.75 82.275 148.784 77.5256C144.684 70.9656 151.685 59.9333 154.524 53.6095C155.958 50.4188 154.906 48.8322 153.339 48.9103C152.375 48.9584 150.71 48.5315 149.796 48.2193V48.2193C148.808 47.8813 145.488 47.7706 144.453 47.9141C144.406 47.9206 144.359 47.9283 144.312 47.9373C143.27 48.1343 140.483 48.2893 139.44 48.4839C139.375 48.4961 139.309 48.5102 139.244 48.5261C138.141 48.7945 134.773 49.5244 133.909 50.2596C133.317 50.7627 132.811 51.5324 132.618 52.5189C128.451 73.7345 129.907 80.0365 137.471 78.0337C139.252 77.5623 140.781 79.1494 139.498 80.4714C138.902 81.0859 138.248 81.6463 137.541 82.1439" stroke="black" stroke-linecap="round" stroke-linejoin="round"/>
<path d="M220.527 27.0273C220.527 70.9318 221.004 73.0867 218.688 77.4131C215.642 83.1055 209.658 86.6705 164.548 111.742C163.868 112.12 163.446 112.871 163.504 113.647C163.96 119.815 164.532 126.868 164.532 131.85" stroke="black" stroke-linecap="round" stroke-linejoin="round"/>
<path d="M59.8009 103.214C69.1278 108.81 81.4796 114.56 84.9978 116.185C85.5024 116.418 86.0797 116.432 86.5929 116.219C95.2167 112.63 119.683 101.522 129.904 94.8007C136.072 90.7467 137.85 82.3679 137.881 77.8809" stroke="black" stroke-linecap="round" stroke-linejoin="round"/>
<path d="M129.91 94.8263C133.992 99.1263 149.79 96.1383 153.872 81.334" stroke="black" stroke-linecap="round" stroke-linejoin="round"/>
<path d="M131.188 60.6498C134.39 59.7134 137.687 59.15 141.013 58.9687C142.317 58.8976 143.273 60.1432 143.17 61.4452C142.967 63.9885 143.448 65.967 144.524 63.6411C145.951 60.5563 149.524 62.9343 146.984 66.8506C146.571 67.6683 146.4 68.5875 146.495 69.4989C146.589 70.4104 146.943 71.2757 147.514 71.992" stroke="black" stroke-linecap="round" stroke-linejoin="round"/>
<path d="M104.953 205.264C119.038 200.216 142.103 191.688 157.396 182.735C165.961 177.721 174.216 162.83 162.398 141.632C162.135 141.16 162.06 140.594 162.208 140.074C164.617 131.615 169.188 115.52 171.488 107.889" stroke="black" stroke-linecap="round" stroke-linejoin="round"/>
<path d="M133.399 153.567C81.1749 176.812 72.0254 182.111 70.3936 191.863C69.0076 200.146 72.5112 208.457 103.03 258.57C103.296 259.007 103.728 259.347 104.228 259.452C112.73 261.241 127.403 256.422 131.412 247.765C131.645 247.264 131.609 246.685 131.365 246.189C122.198 227.587 112.76 209.007 109.717 203.561" stroke="black" stroke-linecap="round" stroke-linejoin="round"/>
<path d="M126.264 197.256C131.623 212.898 138.323 237.234 145.708 240.661C153.055 244.072 155.93 244.768 201.59 244.897C202.031 244.899 202.486 244.765 202.79 244.445C206.775 240.241 206.903 225.069 202.803 217.346C202.499 216.772 201.904 216.428 201.256 216.394C189.948 215.799 172.605 215.419 166.414 215.058C165.542 215.007 164.833 214.377 164.649 213.523C162.493 203.544 159.321 189.039 158.07 182.268" stroke="black" stroke-linecap="round" stroke-linejoin="round"/>
<path d="M130.282 249.729C132.203 251.322 133.973 253.089 135.568 255.007C136.009 255.536 136.128 256.261 135.871 256.9C131.899 266.764 119.416 283.544 108.248 291.756C107.05 292.637 105.449 291.824 105.469 290.337C105.584 281.681 108.302 268.021 111.648 259.575" stroke="black" stroke-linecap="round" stroke-linejoin="round"/>
<path d="M192.635 216.045C196.748 220.657 198.774 236.392 192.012 244.868" stroke="black" stroke-linecap="round" stroke-linejoin="round"/>
<path d="M97.8458 250.042C107.318 252.13 122.282 248.328 127.074 237.516" stroke="black" stroke-linecap="round" stroke-linejoin="round"/>
<path d="M105.449 289.02C111.494 285.218 127.074 270.76 134.303 253.596" stroke="black" stroke-linecap="round" stroke-linejoin="round"/>
<path d="M203.635 219.162C205.316 218.966 207.014 218.946 208.698 219.101C209.075 219.136 209.428 219.283 209.715 219.531C215.035 224.123 227.884 239.811 229.308 254.554C229.426 255.769 228.349 256.717 227.166 256.416C218.854 254.303 207.992 246.898 204.289 241.971" stroke="black" stroke-linecap="round" stroke-linejoin="round"/>
<path d="M206.596 219.037C212.336 224.334 226.227 243.309 226.85 256.336" stroke="black" stroke-linecap="round" stroke-linejoin="round"/>
<path d="M113.146 116.551C113.957 126.242 117.41 152.51 118.066 160.424" stroke="black" stroke-linecap="round" stroke-linejoin="round"/>
<path d="M161.977 140.885C144.34 141.009 129.82 145.372 117.324 153.037" stroke="black" stroke-linecap="round" stroke-linejoin="round"/>
<path d="M116.667 247.579C110.374 235.366 97.8206 208.656 93.6058 199.791C93.1381 198.807 93.536 197.646 94.5144 197.167C109.604 189.783 142.896 175.886 148.825 172.203C154.994 168.37 157.425 163.447 150.881 141.572" stroke="black" stroke-linecap="round" stroke-linejoin="round"/>
<path d="M48.9865 125.004C78.495 142.85 83.2329 144.786 90.6162 142.757C98.9755 140.272 107.124 137.125 114.983 133.347" stroke="black" stroke-linecap="round" stroke-linejoin="round"/>
<path d="M93.3302 141.977C101.653 136.462 110.593 126.865 113.802 123.035" stroke="black" stroke-linecap="round" stroke-linejoin="round"/>
<path d="M129.225 206.198C132.902 201.835 143.527 191.552 147.36 188.062" stroke="black" stroke-linecap="round" stroke-linejoin="round"/>
<path d="M10.6915 69.3125L11.7723 75.4215" stroke="black" stroke-linecap="round" stroke-linejoin="round"/>
<path d="M24.6816 79.0974L18.5726 80.1782" stroke="black" stroke-linecap="round" stroke-linejoin="round"/>
<path d="M14.8953 93.0875L13.8146 86.9785" stroke="black" stroke-linecap="round" stroke-linejoin="round"/>
<path d="M0.906372 83.2996L7.01865 82.2188" stroke="black" stroke-linecap="round" stroke-linejoin="round"/>
<path d="M18.5724 80.1795C17.8139 80.3138 17.0364 80.2973 16.2843 80.1306C15.5324 79.9642 14.8204 79.6511 14.1895 79.2091C13.5586 78.7673 13.021 78.2053 12.6076 77.5555C12.194 76.9056 11.9126 76.1807 11.7796 75.4219C11.915 76.1809 11.8993 76.9589 11.7335 77.7118C11.5675 78.4646 11.2548 79.1771 10.8129 79.8089C10.3711 80.4406 9.80893 80.9789 9.15867 81.3928C8.50841 81.8067 7.78288 82.0883 7.02356 82.2213C7.78222 82.0862 8.56008 82.1021 9.31251 82.2681C10.0651 82.434 10.7774 82.7469 11.4088 83.1887C12.0402 83.6306 12.5781 84.1928 12.9918 84.8429C13.4055 85.4929 13.6869 86.2183 13.8197 86.9773C13.6847 86.2188 13.7007 85.4413 13.8665 84.6889C14.0323 83.9366 14.3448 83.2243 14.7863 82.5929C15.2278 81.9615 15.7894 81.4233 16.4391 81.0092C17.0887 80.5951 17.8136 80.3132 18.5724 80.1795Z" stroke="black" stroke-linecap="round" stroke-linejoin="round"/>
<path d="M241.994 161.793L243.542 170.554" stroke="black" stroke-linecap="round" stroke-linejoin="round"/>
<path d="M262.05 175.828L253.289 177.376" stroke="black" stroke-linecap="round" stroke-linejoin="round"/>
<path d="M248.021 195.888L246.471 187.127" stroke="black" stroke-linecap="round" stroke-linejoin="round"/>
<path d="M227.959 181.853L236.725 180.305" stroke="black" stroke-linecap="round" stroke-linejoin="round"/>
<path d="M253.292 177.375C252.203 177.569 251.088 177.546 250.009 177.308C248.93 177.07 247.908 176.621 247.003 175.988C246.096 175.355 245.325 174.548 244.732 173.617C244.138 172.683 243.733 171.644 243.543 170.555C243.736 171.642 243.715 172.757 243.477 173.838C243.239 174.917 242.791 175.939 242.158 176.844C241.525 177.749 240.718 178.522 239.787 179.115C238.855 179.709 237.816 180.113 236.727 180.304C237.814 180.111 238.931 180.134 240.008 180.372C241.087 180.61 242.109 181.059 243.014 181.692C243.92 182.325 244.692 183.132 245.284 184.063C245.878 184.997 246.281 186.036 246.472 187.125C246.278 186.036 246.301 184.921 246.539 183.842C246.777 182.763 247.226 181.741 247.859 180.836C248.492 179.929 249.299 179.158 250.23 178.564C251.164 177.971 252.203 177.566 253.292 177.375Z" stroke="black" stroke-linecap="round" stroke-linejoin="round"/>
<path d="M57.9373 38.5706C56.9687 38.0466 55.7578 38.4036 55.2431 39.3771C54.3331 41.0987 53.4884 42.7766 52.6959 44.3848C44.3139 61.6786 42.6624 73.1143 42.6919 81.6521C42.7231 85.8587 43.1282 89.3487 43.3479 92.527V92.527C43.3479 92.5463 43.3582 92.5641 43.3749 92.5738C43.5969 92.7025 43.8142 92.8315 44.0358 92.9638C44.6769 93.3467 45.4535 93.0815 46.0537 92.6373C47.0245 91.919 48.1752 92.4094 50.5147 93.5552C54.7213 95.6118 55.1264 95.7988 55.4347 98.759V98.759C55.4781 99.2795 56.034 99.5514 56.4915 99.2994C59.1908 97.813 62.22 96.2606 65.624 94.0784C72.822 89.4356 81.4845 81.8325 91.3622 65.3489C92.2961 63.7846 93.2475 62.1706 94.2033 60.4613C94.7416 59.4987 94.3784 58.2869 93.4083 57.7621L57.9373 38.5706ZM70.1443 71.5342C69.3203 71.6599 68.6607 72.2836 68.489 73.0993L67.9628 75.5989C67.5724 77.453 65.0626 77.7754 64.2163 76.0802L63.0805 73.8053C62.7052 73.0535 61.9001 72.6165 61.0653 72.7114L58.589 72.9928C56.7034 73.2071 55.6074 70.9204 56.9555 69.5848L58.7587 67.7984C59.3524 67.2102 59.5178 66.3148 59.1734 65.5534L58.1233 63.2316C57.3424 61.5052 59.1765 59.7619 60.8611 60.6292L63.1246 61.7947C63.8664 62.1766 64.7673 62.0579 65.3848 61.497L67.2543 59.7989C68.6558 58.526 70.8773 59.7322 70.573 61.6009L70.1595 64.1397C70.0249 64.9659 70.4192 65.7886 71.1475 66.2013L73.3262 67.4359C74.9777 68.3717 74.5185 70.8666 72.6419 71.153L70.1443 71.5342Z" stroke="black" stroke-linejoin="round"/>
<path d="M43.3471 117.889C43.4056 115.224 44.5925 112.394 46.5661 108.649C46.8133 108.18 46.8603 107.634 46.7466 107.116C46.4665 105.84 46.4209 104.52 46.6146 103.223C46.8491 101.652 47.4285 100.152 48.3114 98.832C47.9462 99.3966 47.5418 99.9343 47.1013 100.441C46.6819 100.923 46.5977 101.612 46.6391 102.25C46.7412 103.822 45.5716 105.451 43.6751 104.893C43.4989 104.842 43.3182 105.047 43.4163 105.203V105.203C43.4322 105.228 43.4552 105.249 43.481 105.264C46.4648 106.994 44.8628 110.682 41.8587 109.963C41.717 109.929 41.5774 110.153 41.6856 110.251V110.251C41.6933 110.258 41.7023 110.264 41.7115 110.269C44.9319 111.987 42.9073 116.117 39.4226 114.592C38.3957 114.131 37.4958 113.755 36.7037 113.425C36.0363 113.147 35.4254 113.159 34.8191 113.553V113.553C32.9834 114.745 31.7161 118.987 33.6409 120.029L38.2691 122.535C40.2324 123.598 43.3094 120.259 43.3439 118.027C43.3447 117.981 43.3457 117.935 43.3471 117.889Z" stroke="black" stroke-linejoin="round"/>
<path d="M24.7836 115.233C23.9179 114.764 22.8396 114.994 22.2417 115.777L18.8418 120.226C18.096 121.201 18.3978 122.613 19.4773 123.198L43.6927 136.331C44.7718 136.917 46.1185 136.401 46.5303 135.244L48.4124 129.96C48.7432 129.031 48.3479 128 47.4811 127.531L24.7836 115.233Z" stroke="black" stroke-linejoin="round"/>
</svg>
