<svg width="401" height="400" viewBox="0 0 401 400" fill="none" xmlns="http://www.w3.org/2000/svg">
<path d="M372.88 145.858C374.64 153.355 373.922 161.22 370.832 168.274C370.678 168.669 370.438 169.025 370.129 169.315C369.82 169.605 369.45 169.822 369.046 169.95C369.046 171.486 366.122 186.81 365.126 193.87C367.726 196.47 370.556 204.746 369.59 211.558C366.442 233.802 333.116 236.432 310.6 236.784C309.446 240.984 304.052 264.54 302.4 272.384C297.304 296.708 294.776 314.468 293.492 320.112C292.645 322.643 292.599 325.374 293.36 327.932C293.559 328.538 293.886 329.093 294.318 329.562C294.75 330.03 295.278 330.401 295.865 330.649C296.453 330.896 297.086 331.015 297.724 330.998C298.361 330.98 298.987 330.826 299.56 330.546C302.724 328.704 305.868 312.982 306.072 311.946C310.966 287.09 313.9 268.312 317.472 245.346C315.954 245.543 314.41 245.356 312.984 244.8C312.881 244.734 312.798 244.641 312.747 244.53C312.695 244.419 312.676 244.296 312.692 244.175C312.708 244.053 312.758 243.939 312.837 243.846C312.915 243.752 313.019 243.683 313.136 243.646C314.148 243.46 315.189 243.496 316.186 243.754C321.772 244.372 341.452 244.768 352.522 244.54C360.252 244.38 369.148 242.54 371.212 235.128C371.904 232.644 390.666 176.528 390.666 164.222C390.68 151.418 381.932 143.992 372.88 145.858ZM378.98 185.94C374.534 203.232 374.048 206.802 372.554 209.228C372.506 209.303 372.435 209.36 372.352 209.391C372.268 209.423 372.177 209.426 372.092 209.402C372.006 209.377 371.931 209.326 371.877 209.256C371.823 209.185 371.793 209.099 371.792 209.01C371.884 206.729 372.288 204.472 372.992 202.3C373.486 200.402 376.392 188.618 377.436 184.632C380.97 171.2 383.896 163.442 379.854 149.91C379.828 149.823 379.835 149.73 379.874 149.648C379.913 149.567 379.98 149.502 380.064 149.467C380.147 149.432 380.241 149.429 380.326 149.458C380.412 149.487 380.484 149.547 380.528 149.626C387.08 159.73 381.128 177.592 378.982 185.94H378.98Z" fill="#F15929"/>
<path d="M367.45 242.562C364.984 244.038 362.241 244.991 359.39 245.362C361.474 256.514 370.456 303.658 374.028 315.898C375.798 321.956 377.602 332.044 383.352 329.382C388.818 326.852 385.51 319.012 384.66 314.808C379.872 291.1 374.512 265.778 367.45 242.562Z" fill="#F15929"/>
<path d="M284.544 331.407C277.452 330.879 284.276 331.287 178.238 330.079C176.484 311.953 177.404 305.645 176.438 208.679C202.926 208.549 270.938 208.163 278.438 208.027C278.643 208.027 278.84 207.945 278.986 207.8C279.131 207.655 279.212 207.458 279.212 207.253C279.212 207.047 279.131 206.85 278.986 206.705C278.84 206.56 278.643 206.479 278.438 206.479C251.536 206.013 182.72 206.279 175.226 206.261C174.905 206.267 174.598 206.398 174.371 206.625C174.144 206.853 174.013 207.159 174.006 207.481C174.006 207.779 174.206 313.467 176.184 331.171C176.19 331.458 176.306 331.732 176.51 331.935C176.713 332.138 176.987 332.255 177.274 332.261C205.048 332.403 276.61 333.595 284.56 333.153C284.792 333.151 285.013 333.057 285.175 332.891C285.337 332.726 285.427 332.503 285.425 332.272C285.423 332.04 285.329 331.819 285.164 331.657C284.999 331.494 284.776 331.405 284.544 331.407Z" fill="#191919"/>
<path d="M280.369 209.04C280.237 208.364 279.209 208.538 279.191 209.192C279.075 213.876 280.147 221.248 281.567 254.894C282.211 270.164 283.633 322.894 284.093 327.414C284.093 327.602 284.167 327.782 284.3 327.915C284.433 328.048 284.613 328.122 284.801 328.122C284.989 328.122 285.169 328.048 285.301 327.915C285.434 327.782 285.509 327.602 285.509 327.414C285.615 323.46 283.461 225.066 280.369 209.04Z" fill="#191919"/>
<path d="M176.274 204.805C180.312 202.558 184.188 200.032 187.874 197.245C191.686 194.609 214.512 178.833 216.412 177.509C220.484 174.667 219.116 175.221 233.184 175.221C234.454 175.315 235.731 175.248 236.984 175.021C237.14 174.973 237.277 174.876 237.373 174.745C237.47 174.614 237.523 174.455 237.523 174.291C237.523 174.128 237.47 173.969 237.373 173.838C237.277 173.706 237.14 173.609 236.984 173.561C235.944 173.305 236.1 173.361 223.26 173.361C218.118 173.361 217.684 174.361 211.91 178.393C178.934 201.483 178.228 201.755 175.684 204.121C175.338 204.447 175.84 205.005 176.274 204.805Z" fill="#191919"/>
<path d="M241.236 177.38C242.384 181.114 242.174 179.614 251.648 179.864C252.389 179.952 253.139 179.923 253.87 179.778C255.27 179.354 255.67 177.816 256.178 176.618C258.38 171.401 259.911 165.926 260.732 160.324C260.769 160.179 260.772 160.028 260.742 159.882C260.713 159.736 260.651 159.599 260.561 159.479C260.471 159.36 260.356 159.263 260.224 159.194C260.091 159.125 259.945 159.087 259.796 159.082C256.81 159.082 253.796 159.06 250.796 159.038C251.298 154.248 251.538 149.434 251.516 144.618C251.506 144.436 251.44 144.261 251.327 144.118C251.214 143.975 251.059 143.87 250.884 143.818C250.668 143.76 250.437 143.79 250.242 143.899C250.047 144.009 249.902 144.191 249.838 144.406C249.568 146.857 249.466 149.324 249.532 151.79C249.417 154.215 249.454 156.645 249.642 159.066H247.028C245.044 148.152 245.522 146.642 244.566 139.852C244.484 139.264 243.588 139.44 243.566 139.984C243.434 146.401 244.048 152.812 245.396 159.088C244.996 159.088 244.634 159.088 244.242 159.11C244.242 158.922 242.212 152.11 242.02 151.464C241.407 149.033 240.59 146.657 239.58 144.362C239.529 144.279 239.452 144.214 239.361 144.178C239.27 144.141 239.17 144.135 239.075 144.159C238.981 144.183 238.896 144.237 238.834 144.313C238.772 144.389 238.736 144.482 238.73 144.58C239.547 149.529 240.793 154.398 242.454 159.132C241.562 159.154 240.668 159.17 239.798 159.198C239.549 159.209 239.314 159.316 239.141 159.497C238.969 159.677 238.872 159.917 238.872 160.167C238.872 160.417 238.969 160.657 239.141 160.837C239.314 161.018 239.549 161.125 239.798 161.136C246.072 161.266 252.344 161.136 258.618 161.048C257.808 166.517 256.285 171.856 254.088 176.93C253.87 177.43 253.742 177.986 253.13 178.13C252.688 178.232 253.264 178.064 248.816 178.064C242.142 178.064 243.462 178.988 242.826 176.932C242.306 175.254 238.486 162.824 237.626 160.92C237.32 160.246 236.4 160.768 236.516 161.4C236.79 162.932 240.78 175.898 241.236 177.38Z" fill="#191919"/>
<path d="M287.852 173.427C285.566 173.193 283.265 173.135 280.97 173.253C262.136 173.505 260.832 173.537 258.684 173.929C258.204 174.015 258.184 174.837 258.684 174.909C263.436 175.595 282.986 174.757 286.72 175.109C281.946 195.309 279.12 201.767 279.052 204.495C279.056 204.618 279.101 204.737 279.178 204.834C279.255 204.93 279.361 205 279.481 205.031C279.6 205.063 279.727 205.056 279.842 205.01C279.957 204.965 280.054 204.884 280.12 204.779C282.008 201.945 287.788 178.979 288.746 174.579C288.775 174.443 288.775 174.302 288.744 174.166C288.713 174.031 288.653 173.903 288.568 173.794C288.483 173.684 288.374 173.594 288.251 173.531C288.127 173.467 287.991 173.432 287.852 173.427Z" fill="#191919"/>
<path d="M210.15 186.911C210.606 186.473 210.038 185.791 209.498 186.061C205.24 188.177 197.4 195.379 193.898 198.609C193.785 198.73 193.709 198.881 193.68 199.044C193.651 199.206 193.67 199.374 193.734 199.527C193.799 199.679 193.907 199.809 194.044 199.901C194.181 199.993 194.343 200.043 194.508 200.045C197.888 200.183 225.566 200.991 231.322 200.743C231.52 200.733 231.707 200.647 231.844 200.504C231.981 200.36 232.057 200.169 232.057 199.97C232.057 199.772 231.981 199.581 231.844 199.437C231.707 199.293 231.52 199.207 231.322 199.197C225.224 198.797 219.036 198.899 212.922 198.761C207.476 198.637 202.052 198.413 196.606 198.347C202.9 192.407 206.818 190.125 210.15 186.911Z" fill="#191919"/>
<path d="M233.591 200.572C236.047 198.728 238.363 196.703 240.519 194.516C242.842 192.392 245.158 190.264 247.469 188.132C247.584 188.009 247.662 187.856 247.693 187.691C247.724 187.525 247.707 187.355 247.644 187.199C247.581 187.043 247.474 186.908 247.337 186.811C247.199 186.714 247.037 186.658 246.869 186.65C242.161 186.25 214.237 184.28 210.881 185.432C210.77 185.464 210.673 185.531 210.604 185.623C210.535 185.715 210.497 185.828 210.497 185.943C210.497 186.058 210.535 186.17 210.604 186.262C210.673 186.355 210.77 186.422 210.881 186.454C212.279 186.731 213.708 186.819 215.129 186.716C226.657 186.892 233.495 187.392 244.799 188.22C235.269 197.052 234.693 196.972 232.709 199.438C232.231 200.018 232.873 201.052 233.591 200.572Z" fill="#191919"/>
<path d="M220.084 188.628C218.41 189.774 217.022 190.982 213.462 193.92C212.83 194.442 212.134 194.836 211.916 195.664C211.894 195.742 211.891 195.824 211.906 195.903C211.921 195.983 211.954 196.058 212.002 196.123C212.05 196.188 212.112 196.241 212.184 196.278C212.256 196.315 212.335 196.336 212.416 196.338C213.344 196.288 213.802 195.754 216.534 193.486C218.064 192.284 219.485 190.949 220.782 189.498C221.162 189.05 220.654 188.238 220.084 188.628Z" fill="#191919"/>
<path d="M220.532 195.75C221.636 195.508 222.182 194.868 226.458 190.55C226.76 190.244 226.368 189.674 225.978 189.918C224.803 190.671 223.668 191.486 222.578 192.358C221.456 193.034 220.549 194.017 219.964 195.19C219.836 195.512 220.206 195.822 220.532 195.75Z" fill="#191919"/>
<path d="M232.088 189.714C230.648 190.844 229.27 191.972 227.948 193.222C226.948 194.174 225.098 195.422 224.834 196.838C224.815 196.913 224.816 196.992 224.836 197.067C224.857 197.141 224.896 197.21 224.951 197.264C225.006 197.319 225.074 197.359 225.149 197.38C225.224 197.4 225.303 197.401 225.378 197.382C226.812 197.14 228.14 195.352 229.126 194.382C230.426 193.092 231.606 191.766 232.786 190.396C232.83 190.35 232.866 190.296 232.89 190.236C232.913 190.177 232.925 190.113 232.925 190.049C232.924 189.985 232.91 189.922 232.885 189.863C232.86 189.804 232.824 189.751 232.778 189.706C232.732 189.661 232.678 189.626 232.618 189.602C232.559 189.578 232.495 189.566 232.431 189.567C232.367 189.568 232.304 189.581 232.245 189.606C232.186 189.632 232.132 189.668 232.088 189.714Z" fill="#191919"/>
<path d="M96.5941 116.403C96.7249 116.255 96.8218 116.08 96.878 115.891C96.9342 115.702 96.9483 115.503 96.9193 115.308C96.8903 115.113 96.819 114.926 96.7103 114.762C96.6016 114.597 96.4582 114.458 96.2902 114.355C96.106 114.226 95.8885 114.153 95.6639 114.145C95.4393 114.136 95.2171 114.193 95.0239 114.308C94.8307 114.423 94.6748 114.591 94.5748 114.792C94.4748 114.994 94.435 115.219 94.4601 115.443C94.4246 115.704 94.4744 115.969 94.602 116.199C94.7297 116.429 94.9284 116.612 95.1685 116.72C95.4085 116.828 95.6771 116.855 95.934 116.798C96.191 116.741 96.4225 116.602 96.5941 116.403Z" fill="#191919"/>
<path d="M116.479 143.113C115.66 142.577 114.688 142.325 113.713 142.395C110.276 142.185 106.829 142.516 103.495 143.375C102.971 143.543 103.039 144.419 103.627 144.375C113.047 143.697 115.047 144.753 116.369 144.069C116.446 144.02 116.512 143.953 116.561 143.875C116.61 143.797 116.641 143.709 116.651 143.617C116.662 143.526 116.652 143.433 116.622 143.346C116.592 143.259 116.543 143.179 116.479 143.113Z" fill="#191919"/>
<path d="M111.476 146.101C109.377 145.974 107.276 146.324 105.332 147.125C105.228 147.189 105.147 147.284 105.101 147.398C105.056 147.512 105.049 147.637 105.081 147.755C105.113 147.873 105.182 147.978 105.279 148.053C105.375 148.128 105.494 148.169 105.616 148.171C107.75 148.109 109.886 147.971 111.998 147.909C115.188 147.819 115.874 147.937 116.508 147.109C116.57 147.011 116.595 146.893 116.578 146.778C116.562 146.663 116.506 146.557 116.42 146.479C115.894 145.849 115.388 145.857 111.476 146.101Z" fill="#191919"/>
<path d="M288.798 204.987C291.076 202.656 293.887 200.914 296.988 199.911C302.702 197.831 316.736 193.931 318.86 192.897C320.074 192.177 320.977 191.031 321.392 189.682C321.806 188.333 321.704 186.877 321.104 185.599C321.075 185.504 321.012 185.423 320.928 185.369C320.844 185.316 320.744 185.293 320.645 185.306C320.546 185.319 320.455 185.366 320.388 185.44C320.32 185.513 320.281 185.608 320.276 185.707C320.475 187.259 320.303 188.835 319.774 190.307C318.884 191.857 316.638 192.117 315.07 192.595C311.344 193.731 307.636 194.847 303.916 195.971C298.45 197.623 289.61 199.587 287.84 204.467C287.642 204.999 288.41 205.295 288.798 204.987Z" fill="#191919"/>
<path d="M332.648 113.104C332.778 112.963 332.865 112.789 332.899 112.601C332.932 112.412 332.911 112.218 332.838 112.042C332.764 111.865 332.642 111.713 332.485 111.604C332.328 111.495 332.143 111.433 331.952 111.426C331.824 111.425 331.696 111.45 331.577 111.499C331.458 111.548 331.349 111.621 331.258 111.712C331.167 111.803 331.095 111.911 331.046 112.03C330.997 112.149 330.972 112.277 330.972 112.406C330.975 112.599 331.033 112.787 331.141 112.947C331.249 113.108 331.402 113.233 331.581 113.307C331.759 113.381 331.955 113.401 332.145 113.365C332.335 113.329 332.51 113.238 332.648 113.104Z" fill="#191919"/>
<path d="M339.374 112.37C339.14 112.37 338.916 112.463 338.75 112.628C338.585 112.794 338.492 113.018 338.492 113.252C338.492 113.486 338.585 113.71 338.75 113.875C338.916 114.041 339.14 114.134 339.374 114.134C339.608 114.134 339.832 114.041 339.998 113.875C340.163 113.71 340.256 113.486 340.256 113.252C340.256 113.018 340.163 112.794 339.998 112.628C339.832 112.463 339.608 112.37 339.374 112.37Z" fill="#191919"/>
<path d="M334.894 119.85C335.022 119.847 335.146 119.808 335.251 119.735C335.357 119.663 335.439 119.562 335.487 119.444C335.536 119.326 335.549 119.196 335.525 119.071C335.501 118.945 335.441 118.83 335.352 118.738C334.938 118.324 333.564 118.018 333.674 117.338C335.133 115.519 335.98 113.285 336.092 110.956C336.087 110.836 336.04 110.721 335.959 110.632C335.877 110.543 335.767 110.486 335.648 110.47C335.528 110.454 335.407 110.481 335.306 110.546C335.204 110.611 335.128 110.709 335.092 110.824C334.529 113.014 333.507 115.059 332.092 116.824C331.174 118.328 333.502 120.008 334.894 119.85Z" fill="#191919"/>
<path d="M337.884 119.92C336.07 122.204 333.736 121.92 332.154 122.556C331.764 122.714 331.654 123.34 332.154 123.45C333.156 123.603 334.179 123.546 335.157 123.283C336.136 123.021 337.05 122.558 337.84 121.924C338 123.269 337.82 124.633 337.316 125.89C336.916 126.806 336.178 127.834 335.16 126.978C334.624 126.415 334.209 125.748 333.94 125.018C333.618 124.362 332.672 124.734 332.634 125.366C332.68 125.98 332.864 126.575 333.174 127.108C333.483 127.64 333.909 128.095 334.42 128.438C334.889 128.797 335.472 128.973 336.062 128.933C336.651 128.893 337.205 128.64 337.62 128.22C339.686 126.256 339.432 122.802 339.058 120.22C339.026 120.101 338.962 119.994 338.874 119.908C338.787 119.821 338.678 119.76 338.558 119.73C338.439 119.699 338.314 119.701 338.196 119.734C338.077 119.768 337.97 119.832 337.884 119.92Z" fill="#191919"/>
<path d="M317.564 160.592C319.626 161.239 321.793 161.482 323.948 161.31C324.096 161.267 324.227 161.177 324.32 161.053C324.413 160.93 324.464 160.779 324.464 160.624C324.464 160.469 324.413 160.319 324.32 160.195C324.227 160.071 324.096 159.981 323.948 159.938C322.185 159.815 320.431 159.582 318.698 159.24C320.634 150.84 323.798 138.4 332.268 136.542C332.858 136.412 332.704 135.542 332.138 135.518C327.216 135.358 323.836 140.374 321.856 144.274C319.595 149.168 317.963 154.328 316.998 159.632C316.949 159.834 316.98 160.048 317.086 160.227C317.192 160.406 317.363 160.537 317.564 160.592Z" fill="#191919"/>
<path d="M327.04 153.353C327.004 153.238 326.928 153.14 326.827 153.075C326.725 153.01 326.604 152.983 326.484 152.999C326.365 153.015 326.255 153.072 326.173 153.161C326.092 153.25 326.045 153.365 326.04 153.485C326.04 156.469 324.722 159.191 324.276 162.111C323.918 164.463 323.876 168.015 325.452 169.975C325.542 170.062 325.657 170.121 325.78 170.144C325.904 170.167 326.031 170.153 326.147 170.105C326.263 170.056 326.362 169.974 326.432 169.87C326.502 169.766 326.54 169.643 326.542 169.517C326.374 167.209 325.034 165.643 326.084 161.021C326.975 158.57 327.302 155.949 327.04 153.353Z" fill="#191919"/>
<path d="M293.931 165.804C294.819 166.68 296.241 168.18 297.505 168.352C297.608 168.375 297.716 168.368 297.816 168.332C297.915 168.296 298.002 168.232 298.066 168.147C298.13 168.063 298.169 167.963 298.178 167.857C298.186 167.752 298.165 167.646 298.115 167.552C297.571 166.418 296.025 165.676 295.115 164.852C294.071 163.912 293.355 162.71 292.391 161.736C292.023 161.364 291.521 161.758 291.591 162.216C291.982 163.625 292.799 164.879 293.931 165.804Z" fill="#191919"/>
<path d="M297.725 164.099C298.249 164.734 298.855 165.298 299.525 165.777C299.578 165.805 299.638 165.819 299.699 165.818C299.759 165.816 299.818 165.8 299.871 165.769C299.923 165.738 299.967 165.695 299.997 165.643C300.028 165.591 300.045 165.531 300.047 165.471C300.047 163.301 297.965 163.317 294.101 157.957C293.799 157.539 292.961 157.785 293.185 158.357C294.247 160.588 295.799 162.55 297.725 164.099Z" fill="#191919"/>
<path d="M299.773 160.936C300.685 161.918 302.211 163.964 303.737 163.834C303.85 163.828 303.959 163.79 304.052 163.725C304.144 163.659 304.216 163.569 304.259 163.465C304.303 163.36 304.316 163.246 304.296 163.134C304.277 163.022 304.227 162.919 304.151 162.834C303.657 162.26 302.891 161.934 302.321 161.396C300.045 159.244 298.539 157.37 296.941 155.666C296.86 155.588 296.754 155.541 296.641 155.535C296.528 155.528 296.417 155.562 296.327 155.631C296.238 155.699 296.175 155.797 296.152 155.908C296.128 156.018 296.145 156.133 296.199 156.232C297.224 157.92 298.422 159.497 299.773 160.936Z" fill="#191919"/>
<path d="M310.813 169.167C310.86 169.328 310.957 169.47 311.09 169.571C311.223 169.673 311.385 169.73 311.553 169.733C314.84 169.586 318.129 169.977 321.291 170.889C336.793 174.709 343.149 181.025 346.363 182.041C346.693 182.145 347.061 181.737 346.843 181.431C345.895 180.282 344.734 179.328 343.423 178.621C332.155 171.389 318.489 167.841 312.097 168.187C310.445 163.888 307.855 160.01 304.517 156.837C304.151 156.463 303.455 156.963 303.777 157.403C306.756 160.908 309.134 164.884 310.813 169.167Z" fill="#191919"/>
<path d="M321.204 162.263C320.927 163.749 320.949 165.275 321.27 166.751C321.301 166.846 321.361 166.928 321.441 166.986C321.521 167.045 321.618 167.076 321.717 167.076C321.817 167.076 321.913 167.045 321.994 166.986C322.074 166.928 322.134 166.846 322.164 166.751C322.371 165.264 322.392 163.756 322.228 162.263C322.228 162.128 322.174 161.997 322.078 161.901C321.982 161.805 321.852 161.751 321.716 161.751C321.581 161.751 321.45 161.805 321.354 161.901C321.258 161.997 321.204 162.128 321.204 162.263Z" fill="#191919"/>
<path d="M374.477 136.715C372.575 135.573 372.047 133.183 371.559 131.181C369.231 121.619 371.679 115.581 372.583 107.807C373.551 99.4646 370.949 86.9726 360.583 86.4366C358.914 86.3615 357.25 86.679 355.725 87.3636C354.201 88.0482 352.858 89.0809 351.805 90.3786C352.997 90.7303 354.015 91.515 354.659 92.5786C355.877 94.8166 354.739 96.4006 353.809 96.0846C353.229 95.8846 353.421 95.1986 352.283 93.8846C343.913 84.2206 325.405 93.4566 330.347 105.235C330.458 105.403 330.582 105.563 330.717 105.713C328.448 111.6 327.503 117.915 327.951 124.209C328.551 128.375 330.631 132.855 334.703 132.945C335.303 134.935 334.399 135.453 334.903 136.277C335.279 136.895 336.573 136.711 336.473 134.513C336.447 133.936 336.322 133.369 336.103 132.835C337.491 132.542 338.789 131.925 339.893 131.035C341.957 129.262 343.787 127.235 345.339 125.001C345.143 126.936 345.705 128.871 346.907 130.401C346.995 130.545 347.128 130.657 347.285 130.72C347.442 130.783 347.616 130.793 347.779 130.749C347.893 130.718 347.999 130.661 348.087 130.582C348.176 130.504 348.245 130.406 348.289 130.296C348.333 130.186 348.352 130.068 348.342 129.95C348.333 129.832 348.296 129.718 348.235 129.617C347.116 128.202 346.503 126.454 346.493 124.651C346.495 124.57 346.479 124.49 346.444 124.417C346.41 124.345 346.358 124.281 346.295 124.232C346.231 124.183 346.156 124.15 346.077 124.135C345.998 124.121 345.916 124.125 345.839 124.149C345.976 123.902 346.1 123.647 346.209 123.387C348.303 124.557 351.019 122.429 350.785 119.139C353.314 118.472 355.541 116.967 357.101 114.869C357.473 120.531 358.351 127.711 361.481 132.405C357.792 130.528 353.676 129.65 349.543 129.857C349.389 129.858 349.238 129.898 349.105 129.975C348.972 130.051 348.86 130.161 348.781 130.293C347.595 133.306 345.521 135.887 342.833 137.693C341.555 138.487 340.044 138.821 338.551 138.639C337.057 138.457 335.671 137.77 334.621 136.693C334.097 136.127 333.115 136.869 333.553 137.521C334.597 138.885 336.081 139.845 337.754 140.238C339.426 140.631 341.183 140.433 342.725 139.677C346.067 137.975 348.687 135.13 350.109 131.661C353.941 131.506 357.739 132.434 361.067 134.339C368.499 139.305 373.435 151.595 367.711 166.299C360.922 164.837 353.977 164.229 347.037 164.489C348.917 159.657 349.663 158.871 350.415 156.605C350.695 155.753 349.545 155.429 349.085 156.037C347.356 158.964 345.898 162.044 344.729 165.237C344.691 165.377 344.687 165.525 344.715 165.668C344.743 165.81 344.804 165.945 344.892 166.061C344.98 166.176 345.094 166.271 345.224 166.336C345.354 166.401 345.497 166.435 345.643 166.437C346.363 166.413 347.059 166.395 347.779 166.373C347.191 168.007 346.779 169.731 346.079 171.339C344.601 174.719 343.603 175.263 343.617 176.591C343.619 176.654 343.634 176.717 343.663 176.774C343.691 176.831 343.732 176.881 343.782 176.92C343.832 176.959 343.89 176.987 343.952 177.002C344.014 177.016 344.079 177.016 344.141 177.003C344.957 176.59 345.592 175.893 345.927 175.043C347.492 172.355 348.596 169.424 349.195 166.373C354.334 166.346 359.466 166.769 364.531 167.637C362.505 173.837 359.44 179.648 355.469 184.823C352.469 188.493 348.483 192.265 336.341 189.399C326.369 187.045 318.639 180.775 311.029 173.999C309.783 172.891 302.829 175.777 297.893 173.369C296.36 172.564 294.986 171.485 293.841 170.187C291.861 168.075 291.685 167.223 290.529 166.787C290.439 166.764 290.345 166.762 290.255 166.781C290.164 166.8 290.079 166.839 290.005 166.895C289.932 166.952 289.872 167.025 289.831 167.108C289.79 167.191 289.768 167.282 289.767 167.375C289.891 168.19 290.282 168.941 290.879 169.511C292.534 171.85 294.73 173.755 297.279 175.065C301.188 176.568 305.511 176.59 309.435 175.129C314.906 180.392 321.097 184.851 327.821 188.375C326.835 188.457 327.447 189.879 327.581 192.099C325.075 191.577 323.581 195.099 322.981 197.611C316.337 198.757 301.089 201.775 294.581 204.147C287.893 206.581 284.877 209.445 282.665 212.817C283.965 223.917 285.099 249.879 285.497 261.417C288.651 271.017 292.561 280.335 296.897 292.373C297.163 293.111 298.397 293.287 298.575 292.373C299.119 289.561 299.703 285.805 300.575 282.961C304.669 290.433 308.915 297.831 313.121 305.247C313.218 305.412 313.366 305.542 313.543 305.616C313.72 305.691 313.917 305.706 314.103 305.661L316.089 304.873C316.369 306.239 316.77 307.578 317.289 308.873C316.786 309.022 316.323 309.285 315.936 309.639C315.549 309.994 315.248 310.432 315.055 310.921C314.102 313.039 312.91 315.041 311.503 316.889C306.641 322.995 302.833 323.289 299.479 325.907C296.125 328.525 296.793 332.671 298.151 332.639C300.853 332.573 303.575 332.391 306.275 332.269C315.575 331.845 315.455 332.519 318.583 327.607C319.763 325.757 320.937 323.925 322.025 322.031C322.069 324.861 322.135 327.671 322.157 330.503C322.162 330.713 322.248 330.914 322.397 331.063C322.546 331.212 322.746 331.297 322.957 331.303C324.957 331.187 326.957 330.957 328.957 330.703C329.128 330.656 329.279 330.553 329.386 330.41C329.492 330.268 329.548 330.094 329.545 329.917C329.627 324.108 329.387 318.299 328.827 312.517C328.669 310.971 328.845 307.665 326.887 307.071C324.783 306.431 327.171 309.161 323.811 301.827C323.991 301.728 324.136 301.576 324.226 301.391C324.317 301.207 324.349 300.999 324.317 300.797C320.043 276.625 316.531 257.457 308.087 235.619C308.24 235.539 308.368 235.418 308.457 235.271C330.521 234.995 364.755 232.889 367.733 211.503C368.463 206.251 366.333 196.825 363.133 194.773C364.243 186.561 366.011 178.477 367.163 170.289C367.188 170.167 367.167 170.041 367.103 169.935C367.038 169.829 366.936 169.752 366.817 169.718C366.697 169.685 366.57 169.698 366.46 169.756C366.35 169.813 366.266 169.91 366.225 170.027C363.883 177.966 362.276 186.103 361.425 194.337C360.923 194.381 360.425 194.495 359.921 194.555C353.487 195.321 332.619 194.987 328.921 192.703C328.921 186.679 325.167 188.671 334.977 191.179C339.674 192.499 344.631 192.596 349.377 191.463C354.013 190.189 356.909 186.123 359.419 182.263C362.442 177.993 364.454 173.091 365.301 167.929C366.171 168.081 367.043 168.253 367.915 168.453C368.16 168.513 368.419 168.476 368.638 168.35C368.857 168.224 369.02 168.019 369.091 167.777C373.257 157.437 373.339 146.115 366.691 137.345C369.009 138.497 371.635 138.879 374.185 138.435C374.363 138.388 374.524 138.29 374.648 138.155C374.772 138.019 374.854 137.85 374.885 137.669C374.916 137.487 374.894 137.301 374.821 137.132C374.749 136.962 374.629 136.818 374.477 136.715ZM346.695 121.599C346.145 120.709 344.757 121.447 345.149 122.317C343.839 123.717 341.479 127.787 338.287 129.985C334.985 132.259 331.933 131.469 330.287 126.785C329.283 123.341 329.112 119.708 329.787 116.185C330.217 112.794 330.818 109.428 331.587 106.099C331.889 106.061 337.609 101.571 342.915 106.099C345.983 108.717 346.235 112.955 345.747 116.699C345.653 117.417 346.159 118.099 346.947 117.899C348.489 117.485 349.295 118.125 349.211 119.533C349.169 120.441 347.733 123.279 346.695 121.599ZM358.109 113.865C358.031 114.001 357.907 114.106 357.758 114.158C357.609 114.21 357.447 114.207 357.301 114.148C357.155 114.09 357.034 113.981 356.962 113.841C356.89 113.701 356.871 113.539 356.909 113.387C357.87 110.695 358.292 107.841 358.151 104.987C357.942 102.05 357.11 99.1912 355.711 96.6006C355.651 96.4882 355.636 96.3569 355.671 96.2341C355.705 96.1113 355.785 96.0065 355.895 95.9416C356.005 95.8768 356.136 95.8569 356.26 95.8862C356.384 95.9154 356.492 95.9915 356.561 96.0986C360.417 101.799 360.435 109.899 358.109 113.865ZM324.709 307.917C323.861 309.159 323.653 309.603 323.133 309.965C322.778 310.264 322.337 310.441 321.874 310.468C321.41 310.496 320.951 310.373 320.563 310.119C320.013 309.535 319.332 309.09 318.577 308.821C318.362 307.288 317.929 305.794 317.291 304.385C323.681 301.853 321.439 302.751 322.565 302.297C323.903 305.747 323.941 307.035 324.701 307.915L324.709 307.917ZM338.295 204.661C338.491 204.671 338.675 204.755 338.81 204.897C338.945 205.039 339.02 205.228 339.02 205.424C339.02 205.619 338.945 205.808 338.81 205.95C338.675 206.092 338.491 206.177 338.295 206.187C322.573 206.855 297.227 208.787 289.433 222.459C283.833 232.279 288.385 246.787 291.633 257.249C295.669 270.249 298.255 274.649 300.391 280.863C300.563 281.363 299.821 281.627 299.563 281.211C295.583 274.811 290.881 261.011 288.779 253.785C286.499 245.961 284.077 237.753 285.251 229.517C287.337 214.869 302.437 208.587 316.967 205.717C323.989 204.368 331.166 204.012 338.287 204.659L338.295 204.661Z" fill="#191919"/>
<path d="M79.0444 109.616C79.5684 109.506 79.5024 108.768 79.0444 108.616C76.1464 107.642 75.3184 112.038 75.9744 113.976C76.3734 115.094 77.1402 116.043 78.1492 116.669C79.1582 117.294 80.3496 117.558 81.5284 117.418C81.6804 118.55 81.8284 119.662 81.9424 120.794C81.9852 122.073 82.1236 123.347 82.3564 124.606C82.6044 125.562 83.8864 125.26 83.9904 124.388C83.8946 121.627 83.6106 118.876 83.1404 116.154C83.0771 115.928 82.928 115.735 82.7248 115.617C82.5216 115.499 82.2803 115.465 82.0524 115.522C77.3864 116.818 75.7864 110.3 79.0444 109.616Z" fill="#191919"/>
<path d="M99.4123 98.136C99.1303 97.412 97.5923 93.472 97.1703 92.8C98.9825 90.722 100.413 88.34 101.396 85.764C101.84 84.5615 101.886 83.2487 101.529 82.0178C101.172 80.787 100.43 79.7028 99.4123 78.924C97.1003 77.448 94.1163 78.35 91.9203 79.62C89.4103 81.072 87.3003 83.146 84.7083 84.456C81.6583 85.998 78.4143 85.372 75.1683 85.828C73.8118 85.9385 72.5099 86.4113 71.3985 87.1969C70.2871 87.9825 69.4071 89.0521 68.8503 90.294C66.0203 96.852 70.3743 104.126 74.5803 108.964C74.9943 109.53 75.8803 108.814 75.5163 108.222C72.6943 103.622 68.9163 98.822 69.9163 93.022C70.0448 91.7706 70.5678 90.5924 71.4098 89.6577C72.2518 88.723 73.3691 88.0801 74.6003 87.822C77.3003 87.222 80.1323 87.778 82.8343 87.148C87.8963 85.964 91.2743 81.124 95.4343 80.22C96.0005 80.0479 96.6017 80.0264 97.1787 80.1579C97.7556 80.2893 98.2883 80.569 98.724 80.9694C99.1597 81.3697 99.4834 81.8769 99.663 82.4407C99.8427 83.0045 99.8721 83.6054 99.7483 84.184C99.5333 85.4816 99.0511 86.7205 98.3323 87.822C96.3803 91.162 95.6503 92.262 92.4063 93.246C87.6229 94.693 82.7028 95.6421 77.7243 96.078C77.1803 96.126 76.5123 96.678 76.7883 97.32C78.1883 100.52 79.2943 103.826 77.7683 107.232C77.4363 107.972 78.3543 108.864 78.9683 108.168C81.5503 105.24 80.4503 101.242 79.1203 97.91C83.5703 97.44 93.2963 95.682 96.2203 93.618C97.0083 97.386 101.366 105.618 102.102 112.57C102.435 114.12 102.306 115.733 101.732 117.21C100.358 119.704 96.2463 120.106 91.8423 121.064C90.9251 121.138 90.0341 121.406 89.2283 121.85C89.1273 121.915 89.0468 122.007 88.9964 122.116C88.9459 122.225 88.9276 122.346 88.9436 122.464C88.9596 122.583 89.0091 122.695 89.0865 122.787C89.1639 122.879 89.2658 122.946 89.3803 122.982C92.1737 122.665 94.9403 122.146 97.6583 121.428C98.5843 123.36 98.8723 125.542 99.8803 124.964C100.846 124.41 99.4183 122.254 98.6103 121.152C104.492 119.334 106.254 115.658 99.4123 98.136Z" fill="#191919"/>
<path d="M84.8305 107.496C85.1261 107.762 85.479 107.957 85.8619 108.066C86.2448 108.174 86.6475 108.193 87.039 108.122C87.4304 108.05 87.8002 107.889 88.1198 107.652C88.4394 107.415 88.7004 107.108 88.8825 106.754C89.1885 106.08 89.3345 104.866 88.7085 104.336C88.6429 104.272 88.5636 104.225 88.4767 104.196C88.3899 104.168 88.2977 104.16 88.2072 104.173C88.1167 104.185 88.0303 104.218 87.9546 104.27C87.879 104.321 87.816 104.389 87.7705 104.468C87.2645 105.24 88.0985 106.718 86.6165 106.754C85.5265 106.782 85.2045 105.634 84.3285 105.296C83.8565 105.112 83.3225 106.234 84.8305 107.496Z" fill="#191919"/>
<path d="M95.8077 103.707C95.3077 103.677 94.9117 103.079 94.5237 102.835C94.4373 102.786 94.3381 102.762 94.2386 102.769C94.1391 102.775 94.0438 102.811 93.9645 102.872C93.8852 102.932 93.8256 103.015 93.7931 103.109C93.7605 103.203 93.7566 103.305 93.7817 103.401C93.9396 103.923 94.2682 104.376 94.7147 104.688C95.1612 105.001 95.6997 105.154 96.2437 105.123C96.7912 104.991 97.2657 104.651 97.5666 104.175C97.8675 103.699 97.9712 103.124 97.8557 102.573C97.7557 101.617 96.2557 101.615 96.3537 102.573C96.3977 102.993 96.4197 103.741 95.8077 103.707Z" fill="#191919"/>
<path d="M90.0464 99.88C89.6964 99.62 89.3504 100.096 89.5024 100.424C90.4204 102.404 91.8164 104.19 92.9224 106.066C95.2444 110.01 94.6924 109.518 93.4884 109.594C92.8564 109.634 92.2244 109.624 91.5924 109.66C91.3844 109.66 91.185 109.743 91.038 109.89C90.891 110.037 90.8084 110.236 90.8084 110.444C90.8084 110.652 90.891 110.851 91.038 110.998C91.185 111.145 91.3844 111.228 91.5924 111.228C92.5012 111.267 93.4117 111.238 94.3164 111.142C94.8501 111.175 95.3814 111.046 95.8404 110.772C96.8404 109.894 95.9304 108.22 95.4704 107.286C94.2462 104.439 92.3916 101.906 90.0464 99.88Z" fill="#191919"/>
<path d="M105.761 135.059C103.627 134.187 101.447 133.403 99.2254 132.729C99.2254 132.707 99.2474 132.707 99.2474 132.685C99.6014 132.015 102.447 124.783 102.667 124.167C102.953 123.341 101.603 122.753 101.231 123.567C100.169 125.857 99.3014 128.247 98.3774 130.603C98.1114 131.277 97.9774 132.203 97.0694 132.085C96.5105 131.934 95.9699 131.722 95.4574 131.453C89.9527 129.444 84.6975 126.809 79.7954 123.599C78.9654 123.123 76.4354 127.655 75.5474 129.045C74.7834 130.245 76.6174 129.877 93.6054 141.287C93.9385 140.874 94.311 140.495 94.7174 140.155C89.0094 136.277 83.1714 132.573 77.1594 129.155C77.9434 127.827 78.7234 126.517 79.4034 125.155C79.7294 124.495 78.2754 124.955 85.8294 128.945C89.4489 130.765 93.1651 132.385 96.9614 133.799C97.1614 133.799 97.1054 133.577 95.5454 139.551C96.1461 139.124 96.7879 138.759 97.4614 138.461C97.8314 137.061 98.2034 135.651 98.5734 134.261C106.427 136.589 103.961 136.701 107.417 136.701C107.073 132.958 106.538 129.236 105.817 125.547C105.649 124.719 104.217 124.893 104.313 125.747C104.705 128.799 105.261 131.923 105.761 135.059Z" fill="#191919"/>
<path d="M173.936 331.618C173.354 331.618 150.642 331.304 144.55 331.27C142.484 331.258 143.22 331.892 141.63 327.24C141.579 327.078 141.477 326.938 141.34 326.838C141.203 326.738 141.038 326.684 140.868 326.684C140.699 326.684 140.534 326.738 140.397 326.838C140.26 326.938 140.158 327.078 140.106 327.24C139.728 328.64 139.344 330.028 138.972 331.422C136.946 331.248 134.942 331.074 132.916 330.92C134.794 320.77 136.016 318.622 136.38 314.8C136.378 314.693 136.34 314.591 136.274 314.507C136.208 314.424 136.117 314.364 136.014 314.337C135.91 314.31 135.801 314.317 135.703 314.357C135.604 314.397 135.521 314.469 135.466 314.56C133.678 318.136 131.886 327.454 131.13 331.444C131.1 331.565 131.098 331.692 131.123 331.815C131.147 331.937 131.199 332.053 131.274 332.153C131.349 332.253 131.446 332.335 131.556 332.394C131.667 332.452 131.789 332.485 131.914 332.49C134.46 332.744 136.99 332.944 139.54 333.122C139.719 333.122 139.892 333.063 140.034 332.954C140.175 332.846 140.278 332.694 140.324 332.522C140.524 331.762 140.724 331.02 140.912 330.258C141.046 330.895 141.266 331.511 141.566 332.088C142.298 333.246 144.244 332.888 145.378 332.916C149.21 333.032 174.024 333.372 174.088 333.372C174.066 333.182 173.936 331.832 173.936 331.618Z" fill="#191919"/>
<path d="M152.317 317.826C151.272 316.464 149.831 315.458 148.191 314.948C148.403 313.044 148.991 307.616 149.205 305.6C154.069 305.884 159.515 306.2 163.471 306.412C163.696 306.408 163.91 306.317 164.068 306.159C164.227 306 164.318 305.786 164.321 305.562C164.321 268.202 163.691 250.148 166.739 233.196C168.699 236.006 170.637 238.816 172.599 241.596C172.467 230.334 172.349 218.81 172.337 207.44C172.34 206.779 172.561 206.138 172.967 205.618C173.374 205.097 173.941 204.726 174.581 204.564C170.999 198.224 165.049 187.906 157.917 187.288C156.659 187.204 155.396 187.352 154.191 187.724C154.927 186.866 155.557 185.923 156.065 184.914C159.517 178.15 157.911 170.478 156.151 163.13C152.069 146.07 145.719 136.53 134.247 125.402C131.868 123.056 129.362 120.841 126.741 118.768C123.227 116.074 119.341 114.394 115.111 115.706C112.697 116.456 104.045 121.906 106.157 123.222C106.171 123.286 108.197 132.26 109.185 136.662C110.024 136.718 110.841 136.948 111.585 137.338C112.161 137.611 112.609 138.098 112.832 138.695C113.056 139.292 113.039 139.953 112.785 140.538C112.999 140.538 114.461 140.592 114.855 140.646C117.053 140.088 119.326 139.886 121.587 140.046C122.283 140.086 122.883 140.046 123.373 140.646C123.457 140.733 123.504 140.85 123.504 140.972C123.504 141.093 123.457 141.21 123.373 141.298C122.449 142.076 122.297 141.34 117.557 141.698C117.816 141.908 118.027 142.172 118.176 142.47C118.326 142.768 118.41 143.094 118.425 143.428C118.439 143.761 118.383 144.093 118.259 144.403C118.136 144.713 117.949 144.993 117.709 145.226C117.807 145.311 117.889 145.414 117.949 145.53C118.315 145.164 119.349 145.25 119.975 145.226C121.903 145.154 122.007 146.464 119.975 146.426C119.405 146.464 118.833 146.42 118.275 146.296C118.4 146.937 118.282 147.602 117.944 148.161C117.605 148.721 117.071 149.134 116.445 149.322C116.563 149.527 116.651 149.748 116.707 149.978C117.581 149.735 118.469 149.545 119.365 149.41C119.476 149.381 119.591 149.379 119.702 149.402C119.814 149.424 119.918 149.472 120.009 149.542C120.099 149.611 120.172 149.7 120.223 149.802C120.273 149.904 120.3 150.016 120.301 150.13C120.101 153.398 125.745 155.228 124.919 156.598C127.075 155.226 129.319 153.986 131.563 152.722C130.167 151.393 129.32 149.59 129.189 147.668C128.737 143.562 130.279 141.268 129.341 139.586C128.059 137.296 124.527 137.4 122.283 137.43C120.926 137.437 119.574 137.598 118.253 137.908C117.161 138.351 115.99 138.566 114.811 138.54C114.725 138.514 114.645 138.468 114.579 138.407C114.512 138.347 114.461 138.271 114.427 138.188C114.394 138.104 114.38 138.013 114.386 137.923C114.392 137.833 114.419 137.746 114.463 137.668C115.463 135.938 119.921 135.51 121.913 135.468C124.419 135.416 127.553 135.426 129.603 137.102C131.975 139.042 131.257 141.59 130.953 144.248C130.644 145.597 130.654 147.001 130.982 148.346C131.31 149.691 131.947 150.942 132.843 151.998C133.147 151.824 133.473 151.65 133.779 151.454C133.9 151.38 134.038 151.341 134.179 151.341C134.32 151.341 134.459 151.38 134.579 151.454C139.964 154.783 144.8 158.927 148.913 163.74C150.334 165.157 151.479 166.827 152.289 168.664C152.489 169.252 151.743 169.514 151.353 169.208C148.721 167.138 145.777 160.582 134.143 153.11C130.375 155.244 126.629 157.574 122.685 159.34C122.485 159.406 131.045 177.472 137.999 185.002C138.98 186.26 140.214 187.298 141.621 188.048C143.029 188.799 144.578 189.245 146.169 189.358C146.823 189.486 146.647 190.316 146.169 190.512C143.249 191.712 139.769 189.164 137.739 187.268C132.925 182.197 128.98 176.367 126.061 170.014C124.419 166.794 122.993 163.467 121.793 160.058C121.801 159.501 121.938 158.953 122.193 158.458C122.919 157.946 123.651 157.458 124.393 156.976C123.565 157.086 122.973 156.414 122.367 155.932C120.61 154.806 119.347 153.053 118.837 151.03C116.107 151.372 116.889 150.962 116.637 151.466C115.781 153.174 114.887 152.786 112.521 153.23C112.587 153.43 114.627 166.608 115.483 183.62C113.131 181.07 110.684 178.616 108.141 176.256C108.245 175.618 108.817 167.802 108.883 162.75C108.883 162.004 108.071 161.85 107.509 161.596C107.611 161.396 108.709 158.748 108.991 157.914C109.701 155.968 109.654 153.827 108.861 151.914C110.777 151.676 112.715 151.472 114.633 151.174C115.351 151.064 115.113 150.032 114.481 149.974C112.138 149.824 109.786 149.934 107.467 150.302C106.855 150.382 106.293 151.018 106.703 151.63C108.915 154.918 106.873 158.368 105.767 160.888C101.801 159.4 97.5153 158.146 97.3153 158.1C98.7313 152.162 94.2693 147.584 96.6613 144.07C98.5333 141.324 103.951 140.628 107.249 140.542C108.477 140.72 109.728 140.652 110.929 140.342C111.021 140.288 111.099 140.214 111.157 140.125C111.216 140.036 111.253 139.935 111.265 139.829C111.278 139.724 111.266 139.617 111.231 139.517C111.196 139.416 111.137 139.326 111.061 139.252C109.901 138.584 108.558 138.304 107.227 138.452C103.401 138.322 98.1813 139.17 95.4413 141.938C94.5391 143.039 93.945 144.359 93.7194 145.764C93.4939 147.17 93.645 148.61 94.1573 149.938C95.4193 154.748 95.3953 153.938 95.2233 158.128C95.0657 158.201 94.9189 158.296 94.7873 158.41C94.4713 158.01 79.1593 136.664 75.7273 131.66C70.0133 123.326 72.1853 126.306 71.2433 124.998C70.6593 124.188 69.2553 124.506 68.3213 124.598C58.8533 125.562 50.9953 132.998 50.8053 148.712C50.5773 167.836 54.7933 196.342 69.8893 207.966C73.6569 210.96 77.97 213.194 82.5893 214.544C82.8453 215.114 83.1093 215.688 83.3713 216.26C87.9713 215.374 94.3953 215.174 105.637 214.914C121.509 214.548 139.537 213.008 146.037 227.548C150.276 225.246 154.267 222.517 157.949 219.402C158.044 219.312 158.158 219.244 158.282 219.204C158.406 219.164 158.537 219.151 158.667 219.168C158.796 219.185 158.92 219.23 159.03 219.3C159.14 219.371 159.232 219.465 159.301 219.576C161.636 222.65 163.768 225.874 165.683 229.226C166.035 229.944 165.069 230.84 164.507 230.142C162.303 227.305 160.252 224.353 158.363 221.298C154.891 224.453 150.86 226.932 146.477 228.608C149.381 236.158 148.477 246.008 146.383 256.196C146.183 257.176 144.271 266.03 143.027 266.324C141.558 266.678 140.066 266.924 138.561 267.062C136.093 279.712 133.469 292.262 132.855 303.816C132.861 304.045 132.954 304.263 133.116 304.425C133.278 304.587 133.496 304.68 133.725 304.686C135.379 304.808 137.037 304.886 138.715 304.97C138.605 305.71 138.065 309.892 137.887 311.244C137.651 312.43 137.513 313.634 137.473 314.844C135.135 315.104 140.033 321.974 143.873 319.266C146.541 317.386 146.935 315.336 150.299 318.7C153.079 321.819 156.807 323.939 160.909 324.734C165.291 325.934 172.227 327.21 173.477 327.522C173.391 326.868 173.347 326.192 173.325 325.54C164.905 323.572 157.143 322.894 152.317 317.826ZM73.1773 156.254C77.0773 143.944 76.9453 144.93 76.8353 144.73C72.1115 143.459 67.3081 142.506 62.4573 141.876C61.9993 141.814 61.5233 141.42 61.7153 140.896C63.3965 136.099 65.4584 131.444 67.8813 126.976C68.1873 126.434 69.1473 126.804 68.9053 127.412C67.1473 131.812 65.2013 136.082 63.5233 140.482C67.7933 141.12 69.9233 141.502 74.4153 142.464C76.5913 142.932 78.9133 143.004 78.3813 145.166C78.2553 145.676 74.9613 155.922 74.8953 156.124C79.0981 158.525 83.137 161.203 86.9853 164.14C87.3593 164.574 87.0053 165.452 86.3853 165.208C84.1995 164.029 82.1026 162.692 80.1113 161.208C73.5873 157.032 72.9373 157.208 73.1773 156.254ZM82.3773 186.6C80.7353 191.47 80.5993 193.714 79.7633 195.4C79.4813 195.968 78.7173 195.64 78.6733 195.118C78.4733 192.836 80.5213 186.502 81.3093 184.398C79.9553 183.496 78.4953 179.94 77.9333 178.584C76.9257 176.718 76.5007 174.593 76.7133 172.484C76.8293 171.962 77.5873 172.112 77.6073 172.614C77.7473 176.246 81.4213 181.804 81.9413 182.788C85.0516 175.038 88.804 167.561 93.1593 160.436C93.2548 160.274 93.4106 160.157 93.5925 160.11C93.7744 160.063 93.9675 160.09 94.1293 160.186C94.2911 160.281 94.4083 160.437 94.4552 160.619C94.5021 160.801 94.4748 160.994 94.3793 161.156C92.4993 165.51 86.3573 174.768 82.3693 186.598L82.3773 186.6ZM107.123 185.968C105.765 193.354 102.893 202.618 98.2793 208.514C95.2093 212.436 90.1473 215.744 85.0133 213.982C84.9024 213.947 84.8073 213.875 84.7448 213.777C84.6823 213.679 84.6566 213.563 84.6722 213.448C84.6878 213.333 84.7437 213.227 84.83 213.149C84.9163 213.072 85.0273 213.027 85.1433 213.024C91.0113 212.89 95.3933 211.376 99.6953 203.068C102.306 197.742 104.176 192.083 105.251 186.25C106.079 181.85 105.817 181.5 106.383 180.25C106.456 180.13 106.562 180.035 106.688 179.975C106.814 179.915 106.955 179.893 107.093 179.911C107.231 179.929 107.361 179.988 107.467 180.079C107.573 180.17 107.65 180.29 107.689 180.424C107.845 182.291 107.65 184.172 107.115 185.968H107.123ZM146.771 192.35C140.568 194.949 134.554 197.977 128.771 201.412C118.735 207.746 115.571 212.112 112.913 213.786C112.795 213.851 112.658 213.876 112.524 213.857C112.39 213.837 112.265 213.775 112.169 213.68C112.074 213.584 112.011 213.459 111.992 213.325C111.973 213.191 111.998 213.054 112.063 212.936C114.407 209.162 130.833 195.464 146.351 191.37C146.915 191.22 147.331 192.094 146.763 192.35H146.771ZM146.387 314.95C144.941 315.282 144.241 316.106 142.435 317.796C141.169 318.428 139.571 316.836 138.623 315.768C139.08 314.532 139.324 313.229 139.343 311.912C139.529 310.408 140.061 305.856 140.143 305.072C141.931 305.168 144.585 305.32 147.563 305.494C147.356 308.67 146.961 311.83 146.379 314.96L146.387 314.95Z" fill="#191919"/>
<path d="M132.694 216.474C125.166 214.182 116.394 214.7 105.638 214.948C94.3959 215.208 87.9779 215.408 83.3719 216.294C83.1099 215.722 82.8459 215.148 82.5899 214.578C77.9711 213.23 73.658 210.998 69.8899 208.006C54.7499 196.354 50.5779 167.758 50.8059 148.752C50.9959 133.03 58.8539 125.602 68.3219 124.638C71.4559 124.32 70.5479 124.066 73.7959 128.864C73.9842 128.263 74.2685 127.696 74.6379 127.186C75.5415 125.657 76.5311 124.181 77.6019 122.764C77.8881 122.348 78.303 122.037 78.7829 121.88C79.2628 121.723 79.781 121.728 80.2579 121.894C80.2119 121.196 80.2119 120.87 79.9759 119.094C79.022 118.986 78.102 118.677 77.2772 118.185C76.4525 117.694 75.742 117.033 75.1931 116.245C74.6442 115.458 74.2696 114.562 74.0942 113.618C73.9188 112.675 73.9466 111.704 74.1759 110.772C73.7932 110.641 73.4536 110.408 73.1939 110.098C66.9479 102.576 64.6739 95.414 67.1819 89.598C67.861 88.0856 68.9298 86.7808 70.2789 85.8172C71.628 84.8536 73.209 84.2658 74.8599 84.114C78.0319 83.66 81.3139 84.19 83.8599 82.894C86.2059 81.694 88.5879 79.494 90.9819 78.094C98.9819 73.402 105.072 79.254 103.008 86.264C102.079 88.7036 100.799 90.9945 99.2079 93.064C101.718 98.766 105.372 108.108 105.526 114.304C105.673 115.692 105.431 117.093 104.827 118.351C104.223 119.61 103.281 120.675 102.106 121.428C102.62 121.483 103.107 121.687 103.506 122.016C103.905 122.345 104.198 122.784 104.35 123.278C104.965 123.103 105.623 123.156 106.202 123.428L106.158 123.228C104.046 121.908 112.698 116.462 115.112 115.712C122.216 113.512 128.512 119.854 134.248 125.408C133.662 120.941 132.822 116.511 131.732 112.14C127.85 96.75 118.532 76.108 104.11 69.66C79.1939 58.526 24.7579 79.312 13.5559 109.906C7.62987 126.088 11.9139 151.272 16.4759 167.896C21.9048 187.061 29.4212 205.572 38.8899 223.096C51.2779 246.432 66.0639 266.73 92.7199 267.896C92.6319 274.844 92.8279 298.632 92.9199 301.682C89.0919 299.95 85.8959 298.658 77.4739 295.126C75.5902 294.234 73.6189 293.54 71.5919 293.056C68.4999 292.466 64.7099 293.166 63.0539 296.15C62.7129 296.821 62.5134 297.554 62.4677 298.305C62.4221 299.056 62.5314 299.808 62.7887 300.515C63.046 301.222 63.4459 301.868 63.9636 302.414C64.4812 302.96 65.1056 303.394 65.7979 303.688C66.5076 303.939 67.2622 304.038 68.0126 303.978C68.763 303.918 69.4925 303.702 70.1539 303.342C70.8152 302.983 71.3935 302.488 71.8514 301.891C72.3093 301.293 72.6366 300.606 72.8119 299.874C78.9339 301.922 85.0779 303.948 91.2859 305.674C85.5716 308.443 80.0991 311.686 74.9259 315.368C72.4019 317.464 70.4739 320.84 71.8759 324.126C73.0019 326.764 76.7999 329.326 79.5219 327.284C81.5379 325.766 82.7219 321.384 80.1539 319.572C85.1398 314.98 90.4305 310.73 95.9899 306.852C105.722 309.128 115.322 310.294 123.46 313.852C120.922 318.196 122.576 321.366 125.508 322.174C129.108 323.174 132.072 320.082 132.458 316.706C132.902 312.808 129.858 309.468 126.576 307.862C122.202 306.101 117.592 304.993 112.896 304.572C109.148 303.99 105.358 303.526 101.59 303.172C105.924 300.406 110.412 297.878 115.008 295.548C115.176 295.952 115.432 296.314 115.759 296.606C116.085 296.897 116.473 297.112 116.894 297.233C117.315 297.354 117.758 297.379 118.189 297.306C118.621 297.233 119.031 297.063 119.388 296.81C119.861 296.377 120.219 295.834 120.43 295.229C120.641 294.624 120.698 293.976 120.597 293.343C120.495 292.71 120.238 292.112 119.848 291.604C119.458 291.095 118.948 290.691 118.364 290.428C115.338 288.828 111.964 290.366 109.28 291.932C105.599 294.036 102.107 296.456 98.8439 299.164C98.8659 294.35 98.8219 276.508 98.9099 268.186C106.162 268.546 135.466 268.15 143.022 266.356C144.266 266.062 146.174 257.208 146.378 256.228C150.03 238.512 150.046 221.756 132.694 216.474ZM82.2539 216.532C76.2775 217.851 70.0242 216.907 64.7039 213.882C50.8799 206.756 40.9599 186.776 35.3399 172.252C31.2052 161.572 28.3389 150.444 26.7999 139.096C25.3039 128.03 24.5059 116.59 29.0439 106.116C33.1861 96.8537 39.9 88.9751 48.3879 83.416C48.4843 83.3615 48.597 83.3433 48.7057 83.3647C48.8144 83.3861 48.9118 83.4456 48.9804 83.5326C49.049 83.6195 49.0843 83.7282 49.0798 83.8388C49.0753 83.9495 49.0313 84.0549 48.9559 84.136C44.8319 87.8156 40.9892 91.7987 37.4599 96.052C30.6135 104.503 27.1876 115.215 27.8599 126.07C28.8379 155.3 41.7539 187.27 54.6319 202.47C66.3919 216.346 76.4899 214.502 81.6459 215.192C81.7942 215.207 81.936 215.26 82.0572 215.347C82.1785 215.434 82.2749 215.551 82.337 215.686C82.3991 215.821 82.4246 215.971 82.4111 216.119C82.3976 216.268 82.3454 216.41 82.2599 216.532H82.2539Z" fill="#F15929"/>
</svg>
