<svg width="320" height="333" viewBox="0 0 320 333" fill="none" xmlns="http://www.w3.org/2000/svg">
<path d="M108.827 253.924C111.736 252.894 114.716 252.078 117.744 251.481L118.11 252.825C118.151 252.983 118.248 253.122 118.383 253.215C118.517 253.308 118.681 253.349 118.843 253.331L130.831 251.935C134.13 244.414 140.185 233.019 140.272 232.845C140.185 230.001 140.272 227.61 140.272 224.888C133.414 227.435 120.728 232.269 114.097 235.358C113.947 235.454 113.831 235.595 113.765 235.761C113.7 235.927 113.687 236.109 113.73 236.283C113.73 236.283 113.853 236.719 114.01 237.347C110.764 237.347 101.044 236.876 98.706 239.092C98.3425 239.599 98.1639 240.215 98.2 240.837C98.0604 243.245 99.2644 261.951 101.184 267.448C102.179 270.327 104.273 270.013 105.703 267.256C107.36 263.104 108.423 258.74 108.862 254.291C108.862 254.064 108.81 254.082 108.827 253.924ZM106.82 238.307C108.949 238.132 109.612 238.167 114.184 238.028C115.004 241.134 116.697 247.52 117.569 250.783C114.491 251.26 111.452 251.966 108.478 252.895C107.551 248.082 106.997 243.205 106.82 238.307Z" fill="#212121"/>
<path fill-rule="evenodd" clip-rule="evenodd" d="M268.844 83.5776C269.315 84.1883 269.873 84.9736 269.437 85.5843C261.043 97.3631 246.42 112.684 239.65 118.129C233.827 122.68 221.447 121.315 213.953 120.489L213.597 120.449C213.851 121.844 214.275 123.906 214.781 126.367C216.985 137.089 220.748 155.393 218.832 159.154C217.732 161.317 214.347 163.673 210.648 165.68L199.166 169.257C203.493 167.774 215.481 162.609 217.541 158.508C219.226 155.187 215.313 136.246 213.196 126.001C212.421 122.248 211.886 119.662 211.957 119.437C211.848 119.156 211.696 118.761 211.512 118.283C210.279 115.08 207.602 108.124 206.722 106.332C206.689 106.27 206.681 106.198 206.699 106.13C206.717 106.062 206.76 106.003 206.82 105.966C206.879 105.928 206.951 105.915 207.02 105.928C207.089 105.941 207.151 105.979 207.193 106.036C209.938 109.912 211.852 114.314 212.812 118.966C213.171 118.981 213.841 119.063 214.748 119.174C218.207 119.599 225.116 120.448 231.378 119.577C233.98 119.369 236.485 118.498 238.655 117.047C245.391 111.794 259.927 96.6127 268.198 85.0608C267.256 83.1064 259.159 76.0392 257.274 76.3358C255.059 76.664 248.409 81.1077 242.169 85.2769C236.467 89.0876 231.107 92.669 229.79 92.669C229.241 92.664 226.95 91.7276 223.498 90.3167C214.995 86.8418 199.45 80.4885 185.537 78.0808C186.025 82.1991 186.287 86.3409 186.322 90.4878L194.158 93.7858C194.276 93.8351 194.379 93.917 194.453 94.0219C194.527 94.1269 194.57 94.2508 194.576 94.3791C194.607 95.8575 194.647 97.673 194.692 99.7212C194.984 112.976 195.492 135.972 194.978 140.325C196.912 149.883 198.31 159.543 199.166 169.257L187.823 172.538C187.823 172.538 187.928 172.241 187.823 172.416C187.795 172.463 187.774 172.513 187.759 172.511C187.718 172.507 187.718 172.131 187.718 170.339C187.304 161.21 186.225 152.124 184.49 143.152C184.487 143.152 184.483 143.152 184.48 143.152C184.321 143.153 184.159 142.787 157.652 104.762C157.602 104.674 157.575 104.575 157.575 104.474C157.575 104.373 157.602 104.274 157.652 104.186L160.985 97.5725C156.71 93.9778 151.074 89.1965 147.025 85.3575C146.3 84.8751 145.617 84.3322 144.983 83.7346C143.151 84.7118 141.476 85.6367 140.499 86.23C127.76 93.9603 90.9408 144.496 87.9045 150.638C89.475 153.063 99.1248 160.759 101.69 160.951C103.392 160.299 112.85 151.34 115.621 148.715C115.89 148.46 116.096 148.265 116.226 148.143C130.416 134.554 134.909 129.639 136.534 127.861C137.455 126.854 137.455 126.854 137.777 126.854C137.87 126.851 137.962 126.868 138.049 126.902C138.136 126.936 138.215 126.987 138.281 127.052C138.348 127.117 138.401 127.195 138.437 127.28C138.473 127.366 138.492 127.458 138.492 127.552C138.517 127.997 138.114 131.488 137.544 136.44C136.08 149.15 133.509 171.48 134.199 176.604C134.252 176.918 134.531 177.144 134.915 177.389C137.189 178.724 143.262 179.152 150.531 178.96L143.343 180.198C143.343 180.198 133.397 179.622 132.995 176.708C132.27 171.359 135.002 147.605 136.418 135.297C136.706 132.791 136.94 130.759 137.079 129.454C134.793 131.879 104.744 162.207 101.864 162.207C100.23 161.836 98.691 161.129 97.3449 160.131C96.5446 160.704 95.7865 161.334 95.0764 162.015C95.0194 162.398 95.1956 163.086 95.3945 163.863C95.8039 165.463 96.3095 167.438 95.0764 167.896C93.3673 168.518 92.1726 166.738 91.2612 165.38C91.0466 165.06 90.8478 164.764 90.6616 164.528C89.8885 165.077 88.8925 166.164 87.8385 167.314C85.6094 169.746 83.1214 172.46 81.9366 170.967C81.6219 170.481 81.4544 169.915 81.4544 169.336C81.4544 168.757 81.6219 168.19 81.9366 167.704C81.3991 168.051 80.8102 168.31 80.1916 168.472C79.0922 168.646 78.2197 168.088 78.4466 167.128C78.9976 166.013 79.7625 165.017 80.6976 164.197L80.6007 164.25C77.2932 166.065 77.2026 166.114 76.6841 165.942C76.4351 165.854 76.2133 165.703 76.0405 165.503C75.8678 165.304 75.75 165.062 75.6989 164.803C75.6478 164.544 75.6652 164.277 75.7492 164.026C75.8332 163.776 75.9811 163.552 76.1781 163.376C78.9293 160.403 84.0064 157.078 87.4931 154.795L87.7125 154.651C88.0488 154.272 88.3415 153.857 88.585 153.412C87.7946 152.703 87.1074 151.887 86.5434 150.987C86.4991 150.845 86.4991 150.693 86.5434 150.551C86.9447 148.073 126.294 93.8905 140.15 85.6716C141.144 85.0783 142.889 84.1534 144.739 83.1762C144.78 82.999 144.886 82.8435 145.036 82.74C146.943 81.6634 148.919 80.7132 150.951 79.8956L152.504 79.058C152.444 78.6669 152.366 78.1608 152.275 77.5749C151.95 75.4688 151.466 72.3314 151.056 69.7921C150.909 69.7841 150.766 69.7423 150.637 69.6699C150.161 69.3883 149.732 69.0352 149.363 68.6229C148.2 67.3603 147.472 65.7579 147.287 64.051C146.777 63.7477 146.333 63.3463 145.979 62.87C145.626 62.3938 145.37 61.8521 145.228 61.2765C145.071 60.6899 145.071 60.5246 144.998 60.4031C144.949 60.3222 144.868 60.2608 144.687 60.1073C144.49 59.9406 144.355 59.8562 144.206 59.7625C144.012 59.6405 143.793 59.503 143.378 59.1476C141.658 57.6803 141.331 56.9756 140.928 56.1081C140.746 55.7169 140.549 55.2925 140.202 54.7502C140.047 54.4959 139.889 54.2559 139.734 54.0222C139.508 53.6784 139.29 53.348 139.103 53.0052C136.433 48.1715 139.766 41.9593 142.383 42.3432H142.575C142.547 41.8492 142.547 41.354 142.575 40.86C143.588 37.5837 145.843 34.8341 148.857 33.1994C149.652 32.767 150.528 32.5048 151.429 32.4297C152.33 32.3546 153.237 32.4682 154.092 32.7632C154.281 32.3045 154.561 31.8887 154.915 31.5408C155.269 31.193 155.69 30.9202 156.151 30.739C156.94 30.2599 157.846 30.0065 158.769 30.0065C159.692 30.0065 160.597 30.2599 161.386 30.739C161.57 30.6103 161.735 30.4526 161.9 30.2938C162.049 30.1512 162.198 30.0078 162.364 29.8839C163.681 29.1157 165.248 28.8963 166.726 29.2732C167.705 29.5615 168.555 30.1776 169.134 31.0182H169.937C170.948 31.2572 171.865 31.7918 172.572 32.5538C174.09 34.573 173.755 35.3361 173.502 35.909C173.482 35.9549 173.463 35.9997 173.444 36.0438C173.944 36.841 174.371 37.682 174.718 38.5566C175.381 40.9996 173.462 42.8493 172.537 42.5701C172.514 42.9733 172.42 43.3693 172.258 43.7392C172.125 44.0437 172.043 44.1021 172.039 44.1659C172.032 44.2703 172.233 44.389 172.764 45.6238C173.619 45.3097 174.614 44.9956 175.085 45.3097C175.922 45.8681 176.463 48.1192 176.638 49.1138C177.091 51.5743 177.039 53.9824 175.067 55.4831C175.504 58.9033 175.573 64.243 174.003 67.3142C173.428 68.4291 172.497 69.031 171.589 69.6188C171.147 69.905 170.709 70.1879 170.321 70.525C170.434 70.837 170.598 71.2727 170.787 71.7731C171.358 73.288 172.153 75.3955 172.415 76.458H173.881C173.944 76.3722 174.025 76.3012 174.118 76.25C174.212 76.1987 174.315 76.1685 174.422 76.1613C177.929 76.0937 181.434 76.3566 184.892 76.9466C185.015 76.9636 185.132 77.0152 185.227 77.0955C185.323 77.1757 185.394 77.2814 185.433 77.4003C199.936 79.7239 216.103 86.2325 224.364 89.5583C227.393 90.7781 229.36 91.5697 229.79 91.5697C230.714 91.5697 235.252 88.5083 240.423 85.0199C246.977 80.5985 254.548 75.4912 257.065 75.062C257.744 75.024 258.421 75.175 259.019 75.4982L262.98 72.7586C261.864 70.7169 260.171 66.9652 262.352 66.1276C264.533 65.29 266.278 67.9424 267.378 70.2458C269.168 68.1844 271.098 66.2487 273.154 64.4524C274.201 63.5275 276.015 62.1141 277.254 62.7074C278.79 63.4403 278.581 64.9584 277.673 66.4068C280.169 65.3947 281.32 66.494 280.832 67.8551C280.438 68.7239 279.901 69.5203 279.244 70.2109C280.762 69.5652 281.879 69.635 282.507 70.7518C283.135 71.8686 281.46 73.7707 280.57 74.6955C278.426 76.8179 275.958 78.585 273.258 79.9305C271.658 80.9819 270.178 82.2048 268.844 83.5776ZM263.947 72.9958C263.921 73.0996 263.856 73.1896 263.766 73.2472L259.752 75.7774C262.937 77.7382 265.833 80.1346 268.355 82.897C271.635 79.5578 272.644 79.004 273.811 78.3635C274.705 77.8727 275.692 77.331 277.865 75.4459C278.738 74.6781 282.21 71.4324 281.041 70.9961C280.177 70.6736 278.101 72.1921 276.294 73.5134C275.658 73.9792 275.055 74.4204 274.55 74.7479C274.413 74.8621 274.236 74.9179 274.059 74.9033C273.881 74.8888 273.716 74.805 273.599 74.6701C273.483 74.5352 273.424 74.3598 273.435 74.1818C273.446 74.0038 273.527 73.8374 273.66 73.7183C273.751 73.6113 274.057 73.3185 274.483 72.9096C276.003 71.4512 279.062 68.5157 279.471 67.2618C278.427 67.3859 277.431 67.7699 276.574 68.3786C274.895 69.4991 273.292 70.7291 271.775 72.0606C271.147 72.5317 270.781 72.0257 270.781 71.572C270.731 71.5035 270.704 71.421 270.704 71.3364C270.704 71.2518 270.731 71.1693 270.781 71.1008C271.682 70.2568 272.625 69.4589 273.607 68.7102C277.883 64.8014 277.464 63.1262 275.719 64.0336C273.415 65.2202 269.332 69.635 267.587 71.572C267.52 71.6561 267.431 71.7203 267.33 71.7578C267.23 71.7954 267.121 71.8048 267.015 71.7851C266.909 71.7653 266.811 71.7172 266.73 71.6459C266.65 71.5745 266.59 71.4827 266.558 71.38C266.125 70.1179 265.482 68.938 264.656 67.89C264.115 67.2793 263.469 66.8256 262.736 67.1048C261.462 67.5585 263.294 71.5545 263.905 72.6888C263.958 72.7821 263.972 72.8919 263.947 72.9958ZM186.829 148.998C187.282 151.702 187.649 154.302 187.945 156.711L196.269 155C195.135 147.008 193.651 138.964 191.784 130.78C192.116 136.381 191.069 143.518 187.579 148.003L186.829 148.998ZM145.734 83.3333C150.026 87.4515 157.408 93.4717 161.997 96.9617C162.081 97.0365 162.139 97.1354 162.164 97.2448C162.189 97.3543 162.18 97.4688 162.137 97.5725L158.891 104.308L183.775 139.505C180.673 125.829 175.699 112.646 168.995 100.33C164.61 92.7339 159.123 85.8301 152.714 79.8433L145.734 83.3333ZM176.934 84.4152C175.102 79.9305 173.898 77.3654 173.793 77.1734L172.432 77.0513C172.31 78.6043 170.583 85.4971 170.199 87.0152C172.118 88.4489 174.219 89.6224 176.446 90.5052C176.603 88.9696 176.934 84.6071 176.934 84.4152ZM167.983 94.6932C167.843 95.1818 167.721 95.6006 167.599 95.9147H167.616C167.672 96.0035 167.729 96.0925 167.786 96.1817C168.677 97.5834 169.601 99.0377 170.356 100.399C170.339 100.027 170.291 99.6702 170.245 99.3291C170.195 98.9511 170.146 98.5924 170.146 98.253C169.771 95.826 169.738 95.4634 169.597 95.4148C169.514 95.3865 169.396 95.4644 169.152 95.304L167.983 94.6932ZM155.419 81.501C159.572 85.4357 163.325 89.7729 166.621 94.4489H166.639C166.924 93.4617 167.218 92.2416 167.502 91.0686C167.894 89.4424 168.264 87.9067 168.558 87.2072L155.419 81.501ZM177.652 97.3165C178.308 99.4839 179.118 102.157 180.04 104.675H180.058C181.171 107.873 181.47 108.38 182.377 109.921C183.474 111.785 185.462 115.161 190.859 126.644C187.487 113.278 183.25 100.146 178.173 87.3293C178.138 87.975 177.912 90.8891 177.772 91.465C177.747 91.6314 177.662 91.7831 177.534 91.8922C177.406 92.0012 177.242 92.0602 177.074 92.0583C176.805 92.0365 176.541 91.9778 176.289 91.8838C176.328 92.3191 176.328 92.7572 176.289 93.1925C176.601 93.8508 177.065 95.3822 177.652 97.3165ZM175.538 77.505C183.496 95.1295 190.493 118.914 194.472 137.987H194.489C194.516 136.219 194.187 124.898 193.878 114.291C193.596 104.584 193.331 95.4749 193.372 94.8328C193.223 94.7715 192.932 94.6529 192.544 94.4956C190.618 93.713 186.33 91.9706 185.502 91.5348C185.059 91.3016 185.059 91.2623 185.065 90.1179C185.071 88.6934 185.086 85.5568 184.263 78.203C181.378 77.74 178.461 77.5066 175.538 77.505ZM175.312 52.7783C175.617 50.6162 175.296 48.4117 174.387 46.4265C173.584 46.6185 168.558 47.84 168.087 48.4507C168.495 50.349 169.122 52.1935 169.954 53.9475C170.313 54.3886 170.787 54.7215 171.323 54.9093C171.859 55.0971 172.437 55.1324 172.993 55.0112C173.548 54.89 174.059 54.6171 174.468 54.2229C174.877 53.8287 175.169 53.3286 175.312 52.7783ZM148.421 63.1087C149.086 63.33 149.738 63.5863 150.375 63.8765V63.7893C151.388 64.243 151.475 64.4 151.44 65.0806C151.946 67.0175 153.534 77.5399 153.831 79.5117C162.139 82.7444 166.929 85.1271 168.35 85.8334C168.57 85.943 168.709 86.0122 168.768 86.038C169.683 83.2419 170.401 80.3846 170.914 77.4875C171.008 76.8619 170.99 76.8111 169.59 72.9243C169.428 72.4748 169.248 71.9739 169.047 71.4149C169.026 71.3259 169.001 71.238 168.977 71.1517C168.863 70.7475 168.759 70.3794 169.047 70.1062C169.522 69.6379 170.104 69.2704 170.679 68.9072C171.539 68.3637 172.384 67.8299 172.834 66.9826C174.299 64.2604 174.352 59.2697 174.073 56.1985C173.547 56.4483 172.976 56.5894 172.394 56.6134C171.812 56.6374 171.232 56.5438 170.687 56.3381C168.858 55.5928 168.492 54.1241 168.025 52.2511C168.011 52.1945 167.997 52.1376 167.983 52.0803C167.867 52.1409 167.739 52.2172 167.612 52.2932C167.335 52.4579 167.061 52.6213 166.918 52.6213C167.983 53.8602 170.687 57.9959 170.199 59.0952C170 59.4821 169.664 59.7808 169.256 59.9328C168.575 60.2221 167.86 60.4215 167.127 60.5261C167.056 60.5375 166.983 60.5226 166.922 60.484C166.861 60.4455 166.816 60.386 166.796 60.3167C166.755 60.1124 166.828 60.0756 167.144 59.9155C167.368 59.8022 167.713 59.6272 168.227 59.2872C168.464 59.1288 168.745 58.8984 168.939 58.7398C168.958 58.7237 168.977 58.7084 168.995 58.6939C168.347 57.3412 167.924 56.5826 167.537 55.8875C167.09 55.085 166.691 54.3672 166.046 52.9179C166.018 52.9263 165.956 52.9471 165.869 52.9762C165.412 53.1293 164.272 53.5112 163.847 53.5112C164.119 54.7293 164.119 55.9925 163.847 57.2106C162.748 60.8402 156.867 61.7476 154.86 58.6415C154.337 57.8214 152.644 52.8307 153.237 52.185C153.918 51.2602 159.554 49.5675 161.125 49.3232C161.398 49.2397 161.689 49.2397 161.962 49.3232C162.87 49.7944 163.446 51.487 163.707 52.3944C165.002 51.6904 166.416 51.2347 167.878 51.0508C167.773 50.5796 167.337 48.5903 167.634 48.2239C168.988 47.2311 170.497 46.4704 172.101 45.9728C171.944 45.5889 171.769 45.2225 171.577 44.856C170.789 45.7076 169.748 46.284 168.608 46.5008C167.468 46.7175 166.289 46.563 165.243 46.0601C164.78 45.7776 164.296 45.5325 163.795 45.3272C163.173 45.9555 162.469 46.4957 161.701 46.9326C160.58 47.5047 160.087 47.3604 159.425 47.167C159.118 47.0772 158.774 46.9768 158.315 46.9326C158.079 47.182 157.865 47.442 157.652 47.7005C156.733 48.8162 155.837 49.9046 153.272 50.0038C152.697 50.0326 152.124 49.906 151.614 49.6373C151.58 49.8118 151.614 55.1515 151.824 56.3556C152.002 57.4638 151.96 58.5963 151.702 59.6885C151.679 59.7673 151.639 59.8403 151.586 59.9027C151.533 59.965 151.467 60.0152 151.392 60.0499C151.318 60.0846 151.237 60.103 151.155 60.1039C151.073 60.1047 150.992 60.0881 150.916 60.055C150.716 59.9747 150.679 59.9047 150.414 59.3972C150.333 59.2425 150.231 59.0472 150.096 58.7986C149.189 57.42 148.194 57.3677 147.095 58.2925C146.806 58.6784 146.608 59.1253 146.519 59.5991C146.429 60.0729 146.449 60.561 146.577 61.0259C146.705 61.4909 146.938 61.9203 147.257 62.2813C147.577 62.6424 147.975 62.9254 148.421 63.1087ZM157.513 58.9556C159.397 59.4791 162.032 58.659 162.59 56.7569V56.6697C162.936 54.5148 162.523 52.3067 161.421 50.4226C160.636 50.5447 154.337 51.836 153.761 52.4642C153.911 53.4143 154.199 54.3373 154.616 55.2039C154.727 55.4863 154.826 55.7485 154.917 55.9921C155.564 57.7046 155.863 58.4973 157.513 58.9556ZM94.3431 164.125C94.0978 162.962 93.8825 161.942 94.3086 161.527C95.0233 160.898 95.7813 160.321 96.5771 159.799C93.9939 158.02 91.5443 156.055 89.2481 153.919C89.0014 154.42 88.6775 154.879 88.2884 155.28C88.0354 155.457 87.7702 155.642 87.4951 155.833C84.1645 158.156 79.3756 161.495 77.1029 164.284C77.0939 164.306 77.0844 164.327 77.075 164.349C76.9939 164.536 76.9153 164.717 77.1029 164.842C78.269 164.292 81.3337 162.551 83.2169 161.482C83.8419 161.127 84.3368 160.846 84.589 160.707C85.3044 160.34 85.6709 161.265 85.6709 161.265C85.6395 161.396 85.5732 161.517 85.4789 161.614C83.5704 163.321 81.7696 165.145 80.0869 167.076C81.9428 166.144 83.6438 164.932 85.1299 163.481C85.2365 163.386 85.3298 163.298 85.4138 163.219C85.7149 162.936 85.8965 162.766 86.142 162.766C86.2726 162.757 86.4031 162.783 86.5194 162.843C86.6357 162.903 86.7333 162.994 86.8017 163.106C86.8701 163.217 86.9065 163.345 86.9071 163.476C86.9077 163.607 86.8725 163.735 86.8051 163.848C86.7809 163.885 86.6506 164.022 86.4507 164.232C85.3578 165.378 82.1828 168.709 82.8614 170.007C83.6729 169.722 85.1269 168.179 86.5877 166.629C87.9855 165.145 89.3895 163.655 90.2428 163.254C90.9833 162.982 91.4883 163.836 91.9617 164.636C92.0349 164.76 92.1073 164.882 92.1797 164.999L92.1909 165.017C92.7329 165.891 93.6172 167.318 94.5704 167.006C94.6751 166.954 94.6751 166.273 94.6751 166.116C94.6252 165.461 94.4795 164.771 94.3431 164.125Z" fill="#212121"/>
<path fill-rule="evenodd" clip-rule="evenodd" d="M143.343 180.198C143.343 180.198 141.86 232.862 141.703 233.194L141.121 234.447C136.969 243.394 135.755 246.011 134.269 248.899C131.442 254.308 119.541 274.271 118.198 278.808C118.006 279.524 117.988 279.803 118.739 281.129C116.49 283.493 114.403 286.006 112.492 288.65C111.532 290.395 115.65 306.658 118.564 312.417C119.227 313.708 120.309 315.697 121.757 315.645C126.12 315.488 126.103 299.818 125.98 295.438C125.98 295.303 125.93 295.173 125.841 295.072C126.632 293.891 127.494 292.761 128.423 291.686C128.978 292.068 129.562 292.406 130.168 292.698C130.762 292.96 131.425 292.506 131.913 292.105C137.724 287.533 169.064 248.48 175.783 230.053C178.836 221.642 182.902 210.02 184.054 201.784C184.758 196.576 184.823 191.302 184.246 186.079C184.246 186.005 184.275 185.934 184.328 185.881C184.38 185.829 184.451 185.8 184.525 185.8C184.599 185.8 184.67 185.829 184.723 185.881C184.775 185.934 184.804 186.005 184.804 186.079C185.678 191.332 185.848 196.678 185.31 201.976C184.019 213.406 174.997 237.225 170.181 245.985C174.334 245.217 182.78 243.542 186.863 242.32C200.474 238.185 213.038 225.847 214.138 211.992C214.494 205.465 214.494 198.923 214.138 192.396C214.02 183.385 212.849 174.419 210.648 165.68L199.166 169.257L187.823 172.538C185.184 175.417 167.869 178.173 153.571 178.848C152.54 178.896 151.524 178.934 150.531 178.96L143.343 180.198ZM116.837 284.514C117.5 288.057 121.897 292.576 125.038 294.478C125.87 293.356 126.767 292.284 127.725 291.267C124.314 288.626 121.365 285.436 119 281.827C118.302 282.769 117.552 283.607 116.837 284.514Z" fill="#212121"/>
<path fill-rule="evenodd" clip-rule="evenodd" d="M268.844 83.5776C269.315 84.1883 269.873 84.9736 269.437 85.5843C261.043 97.3631 246.42 112.684 239.65 118.129C233.827 122.68 221.447 121.315 213.953 120.489L213.597 120.449C213.851 121.844 214.275 123.906 214.781 126.367C216.985 137.089 220.748 155.393 218.832 159.154C217.732 161.317 214.347 163.673 210.648 165.68L199.166 169.257C203.493 167.774 215.481 162.609 217.541 158.508C219.226 155.187 215.313 136.246 213.196 126.001C212.421 122.248 211.886 119.662 211.957 119.437C211.848 119.156 211.696 118.761 211.512 118.283C210.279 115.08 207.602 108.124 206.722 106.332C206.689 106.27 206.681 106.198 206.699 106.13C206.717 106.062 206.76 106.003 206.82 105.966C206.879 105.928 206.951 105.915 207.02 105.928C207.089 105.941 207.151 105.979 207.193 106.036C209.938 109.912 211.852 114.314 212.812 118.966C213.171 118.981 213.841 119.063 214.748 119.174C218.207 119.599 225.116 120.448 231.378 119.577C233.98 119.369 236.485 118.497 238.655 117.047C245.391 111.794 259.927 96.6127 268.198 85.0608C267.256 83.1064 259.159 76.0392 257.274 76.3358C255.059 76.664 248.409 81.1077 242.169 85.2769C236.467 89.0876 231.107 92.669 229.79 92.669C229.241 92.664 226.95 91.7276 223.498 90.3167C214.995 86.8418 199.45 80.4885 185.537 78.0808C186.025 82.1991 186.287 86.3409 186.322 90.4877L194.158 93.7858C194.276 93.8351 194.379 93.9169 194.453 94.0219C194.527 94.1269 194.57 94.2507 194.576 94.3791C194.607 95.8574 194.647 97.673 194.692 99.7211C194.984 112.976 195.492 135.972 194.978 140.325C196.912 149.883 198.31 159.542 199.166 169.257L187.823 172.538C187.823 172.538 187.928 172.241 187.823 172.415C187.795 172.463 187.774 172.513 187.759 172.511C187.718 172.507 187.718 172.131 187.718 170.339C187.304 161.21 186.225 152.124 184.49 143.152C184.487 143.152 184.483 143.152 184.48 143.152C184.321 143.153 184.159 142.787 157.652 104.762C157.602 104.674 157.575 104.575 157.575 104.474C157.575 104.373 157.602 104.274 157.652 104.186L160.985 97.5724C156.71 93.9778 151.074 89.1964 147.025 85.3575C146.3 84.875 145.617 84.3322 144.983 83.7346C143.151 84.7118 141.476 85.6367 140.499 86.2299C127.76 93.9603 90.9408 144.496 87.9045 150.638C89.475 153.063 99.1248 160.759 101.69 160.951C103.392 160.299 112.85 151.34 115.621 148.715C115.89 148.46 116.096 148.265 116.226 148.143C130.416 134.554 134.909 129.639 136.534 127.861C137.455 126.854 137.455 126.854 137.777 126.854C137.87 126.851 137.962 126.868 138.049 126.902C138.136 126.936 138.215 126.987 138.281 127.052C138.348 127.117 138.401 127.195 138.437 127.28C138.473 127.366 138.492 127.458 138.492 127.552C138.517 127.997 138.114 131.488 137.544 136.44C136.08 149.15 133.509 171.48 134.199 176.604C134.252 176.918 134.531 177.144 134.915 177.389C137.189 178.724 143.262 179.152 150.531 178.96L143.343 180.198C143.343 180.198 133.397 179.622 132.995 176.708C132.27 171.359 135.002 147.605 136.418 135.297C136.706 132.791 136.94 130.759 137.079 129.454C134.793 131.879 104.744 162.207 101.864 162.207C100.23 161.836 98.691 161.129 97.3449 160.131C96.5446 160.704 95.7865 161.334 95.0764 162.015C95.0194 162.398 95.1956 163.086 95.3945 163.863C95.8039 165.463 96.3095 167.438 95.0764 167.896C93.3673 168.517 92.1726 166.738 91.2612 165.38C91.0466 165.06 90.8478 164.764 90.6616 164.528C89.8885 165.077 88.8925 166.164 87.8385 167.314C85.6094 169.746 83.1214 172.46 81.9366 170.967C81.6219 170.481 81.4544 169.915 81.4544 169.336C81.4544 168.757 81.6219 168.19 81.9366 167.704C81.3991 168.05 80.8102 168.31 80.1916 168.472C79.0922 168.646 78.2197 168.088 78.4466 167.128C78.9976 166.013 79.7625 165.017 80.6976 164.197L80.6007 164.25C77.2932 166.065 77.2026 166.114 76.6841 165.942C76.4351 165.854 76.2133 165.703 76.0405 165.503C75.8678 165.304 75.75 165.062 75.6989 164.803C75.6478 164.544 75.6652 164.277 75.7492 164.026C75.8332 163.776 75.9811 163.552 76.1781 163.376C78.9293 160.403 84.0064 157.078 87.4931 154.795L87.7125 154.651C88.0488 154.272 88.3415 153.857 88.585 153.412C87.7946 152.703 87.1074 151.887 86.5434 150.987C86.4991 150.845 86.4991 150.693 86.5434 150.551C86.9447 148.073 126.294 93.8905 140.15 85.6716C141.144 85.0783 142.889 84.1534 144.739 83.1762C144.78 82.999 144.886 82.8435 145.036 82.74C146.943 81.6634 148.919 80.7132 150.951 79.8956L152.504 79.058C152.444 78.6668 152.366 78.1607 152.275 77.5749C151.95 75.4688 151.466 72.3314 151.056 69.7921C150.909 69.784 150.766 69.7422 150.637 69.6699C150.161 69.3883 149.732 69.0351 149.363 68.6229C148.2 67.3602 147.472 65.7578 147.287 64.051C146.777 63.7477 146.333 63.3462 145.979 62.87C145.626 62.3937 145.37 61.8521 145.228 61.2765C145.071 60.6899 145.071 60.5246 144.998 60.4031C144.949 60.3222 144.868 60.2608 144.687 60.1073C144.49 59.9406 144.355 59.8561 144.206 59.7625C144.012 59.6405 143.793 59.5029 143.378 59.1476C141.658 57.6803 141.331 56.9756 140.928 56.108C140.746 55.7168 140.549 55.2925 140.202 54.7502C140.047 54.4959 139.889 54.2559 139.734 54.0221C139.508 53.6783 139.29 53.3479 139.103 53.0052C136.433 48.1715 139.766 41.9593 142.383 42.3432H142.575C142.547 41.8492 142.547 41.354 142.575 40.86C143.588 37.5837 145.843 34.834 148.857 33.1994C149.652 32.767 150.528 32.5048 151.429 32.4297C152.33 32.3546 153.237 32.4682 154.092 32.7632C154.281 32.3044 154.561 31.8886 154.915 31.5408C155.269 31.1929 155.69 30.9202 156.151 30.739C156.94 30.2598 157.846 30.0065 158.769 30.0065C159.692 30.0065 160.597 30.2598 161.386 30.739C161.57 30.6103 161.735 30.4525 161.9 30.2938C162.049 30.1512 162.198 30.0078 162.364 29.8839C163.681 29.1157 165.248 28.8963 166.726 29.2732C167.705 29.5614 168.555 30.1775 169.134 31.0182H169.937C170.948 31.2572 171.865 31.7917 172.572 32.5538C174.09 34.5729 173.755 35.336 173.502 35.9089C173.482 35.9549 173.463 35.9997 173.444 36.0438C173.944 36.8409 174.371 37.682 174.718 38.5566C175.381 40.9996 173.462 42.8493 172.537 42.5701C172.514 42.9733 172.42 43.3693 172.258 43.7392C172.125 44.0436 172.043 44.1021 172.039 44.1659C172.032 44.2703 172.233 44.3889 172.764 45.6238C173.619 45.3097 174.614 44.9956 175.085 45.3097C175.922 45.8681 176.463 48.1192 176.638 49.1138C177.091 51.5743 177.039 53.9824 175.067 55.4831C175.504 58.9033 175.573 64.243 174.003 67.3142C173.428 68.4291 172.497 69.031 171.589 69.6188C171.147 69.905 170.709 70.1878 170.321 70.525C170.434 70.8369 170.598 71.2727 170.787 71.7731C171.358 73.2879 172.153 75.3955 172.415 76.458H173.881C173.944 76.3722 174.025 76.3012 174.118 76.2499C174.212 76.1987 174.315 76.1685 174.422 76.1613C177.929 76.0936 181.434 76.3566 184.892 76.9466C185.015 76.9636 185.132 77.0152 185.227 77.0954C185.323 77.1757 185.394 77.2814 185.433 77.4003C199.936 79.7239 216.103 86.2325 224.364 89.5583C227.393 90.778 229.36 91.5697 229.79 91.5697C230.714 91.5697 235.252 88.5083 240.423 85.0199C246.977 80.5985 254.548 75.4911 257.065 75.062C257.744 75.024 258.421 75.175 259.019 75.4982L262.98 72.7586C261.864 70.7169 260.171 66.9652 262.352 66.1276C264.533 65.29 266.278 67.9424 267.378 70.2458C269.168 68.1844 271.098 66.2487 273.154 64.4524C274.201 63.5275 276.015 62.1141 277.254 62.7074C278.79 63.4403 278.581 64.9584 277.673 66.4068C280.169 65.3947 281.32 66.494 280.832 67.8551C280.438 68.7239 279.901 69.5203 279.244 70.2109C280.762 69.5652 281.879 69.635 282.507 70.7518C283.135 71.8686 281.46 73.7707 280.57 74.6955C278.426 76.8178 275.958 78.585 273.258 79.9305C271.658 80.9819 270.178 82.2048 268.844 83.5776ZM263.947 72.9957C263.921 73.0996 263.856 73.1896 263.766 73.2472L259.752 75.7774C262.937 77.7381 265.833 80.1345 268.355 82.897C271.635 79.5578 272.644 79.004 273.811 78.3635C274.705 77.8727 275.692 77.331 277.865 75.4459C278.738 74.6781 282.21 71.4324 281.041 70.9961C280.177 70.6736 278.101 72.1921 276.294 73.5134C275.658 73.9791 275.055 74.4204 274.55 74.7479C274.413 74.862 274.236 74.9178 274.059 74.9033C273.881 74.8887 273.716 74.805 273.599 74.6701C273.483 74.5351 273.424 74.3598 273.435 74.1818C273.446 74.0038 273.527 73.8374 273.66 73.7183C273.751 73.6113 274.057 73.3185 274.483 72.9096C276.003 71.4512 279.062 68.5156 279.471 67.2618C278.427 67.3859 277.431 67.7699 276.574 68.3786C274.895 69.4991 273.292 70.7291 271.775 72.0606C271.147 72.5317 270.781 72.0257 270.781 71.572C270.731 71.5034 270.704 71.421 270.704 71.3364C270.704 71.2518 270.731 71.1693 270.781 71.1008C271.682 70.2568 272.625 69.4589 273.607 68.7102C277.883 64.8014 277.464 63.1262 275.719 64.0336C273.415 65.2202 269.332 69.635 267.587 71.572C267.52 71.656 267.431 71.7203 267.33 71.7578C267.23 71.7953 267.121 71.8047 267.015 71.785C266.909 71.7653 266.811 71.7172 266.73 71.6459C266.65 71.5745 266.59 71.4826 266.558 71.38C266.125 70.1179 265.482 68.9379 264.656 67.89C264.115 67.2793 263.469 66.8256 262.736 67.1048C261.462 67.5585 263.294 71.5545 263.905 72.6888C263.958 72.782 263.972 72.8919 263.947 72.9957ZM186.829 148.998C187.282 151.702 187.649 154.302 187.945 156.71L196.269 155C195.135 147.008 193.651 138.964 191.784 130.78C192.116 136.381 191.069 143.518 187.579 148.003L186.829 148.998ZM145.734 83.3333C150.026 87.4515 157.408 93.4717 161.997 96.9617C162.081 97.0364 162.139 97.1354 162.164 97.2448C162.189 97.3542 162.18 97.4688 162.137 97.5724L158.891 104.308L183.775 139.505C180.673 125.829 175.699 112.646 168.995 100.33C164.61 92.7338 159.123 85.8301 152.714 79.8433L145.734 83.3333ZM176.934 84.4152C175.102 79.9305 173.898 77.3654 173.793 77.1734L172.432 77.0513C172.31 78.6043 170.583 85.4971 170.199 87.0152C172.118 88.4489 174.219 89.6224 176.446 90.5052C176.603 88.9696 176.934 84.6071 176.934 84.4152ZM167.983 94.6932C167.843 95.1818 167.721 95.6006 167.599 95.9147H167.616C167.672 96.0034 167.729 96.0924 167.786 96.1816C168.677 97.5834 169.601 99.0377 170.356 100.399C170.339 100.027 170.291 99.6701 170.245 99.3291C170.195 98.9511 170.146 98.5924 170.146 98.253C169.771 95.8259 169.738 95.4634 169.597 95.4147C169.514 95.3864 169.396 95.4644 169.152 95.304L167.983 94.6932ZM155.419 81.501C159.572 85.4357 163.325 89.7729 166.621 94.4489H166.639C166.924 93.4617 167.218 92.2416 167.502 91.0685C167.894 89.4424 168.264 87.9066 168.558 87.2072L155.419 81.501ZM177.652 97.3164C178.308 99.4839 179.118 102.157 180.04 104.675H180.058C181.171 107.873 181.47 108.38 182.377 109.921C183.474 111.784 185.462 115.161 190.859 126.644C187.487 113.278 183.25 100.145 178.173 87.3293C178.138 87.975 177.912 90.8891 177.772 91.465C177.747 91.6314 177.662 91.7831 177.534 91.8921C177.406 92.0012 177.242 92.0602 177.074 92.0583C176.805 92.0364 176.541 91.9777 176.289 91.8838C176.328 92.3191 176.328 92.7571 176.289 93.1925C176.601 93.8508 177.065 95.3822 177.652 97.3164ZM175.538 77.505C183.496 95.1295 190.493 118.914 194.472 137.987H194.489C194.516 136.219 194.187 124.898 193.878 114.291C193.596 104.584 193.331 95.4749 193.372 94.8328C193.223 94.7715 192.932 94.6529 192.544 94.4956C190.618 93.7129 186.33 91.9706 185.502 91.5348C185.059 91.3015 185.059 91.2623 185.065 90.1178C185.071 88.6934 185.086 85.5568 184.263 78.203C181.378 77.74 178.461 77.5066 175.538 77.505ZM175.312 52.7783C175.617 50.6162 175.296 48.4117 174.387 46.4265C173.584 46.6185 168.558 47.84 168.087 48.4507C168.495 50.3489 169.122 52.1935 169.954 53.9475C170.313 54.3885 170.787 54.7215 171.323 54.9093C171.859 55.0971 172.437 55.1323 172.993 55.0112C173.548 54.89 174.059 54.6171 174.468 54.2229C174.877 53.8287 175.169 53.3286 175.312 52.7783ZM148.421 63.1087C149.086 63.33 149.738 63.5863 150.375 63.8765V63.7893C151.388 64.243 151.475 64.4 151.44 65.0806C151.946 67.0175 153.534 77.5399 153.831 79.5117C162.139 82.7444 166.929 85.127 168.35 85.8334C168.57 85.943 168.709 86.0122 168.768 86.038C169.683 83.2418 170.401 80.3846 170.914 77.4875C171.008 76.8619 170.99 76.811 169.59 72.9243C169.428 72.4748 169.248 71.9739 169.047 71.4149C169.026 71.3259 169.001 71.238 168.977 71.1517C168.863 70.7474 168.759 70.3794 169.047 70.1062C169.522 69.6378 170.104 69.2703 170.679 68.9071C171.539 68.3637 172.384 67.8299 172.834 66.9826C174.299 64.2604 174.352 59.2697 174.073 56.1985C173.547 56.4483 172.976 56.5894 172.394 56.6134C171.812 56.6374 171.232 56.5437 170.687 56.3381C168.858 55.5928 168.492 54.1241 168.025 52.2511C168.011 52.1945 167.997 52.1376 167.983 52.0803C167.867 52.1409 167.739 52.2172 167.612 52.2932C167.335 52.4578 167.061 52.6213 166.918 52.6213C167.983 53.8602 170.687 57.9959 170.199 59.0952C170 59.4821 169.664 59.7808 169.256 59.9328C168.575 60.222 167.86 60.4215 167.127 60.5261C167.056 60.5375 166.983 60.5226 166.922 60.484C166.861 60.4455 166.816 60.386 166.796 60.3167C166.755 60.1124 166.828 60.0755 167.144 59.9155C167.368 59.8022 167.713 59.6272 168.227 59.2872C168.464 59.1287 168.745 58.8984 168.939 58.7398C168.958 58.7237 168.977 58.7083 168.995 58.6939C168.347 57.3412 167.924 56.5826 167.537 55.8874C167.09 55.085 166.691 54.3672 166.046 52.9179C166.018 52.9263 165.956 52.9471 165.869 52.9762C165.412 53.1292 164.272 53.5112 163.847 53.5112C164.119 54.7293 164.119 55.9925 163.847 57.2106C162.748 60.8402 156.867 61.7476 154.86 58.6415C154.337 57.8214 152.644 52.8307 153.237 52.185C153.918 51.2602 159.554 49.5675 161.125 49.3232C161.398 49.2397 161.689 49.2397 161.962 49.3232C162.87 49.7944 163.446 51.487 163.707 52.3944C165.002 51.6904 166.416 51.2347 167.878 51.0508C167.773 50.5796 167.337 48.5903 167.634 48.2239C168.988 47.2311 170.497 46.4704 172.101 45.9728C171.944 45.5889 171.769 45.2225 171.577 44.856C170.789 45.7076 169.748 46.284 168.608 46.5007C167.468 46.7174 166.289 46.563 165.243 46.0601C164.78 45.7776 164.296 45.5325 163.795 45.3272C163.173 45.9555 162.469 46.4956 161.701 46.9326C160.58 47.5046 160.087 47.3604 159.425 47.167C159.118 47.0772 158.774 46.9768 158.315 46.9326C158.079 47.182 157.865 47.442 157.652 47.7004C156.733 48.8162 155.837 49.9046 153.272 50.0038C152.697 50.0326 152.124 49.906 151.614 49.6373C151.58 49.8118 151.614 55.1515 151.824 56.3556C152.002 57.4638 151.96 58.5963 151.702 59.6885C151.679 59.7673 151.639 59.8403 151.586 59.9026C151.533 59.9649 151.467 60.0151 151.392 60.0498C151.318 60.0845 151.237 60.1029 151.155 60.1038C151.073 60.1047 150.992 60.088 150.916 60.055C150.716 59.9747 150.679 59.9047 150.414 59.3971C150.333 59.2425 150.231 59.0472 150.096 58.7986C149.189 57.42 148.194 57.3677 147.095 58.2925C146.806 58.6783 146.608 59.1253 146.519 59.5991C146.429 60.0729 146.449 60.561 146.577 61.0259C146.705 61.4908 146.938 61.9203 147.257 62.2813C147.577 62.6423 147.975 62.9254 148.421 63.1087ZM157.513 58.9556C159.397 59.4791 162.032 58.659 162.59 56.7569V56.6697C162.936 54.5147 162.523 52.3067 161.421 50.4226C160.636 50.5447 154.337 51.836 153.761 52.4642C153.911 53.4142 154.199 54.3372 154.616 55.2039C154.727 55.4863 154.826 55.7485 154.917 55.992C155.564 57.7046 155.863 58.4973 157.513 58.9556ZM94.3431 164.125C94.0978 162.962 93.8825 161.942 94.3086 161.527C95.0233 160.898 95.7813 160.321 96.5771 159.799C93.9939 158.02 91.5443 156.055 89.2481 153.918C89.0014 154.42 88.6775 154.879 88.2884 155.28C88.0354 155.457 87.7702 155.642 87.4951 155.833C84.1645 158.156 79.3756 161.495 77.1029 164.284C77.0939 164.306 77.0844 164.327 77.075 164.349C76.9939 164.536 76.9153 164.717 77.1029 164.842C78.269 164.292 81.3337 162.551 83.2169 161.482C83.8419 161.127 84.3368 160.846 84.589 160.707C85.3044 160.34 85.6709 161.265 85.6709 161.265C85.6395 161.396 85.5732 161.517 85.4789 161.614C83.5704 163.321 81.7696 165.145 80.0869 167.076C81.9428 166.144 83.6438 164.932 85.1299 163.481C85.2365 163.386 85.3298 163.298 85.4138 163.219C85.7149 162.936 85.8965 162.766 86.142 162.766C86.2726 162.757 86.4031 162.783 86.5194 162.843C86.6357 162.903 86.7333 162.994 86.8017 163.106C86.8701 163.217 86.9065 163.345 86.9071 163.476C86.9077 163.607 86.8725 163.735 86.8051 163.848C86.7809 163.885 86.6506 164.022 86.4507 164.232C85.3578 165.378 82.1828 168.709 82.8614 170.007C83.6729 169.722 85.1269 168.179 86.5877 166.629C87.9855 165.145 89.3895 163.655 90.2428 163.254C90.9833 162.982 91.4883 163.836 91.9617 164.636C92.0349 164.76 92.1073 164.882 92.1797 164.999L92.1909 165.017C92.7329 165.891 93.6172 167.318 94.5704 167.006C94.6751 166.954 94.6751 166.273 94.6751 166.116C94.6252 165.461 94.4795 164.771 94.3431 164.125Z" fill="black"/>
<path d="M166.133 64.8188C167.267 65.1504 168.349 64.6094 168.314 64.3302C168.279 64.051 168.314 64.1906 166.779 63.6148C165.749 63.2309 164.615 61.8698 164.213 62.0792C163.812 62.2886 164.423 63.4054 164.562 63.6148C164.936 64.1812 165.489 64.6054 166.133 64.8188ZM198.049 48.2413C195.763 57.8214 194.088 65.9531 193.809 67.5759C193.623 68.282 193.588 69.0191 193.704 69.7397C194.629 71.7116 206.582 75.6029 208.1 74.8351C209.618 74.0673 213.562 65.1853 218.151 56.024C220.963 56.1139 223.776 55.9092 226.545 55.4133C229.46 54.8784 232.297 53.9815 234.991 52.7434C240.889 50.0212 247.345 38.3646 248.218 32.5014C248.872 26.1358 247.524 19.7245 244.361 14.1615C229.721 -11.2283 186.776 2.43508 190.266 30.6343C191.263 37.0868 193.948 43.1611 198.049 48.2413ZM208.693 69.0243C208.693 69.3035 208.379 69.2686 206.948 69.0243C204.022 68.6565 201.188 67.7514 198.59 66.3544C197.368 65.6913 197.037 65.5517 197.159 65.2551C197.281 64.9584 197.543 65.0631 199.427 65.5866C199.602 65.5866 205.011 67.3316 206.565 67.8726C208.571 68.78 208.693 68.78 208.693 69.0243ZM208.379 40.6331C210.243 40.7298 212.1 40.3452 213.771 39.5163C215.325 40.2691 217.006 40.7248 218.727 40.86C215.796 46.3218 209.845 57.4549 207.926 63.3879L200.527 61.3463C202.272 57.0536 206.128 47.0024 208.344 40.6331H208.379ZM207.769 39.1848C206.466 38.988 205.264 38.3693 204.347 37.4237C203.429 36.4781 202.848 35.2578 202.691 33.9498C202.202 30.4598 204.436 26.551 207.803 27.4758C209.915 28.0517 210.177 29.7269 209.81 31.8383C209.496 33.3739 208.362 37.2304 207.734 39.115L207.769 39.1848ZM212.515 34.9968C212.701 33.8549 213.13 32.7661 213.771 31.8034C214.077 31.2786 214.523 30.85 215.06 30.5662C215.596 30.2824 216.202 30.1549 216.808 30.198C218.099 30.5819 218.657 33.0249 217.593 34.5605C216.57 35.9181 215.296 37.0672 213.841 37.9458C213.34 37.652 212.942 37.2119 212.698 36.6847C212.455 36.1575 212.379 35.5685 212.48 34.9968H212.515ZM196.478 12.8178C204.296 3.41229 219.006 -0.322014 229.633 3.55189C235.406 5.53358 240.262 9.54607 243.297 14.842C246.305 20.1356 247.592 26.2342 246.979 32.292C246.176 37.719 239.999 48.9917 234.572 51.487C229.61 53.7503 224.196 54.8486 218.745 54.6978C218.151 54.6978 217.523 54.6978 217.296 55.1166C216.267 57.2106 214.382 61.259 212.532 65.0631C211.255 64.4464 209.931 63.9329 208.571 63.5275C210.595 57.7341 216.982 46.3567 220.018 40.8425C222.649 41.0679 225.294 40.6112 227.696 39.5163C228.346 39.1746 228.884 38.6548 229.248 38.018C229.612 37.3811 229.787 36.6536 229.752 35.9208C229.717 35.188 229.474 34.4804 229.051 33.8809C228.629 33.2814 228.044 32.815 227.365 32.5363C224.66 31.2101 222.235 34.386 220.821 37.0559C220.437 37.7539 220.001 38.574 219.512 39.4989C218.101 39.4061 216.709 39.1184 215.377 38.6438C216.704 37.7112 217.881 36.5814 218.867 35.2934C219.419 34.4591 219.699 33.4739 219.668 32.4737C219.637 31.4735 219.296 30.5076 218.692 29.7094C218.218 29.1589 217.56 28.8002 216.84 28.7006C216.12 28.601 215.389 28.7674 214.783 29.1685C213.561 29.9194 212.582 31.0071 211.963 32.3009C211.344 33.5948 211.111 35.0398 211.293 36.4626C211.483 37.2657 211.916 37.9908 212.532 38.5391C211.388 39.0132 210.159 39.2506 208.92 39.2371C209.618 37.178 210.753 33.4612 211.049 31.943C211.235 31.0775 211.277 30.1871 211.171 29.3081C211.036 28.5535 210.686 27.8539 210.163 27.2936C209.64 26.7333 208.966 26.336 208.222 26.1496C203.982 24.9456 200.858 29.6396 201.469 34.0196C201.642 35.5892 202.315 37.0614 203.39 38.2181C204.465 39.3748 205.884 40.1543 207.437 40.4412C205.203 46.7232 201.713 56.8616 199.968 61.1892L196.129 60.1946C198.59 47.84 198.887 48.1366 198.538 47.9796C194.573 42.9244 192.036 36.8985 191.191 30.5296C190.78 27.3716 191.038 24.1624 191.949 21.1108C192.86 18.0592 194.403 15.2336 196.478 12.8178ZM220.699 39.6036C221.921 37.3874 224.364 32.5363 226.737 33.7229C227.211 33.9142 227.625 34.2314 227.932 34.6404C228.24 35.0495 228.43 35.5347 228.482 36.0438C228.447 39.115 223.666 39.6559 220.629 39.6036H220.699ZM287.498 47.299C289.601 46.0623 292.084 45.6401 294.478 46.1124C297.107 46.1595 299.618 47.2107 301.497 49.0504C303.376 50.8902 304.479 53.3791 304.581 56.0066C303 55.0893 301.152 54.7442 299.346 55.0294C294.966 55.4133 289.243 57.7865 290.01 62.0094C290.639 65.4994 295.245 65.0282 298.735 64.0859C302.225 63.1436 305 61.4335 305.715 58.0657C309.956 61.1543 310.95 66.5638 311.125 71.8512C311.125 71.9252 311.154 71.9963 311.207 72.0486C311.259 72.101 311.33 72.1304 311.404 72.1304C311.478 72.1304 311.549 72.101 311.602 72.0486C311.654 71.9963 311.683 71.9252 311.683 71.8512C311.805 65.9356 310.741 60.1422 305.907 56.7744C305.957 55.2593 305.699 53.75 305.148 52.3376C304.598 50.9253 303.766 49.6394 302.704 48.5578C301.642 47.4762 300.372 46.6213 298.97 46.045C297.568 45.4687 296.063 45.183 294.547 45.205C292.125 44.8513 289.655 45.3576 287.567 46.6359C286.922 46.95 287.218 47.4212 287.498 47.299ZM303.412 59.8107C301.44 62.3933 295.856 63.7369 293.274 63.3007C292.314 63.1436 291.529 62.7423 291.319 61.7476C290.691 58.2576 296.711 56.3556 300.306 56.2334C301.77 56.1212 303.23 56.4954 304.459 57.2979C304.327 58.2102 303.967 59.0745 303.412 59.8107ZM279.505 26.9C281.373 24.5966 280.116 20.5831 274.899 20.5656C272.875 20.5656 271.897 22.6247 272.037 24.5966C272.351 29.2906 277.638 29.151 279.505 26.9ZM273.258 24.5093C273.258 23.3576 273.799 21.8569 275.003 21.8744C277.813 21.8744 279.104 23.1831 279.104 24.6315C279.034 27.9295 273.032 29.6396 273.258 24.5093ZM272.543 222.34C257.204 216.215 250.085 245.863 237.556 271.34C237.477 272.411 237.512 273.487 237.66 274.55C237.66 277.22 237.957 294.897 239.51 296.904C239.929 297.707 241.691 296.904 242.512 296.398C249.477 292.086 256.041 287.157 262.125 281.67C262.177 281.611 262.216 281.541 262.24 281.466C262.264 281.391 262.273 281.312 262.265 281.234C265.511 276.609 277.673 252.529 280.622 240.453C282.681 231.903 280.64 225.533 272.543 222.34ZM278.022 244.501C269.811 243.449 261.871 240.856 254.622 236.858C258.705 229.128 263.748 220.316 272.072 223.631C281.338 227.313 281.146 234.939 278.022 244.449V244.501ZM248.985 289.871C248.45 289.422 247.864 289.036 247.24 288.72C244.882 287.521 242.158 287.259 239.615 287.987C239.44 285.91 238.446 272.404 238.446 272.282C251.516 277.063 247.485 274.987 260.433 281.426C259.072 282.717 253.959 286.294 248.985 289.837V289.871ZM257.99 239.371C259.692 240.301 261.439 241.145 263.225 241.901C259.225 248.184 255.691 254.751 252.65 261.55C249.718 267.675 249.823 267.64 246.839 274.324C245.094 273.765 243.349 273.242 241.604 272.718C243.489 268.966 256.89 241.535 257.99 239.336V239.371ZM247.52 274.498C253.191 264.325 258.967 251.673 263.923 242.128C265.668 242.861 267.413 243.454 269.158 243.978C268.233 245.723 265.528 250.365 264.813 251.708C264.097 253.052 256.925 267.186 256.419 268.268C255.616 270.013 253.418 274.882 252.737 276.435C250.957 275.65 249.247 275.056 247.45 274.463L247.52 274.498ZM253.365 276.662C254.43 274.725 258.81 266.593 259.351 265.546C260.171 263.923 269.315 245.234 269.821 244.152C271.426 244.606 273.119 244.99 274.201 245.2C271.007 253.924 261.811 270.729 258.496 279.018C255.477 277.604 254.796 277.255 253.296 276.627L253.365 276.662ZM254.43 237.364L257.553 239.109C251.259 249.829 245.776 261.005 241.15 272.544L238.533 271.741C248.671 250.138 249.143 247.311 254.36 237.33L254.43 237.364ZM261.619 280.536L258.984 279.279C261.829 273.695 270.728 259.369 274.794 245.322C275.771 245.496 276.731 245.653 277.656 245.775C273.172 257.741 267.787 269.349 261.549 280.501L261.619 280.536ZM206.948 291.861C207.644 291.285 208.141 290.505 208.37 289.632C208.598 288.758 208.547 287.835 208.222 286.992C208.074 285.776 207.517 284.647 206.641 283.79C205.766 282.934 204.625 282.401 203.406 282.279C202.188 282.157 200.964 282.453 199.936 283.12C198.908 283.786 198.138 284.783 197.752 285.945C195.519 284.497 193.093 282.961 190.772 281.495C192.517 279.175 197.648 280.204 198.171 282.106C198.183 282.18 198.223 282.247 198.284 282.291C198.344 282.335 198.42 282.353 198.494 282.342C198.568 282.33 198.634 282.29 198.679 282.229C198.723 282.169 198.741 282.093 198.729 282.019C198.468 278.983 192.151 277.203 189.603 280.78C187.352 279.402 184.56 277.726 182.222 276.452C184.229 274.707 188.713 275.685 189.202 277.499C189.225 277.562 189.269 277.613 189.327 277.646C189.384 277.678 189.452 277.689 189.517 277.677C189.582 277.664 189.64 277.629 189.681 277.577C189.723 277.526 189.745 277.461 189.743 277.395C189.516 274.568 183.67 272.666 181.018 275.772C179.906 275.149 178.738 274.635 177.528 274.236C177.307 274.145 177.064 274.119 176.828 274.162C176.593 274.206 176.375 274.316 176.202 274.481C171.787 279.977 156.902 294.251 150.027 295.909C149.854 295.935 149.691 296.006 149.554 296.115C149.418 296.224 149.312 296.368 149.248 296.53C149.185 296.693 149.165 296.87 149.191 297.043C149.218 297.215 149.289 297.378 149.398 297.515C150.908 299.047 152.637 300.347 154.529 301.371C152.784 303.116 151.423 304.687 150.41 305.821C149.887 306.379 149.608 317.059 150.061 319.414C150.129 319.645 150.278 319.843 150.48 319.973C152.679 321.473 181 333.723 183.897 332.083C185.834 330.984 208.955 306.92 209.322 306.187C209.88 305.036 209.688 297.358 209.653 294.286C209.514 293.361 207.786 292.367 206.948 291.861ZM151.108 314.912V311.021C158.35 314.511 174.928 321.63 181.21 323.62C182.815 324.143 182.955 324.073 183.792 323.62C188.591 320.549 205.535 301.458 208.641 298.544V302.226C199.218 311.667 183.216 328.209 182.92 327.267C181.192 327.162 152.609 315.61 151.108 314.912ZM206.512 285.98C207.14 287.037 207.477 288.241 207.489 289.47C207.483 289.861 207.387 290.246 207.209 290.594C207.03 290.942 206.774 291.244 206.46 291.477C204.994 290.5 202.219 288.685 198.939 286.556C200.736 283.014 204.732 282.961 206.442 285.98H206.512ZM150.672 297.148C158.106 294.949 172.223 281.338 176.969 275.44C178.112 275.758 179.213 276.209 180.25 276.784C178.505 280.03 180.372 283.589 181.035 283.083C181.402 282.804 180.739 282.7 180.634 280.989C180.589 279.74 180.872 278.501 181.454 277.395C183.862 278.651 186.689 280.291 189.08 281.67C187.614 284.933 189.376 288.161 189.987 287.69C190.598 287.219 189.708 287.324 189.603 285.614C189.561 284.492 189.775 283.376 190.231 282.351C192.692 283.799 195.205 285.3 197.508 286.713C197.153 287.583 197.012 288.525 197.097 289.46C197.182 290.395 197.491 291.296 197.997 292.088C198.019 292.117 198.048 292.142 198.081 292.161C198.113 292.18 198.149 292.192 198.186 292.197C198.224 292.202 198.262 292.199 198.298 292.189C198.334 292.18 198.368 292.163 198.398 292.14C198.428 292.117 198.453 292.089 198.471 292.056C198.49 292.023 198.502 291.987 198.507 291.95C198.512 291.913 198.51 291.875 198.5 291.839C198.49 291.802 198.473 291.768 198.45 291.739C198.137 291.045 197.982 290.291 197.997 289.53C198.012 288.769 198.197 288.022 198.538 287.341C202.603 289.819 205.884 291.896 206.896 292.576C206.704 292.751 188.504 308.944 182.309 313.761C178.243 312.696 156.902 302.104 150.672 297.148ZM151.335 306.868C159.24 310.358 177.196 318.455 181.332 319.24C182.047 319.379 182.326 319.432 183.688 318.35C189.498 313.691 208.397 293.92 208.571 294.129C208.58 294.181 208.58 294.234 208.571 294.286V297.776C204.68 300.9 183.042 323.62 182.693 322.538C180.948 322.538 152.592 310.969 151.143 310.323C151.108 309.59 151.265 307.636 151.335 306.868ZM183.112 330.914C181.367 331.909 154.79 321.107 151.231 318.908C151.097 317.797 151.033 316.678 151.039 315.558C158.682 319.327 180.913 328.715 182.955 328.628C185.939 328.471 207.036 304.721 208.536 303.064C208.554 303.955 208.466 304.845 208.275 305.716C207.978 306.292 184.263 330.268 183.112 330.914ZM38.5385 232.548C38.6606 234.415 38.7479 236.038 38.7479 237.556C38.7479 237.788 38.8398 238.01 39.0034 238.173C39.167 238.337 39.389 238.429 39.6204 238.429C39.8518 238.429 40.0737 238.337 40.2373 238.173C40.4009 238.01 40.4929 237.788 40.4929 237.556C40.4929 235.934 40.4056 234.328 40.2835 232.426C40.2673 232.195 40.1598 231.979 39.9847 231.827C39.8096 231.675 39.5813 231.598 39.3499 231.615C39.1185 231.631 38.903 231.738 38.7508 231.913C38.5987 232.088 38.5223 232.317 38.5385 232.548ZM304.424 197.561C304.31 197.568 304.199 197.597 304.096 197.647C303.994 197.698 303.903 197.768 303.828 197.854C303.753 197.94 303.696 198.041 303.661 198.149C303.625 198.258 303.612 198.372 303.621 198.486C303.726 200.091 303.831 201.819 303.831 203.494C303.831 203.725 303.923 203.947 304.086 204.111C304.25 204.275 304.472 204.367 304.703 204.367C304.935 204.367 305.157 204.275 305.32 204.111C305.484 203.947 305.576 203.725 305.576 203.494C305.576 201.749 305.471 200.004 305.349 198.364C305.342 198.25 305.313 198.138 305.263 198.036C305.212 197.933 305.142 197.842 305.056 197.767C304.97 197.693 304.869 197.636 304.761 197.6C304.652 197.565 304.538 197.551 304.424 197.561ZM34.0189 228.203C34.2503 228.203 34.4722 228.111 34.6359 227.948C34.7995 227.784 34.8914 227.562 34.8914 227.331C34.8914 227.099 34.7995 226.877 34.6359 226.714C34.4722 226.55 34.2503 226.458 34.0189 226.458C31.9075 226.458 30.145 226.615 28.4 226.58C28.167 226.58 27.9432 226.672 27.7768 226.835C27.6104 226.998 27.5146 227.22 27.5101 227.453C27.5101 227.684 27.602 227.906 27.7656 228.07C27.9292 228.233 28.1512 228.325 28.3826 228.325C30.1799 228.36 32.1518 228.29 34.0189 228.203ZM299.015 192.396C296.921 192.396 295.158 192.518 293.396 192.535C293.164 192.535 292.942 192.627 292.779 192.791C292.615 192.955 292.523 193.176 292.523 193.408C292.523 193.639 292.615 193.861 292.779 194.025C292.942 194.188 293.164 194.28 293.396 194.28C295.28 194.28 297.235 194.28 299.119 194.141C299.351 194.127 299.567 194.022 299.721 193.848C299.875 193.675 299.953 193.447 299.939 193.216C299.926 192.985 299.82 192.768 299.647 192.614C299.473 192.461 299.246 192.382 299.015 192.396ZM38.0673 217.419C38.172 219.024 38.2767 220.752 38.2767 222.427C38.2812 222.657 38.3745 222.877 38.5372 223.039C38.6999 223.202 38.9192 223.295 39.1492 223.3C39.3806 223.3 39.6025 223.208 39.7662 223.044C39.9298 222.881 40.0217 222.659 40.0217 222.427C40.0217 220.682 39.917 218.937 39.8123 217.297C39.7961 217.066 39.6887 216.85 39.5136 216.698C39.3385 216.546 39.1101 216.469 38.8787 216.486C38.6473 216.502 38.4318 216.609 38.2797 216.784C38.1275 216.959 38.0511 217.188 38.0673 217.419ZM305.105 188.365C305.105 186.62 305 184.875 304.878 183.235C304.862 183.003 304.754 182.788 304.579 182.635C304.404 182.483 304.176 182.407 303.944 182.423C303.713 182.439 303.497 182.547 303.345 182.722C303.193 182.897 303.117 183.125 303.133 183.357C303.237 184.962 303.342 186.69 303.342 188.365C303.342 188.596 303.434 188.818 303.598 188.982C303.761 189.145 303.983 189.237 304.215 189.237C304.448 189.237 304.672 189.146 304.838 188.983C305.004 188.82 305.1 188.598 305.105 188.365ZM50.9454 227.976C51.06 227.972 51.1726 227.945 51.2768 227.897C51.3809 227.849 51.4746 227.781 51.5524 227.696C51.6302 227.612 51.6906 227.513 51.7301 227.406C51.7697 227.298 51.7877 227.184 51.783 227.069C51.7654 226.841 51.6621 226.627 51.4938 226.472C51.3255 226.317 51.1047 226.231 50.8756 226.231C48.7642 226.319 47.0017 226.388 45.2393 226.354C45.0079 226.354 44.7859 226.445 44.6223 226.609C44.4587 226.773 44.3668 226.995 44.3668 227.226C44.3668 227.457 44.4587 227.679 44.6223 227.843C44.7859 228.007 45.0079 228.098 45.2393 228.098C47.1064 228.133 49.0608 228.064 50.9454 227.976ZM315.941 192.169C314.196 192.256 312.259 192.309 310.322 192.309C310.207 192.304 310.092 192.322 309.984 192.363C309.876 192.404 309.778 192.466 309.695 192.546C309.612 192.626 309.546 192.722 309.501 192.828C309.455 192.934 309.432 193.048 309.432 193.164C309.432 193.397 309.524 193.62 309.687 193.787C309.85 193.953 310.072 194.049 310.305 194.054C312.294 194.054 313.899 194.054 316.011 193.914C316.126 193.909 316.238 193.882 316.342 193.834C316.446 193.786 316.54 193.718 316.618 193.634C316.696 193.55 316.756 193.451 316.796 193.343C316.835 193.236 316.853 193.121 316.849 193.007C316.827 192.78 316.723 192.569 316.555 192.414C316.388 192.26 316.169 192.172 315.941 192.169ZM10.8453 176.272C11.0722 176.447 60.2812 169.152 62.3926 167.861C62.5095 167.776 62.6029 167.662 62.6639 167.531C62.725 167.4 62.7517 167.255 62.7416 167.111C62.7416 164.86 59.7926 143.728 58.3791 138.458C58.2046 137.812 58.0301 137.167 57.6288 136.94C54.9589 135.334 7.91371 144.199 5.10426 146.014C5.02812 146.059 4.96234 146.119 4.91122 146.191C4.8601 146.264 4.82479 146.346 4.80761 146.432C4.21431 148.544 9.32716 175.225 10.8453 176.272ZM5.87206 146.851C9.22246 145.333 51.9226 137.516 56.8086 138.126C57.9952 141.18 61.1711 163.551 61.3805 166.832C58.955 167.547 11.5084 175.696 11.3339 175.731C11.1594 175.766 11.142 175.975 10.7755 174.876C9.23991 170.269 5.78481 150.795 5.87206 146.851Z" fill="#F15929"/>
<path d="M160.663 52.9457C160.727 53.0432 160.771 53.1524 160.793 53.2669C160.828 53.424 160.985 54.2442 161.037 54.5234C161.095 54.6564 161.119 54.8018 161.107 54.9464C161.095 55.091 161.047 55.2302 160.967 55.3515C160.887 55.4728 160.779 55.5723 160.651 55.641C160.523 55.7097 160.38 55.7454 160.235 55.7448C159.467 55.7448 159.397 55.3435 159.048 53.5985C159.026 53.4839 159.027 53.3662 159.051 53.252C159.075 53.1378 159.121 53.0294 159.186 52.933C159.252 52.8366 159.336 52.754 159.434 52.6901C159.531 52.6261 159.64 52.582 159.755 52.5602C159.869 52.5385 159.987 52.5395 160.101 52.5632C160.216 52.5869 160.324 52.6329 160.42 52.6986C160.517 52.7642 160.599 52.8481 160.663 52.9457Z" fill="#F15929"/>
<path d="M66.2316 169.414C66.3265 169.238 66.3689 169.038 66.3537 168.838C66.3537 166.064 62.3751 135.264 60.9617 132.804C60.8509 132.623 60.694 132.474 60.5071 132.373C60.3201 132.272 60.1097 132.222 59.8972 132.228C54.0515 131.513 4.73779 141.145 1.49209 143.396C1.03839 143.71 1.10819 144.496 1.16054 145.333C1.43974 149.922 6.39554 180.111 8.14054 179.936C8.33249 179.936 8.26269 179.797 7.80899 180.722C5.08679 186.323 -0.078413 204.262 0.026287 207.874C0.026287 209.392 0.375286 211.364 1.87599 211.259C12.6426 209.933 65.4289 201.557 80.6104 198.433C81.2037 198.311 81.5876 197.77 81.5701 196.88C81.391 195.398 80.9415 193.961 80.2439 192.64C78.115 188.644 69.2853 172.817 66.2316 169.414ZM8.24524 179.396C6.88414 177.651 1.87599 147.584 2.25989 144.251C6.09889 142.262 54.7495 132.856 59.8449 133.624C61.2409 137.463 64.853 165.191 65.0799 168.524C58.9026 170.653 16.1326 177.563 8.24524 179.396ZM9.01304 179.919C10.4788 179.553 60.4033 171.194 64.9752 169.99C67.4705 172.311 78.7432 192.361 79.4761 194.071C69.4598 195.816 10.0426 205.745 1.30014 207.071C1.42229 201.784 6.84924 183.304 9.01304 179.919Z" fill="#F15929"/>
<path d="M15.5743 198.015C17.0924 197.788 49.3051 193.914 60.9443 190.755C61.016 190.737 61.0774 190.691 61.1151 190.627C61.1527 190.563 61.1634 190.487 61.1449 190.415C61.1264 190.343 61.0802 190.282 61.0164 190.244C60.9525 190.207 60.8764 190.196 60.8047 190.215C58.5187 190.686 30.6336 194.403 15.5394 197.474C15.4977 197.466 15.4548 197.468 15.414 197.48C15.3732 197.491 15.3356 197.512 15.304 197.54C15.2724 197.568 15.2476 197.603 15.2316 197.643C15.2155 197.682 15.2086 197.724 15.2113 197.766C15.214 197.809 15.2263 197.85 15.2473 197.887C15.2683 197.924 15.2974 197.955 15.3323 197.979C15.3673 198.003 15.4073 198.019 15.4492 198.025C15.4911 198.031 15.5339 198.027 15.5743 198.015ZM39.1143 76.5976C38.4624 78.0698 37.9143 79.5859 37.474 81.1346C37.448 81.3831 37.5166 81.6323 37.666 81.8326C39.4284 84.485 57.4892 104.849 62.2006 107.711C62.8463 108.112 63.6141 108.391 64.0853 107.816C67.5078 103.557 71.9745 100.256 77.0506 98.2356C81.1821 96.7738 85.5137 95.9558 89.8938 95.81C93.3838 95.4959 93.9946 95.1469 95.3382 92.861C96.9232 89.8526 99.0261 87.1472 101.55 84.8689C104.769 82.0546 108.342 79.6729 112.177 77.7842C112.35 77.6863 112.485 77.5336 112.561 77.3502C112.637 77.1668 112.649 76.9633 112.596 76.7721C112.006 75.271 111.226 73.8518 110.275 72.5492C110.904 72.3398 111.602 72.1478 111.602 71.5196C111.602 69.7746 96.3852 47.7527 92.1623 43.5996C91.7261 43.1634 91.0978 42.5875 90.522 42.6224C81.797 43.111 73.2989 51.3474 68.378 58.5368C62.7416 58.3274 59.0946 57.8214 52.673 60.5261C48.1396 62.4504 44.0524 65.2901 40.6674 68.8672C40.1438 69.4082 36.5841 73.1774 36.5317 73.474C36.4794 73.7707 36.5841 73.7707 39.1143 76.5976ZM108.914 76.109C101.638 77.3479 96.9959 83.4031 93.5758 89.9817C92.0576 92.9133 92.1972 93.0529 90.5918 93.018C87.7845 92.859 84.9685 92.9642 82.1809 93.3321C80.1363 93.6377 78.126 94.1403 76.1781 94.8328C71.7458 96.4033 66.6679 101.429 63.9631 105.163C63.9056 105.24 63.8326 105.304 63.7488 105.35C63.6649 105.397 63.5722 105.425 63.4766 105.434C63.381 105.442 63.2848 105.43 63.1942 105.398C63.1036 105.367 63.0208 105.316 62.951 105.25C57.2798 99.4047 47.246 89.1441 42.203 83.246C41.9587 82.9843 42.3775 82.6004 42.6218 82.8796C45.8849 86.3696 54.3133 94.7281 63.3524 103.82C66.4061 99.9282 71.1176 95.2167 75.7768 93.5764C78.3174 92.6702 80.9611 92.084 83.6467 91.8314C86.1617 91.6404 88.6876 91.6404 91.2025 91.8314C92.2321 90.6448 97.3275 77.1734 108.879 75.6727C108.913 75.6976 108.941 75.7297 108.961 75.7667C108.98 75.8037 108.992 75.8447 108.993 75.8867C108.995 75.9286 108.987 75.9703 108.97 76.0088C108.954 76.0473 108.929 76.0815 108.897 76.109H108.914ZM90.5046 44.0359C93.9946 46.4789 108.199 67.5061 110.049 71.1881C106.839 72.2051 103.74 73.5439 100.8 75.1841C98.0157 76.5799 95.5777 78.5793 93.6639 81.0366C91.75 83.4938 90.4084 86.3471 89.7368 89.3884C83.4722 79.1976 74.7298 67.9773 68.9189 59.7234C69.2679 59.4966 79.0748 44.7164 90.5046 44.0359ZM53.0569 61.4859C59.4261 58.9207 62.951 59.514 68.2209 59.7409C73.4559 68.6753 82.8615 81.2742 89.0562 89.528C83.3386 88.1751 77.3221 89.0026 72.1821 91.8489C69.0934 93.5939 65.3242 97.7819 63.0033 100.382C59.653 97.6946 40.3184 77.1036 37.2123 73.6136C41.9935 68.2041 46.4084 64.1383 53.0569 61.4161V61.4859ZM21.1234 105.861C20.6921 105.559 20.1822 105.388 19.6556 105.369C19.1291 105.35 18.6084 105.485 18.1569 105.757C17.828 105.903 17.5313 106.113 17.2836 106.375C17.0359 106.636 16.8421 106.943 16.7133 107.28C16.5845 107.616 16.5232 107.974 16.5328 108.334C16.5425 108.694 16.6229 109.049 16.7696 109.377C16.9162 109.706 17.1262 110.003 17.3876 110.251C17.6489 110.498 17.9565 110.692 18.2927 110.821C18.6289 110.95 18.9872 111.011 19.3472 111.001C19.7071 110.992 20.0616 110.911 20.3905 110.765C20.9158 110.65 21.3938 110.378 21.7611 109.985C22.1284 109.593 22.3676 109.097 22.4471 108.566C22.5266 108.034 22.4426 107.49 22.2062 107.007C21.9698 106.524 21.5921 106.125 21.1234 105.861ZM19.9717 109.351C18.7502 109.735 18.0173 109.351 17.7206 108.758C17.1622 107.519 17.8602 105.617 19.675 106.175C20.9489 106.646 21.9784 108.793 19.9717 109.438V109.351ZM109.857 26.01C110.363 27.0396 112.718 26.6557 113.748 26.3241C114.289 26.1496 114.638 25.9577 114.69 25.4342C114.847 24.1254 115.022 12.7829 114.429 11.6836C114.367 11.5683 114.273 11.4737 114.158 11.4116C114.044 11.3495 113.913 11.3227 113.783 11.3346C111.921 11.3294 110.069 11.5999 108.286 12.1373C107.571 12.5735 109.228 24.8583 109.857 26.01ZM108.653 12.5561C110.264 12.3255 111.895 12.2495 113.521 12.3292C113.626 13.6205 113.347 24.806 113.329 24.9805C112.592 25.2447 111.805 25.3401 111.026 25.2597C110.904 24.8583 110.694 23.7764 110.432 22.4153C109.664 19.1631 109.069 15.8719 108.653 12.5561ZM19.4307 91.1334C19.5981 91.2192 19.7835 91.2639 19.9717 91.2639C20.1598 91.2639 20.3452 91.2192 20.5126 91.1334C21.1868 90.7176 21.7215 90.11 22.0482 89.3884C22.0926 89.273 22.1063 89.148 22.0879 89.0256C22.0696 88.9033 22.0198 88.7878 21.9435 88.6904C21.1059 87.6958 11.9621 77.1036 10.8453 77.7667C9.47411 78.6544 8.17316 79.6462 6.95395 80.7332C6.90482 80.7772 6.86545 80.8309 6.8384 80.8911C6.81134 80.9512 6.79721 81.0163 6.7969 81.0822C6.762 81.9896 16.9179 90.1213 19.4307 91.1334ZM11.0547 78.2204C12.3286 79.1453 16.6213 84.4501 20.5999 89.1441C20.4287 89.4137 20.2168 89.655 19.9717 89.8596C15.7887 87.1824 11.7948 84.2205 8.0184 80.995C8.96509 80.001 9.97963 79.0739 11.0547 78.2204ZM38.4687 39.7257C38.8526 32.9551 42.7963 29.8141 46.9145 29.0114C45.7453 33.3041 45.9373 38.8881 50.1776 39.6036C52.2018 39.9351 53.1965 38.8881 54.6623 37.6666C60.9268 32.4316 55.8663 27.1966 48.799 27.5631C51.434 20.3388 57.5241 14.4581 65.6034 14.2662C65.6775 14.2662 65.7485 14.2368 65.8008 14.1844C65.8532 14.132 65.8826 14.061 65.8826 13.987C65.8826 13.9129 65.8532 13.8419 65.8008 13.7896C65.7485 13.7372 65.6775 13.7078 65.6034 13.7078C56.8784 13.5333 50.0206 19.8153 47.3158 27.6678C42.6567 28.4705 38.0324 31.9605 37.9102 39.621C37.9034 39.6577 37.9038 39.6954 37.9115 39.7319C37.9192 39.7684 37.9339 39.803 37.955 39.8338C37.9761 39.8646 38.003 39.8909 38.0342 39.9113C38.0655 39.9317 38.1004 39.9457 38.1371 39.9526C38.1738 39.9595 38.2114 39.959 38.2479 39.9514C38.2844 39.9437 38.3191 39.9289 38.3499 39.9078C38.3806 39.8868 38.407 39.8598 38.4274 39.8286C38.4477 39.7974 38.4618 39.7624 38.4687 39.7257ZM48.3977 28.802C50.9977 28.6275 54.8717 29.4302 55.9361 31.786C56.5469 33.1296 55.9361 34.7874 53.7723 36.6022C53.1849 37.1907 52.5147 37.6904 51.783 38.0854C49.1655 39.2022 46.2688 35.974 48.3977 28.802ZM53.3884 275.597C51.7025 275.146 49.9433 275.036 48.2143 275.274C46.4853 275.513 44.8215 276.095 43.3208 276.986C41.82 277.877 40.5126 279.059 39.4756 280.463C38.4385 281.867 37.6927 283.464 37.2821 285.16C36.5069 288.684 37.1634 292.372 39.1073 295.412C41.0512 298.452 44.1231 300.596 47.6474 301.371C51.1716 302.146 54.8594 301.49 57.8996 299.546C60.9398 297.602 63.0832 294.53 63.8584 291.006C64.1895 289.306 64.181 287.557 63.8331 285.861C63.4853 284.165 62.8052 282.554 61.8319 281.121C60.8586 279.689 59.6115 278.463 58.1623 277.515C56.7132 276.567 55.0907 275.915 53.3884 275.597ZM58.7805 289.819C58.0803 292.612 56.4041 295.061 54.055 296.726C51.7058 298.39 48.8388 299.159 45.9722 298.893C43.3407 297.865 41.1561 295.942 39.8028 293.462C38.4495 290.982 38.0141 288.104 38.5734 285.334C39.2263 282.474 40.8869 279.945 43.2515 278.208C45.6162 276.471 48.5269 275.644 51.4515 275.877C54.1089 276.974 56.2939 278.975 57.6217 281.525C58.9496 284.075 59.3352 287.012 58.7107 289.819H58.7805Z" fill="#F15929"/>
<path d="M76.6318 280.571C75.1127 280.046 73.4846 279.92 71.9029 280.204C71.2473 278.701 70.4404 277.269 69.4948 275.929C70.629 274.899 73.7351 272.038 72.9848 270.694C70.3143 267.5 67.1439 264.759 63.5967 262.58C62.1154 261.75 60.4844 261.222 58.7979 261.027C57.6811 261.184 55.0287 265.529 54.4354 266.506C54.0515 266.506 52.6904 266.07 52.5857 266.017C52.5857 264.761 52.2193 260.224 51.085 259.7C49.8166 259.233 48.4995 258.912 47.1588 258.741C45.9198 258.549 34.7693 260.59 33.9491 262.091C33.4082 263.103 34.6646 266.925 35.031 267.989C34.0899 268.507 33.1861 269.09 32.3263 269.734C30.5813 270.973 31.0524 270.921 30.7383 270.781C30.3587 270.6 29.952 270.482 29.5343 270.432C28.1403 269.615 26.506 269.306 24.91 269.56C23.3046 270.083 19.518 278.703 18.9072 280.92C18.7073 281.479 18.6533 282.079 18.7502 282.665C19.169 283.816 21.961 284.741 23.1301 285.108C22.8072 287.353 22.8072 289.633 23.1301 291.878C21.5945 292.297 18.4012 293.239 18.5757 294.81C18.7502 296.38 22.8335 306.746 24.5261 307.566C25.4533 308.084 26.4787 308.403 27.5365 308.503C28.5942 308.602 29.661 308.479 30.6685 308.142C31.2359 307.858 31.7839 307.538 32.3088 307.182C33.0068 307.705 33.7397 308.177 34.4901 308.63C33.9491 309.974 32.7451 312.975 33.129 314.336C33.3209 315.052 33.8968 315.279 34.6995 315.575C36.9156 316.378 48.8514 319.24 50.6662 318.926C51.3468 318.821 51.7132 318.106 51.9226 317.425C52.3103 315.876 52.5384 314.292 52.6032 312.696C53.4993 312.608 54.3904 312.474 55.273 312.295C55.812 313.243 56.5015 314.098 57.3147 314.825C58.2046 315.453 58.955 315.139 59.9671 314.493C60.4557 315.122 61.1886 315.994 61.9738 316.081C63.9457 316.308 72.0948 308.63 72.9324 307.06C73.6304 305.751 71.0827 303.413 69.9485 302.383C71.1755 300.537 72.1387 298.528 72.8103 296.415C74.0688 296.605 75.3426 296.675 76.6144 296.625C77.1902 296.625 77.8533 296.415 78.0976 295.874C79.1621 293.449 78.848 284.253 78.0976 281.914C77.9929 281.234 77.2077 280.78 76.6318 280.571ZM77.0506 282.176C77.6439 284.445 77.8359 293.012 76.9634 295.229C75.4546 295.377 73.9323 295.307 72.4438 295.019C72.2849 294.992 72.1215 295.025 71.9859 295.113C71.8503 295.2 71.7522 295.335 71.7109 295.49C71.016 297.85 69.9371 300.078 68.5176 302.086C68.4164 302.22 68.3709 302.387 68.3904 302.553C68.4099 302.719 68.493 302.87 68.6223 302.976C69.8466 303.947 70.8868 305.129 71.6935 306.466C70.821 307.897 63.998 314.144 62.1134 314.668C61.8342 314.668 61.0664 313.621 60.8745 313.342C60.2299 312.373 59.6471 311.365 59.1295 310.323C59.0539 310.171 58.9243 310.053 58.7662 309.991C58.608 309.93 58.4326 309.93 58.2744 309.991C53.2139 311.893 51.2944 310.777 51.2944 312.033C51.2967 313.914 50.9901 315.783 50.387 317.565C46.2862 317.119 42.2478 316.217 38.3465 314.877C38.5349 313.014 39.055 311.2 39.8821 309.52C40.4056 308.351 38.3116 308.683 34.4028 304.704C34.277 304.587 34.1119 304.523 33.9404 304.523C33.7689 304.523 33.6038 304.587 33.478 304.704C31.733 306.135 29.4645 307.531 29.0108 307.304C28.1208 306.868 24.0201 297.567 23.7758 295.682C25.0169 294.817 26.4259 294.223 27.9114 293.937C28.0698 293.893 28.2067 293.792 28.2965 293.654C28.3863 293.516 28.4231 293.35 28.4 293.187C27.9724 290.716 27.9724 288.19 28.4 285.718C28.4267 285.566 28.3947 285.41 28.3105 285.28C28.2263 285.151 28.0962 285.058 27.9463 285.02C26.6308 284.676 25.3643 284.166 24.1771 283.502C23.7932 283.223 23.8281 283.24 23.863 282.944C24.9925 278.87 26.8038 275.017 29.2202 271.549C30.1625 271.287 32.7102 273.154 33.5827 273.817C33.6738 273.906 33.7959 273.955 33.9229 273.955C34.05 273.955 34.172 273.906 34.2632 273.817C35.065 272.986 35.9283 272.216 36.8458 271.514C39.4982 269.507 40.2137 269.769 39.9868 269.071C39.1846 267.32 38.734 265.429 38.6606 263.505C38.9311 263.28 39.2379 263.103 39.568 262.981C41.1971 262.337 42.8709 261.812 44.5762 261.411C46.6431 260.834 48.7675 260.489 50.9105 260.381C51.277 260.538 51.6085 262.126 51.6958 262.615C52.3414 266.105 51.9052 266.82 52.4112 266.872C57.3845 267.361 58.3966 268.74 58.7456 268.129C59.7132 266.437 60.841 264.841 62.1134 263.365C62.4799 262.998 62.4624 262.824 63.5618 263.452C66.846 265.598 69.7875 268.228 72.2868 271.252C72.5485 271.706 70.28 274.114 68.6223 275.528C68.0464 276.034 68.8666 276.26 70.3673 279.122C71.868 281.984 71.519 282.787 72.3217 282.612C73.8691 282.242 75.4616 282.095 77.0506 282.176ZM319.239 136.364C315.581 134.87 311.745 133.855 307.827 133.345C304.965 132.891 301.597 132.438 298.753 132.071C301.492 128.197 309.607 118.39 310.968 116C311.352 115.354 310.619 114.447 310.078 113.906C307.042 110.66 301.178 109.438 296.676 108.74C294.094 108.322 283.31 106.995 281.477 107.868C279.279 108.915 263.015 133.345 262.527 137.062C262.527 137.69 262.736 137.934 263.347 138.161C265.912 139.103 277.481 140.569 280.064 141.18C276.574 147.288 261.061 167.931 259.543 170.845C259.176 171.578 259.403 172.014 259.839 172.154C261.41 172.777 263.026 173.279 264.673 173.654C265.301 173.846 266.68 172.991 268.687 171.77C277.691 166.36 316.325 140.848 319.292 137.55C319.373 137.473 319.438 137.379 319.48 137.274C319.522 137.17 319.542 137.058 319.537 136.945C319.532 136.833 319.502 136.722 319.451 136.622C319.4 136.522 319.328 136.434 319.239 136.364ZM281.739 157.304C266.907 167.093 261.898 169.955 261.724 170.077C264.115 166.43 278.965 146.083 281.512 141.215C281.557 141.121 281.579 141.018 281.579 140.914C281.579 140.81 281.555 140.708 281.51 140.614C281.465 140.52 281.399 140.438 281.318 140.373C281.237 140.308 281.142 140.262 281.041 140.238C279.296 139.61 266.593 138.248 263.591 137.184C263.975 133.938 279.82 109.404 281.739 108.426C283.659 107.449 302.278 109.665 305.768 112.161C303.936 115.738 293.814 128.267 292.174 131.181C291.843 131.774 291.738 132.35 292.384 132.507C293.029 132.664 309.432 134.584 313.009 135.753C308.647 139.4 286.625 154.023 281.739 157.234V157.304ZM169.797 50.6145C169.797 50.7716 169.902 50.9635 170.164 51.9756C170.232 52.1952 170.384 52.3796 170.585 52.4902C170.787 52.6008 171.024 52.629 171.246 52.5689C171.468 52.5041 171.655 52.3537 171.766 52.1509C171.878 51.948 171.904 51.7092 171.839 51.487C171.665 50.8065 171.507 50.2306 171.403 49.9514C171.301 49.7598 171.132 49.6129 170.928 49.5394C170.724 49.4659 170.499 49.4711 170.299 49.5539C170.098 49.6367 169.936 49.7912 169.843 49.9873C169.751 50.1834 169.734 50.407 169.797 50.6145Z" fill="#F15929"/>
</svg>
