<svg width="40" height="40" viewBox="0 0 40 40" fill="none" xmlns="http://www.w3.org/2000/svg">
<g opacity="0.5">
<path fill-rule="evenodd" clip-rule="evenodd" d="M10.4173 9.16667C10.4173 6.17512 12.8424 3.75 15.834 3.75C17.5094 3.75 19.0071 4.51061 20.0007 5.70536C20.9942 4.51061 22.492 3.75 24.1673 3.75C27.1589 3.75 29.584 6.17512 29.584 9.16667C29.584 10.4238 29.1557 11.5809 28.4372 12.5H30.0007C32.3018 12.5 34.1673 14.3655 34.1673 16.6667V18.75C34.1673 19.4404 33.6077 20 32.9173 20H21.7507C21.4745 20 21.2507 19.7761 21.2507 19.5V13.7318C20.7791 13.4299 20.3574 13.0569 20.0007 12.628C19.6439 13.0569 19.2222 13.4299 18.7507 13.7318V19.5C18.7507 19.7761 18.5268 20 18.2507 20H7.08398C6.39363 20 5.83398 19.4404 5.83398 18.75V16.6667C5.83398 14.3655 7.69947 12.5 10.0007 12.5H11.5641C10.8456 11.5809 10.4173 10.4238 10.4173 9.16667ZM18.7507 9.16667C18.7507 7.55584 17.4448 6.25 15.834 6.25C14.2232 6.25 12.9173 7.55584 12.9173 9.16667C12.9173 10.7775 14.2232 12.0833 15.834 12.0833C17.4448 12.0833 18.7507 10.7775 18.7507 9.16667ZM21.2507 9.16667C21.2507 10.7775 22.5565 12.0833 24.1673 12.0833C25.7782 12.0833 27.084 10.7775 27.084 9.16667C27.084 7.55584 25.7782 6.25 24.1673 6.25C22.5565 6.25 21.2507 7.55584 21.2507 9.16667Z" fill="#F15929"/>
<path d="M18.7507 22.75C18.7507 22.4739 18.5268 22.25 18.2507 22.25H9.41567C8.73959 22.25 8.16186 22.7372 8.04767 23.4035C7.67759 25.5632 7.67759 27.7701 8.04767 29.9298L8.42152 32.1115C8.67325 33.5805 9.86633 34.7059 11.3475 34.8714L13.1227 35.0698C14.8242 35.26 16.5317 35.3794 18.2406 35.428C18.5206 35.4359 18.7507 35.2103 18.7507 34.9302L18.7507 22.75Z" fill="#F15929"/>
<path d="M21.7607 35.428C21.4807 35.4359 21.2507 35.2103 21.2507 34.9302L21.2507 22.75C21.2507 22.4739 21.4745 22.25 21.7507 22.25H30.5856C31.2617 22.25 31.8394 22.7372 31.9536 23.4035C32.3237 25.5632 32.3237 27.7701 31.9536 29.9298L31.5798 32.1115C31.3281 33.5805 30.135 34.7059 28.6538 34.8714L26.8786 35.0698C25.1771 35.26 23.4696 35.3794 21.7607 35.428Z" fill="#F15929"/>
</g>
</svg>
