<svg width="19" height="19" viewBox="0 0 19 19" fill="none" xmlns="http://www.w3.org/2000/svg">
<path d="M16.5003 5.70977L11.1673 1.56177C10.6993 1.19768 10.1232 1 9.53027 1C8.93732 1 8.36128 1.19768 7.89327 1.56177L2.55927 5.70977C2.23872 5.95905 1.97937 6.2783 1.80103 6.64312C1.62269 7.00794 1.53008 7.40869 1.53027 7.81477V15.0148C1.53027 15.5452 1.74099 16.0539 2.11606 16.429C2.49113 16.8041 2.99984 17.0148 3.53027 17.0148H15.5303C16.0607 17.0148 16.5694 16.8041 16.9445 16.429C17.3196 16.0539 17.5303 15.5452 17.5303 15.0148V7.81477C17.5303 6.99177 17.1503 6.21477 16.5003 5.70977Z" stroke="#F15929" stroke-width="2" stroke-linecap="round" stroke-linejoin="round"/>
<path d="M13.5 12C11.29 13.333 7.708 13.333 5.5 12" stroke="#F15929" stroke-width="2" stroke-linecap="round" stroke-linejoin="round"/>
</svg>
