<svg width="16" height="17" viewBox="0 0 16 17" fill="none" xmlns="http://www.w3.org/2000/svg">
<path d="M6.94562 3.75764C7.22007 2.62636 8.82938 2.62636 9.10382 3.75764C9.145 3.92759 9.22573 4.08542 9.33943 4.21827C9.45313 4.35113 9.59659 4.45526 9.75815 4.52219C9.9197 4.58912 10.0948 4.61696 10.2691 4.60345C10.4435 4.58993 10.6121 4.53544 10.7615 4.4444C11.7555 3.83882 12.8939 4.97655 12.2883 5.97125C12.1974 6.12049 12.143 6.28908 12.1295 6.4633C12.116 6.63753 12.1438 6.81248 12.2107 6.97393C12.2775 7.13539 12.3815 7.27879 12.5143 7.39248C12.647 7.50617 12.8046 7.58694 12.9744 7.62824C14.1057 7.90268 14.1057 9.51199 12.9744 9.78644C12.8045 9.82762 12.6466 9.90834 12.5138 10.022C12.3809 10.1357 12.2768 10.2792 12.2099 10.4408C12.1429 10.6023 12.1151 10.7774 12.1286 10.9517C12.1421 11.1261 12.1966 11.2948 12.2877 11.4441C12.8932 12.4381 11.7555 13.5765 10.7608 12.9709C10.6116 12.88 10.443 12.8256 10.2688 12.8121C10.0945 12.7986 9.91958 12.8265 9.75813 12.8933C9.59667 12.9602 9.45327 13.0642 9.33958 13.1969C9.22589 13.3296 9.14511 13.4872 9.10382 13.657C8.82938 14.7883 7.22007 14.7883 6.94562 13.657C6.90444 13.4871 6.82372 13.3293 6.71001 13.1964C6.59631 13.0635 6.45285 12.9594 6.2913 12.8925C6.12974 12.8256 5.95467 12.7977 5.78033 12.8112C5.60598 12.8247 5.43729 12.8792 5.28799 12.9703C4.29393 13.5759 3.15556 12.4381 3.76114 11.4434C3.85204 11.2942 3.90645 11.1256 3.91994 10.9514C3.93342 10.7771 3.90561 10.6022 3.83875 10.4407C3.7719 10.2793 3.66789 10.1359 3.53519 10.0222C3.40248 9.90851 3.24482 9.82773 3.07503 9.78644C1.94374 9.51199 1.94374 7.90268 3.07503 7.62824C3.24498 7.58706 3.4028 7.50633 3.53566 7.39263C3.66851 7.27893 3.77264 7.13546 3.83958 6.97391C3.90651 6.81236 3.93435 6.63729 3.92083 6.46294C3.90731 6.2886 3.85282 6.11991 3.76179 5.97061C3.1562 4.97655 4.29393 3.83817 5.28863 4.44376C5.93287 4.83546 6.76781 4.48886 6.94562 3.75764Z" stroke="#212121" stroke-width="1.28848" stroke-linecap="round" stroke-linejoin="round"/>
<path d="M8.02452 10.6399C9.09193 10.6399 9.95724 9.77455 9.95724 8.70713C9.95724 7.63972 9.09193 6.77441 8.02452 6.77441C6.9571 6.77441 6.0918 7.63972 6.0918 8.70713C6.0918 9.77455 6.9571 10.6399 8.02452 10.6399Z" stroke="#212121" stroke-width="1.28848" stroke-linecap="round" stroke-linejoin="round"/>
</svg>
