<svg width="315" height="315" viewBox="0 0 315 315" fill="none" xmlns="http://www.w3.org/2000/svg">
<g opacity="0.25">
<path d="M94.4332 251.832C146.587 286.606 217.057 272.518 251.832 220.364C286.606 168.21 272.518 97.7399 220.364 62.9652C168.21 28.1905 97.7399 42.2792 62.9652 94.4332C28.1905 146.587 42.2792 217.057 94.4332 251.832Z" fill="#FFF0D9"/>
<path d="M144.736 129.851L157.316 123.144C164.982 119.053 168.218 110.216 164.01 102.308C158.248 91.5247 144.298 93.1256 144.298 93.1256C127.897 95.5381 112.533 104.606 102.609 119.49C84.0291 147.355 92.4016 183.781 119.418 203.565C157.421 231.397 203.861 217.262 203.861 217.262" fill="#FFF0D9"/>
<path d="M144.736 129.851L157.316 123.144C164.982 119.053 168.218 110.216 164.01 102.308C158.248 91.5247 144.298 93.1256 144.298 93.1256C127.897 95.5381 112.533 104.606 102.609 119.49C84.0291 147.355 92.4016 183.781 119.418 203.565C157.421 231.397 203.861 217.262 203.861 217.262" stroke="white" stroke-width="18" stroke-linecap="square" stroke-linejoin="round"/>
<path d="M171.096 156.35L183.675 149.642C191.341 145.552 194.578 136.715 190.369 128.807C184.607 118.023 170.658 119.624 170.658 119.624C161.422 120.967 153.058 125.547 144.741 129.879" fill="#FFF0D9"/>
<path d="M171.096 156.35L183.675 149.642C191.341 145.552 194.578 136.715 190.369 128.807C184.607 118.023 170.658 119.624 170.658 119.624C161.422 120.967 153.058 125.547 144.741 129.879" stroke="white" stroke-width="18" stroke-linecap="square" stroke-linejoin="round"/>
<path d="M197.468 182.831L210.047 176.124C217.713 172.033 220.949 163.196 216.741 155.288C210.979 144.505 197.029 146.106 197.029 146.106C187.794 147.449 179.37 151.523 171.113 156.36" fill="#FFF0D9"/>
<path d="M197.468 182.831L210.047 176.124C217.713 172.033 220.949 163.196 216.741 155.288C210.979 144.505 197.029 146.106 197.029 146.106C187.794 147.449 179.37 151.523 171.113 156.36" stroke="white" stroke-width="18" stroke-linecap="square" stroke-linejoin="round"/>
</g>
</svg>
