<svg width="628" height="607" viewBox="0 0 628 607" fill="none" xmlns="http://www.w3.org/2000/svg">
<path d="M271.344 383.326C270.972 381.572 270.983 379.752 271.377 378.005C274.448 363.649 273.983 342.466 277.05 325.243C280.118 308.02 290.229 309.958 301.408 305.831C308.544 303.186 315.223 299.121 322.823 295.39C327.35 293.106 332.038 291.191 336.842 289.662C351.075 285.235 386.802 301.147 404.106 304.073C408.195 304.759 412.224 305.796 416.155 307.171L416.234 306.92C416.234 306.92 495.148 249.783 515.779 234.137C536.41 218.49 578.763 186.72 578.763 186.72L627 304.07C627 304.07 532.292 370.192 518.276 383.229C504.261 396.265 473.436 412.834 473.436 412.834L473.185 412.771C471.304 421.875 465.044 432.26 447.787 442.554L446.746 442.937C443.889 435.994 440.278 429.431 435.985 423.372C418.774 389.928 348.578 340.371 342.509 341.436C336.44 342.501 319.68 344.832 319.68 344.832C318.448 348.744 313.295 350.933 313.295 350.933H312.854C312.937 362.766 309.09 374.253 301.981 383.396C290.753 398.36 273.654 394.114 271.344 383.326Z" fill="#FFE8BB"/>
<path d="M271.344 383.326C273.65 394.115 290.752 398.35 301.964 383.399C309.073 374.257 312.92 362.769 312.837 350.937H313.278C313.278 350.937 318.431 348.748 319.663 344.836C319.663 344.836 336.41 342.504 342.492 341.439C348.574 340.375 418.757 389.932 435.968 423.375C440.261 429.434 443.872 435.998 446.729 442.941C448.597 448.039 449.308 452.894 447.058 455.706C439.299 465.45 429.811 462.583 423.152 454.484C422.823 454.091 422.493 453.67 422.164 453.242C415.469 444.211 398.29 422.164 398.29 422.164L383.955 412.768C387.299 416.074 390.439 419.6 393.355 423.33C397.193 428.857 412.289 445.137 419.07 456.297C420.813 458.713 421.959 461.549 422.401 464.549C422.259 466.741 421.623 468.871 420.546 470.754C419.472 472.637 417.986 474.22 416.217 475.379C414.444 476.534 412.438 477.227 410.362 477.401C408.286 477.578 406.201 477.227 404.28 476.381C404.043 476.277 403.812 476.148 403.598 475.998C397.859 472.243 369.607 445.474 365.222 441.11C364.345 439.391 363.14 437.881 361.68 436.683C360.797 435.932 359.858 435.26 358.87 434.675L358.827 434.637C351.397 430.176 343.266 431.853 336.245 437.651C328.499 444.075 331.896 440.282 328.546 443.967C328.259 441.068 327.086 438.35 325.205 436.217C318.263 427.987 308.853 427.579 299.997 432.615C293.162 436.764 286.568 441.343 280.249 446.323L254.475 448.93L254.251 448.885C254.881 444.04 253.887 439.116 251.441 434.964C245.84 426.041 237.435 426.96 233.007 427.238C232.281 427.291 231.562 427.426 230.865 427.646L230.809 427.238C227.378 425.453 224.054 423.449 220.856 421.232C216.665 418.469 212.115 415.288 208.478 412.705C204.472 409.859 201.595 407.753 201.595 407.753C201.866 373.241 204.244 338.788 208.715 304.599L214.527 306.979C223.946 310.842 241.748 318.116 244.024 318.965C245.113 319.57 246.326 319.887 247.558 319.887C248.789 319.887 250.002 319.57 251.091 318.965C254.317 317.674 292.252 296.574 299.918 294.649C307.585 292.725 322.803 295.377 322.803 295.377C315.192 299.121 308.514 303.186 301.388 305.817C290.222 309.944 280.088 307.992 277.03 325.229C273.973 342.466 274.427 363.636 271.357 377.991C270.967 379.745 270.962 381.569 271.344 383.326Z" fill="#FFE8BB"/>
<path d="M422.2 453.238C422.53 453.666 422.859 454.088 423.188 454.481C423.188 454.481 419.202 456.43 419.123 456.301C412.342 445.14 397.246 428.86 393.408 423.334C390.492 419.606 387.352 416.078 384.008 412.771L398.343 422.168C398.343 422.168 415.505 444.207 422.2 453.238Z" fill="#FFE8BB"/>
<path d="M403.638 475.998L402.857 477.206C402.564 478.831 401.915 480.359 400.966 481.671C400.014 482.986 398.785 484.044 397.378 484.768C395.379 486.094 393.141 486.968 390.806 487.337C388.47 487.702 386.088 487.552 383.811 486.895C381.768 485.851 379.798 484.653 377.913 483.321L374.899 482.973C376.421 481.487 377.769 479.809 378.908 477.982C383.192 470.354 383.043 465.628 378.319 461.657C376.543 459.882 374.359 458.633 371.983 458.031C369.604 457.428 367.12 457.495 364.778 458.225L364.277 457.902C364.531 457.456 364.751 456.99 364.936 456.51C366.063 454.129 366.679 451.516 366.735 448.857C366.791 446.198 366.29 443.557 365.265 441.128C369.647 445.474 397.886 472.243 403.638 475.998Z" fill="#FFE8BB"/>
<path d="M383.811 486.895C379.801 492.143 374.319 495.912 368.151 497.662C366.853 498.156 365.469 498.344 364.095 498.219C362.718 498.09 361.387 497.648 360.191 496.921L358.649 496.897C364.343 492.63 369.772 487.98 374.899 482.976L377.913 483.324C379.798 484.657 381.768 485.851 383.811 486.895Z" fill="#FFE8BB"/>
<path d="M378.319 461.629C383.043 465.6 383.178 470.329 378.908 477.954C377.768 479.781 376.421 481.459 374.899 482.945C369.772 487.949 364.343 492.599 358.65 496.865C356.758 498.313 355.549 499.197 355.549 499.197C336.908 510.765 328.642 513.333 321.973 510.02C319.908 509.15 318.056 507.793 316.554 506.06C315.055 504.323 313.944 502.249 313.312 499.997L312.982 499.207C320.464 495.745 327.716 491.746 334.681 487.236C334.681 487.236 359.061 467.201 364.267 457.86L364.768 458.184C367.114 457.453 369.601 457.387 371.98 457.992C374.359 458.598 376.543 459.851 378.319 461.629Z" fill="#FFE8BB"/>
<path d="M365.268 441.096C366.293 443.525 366.793 446.167 366.737 448.826C366.681 451.488 366.065 454.098 364.939 456.478C364.754 456.959 364.533 457.425 364.28 457.871C359.071 467.211 334.694 487.246 334.694 487.246C327.729 491.756 320.477 495.755 312.995 499.218C297.51 506.025 293.906 502.002 288.344 499.242C283.045 496.288 279.065 491.238 277.271 485.2V485.033C281.876 484.667 286.371 483.369 290.509 481.205C290.509 481.205 320.721 464.152 325.261 456.291C327.626 452.675 328.799 448.338 328.602 443.947C331.952 440.261 328.556 444.054 336.301 437.63C343.322 431.829 351.457 430.155 358.883 434.616L358.926 434.655C359.914 435.239 360.853 435.911 361.736 436.663C363.192 437.863 364.398 439.374 365.268 441.096Z" fill="#FFE8BB"/>
<path d="M280.266 446.316C286.593 441.336 293.193 436.76 300.034 432.608C308.89 427.572 318.299 427.98 325.241 436.21C327.123 438.343 328.295 441.061 328.582 443.96C328.78 448.349 327.607 452.688 325.241 456.304C320.701 464.162 290.489 481.219 290.489 481.219C286.351 483.383 281.856 484.681 277.251 485.047C268.497 485.353 259.757 484.058 251.421 481.219C242.331 478.73 237.992 460.766 237.992 460.766C241.472 460.167 244.862 459.081 248.07 457.536C249.71 456.76 251.139 455.56 252.224 454.046C253.309 452.532 254.015 450.757 254.277 448.878L254.502 448.923L280.266 446.316Z" fill="#FFE8BB"/>
<path d="M318.622 9.69336L320.761 20.6279L193.336 48.3645L227.884 225.475L217.522 227.723L215.384 216.778L180.846 39.6816L308.261 11.945L318.622 9.69336Z" fill="#F9E49C"/>
<path d="M308.26 11.945L180.846 39.6816L215.384 216.778L205.022 219.04L168.342 30.9847L306.132 1L308.26 11.945Z" fill="#F9E49B"/>
<path d="M230.896 427.642C231.593 427.423 232.311 427.287 233.037 427.235C237.465 426.97 245.853 426.038 251.471 434.961C253.918 439.113 254.912 444.037 254.281 448.881C254.019 450.76 253.312 452.535 252.227 454.049C251.142 455.563 249.714 456.764 248.074 457.54C244.865 459.085 241.476 460.171 237.996 460.769C230.263 462.144 222.221 461.403 218.689 457.731C212.758 451.547 206.38 437.338 220.231 422.328L220.89 421.225C224.087 423.442 227.411 425.446 230.843 427.231L230.896 427.642Z" fill="#FFE8BB"/>
<path d="M212.574 298.592L212.448 298.7C212.326 298.527 212.169 298.384 211.988 298.283C211.807 298.182 211.608 298.124 211.403 298.113C211.199 298.103 210.995 298.141 210.806 298.224C210.617 298.306 210.448 298.432 210.31 298.592C209.44 300.473 208.909 302.509 208.745 304.595C204.274 338.784 201.896 373.237 201.625 407.75C201.77 415.702 202.37 420.943 203.582 421.649C204.339 422.203 205.271 422.415 206.175 422.244L206.221 422.401C202.848 424.771 193.843 425.965 191.395 418.444C190.791 412.347 190.746 406.201 191.26 400.093C192.427 370.512 196.99 314.83 199.497 299.574C199.631 298.246 199.944 296.945 200.426 295.711C203.131 291.966 212.257 294.12 212.574 298.592Z" fill="#F15929"/>
<path d="M198.888 299.455L199.51 299.577C196.996 314.851 192.433 370.53 191.274 400.097H190.944C190.944 400.097 171.423 390.84 161.503 389.594C147.122 387.802 1.01318 316.129 1.01318 316.129L56.9171 201.11L189.801 294.681L198.888 299.455Z" fill="#FFE8BB"/>
<path d="M578.75 186.72L626.987 304.07" stroke="#FFE8BB" stroke-width="1.2366" stroke-linecap="round" stroke-linejoin="round"/>
<path d="M1 316.115L56.9171 201.11" stroke="#FFE8BB" stroke-width="1.2366" stroke-linecap="round" stroke-linejoin="round"/>
<path d="M463.552 564.094C428.615 588.466 388.239 602.738 346.453 605.49C304.666 608.24 262.926 599.372 225.395 579.772C187.863 560.172 155.852 530.521 132.551 493.778C109.251 457.032 95.4754 414.48 92.5985 370.359" stroke="#313553" stroke-width="1.2366" stroke-linecap="round" stroke-linejoin="round"/>
<path d="M570.856 360.646C569.864 396.746 561.548 432.201 546.475 464.615C531.399 497.032 509.914 525.653 483.471 548.545" stroke="#313553" stroke-width="1.2366" stroke-linecap="round" stroke-linejoin="round"/>
<path d="M436.828 523.798C410.751 541.992 380.845 553.149 349.734 556.288C318.622 559.431 287.257 554.458 258.389 541.811C229.521 529.161 204.032 509.227 184.159 483.749C164.285 458.271 150.634 428.028 144.403 395.681" stroke="#313553" stroke-width="1.2366" stroke-linecap="round" stroke-linejoin="round"/>
<path d="M519.175 393.07C510.843 439.523 487.319 481.406 452.715 511.395" stroke="#313553" stroke-width="1.2366" stroke-linecap="round" stroke-linejoin="round"/>
<path d="M459.918 206.981C471.222 217.755 481.267 229.913 489.846 243.199" stroke="#313553" stroke-width="1.2366" stroke-linecap="round" stroke-linejoin="round"/>
<path d="M160.973 265.855C169.782 247.164 181.276 230.024 195.046 215.045" stroke="#313553" stroke-width="1.2366" stroke-linecap="round" stroke-linejoin="round"/>
<path d="M448.64 132.381C478.776 150.29 504.91 174.845 525.258 204.375" stroke="#313553" stroke-width="1.2366" stroke-linecap="round" stroke-linejoin="round"/>
<path d="M119.868 234.614C135.186 204.17 156.21 177.337 181.66 155.751" stroke="#313553" stroke-width="1.2366" stroke-linecap="round" stroke-linejoin="round"/>
<path d="M416.243 306.917C416.243 306.917 495.157 249.78 515.788 234.133C536.419 218.487 578.762 186.72 578.762 186.72" stroke="#313553" stroke-width="1.2366" stroke-linecap="round" stroke-linejoin="round"/>
<path d="M473.43 412.834C473.43 412.834 504.251 396.255 518.27 383.229C532.289 370.203 626.994 304.07 626.994 304.07" stroke="#313553" stroke-width="1.2366" stroke-linecap="round" stroke-linejoin="round"/>
<path d="M1 316.115C1 316.115 147.112 387.805 161.493 389.58C171.413 390.826 190.934 400.083 190.934 400.083" stroke="#313553" stroke-width="1.2366" stroke-linecap="round" stroke-linejoin="round"/>
<path d="M198.894 299.452L189.8 294.681L56.9166 201.11" stroke="#313553" stroke-width="1.2366" stroke-linecap="round" stroke-linejoin="round"/>
<path d="M214.669 306.666C214.476 303.874 213.719 301.158 212.449 298.7C212.326 298.527 212.169 298.384 211.989 298.283C211.808 298.182 211.608 298.124 211.404 298.113C211.2 298.103 210.996 298.141 210.806 298.223C210.617 298.306 210.448 298.432 210.311 298.592C209.44 300.473 208.91 302.509 208.746 304.595C204.275 338.784 201.896 373.237 201.626 407.75C201.771 415.702 202.37 420.943 203.583 421.649C204.339 422.203 205.271 422.415 206.176 422.244C209.141 421.434 208.182 413.718 208.182 413.718" stroke="#313553" stroke-width="1.2366" stroke-linecap="round" stroke-linejoin="round"/>
<path d="M212.574 298.592C212.244 294.12 203.131 291.98 200.446 295.711C199.964 296.945 199.651 298.246 199.517 299.574C197.003 314.848 192.44 370.526 191.28 400.093C190.766 406.201 190.811 412.347 191.415 418.444C193.85 425.965 202.854 424.771 206.241 422.401" stroke="#F15929" stroke-width="1.2366" stroke-linecap="round" stroke-linejoin="round"/>
<path d="M208.745 304.595L214.557 306.976C223.976 310.839 241.777 318.112 244.054 318.961C245.143 319.567 246.356 319.884 247.587 319.884C248.819 319.884 250.032 319.567 251.121 318.961C254.346 317.67 292.281 296.57 299.948 294.646C307.615 292.721 322.833 295.373 322.833 295.373" stroke="#313553" stroke-width="1.2366" stroke-linecap="round" stroke-linejoin="round"/>
<path d="M201.626 407.75C201.626 407.75 204.502 409.855 208.508 412.702C212.133 415.284 216.696 418.465 220.886 421.228C224.084 423.445 227.408 425.45 230.84 427.235" stroke="#313553" stroke-width="1.2366" stroke-linecap="round" stroke-linejoin="round"/>
<path d="M472.296 390.022C472.296 395.072 475.159 403.205 473.179 412.772C471.297 421.876 465.037 432.26 447.78 442.558" stroke="#313553" stroke-width="1.2366" stroke-linecap="round" stroke-linejoin="round"/>
<path d="M431.745 315.015C426.935 311.625 421.686 308.98 416.165 307.167C412.234 305.793 408.205 304.759 404.116 304.07C386.812 301.15 351.072 285.232 336.852 289.659C332.048 291.188 327.36 293.103 322.833 295.387C315.223 299.132 308.544 303.196 301.418 305.827C290.252 309.955 280.118 308.002 277.06 325.239C274.003 342.477 274.458 363.646 271.387 378.002C270.993 379.749 270.981 381.569 271.354 383.323C273.66 394.111 290.763 398.346 301.975 383.396C309.083 374.254 312.931 362.766 312.847 350.933C312.824 347.596 312.468 344.272 311.783 341.015" stroke="#313553" stroke-width="1.2366" stroke-linecap="round" stroke-linejoin="round"/>
<path d="M313.288 350.933C313.288 350.933 318.441 348.744 319.673 344.832C319.673 344.832 336.42 342.501 342.502 341.436C348.584 340.371 418.767 389.928 435.978 423.372" stroke="#313553" stroke-width="1.2366" stroke-linecap="round" stroke-linejoin="round"/>
<path d="M435.978 423.372C440.271 429.431 443.882 435.994 446.739 442.937C448.607 448.036 449.319 452.89 447.068 455.702C439.309 465.447 429.821 462.579 423.162 454.481C422.833 454.088 422.503 453.666 422.174 453.238C415.479 444.207 398.301 422.161 398.301 422.161L383.966 412.765" stroke="#313553" stroke-width="1.2366" stroke-linecap="round" stroke-linejoin="round"/>
<path d="M358.91 380.671C359.203 383.893 359.967 387.046 361.177 390.022C362.116 391.17 374.639 403.097 383.992 412.771C387.336 416.078 390.476 419.603 393.392 423.334C397.23 428.86 412.326 445.14 419.107 456.301C420.85 458.716 421.996 461.552 422.438 464.552C422.296 466.745 421.66 468.874 420.583 470.757C419.509 472.64 418.023 474.223 416.253 475.382C414.481 476.538 412.475 477.23 410.399 477.404C408.323 477.582 406.238 477.23 404.317 476.385C404.08 476.28 403.849 476.151 403.635 476.002C397.896 472.247 369.644 445.478 365.259 441.113L365.239 441.089" stroke="#313553" stroke-width="1.2366" stroke-linecap="round" stroke-linejoin="round"/>
<path d="M402.857 477.206C402.563 478.831 401.914 480.359 400.965 481.671C400.013 482.986 398.784 484.044 397.377 484.768C395.378 486.094 393.141 486.968 390.805 487.337C388.469 487.702 386.087 487.552 383.81 486.895C381.767 485.851 379.797 484.653 377.913 483.32" stroke="#313553" stroke-width="1.2366" stroke-linecap="round" stroke-linejoin="round"/>
<path d="M383.811 486.895C379.801 492.143 374.319 495.912 368.151 497.662C366.853 498.156 365.469 498.344 364.096 498.219C362.718 498.09 361.387 497.648 360.191 496.921" stroke="#313553" stroke-width="1.2366" stroke-linecap="round" stroke-linejoin="round"/>
<path d="M342.502 341.436C342.502 341.436 347.622 336.077 347.622 333.028" stroke="#313553" stroke-width="1.2366" stroke-linecap="round" stroke-linejoin="round"/>
<path d="M319.673 344.833C320.128 342.32 320.128 339.738 319.673 337.225" stroke="#313553" stroke-width="1.2366" stroke-linecap="round" stroke-linejoin="round"/>
<path d="M271.084 382.213C271.082 382.606 271.172 382.989 271.344 383.337C273.394 387.715 287.765 386.302 292.374 379.007C297.343 371.125 291.274 360.646 291.274 360.646" stroke="#313553" stroke-width="1.2366" stroke-linecap="round" stroke-linejoin="round"/>
<path d="M274.141 357.799C274.141 357.799 277.831 357.5 282.707 356.902" stroke="#313553" stroke-width="1.2366" stroke-linecap="round" stroke-linejoin="round"/>
<path d="M434.337 456.301C437.708 455.25 440.805 453.391 443.385 450.868" stroke="#313553" stroke-width="1.2366" stroke-linecap="round" stroke-linejoin="round"/>
<path d="M423.172 454.481C423.172 454.481 419.186 456.43 419.106 456.301" stroke="#313553" stroke-width="1.2366" stroke-linecap="round" stroke-linejoin="round"/>
<path d="M223.038 432.048C225.417 430.148 228.07 428.665 230.896 427.659C231.593 427.44 232.311 427.304 233.037 427.252C237.465 426.988 245.853 426.055 251.471 434.978C253.918 439.13 254.912 444.054 254.281 448.899C254.019 450.778 253.312 452.553 252.227 454.067C251.142 455.58 249.714 456.781 248.074 457.557C244.865 459.102 241.476 460.188 237.996 460.787C230.263 462.161 222.221 461.42 218.689 457.749C212.758 451.564 206.38 437.355 220.231 422.345" stroke="#313553" stroke-width="1.2366" stroke-linecap="round" stroke-linejoin="round"/>
<path d="M280.266 446.316C277.65 448.328 275.475 450.037 274.128 451.091" stroke="#313553" stroke-width="1.2366" stroke-linecap="round" stroke-linejoin="round"/>
<path d="M237.995 460.773C237.995 460.773 242.334 478.737 251.424 481.225C259.761 484.065 268.5 485.36 277.254 485.054C281.859 484.688 286.354 483.39 290.492 481.225C290.492 481.225 320.705 464.173 325.245 456.311C327.61 452.695 328.783 448.356 328.585 443.967C328.299 441.068 327.126 438.35 325.245 436.217C318.303 427.987 308.893 427.579 300.037 432.615C293.202 436.763 286.607 441.343 280.289 446.323" stroke="#313553" stroke-width="1.2366" stroke-linecap="round" stroke-linejoin="round"/>
<path d="M280.289 446.323H280.279L254.505 448.93" stroke="#313553" stroke-width="1.2366" stroke-linecap="round" stroke-linejoin="round"/>
<path d="M300.65 444.89C298.504 447.569 297.336 450.969 297.356 454.481C297.516 455.956 298.016 457.369 298.814 458.594C299.612 459.819 300.683 460.818 301.932 461.504C303.181 462.189 304.57 462.541 305.978 462.527C307.385 462.513 308.768 462.13 310.004 461.42C315.859 457.999 325.235 451.074 322.655 444.89" stroke="#313553" stroke-width="1.2366" stroke-linecap="round" stroke-linejoin="round"/>
<path d="M304.67 441.096C306.716 439.179 309.211 437.877 311.895 437.327C313.783 437.24 315.631 437.912 317.071 439.207" stroke="#313553" stroke-width="1.2366" stroke-linecap="round" stroke-linejoin="round"/>
<path d="M358.867 434.637C351.437 430.176 343.306 431.853 336.285 437.651C328.539 444.075 331.936 440.282 328.585 443.967C328.516 444.04 328.45 444.124 328.371 444.207" stroke="#313553" stroke-width="1.2366" stroke-linecap="round" stroke-linejoin="round"/>
<path d="M277.268 485.221C279.063 491.259 283.042 496.308 288.341 499.263C293.903 502.026 297.524 506.046 312.992 499.239C320.474 495.776 327.726 491.777 334.691 487.267C334.691 487.267 359.071 467.232 364.277 457.891C364.531 457.446 364.751 456.98 364.936 456.499C366.063 454.119 366.679 451.509 366.735 448.846C366.791 446.188 366.29 443.546 365.265 441.117C364.389 439.398 363.183 437.888 361.724 436.69C360.841 435.939 359.902 435.267 358.913 434.682" stroke="#313553" stroke-width="1.2366" stroke-linecap="round" stroke-linejoin="round"/>
<path d="M338.855 449.637C337.181 452.668 336.581 456.228 337.168 459.684C337.563 461.11 338.285 462.412 339.267 463.473C340.252 464.538 341.467 465.328 342.808 465.781C344.146 466.23 345.573 466.327 346.956 466.063C348.34 465.795 349.642 465.175 350.745 464.253C355.977 459.83 364.095 451.324 360.563 445.69" stroke="#313553" stroke-width="1.2366" stroke-linecap="round" stroke-linejoin="round"/>
<path d="M342.206 445.164C343.912 442.913 346.163 441.187 348.716 440.164C350.564 439.739 352.498 440.07 354.129 441.086" stroke="#313553" stroke-width="1.2366" stroke-linecap="round" stroke-linejoin="round"/>
<path d="M313.311 500.029C313.944 502.28 315.054 504.354 316.553 506.088C318.056 507.824 319.907 509.178 321.973 510.051C328.641 513.365 336.908 510.793 355.549 499.228C355.549 499.228 356.758 498.344 358.649 496.897C364.342 492.63 369.772 487.98 374.899 482.976C376.421 481.49 377.768 479.813 378.908 477.986C383.191 470.357 383.043 465.631 378.318 461.66C376.543 459.885 374.358 458.636 371.983 458.034C369.604 457.432 367.12 457.498 364.777 458.229" stroke="#313553" stroke-width="1.2366" stroke-linecap="round" stroke-linejoin="round"/>
<path d="M359.704 469.839C358.409 472.181 357.947 474.933 358.402 477.603C358.705 478.706 359.265 479.715 360.023 480.54C360.784 481.365 361.726 481.977 362.764 482.329C363.802 482.677 364.906 482.753 365.977 482.544C367.047 482.339 368.056 481.855 368.909 481.142C372.951 477.721 379.238 471.144 376.487 466.776" stroke="#313553" stroke-width="1.2366" stroke-linecap="round" stroke-linejoin="round"/>
<path d="M362.303 466.372C363.628 464.629 365.374 463.292 367.354 462.506C368.784 462.175 370.276 462.433 371.532 463.226" stroke="#313553" stroke-width="1.2366" stroke-linecap="round" stroke-linejoin="round"/>
<path d="M347.622 419.485L351.414 427.127L358.866 434.637L358.909 434.675" stroke="#313553" stroke-width="1.2366" stroke-linecap="round" stroke-linejoin="round"/>
<path d="M248.074 457.543C244.784 455.949 241.783 453.76 239.208 451.074C237.458 448.665 236.246 445.874 235.663 442.902C235.539 442.231 235.252 441.604 234.83 441.086C234.408 440.567 233.865 440.174 233.255 439.944C232.646 439.711 231.989 439.655 231.351 439.774C230.714 439.892 230.116 440.184 229.617 440.619C228.032 441.858 226.922 443.658 226.49 445.69C225.991 448.025 226.249 450.468 227.222 452.626C228.196 454.787 229.828 456.541 231.858 457.602" stroke="#313553" stroke-width="1.2366" stroke-linecap="round" stroke-linejoin="round"/>
<path d="M344.848 211.419L230.012 236.406L227.884 225.475L193.336 48.3644L320.76 20.6278L331.112 18.3796L363.179 182.725" stroke="#313553" stroke-width="1.2366" stroke-linecap="round" stroke-linejoin="round"/>
<path d="M227.884 225.475L217.522 227.723L215.384 216.778L180.846 39.6816L308.261 11.945L318.622 9.69336L320.761 20.6279V20.6383" stroke="#313553" stroke-width="1.2366" stroke-linecap="round" stroke-linejoin="round"/>
<path d="M215.384 216.778L205.022 219.04L168.342 30.9847L306.132 1L308.26 11.945" stroke="#313553" stroke-width="1.2366" stroke-linecap="round" stroke-linejoin="round"/>
<path d="M220.138 68.6153L314.079 48.1731" stroke="#313553" stroke-width="1.2366" stroke-linecap="round" stroke-linejoin="round"/>
<path d="M229.581 89.3815L323.525 68.9253" stroke="#313553" stroke-width="1.2366" stroke-linecap="round" stroke-linejoin="round"/>
<path d="M221.36 102.574L325.663 79.87" stroke="#313553" stroke-width="1.2366" stroke-linecap="round" stroke-linejoin="round"/>
<path d="M223.489 113.516L327.791 90.8149" stroke="#313553" stroke-width="1.2366" stroke-linecap="round" stroke-linejoin="round"/>
<path d="M225.631 124.461L298.851 108.518" stroke="#313553" stroke-width="1.2366" stroke-linecap="round" stroke-linejoin="round"/>
<path d="M238.121 133.147L332.061 112.705" stroke="#313553" stroke-width="1.2366" stroke-linecap="round" stroke-linejoin="round"/>
<path d="M229.901 146.34L334.203 123.65" stroke="#313553" stroke-width="1.2366" stroke-linecap="round" stroke-linejoin="round"/>
<path d="M232.029 157.282L336.331 134.581" stroke="#313553" stroke-width="1.2366" stroke-linecap="round" stroke-linejoin="round"/>
<path d="M244.519 165.979L338.473 145.526" stroke="#313553" stroke-width="1.2366" stroke-linecap="round" stroke-linejoin="round"/>
<path d="M236.298 179.172L340.601 156.471" stroke="#313553" stroke-width="1.2366" stroke-linecap="round" stroke-linejoin="round"/>
<path d="M238.437 190.117L342.739 167.416" stroke="#313553" stroke-width="1.2366" stroke-linecap="round" stroke-linejoin="round"/>
<path d="M271.739 211.384L282.374 209.077L295.01 206.324L321.258 200.606L326.243 199.517L334.611 197.7" stroke="#313553" stroke-width="1.2366" stroke-linecap="round" stroke-linejoin="round"/>
<path d="M302.67 194.505C302.34 195.775 300.301 203.766 303.111 203.849C306.146 203.943 313.064 185.513 313.064 185.513C313.064 185.513 309.677 200.477 313.776 200.787C317.875 201.097 317.278 190.141 320.833 189.125C323.334 188.405 321.262 196.228 321.262 200.609C321.262 202.489 321.647 203.741 322.929 203.393C324.523 202.976 325.485 201.385 326.246 199.517C327.492 196.384 328.203 192.483 330.424 191.899" stroke="#313553" stroke-width="1.2366" stroke-linecap="round" stroke-linejoin="round"/>
<path d="M289.491 199.889C290.941 203.609 293.115 206.501 294.947 206.049C299.115 204.984 302.218 195.859 302.66 194.505C302.668 194.465 302.679 194.425 302.693 194.386V194.352" stroke="#313553" stroke-width="1.2366" stroke-linecap="round" stroke-linejoin="round"/>
<path d="M289.491 199.889C292.852 193.19 294.71 185.332 290.69 186.421C286.789 187.486 287.412 194.53 289.491 199.889Z" stroke="#313553" stroke-width="1.2366" stroke-linecap="round" stroke-linejoin="round"/>
<path d="M282.295 208.68C284.548 208.036 287.332 204.208 289.497 199.889" stroke="#313553" stroke-width="1.2366" stroke-linecap="round" stroke-linejoin="round"/>
<path d="M265.242 198.358L260.033 206.717L254.824 215.066" stroke="#313553" stroke-width="1.2366" stroke-linecap="round" stroke-linejoin="round"/>
<path d="M252.116 201.215L260.033 206.717L267.937 212.209" stroke="#313553" stroke-width="1.2366" stroke-linecap="round" stroke-linejoin="round"/>
<g filter="url(#filter0_i_14847_74922)">
<path fill-rule="evenodd" clip-rule="evenodd" d="M388.765 49.1945L356.797 43.7913L351.642 77.8229L346.487 111.855L322.51 107.802L325.347 143.185L341.331 145.886L336.176 179.918L331.021 213.949L362.989 219.352L390.962 224.08C432.894 231.167 472.368 200.726 479.13 156.088L480.419 147.58C487.181 102.941 458.669 61.0093 416.737 53.9222L388.765 49.1945ZM373.3 151.289L368.145 185.321L396.117 190.049C397.464 190.276 398.806 190.437 400.142 190.533C422.871 192.171 443.464 175.094 447.162 150.684L448.45 142.177C452.148 117.767 437.628 94.7557 415.549 88.8199C414.252 88.4712 412.929 88.1814 411.582 87.9538L383.61 83.2261L378.455 117.258L394.439 119.959L397.276 155.342L373.3 151.289Z" fill="#F15929"/>
</g>
<path d="M356.886 43.2022L356.299 43.1029L356.209 43.692L351.054 77.7237L345.988 111.166L322.6 107.213L321.858 107.088L321.918 107.841L324.755 143.223L324.793 143.695L325.258 143.774L340.655 146.376L335.589 179.818L330.434 213.85L330.344 214.439L330.932 214.538L362.9 219.942L390.872 224.669C433.162 231.817 472.911 201.117 479.717 156.187L481.006 147.679C487.812 102.749 459.116 60.4805 416.827 53.3331L388.854 48.6053L356.886 43.2022ZM394.528 119.37L379.132 116.768L384.108 83.9145L411.493 88.5429C412.821 88.7674 414.126 89.0531 415.405 89.3969C437.161 95.2461 451.518 117.945 447.863 142.077L446.574 150.585C442.918 174.717 422.572 191.551 400.175 189.937C398.858 189.842 397.534 189.684 396.206 189.459L368.821 184.831L373.798 151.978L397.187 155.931L397.929 156.056L397.868 155.303L395.031 119.921L394.993 119.449L394.528 119.37Z" stroke="#F15929" stroke-width="1.19167"/>
<defs>
<filter id="filter0_i_14847_74922" x="321.205" y="42.4146" width="161.394" height="187.886" filterUnits="userSpaceOnUse" color-interpolation-filters="sRGB">
<feFlood flood-opacity="0" result="BackgroundImageFix"/>
<feBlend mode="normal" in="SourceGraphic" in2="BackgroundImageFix" result="shape"/>
<feColorMatrix in="SourceAlpha" type="matrix" values="0 0 0 0 0 0 0 0 0 0 0 0 0 0 0 0 0 0 127 0" result="hardAlpha"/>
<feOffset dy="4"/>
<feGaussianBlur stdDeviation="2"/>
<feComposite in2="hardAlpha" operator="arithmetic" k2="-1" k3="1"/>
<feColorMatrix type="matrix" values="0 0 0 0 1 0 0 0 0 0.955667 0 0 0 0 0.941667 0 0 0 1 0"/>
<feBlend mode="normal" in2="shape" result="effect1_innerShadow_14847_74922"/>
</filter>
</defs>
</svg>
