<svg width="166" height="35" viewBox="0 0 166 35" fill="none" xmlns="http://www.w3.org/2000/svg">
<g clip-path="url(#clip0_13891_61236)">
<path d="M42.6875 32.3845V34.5857H42.1972V32.856H35.8711V25.6893H36.3938V32.3845H41.0117V25.6893H41.5344V32.3845H42.6902H42.6875Z" fill="#BDBDBD" stroke="#BDBDBD" stroke-width="0.269424" stroke-miterlimit="10"/>
<path d="M43.7112 27.5109H44.2231V32.0668L48.0328 27.5109H48.4827V32.8562H47.9708V28.3003L44.1612 32.8562H43.7112V27.5109Z" fill="#BDBDBD" stroke="#BDBDBD" stroke-width="0.269424" stroke-miterlimit="10"/>
<path d="M55.7276 32.1449C55.1806 32.6191 54.4101 32.8723 53.4132 32.9074V34.8418H52.9121V32.9074C51.9152 32.8723 51.1447 32.6191 50.5977 32.1449C50.0508 31.6707 49.7787 31.0133 49.7787 30.1727C49.7787 29.3321 50.0535 28.699 50.6031 28.2275C51.1528 27.756 51.9233 27.5027 52.9121 27.4704V25.2584H53.4132V27.4704C54.4101 27.5054 55.1806 27.756 55.7276 28.2275C56.2745 28.699 56.5466 29.3456 56.5466 30.1727C56.5466 30.9998 56.2745 31.668 55.7276 32.1449ZM50.9668 31.8027C51.4168 32.1988 52.0661 32.4143 52.9121 32.4466V27.9311C52.0661 27.9661 51.4168 28.1763 50.9668 28.5669C50.5169 28.9549 50.2906 29.4911 50.2906 30.1754C50.2906 30.8597 50.5169 31.4067 50.9668 31.8027ZM55.3638 31.8081C55.8165 31.4148 56.0455 30.8705 56.0455 30.1754C56.0455 29.4803 55.8192 28.9576 55.3638 28.5669C54.9085 28.179 54.2592 27.9661 53.4132 27.9311V32.4466C54.2592 32.4116 54.9085 32.1988 55.3638 31.8054V31.8081Z" fill="#BDBDBD" stroke="#BDBDBD" stroke-width="0.269424" stroke-miterlimit="10"/>
<path d="M61.7168 27.8206C62.1183 28.0523 62.4362 28.3729 62.6625 28.7824C62.8888 29.192 63.0047 29.6581 63.0047 30.1861C63.0047 30.7142 62.8915 31.1803 62.6625 31.5925C62.4335 32.0047 62.1183 32.3254 61.7168 32.5544C61.3127 32.7834 60.8627 32.8965 60.3643 32.8965C59.8928 32.8965 59.4671 32.7861 59.0845 32.5625C58.702 32.3388 58.4056 32.0317 58.1928 31.6356V34.8391H57.6808V27.5081H58.1712V28.7663C58.384 28.3567 58.6804 28.0388 59.0684 27.8098C59.4537 27.5808 59.8847 27.4677 60.3643 27.4677C60.8439 27.4677 61.3127 27.5835 61.7168 27.8152V27.8206ZM61.4393 32.1502C61.768 31.9589 62.024 31.6922 62.2126 31.3527C62.4012 31.0106 62.4928 30.6226 62.4928 30.1861C62.4928 29.7497 62.3985 29.3617 62.2126 29.0195C62.024 28.6774 61.768 28.4133 61.4393 28.222C61.1106 28.0307 60.7442 27.9365 60.3347 27.9365C59.9251 27.9365 59.5587 28.0307 59.2354 28.222C58.9121 28.4133 58.6562 28.6801 58.4676 29.0195C58.279 29.3617 58.1874 29.7497 58.1874 30.1861C58.1874 30.6226 58.2817 31.0133 58.4676 31.3527C58.6562 31.6949 58.9121 31.9589 59.2354 32.1502C59.5587 32.3415 59.9251 32.4358 60.3347 32.4358C60.7442 32.4358 61.1133 32.3415 61.4393 32.1502Z" fill="#BDBDBD" stroke="#BDBDBD" stroke-width="0.269424" stroke-miterlimit="10"/>
<path d="M65.1817 32.549C64.7749 32.3173 64.4569 31.994 64.2252 31.5817C63.9935 31.1695 63.8777 30.7034 63.8777 30.1834C63.8777 29.6634 63.9935 29.2 64.2252 28.7851C64.4569 28.3729 64.7776 28.0496 65.1817 27.8179C65.5885 27.5862 66.0439 27.4703 66.5477 27.4703C67.0515 27.4703 67.5095 27.5862 67.9137 27.8179C68.3205 28.0496 68.6384 28.3729 68.8701 28.7851C69.1018 29.1973 69.2177 29.6634 69.2177 30.1834C69.2177 30.7034 69.1018 31.1668 68.8701 31.5817C68.6384 31.9967 68.3178 32.3173 67.9137 32.549C67.5068 32.7807 67.0515 32.8965 66.5477 32.8965C66.0439 32.8965 65.5858 32.7807 65.1817 32.549ZM67.6496 32.1502C67.9729 31.9589 68.2289 31.6922 68.4175 31.3527C68.6061 31.0106 68.6977 30.6226 68.6977 30.1861C68.6977 29.7497 68.6034 29.3617 68.4175 29.0195C68.2289 28.6774 67.9729 28.4133 67.6496 28.222C67.3263 28.0307 66.9599 27.9364 66.5504 27.9364C66.1408 27.9364 65.7744 28.0307 65.4511 28.222C65.1278 28.4133 64.8719 28.68 64.6833 29.0195C64.4947 29.3617 64.4031 29.7497 64.4031 30.1861C64.4031 30.6226 64.4974 31.0133 64.6833 31.3527C64.8719 31.6949 65.1278 31.9589 65.4511 32.1502C65.7744 32.3415 66.1435 32.4358 66.5504 32.4358C66.9572 32.4358 67.3263 32.3415 67.6496 32.1502Z" fill="#BDBDBD" stroke="#BDBDBD" stroke-width="0.269424" stroke-miterlimit="10"/>
<path d="M74.8701 31.4229C74.8701 31.8863 74.7004 32.2419 74.3636 32.4871C74.0268 32.7323 73.5203 32.8562 72.8441 32.8562H70.5297V27.5109H72.7821C73.3748 27.5109 73.8409 27.6294 74.1804 27.8638C74.5172 28.1009 74.6869 28.435 74.6869 28.8715C74.6869 29.1867 74.6007 29.4453 74.4256 29.6555C74.2505 29.8629 74.008 30.0111 73.6928 30.1C74.4768 30.2374 74.8701 30.6766 74.8701 31.4202V31.4229ZM71.0309 29.9491H72.7498C73.2078 29.9491 73.558 29.8629 73.8032 29.6878C74.0484 29.5127 74.1723 29.2621 74.1723 28.9361C74.1723 28.6101 74.0511 28.3515 73.8086 28.1844C73.5661 28.0174 73.2132 27.9339 72.7498 27.9339H71.0309V29.9518V29.9491ZM74.3582 31.404C74.3582 31.043 74.2424 30.7763 74.0107 30.6065C73.779 30.4368 73.4126 30.3506 72.9141 30.3506H71.0309V32.4386H72.8333C73.849 32.4386 74.3582 32.0938 74.3582 31.404Z" fill="#BDBDBD" stroke="#BDBDBD" stroke-width="0.269424" stroke-miterlimit="10"/>
<path d="M77.1198 32.549C76.713 32.3173 76.3951 31.994 76.1634 31.5817C75.9317 31.1695 75.8158 30.7034 75.8158 30.1834C75.8158 29.6634 75.9317 29.2 76.1634 28.7851C76.3951 28.3729 76.7157 28.0496 77.1198 27.8179C77.5266 27.5862 77.982 27.4703 78.4858 27.4703C78.9896 27.4703 79.4476 27.5862 79.8518 27.8179C80.2586 28.0496 80.5765 28.3729 80.8082 28.7851C81.0399 29.1973 81.1558 29.6634 81.1558 30.1834C81.1558 30.7034 81.0399 31.1668 80.8082 31.5817C80.5765 31.9967 80.2559 32.3173 79.8518 32.549C79.4449 32.7807 78.9896 32.8965 78.4858 32.8965C77.982 32.8965 77.5239 32.7807 77.1198 32.549ZM79.5877 32.1502C79.911 31.9589 80.167 31.6922 80.3556 31.3527C80.5442 31.0106 80.6358 30.6226 80.6358 30.1861C80.6358 29.7497 80.5415 29.3617 80.3556 29.0195C80.167 28.6774 79.911 28.4133 79.5877 28.222C79.2644 28.0307 78.898 27.9364 78.4885 27.9364C78.079 27.9364 77.7125 28.0307 77.3892 28.222C77.0659 28.4133 76.81 28.68 76.6214 29.0195C76.4328 29.3617 76.3412 29.7497 76.3412 30.1861C76.3412 30.6226 76.4355 31.0133 76.6214 31.3527C76.81 31.6949 77.0659 31.9589 77.3892 32.1502C77.7125 32.3415 78.0817 32.4358 78.4885 32.4358C78.8953 32.4358 79.2644 32.3415 79.5877 32.1502Z" fill="#BDBDBD" stroke="#BDBDBD" stroke-width="0.269424" stroke-miterlimit="10"/>
<path d="M87.1262 30.3074H82.5299C82.5434 30.725 82.6484 31.0941 82.8478 31.4174C83.0445 31.7407 83.3139 31.9913 83.6507 32.1691C83.9875 32.3469 84.37 32.4358 84.793 32.4358C85.1406 32.4358 85.4639 32.3738 85.7603 32.2472C86.0566 32.1206 86.3045 31.9347 86.5012 31.6895L86.7976 32.0263C86.5658 32.3065 86.2749 32.522 85.9219 32.6702C85.569 32.8184 85.1891 32.8965 84.7796 32.8965C84.2461 32.8965 83.7719 32.7807 83.357 32.549C82.9394 32.3173 82.6161 31.9967 82.379 31.5871C82.1419 31.1776 82.0261 30.7115 82.0261 30.1834C82.0261 29.6554 82.1365 29.2 82.3601 28.7851C82.5811 28.3729 82.8882 28.0496 83.2762 27.8179C83.6642 27.5862 84.1033 27.4703 84.5856 27.4703C85.0679 27.4703 85.5043 27.5835 85.8896 27.8125C86.2749 28.0415 86.5793 28.3594 86.8002 28.769C87.0212 29.1785 87.1316 29.6419 87.1316 30.1619L87.1209 30.3047L87.1262 30.3074ZM83.5726 28.1735C83.2708 28.3406 83.031 28.575 82.8505 28.8794C82.67 29.1839 82.5649 29.526 82.538 29.9086H86.6332C86.6116 29.526 86.5093 29.1839 86.3261 28.8848C86.1429 28.5858 85.9004 28.3487 85.5986 28.1789C85.2996 28.0092 84.9601 27.923 84.5856 27.923C84.2111 27.923 83.8716 28.0065 83.5726 28.1735Z" fill="#BDBDBD" stroke="#BDBDBD" stroke-width="0.269424" stroke-miterlimit="10"/>
<path d="M91.8977 32.5488C91.4882 32.3171 91.1676 31.9938 90.9359 31.5816C90.7042 31.1694 90.5883 30.7033 90.5883 30.1833C90.5883 29.6633 90.7042 29.1891 90.9359 28.7769C91.1676 28.3647 91.4882 28.0441 91.8977 27.8151C92.3072 27.5861 92.7706 27.4729 93.2906 27.4729C93.7217 27.4729 94.1124 27.5564 94.4626 27.7235C94.8129 27.8905 95.0985 28.1357 95.3167 28.4563L94.9368 28.7338C94.7455 28.4671 94.5084 28.2677 94.2255 28.1357C93.9426 28.0037 93.6301 27.9363 93.2879 27.9363C92.8703 27.9363 92.4985 28.0306 92.1671 28.2165C91.8357 28.4051 91.5771 28.6691 91.3885 29.0086C91.1999 29.3508 91.1083 29.7414 91.1083 30.186C91.1083 30.6305 91.2026 31.0212 91.3885 31.3634C91.5771 31.7055 91.8357 31.9696 92.1671 32.1555C92.4985 32.3441 92.873 32.4357 93.2879 32.4357C93.6301 32.4357 93.9426 32.3683 94.2255 32.2363C94.5084 32.1043 94.7455 31.9022 94.9368 31.6382L95.3167 31.9157C95.0985 32.2363 94.8129 32.4815 94.4626 32.6485C94.1124 32.8156 93.7217 32.8991 93.2906 32.8991C92.7706 32.8991 92.3072 32.7832 91.8977 32.5515V32.5488Z" fill="#BDBDBD" stroke="#BDBDBD" stroke-width="0.269424" stroke-miterlimit="10"/>
<path d="M101.069 27.5109V32.8562H100.557V27.9716H96.9117V32.8562H96.3998V27.5109H101.069Z" fill="#BDBDBD" stroke="#BDBDBD" stroke-width="0.269424" stroke-miterlimit="10"/>
<path d="M106.164 27.9769C106.519 28.3136 106.697 28.8121 106.697 29.4668V32.8561H106.207V31.9051C106.037 32.2203 105.786 32.4628 105.46 32.6379C105.132 32.813 104.741 32.8992 104.283 32.8992C103.69 32.8992 103.219 32.7591 102.877 32.4789C102.532 32.1987 102.359 31.8296 102.359 31.3743C102.359 30.919 102.518 30.5714 102.836 30.2939C103.154 30.0164 103.661 29.879 104.356 29.879H106.188V29.4479C106.188 28.9495 106.053 28.5723 105.784 28.3109C105.514 28.0523 105.121 27.923 104.601 27.923C104.245 27.923 103.906 27.9849 103.583 28.1062C103.259 28.2301 102.984 28.3918 102.758 28.5965L102.502 28.2274C102.769 27.9876 103.09 27.8017 103.464 27.6697C103.839 27.5377 104.232 27.4703 104.641 27.4703C105.304 27.4703 105.811 27.6401 106.166 27.9769H106.164ZM105.482 32.1691C105.792 31.9643 106.026 31.668 106.183 31.2773V30.275H104.361C103.836 30.275 103.456 30.372 103.219 30.5606C102.982 30.7492 102.866 31.0133 102.866 31.35C102.866 31.6868 102.995 31.9724 103.254 32.1745C103.513 32.3765 103.879 32.4762 104.35 32.4762C104.795 32.4762 105.172 32.3738 105.482 32.1691Z" fill="#BDBDBD" stroke="#BDBDBD" stroke-width="0.269424" stroke-miterlimit="10"/>
<path d="M109.219 32.5488C108.809 32.3171 108.489 31.9938 108.257 31.5816C108.025 31.1694 107.91 30.7033 107.91 30.1833C107.91 29.6633 108.025 29.1891 108.257 28.7769C108.489 28.3647 108.809 28.0441 109.219 27.8151C109.628 27.5861 110.092 27.4729 110.612 27.4729C111.043 27.4729 111.434 27.5564 111.784 27.7235C112.134 27.8905 112.42 28.1357 112.638 28.4563L112.258 28.7338C112.067 28.4671 111.83 28.2677 111.547 28.1357C111.264 28.0037 110.951 27.9363 110.609 27.9363C110.192 27.9363 109.82 28.0306 109.488 28.2165C109.157 28.4051 108.898 28.6691 108.71 29.0086C108.521 29.3508 108.43 29.7414 108.43 30.186C108.43 30.6305 108.524 31.0212 108.71 31.3634C108.898 31.7055 109.157 31.9696 109.488 32.1555C109.82 32.3441 110.194 32.4357 110.609 32.4357C110.951 32.4357 111.264 32.3683 111.547 32.2363C111.83 32.1043 112.067 31.9022 112.258 31.6382L112.638 31.9157C112.42 32.2363 112.134 32.4815 111.784 32.6485C111.434 32.8156 111.043 32.8991 110.612 32.8991C110.092 32.8991 109.628 32.7832 109.219 32.5515V32.5488Z" fill="#BDBDBD" stroke="#BDBDBD" stroke-width="0.269424" stroke-miterlimit="10"/>
<path d="M113.721 27.5109H114.233V32.0668L118.043 27.5109H118.492V32.8562H117.981V28.3003L114.171 32.8562H113.721V27.5109Z" fill="#BDBDBD" stroke="#BDBDBD" stroke-width="0.269424" stroke-miterlimit="10"/>
<path d="M124.115 27.9254C124.501 28.1464 124.802 28.4562 125.021 28.8523C125.239 29.2483 125.349 29.7063 125.349 30.2236C125.349 30.7409 125.239 31.2043 125.018 31.6112C124.797 32.018 124.485 32.3359 124.086 32.5622C123.687 32.7912 123.232 32.9044 122.72 32.9044C122.132 32.9044 121.631 32.7616 121.219 32.4733C120.807 32.1877 120.492 31.7809 120.276 31.2555C120.061 30.7301 119.953 30.1159 119.953 29.4127C119.953 28.6152 120.05 27.9524 120.244 27.427C120.438 26.9016 120.731 26.4867 121.125 26.1823C121.518 25.8778 122.022 25.6515 122.636 25.5006L125.002 24.9268L125.083 25.409L122.83 25.9425C122.278 26.0718 121.828 26.2631 121.483 26.511C121.138 26.7615 120.88 27.101 120.71 27.5294C120.54 27.9605 120.451 28.5074 120.443 29.1783C120.621 28.6879 120.917 28.2999 121.335 28.017C121.75 27.7342 122.235 27.5914 122.79 27.5914C123.288 27.5914 123.73 27.7018 124.115 27.9254ZM123.814 32.1796C124.134 31.9884 124.385 31.7243 124.56 31.3848C124.738 31.0481 124.827 30.6628 124.827 30.2317C124.827 29.8006 124.738 29.4207 124.56 29.0894C124.382 28.758 124.134 28.502 123.819 28.3215C123.501 28.141 123.137 28.0494 122.728 28.0494C122.318 28.0494 121.952 28.141 121.631 28.3215C121.311 28.502 121.06 28.758 120.885 29.0894C120.707 29.4207 120.618 29.8006 120.618 30.2317C120.618 30.6628 120.707 31.0454 120.885 31.3848C121.063 31.7216 121.311 31.9884 121.631 32.1796C121.952 32.3709 122.318 32.4652 122.728 32.4652C123.137 32.4652 123.493 32.3682 123.814 32.1796Z" fill="#BDBDBD" stroke="#BDBDBD" stroke-width="0.269424" stroke-miterlimit="10"/>
<path d="M127.529 32.549C127.122 32.3173 126.804 31.994 126.573 31.5817C126.341 31.1695 126.225 30.7034 126.225 30.1834C126.225 29.6634 126.341 29.2 126.573 28.7851C126.804 28.3729 127.125 28.0496 127.529 27.8179C127.936 27.5862 128.391 27.4703 128.895 27.4703C129.399 27.4703 129.857 27.5862 130.261 27.8179C130.668 28.0496 130.986 28.3729 131.217 28.7851C131.449 29.1973 131.565 29.6634 131.565 30.1834C131.565 30.7034 131.449 31.1668 131.217 31.5817C130.986 31.9967 130.665 32.3173 130.261 32.549C129.854 32.7807 129.399 32.8965 128.895 32.8965C128.391 32.8965 127.933 32.7807 127.529 32.549ZM129.997 32.1502C130.32 31.9589 130.576 31.6922 130.765 31.3527C130.953 31.0106 131.045 30.6226 131.045 30.1861C131.045 29.7497 130.951 29.3617 130.765 29.0195C130.576 28.6774 130.32 28.4133 129.997 28.222C129.674 28.0307 129.307 27.9364 128.898 27.9364C128.488 27.9364 128.122 28.0307 127.798 28.222C127.475 28.4133 127.219 28.68 127.031 29.0195C126.842 29.3617 126.75 29.7497 126.75 30.1861C126.75 30.6226 126.845 31.0133 127.031 31.3527C127.219 31.6949 127.475 31.9589 127.798 32.1502C128.122 32.3415 128.491 32.4358 128.898 32.4358C129.304 32.4358 129.674 32.3415 129.997 32.1502Z" fill="#BDBDBD" stroke="#BDBDBD" stroke-width="0.269424" stroke-miterlimit="10"/>
<path d="M15.7775 31.5549C24.4911 31.5549 31.5549 24.4911 31.5549 15.7775C31.5549 7.06381 24.4911 0 15.7775 0C7.06381 0 0 7.06381 0 15.7775C0 24.4911 7.06381 31.5549 15.7775 31.5549Z" fill="#E84F1E"/>
<path d="M12.1887 13.5679L13.1263 11.822C13.6975 10.7578 13.3903 9.48612 12.2938 8.89608C10.7958 8.0932 9.30587 9.3541 9.30587 9.3541C7.59503 10.8979 6.51733 13.1314 6.51733 15.6182C6.51733 20.2738 10.2947 23.841 14.9449 24.0458C21.4865 24.3341 25.7677 19.118 25.7677 19.118" stroke="white" stroke-width="2.46792" stroke-linecap="square" stroke-linejoin="round"/>
<path d="M17.2808 14.5999L18.2184 12.854C18.7896 11.7898 18.4824 10.5181 17.3859 9.92807C15.8879 9.12518 14.398 10.3861 14.398 10.3861C13.4334 11.2536 12.8192 12.4283 12.1914 13.5707" stroke="white" stroke-width="2.46792" stroke-linecap="square" stroke-linejoin="round"/>
<path d="M22.3729 15.6289L23.3105 13.8831C23.8817 12.8188 23.5746 11.5472 22.478 10.9571C20.98 10.1542 19.4901 11.4151 19.4901 11.4151C18.5256 12.2827 17.8655 13.4035 17.2835 14.5997" stroke="white" stroke-width="2.46792" stroke-linecap="square" stroke-linejoin="round"/>
<path d="M44.8294 9.86357H40.33V21.3087H37.8271V9.86357H33.3466V7.72974H44.8294V9.86357Z" fill="#1F1F1F"/>
<path d="M47.2569 7.72974H49.741V17.3697L57.0343 7.72974H59.381V21.3087H56.8996V11.6876L49.6063 21.3087H47.2596V7.72974H47.2569Z" fill="#1F1F1F"/>
<path d="M75.7269 21.3087L75.708 12.3072L71.2464 19.7568H70.1202L65.6585 12.4231V21.3087H63.2714V7.72974H65.346L70.7183 16.7123L76.034 7.72974H78.0897L78.1274 21.3087H75.7215H75.7269Z" fill="#1F1F1F"/>
<path d="M95.7343 18.7303C94.4923 19.7649 92.7276 20.328 90.4375 20.4169V21.853H88.1096V20.4169C85.8195 20.3011 84.0521 19.7326 82.8047 18.7088C81.5572 17.6877 80.9322 16.284 80.9322 14.5004C80.9322 12.7168 81.5572 11.3104 82.8047 10.2812C84.0521 9.25202 85.8222 8.68084 88.1096 8.56499V7.18823H90.4375V8.56499C92.7276 8.68084 94.4923 9.25471 95.7343 10.2812C96.9764 11.3104 97.596 12.7168 97.596 14.5004C97.596 16.284 96.9764 17.6958 95.7343 18.7303ZM84.6098 17.2566C85.4181 17.9167 86.5847 18.31 88.1123 18.4394V10.5641C84.9708 10.7958 83.3974 12.1106 83.3974 14.5031C83.3974 15.6805 83.8016 16.5992 84.6098 17.2566ZM93.9696 17.2674C94.7725 16.6019 95.1712 15.6724 95.1712 14.4842C95.1712 13.2961 94.7671 12.3692 93.9588 11.7092C93.1505 11.0491 91.9759 10.6692 90.4375 10.5641V18.4394C91.9893 18.3235 93.1667 17.9328 93.9669 17.2647L93.9696 17.2674Z" fill="#1F1F1F"/>
<path d="M103.351 20.6028C102.238 20.002 101.365 19.1668 100.732 18.0999C100.099 17.0329 99.7811 15.8394 99.7811 14.5219C99.7811 13.2044 100.099 12.0109 100.732 10.944C101.365 9.87705 102.238 9.04184 103.351 8.44102C104.464 7.84021 105.711 7.53845 107.093 7.53845C108.475 7.53845 109.725 7.84021 110.838 8.44102C111.951 9.04184 112.824 9.87436 113.457 10.9332C114.09 11.9947 114.408 13.191 114.408 14.5219C114.408 15.8529 114.09 17.0491 113.457 18.1106C112.824 19.1722 111.951 20.002 110.838 20.6028C109.725 21.2036 108.478 21.5054 107.093 21.5054C105.708 21.5054 104.461 21.2036 103.351 20.6028ZM109.54 18.6818C110.264 18.275 110.833 17.7065 111.248 16.9737C111.663 16.2435 111.867 15.4245 111.867 14.5192C111.867 13.614 111.66 12.7949 111.248 12.0648C110.833 11.3346 110.264 10.7661 109.54 10.3566C108.815 9.94979 108.001 9.74503 107.096 9.74503C106.191 9.74503 105.377 9.94979 104.652 10.3566C103.927 10.7635 103.359 11.3319 102.944 12.0648C102.529 12.7949 102.324 13.614 102.324 14.5192C102.324 15.4245 102.532 16.2435 102.944 16.9737C103.359 17.7038 103.927 18.2723 104.652 18.6818C105.377 19.0886 106.191 19.2934 107.096 19.2934C108.001 19.2934 108.815 19.0886 109.54 18.6818Z" fill="#1F1F1F"/>
<path d="M126.061 8.31169C126.934 8.69966 127.602 9.25467 128.068 9.97942C128.534 10.7042 128.766 11.5636 128.766 12.5605C128.766 13.5574 128.534 14.4007 128.068 15.1308C127.602 15.8609 126.934 16.4213 126.061 16.8093C125.188 17.1973 124.164 17.3913 122.986 17.3913H119.92V21.3087H117.399V7.72974H122.986C124.164 7.72974 125.188 7.92372 126.061 8.31169ZM125.371 14.5569C125.939 14.0908 126.225 13.4254 126.225 12.5578C126.225 11.6903 125.939 11.0248 125.371 10.5587C124.802 10.0926 123.967 9.86088 122.868 9.86088H119.918V15.2547H122.868C123.967 15.2547 124.8 15.023 125.371 14.5569Z" fill="#1F1F1F"/>
<path d="M134.424 20.6028C133.316 20.002 132.451 19.1695 131.824 18.1106C131.196 17.0491 130.883 15.8529 130.883 14.5219C130.883 13.191 131.201 11.9947 131.834 10.9332C132.468 9.87166 133.338 9.04184 134.445 8.44102C135.55 7.84021 136.789 7.53845 138.16 7.53845C139.273 7.53845 140.286 7.73244 141.205 8.12041C142.124 8.50838 142.9 9.07147 143.533 9.807L141.903 11.34C140.919 10.2785 139.71 9.75042 138.276 9.75042C137.344 9.75042 136.512 9.95518 135.773 10.362C135.035 10.7688 134.461 11.3346 134.046 12.0594C133.631 12.7841 133.427 13.6059 133.427 14.5219C133.427 15.438 133.634 16.2624 134.046 16.9844C134.461 17.7092 135.035 18.275 135.773 18.6818C136.512 19.0886 137.344 19.2934 138.276 19.2934C139.712 19.2934 140.922 18.7573 141.903 17.6823L143.533 19.2341C142.9 19.9724 142.121 20.5328 141.194 20.9207C140.27 21.3087 139.252 21.5027 138.139 21.5027C136.768 21.5027 135.531 21.2009 134.424 20.6001V20.6028Z" fill="#1F1F1F"/>
<path d="M150.085 8.67244C150.487 9.07119 150.686 9.56693 150.686 10.165C150.686 10.615 150.565 11.0218 150.32 11.3909C150.074 11.76 149.708 12.051 149.215 12.2692C148.722 12.4875 148.124 12.5953 147.415 12.5953C146.825 12.5953 146.257 12.5171 145.71 12.3582C145.163 12.1992 144.697 11.981 144.311 11.7008L144.971 10.5854C145.271 10.8224 145.634 11.0083 146.063 11.1431C146.491 11.2805 146.936 11.3478 147.391 11.3478C147.935 11.3478 148.361 11.2427 148.671 11.0326C148.981 10.8224 149.137 10.5369 149.137 10.1758C149.137 9.8148 148.989 9.5346 148.695 9.32984C148.401 9.12777 147.949 9.02539 147.342 9.02539H146.588V8.04199L148.466 5.95396H144.71V4.74963H150.341V5.71148L148.334 7.9423C149.096 8.03121 149.681 8.27369 150.082 8.67244H150.085Z" fill="#E84F1E"/>
<path d="M156.91 8.0045C157.343 8.19848 157.68 8.47868 157.925 8.83971C158.171 9.20074 158.292 9.61565 158.292 10.0871C158.292 10.5883 158.157 11.0274 157.89 11.4073C157.624 11.7872 157.26 12.0782 156.805 12.2856C156.347 12.4904 155.837 12.5955 155.269 12.5955C154.135 12.5955 153.256 12.2641 152.631 11.6013C152.006 10.9385 151.694 9.98746 151.694 8.7508C151.694 7.88326 151.863 7.13965 152.2 6.52536C152.54 5.91108 153.014 5.44228 153.623 5.12166C154.232 4.80105 154.94 4.64209 155.743 4.64209C156.169 4.64209 156.567 4.6852 156.942 4.76872C157.316 4.85224 157.64 4.97618 157.915 5.13783L157.349 6.22091C156.939 5.97035 156.417 5.84641 155.778 5.84641C154.983 5.84641 154.361 6.07542 153.914 6.53075C153.464 6.98877 153.24 7.64616 153.24 8.50832V8.5191C153.485 8.25506 153.795 8.05299 154.172 7.91559C154.549 7.78088 154.975 7.71083 155.447 7.71083C155.991 7.71083 156.479 7.80782 156.91 8.0045ZM156.355 11.1083C156.654 10.8685 156.805 10.5506 156.805 10.1518C156.805 9.75306 156.654 9.42705 156.355 9.18996C156.056 8.95556 155.654 8.83702 155.15 8.83702C154.646 8.83702 154.25 8.96095 153.941 9.21151C153.631 9.46208 153.474 9.78 153.474 10.1626C153.474 10.5452 153.625 10.8496 153.93 11.0948C154.232 11.3427 154.652 11.4639 155.188 11.4639C155.668 11.4639 156.058 11.3454 156.357 11.1056L156.355 11.1083Z" fill="#E84F1E"/>
<path d="M160.77 12.1239C160.25 11.8113 159.841 11.3533 159.542 10.7552C159.243 10.1571 159.092 9.44309 159.092 8.61865C159.092 7.79422 159.24 7.08024 159.542 6.48212C159.841 5.88131 160.25 5.42598 160.77 5.11345C161.29 4.80092 161.881 4.64465 162.541 4.64465C163.201 4.64465 163.793 4.80092 164.316 5.11345C164.839 5.42598 165.251 5.884 165.55 6.48212C165.849 7.08294 166 7.79422 166 8.61865C166 9.44309 165.849 10.1571 165.55 10.7552C165.251 11.356 164.839 11.8113 164.316 12.1239C163.793 12.4364 163.201 12.5927 162.541 12.5927C161.881 12.5927 161.288 12.4364 160.77 12.1239ZM163.942 10.6609C164.284 10.2056 164.456 9.52392 164.456 8.61865C164.456 7.71339 164.284 7.03175 163.942 6.57642C163.599 6.1211 163.133 5.89209 162.543 5.89209C161.953 5.89209 161.498 6.1211 161.156 6.57642C160.814 7.03444 160.641 7.71339 160.641 8.61865C160.641 9.52392 160.814 10.2056 161.156 10.6609C161.498 11.1189 161.961 11.3452 162.543 11.3452C163.125 11.3452 163.599 11.1162 163.942 10.6609Z" fill="#E84F1E"/>
</g>
<defs>
<clipPath id="clip0_13891_61236">
<rect width="166" height="34.9766" fill="white"/>
</clipPath>
</defs>
</svg>
