<svg width="176" height="176" viewBox="0 0 176 176" fill="none" xmlns="http://www.w3.org/2000/svg">
<path d="M85.3016 62.8179C87.6776 63.0097 90.1733 63.7788 91.6473 65.7659C92.9603 67.4634 93.3862 69.6731 93.6423 71.7991C93.6731 65.9982 93.4531 61.3157 93.0571 55.3185C92.9391 53.5233 92.5449 51.2811 90.8782 50.7038C90.3612 50.5776 89.8196 50.5945 89.3114 50.7526C88.8032 50.9107 88.3477 51.2041 87.9935 51.6014C87.4218 52.244 86.9665 52.9813 86.648 53.7803C87.2244 51.9859 86.0074 49.6144 84.1479 49.3583C82.3536 49.104 80.6869 51.025 80.6869 52.8879C79.7603 47.8825 76.1303 47.9714 74.5339 52.7595C72.7986 58.2779 72.9816 66.2543 74.4459 71.991C75.5917 65.2616 78.6356 62.392 85.3016 62.8179ZM75.3717 135.775C77.1845 136.048 78.9155 136.345 80.1747 136.59C79.894 137.244 79.2877 140.328 79.0844 141.141C76.4154 140.759 75.5213 141.017 67.9964 138.32C67.0082 137.968 65.5791 137.488 65.4664 136.345C50.3132 137.48 35.2638 139.725 20.4395 143.063C43.0643 151.459 66.9035 159.022 90.5579 164.021C112.542 153.254 130.808 146.524 155.164 143.511C129.055 137.239 102.199 134.635 75.3717 135.775Z" fill="#F0B211"/>
<path d="M37.1676 77.3027C35.7878 78.745 34.4757 80.3158 33.1302 81.7907C33.1049 81.816 33.0849 81.8459 33.0712 81.8789C33.0576 81.9119 33.0505 81.9473 33.0505 81.983C33.0505 82.0187 33.0576 82.0541 33.0712 82.087C33.0849 82.12 33.1049 82.15 33.1302 82.1753C33.1554 82.2005 33.1854 82.2205 33.2184 82.2342C33.2514 82.2479 33.2868 82.2549 33.3225 82.2549C33.3582 82.2549 33.3935 82.2479 33.4265 82.2342C33.4595 82.2205 33.4895 82.2005 33.5147 82.1753C34.8603 80.7013 36.2067 79.163 37.5522 77.6873C37.6032 77.6363 37.6318 77.5671 37.6318 77.495C37.6318 77.4229 37.6032 77.3537 37.5522 77.3027C37.5012 77.2517 37.432 77.2231 37.3599 77.2231C37.2878 77.2231 37.2186 77.2517 37.1676 77.3027ZM36.1424 75.2514C34.2196 75.0596 32.2968 74.8035 30.374 74.6108C30.0537 74.5465 30.0537 75.1247 30.374 75.1881C32.2968 75.3799 34.2196 75.6369 36.1424 75.8287C36.4627 75.8287 36.4627 75.2514 36.1424 75.2514ZM34.4079 68.8424C34.2117 68.5898 33.8315 68.9709 34.0234 69.2278C35.3055 70.8937 36.5877 72.4961 37.869 74.1629C38.0617 74.4189 38.4463 74.0344 38.2536 73.7774C36.9758 72.1116 35.669 70.4642 34.4079 68.8424ZM53.8454 105.645C53.7789 105.615 53.7104 105.589 53.6404 105.568C45.7617 103.818 46.0187 96.653 46.9101 88.7761C47.505 83.8217 47.71 83.072 47.4232 83.072C47.4266 83.0374 47.4223 83.0025 47.4106 82.9697C47.3989 82.937 47.3801 82.9073 47.3555 82.8827C47.3309 82.8581 47.3012 82.8393 47.2684 82.8276C47.2357 82.8159 47.2008 82.8116 47.1662 82.815C45.8417 83.0666 44.4714 82.8871 43.2563 82.3029C41.8721 81.5109 41.4743 79.8389 42.0393 79.4869C42.6157 79.1665 43.193 79.999 43.5775 80.256C43.8232 80.4437 44.1044 80.5798 44.404 80.6558C44.7037 80.7319 45.0157 80.7465 45.3212 80.6986C45.6267 80.6507 45.9193 80.5414 46.1813 80.3773C46.4434 80.2132 46.6694 79.9977 46.8459 79.7438C47.0748 79.3631 47.1771 78.9195 47.1381 78.477C47.0991 78.0344 46.9208 77.6156 46.6288 77.2808C46.3368 76.946 45.9461 76.7123 45.513 76.6135C45.0799 76.5147 44.6265 76.5557 44.2182 76.7307C43.9482 76.856 43.6907 77.0065 43.4491 77.1804C43.2303 77.3909 42.9949 77.5834 42.7451 77.7559C42.6267 77.8297 42.4929 77.8751 42.3541 77.8886C42.2153 77.9021 42.0752 77.8834 41.9448 77.8338C41.8145 77.7842 41.6974 77.7051 41.6026 77.6028C41.5079 77.5004 41.4381 77.3775 41.3987 77.2437C41.3159 76.9458 41.3078 76.6321 41.3748 76.3302C41.4419 76.0284 41.5821 75.7477 41.7832 75.5128C42.4258 74.7222 43.3395 74.199 44.3465 74.045C45.3535 73.891 46.3818 74.1171 47.2313 74.6794C47.6374 75.2678 48.135 75.7874 48.7053 76.2185C48.9623 76.4104 49.2184 76.0901 49.0899 75.8331C48.7191 75.2173 48.2155 74.6921 47.6159 74.2957C46.8417 73.161 46.4181 71.8237 46.3979 70.4501C46.372 70.2702 46.3938 70.0865 46.4614 69.9177C46.5289 69.7489 46.6396 69.6008 46.7825 69.4883C46.9247 69.4195 47.0824 69.3892 47.2399 69.4005C47.3974 69.4118 47.5492 69.4642 47.6801 69.5525C48.2345 69.923 48.9227 71.7525 49.1541 72.3685C49.5246 73.4731 50.138 74.4804 50.9493 75.3165C50.9972 75.3592 51.0582 75.3843 51.1223 75.3876C51.1863 75.391 51.2496 75.3725 51.3018 75.3351C51.3539 75.2977 51.3917 75.2437 51.4091 75.182C51.4264 75.1202 51.4223 75.0544 51.3972 74.9953C50.6615 73.4193 51.5072 69.4839 52.2306 69.4839C52.3231 69.4721 52.4168 69.4907 52.4978 69.5369C52.5788 69.5831 52.6425 69.6544 52.6794 69.74C52.7645 70.0312 52.7864 70.3372 52.7436 70.6376C52.7436 79.024 52.0766 81.7775 51.9745 85.9557C51.9111 86.9114 52.0493 92.2037 52.1663 92.5557C52.462 95.3568 53.0824 97.4987 55.6274 98.7721C55.9486 98.8997 56.2047 98.4517 55.8844 98.3233C52.3476 96.5545 52.6829 92.4343 52.4876 88.5165C52.301 85.5439 53.687 74.8396 53.32 70.4422C53.363 70.1863 53.3315 69.9234 53.2293 69.6849C53.1271 69.4463 52.9585 69.2422 52.7436 69.0967C51.3972 68.4552 50.9493 70.6349 50.8208 71.5317C50.6296 72.3721 50.5647 73.2364 50.6281 74.096C49.448 72.2401 48.9561 69.52 47.8121 69.0325C47.6274 68.964 47.4305 68.9349 47.234 68.947C47.0374 68.959 46.8455 69.0119 46.6706 69.1024C46.4956 69.1928 46.3415 69.3188 46.218 69.4722C46.0946 69.6257 46.0045 69.8032 45.9536 69.9934C45.8798 70.5486 45.9012 71.1122 46.0169 71.6601C46.0984 72.2318 46.2491 72.7915 46.4657 73.3269C46.5334 73.5578 46.6419 73.7748 46.786 73.9675C43.6972 72.7355 40.5116 75.1458 40.8258 77.2367C40.8735 77.5109 40.9855 77.77 41.1525 77.9927C41.3195 78.2153 41.5369 78.3954 41.7868 78.518C42.0421 78.6198 42.3204 78.6497 42.5916 78.6046C42.8628 78.5595 43.1164 78.4409 43.325 78.2619C43.9023 77.8131 44.3511 77.3001 45.1202 77.3001C45.3403 77.2963 45.5587 77.3399 45.7606 77.4279C45.9624 77.516 46.1429 77.6464 46.2898 77.8104C46.4367 77.9744 46.5466 78.1681 46.6121 78.3783C46.6776 78.5886 46.697 78.8104 46.6691 79.0289C46.6412 79.2473 46.5667 79.4571 46.4505 79.6442C46.3344 79.8312 46.1793 79.9911 45.9959 80.1129C45.8125 80.2348 45.605 80.3157 45.3876 80.3503C45.1701 80.3848 44.9478 80.3722 44.7356 80.3132C44.1054 80.0792 43.5358 79.7065 43.0689 79.2229C42.8413 79.0852 42.5759 79.0234 42.3109 79.0465C42.046 79.0696 41.7952 79.1764 41.5949 79.3513C40.7149 80.3537 41.8483 84.1913 46.9787 83.5173C46.4331 90.8811 42.5409 104.253 53.6448 106.335C54.0056 106.392 54.0795 105.851 53.8454 105.645ZM91.1345 105.441C90.222 103.159 86.5647 92.4299 86.3279 90.0583C86.3314 90.0237 86.3271 89.9888 86.3154 89.9561C86.3037 89.9233 86.2849 89.8936 86.2603 89.869C86.2357 89.8444 86.206 89.8256 86.1732 89.8139C86.1405 89.8022 86.1056 89.7979 86.071 89.8013C86.0379 89.7832 86.0006 89.7741 85.9629 89.7748C85.9252 89.7756 85.8883 89.7862 85.8559 89.8056C85.8235 89.825 85.7968 89.8525 85.7783 89.8854C85.7599 89.9183 85.7503 89.9555 85.7507 89.9932C84.3919 93.3873 82.2676 105.6 82.0336 106.656C82.0336 106.967 81.898 106.673 84.2767 108.836C85.5697 109.954 86.6734 111.274 87.545 112.745C87.5771 112.786 87.6192 112.818 87.6673 112.837C87.7154 112.857 87.7678 112.864 87.8194 112.858C87.871 112.851 87.9201 112.832 87.9619 112.801C88.0037 112.77 88.0368 112.729 88.058 112.681C88.7665 110.542 89.6657 108.47 90.7447 106.491C91.014 105.996 91.1987 105.696 91.1345 105.441ZM79.3416 72.2401C79.3465 72.3806 79.3166 72.5202 79.2547 72.6465C79.1929 72.7728 79.1009 72.8819 78.9869 72.9642C78.8729 73.0466 78.7404 73.0996 78.6011 73.1187C78.4617 73.1377 78.3199 73.1222 78.1879 73.0734C77.9713 72.9664 77.8039 72.7803 77.7204 72.5536C77.6369 72.3268 77.6436 72.0766 77.7391 71.8546C77.931 71.5343 77.4188 71.2782 77.2904 71.5994C77.1844 71.7861 77.1236 71.995 77.1129 72.2093C77.1022 72.4237 77.1419 72.6376 77.2287 72.8339C77.3156 73.0301 77.4473 73.2033 77.6132 73.3395C77.7791 73.4757 77.9746 73.5711 78.184 73.6181C78.3935 73.6651 78.611 73.6624 78.8192 73.6102C79.0274 73.5579 79.2204 73.4576 79.3828 73.3173C79.5453 73.177 79.6726 73.0006 79.7545 72.8022C79.8364 72.6038 79.8707 72.389 79.8547 72.1749C79.8547 71.8546 79.3416 71.8546 79.3416 72.2401ZM90.9427 71.5343C90.8195 71.2122 90.3012 71.3425 90.4296 71.6628C90.5581 72.0473 90.75 73.1368 89.9808 72.8165C89.532 72.6237 89.4044 71.9831 89.1475 71.6628C88.9556 71.4067 88.5711 71.7913 88.7629 72.0473C89.2117 72.5604 89.4044 73.4553 90.2378 73.3929C91.1987 73.3295 91.2102 72.2357 90.9427 71.5343ZM87.3532 76.2133C87.0745 76.6748 86.6827 77.0576 86.2148 77.3254C85.7469 77.5933 85.2184 77.7372 84.6793 77.7438C84.1403 77.7503 83.6084 77.6191 83.1342 77.3627C82.66 77.1063 82.259 76.7331 81.9693 76.2784C81.7775 75.9572 81.3287 76.2784 81.5205 76.5336C81.8428 77.0798 82.3021 77.5326 82.8529 77.8471C83.4037 78.1616 84.027 78.3271 84.6612 78.3271C85.2955 78.3271 85.9188 78.1616 86.4696 77.8471C87.0204 77.5326 87.4796 77.0798 87.802 76.5336C87.8387 76.4739 87.8515 76.4026 87.8376 76.3339C87.8237 76.2652 87.7843 76.2044 87.7273 76.1637C87.6702 76.123 87.5999 76.1054 87.5304 76.1146C87.461 76.1239 87.3976 76.1591 87.3532 76.2133ZM79.3416 68.0741C79.662 68.009 79.5335 67.4969 79.2132 67.5602C78.178 67.7738 77.2492 68.3402 76.5855 69.1627C76.3927 69.4197 76.7773 69.8033 76.97 69.5481C77.5504 68.7797 78.3957 68.2544 79.3416 68.0741ZM90.8784 68.7148C90.1261 68.1457 89.1912 67.8721 88.2508 67.9457C87.9304 67.9457 87.9304 68.5221 88.2508 68.5221C89.1014 68.466 89.944 68.7157 90.6268 69.2261C90.8784 69.4197 91.1345 68.904 90.8784 68.7148Z" fill="black"/>
<path d="M115.555 113.068C114.751 111.491 114.272 109.769 114.147 108.004C114.339 107.812 114.083 107.492 113.89 107.555C113.76 107.555 111.136 110.019 110.622 110.503C106.765 104.664 102.457 99.135 97.7384 93.9673C95.8977 91.9207 93.7565 90.1659 91.3883 88.763C91.3329 86.2708 91.3883 83.835 91.3294 81.3411C91.4543 81.3411 94.0442 80.3731 94.4226 76.3462C94.655 76.5894 94.949 76.7651 95.2733 76.8546C95.5976 76.9442 95.9401 76.9442 96.2644 76.8548C97.8669 76.4703 97.8026 73.9702 97.8669 72.6889C97.8026 71.5986 97.8026 69.3555 96.3286 68.7791C96.2644 68.7791 96.2002 68.7148 96.1359 68.7148C95.7249 66.8878 94.8661 65.1916 93.6367 63.7789C91.9683 61.9019 89.8302 60.5029 87.4422 59.7258C85.0541 58.9486 82.5022 58.8213 80.0486 59.3569C75.1391 60.4789 72.0362 63.5079 71.5883 68.5863C70.1882 69.1143 69.9858 70.8805 69.9858 72.3703C69.9191 73.4121 70.0496 74.457 70.3704 75.4503C70.4306 75.7007 70.5405 75.9365 70.6934 76.1436C70.8464 76.3508 71.0393 76.5252 71.2608 76.6565C71.4824 76.7877 71.728 76.8732 71.9832 76.9079C72.2383 76.9426 72.4979 76.9257 72.7464 76.8583C72.9987 76.792 73.232 76.6675 73.4276 76.4948C73.6232 76.3221 73.7757 76.1061 73.8728 75.8639C74.5099 78.1343 76.3958 80.234 79.54 81.2803C79.7318 83.8948 79.7961 86.3553 79.9862 88.9689C78.2003 89.9755 76.6325 91.3273 75.3741 92.9456C70.8025 95.5372 61.7429 99.8976 56.7225 98.3937C56.7225 98.2019 56.5306 98.1367 56.4022 98.1367C56.376 98.133 56.3494 98.1355 56.3244 98.1439C56.2993 98.1523 56.2766 98.1664 56.258 98.1851C56.2394 98.2038 56.2254 98.2266 56.2171 98.2516C56.2088 98.2767 56.2065 98.3033 56.2103 98.3295C54.5775 103.517 53.7139 108.915 53.6469 114.352C53.6512 114.419 53.6795 114.482 53.7266 114.529C53.7737 114.576 53.8364 114.605 53.903 114.609H58.325C58.4534 114.609 58.6453 114.481 58.5819 114.352C58.325 111.917 58.0046 109.482 57.7486 107.049C62.1292 107.521 66.5592 107.196 70.8236 106.088C70.5675 108.522 70.439 111.023 70.2472 113.522C69.5634 124.447 69.4473 123.091 69.2854 124.867V124.995C69.2854 125.123 69.4138 125.251 69.5414 125.187C72.9541 125.187 57.1088 124.985 103.191 124.611C103.257 124.606 103.32 124.577 103.367 124.53C103.414 124.483 103.442 124.42 103.447 124.354C103.447 122.303 103.255 120.252 103.062 118.201C107.165 116.598 111.202 114.997 115.304 113.394C115.555 113.452 115.682 113.261 115.555 113.068ZM72.1603 68.4579C72.2775 66.6257 72.9234 64.8669 74.0198 63.3943C79.3402 56.8331 92.8456 58.7013 95.5551 68.5221C95.1511 68.5478 94.7659 68.702 94.4559 68.9623C94.1459 69.2226 93.9273 69.5753 93.8321 69.9688C93.617 67.8902 92.6852 65.9512 91.1965 64.4847C88.6638 62.2116 84.3166 61.7901 80.9418 62.561C79.2737 62.9364 77.7691 63.8348 76.6474 65.1253C75.3631 66.7427 74.5259 68.669 74.2195 70.7115C74.0083 69.4866 73.4064 68.4579 72.1603 68.4579ZM78.506 80.315C75.8739 79.1191 74.3234 76.883 74.1403 74.9927C74.2792 74.2064 74.3461 73.4091 74.3401 72.6106C74.5821 70.5294 75.2125 68.5122 76.1986 66.6635C78.1778 63.3644 81.4443 62.5689 85.2996 62.8179C87.6756 63.0098 90.1713 63.7789 91.6453 65.7659C92.7469 67.4113 93.4031 69.3142 93.5496 71.2888C93.3969 72.6918 93.5164 74.1111 93.9016 75.4688C93.8462 80.3968 91.0152 81.6684 86.265 81.5338C83.7006 81.4695 80.8802 81.4695 78.5086 80.315H78.506ZM80.1085 81.4695C81.3466 81.7913 82.6147 81.9844 83.8925 82.0459C86.0467 82.1489 88.721 82.3214 90.7503 81.5971C90.8119 83.93 90.7556 86.1212 90.8075 88.4418C89.2077 87.635 87.4341 87.2339 85.6428 87.2738C83.8516 87.3137 82.0976 87.7934 80.5353 88.6706C80.3619 86.2312 80.295 83.9212 80.1111 81.4695H80.1085ZM58.127 114.093H54.2814C54.1758 107.317 56.1945 101.327 56.4602 99.8642C57.0375 104.607 57.5523 109.35 58.127 114.093ZM57.8709 106.53C57.5919 106.53 57.8814 107.115 56.8448 99.0308C61.4736 100.456 70.4901 96.4102 74.663 94.0324C72.6118 97.1723 71.5962 100.966 70.9459 104.607C70.8878 104.929 70.8817 105.249 70.8174 105.569C67.2006 106.773 61.6276 106.925 57.8709 106.53ZM69.9198 124.732C71.774 112.04 69.4798 98.3321 77.9956 91.0835C82.5074 87.2555 88.5486 86.5419 92.9943 90.5705C96.8003 94.021 98.9018 100.21 100.237 105.184C101.208 108.66 101.924 112.203 102.378 115.784C102.685 118.029 102.869 120.289 102.929 122.554C102.94 123.065 102.992 123.578 102.992 124.157C102.399 124.193 71.6464 124.646 69.9198 124.732ZM98.7618 98.7721C97.8912 96.4743 96.7279 94.2983 95.3008 92.2979C95.9423 92.8752 96.5187 93.5159 97.096 94.0931C101.579 98.6639 106.564 105.497 110.171 110.821C107.795 113.001 105.492 115.244 103.056 117.487C102.285 111.333 100.895 104.241 98.7618 98.7747V98.7721ZM104.272 117.128C107.476 114.18 110.363 111.401 113.632 108.516C113.681 109.982 114.047 111.419 114.705 112.73C111.115 114.14 107.924 115.72 104.272 117.128ZM20.1198 144.73C18.1625 145.299 16.3037 146.163 14.6074 147.294C14.3505 147.485 14.6074 147.934 14.8635 147.742C16.4995 146.603 18.3213 145.757 20.2474 145.242C20.6319 145.112 20.5043 144.61 20.1198 144.73ZM27.041 147.614C25.3304 148.046 23.7481 148.881 22.4262 150.05C22.3752 150.101 22.3466 150.17 22.3466 150.242C22.3466 150.314 22.3752 150.383 22.4262 150.434C22.4772 150.485 22.5464 150.514 22.6185 150.514C22.6906 150.514 22.7598 150.485 22.8108 150.434C24.0628 149.334 25.5558 148.544 27.1694 148.127C27.4898 148.063 27.3622 147.55 27.041 147.614ZM34.8606 150.304C32.7647 150.972 30.899 152.216 29.4768 153.894C29.4258 153.945 29.3972 154.014 29.3972 154.086C29.3972 154.158 29.4258 154.227 29.4768 154.278C29.5278 154.329 29.597 154.358 29.6691 154.358C29.7412 154.358 29.8104 154.329 29.8614 154.278C31.2261 152.652 33.0278 151.451 35.0534 150.817C35.3763 150.755 35.247 150.183 34.8606 150.304ZM41.7185 152.933C39.6667 154.054 37.7525 155.409 36.0143 156.972C35.9633 157.023 35.9347 157.092 35.9347 157.164C35.9347 157.236 35.9633 157.305 36.0143 157.356C36.0653 157.407 36.1345 157.436 36.2066 157.436C36.2787 157.436 36.3479 157.407 36.3989 157.356C38.0926 155.832 39.9652 154.519 41.9754 153.447C42.2958 153.19 42.0441 152.75 41.7185 152.933ZM50.3715 157.421C48.7048 158.51 47.1023 159.599 45.4365 160.69C45.1153 160.882 45.4365 161.33 45.6926 161.138C47.3593 160.048 48.9609 158.959 50.6276 157.868C50.9523 157.677 50.6276 157.228 50.3715 157.421ZM59.9855 161.073C58.3959 161.831 57.06 163.033 56.1399 164.535C56.114 164.564 56.0949 164.599 56.0841 164.636C56.0733 164.674 56.071 164.714 56.0774 164.752C56.0838 164.791 56.0987 164.828 56.1211 164.86C56.1434 164.892 56.1727 164.919 56.2067 164.938C56.2407 164.958 56.2786 164.969 56.3177 164.972C56.3568 164.975 56.396 164.97 56.4326 164.956C56.4692 164.942 56.5021 164.92 56.5291 164.891C56.5562 164.863 56.5765 164.829 56.5887 164.791C57.4655 163.388 58.7359 162.273 60.2416 161.587C60.3069 161.551 60.3558 161.491 60.3781 161.421C60.4004 161.35 60.3943 161.273 60.3611 161.206C60.3279 161.14 60.2702 161.089 60.2002 161.064C60.1301 161.039 60.0532 161.043 59.9855 161.073ZM71.0735 162.676C68.9554 163.364 67.099 164.685 65.7539 166.46C65.5621 166.717 66.01 167.037 66.2027 166.717C67.4717 165.061 69.2157 163.831 71.202 163.192C71.5866 163.064 71.4563 162.547 71.0735 162.676ZM81.2648 164.599C79.3792 165.568 77.7529 166.974 76.5216 168.7C76.3298 168.957 76.7777 169.278 76.9704 168.957C78.1529 167.309 79.7133 165.968 81.5209 165.048C81.8403 164.919 81.5851 164.407 81.2648 164.599ZM88.1226 166.713C86.7029 168.016 85.4924 169.53 84.534 171.201C84.3413 171.522 84.8543 171.778 84.9819 171.457C85.898 169.794 87.0901 168.299 88.5072 167.035C88.7642 166.906 88.3796 166.522 88.1226 166.713ZM140.423 135.116C138.42 135.371 136.459 135.888 134.59 136.654C134.27 136.782 134.398 137.295 134.719 137.167C136.545 136.409 138.463 135.892 140.423 135.628C140.487 135.623 140.547 135.594 140.591 135.546C140.634 135.499 140.659 135.437 140.659 135.372C140.659 135.308 140.634 135.246 140.591 135.198C140.547 135.151 140.487 135.121 140.423 135.116ZM145.294 136.846C143.536 137.126 141.83 137.666 140.231 138.449C139.911 138.577 140.167 139.089 140.487 138.897C142.031 138.144 143.67 137.605 145.359 137.295C145.807 137.359 145.615 136.782 145.294 136.846ZM153.306 138.32C151.33 138.712 149.412 139.358 147.602 140.243C147.282 140.371 147.538 140.885 147.858 140.692C149.636 139.853 151.508 139.229 153.434 138.833C153.819 138.769 153.626 138.258 153.306 138.32ZM161.128 140.888C159.134 141.529 157.067 141.917 154.975 142.042C154.655 142.042 154.655 142.618 154.975 142.618C157.129 142.488 159.259 142.101 161.32 141.464C161.638 141.269 161.51 140.758 161.128 140.888Z" fill="black"/>
<path d="M110.616 124.22C109.428 123.451 108.368 122.501 107.475 121.404C106.661 120.552 105.952 119.605 105.363 118.584C105.236 118.263 104.723 118.52 104.915 118.84C105.531 119.9 106.262 120.889 107.094 121.788C108.008 122.95 109.114 123.947 110.363 124.736C110.397 124.753 110.433 124.763 110.471 124.765C110.509 124.768 110.547 124.763 110.582 124.75C110.618 124.738 110.651 124.719 110.679 124.694C110.708 124.669 110.731 124.639 110.748 124.605C110.764 124.571 110.774 124.534 110.776 124.496C110.779 124.459 110.774 124.421 110.762 124.385C110.749 124.349 110.73 124.316 110.705 124.288C110.68 124.26 110.65 124.237 110.616 124.22ZM138.179 128.322C137.998 128.041 137.752 127.807 137.462 127.64C137.172 127.473 136.847 127.377 136.513 127.361C135.308 127.228 134.098 127.548 133.116 128.257C133.189 127.534 133.081 126.803 132.801 126.132C132.521 125.461 132.079 124.869 131.513 124.412C130.263 123.54 128.729 123.174 127.22 123.387C126.937 123.465 126.694 123.647 126.54 123.896C126.386 124.146 126.331 124.444 126.387 124.732C126.204 124.756 126.028 124.82 125.873 124.92C125.718 125.02 125.587 125.153 125.489 125.309C125.335 125.558 125.267 125.851 125.296 126.143C125.077 126.155 124.864 126.22 124.674 126.332C124.485 126.443 124.325 126.598 124.207 126.783C118.487 123.183 117.125 120.731 113.696 115.118C113.503 114.798 113.055 115.118 113.247 115.375C116.749 121.554 118.633 123.834 124.079 127.361C124.079 128.857 125.347 128.579 126.065 129.027C126.337 129.176 126.561 129.401 126.709 129.674C126.856 129.947 126.922 130.256 126.899 130.566C126.834 130.886 127.412 130.886 127.476 130.566C127.505 130.074 127.37 129.586 127.092 129.18C126.813 128.774 126.407 128.472 125.938 128.322C125.425 128.194 124.72 128.13 124.656 127.552C124.591 127.105 124.912 126.848 125.296 126.72C125.525 126.72 125.537 126.655 125.681 126.655C126.512 126.687 127.305 127.015 127.916 127.58C128.527 128.145 128.916 128.909 129.014 129.735C129.078 130.055 129.591 129.927 129.527 129.606C129.385 128.718 128.958 127.9 128.311 127.276C127.663 126.652 126.83 126.255 125.938 126.145C125.938 125.597 125.943 125.388 126.963 125.184C129.412 125.426 130.466 126.715 130.552 128.264C130.552 128.585 131.129 128.585 131.129 128.264C130.914 126.006 129.296 124.802 127.027 124.611C126.707 124.355 127.027 123.97 127.347 123.842C127.639 123.757 127.945 123.735 128.245 123.778C131.715 124.069 133.077 126.594 132.411 128.842C132.398 128.898 132.403 128.958 132.426 129.011C132.449 129.064 132.489 129.109 132.54 129.138C132.59 129.167 132.649 129.178 132.706 129.171C132.764 129.164 132.818 129.138 132.86 129.098C133.697 128.274 134.826 127.814 136.001 127.816C136.577 127.816 137.409 127.881 137.666 128.52C137.988 129.29 136.897 129.546 136.385 129.546C135.791 129.582 135.207 129.711 134.654 129.93C133.397 130.402 131.966 131.866 129.912 132.301C128.443 132.504 126.951 132.483 125.489 132.238C125.169 132.173 125.169 132.75 125.489 132.815C127.936 133.134 129.889 133.211 131.962 132.173C133.573 131.278 134.264 130.485 135.552 130.251C136.258 130.238 136.956 130.086 137.603 129.803C137.744 129.75 137.871 129.668 137.978 129.563C138.085 129.458 138.168 129.331 138.223 129.191C138.277 129.051 138.301 128.902 138.294 128.752C138.286 128.602 138.247 128.455 138.179 128.322Z" fill="black"/>
<path d="M116.324 54.296C97.5799 22.528 65.5849 23.9201 48.3201 52.6944C48.2307 52.8497 48.173 53.0213 48.1504 53.1992C48.1279 53.377 48.1408 53.5576 48.1885 53.7304C48.2362 53.9032 48.3178 54.0648 48.4285 54.2059C48.5391 54.3469 48.6767 54.4646 48.8332 54.552C49.148 54.7285 49.5197 54.7737 49.8677 54.6778C50.2156 54.5819 50.5117 54.3527 50.6917 54.0399C67.4179 26.1632 96.5397 26.488 113.952 55.5139C114.132 55.8269 114.428 56.0562 114.776 56.1521C115.124 56.248 115.496 56.2027 115.811 56.026C115.965 55.9529 116.101 55.8483 116.212 55.7189C116.322 55.5896 116.404 55.4384 116.453 55.2753C116.501 55.1121 116.515 54.9406 116.493 54.7719C116.47 54.6032 116.413 54.441 116.324 54.296Z" fill="#F0B211"/>
<path d="M125.104 51.216C101.64 13.3109 62.2833 14.5684 39.7315 48.4C39.6431 48.5557 39.5863 48.7272 39.5641 48.9049C39.542 49.0825 39.5551 49.2628 39.6027 49.4354C39.6503 49.6079 39.7313 49.7695 39.8413 49.9107C39.9513 50.052 40.088 50.1702 40.2437 50.2586C40.3994 50.347 40.5709 50.4039 40.7486 50.426C40.9262 50.4481 41.1065 50.435 41.279 50.3874C41.4516 50.3399 41.6132 50.2588 41.7544 50.1488C41.8956 50.0388 42.0139 49.9021 42.1023 49.7464C66.2143 13.5731 102.846 22.2499 123.117 52.6302C123.297 52.9433 123.593 53.1729 123.941 53.2691C124.289 53.3654 124.661 53.3204 124.976 53.1441C125.172 52.8651 125.287 52.5378 125.309 52.1979C125.332 51.858 125.261 51.5184 125.104 51.216Z" fill="#FF9F48"/>
<path d="M133.95 45.8973C109.764 6.51206 62.9714 0.00446224 32.6176 42.5041C32.523 42.6583 32.4612 42.8302 32.4358 43.0093C32.4105 43.1884 32.4223 43.3708 32.4704 43.5452C32.5185 43.7195 32.6019 43.8821 32.7155 44.0229C32.8291 44.1637 32.9704 44.2796 33.1306 44.3635C33.2861 44.4528 33.4578 44.5103 33.6358 44.5328C33.8137 44.5553 33.9943 44.5423 34.1671 44.4945C34.34 44.4467 34.5017 44.3651 34.6428 44.2544C34.7839 44.1437 34.9016 44.0061 34.9892 43.8496C57.3315 11.2641 99.4016 0.766543 131.515 47.1153C131.695 47.4281 131.991 47.6573 132.339 47.7532C132.687 47.849 133.058 47.8039 133.373 47.6274C133.537 47.566 133.685 47.4688 133.806 47.343C133.927 47.2171 134.019 47.0657 134.074 46.8999C134.129 46.7341 134.147 46.558 134.125 46.3845C134.104 46.2111 134.044 46.0446 133.95 45.8973Z" fill="#F55555"/>
<path d="M142.923 39.6801C133.836 25.2912 117.989 11.917 99.8522 6.73643C82.3974 1.76707 64.8282 4.9166 49.3464 14.2349C40.1656 19.9036 32.1762 27.3054 25.824 36.0272C25.7297 36.1813 25.668 36.3531 25.6428 36.532C25.6176 36.7108 25.6294 36.893 25.6774 37.0671C25.7254 37.2412 25.8086 37.4037 25.9219 37.5443C26.0352 37.685 26.1762 37.8009 26.3362 37.8849C26.6511 38.0616 27.023 38.107 27.3712 38.0111C27.7193 37.9152 28.0156 37.6858 28.1956 37.3728C57.6703 -2.84853 108.599 -3.41525 138.501 38.0134C139.205 38.9752 139.846 39.9362 140.551 40.898C140.731 41.211 141.027 41.4404 141.375 41.5363C141.723 41.6322 142.095 41.5869 142.41 41.4102C142.568 41.342 142.709 41.2399 142.823 41.1111C142.937 40.9824 143.022 40.8301 143.071 40.6651C143.12 40.5001 143.132 40.3264 143.106 40.1562C143.081 39.986 143.018 39.8235 142.923 39.6801Z" fill="#42AB44"/>
<path d="M76.0078 75.9572C76.0078 76.3652 76.2239 76.7564 76.6086 77.0449C76.9933 77.3334 77.5151 77.4954 78.0591 77.4954C78.6031 77.4954 79.1249 77.3334 79.5096 77.0449C79.8943 76.7564 80.1104 76.3652 80.1104 75.9572C80.1104 75.5492 79.8943 75.158 79.5096 74.8695C79.1249 74.581 78.6031 74.4189 78.0591 74.4189C77.5151 74.4189 76.9933 74.581 76.6086 74.8695C76.2239 75.158 76.0078 75.5492 76.0078 75.9572Z" fill="#F55555"/>
<path d="M88.7627 75.7644C88.7627 76.1724 88.9788 76.5637 89.3635 76.8521C89.7482 77.1406 90.2699 77.3027 90.814 77.3027C91.358 77.3027 91.8798 77.1406 92.2645 76.8521C92.6491 76.5637 92.8653 76.1724 92.8653 75.7644C92.8653 75.3565 92.6491 74.9652 92.2645 74.6767C91.8798 74.3883 91.358 74.2262 90.814 74.2262C90.2699 74.2262 89.7482 74.3883 89.3635 74.6767C88.9788 74.9652 88.7627 75.3565 88.7627 75.7644Z" fill="#F55555"/>
<path d="M129.078 137.743C117.651 126.832 102.382 120.867 86.5842 121.143C71.4579 121.528 55.6909 127.937 44.7314 138.641C44.1791 139.185 43.7925 139.874 43.6166 140.629C43.4407 141.384 43.4827 142.173 43.7378 142.905C43.9929 143.637 44.4505 144.281 45.0574 144.763C45.6644 145.245 46.3957 145.545 47.1663 145.628C62.2284 147.229 68.3814 147.807 79.1499 144.858C100.941 147.674 109.915 149.729 127.476 144.537C128.152 144.331 128.761 143.952 129.245 143.436C129.728 142.921 130.067 142.288 130.229 141.601C130.391 140.913 130.371 140.195 130.169 139.518C129.967 138.841 129.591 138.229 129.078 137.743ZM79.0848 141.141C76.4158 140.76 75.5217 141.017 67.9968 138.32C67.1564 138.019 66.074 137.68 65.6208 136.846C65.1087 135.885 65.8778 135.115 66.7745 134.988C68.8531 134.724 76.5073 135.876 80.1707 136.59C79.8944 137.244 79.2881 140.328 79.0848 141.141ZM98.3137 133.32C98.1995 133.417 98.0667 133.49 97.9234 133.534C97.7801 133.578 97.6294 133.592 97.4803 133.576C97.3923 133.576 91.44 133.769 91.0704 133.769C91.0555 133.754 90.3339 132.617 90.1095 132.166C91.9803 131.647 95.9799 131.141 97.4135 131.462C97.6986 131.505 97.9674 131.622 98.1926 131.802C98.4178 131.982 98.5913 132.219 98.6956 132.488C98.7134 132.648 98.6873 132.81 98.62 132.957C98.5527 133.103 98.4469 133.229 98.3137 133.32Z" fill="#FCAFB7"/>
<path d="M117.349 134.347C116.195 134.667 115.042 134.988 113.952 135.308C113.902 135.311 113.855 135.332 113.82 135.367C113.784 135.403 113.763 135.45 113.76 135.5C107.021 133.969 109.057 135.282 114.081 134.027C114.798 133.94 115.493 133.722 116.131 133.385C116.276 133.294 116.396 133.169 116.481 133.022C116.566 132.874 116.614 132.707 116.621 132.537C116.627 132.366 116.592 132.196 116.517 132.043C116.443 131.889 116.333 131.755 116.195 131.654C115.388 131.155 114.529 130.747 113.632 130.437C109.228 128.546 103.555 128.552 98.7599 128.706C97.0932 128.769 94.7858 128.706 93.8882 130.372C93.7678 130.541 93.701 130.742 93.6964 130.949C92.2866 131.075 90.8916 131.333 89.5296 131.718C89.3771 131.511 89.1719 131.348 88.9353 131.247C88.6987 131.146 88.4394 131.109 88.1841 131.142C82.5521 130.627 77.1295 131.962 71.2001 133.385C71.1358 133.385 71.1358 133.449 71.0716 133.449C70.2798 132.922 69.3834 132.572 68.4439 132.424C67.7399 132.295 67.0984 132.167 66.3926 132.103C61.2753 131.663 56.184 133.201 52.1657 136.4C51.6535 136.785 51.2047 137.169 50.6917 137.618C50.4167 137.817 50.2141 138.1 50.1146 138.424C50.015 138.749 50.0239 139.097 50.1399 139.415C50.2559 139.734 50.4727 140.007 50.7574 140.191C51.0422 140.376 51.3793 140.463 51.7177 140.438C52.2396 140.38 51.3745 140.521 68.1253 138.9C68.5099 139.028 68.8293 139.156 69.1505 139.285C72.3067 140.412 75.5719 141.207 78.893 141.656C78.7645 142.617 78.6369 143.643 78.5727 144.604C78.5727 144.924 79.0857 144.924 79.1491 144.604C79.2133 143.514 79.3418 142.425 79.4703 141.336C80.565 136.683 79.7677 139.356 80.9443 135.823C87.0533 134.552 93.2918 134.013 99.5281 134.218C101.387 134.347 103.245 134.538 105.104 134.603C108.85 134.982 112.558 135.668 116.192 136.654C116.512 136.719 116.705 136.205 116.32 136.14C113.702 135.358 113.513 136.115 117.281 134.859C117.798 134.796 117.669 134.218 117.349 134.347ZM79.0849 141.14C76.4158 140.759 75.5816 140.845 67.9969 138.32C67.1635 138 66.0741 137.679 65.6209 136.846C65.1087 135.885 65.8778 135.115 66.7745 134.988C68.8531 134.724 76.5073 135.876 80.1708 136.59C79.8945 137.244 79.2881 140.328 79.0849 141.14ZM80.8801 135.308C80.8141 135.307 80.749 135.324 80.6924 135.358C80.6357 135.392 80.5898 135.441 80.5597 135.5L80.367 136.077C77.7006 135.502 75.0046 135.075 72.2913 134.796C72.1236 134.447 71.9079 134.123 71.6506 133.834C76.7141 132.615 81.841 131.334 87.0973 131.591C87.6798 131.581 88.2611 131.645 88.8273 131.783C89.402 132.07 90.37 133.807 90.4298 133.895C87.2214 134.176 84.0326 134.648 80.8801 135.308ZM98.3137 133.32C98.1995 133.417 98.0667 133.49 97.9235 133.534C97.7802 133.578 97.6294 133.592 97.4804 133.576C97.3968 133.576 91.4401 133.769 91.0705 133.769C91.0555 133.754 90.3339 132.615 90.1095 132.166C91.9804 131.647 95.98 131.141 97.4135 131.462C97.6987 131.505 97.9675 131.622 98.1927 131.802C98.4178 131.982 98.5914 132.219 98.6957 132.487C98.7138 132.648 98.6878 132.81 98.6205 132.957C98.5532 133.103 98.4471 133.229 98.3137 133.32Z" fill="black"/>
<path d="M57.8708 106.53C57.5918 106.53 57.8814 107.115 56.8447 99.0308C61.4735 100.455 70.49 96.4101 74.663 94.0324C72.6117 97.1722 71.5962 100.966 70.9458 104.607C70.8878 104.929 70.8816 105.249 70.8174 105.569C67.2006 106.773 61.6275 106.925 57.8708 106.53ZM98.7618 98.7747C97.8911 96.4769 96.7279 94.3009 95.3007 92.3005C95.9422 92.8778 96.5186 93.5185 97.0959 94.0957C101.579 98.6665 106.564 105.5 110.171 110.824C107.795 113.003 105.492 115.247 103.056 117.49C102.285 111.333 100.895 104.241 98.7618 98.7747Z" fill="#42AB44"/>
<path d="M69.9199 124.732C71.7741 112.04 69.4799 98.3321 77.9957 91.0835C82.5074 87.2555 88.5486 86.5419 92.9944 90.5705C96.8004 94.021 98.9018 100.21 100.237 105.184C101.208 108.66 101.924 112.203 102.378 115.784C102.685 118.029 102.869 120.289 102.929 122.554C102.94 123.065 102.992 123.578 102.992 124.157C102.399 124.193 71.6465 124.646 69.9199 124.732Z" fill="#42AB44"/>
</svg>
