<svg width="176" height="176" viewBox="0 0 176 176" fill="none" xmlns="http://www.w3.org/2000/svg">
<path d="M102.123 48.6094C100.156 48.9394 94.7038 49.8907 98.3619 46.8151C99.7101 45.6825 100.034 43.5679 97.6993 43.9207L94.1045 44.4672C93.6157 44.5729 93.1114 44.5848 92.6182 44.5024C91.5798 44.2569 91.4592 43.5045 92.0462 42.7477C92.5446 42.2478 93.1068 41.8159 93.7182 41.4629C96.9451 39.0359 91.3554 38.8555 89.9667 39.0587C84.9604 39.79 80.1556 41.924 75.2417 42.9255C74.8698 42.9994 74.4837 42.9299 74.1611 42.7308C73.8384 42.5317 73.6031 42.2178 73.5024 41.8523C73.4018 41.4867 73.4432 41.0966 73.6185 40.7604C73.7937 40.4242 74.0897 40.1668 74.447 40.0399L74.5069 40.0197L82.9258 37.1571C84.7659 36.5305 86.7098 35.8371 87.9304 34.3252C86.3024 32.7975 83.5612 33.3361 81.5434 33.1434C80.739 33.0668 79.3504 33.0369 78.7573 32.3672C77.5693 31.0243 79.5088 30.5553 80.7505 29.9428C86.43 27.1383 92.7466 26.2283 98.9339 25.1512C98.552 24.6883 98.1566 24.2369 97.7477 23.7969C93.366 19.0733 87.6185 15.8361 81.3079 14.5373C74.9972 13.2386 68.4385 13.9432 62.5477 16.5527C63.224 17.0059 63.764 17.6347 64.1097 18.3717C64.2514 18.6543 64.3085 18.9718 64.2742 19.286C64.1769 19.6699 63.9546 20.0104 63.6424 20.254C62.369 21.4095 60.6618 21.926 59.0787 22.5975C58.0271 23.0445 56.3824 23.9175 55.7726 24.9171C54.4526 27.0652 56.8039 26.099 57.2686 27.7657C58.0746 30.6512 51.0047 32.1543 46.5387 32.8838C43.7808 39.3577 43.3434 46.5854 45.3006 53.3447C48.385 52.8492 51.4606 52.2675 54.5502 51.8311C57.6034 51.2687 60.697 50.9535 63.8008 50.8886C65.7368 50.9317 67.0313 51.8293 64.8269 53.3174C64.1114 53.8005 63.2746 54.0944 62.6005 54.633C62.2418 54.8747 61.9677 55.2225 61.8165 55.6277C61.6653 56.0329 61.6447 56.4753 61.7574 56.8928C61.9752 57.2702 62.3015 57.5733 62.6939 57.7626C63.0863 57.9519 63.5266 58.0186 63.9574 57.9541C67.3393 57.7781 70.59 56.5399 73.9974 56.5285C75.4819 56.5285 77.41 56.6561 78.6138 57.6549C80.9203 59.568 76.8072 60.6231 75.0419 60.991C71.5853 61.7117 67.6094 60.9664 64.6658 63.367C64.063 63.8589 63.5271 64.7231 63.9618 65.3681C64.1152 65.5416 64.3016 65.6828 64.5101 65.7836C64.7186 65.8844 64.945 65.9427 65.1762 65.9551C67.5244 66.3437 69.9243 66.2933 72.2541 65.8064C72.6422 65.674 73.0656 65.6906 73.4421 65.853C75.6421 67.2073 70.231 68.7174 69.8446 69.0738C67.3331 71.3952 74.5614 71.8546 70.6155 73.8258C68.2456 74.8847 65.7401 75.6091 63.1707 75.9783C63.7735 76.7131 64.3587 77.4637 64.9052 78.2425C67.839 82.4406 69.8689 87.2022 70.8663 92.2257L96.227 87.4394C95.3568 82.6325 95.4547 77.7003 96.5148 72.9317C96.5526 72.7557 96.7128 72.072 96.755 71.9021C97.1405 70.3594 97.627 68.8437 98.2114 67.3648C98.8124 65.8462 99.5139 64.3692 100.311 62.9437C101.426 61.1728 102.438 59.3388 103.341 57.4508C104.699 54.3964 105.552 51.1417 105.867 47.8139C104.631 48.1301 103.382 48.3955 102.123 48.6094ZM70.9446 24.3055C70.4917 24.464 70.0102 24.524 69.5322 24.4815C69.4728 24.4702 69.4163 24.4467 69.3664 24.4125C69.3164 24.3783 69.2741 24.3342 69.2419 24.2829C69.2098 24.2317 69.1886 24.1743 69.1797 24.1144C69.1707 24.0546 69.1742 23.9935 69.1899 23.9351C69.3052 23.503 69.7742 23.1923 70.1236 22.9618C70.8329 22.5142 71.5831 22.1349 72.3641 21.8292C72.7997 21.6532 72.988 22.3572 72.5586 22.5332C71.7948 22.845 71.062 23.2281 70.37 23.6772C71.3726 23.4785 72.3619 23.2175 73.3321 22.8958C72.9663 22.0647 72.9222 21.1273 73.2084 20.2656C73.4946 19.4038 74.0906 18.679 74.8809 18.2318C75.8147 17.7321 76.9063 17.6155 77.9247 17.9065C78.943 18.1976 79.8081 18.8735 80.3369 19.7911C80.4291 19.9685 80.5059 20.1534 80.5666 20.3438C80.8983 20.2056 81.2283 20.0631 81.5539 19.9117C82.0433 19.7166 82.4986 19.4451 82.903 19.1074C82.1585 19.1112 81.4182 19.2178 80.703 19.4242C80.6121 19.4426 80.5177 19.4258 80.4388 19.3773C80.3598 19.3288 80.3022 19.2522 80.2775 19.1629C80.2528 19.0735 80.263 18.9782 80.3058 18.896C80.3487 18.8139 80.4211 18.751 80.5085 18.7202C80.5657 18.7052 80.6238 18.6911 80.6845 18.6779C81.4224 18.4558 82.1918 18.3565 82.9619 18.384C83.3139 18.4219 83.7205 18.5873 83.7196 19.0071C83.7037 19.1578 83.6563 19.3036 83.5805 19.4348C83.5047 19.5661 83.4022 19.68 83.2796 19.7691C82.8054 20.1206 82.2874 20.4088 81.7387 20.6263C81.3998 20.7787 81.0583 20.9254 80.7144 21.0663C80.7232 21.1675 80.7311 21.2687 80.7302 21.3681C80.6862 25.2049 75.5919 25.9837 73.7087 23.5347C73.5635 23.5787 73.4201 23.6297 73.2758 23.6728C72.511 23.9025 71.7305 24.1251 70.9446 24.3055ZM76.383 49.0811C76.257 49.097 76.1305 49.1088 76.0038 49.1163C75.9876 49.4363 75.9336 49.7532 75.8427 50.0605C75.7436 49.902 75.6539 49.7377 75.5743 49.5686C75.5182 49.4482 75.4675 49.3255 75.4221 49.2007C75.2866 49.2183 74.6512 49.3107 74.4743 49.3398C74.5892 49.2036 74.7117 49.074 74.8413 48.9517C74.9513 48.847 75.0595 48.7555 75.1616 48.6727C75.0346 48.3799 74.893 48.0935 74.7374 47.8147C74.8853 47.9027 75.0428 47.9907 75.2109 48.0787C75.3388 48.145 75.4628 48.2061 75.5831 48.2618C75.6741 48.1454 75.7722 48.0349 75.877 47.9309C75.999 47.8087 76.1295 47.6955 76.2678 47.5921L76.1032 48.5355C76.2097 48.5768 76.3214 48.6235 76.4376 48.6824C76.6152 48.7703 76.7868 48.8697 76.9515 48.9799C76.7638 49.023 76.5741 49.0568 76.383 49.0811ZM76.5467 85.4163C76.3651 85.4391 76.1829 85.4561 76.0002 85.4673C75.9878 85.7084 75.9605 85.9485 75.9184 86.1863C75.8803 86.4027 75.8304 86.6169 75.7688 86.8278C75.6253 86.6 75.4963 86.3634 75.3825 86.1194C75.301 85.9468 75.2273 85.7706 75.1616 85.5914C74.9662 85.6169 74.0502 85.7507 73.7958 85.792C73.9618 85.5965 74.138 85.41 74.3238 85.2332C74.4822 85.0828 74.638 84.9499 74.7867 84.832C74.6026 84.4098 74.3979 83.9969 74.1734 83.5947C74.3863 83.7232 74.6142 83.8508 74.8571 83.9775C75.0402 84.0725 75.2197 84.1605 75.393 84.2415C75.6789 83.8774 76.0108 83.552 76.3804 83.2735L76.1428 84.634C76.2965 84.6926 76.4572 84.7633 76.625 84.846C76.881 84.9722 77.1283 85.1153 77.3651 85.2746C77.1143 85.3292 76.8398 85.3784 76.5441 85.4163H76.5467ZM89.8066 66.6828C89.5214 66.7189 89.2469 66.7435 88.9855 66.7594C88.9509 67.4519 88.8342 68.1378 88.6379 68.8027C88.4228 68.4604 88.2291 68.1051 88.058 67.7388C87.9358 67.4781 87.8251 67.212 87.7262 66.9416C87.4332 66.9794 86.0542 67.18 85.6758 67.2425C85.9245 66.9483 86.1889 66.6677 86.4678 66.4021C86.7054 66.1768 86.9386 65.9771 87.1613 65.8002C87.0733 65.5864 86.9703 65.3681 86.8656 65.1472C86.6614 64.7184 86.4526 64.3168 86.239 63.9425C86.8327 64.2968 87.4439 64.6207 88.0703 64.9132C88.2679 64.6616 88.4804 64.4221 88.7066 64.1959C88.971 63.9321 89.2539 63.6874 89.5531 63.4638C89.4358 64.1449 89.3167 64.8254 89.1958 65.5054C89.4264 65.5934 89.6684 65.7016 89.9192 65.8248C90.3044 66.0139 90.6763 66.2288 91.0324 66.4681C90.6593 66.5517 90.2474 66.6274 89.8039 66.6828H89.8066Z" fill="#7D4AB4"/>
<path d="M80.7196 21.0654C80.218 21.2731 79.7135 21.4734 79.206 21.6664C77.397 22.3509 75.5653 22.9737 73.714 23.5338C75.5972 25.9828 80.6915 25.2058 80.7355 21.3672C80.735 21.2664 80.7297 21.1657 80.7196 21.0654ZM80.5683 20.3438C80.5075 20.1534 80.4306 19.9685 80.3386 19.7912C79.81 18.8733 78.9449 18.1973 77.9265 17.9062C76.9081 17.6151 75.8164 17.7319 74.8826 18.2318C74.0923 18.679 73.4963 19.4038 73.2101 20.2656C72.924 21.1273 72.968 22.0647 73.3338 22.8958L73.9991 22.6864C76.7271 21.8363 79.074 20.9695 80.5683 20.3438Z" fill="#F55555"/>
<path d="M106.19 38.955C105.302 34.2401 103.351 29.7898 100.485 25.9424C96.243 20.2379 90.2054 16.1263 83.3436 14.2694C76.4817 12.4126 69.1946 12.9183 62.6551 15.7054C58.3532 17.5387 54.5118 20.3039 51.4078 23.8014C48.343 27.2564 46.0615 31.3333 44.7198 35.7527C42.8804 41.8581 42.929 48.3769 44.8592 54.4543C46.7895 60.5316 50.5114 65.8837 55.5368 69.8087C61.6783 74.595 66.6486 80.0624 69.3352 89.0393C69.6967 90.2492 69.9954 91.477 70.2302 92.7177C70.6111 96.8723 71.6344 100.943 73.2635 104.783C73.6072 105.64 74.0822 106.437 74.6715 107.147C75.7318 108.138 77.0966 108.741 78.5435 108.858C80.3256 109.066 82.1275 109.037 83.9018 108.77C84.1562 108.737 84.4078 108.695 84.6613 108.658C85.0211 109.397 85.5676 110.028 86.2468 110.491C86.926 110.953 87.7142 111.23 88.5333 111.294C89.3698 111.344 90.2037 111.158 90.9392 110.757C91.6747 110.355 92.282 109.754 92.6913 109.022C93.1385 108.262 93.355 107.388 93.3143 106.507C93.5616 106.419 93.808 106.338 94.0526 106.25C94.556 106.073 95.0523 105.877 95.5407 105.663C96.1957 105.343 96.7314 104.823 97.0693 104.177C97.483 103.38 97.7529 102.516 97.8666 101.625C98.406 98.1447 97.7935 93.3337 97.3157 89.863C97.2124 89.1162 97.1054 88.3699 96.9945 87.6243C96.1383 83.0562 96.1649 78.3664 97.0728 73.8083C97.1071 73.6367 97.2488 72.9503 97.291 72.7787C97.6477 71.2167 98.1084 69.6803 98.67 68.1798C99.2533 66.6264 99.9456 65.1161 100.742 63.6601C101.499 62.2706 102.384 60.9568 103.123 59.5558C103.145 59.5118 103.171 59.4678 103.193 59.4264C103.25 59.3182 103.301 59.2064 103.356 59.0973C103.439 58.9336 103.52 58.7691 103.6 58.6036C106.554 52.5015 107.461 45.6093 106.186 38.9506L106.19 38.955ZM90.8327 109.981C90.243 110.358 89.5591 110.562 88.859 110.57C88.1589 110.578 87.4707 110.389 86.8727 110.025C86.2667 109.671 85.7689 109.158 85.433 108.542C86.8142 108.304 88.1842 108.006 89.5391 107.648C90.5646 107.38 91.5816 107.081 92.5901 106.753C92.5769 107.392 92.4104 108.019 92.1046 108.581C91.7988 109.143 91.3626 109.623 90.8327 109.981ZM96.8651 102.788C96.6864 103.477 96.3277 104.107 95.8258 104.612C95.4273 104.94 94.9645 105.182 94.4671 105.321C93.163 105.824 91.8271 106.249 90.4842 106.631C87.0539 107.736 83.4682 108.283 79.8644 108.25C78.4258 108.263 77.0114 107.879 75.7768 107.141C75.2383 106.74 74.8023 106.217 74.5043 105.615C74.2084 105.083 73.9396 104.536 73.6991 103.977C80.0437 103.61 86.3517 102.767 92.5698 101.455C94.1591 101.116 95.7393 100.74 97.3104 100.329C97.2508 101.161 97.1015 101.984 96.8651 102.784V102.788ZM97.2778 96.3213C97.3421 97.3773 97.3958 98.4756 97.3562 99.5641C91.2536 101.149 85.0352 102.247 78.7591 102.85C76.9768 103.026 75.1922 103.164 73.4052 103.265C73.3219 103.057 73.2415 102.846 73.1641 102.635C72.9784 102.127 72.8121 101.61 72.6466 101.091C79.1305 99.9176 85.5838 98.5905 92.0066 97.1098C93.7561 96.7056 95.5026 96.2899 97.2462 95.8628C97.2523 96.016 97.269 96.1682 97.2778 96.3213ZM97.1846 95.1254C90.7001 96.7094 84.1802 98.1403 77.6248 99.418C75.8965 99.7536 74.1658 100.076 72.4328 100.386C72.0627 99.1112 71.7553 97.8189 71.5114 96.514C78.2054 95.7568 84.847 94.5928 91.3994 93.0284C93.2146 92.5842 95.0198 92.1014 96.815 91.5799C96.9646 92.7602 97.0878 93.943 97.1846 95.128V95.1254ZM96.7199 90.8495C90.2195 92.7109 83.5985 94.1222 76.9041 95.0735C75.068 95.3407 73.2284 95.5824 71.3856 95.7986C71.2228 94.8492 71.0887 93.8952 70.9834 92.9377C73.8232 92.4018 95.4087 88.3274 96.3415 88.1523C96.4706 89.0516 96.5967 89.9507 96.7199 90.8495ZM105.872 47.8096C105.557 51.1374 104.704 54.3921 103.345 57.4464C102.442 59.3344 101.431 61.1685 100.316 62.9394C99.5184 64.3649 98.8169 65.8418 98.2159 67.3605C97.6315 68.8394 97.145 70.3551 96.7595 71.8978C96.7173 72.0676 96.5571 72.754 96.5193 72.9274C95.4591 77.696 95.3613 82.6282 96.2315 87.4351L70.8673 92.224C69.8699 87.2005 67.84 82.4389 64.9062 78.2408C64.3569 77.4644 63.7783 76.7091 63.1717 75.9766C62.1235 74.6922 60.9898 73.4801 59.7784 72.3484C57.8635 70.5708 55.6741 69.1346 53.7759 67.3394C49.997 63.763 47.182 59.2906 45.5919 54.3365C45.4881 54.0092 45.4018 53.6774 45.3077 53.3474C43.3488 46.5878 43.7849 39.359 46.5423 32.8839C47.3725 30.9064 48.4031 29.0193 49.6179 27.2519C52.2153 23.4978 55.6081 20.3622 59.5549 18.0682C60.5237 17.508 61.5225 17.0016 62.5469 16.5511C68.4379 13.9424 74.9963 13.2383 81.3068 14.537C87.6173 15.8357 93.3647 19.0724 97.7469 23.7952C98.1561 24.2352 98.5512 24.6876 98.9331 25.1496C101.512 28.2699 103.452 31.8674 104.643 35.7368C104.985 36.8581 105.267 37.9974 105.485 39.1495C106.015 42.0042 106.144 44.9191 105.868 47.8096H105.872Z" fill="black"/>
<path d="M99.5118 55.9082C99.3373 55.6045 99.0512 55.3807 98.7144 55.2844C98.3776 55.1881 98.0165 55.2269 97.7078 55.3925C97.525 55.498 97.3724 55.6486 97.2645 55.83C97.1566 56.0113 97.0972 56.2173 97.0918 56.4283C97.0918 58.0202 99.6244 57.985 99.6438 56.4283C99.6445 56.2466 99.5991 56.0676 99.5118 55.9082Z" fill="#F55555"/>
<path d="M119.783 67.3728C118.952 67.2173 118.15 66.9322 117.407 66.528C117.172 67.9942 117.113 69.4831 117.231 70.9632C117.254 71.3479 117.344 71.7256 117.495 72.08C117.66 72.3659 117.93 72.5764 118.248 72.6669C120.302 73.4325 124.151 72.6898 125.376 71.6532C126.357 70.8224 126.332 70.3076 127.847 64.3606C126.894 65.536 125.643 66.4351 124.225 66.9647C122.807 67.4943 121.274 67.6352 119.783 67.3728Z" fill="#A76C6C"/>
<path d="M131.551 59.7248C131.465 59.3883 131.276 59.0871 131.01 58.863C130.745 58.6389 130.416 58.503 130.07 58.4743C129.874 58.4427 129.675 58.4362 129.478 58.4549C129.381 58.4535 129.289 58.4145 129.221 58.3461C129.153 58.2777 129.114 58.1854 129.113 58.0888C129.087 57.7083 129.035 57.33 128.959 56.9563C128.664 55.4926 127.969 54.1394 126.951 53.0474C125.933 51.9554 124.632 51.1676 123.192 50.7716C121.754 50.4199 120.245 50.4885 118.845 50.9695C117.445 51.4505 116.212 52.3235 115.294 53.4847C115.206 53.5903 115.13 53.7011 115.051 53.8111C114.214 54.9986 113.697 56.3821 113.551 57.8277C113.406 59.2734 113.635 60.7322 114.219 62.0629C114.81 63.4078 115.763 64.5616 116.973 65.3951C118.182 66.2287 119.6 66.709 121.067 66.7823C127.074 66.9689 128.074 61.4865 128.905 61.7232C130.141 62.0743 131.876 61.1864 131.551 59.7248ZM88.5061 73.8206C87.9913 73.529 87.401 73.3982 86.8112 73.4448C85.8153 73.6256 84.8649 74.0012 84.0146 74.5501C83.2621 74.9724 82.5946 75.5307 82.046 76.1966C81.9512 76.3171 81.8698 76.4475 81.8031 76.5855C81.7802 76.6357 81.7345 76.7968 81.7354 76.7871C81.734 76.8032 81.734 76.8194 81.7354 76.8355V76.8663C81.7354 76.8953 81.7406 76.8751 81.7406 76.8751C81.8061 76.9163 81.8781 76.946 81.9536 76.9631C82.6245 76.9984 83.2927 76.8544 83.8896 76.5459C84.2771 76.3922 84.6553 76.2159 85.0222 76.018C85.1055 75.9746 85.2023 75.9649 85.2925 75.9909C85.3828 76.0169 85.4596 76.0766 85.507 76.1577C85.5545 76.2387 85.569 76.3349 85.5475 76.4263C85.5261 76.5177 85.4703 76.5974 85.3918 76.6489C85.0589 76.8719 84.7448 77.1217 84.4528 77.396C83.991 77.7623 83.6356 78.2454 83.4232 78.7952C83.3916 78.9019 83.3845 79.0144 83.4025 79.1242C83.4204 79.2341 83.463 79.3384 83.527 79.4295C83.591 79.5205 83.6747 79.596 83.7719 79.6501C83.8692 79.7042 83.9774 79.7357 84.0885 79.7421C84.6941 79.7222 85.2769 79.506 85.749 79.1261C86.0411 78.9363 86.3169 78.7226 86.5736 78.4872C86.8649 78.2179 87.4078 78.5893 87.1482 78.9272C86.8637 79.3015 86.6154 79.702 86.4064 80.1231C86.2483 80.4191 86.1344 80.7366 86.0685 81.0656C86.035 81.2592 86.0535 81.6015 86.1336 81.6526C86.1961 81.6841 86.2674 81.6937 86.336 81.6799C86.451 81.6666 86.564 81.6404 86.673 81.6015C86.9321 81.5122 87.1816 81.3969 87.4175 81.2575C87.7542 81.0688 88.0776 80.8574 88.3855 80.6248C88.4553 80.5858 88.5357 80.5703 88.615 80.5806C88.6942 80.5909 88.768 80.6264 88.8255 80.6819C88.9681 80.8069 89.1071 80.938 89.2479 81.0656C89.6685 80.3305 90.1567 79.6361 90.7061 78.9915C91.2348 78.3624 91.8243 77.787 92.4661 77.2737C92.2786 77.0581 92.0965 76.8416 91.9011 76.6287C90.9468 75.4968 89.7968 74.5457 88.5061 73.8206Z" fill="#A76C6C"/>
<path d="M106.813 81.3895C107.113 81.5473 107.416 81.703 107.722 81.8567C107.992 81.1229 108.28 80.3964 108.588 79.6779C109.692 76.9706 111.24 74.4668 113.169 72.27C110.94 70.9662 108.95 69.2905 107.285 67.3156C105.385 65.0407 103.971 62.4016 103.129 59.5602C102.39 60.9611 101.505 62.275 100.747 63.6645C99.9517 65.1206 99.2595 66.6309 98.6758 68.1842C98.1141 69.6847 97.6534 71.2211 97.2969 72.7831C98.2385 74.3105 99.3512 75.7256 100.614 77.0009C102.446 78.769 104.537 80.2487 106.813 81.3895Z" fill="#F15929"/>
<path d="M133.128 77.9108C132.202 75.3414 130.682 73.0278 128.69 71.1594C128.212 70.7484 127.695 70.3847 127.146 70.0735C127.134 70.1166 127.124 70.1615 127.112 70.2028C126.939 70.8619 126.599 71.4651 126.124 71.9544C125.65 72.4436 125.058 72.8024 124.404 72.996C123.097 73.4777 121.713 73.7163 120.32 73.7C119.238 73.7887 118.157 73.515 117.247 72.922C116.57 72.3544 116.505 71.2597 116.464 70.4431V70.4026C112.574 72.9115 110.07 77.6028 108.463 81.9385C110.407 81.8898 112.336 81.5853 114.201 81.033C118.733 79.6577 122.755 76.9677 125.757 73.304C126.056 72.9405 126.571 73.4597 126.273 73.8196C126.251 73.8487 126.226 73.8751 126.203 73.9033C124.454 76.0072 122.371 77.8099 120.038 79.2396C116.466 81.4227 112.377 82.6135 108.192 82.6892H107.417C102.348 82.5577 97.48 80.6784 93.6377 77.3696C91.9287 78.5157 90.547 80.0866 89.6284 81.928C89.5704 82.0397 89.5132 82.1532 89.4586 82.2668C88.9503 83.335 88.5784 84.4629 88.3516 85.624C88.884 86.0728 89.3917 86.5488 89.9356 86.9844C91.0806 87.8945 92.2786 88.7358 93.5233 89.5039C100.97 94.1116 108.279 95.4536 116.419 92.6965C117.706 92.2639 118.972 91.7715 120.213 91.2208C123.514 89.8829 126.467 87.8105 128.847 85.1611C129.576 84.3175 130.143 83.3468 130.519 82.2976C130.529 82.2486 130.55 82.2027 130.581 82.1632C130.611 82.1236 130.651 82.0917 130.695 82.0696C130.759 82.0407 130.83 82.0301 130.899 82.0387C130.969 82.0474 131.034 82.0752 131.089 82.1189C131.144 82.1626 131.185 82.2207 131.209 82.2865C131.233 82.3524 131.238 82.4235 131.223 82.492C131.217 82.5202 131.208 82.5484 131.201 82.5756C130.986 83.2438 130.674 83.8764 130.274 84.4527C129.413 85.7394 128.364 86.8897 127.162 87.8653C125.174 89.4786 122.974 90.8135 120.626 91.8333C117.522 93.3206 114.203 94.3106 110.792 94.7672C108.994 94.9518 107.181 94.9258 105.39 94.6897C105.356 94.9484 105.318 95.208 105.286 95.4668C104.762 99.6583 104.615 103.888 104.846 108.106C109.748 109.415 114.777 110.186 119.845 110.407C125.411 110.636 131.136 110.158 136.366 108.133C136.454 106.826 136.507 105.515 136.542 104.207C136.732 96.103 136.146 85.4647 133.128 77.9108Z" fill="#F15929"/>
<path d="M137.738 153.601C137.695 152.869 135.362 110.724 135.337 110.129C135.318 109.66 134.587 109.658 134.607 110.129C134.649 111.136 134.699 112.144 134.749 113.151C134.707 113.116 134.656 113.092 134.602 113.084C134.547 113.075 134.491 113.082 134.441 113.104C133.329 113.516 132.117 113.577 130.969 113.28C130.496 113.211 130.053 113.01 129.689 112.7C129.326 112.39 129.057 111.984 128.915 111.528C128.833 111.066 128.123 111.264 128.211 111.722C128.368 112.269 128.671 112.763 129.087 113.152C129.503 113.54 130.017 113.808 130.573 113.927C131.905 114.324 133.329 114.282 134.635 113.807C134.688 113.788 134.735 113.758 134.775 113.719C134.863 115.479 135.755 131.909 135.787 132.476H135.768L132.52 133.554C132.427 133.582 132.349 133.644 132.302 133.728C132.254 133.811 132.24 133.91 132.264 134.004C132.291 134.097 132.353 134.176 132.437 134.223C132.521 134.271 132.621 134.284 132.714 134.259L135.42 133.361C134.971 134.638 134.339 135.844 133.545 136.941C133.497 137.025 133.483 137.124 133.508 137.218C133.533 137.311 133.593 137.391 133.676 137.44C133.76 137.487 133.859 137.5 133.952 137.476C134.046 137.451 134.126 137.391 134.176 137.309C134.87 136.351 135.444 135.312 135.887 134.214C137.153 156.49 137.563 156.087 136.187 158.091C135.753 158.715 135.183 159.232 134.521 159.604C133.858 159.977 133.12 160.194 132.362 160.241C131.603 160.287 130.844 160.162 130.141 159.873C129.438 159.585 128.81 159.141 128.303 158.575C126.79 156.903 125.646 150.119 124.26 142.194C123.633 138.613 120.407 117.564 120.398 117.492C120.339 117.074 119.687 117.191 119.68 117.589C119.657 119.039 119.416 134.342 119.396 135.453L116.637 135.701C116.54 135.704 116.449 135.743 116.381 135.812C116.313 135.88 116.273 135.971 116.271 136.067C116.271 136.164 116.31 136.257 116.379 136.325C116.447 136.393 116.54 136.432 116.637 136.433L119.12 136.209C118.607 137.016 118.009 137.765 117.337 138.445C117.274 138.515 117.241 138.606 117.243 138.7C117.245 138.793 117.284 138.883 117.35 138.949C117.416 139.015 117.505 139.054 117.599 139.056C117.693 139.059 117.784 139.025 117.854 138.963C118.409 138.399 118.916 137.791 119.37 137.143C119.333 139.419 119.071 156.171 119.065 156.321C119.04 156.817 118.876 157.295 118.593 157.703C118.309 158.111 117.917 158.431 117.461 158.628C116.711 158.857 115.921 158.924 115.143 158.824C112.918 158.766 111.302 158.742 110.465 158.039C108.08 156.033 107.49 144.927 107.339 141.811C107.122 137.379 107.082 132.937 107.122 128.501C107.157 124.617 107.254 120.735 107.412 116.854C107.493 114.786 107.717 110.465 107.722 110.371C107.75 109.902 107.018 109.902 106.991 110.371C106.966 110.769 106.632 118.064 106.578 119.687C106.514 121.684 106.373 130.082 106.38 132.283C106.388 134.554 106.422 136.824 106.497 139.094C106.568 141.254 106.673 143.414 106.842 145.57C106.992 147.5 107.19 149.43 107.487 151.345C107.839 153.641 108.577 157.829 110.455 158.919C111.417 159.477 113.605 159.521 115.318 159.559C118.497 159.629 119.718 158.218 119.796 156.34C119.814 155.915 119.809 155.488 119.816 155.063L120.119 135.976L120.125 135.966C120.154 135.91 120.169 135.848 120.169 135.785C120.169 135.722 120.154 135.66 120.125 135.605C120.125 135.5 120.327 122.802 120.339 122.134C120.698 124.582 122.571 136.643 123.181 140.221C125.034 151.092 125.844 164.034 134.236 160.555C137.398 159.255 137.918 156.617 137.738 153.601ZM57.2727 27.7658C56.8072 26.0991 54.4567 27.0618 55.7767 24.9173C56.3865 23.9211 58.0312 23.0446 59.0828 22.5976C60.6668 21.9261 62.3732 21.4096 63.6465 20.2541C63.9584 20.0102 64.1806 19.6698 64.2784 19.2861C64.3128 18.9719 64.2556 18.6544 64.1138 18.3718C63.7681 17.6348 63.2281 17.006 62.5518 16.5529C57.3273 18.8473 52.8471 22.5549 49.6158 27.2581C48.401 29.0254 47.3704 30.9126 46.5402 32.8901C51.0088 32.1544 58.0796 30.6522 57.2727 27.7658ZM104.644 35.7369C103.453 31.8675 101.513 28.2702 98.9345 25.1496C92.7517 26.2241 86.4306 27.1366 80.7511 29.9412C79.5094 30.5572 77.5699 31.0227 78.7579 32.3656C79.351 33.0353 80.7397 33.0652 81.544 33.1417C83.5618 33.3345 86.303 32.7959 87.931 34.3236C86.7078 35.8345 84.763 36.5289 82.9264 37.1554L74.4476 40.0401C74.0855 40.1636 73.7843 40.4208 73.6055 40.7591C73.4267 41.0973 73.384 41.4911 73.4859 41.8599C73.5878 42.2287 73.8268 42.5446 74.154 42.743C74.4811 42.9414 74.8717 43.0073 75.2458 42.9273C80.1597 41.9259 84.9645 39.7919 89.9708 39.0606C91.3595 38.8573 96.9492 39.0377 93.7223 41.4648C93.1109 41.8177 92.5487 42.2497 92.0503 42.7496C91.4633 43.5064 91.5839 44.2588 92.6223 44.5043C93.1155 44.5867 93.6199 44.5747 94.1086 44.4691L97.7034 43.9226C100.034 43.5706 99.7142 45.6826 98.366 46.8169C94.7079 49.8969 100.16 48.9413 102.127 48.6113C103.386 48.4001 104.635 48.1273 105.872 47.8113C106.149 44.9209 106.02 42.0061 105.49 39.1513C105.271 37.9985 104.988 36.8586 104.644 35.7369ZM78.6136 57.655C77.4097 56.6571 75.4816 56.5242 73.9971 56.5286C70.5897 56.5392 67.3399 57.7729 63.9572 57.9542C63.5263 58.0185 63.0861 57.9516 62.6938 57.7623C62.3014 57.5731 61.9751 57.2701 61.7572 56.8929C61.6443 56.4754 61.6649 56.033 61.8161 55.6277C61.9672 55.2225 62.2414 54.8747 62.6002 54.6331C63.2734 54.0937 64.1112 53.8006 64.8266 53.3175C67.031 51.8285 65.7383 50.9318 63.8005 50.8887C60.6981 50.9542 57.6061 51.2697 54.5544 51.8321C51.4603 52.2721 48.3891 52.8502 45.3047 53.3457C45.398 53.6757 45.4807 54.0074 45.5889 54.3348C47.1788 59.2889 49.9938 63.7614 53.7729 67.3377C55.6711 69.1329 57.8605 70.5681 59.7754 72.3466C60.9873 73.4779 62.1209 74.6901 63.1687 75.9749C65.738 75.6059 68.2436 74.8814 70.6135 73.8224C74.5594 71.8538 67.3311 71.3953 69.8426 69.0704C70.2289 68.714 75.6436 67.2039 73.44 65.8496C73.0635 65.6876 72.6402 65.671 72.2521 65.8029C69.9222 66.2894 67.5224 66.3398 65.1742 65.9517C64.9431 65.9388 64.7168 65.8803 64.5084 65.7795C64.2999 65.6788 64.1135 65.5378 63.9598 65.3647C63.5198 64.7197 64.0584 63.8555 64.6638 63.3636C67.6074 60.9638 71.5833 61.7092 75.0399 60.9876C76.8069 60.6233 80.9209 59.5681 78.6136 57.655Z" fill="url(#paint0_linear_21297_22725)"/>
<path d="M109.17 5.25795C109.026 5.02601 108.828 4.83232 108.594 4.69346C108.359 4.55461 108.094 4.47473 107.822 4.46067C106.97 4.36627 106.109 4.39591 105.265 4.54867C102.846 4.95233 100.464 5.55002 98.1415 6.33595C93.7794 7.70347 88.1007 9.83747 84.3704 11.3845C83.9418 11.5605 84.1293 12.2645 84.564 12.0885C85.5258 11.689 86.4938 11.3062 87.468 10.9269C89.6973 10.054 91.9396 9.21913 94.1947 8.42243C96.7274 7.53451 99.2829 6.69323 101.881 6.01739C102.974 5.72277 104.082 5.48311 105.199 5.29931C105.992 5.15056 106.801 5.10618 107.606 5.16731C107.655 5.16958 107.703 5.17665 107.75 5.18843C107.823 5.20251 107.897 5.21747 107.969 5.23683C108.042 5.25619 108.086 5.27115 108.145 5.29051C108.256 5.32747 108.136 5.27027 108.254 5.33891C108.415 5.42691 108.35 5.36707 108.452 5.47971L108.475 5.50435L108.491 5.52811C108.541 5.59851 108.544 5.63547 108.531 5.59851C108.539 5.62051 108.553 5.67947 108.559 5.70499C108.565 5.73051 108.565 5.80795 108.565 5.83259C108.565 5.96195 108.575 5.84139 108.555 5.93995C108.54 6.01094 108.523 6.08134 108.502 6.15115C108.387 6.47412 108.227 6.77947 108.027 7.05843C105.753 10.4596 97.0864 16.1752 93.2742 18.6797C84.7664 24.258 71.027 32.2863 67.822 34.1088C59.807 38.6672 50.2616 43.8389 42.0169 47.784C38.1362 49.7152 34.1319 51.3877 30.0304 52.7903C29.0182 53.1955 27.9328 53.3861 26.843 53.35C26.6797 53.3413 26.5243 53.2767 26.403 53.1669L26.3907 53.1458C26.3907 53.1344 26.3696 53.086 26.3802 53.1256C26.3826 53.1328 26.3862 53.1397 26.3907 53.1458C26.3071 52.5111 26.4041 51.8658 26.6706 51.2837C27.6509 48.6129 30.84 45.8277 33.0778 44.0968C35.4551 42.2758 37.9543 40.6199 40.5578 39.1406C40.9851 38.893 41.4163 38.6525 41.8514 38.419C42.2668 38.1981 41.8981 37.5663 41.4827 37.7872C39.8107 38.676 38.1915 39.6739 36.6066 40.707C33.5851 42.5637 30.8175 44.8051 28.3734 47.3748C27.3175 48.4705 26.4877 49.7635 25.9314 51.1799C24.4978 55.2745 28.1067 54.3224 32.2454 52.8132C36.8705 51.0142 41.4026 48.9847 45.8246 46.7324C53.8203 42.7592 69.1174 34.4388 81.8096 26.7388C84.6203 25.0339 87.4123 23.2988 90.1854 21.5336C94.4244 18.8267 103.485 12.9201 107.031 9.34467C107.727 8.67644 108.336 7.92308 108.844 7.10243C109.042 6.84342 109.175 6.54075 109.231 6.21981C109.288 5.89888 109.267 5.56903 109.17 5.25795Z" fill="#B26EE6"/>
<path d="M38.4126 25.381C37.9752 25.0599 37.5185 24.766 37.045 24.501C37.1964 24.1402 37.3442 23.7565 37.485 23.3482C37.7033 22.7172 37.874 22.1162 38.013 21.5565C37.4572 21.876 36.9236 22.2326 36.4158 22.624C36.0849 22.8792 35.7831 23.1344 35.5103 23.3834L33.0041 21.56C33.1944 22.5796 33.5184 23.5697 33.9677 24.5045C33.6321 24.7744 33.2777 25.0472 32.9046 25.3229C32.4101 25.6864 31.9252 26.0181 31.457 26.32C32.1003 26.2856 32.777 26.2698 33.481 26.2804C33.8471 26.2845 34.2041 26.2953 34.552 26.3129C34.64 26.7292 34.7562 27.1744 34.904 27.6426C35.0746 28.193 35.2755 28.7336 35.5059 29.2618C35.6749 28.7092 36.3146 26.7318 36.4563 26.3129C36.855 26.356 37.2853 26.3868 37.7455 26.3956C38.3496 26.4077 38.9538 26.3824 39.5548 26.32C39.1917 25.9861 38.8104 25.6726 38.4126 25.381Z" fill="#FFD35C"/>
<path d="M41.08 65.3611C40.7042 65.1763 40.3416 65.0188 39.9984 64.8833C40.1744 63.866 40.3519 62.8487 40.5308 61.8314C40.0838 62.1658 39.6612 62.5316 39.2663 62.9261C38.928 63.2637 38.6103 63.6213 38.315 63.9971C37.9243 63.817 37.523 63.6199 37.1112 63.4057C36.5915 63.1351 36.08 62.8489 35.5773 62.5477C35.8915 63.1092 36.2048 63.7093 36.5092 64.3482C36.6665 64.6791 36.8131 65.0044 36.9492 65.3241C36.6166 65.5881 36.2681 65.8873 35.9117 66.2244C35.4933 66.6209 35.097 67.0401 34.7246 67.4801C35.2957 67.3869 37.3523 67.0877 37.7897 67.0305C37.9269 67.4062 38.0906 67.8057 38.2851 68.222C38.5415 68.7696 38.8313 69.3009 39.1528 69.813C39.4446 68.8183 39.6191 67.7929 39.6729 66.7577C40.7054 66.6942 41.7312 66.5486 42.7405 66.3221C42.209 65.9652 41.6542 65.6441 41.08 65.3611Z" fill="#76D3DE"/>
<path d="M108.17 24.9278C107.919 24.8046 107.677 24.699 107.446 24.6084C107.564 23.9278 107.682 23.2473 107.803 22.5668C107.504 22.7911 107.222 23.0357 106.957 23.2989C106.731 23.5249 106.518 23.7644 106.321 24.0161C106.057 23.8947 105.793 23.7627 105.516 23.6201C105.151 23.4301 104.812 23.2373 104.489 23.0455C104.7 23.4213 104.909 23.8234 105.113 24.2502C105.218 24.472 105.316 24.6896 105.409 24.9032C105.169 25.0938 104.938 25.2946 104.715 25.5051C104.436 25.7707 104.171 26.0512 103.923 26.3455C104.305 26.283 105.683 26.0815 105.973 26.0445C106.061 26.2962 106.174 26.5637 106.304 26.8418C106.476 27.2078 106.67 27.5631 106.885 27.9057C106.978 27.589 107.053 27.2673 107.111 26.9421C107.173 26.5849 107.213 26.2244 107.232 25.8624C107.924 25.8187 108.61 25.721 109.286 25.5702C108.929 25.3317 108.556 25.1171 108.17 24.9278ZM53.3272 80.0853C52.8094 78.439 51.6714 77.0587 50.154 76.2365C48.6366 75.4143 46.8588 75.2147 45.1968 75.68C44.2044 75.9925 43.3092 76.5552 42.5973 77.314C41.8854 78.0728 41.3808 79.002 41.1321 80.0123C39.4337 87.6736 51.6587 90.2071 53.4055 82.735C53.6037 81.8594 53.5767 80.9477 53.3272 80.0853Z" fill="#FFD35C"/>
<path d="M55.1683 81.6974C56.0916 81.5437 56.9937 81.282 57.8559 80.9177C58.0593 80.836 58.244 80.7138 58.3989 80.5586C58.5538 80.4034 58.6756 80.2184 58.757 80.0149C58.9127 79.4446 58.3592 79.1208 57.9025 78.9756C56.7237 78.6826 55.5061 78.5775 54.2945 78.6641L54.0226 78.6702C53.5535 78.6861 53.5509 79.4173 54.0226 79.4015C54.9468 79.3629 55.8725 79.3943 56.7919 79.4957C57.0646 79.5263 57.3346 79.5769 57.5998 79.647C58.0345 79.7676 58.2809 79.8371 57.6482 80.2049C57.3855 80.3409 57.1098 80.4503 56.8254 80.5314C56.3706 80.669 55.9106 80.7888 55.4464 80.8905C54.1783 81.1773 52.8944 81.3947 51.6079 81.5945C49.5944 81.9051 47.5713 82.1568 45.5438 82.3724C44.4168 81.984 43.2933 81.5848 42.1734 81.1747C40.8994 80.708 39.6357 80.2136 38.3832 79.6919C37.5548 79.3655 36.7495 78.9833 35.9729 78.5479C35.943 78.5303 35.9157 78.5101 35.8849 78.4925C35.9832 78.4739 36.0825 78.4619 36.1823 78.4564C37.6459 78.4519 39.1017 78.6684 40.5005 79.0988C40.6079 79.1261 40.7152 79.1533 40.8226 79.1824C40.9134 79.2007 41.0078 79.184 41.0868 79.1355C41.1657 79.087 41.2233 79.0104 41.248 78.921C41.2727 78.8317 41.2626 78.7364 41.2197 78.6542C41.1768 78.5721 41.1044 78.5092 41.0171 78.4784C39.7512 78.1181 38.4552 77.8739 37.1451 77.7489C36.454 77.6069 35.7352 77.7024 35.1052 78.0199C35.0429 78.0648 34.9918 78.1236 34.9561 78.1917C34.9204 78.2597 34.9011 78.3351 34.8995 78.4119C34.898 78.4888 34.9143 78.5649 34.9473 78.6343C34.9802 78.7037 35.0289 78.7645 35.0894 78.8119C35.6561 79.2732 36.2983 79.6331 36.9875 79.8758C37.7584 80.2278 38.5407 80.5473 39.3275 80.8605C38.2285 81.0574 37.1481 81.3468 36.0979 81.7256C35.407 81.8932 34.791 82.2846 34.3458 82.8388C34.3076 82.9079 34.2862 82.9851 34.2835 83.0641C34.2808 83.1431 34.2968 83.2216 34.3301 83.2932C34.3635 83.3648 34.4133 83.4276 34.4755 83.4763C34.5377 83.525 34.6106 83.5583 34.6881 83.5736C35.402 83.7454 36.1395 83.7975 36.8705 83.7276C38.1905 83.7117 39.5035 83.6308 40.8173 83.5349C42.3614 83.421 43.9043 83.2817 45.4461 83.1169C46.989 83.6449 48.5396 84.1453 50.0978 84.6181C51.482 85.0388 52.8751 85.4392 54.2831 85.7736C55.2083 86.0332 56.159 86.1919 57.1184 86.247C57.5569 86.2795 57.992 86.1502 58.3416 85.8836C58.7816 85.4797 58.5176 84.9367 58.1656 84.5847C57.6799 84.1449 57.1352 83.7749 56.5473 83.4856C56.0387 83.2075 55.5177 82.9576 54.9897 82.7165C54.9017 82.6769 54.8137 82.6373 54.7257 82.5994C54.298 82.4164 53.9258 83.0456 54.357 83.2304C55.2415 83.5988 56.0949 84.0379 56.909 84.5433C57.1412 84.684 57.3609 84.8444 57.5655 85.0229C57.9861 85.404 57.8875 85.3934 57.3895 85.5061C57.3578 85.5061 57.3261 85.5122 57.2944 85.5131C56.9843 85.5186 56.6742 85.4971 56.3678 85.4489C55.8931 85.3755 55.4211 85.2854 54.9527 85.1787C53.6776 84.8945 52.4175 84.5433 51.1687 84.1746C49.8291 83.7784 48.496 83.3604 47.17 82.9206C48.4082 82.7762 49.6444 82.6154 50.8783 82.4384C52.3101 82.2281 53.7463 81.9984 55.1683 81.6974ZM42.1443 82.698C40.7777 82.8124 39.4084 82.9101 38.0374 82.962C37.1288 83.0205 36.2173 83.0161 35.3094 82.9488L35.2513 82.9426C35.3595 82.8667 35.4724 82.7977 35.5892 82.7358C36.2837 82.4001 37.0133 82.1424 37.7646 81.9676C38.4167 81.7916 39.0749 81.6464 39.7375 81.5197C39.8431 81.4991 39.9487 81.4798 40.0543 81.4616C40.1135 81.455 40.1691 81.43 40.2135 81.3903C40.2578 81.3505 40.2886 81.2979 40.3016 81.2398C40.4283 81.2882 40.5524 81.3393 40.6783 81.3877C41.7211 81.7863 42.7709 82.1682 43.8225 82.5422C43.2611 82.5977 42.7014 82.6505 42.1426 82.698H42.1443Z" fill="#B26EE6"/>
<path d="M132.127 23.0982C131.943 22.3093 131.563 21.5799 131.02 20.9783C129.949 19.846 128.48 19.1747 126.922 19.1066C125.365 19.0384 123.843 19.5787 122.677 20.6131C121.995 21.2592 121.491 22.0698 121.212 22.967C120.934 23.8643 120.892 24.818 121.088 25.7365C122.737 32.626 133.661 29.854 132.127 23.0982Z" fill="#76D3DE"/>
<path d="M119.888 19.888C120.722 20.4503 121.573 20.9865 122.44 21.4957C124.662 22.8175 126.93 24.0592 129.244 25.2208C130.243 25.7224 131.25 26.209 132.279 26.6464C132.942 26.9669 133.64 27.2099 134.359 27.3706C134.709 27.4558 135.079 27.4079 135.397 27.236C135.808 26.9658 135.7 26.4757 135.456 26.1325C134.774 25.32 133.953 24.6347 133.032 24.1085C132.636 23.8524 132.27 24.4851 132.664 24.7394C133.26 25.1167 133.824 25.5416 134.351 26.0101C134.572 26.1925 134.765 26.408 134.921 26.649C134.189 26.6203 133.474 26.4285 132.826 26.0876C131.917 25.7049 131.021 25.292 130.139 24.8494C127.982 23.7816 125.861 22.642 123.78 21.4324C122.317 20.6105 120.901 19.7095 119.536 18.7334H119.554C120.714 18.9407 121.836 19.3225 122.882 19.866C123.304 20.064 123.674 19.4339 123.25 19.235C122.33 18.7893 121.371 18.4291 120.386 18.1588C119.85 17.9471 119.257 17.9293 118.709 18.1086C118.651 18.1396 118.601 18.1825 118.561 18.2346C118.521 18.2867 118.493 18.3467 118.478 18.4106C118.464 18.4745 118.463 18.5407 118.476 18.6049C118.489 18.6691 118.516 18.7297 118.555 18.7827C118.922 19.2348 119.375 19.6103 119.888 19.888Z" fill="#B26EE6"/>
<path d="M135.656 29.4721C134.877 28.5192 133.94 27.7074 132.886 27.0723C132.496 26.8083 132.129 27.4411 132.518 27.7042C133.215 28.1674 133.873 28.6869 134.486 29.2574C134.763 29.4909 134.994 29.7745 135.166 30.0934C135.018 30.1249 134.867 30.1391 134.715 30.1356C132.902 29.5702 131.154 28.816 129.499 27.8855C126.98 26.5729 124.506 25.1759 122.082 23.6967C120.303 22.7146 118.613 21.5785 117.032 20.3016C117.8 20.3924 118.55 20.598 119.257 20.9115C119.81 21.1244 120.354 21.3603 120.89 21.6155L121.154 21.7422C121.574 21.9499 121.946 21.3198 121.522 21.1112C120.454 20.5662 119.338 20.1211 118.189 19.7815C117.582 19.5265 116.906 19.4932 116.277 19.6874C116.217 19.7203 116.164 19.766 116.123 19.8212C116.082 19.8764 116.053 19.9399 116.038 20.0072C116.024 20.0746 116.024 20.1443 116.04 20.2115C116.055 20.2787 116.084 20.3419 116.126 20.3967C116.275 20.6099 116.458 20.7977 116.668 20.9528C116.986 21.2168 117.32 21.4667 117.657 21.707C118.625 22.3969 119.624 23.0367 120.631 23.6641C123.183 25.2534 125.79 26.752 128.453 28.16C129.617 28.776 130.792 29.3753 131.993 29.92C132.762 30.3093 133.572 30.6112 134.409 30.8203C134.801 30.9254 135.218 30.8842 135.583 30.7041C136.055 30.4102 135.922 29.8575 135.656 29.4721ZM42.446 14.799C40.3536 16.4884 38.3749 18.3139 36.5228 20.2638C36.1989 20.6043 36.7146 21.1227 37.0393 20.7803C38.8914 18.8305 40.8702 17.0049 42.9626 15.3155C43.3287 15.0207 42.8086 14.5068 42.446 14.799ZM49.4561 11.9883C46.4997 14.2078 43.6715 16.5932 40.9852 19.133C40.6429 19.4568 41.1612 19.9734 41.5018 19.6495C44.1411 17.1504 46.9202 14.8031 49.8257 12.6192C50.1997 12.3403 49.8363 11.704 49.4561 11.9883ZM48.6034 16.6672C47.2271 17.8405 45.8484 19.0109 44.4674 20.1784C44.3999 20.2475 44.3622 20.3402 44.3622 20.4367C44.3622 20.5332 44.3999 20.6259 44.4674 20.695C44.5371 20.7615 44.6298 20.7986 44.7261 20.7986C44.8225 20.7986 44.9151 20.7615 44.9848 20.695L49.1208 17.1838C49.1887 17.1149 49.2268 17.0222 49.2268 16.9255C49.2268 16.8288 49.1887 16.736 49.1208 16.6672C49.0514 16.6001 48.9587 16.5626 48.8621 16.5626C48.7656 16.5626 48.6728 16.6001 48.6034 16.6672ZM133.543 36.4083C132.568 37.9166 131.539 39.3859 130.454 40.8162C130.406 40.9002 130.393 40.9997 130.417 41.0933C130.442 41.1869 130.502 41.2672 130.585 41.3169C130.669 41.3634 130.768 41.3757 130.862 41.3513C130.955 41.3269 131.035 41.2676 131.086 41.1858C132.169 39.7549 133.198 38.2856 134.174 36.7779C134.43 36.381 133.797 36.0149 133.543 36.4083ZM142.902 38.4507C142.853 38.3677 142.772 38.3074 142.679 38.2829C142.585 38.2584 142.486 38.2716 142.402 38.3196C140.472 39.8103 138.542 41.3002 136.61 42.7891C136.529 42.8403 136.471 42.9204 136.446 43.0132C136.422 43.106 136.434 43.2046 136.479 43.289C136.529 43.3721 136.609 43.4325 136.702 43.4571C136.796 43.4816 136.895 43.4683 136.979 43.4201L142.771 38.9515C142.853 38.9001 142.911 38.8199 142.936 38.7269C142.96 38.634 142.948 38.5353 142.902 38.4507ZM141.341 47.3845L137.796 48.5021C137.349 48.6438 137.541 49.3495 137.99 49.2061L141.536 48.0876C141.983 47.9477 141.792 47.2419 141.341 47.3845Z" fill="#B26EE6"/>
<path d="M95.7234 167.143L86.955 167.399C86.8582 167.399 86.7653 167.437 86.6968 167.506C86.6283 167.574 86.5898 167.667 86.5898 167.764C86.5898 167.861 86.6283 167.954 86.6968 168.022C86.7653 168.091 86.8582 168.129 86.955 168.129L95.7234 167.874C95.8172 167.869 95.9057 167.829 95.9705 167.761C96.0354 167.693 96.0715 167.602 96.0715 167.508C96.0715 167.414 96.0354 167.324 95.9705 167.256C95.9057 167.188 95.8172 167.147 95.7234 167.143ZM100.468 170.425C98.893 169.976 97.2386 169.875 95.6204 170.13C95.5274 170.157 95.4485 170.219 95.4008 170.303C95.353 170.387 95.3403 170.487 95.3652 170.58C95.3927 170.672 95.4547 170.75 95.5383 170.798C95.622 170.845 95.7207 170.859 95.814 170.835C97.3044 170.609 98.8262 170.71 100.274 171.13C100.365 171.15 100.461 171.135 100.542 171.086C100.622 171.038 100.681 170.961 100.706 170.87C100.731 170.78 100.72 170.683 100.676 170.6C100.632 170.517 100.557 170.455 100.468 170.425ZM122.034 170.667C119.732 170.733 117.43 170.8 115.129 170.869C114.66 170.883 114.658 171.614 115.129 171.599L122.034 171.398C122.502 171.384 122.504 170.654 122.034 170.667ZM150.03 166.923C147.666 167.023 145.301 167.04 142.934 166.975C142.838 166.975 142.745 167.013 142.676 167.082C142.608 167.15 142.569 167.243 142.569 167.34C142.569 167.437 142.608 167.53 142.676 167.598C142.745 167.667 142.838 167.705 142.934 167.705C145.299 167.771 147.664 167.753 150.03 167.653C150.498 167.634 150.501 166.903 150.03 166.923Z" fill="#76D3DE"/>
<path d="M104.675 94.5842C104.189 98.1438 103.968 101.735 104.015 105.327C104.028 106.349 104.066 107.37 104.13 108.39C104.132 108.444 104.147 108.496 104.171 108.545C104.191 108.593 104.222 108.636 104.262 108.67C104.301 108.704 104.348 108.729 104.398 108.743C113.462 111.415 127.292 112.531 136.811 108.743C136.886 108.718 136.951 108.671 136.999 108.608C137.046 108.545 137.073 108.469 137.075 108.391C137.719 100.25 137.228 87.6876 134.444 79.3963C133.6 76.6064 132.204 74.0144 130.34 71.7737C129.484 70.7937 128.468 69.9657 127.335 69.3247C127.579 68.3787 128.734 63.8308 129.073 62.5055C130.792 62.7537 132.625 61.4064 132.253 59.532C132.158 59.161 131.974 58.8188 131.717 58.5351C131.46 58.2514 131.137 58.0348 130.777 57.904C131.786 57.0404 132.524 55.9046 132.904 54.6324C133.284 53.3602 133.29 52.0055 132.92 50.7303C131.493 45.1449 126.783 46.061 126.76 46.0663C127.078 46.0038 126.824 44.2913 126.775 44.0088C126.627 43.1215 126.151 42.3222 125.442 41.7692C123.16 40.033 121.058 41.6971 120.66 44.1408C119.679 42.9731 118.099 42.4688 116.87 43.5785C116.34 44.033 116.005 44.6746 115.935 45.3697C115.866 46.0649 116.067 46.7601 116.497 47.3106C116.497 47.3106 114.507 46.9991 113.822 50.2331C113.741 50.7553 113.767 51.2888 113.9 51.8005C114.032 52.3122 114.268 52.7913 114.593 53.2083C113.754 54.3375 113.185 55.6443 112.931 57.028C112.677 58.4117 112.743 59.8353 113.126 61.1891C113.711 63.2069 114.989 64.9542 116.734 66.1241C116.557 67.2598 116.462 68.4068 116.45 69.5561C115.794 69.9402 115.173 70.3819 114.596 70.8761C114.275 71.1489 113.97 71.4349 113.673 71.7306C109.714 69.4548 106.575 65.9866 104.704 61.8209C104.248 60.7831 103.879 59.7094 103.601 58.6107C103.521 58.7761 103.249 59.3252 103.194 59.4335C103.172 59.4766 103.146 59.5215 103.124 59.5628C103.966 62.4042 105.381 65.0434 107.28 67.3183C108.945 69.2934 110.935 70.969 113.165 72.2727C111.236 74.4695 109.687 76.9732 108.584 79.6805C108.276 80.3991 107.987 81.1256 107.718 81.8594C107.412 81.7051 107.109 81.5493 106.809 81.3921C104.532 80.2513 102.442 78.7716 100.609 77.0035C99.3468 75.7281 98.2341 74.313 97.2922 72.7857C97.2535 72.9617 97.1083 73.6437 97.074 73.8153C97.9767 75.1783 99.0154 76.4462 100.174 77.5993C101.956 79.3083 103.976 80.7498 106.171 81.8787C104.355 81.7352 102.566 81.3554 100.848 80.7488C98.305 79.8336 95.9576 78.4458 93.9298 76.6586C93.8717 76.6041 93.7979 76.5693 93.7189 76.5592C93.6399 76.5491 93.5597 76.5641 93.4898 76.6023C93.3474 76.6792 93.208 76.7614 93.0718 76.8487C92.9063 76.6559 92.7444 76.4597 92.5754 76.2731C91.5216 74.9917 90.2294 73.9267 88.7703 73.1368C88.1551 72.8098 87.4593 72.6654 86.7648 72.7206C85.6403 72.9055 84.5662 73.321 83.61 73.9411C82.7713 74.4227 82.0312 75.0583 81.4285 75.8147C81.095 76.2608 80.7658 76.9675 81.2666 77.4242C81.5687 77.6081 81.9117 77.7143 82.2648 77.7333C82.618 77.7523 82.9704 77.6836 83.2906 77.5333C83.032 77.8481 82.8382 78.2108 82.7203 78.6007C82.6185 78.9522 82.6524 79.3291 82.8154 79.6567C82.9784 79.9844 83.2586 80.2388 83.6003 80.3695C83.9437 80.4622 84.3029 80.4808 84.654 80.4239C85.0051 80.367 85.3401 80.2359 85.6366 80.0395C85.4235 80.4602 85.3146 80.9259 85.319 81.3974C85.3128 81.5252 85.3321 81.6529 85.3756 81.7732C85.4191 81.8935 85.4861 82.004 85.5726 82.0983C85.6591 82.1925 85.7634 82.2687 85.8795 82.3224C85.9957 82.3761 86.1213 82.4063 86.2491 82.4111C86.7887 82.3752 87.3097 82.1996 87.761 81.9016C88.0305 81.7496 88.2919 81.5837 88.5442 81.4044C88.663 81.5118 88.7818 81.6191 88.8962 81.7283C88.8249 81.8717 88.7483 82.0125 88.6814 82.1577C88.366 82.8484 88.1053 83.5628 87.9018 84.2943C87.7918 84.6939 87.6994 85.0987 87.6228 85.5061C87.5912 85.5908 87.5817 85.6822 87.5951 85.7716C87.6085 85.861 87.6444 85.9456 87.6994 86.0174C87.8828 86.2089 88.0789 86.388 88.2863 86.5533C88.7457 86.9563 89.2191 87.3453 89.7014 87.7211C91.2813 88.9594 92.9568 90.0708 94.7121 91.0448C97.0066 92.3311 99.4501 93.3312 101.988 94.0227C102.873 94.2562 103.77 94.4436 104.675 94.5842ZM125.378 71.6531C124.146 72.6968 120.293 73.4272 118.25 72.6669C117.933 72.5764 117.662 72.3659 117.497 72.0799C117.346 71.7255 117.257 71.3478 117.233 70.9632C117.115 69.4831 117.174 67.9942 117.409 66.528C118.152 66.9321 118.954 67.2171 119.785 67.3728C121.276 67.6354 122.81 67.4946 124.228 66.9649C125.646 66.4353 126.897 65.5361 127.85 64.3606C126.406 70.0207 126.405 70.7828 125.378 71.6531ZM114.22 62.0611C113.636 60.7304 113.406 59.2716 113.552 57.8259C113.698 56.3802 114.215 54.9967 115.052 53.8094C115.132 53.6994 115.21 53.5894 115.295 53.4829C116.214 52.3217 117.446 51.4487 118.846 50.9677C120.246 50.4868 121.755 50.4181 123.193 50.7699C124.633 51.1659 125.934 51.9538 126.952 53.0457C127.97 54.1377 128.665 55.4909 128.96 56.9545C129.036 57.3282 129.088 57.7066 129.114 58.0871C129.115 58.1838 129.153 58.2764 129.222 58.3449C129.29 58.4133 129.382 58.4522 129.479 58.4531C129.677 58.4353 129.875 58.4418 130.071 58.4725C130.416 58.5046 130.743 58.6417 131.008 58.8653C131.273 59.0889 131.463 59.3882 131.552 59.723C131.845 61.1917 130.144 62.0726 128.906 61.7215C128.08 61.4856 127.05 66.9663 121.068 66.7806C119.601 66.7077 118.183 66.2278 116.974 65.3945C115.764 64.5612 114.811 63.4076 114.22 62.0629V62.0611ZM88.831 80.6811C88.7736 80.6256 88.6997 80.59 88.6205 80.5797C88.5413 80.5694 88.4608 80.5849 88.391 80.6239C88.0831 80.8565 87.7597 81.0679 87.423 81.2566C87.1871 81.396 86.9377 81.5113 86.6786 81.6007C86.5695 81.6394 86.4565 81.6656 86.3415 81.679C86.2729 81.6929 86.2016 81.6833 86.1391 81.6517C86.059 81.6007 86.0406 81.2583 86.074 81.0647C86.1405 80.7359 86.2543 80.4184 86.4119 80.1223C86.6212 79.7013 86.8696 79.3009 87.1538 78.9263C87.4178 78.5849 86.8695 78.2135 86.5791 78.4863C86.3224 78.7218 86.0466 78.9354 85.7546 79.1252C85.282 79.5044 84.6995 79.7205 84.094 79.7412C83.9826 79.7354 83.874 79.7044 83.7763 79.6506C83.6786 79.5968 83.5944 79.5215 83.5299 79.4305C83.4655 79.3395 83.4225 79.235 83.4042 79.125C83.3859 79.015 83.3928 78.9022 83.4243 78.7952C83.6391 78.2456 83.9974 77.7636 84.4618 77.3995C84.7541 77.1255 85.0681 76.8756 85.4008 76.6524C85.4794 76.601 85.5351 76.5213 85.5566 76.4298C85.578 76.3384 85.5635 76.2422 85.5161 76.1612C85.4686 76.0801 85.3918 76.0204 85.3015 75.9944C85.2113 75.9684 85.1145 75.9781 85.0312 76.0215C84.6644 76.2196 84.2862 76.3959 83.8986 76.5495C83.302 76.8585 82.6336 77.0026 81.9626 76.9666C81.7514 76.927 81.6687 76.8874 81.8086 76.5855C81.8753 76.4475 81.9567 76.3171 82.0515 76.1966C82.5997 75.5302 83.2673 74.9719 84.0201 74.5501C84.869 74.0015 85.8179 73.6259 86.8123 73.4448C87.4021 73.3978 87.9925 73.5287 88.5072 73.8206C89.8006 74.5444 90.9531 75.4953 91.9093 76.6278C92.1046 76.8407 92.2868 77.0572 92.4742 77.2728C91.8325 77.7861 91.243 78.3615 90.7142 78.9906C90.1648 79.6352 89.6767 80.3296 89.2561 81.0647C89.1126 80.9371 88.9736 80.806 88.831 80.6811ZM93.5223 89.4995C92.2776 88.7315 91.0796 87.8902 89.9346 86.9801C89.389 86.5445 88.8786 86.0684 88.3506 85.6196C88.5786 84.4581 88.9517 83.3299 89.4611 82.2615C89.5157 82.148 89.5738 82.0354 89.631 81.9227C90.5491 80.081 91.9308 78.5101 93.6402 77.3643C97.4824 80.6734 102.35 82.5527 107.419 82.6839H108.195C112.38 82.6087 116.469 81.4178 120.04 79.2343C122.373 77.8047 124.456 76.002 126.206 73.898C126.228 73.8699 126.253 73.8435 126.276 73.8144C126.573 73.4554 126.059 72.9344 125.759 73.2987C122.758 76.9655 118.736 79.6583 114.202 81.0357C112.338 81.5879 110.409 81.8923 108.465 81.9412C110.072 77.6037 112.576 72.9133 116.466 70.4053V70.4458C116.506 71.2615 116.57 72.3571 117.249 72.9247C118.159 73.5173 119.24 73.7909 120.322 73.7027C121.715 73.7191 123.099 73.4805 124.406 72.9987C125.059 72.805 125.652 72.4462 126.126 71.957C126.6 71.4677 126.94 70.8645 127.114 70.2055L127.148 70.0762C127.697 70.3872 128.214 70.7508 128.692 71.1621C130.683 73.0305 132.204 75.3441 133.129 77.9135C136.148 85.4665 136.737 96.1101 136.539 104.21C136.512 105.519 136.453 106.828 136.363 108.135C131.133 110.159 125.408 110.639 119.842 110.409C114.774 110.189 109.745 109.418 104.844 108.109C104.611 103.891 104.759 99.6609 105.284 95.4695C105.315 95.2107 105.353 94.952 105.387 94.6924C107.179 94.9285 108.991 94.9545 110.789 94.7699C114.198 94.3111 117.514 93.3196 120.616 91.8315C122.965 90.8115 125.164 89.4766 127.152 87.8636C128.354 86.888 129.403 85.7376 130.264 84.451C130.665 83.8749 130.977 83.2422 131.191 82.5739C131.199 82.5467 131.207 82.5185 131.214 82.4903C131.228 82.4218 131.223 82.3507 131.199 82.2848C131.175 82.2189 131.134 82.1609 131.079 82.1172C131.024 82.0735 130.959 82.0457 130.889 82.037C130.82 82.0283 130.749 82.039 130.686 82.0679C130.641 82.09 130.602 82.1219 130.571 82.1614C130.541 82.201 130.52 82.2469 130.51 82.2959C130.133 83.3448 129.566 84.3155 128.838 85.1594C126.457 87.809 123.504 89.8814 120.203 91.2191C118.962 91.7702 117.696 92.2626 116.409 92.6948C108.261 95.4563 100.948 94.0958 93.5223 89.496V89.4995ZM137.316 163.603C136.822 163.094 136.204 162.72 135.524 162.52C134.843 162.319 134.122 162.298 133.43 162.459C129.982 163.132 126.595 164.084 123.302 165.306C122.663 165.513 122.093 165.889 121.653 166.396C121.448 166.661 121.349 166.994 121.377 167.328C121.405 167.662 121.557 167.974 121.804 168.201C122.177 168.423 122.613 168.516 123.044 168.465L137.124 168.308C137.336 168.372 137.56 168.385 137.778 168.346C137.996 168.307 138.201 168.217 138.378 168.083C138.555 167.95 138.697 167.777 138.795 167.578C138.892 167.379 138.941 167.16 138.937 166.939C138.951 166.294 138.81 165.655 138.528 165.076C138.247 164.496 137.831 163.991 137.316 163.603ZM117.474 164.58C116.905 163.939 116.267 163.363 115.572 162.861C113.9 161.704 111.338 162.654 109.514 163.075C107.141 163.626 104.818 164.373 102.569 165.309C101.93 165.515 101.36 165.892 100.92 166.398C100.714 166.664 100.616 166.996 100.643 167.33C100.671 167.665 100.824 167.977 101.07 168.204C101.443 168.425 101.879 168.518 102.31 168.468L116.39 168.311C117.894 168.5 118.625 166.94 118.19 165.639C118.029 165.24 117.785 164.879 117.474 164.58Z" fill="black"/>
<path d="M117.054 59.0093C116.845 60.3997 116.867 62.7053 119.299 62.7053C121.704 62.7053 122.151 60.7631 122.198 59.561C122.208 59.2907 122.119 59.0262 121.947 58.8168C121.776 58.6074 121.535 58.4675 121.268 58.4232C120.388 58.2736 119.13 58.1442 118.265 58.0633C117.981 58.0369 117.697 58.1201 117.472 58.2959C117.247 58.4717 117.097 58.7269 117.054 59.0093Z" fill="black"/>
<path d="M123.621 57.7439C123.621 57.9212 123.692 58.0914 123.817 58.2168C123.942 58.3422 124.113 58.4127 124.29 58.4127C124.467 58.4127 124.637 58.3422 124.763 58.2168C124.888 58.0914 124.959 57.9212 124.959 57.7439C124.959 57.5665 124.888 57.3964 124.763 57.271C124.637 57.1455 124.467 57.0751 124.29 57.0751C124.113 57.0751 123.942 57.1455 123.817 57.271C123.692 57.3964 123.621 57.5665 123.621 57.7439Z" fill="black"/>
<path d="M117.558 55.3186C117.558 55.1861 117.519 55.0566 117.446 54.9463C117.372 54.8361 117.268 54.7501 117.145 54.6993C117.023 54.6485 116.888 54.6351 116.758 54.6608C116.628 54.6866 116.509 54.7503 116.415 54.8439C116.321 54.9375 116.258 55.0568 116.232 55.1868C116.206 55.3167 116.219 55.4514 116.27 55.5738C116.32 55.6962 116.406 55.8009 116.516 55.8745C116.626 55.9481 116.756 55.9874 116.888 55.9874C117.066 55.9874 117.236 55.917 117.362 55.7916C117.487 55.6662 117.558 55.4961 117.558 55.3186ZM125.907 55.2966C126.222 55.8554 126.055 56.4353 126.515 56.4142C126.691 56.4072 126.906 56.2523 126.88 56.049C126.833 55.4409 126.574 54.8683 126.15 54.4307C125.883 54.1793 125.556 54.0029 125.199 53.9194C125.11 53.8988 125.019 53.8855 124.928 53.8798C124.831 53.8807 124.739 53.9196 124.671 53.9881C124.602 54.0566 124.564 54.1492 124.563 54.2459C124.584 54.7158 125.463 54.5143 125.907 55.2966ZM116.446 53.3747C116.886 53.6308 116.859 53.028 117.654 52.8581C118.059 52.7987 118.472 52.8745 118.83 53.0737C118.914 53.1199 119.013 53.1321 119.105 53.1077C119.198 53.0833 119.278 53.0242 119.329 52.9426C119.377 52.8586 119.39 52.7591 119.365 52.6655C119.341 52.5718 119.281 52.4916 119.198 52.4419C118.882 52.2616 118.532 52.1528 118.17 52.1233C117.808 52.0938 117.444 52.1443 117.104 52.2712C116.792 52.3994 116.519 52.6073 116.312 52.874C116.264 52.9583 116.251 53.0581 116.276 53.1518C116.301 53.2455 116.362 53.3256 116.446 53.3747Z" fill="black"/>
<defs>
<linearGradient id="paint0_linear_21297_22725" x1="68.4209" y1="161.132" x2="156.113" y2="48.9663" gradientUnits="userSpaceOnUse">
<stop stop-color="#53389E"/>
<stop offset="1" stop-color="#6941C6"/>
</linearGradient>
</defs>
</svg>
