<svg width="480" height="320" viewBox="0 0 480 320" fill="none" xmlns="http://www.w3.org/2000/svg">
<rect width="480" height="320" fill="#FFF0D9"/>
<path d="M265.68 88.3808C262.104 88.9808 252.19 90.7104 258.842 85.1184C261.293 83.0592 261.882 79.2144 257.637 79.856L251.101 80.8496C250.212 81.0416 249.295 81.0634 248.398 80.9136C246.51 80.4672 246.291 79.0992 247.358 77.7232C248.265 76.8143 249.287 76.0289 250.398 75.3872C256.266 70.9744 246.102 70.6464 243.578 71.016C234.475 72.3456 225.739 76.2256 216.805 78.0464C216.129 78.1808 215.427 78.0544 214.84 77.6924C214.253 77.3304 213.826 76.7597 213.643 76.0951C213.46 75.4305 213.535 74.7212 213.854 74.1099C214.172 73.4986 214.71 73.0306 215.36 72.8L215.469 72.7632L230.776 67.5584C234.122 66.4192 237.656 65.1584 239.875 62.4096C236.915 59.632 231.931 60.6112 228.262 60.2608C226.8 60.1216 224.275 60.0672 223.197 58.8496C221.037 56.408 224.563 55.5552 226.821 54.4416C237.147 49.3424 248.632 47.688 259.882 45.7296C259.187 44.888 258.468 44.0672 257.725 43.2672C249.758 34.6788 239.308 28.7929 227.834 26.4316C216.36 24.0702 204.435 25.3513 193.725 30.096C194.954 30.9198 195.936 32.0632 196.565 33.4032C196.822 33.917 196.926 34.4942 196.864 35.0656C196.687 35.7635 196.283 36.3827 195.715 36.8256C193.4 38.9264 190.296 39.8656 187.418 41.0864C185.506 41.8992 182.515 43.4864 181.406 45.304C179.006 49.2096 183.282 47.4528 184.126 50.4832C185.592 55.7296 172.738 58.4624 164.618 59.7888C159.603 71.5595 158.808 84.7009 162.366 96.9904C167.974 96.0896 173.566 95.032 179.184 94.2384C184.735 93.2159 190.36 92.6429 196.003 92.5248C199.523 92.6032 201.877 94.2352 197.869 96.9408C196.568 97.8192 195.046 98.3536 193.821 99.3328C193.169 99.7722 192.67 100.405 192.395 101.141C192.121 101.878 192.083 102.682 192.288 103.442C192.684 104.128 193.277 104.679 193.991 105.023C194.704 105.367 195.505 105.488 196.288 105.371C202.437 105.051 208.347 102.8 214.542 102.779C217.242 102.779 220.747 103.011 222.936 104.827C227.13 108.306 219.651 110.224 216.442 110.893C210.157 112.203 202.928 110.848 197.576 115.213C196.48 116.107 195.506 117.678 196.296 118.851C196.575 119.167 196.914 119.423 197.293 119.607C197.672 119.79 198.084 119.896 198.504 119.918C202.773 120.625 207.137 120.533 211.373 119.648C212.078 119.407 212.848 119.438 213.533 119.733C217.533 122.195 207.694 124.941 206.992 125.589C202.426 129.81 215.568 130.645 208.394 134.229C204.085 136.154 199.529 137.471 194.858 138.142C195.954 139.478 197.018 140.843 198.011 142.259C203.345 149.892 207.036 158.549 208.85 167.683L254.96 158.981C253.378 150.241 253.556 141.273 255.483 132.603C255.552 132.283 255.843 131.04 255.92 130.731C256.621 127.926 257.505 125.17 258.568 122.482C259.661 119.72 260.936 117.035 262.386 114.443C264.413 111.223 266.253 107.889 267.894 104.456C270.364 98.9025 271.915 92.985 272.488 86.9344C270.239 87.5093 267.968 87.9919 265.68 88.3808ZM208.992 44.192C208.169 44.4801 207.293 44.5892 206.424 44.512C206.316 44.4913 206.213 44.4486 206.122 44.3865C206.032 44.3243 205.955 44.2441 205.896 44.1509C205.838 44.0576 205.799 43.9533 205.783 43.8445C205.767 43.7357 205.773 43.6246 205.802 43.5184C206.011 42.7328 206.864 42.168 207.499 41.7488C208.789 40.9349 210.153 40.2454 211.573 39.6896C212.365 39.3696 212.707 40.6496 211.926 40.9696C210.538 41.5365 209.205 42.2329 207.947 43.0496C209.77 42.6882 211.569 42.2137 213.333 41.6288C212.668 40.1177 212.588 38.4134 213.108 36.8465C213.628 35.2797 214.712 33.9619 216.149 33.1488C217.847 32.2403 219.831 32.0282 221.683 32.5574C223.535 33.0866 225.107 34.3155 226.069 35.984C226.236 36.3064 226.376 36.6425 226.486 36.9888C227.09 36.7376 227.69 36.4784 228.282 36.2032C229.171 35.8485 229.999 35.3548 230.734 34.7408C229.381 34.7478 228.035 34.9416 226.734 35.3168C226.569 35.3502 226.398 35.3197 226.254 35.2315C226.111 35.1433 226.006 35.004 225.961 34.8416C225.916 34.6792 225.934 34.5059 226.012 34.3565C226.09 34.2071 226.222 34.0929 226.381 34.0368C226.485 34.0096 226.59 33.984 226.701 33.96C228.042 33.556 229.441 33.3755 230.842 33.4256C231.482 33.4944 232.221 33.7952 232.219 34.5584C232.19 34.8325 232.104 35.0975 231.966 35.3361C231.829 35.5748 231.642 35.7819 231.419 35.944C230.557 36.583 229.615 37.1069 228.618 37.5024C228.001 37.7795 227.38 38.0462 226.755 38.3024C226.771 38.4864 226.786 38.6704 226.784 38.8512C226.704 45.8272 217.442 47.2432 214.018 42.7904C213.754 42.8704 213.493 42.9632 213.23 43.0416C211.84 43.4592 210.421 43.864 208.992 44.192ZM218.88 89.2384C218.651 89.2674 218.421 89.2887 218.19 89.3024C218.161 89.8842 218.063 90.4605 217.898 91.0192C217.717 90.731 217.554 90.4323 217.41 90.1248C217.308 89.906 217.215 89.6828 217.133 89.456C216.886 89.488 215.731 89.656 215.41 89.7088C215.618 89.4611 215.841 89.2256 216.077 89.0032C216.277 88.8128 216.474 88.6464 216.659 88.496C216.428 87.9635 216.171 87.4428 215.888 86.936C216.157 87.096 216.443 87.256 216.749 87.416C216.981 87.5365 217.207 87.6474 217.426 87.7488C217.591 87.5372 217.769 87.3363 217.96 87.1472C218.182 86.925 218.419 86.7192 218.67 86.5312L218.371 88.2464C218.565 88.3216 218.768 88.4064 218.979 88.5136C219.302 88.6734 219.614 88.8541 219.914 89.0544C219.572 89.1329 219.227 89.1943 218.88 89.2384ZM219.178 155.302C218.847 155.344 218.516 155.375 218.184 155.395C218.161 155.834 218.112 156.27 218.035 156.702C217.966 157.096 217.875 157.485 217.763 157.869C217.502 157.455 217.268 157.024 217.061 156.581C216.913 156.267 216.779 155.947 216.659 155.621C216.304 155.667 214.638 155.91 214.176 155.986C214.478 155.63 214.798 155.291 215.136 154.97C215.424 154.696 215.707 154.454 215.978 154.24C215.643 153.472 215.271 152.722 214.862 151.99C215.25 152.224 215.664 152.456 216.106 152.686C216.438 152.859 216.765 153.019 217.08 153.166C217.6 152.504 218.203 151.913 218.875 151.406L218.443 153.88C218.723 153.987 219.015 154.115 219.32 154.266C219.785 154.495 220.235 154.755 220.666 155.045C220.21 155.144 219.71 155.234 219.173 155.302H219.178ZM243.286 121.242C242.768 121.307 242.269 121.352 241.794 121.381C241.731 122.64 241.519 123.887 241.162 125.096C240.771 124.474 240.418 123.828 240.107 123.162C239.885 122.687 239.684 122.204 239.504 121.712C238.971 121.781 236.464 122.146 235.776 122.259C236.228 121.724 236.709 121.214 237.216 120.731C237.648 120.322 238.072 119.958 238.477 119.637C238.317 119.248 238.13 118.851 237.939 118.45C237.568 117.67 237.188 116.94 236.8 116.259C237.879 116.903 238.991 117.492 240.13 118.024C240.489 117.567 240.875 117.131 241.286 116.72C241.767 116.24 242.282 115.795 242.826 115.389C242.612 116.627 242.396 117.865 242.176 119.101C242.595 119.261 243.035 119.458 243.491 119.682C244.192 120.025 244.868 120.416 245.515 120.851C244.837 121.003 244.088 121.141 243.282 121.242H243.286Z" fill="#7D4AB4"/>
<path d="M226.762 38.3008C225.85 38.6784 224.932 39.0427 224.01 39.3936C220.721 40.6381 217.39 41.7705 214.024 42.7888C217.448 47.2416 226.71 45.8288 226.79 38.8496C226.79 38.6663 226.78 38.4832 226.762 38.3008ZM226.486 36.9888C226.376 36.6427 226.236 36.3065 226.069 35.984C225.108 34.3152 223.535 33.086 221.683 32.5568C219.832 32.0276 217.847 32.2399 216.149 33.1488C214.712 33.9619 213.628 35.2797 213.108 36.8466C212.588 38.4134 212.668 40.1177 213.333 41.6288L214.542 41.248C219.502 39.7024 223.77 38.1264 226.486 36.9888Z" fill="#F55555"/>
<path d="M273.075 70.8272C271.461 62.2547 267.913 54.1632 262.701 47.168C254.989 36.7961 244.011 29.3205 231.535 25.9444C219.059 22.5682 205.81 23.4878 193.92 28.5552C186.098 31.8886 179.114 36.9161 173.47 43.2752C167.898 49.5571 163.75 56.9697 161.31 65.0048C157.966 76.1056 158.054 87.958 161.564 99.0077C165.074 110.057 171.841 119.788 180.978 126.925C192.144 135.627 201.181 145.568 206.066 161.89C206.723 164.089 207.266 166.322 207.693 168.578C208.385 176.131 210.246 183.532 213.208 190.515C213.833 192.072 214.697 193.522 215.768 194.813C217.696 196.615 220.177 197.712 222.808 197.923C226.048 198.302 229.324 198.248 232.55 197.763C233.013 197.704 233.47 197.627 233.931 197.56C234.585 198.903 235.579 200.052 236.814 200.892C238.049 201.733 239.482 202.236 240.971 202.352C242.492 202.444 244.008 202.106 245.346 201.375C246.683 200.645 247.787 199.552 248.531 198.222C249.344 196.84 249.738 195.251 249.664 193.65C250.114 193.49 250.562 193.342 251.006 193.182C251.922 192.861 252.824 192.504 253.712 192.114C254.903 191.533 255.877 190.587 256.491 189.413C257.243 187.963 257.734 186.393 257.941 184.773C258.922 178.445 257.808 169.698 256.939 163.387C256.751 162.029 256.557 160.673 256.355 159.317C254.799 151.011 254.847 142.484 256.498 134.197C256.56 133.885 256.818 132.637 256.894 132.325C257.543 129.485 258.381 126.691 259.402 123.963C260.462 121.139 261.721 118.393 263.168 115.746C264.546 113.219 266.154 110.83 267.498 108.283C267.538 108.203 267.586 108.123 267.626 108.048C267.728 107.851 267.822 107.648 267.922 107.45C268.072 107.152 268.22 106.853 268.365 106.552C273.736 95.4572 275.385 82.9259 273.067 70.8192L273.075 70.8272ZM245.152 199.965C244.08 200.651 242.836 201.022 241.563 201.036C240.291 201.05 239.039 200.707 237.952 200.045C236.85 199.401 235.945 198.469 235.334 197.349C237.846 196.917 240.337 196.374 242.8 195.723C244.665 195.236 246.514 194.693 248.347 194.096C248.323 195.259 248.021 196.398 247.465 197.42C246.908 198.441 246.115 199.314 245.152 199.965ZM256.12 186.886C255.795 188.14 255.143 189.285 254.23 190.203C253.506 190.8 252.664 191.24 251.76 191.493C249.389 192.406 246.96 193.181 244.518 193.875C238.281 195.884 231.762 196.878 225.21 196.818C222.594 196.842 220.022 196.144 217.778 194.802C216.799 194.072 216.006 193.121 215.464 192.027C214.926 191.06 214.437 190.066 214 189.05C225.536 188.383 237.005 186.85 248.31 184.464C251.2 183.846 254.073 183.164 256.93 182.416C256.821 183.929 256.55 185.425 256.12 186.88V186.886ZM256.87 175.13C256.987 177.05 257.085 179.046 257.013 181.026C245.917 183.907 234.611 185.904 223.2 187C219.959 187.32 216.715 187.572 213.466 187.755C213.314 187.375 213.168 186.994 213.027 186.61C212.69 185.685 212.387 184.746 212.086 183.802C223.875 181.668 235.609 179.255 247.286 176.563C250.467 175.828 253.643 175.073 256.813 174.296C256.824 174.574 256.854 174.851 256.87 175.13ZM256.701 172.955C244.911 175.835 233.057 178.437 221.138 180.76C217.995 181.37 214.849 181.957 211.698 182.52C211.025 180.202 210.466 177.853 210.022 175.48C222.193 174.103 234.269 171.987 246.182 169.142C249.483 168.335 252.765 167.457 256.029 166.509C256.301 168.655 256.525 170.805 256.701 172.96V172.955ZM255.856 165.181C244.037 168.565 231.999 171.131 219.827 172.861C216.489 173.347 213.144 173.786 209.794 174.179C209.498 172.453 209.254 170.718 209.062 168.978C214.226 168.003 253.472 160.595 255.168 160.277C255.403 161.912 255.632 163.547 255.856 165.181ZM272.496 86.9264C271.923 92.9771 270.372 98.8946 267.902 104.448C266.261 107.881 264.421 111.215 262.394 114.435C260.944 117.027 259.669 119.712 258.576 122.474C257.513 125.162 256.629 127.918 255.928 130.723C255.851 131.032 255.56 132.28 255.491 132.595C253.564 141.265 253.386 150.233 254.968 158.973L208.851 167.68C207.038 158.546 203.347 149.889 198.013 142.256C197.014 140.844 195.962 139.471 194.859 138.139C192.953 135.804 190.892 133.6 188.69 131.542C185.208 128.31 181.227 125.699 177.776 122.435C170.905 115.933 165.787 107.801 162.896 98.7936C162.707 98.1984 162.55 97.5952 162.379 96.9952C158.818 84.705 159.611 71.5617 164.624 59.7888C166.133 56.1935 168.007 52.7622 170.216 49.5488C174.939 42.7232 181.107 37.0221 188.283 32.8512C190.045 31.8327 191.861 30.9119 193.723 30.0928C204.434 25.3498 216.359 24.0696 227.832 26.4309C239.306 28.7922 249.756 34.677 257.723 43.264C258.467 44.064 259.186 44.8864 259.88 45.7264C264.57 51.3998 268.097 57.9406 270.261 64.976C270.884 67.0147 271.395 69.0861 271.792 71.1808C272.756 76.3713 272.991 81.671 272.49 86.9264H272.496Z" fill="black"/>
<path d="M260.931 101.651C260.614 101.099 260.094 100.692 259.481 100.517C258.869 100.342 258.213 100.412 257.651 100.714C257.319 100.905 257.041 101.179 256.845 101.509C256.649 101.839 256.541 102.213 256.531 102.597C256.531 105.491 261.136 105.427 261.171 102.597C261.173 102.266 261.09 101.941 260.931 101.651Z" fill="#F55555"/>
<path d="M297.788 122.496C296.277 122.213 294.819 121.695 293.468 120.96C293.041 123.626 292.934 126.333 293.148 129.024C293.191 129.723 293.353 130.41 293.628 131.054C293.929 131.574 294.42 131.957 294.998 132.122C298.732 133.514 305.731 132.163 307.958 130.278C309.74 128.768 309.696 127.832 312.451 117.019C310.717 119.156 308.443 120.791 305.865 121.754C303.287 122.717 300.499 122.973 297.788 122.496Z" fill="#A76C6C"/>
<path d="M319.186 108.59C319.029 107.979 318.685 107.431 318.202 107.024C317.72 106.616 317.122 106.369 316.493 106.317C316.137 106.259 315.775 106.248 315.416 106.282C315.24 106.279 315.073 106.208 314.949 106.084C314.825 105.959 314.754 105.792 314.752 105.616C314.704 104.924 314.611 104.236 314.472 103.557C313.937 100.896 312.673 98.4351 310.822 96.4497C308.971 94.4643 306.605 93.0319 303.987 92.312C301.373 91.6724 298.629 91.7973 296.084 92.6717C293.538 93.5462 291.297 95.1335 289.627 97.2448C289.467 97.4368 289.33 97.6384 289.186 97.8384C287.663 99.9973 286.724 102.513 286.459 105.141C286.193 107.77 286.611 110.422 287.672 112.842C288.746 115.287 290.48 117.385 292.679 118.9C294.878 120.416 297.456 121.289 300.123 121.422C311.045 121.762 312.862 111.794 314.374 112.224C316.621 112.862 319.776 111.248 319.186 108.59ZM240.922 134.219C239.986 133.689 238.912 133.451 237.84 133.536C236.029 133.865 234.301 134.548 232.755 135.546C231.387 136.313 230.174 137.328 229.176 138.539C229.004 138.758 228.856 138.995 228.734 139.246C228.693 139.338 228.61 139.63 228.611 139.613C228.609 139.642 228.609 139.671 228.611 139.701V139.757C228.611 139.81 228.621 139.773 228.621 139.773C228.74 139.848 228.871 139.902 229.008 139.933C230.228 139.997 231.443 139.735 232.528 139.174C233.233 138.895 233.92 138.574 234.587 138.214C234.739 138.136 234.915 138.118 235.079 138.165C235.243 138.213 235.382 138.321 235.469 138.468C235.555 138.616 235.581 138.791 235.542 138.957C235.503 139.123 235.402 139.268 235.259 139.362C234.654 139.767 234.083 140.221 233.552 140.72C232.712 141.386 232.066 142.264 231.68 143.264C231.622 143.458 231.61 143.662 231.642 143.862C231.675 144.062 231.752 144.252 231.869 144.417C231.985 144.583 232.137 144.72 232.314 144.818C232.491 144.917 232.688 144.974 232.89 144.986C233.991 144.949 235.05 144.556 235.909 143.866C236.44 143.521 236.941 143.132 237.408 142.704C237.938 142.214 238.925 142.89 238.453 143.504C237.935 144.185 237.484 144.913 237.104 145.678C236.817 146.216 236.609 146.794 236.49 147.392C236.429 147.744 236.462 148.366 236.608 148.459C236.722 148.516 236.851 148.534 236.976 148.509C237.185 148.485 237.391 148.437 237.589 148.366C238.06 148.204 238.513 147.994 238.942 147.741C239.554 147.398 240.142 147.013 240.702 146.59C240.829 146.52 240.975 146.491 241.12 146.51C241.264 146.529 241.398 146.593 241.502 146.694C241.762 146.922 242.014 147.16 242.27 147.392C243.035 146.055 243.923 144.793 244.922 143.621C245.883 142.477 246.955 141.431 248.122 140.498C247.781 140.106 247.45 139.712 247.094 139.325C245.359 137.267 243.268 135.538 240.922 134.219Z" fill="#A76C6C"/>
<path d="M274.205 147.981C274.75 148.268 275.301 148.551 275.858 148.83C276.347 147.496 276.872 146.175 277.432 144.869C279.439 139.947 282.254 135.394 285.762 131.4C281.708 129.029 278.089 125.983 275.062 122.392C271.609 118.256 269.037 113.457 267.506 108.291C266.163 110.838 264.554 113.227 263.176 115.754C261.729 118.401 260.471 121.147 259.41 123.971C258.388 126.699 257.551 129.493 256.902 132.333C258.614 135.11 260.638 137.683 262.933 140.002C266.265 143.216 270.065 145.907 274.205 147.981Z" fill="#F15929"/>
<path d="M322.051 141.656C320.368 136.984 317.603 132.778 313.982 129.381C313.113 128.633 312.173 127.972 311.176 127.406C311.153 127.485 311.136 127.566 311.113 127.642C310.798 128.84 310.18 129.937 309.317 130.826C308.455 131.716 307.378 132.368 306.19 132.72C303.814 133.596 301.297 134.03 298.764 134C296.797 134.161 294.831 133.664 293.177 132.586C291.945 131.554 291.827 129.563 291.753 128.078V128.005C284.681 132.566 280.128 141.096 277.206 148.979C280.741 148.891 284.248 148.337 287.638 147.333C295.879 144.832 303.191 139.941 308.649 133.28C309.193 132.619 310.129 133.563 309.588 134.218C309.547 134.27 309.502 134.318 309.46 134.37C306.28 138.195 302.493 141.473 298.251 144.072C291.757 148.041 284.323 150.206 276.713 150.344H275.304C266.087 150.105 257.237 146.688 250.251 140.672C247.143 142.756 244.631 145.612 242.961 148.96C242.856 149.163 242.752 149.37 242.652 149.576C241.728 151.518 241.052 153.569 240.64 155.68C241.608 156.496 242.531 157.362 243.52 158.154C245.601 159.808 247.78 161.338 250.043 162.734C263.582 171.112 276.872 173.552 291.672 168.539C294.011 167.753 296.313 166.857 298.569 165.856C304.571 163.423 309.94 159.656 314.268 154.838C315.593 153.305 316.624 151.54 317.308 149.632C317.327 149.543 317.365 149.459 317.42 149.388C317.476 149.316 317.547 149.258 317.628 149.218C317.744 149.165 317.873 149.146 317.999 149.161C318.125 149.177 318.245 149.228 318.344 149.307C318.443 149.387 318.519 149.492 318.562 149.612C318.605 149.732 318.614 149.861 318.588 149.986C318.577 150.037 318.56 150.088 318.547 150.138C318.157 151.352 317.59 152.503 316.862 153.55C315.297 155.89 313.39 157.981 311.204 159.755C307.589 162.688 303.59 165.116 299.32 166.97C293.676 169.674 287.642 171.474 281.44 172.304C278.172 172.64 274.876 172.592 271.619 172.163C271.556 172.634 271.488 173.106 271.43 173.576C270.477 181.197 270.209 188.888 270.63 196.557C279.541 198.937 288.685 200.339 297.9 200.739C308.02 201.157 318.43 200.288 327.939 196.605C328.099 194.229 328.195 191.846 328.259 189.467C328.604 174.733 327.539 155.39 322.051 141.656Z" fill="#F15929"/>
<path d="M330.434 279.274C330.355 277.944 326.114 201.317 326.069 200.234C326.034 199.382 324.704 199.378 324.741 200.234C324.818 202.066 324.909 203.898 324.999 205.73C324.923 205.665 324.83 205.622 324.731 205.607C324.632 205.592 324.531 205.604 324.439 205.643C322.417 206.392 320.214 206.503 318.127 205.963C317.267 205.839 316.46 205.473 315.799 204.91C315.139 204.346 314.651 203.607 314.392 202.778C314.242 201.938 312.952 202.298 313.112 203.131C313.398 204.126 313.948 205.024 314.704 205.73C315.461 206.437 316.395 206.924 317.407 207.141C319.828 207.862 322.418 207.785 324.792 206.922C324.888 206.887 324.974 206.833 325.047 206.762C325.207 209.962 326.829 239.835 326.887 240.866H326.851L320.946 242.826C320.778 242.876 320.636 242.989 320.549 243.141C320.463 243.293 320.438 243.473 320.48 243.643C320.529 243.812 320.642 243.955 320.795 244.042C320.948 244.129 321.129 244.152 321.299 244.107L326.219 242.474C325.402 244.796 324.254 246.989 322.81 248.984C322.722 249.136 322.698 249.317 322.743 249.487C322.787 249.656 322.897 249.802 323.048 249.891C323.201 249.977 323.381 250 323.551 249.955C323.72 249.911 323.866 249.802 323.957 249.653C325.219 247.911 326.264 246.021 327.067 244.026C329.37 284.526 330.115 283.794 327.613 287.438C326.824 288.572 325.788 289.513 324.584 290.19C323.38 290.867 322.038 291.262 320.659 291.347C319.28 291.431 317.9 291.203 316.622 290.678C315.344 290.154 314.201 289.347 313.279 288.318C310.528 285.278 308.448 272.944 305.928 258.534C304.789 252.024 298.923 213.752 298.906 213.622C298.799 212.862 297.613 213.075 297.6 213.798C297.559 216.434 297.12 244.258 297.085 246.278L292.067 246.73C291.892 246.734 291.726 246.806 291.602 246.93C291.478 247.054 291.407 247.22 291.402 247.395C291.404 247.571 291.474 247.739 291.599 247.863C291.723 247.988 291.892 248.058 292.067 248.059L296.583 247.653C295.65 249.119 294.563 250.482 293.341 251.718C293.227 251.845 293.166 252.011 293.17 252.181C293.174 252.351 293.244 252.514 293.364 252.634C293.485 252.755 293.647 252.825 293.817 252.829C293.988 252.834 294.153 252.773 294.28 252.659C295.29 251.635 296.212 250.528 297.037 249.35C296.97 253.49 296.493 283.947 296.483 284.219C296.437 285.121 296.139 285.992 295.624 286.733C295.108 287.474 294.396 288.057 293.567 288.414C292.203 288.832 290.766 288.953 289.352 288.771C285.306 288.666 282.368 288.621 280.847 287.344C276.511 283.696 275.437 263.504 275.162 257.838C274.768 249.779 274.696 241.704 274.768 233.638C274.832 226.576 275.008 219.517 275.295 212.462C275.442 208.702 275.85 200.845 275.859 200.674C275.911 199.821 274.579 199.822 274.53 200.674C274.485 201.398 273.877 214.662 273.779 217.613C273.663 221.243 273.407 236.512 273.419 240.515C273.434 244.643 273.496 248.771 273.632 252.898C273.76 256.826 273.952 260.752 274.259 264.672C274.531 268.182 274.891 271.691 275.432 275.173C276.072 279.347 277.413 286.962 280.829 288.944C282.578 289.958 286.555 290.038 289.671 290.107C295.45 290.235 297.671 287.669 297.811 284.254C297.845 283.482 297.835 282.706 297.848 281.933L298.399 247.229L298.41 247.211C298.463 247.11 298.49 246.997 298.49 246.882C298.49 246.768 298.463 246.655 298.41 246.554C298.41 246.363 298.778 223.277 298.799 222.062C299.451 226.512 302.858 248.442 303.967 254.947C307.336 274.712 308.808 298.243 324.066 291.918C329.815 289.554 330.76 284.758 330.434 279.274ZM184.133 50.4832C183.287 47.4528 179.013 49.2032 181.413 45.304C182.522 43.4928 185.512 41.8992 187.424 41.0864C190.304 39.8656 193.407 38.9264 195.722 36.8256C196.289 36.3821 196.693 35.7632 196.871 35.0656C196.933 34.4942 196.829 33.9169 196.571 33.4032C195.943 32.0632 194.961 30.9199 193.731 30.096C184.232 34.2678 176.086 41.0089 170.211 49.56C168.003 52.7734 166.129 56.2047 164.619 59.8C172.744 58.4624 185.6 55.7312 184.133 50.4832ZM270.263 64.976C268.098 57.9409 264.571 51.4002 259.882 45.7264C248.64 47.68 237.147 49.3392 226.821 54.4384C224.563 55.5584 221.037 56.4048 223.197 58.8464C224.275 60.064 226.8 60.1184 228.263 60.2576C231.931 60.608 236.915 59.6288 239.875 62.4064C237.651 65.1536 234.115 66.416 230.776 67.5552L215.36 72.8C214.702 73.0246 214.154 73.4922 213.829 74.1073C213.504 74.7223 213.426 75.4383 213.612 76.1088C213.797 76.7793 214.231 77.3536 214.826 77.7144C215.421 78.0752 216.131 78.1951 216.811 78.0496C225.746 76.2288 234.482 72.3488 243.584 71.0192C246.109 70.6496 256.272 70.9776 250.405 75.3904C249.293 76.0321 248.271 76.8176 247.365 77.7264C246.298 79.1024 246.517 80.4704 248.405 80.9168C249.302 81.0666 250.219 81.0449 251.107 80.8528L257.643 79.8592C261.88 79.2192 261.299 83.0592 258.848 85.1216C252.197 90.7216 262.111 88.984 265.687 88.384C267.976 88 270.247 87.504 272.496 86.9296C272.998 81.6743 272.764 76.3746 271.8 71.184C271.402 69.0881 270.889 67.0156 270.263 64.976ZM222.935 104.827C220.746 103.013 217.24 102.771 214.541 102.779C208.346 102.798 202.437 105.042 196.287 105.371C195.503 105.488 194.703 105.366 193.99 105.022C193.276 104.678 192.683 104.127 192.287 103.442C192.081 102.682 192.119 101.878 192.394 101.141C192.669 100.404 193.167 99.7721 193.819 99.3328C195.043 98.352 196.567 97.8192 197.867 96.9408C201.875 94.2336 199.525 92.6032 196.002 92.5248C190.361 92.6439 184.739 93.2175 179.191 94.24C173.565 95.04 167.981 96.0912 162.373 96.992C162.543 97.592 162.693 98.1952 162.89 98.7904C165.781 107.798 170.899 115.93 177.77 122.432C181.221 125.696 185.202 128.306 188.683 131.539C190.887 133.596 192.948 135.8 194.853 138.136C199.525 137.465 204.08 136.148 208.389 134.222C215.563 130.643 202.421 129.81 206.987 125.582C207.69 124.934 217.535 122.189 213.528 119.726C212.844 119.432 212.074 119.402 211.368 119.642C207.132 120.526 202.769 120.618 198.499 119.912C198.079 119.889 197.668 119.782 197.289 119.599C196.91 119.416 196.571 119.16 196.291 118.845C195.491 117.672 196.471 116.101 197.571 115.206C202.923 110.843 210.152 112.198 216.437 110.886C219.65 110.224 227.13 108.306 222.935 104.827Z" fill="url(#paint0_linear_21292_20037)"/>
<path d="M278.49 9.55999C278.229 9.13828 277.869 8.78611 277.442 8.53365C277.016 8.28119 276.534 8.13596 276.039 8.11039C274.49 7.93875 272.924 7.99264 271.391 8.27039C266.993 9.00431 262.662 10.091 258.439 11.52C250.507 14.0064 240.183 17.8864 233.4 20.6992C232.621 21.0192 232.962 22.2992 233.752 21.9792C235.501 21.2528 237.261 20.5568 239.032 19.8672C243.085 18.28 247.162 16.7621 251.263 15.3136C255.867 13.6992 260.514 12.1696 265.237 10.9408C267.225 10.4051 269.239 9.96936 271.271 9.63519C272.712 9.36473 274.184 9.28405 275.647 9.39519C275.735 9.39931 275.823 9.41217 275.909 9.43359C276.042 9.45919 276.176 9.48639 276.307 9.52159C276.439 9.55679 276.519 9.58399 276.627 9.61919C276.829 9.68639 276.61 9.58239 276.826 9.70719C277.117 9.86719 277 9.75839 277.184 9.96319L277.227 10.008L277.256 10.0512C277.347 10.1792 277.352 10.2464 277.328 10.1792C277.343 10.2192 277.368 10.3264 277.379 10.3728C277.391 10.4192 277.391 10.56 277.391 10.6048C277.391 10.84 277.408 10.6208 277.371 10.8C277.346 10.9291 277.314 11.0571 277.275 11.184C277.066 11.7712 276.776 12.3264 276.413 12.8336C272.277 19.0176 256.52 29.4096 249.589 33.9632C234.12 44.1056 209.139 58.7024 203.312 62.016C188.739 70.304 171.384 79.7072 156.394 86.88C149.338 90.3914 142.057 93.4322 134.6 95.9824C132.76 96.7192 130.786 97.0657 128.805 97C128.508 96.9843 128.225 96.8667 128.005 96.6672L127.983 96.6288C127.983 96.608 127.944 96.52 127.963 96.592C127.968 96.6052 127.974 96.6176 127.983 96.6288C127.831 95.4749 128.007 94.3015 128.491 93.2432C130.274 88.3872 136.072 83.3232 140.141 80.176C144.463 76.8652 149.007 73.8544 153.741 71.1648C154.518 70.7147 155.302 70.2773 156.093 69.8528C156.848 69.4512 156.178 68.3024 155.423 68.704C152.383 70.32 149.439 72.1344 146.557 74.0128C141.063 77.3887 136.031 81.4638 131.587 86.136C129.668 88.1283 128.159 90.4792 127.147 93.0544C124.541 100.499 131.103 98.768 138.627 96.024C147.037 92.7532 155.277 89.0632 163.317 84.968C177.855 77.744 205.667 62.616 228.744 48.616C233.855 45.5163 238.931 42.3616 243.973 39.152C251.68 34.2304 268.154 23.4912 274.602 16.9904C275.867 15.7754 276.975 14.4057 277.898 12.9136C278.257 12.4427 278.499 11.8923 278.602 11.3088C278.705 10.7253 278.666 10.1256 278.49 9.55999Z" fill="#B26EE6"/>
<path d="M149.842 46.1472C149.047 45.5633 148.216 45.029 147.355 44.5472C147.631 43.8912 147.899 43.1936 148.155 42.4512C148.552 41.304 148.863 40.2112 149.115 39.1936C148.105 39.7744 147.135 40.4229 146.211 41.1344C145.61 41.5984 145.061 42.0624 144.565 42.5152L140.008 39.2C140.354 41.0538 140.943 42.8539 141.76 44.5536C141.15 45.0443 140.506 45.5403 139.827 46.0416C138.928 46.7024 138.047 47.3056 137.195 47.8544C138.365 47.792 139.595 47.7632 140.875 47.7824C141.541 47.7899 142.19 47.8096 142.823 47.8416C142.983 48.5984 143.194 49.408 143.463 50.2592C143.773 51.26 144.138 52.2428 144.557 53.2032C144.864 52.1984 146.027 48.6032 146.285 47.8416C147.01 47.92 147.792 47.976 148.629 47.992C149.727 48.014 150.826 47.968 151.919 47.8544C151.258 47.2473 150.565 46.6774 149.842 46.1472Z" fill="#FFD35C"/>
<path d="M154.69 118.838C154.007 118.502 153.348 118.216 152.724 117.97C153.044 116.12 153.366 114.27 153.692 112.421C152.879 113.029 152.11 113.694 151.392 114.411C150.777 115.025 150.2 115.675 149.663 116.358C148.952 116.031 148.223 115.673 147.474 115.283C146.529 114.791 145.599 114.271 144.685 113.723C145.256 114.744 145.826 115.835 146.38 116.997C146.665 117.598 146.932 118.19 147.18 118.771C146.575 119.251 145.941 119.795 145.293 120.408C144.532 121.129 143.812 121.891 143.135 122.691C144.173 122.522 147.912 121.978 148.708 121.874C148.957 122.557 149.255 123.283 149.608 124.04C150.075 125.036 150.601 126.002 151.186 126.933C151.717 125.124 152.034 123.26 152.132 121.378C154.009 121.262 155.874 120.997 157.709 120.586C156.743 119.937 155.734 119.353 154.69 118.838Z" fill="#76D3DE"/>
<path d="M276.674 45.3232C276.218 45.0992 275.778 44.9072 275.359 44.7424C275.572 43.5051 275.788 42.2677 276.007 41.0304C275.464 41.4383 274.951 41.8831 274.469 42.3616C274.058 42.7724 273.671 43.2079 273.312 43.6656C272.832 43.4448 272.352 43.2048 271.848 42.9456C271.186 42.6 270.568 42.2496 269.983 41.9008C270.365 42.584 270.746 43.3152 271.117 44.0912C271.307 44.4944 271.486 44.8901 271.655 45.2784C271.219 45.625 270.797 45.9901 270.392 46.3728C269.885 46.8557 269.404 47.3658 268.952 47.9008C269.647 47.7872 272.152 47.4208 272.68 47.3536C272.84 47.8112 273.045 48.2976 273.282 48.8032C273.595 49.4686 273.948 50.1146 274.338 50.7376C274.507 50.1616 274.645 49.5767 274.749 48.9856C274.862 48.3361 274.935 47.6806 274.97 47.0224C276.227 46.9429 277.475 46.7653 278.704 46.4912C278.054 46.0576 277.376 45.6674 276.674 45.3232ZM176.96 145.61C176.019 142.616 173.95 140.107 171.191 138.612C168.432 137.117 165.2 136.754 162.178 137.6C160.374 138.168 158.746 139.191 157.452 140.571C156.157 141.95 155.24 143.64 154.788 145.477C151.7 159.406 173.927 164.013 177.103 150.427C177.463 148.835 177.414 147.178 176.96 145.61Z" fill="#FFD35C"/>
<path d="M180.306 148.541C181.985 148.261 183.625 147.786 185.192 147.123C185.562 146.974 185.898 146.752 186.18 146.47C186.461 146.188 186.683 145.852 186.831 145.482C187.114 144.445 186.108 143.856 185.277 143.592C183.134 143.059 180.92 142.868 178.717 143.026L178.223 143.037C177.37 143.066 177.365 144.395 178.223 144.366C179.903 144.296 181.586 144.353 183.258 144.538C183.754 144.593 184.245 144.685 184.727 144.813C185.517 145.032 185.965 145.158 184.815 145.827C184.337 146.074 183.836 146.273 183.319 146.421C182.492 146.671 181.656 146.889 180.812 147.074C178.506 147.595 176.172 147.99 173.832 148.354C170.172 148.918 166.493 149.376 162.807 149.768C160.758 149.062 158.715 148.336 156.679 147.59C154.362 146.742 152.065 145.843 149.788 144.894C148.281 144.301 146.817 143.606 145.405 142.814C145.351 142.782 145.301 142.746 145.245 142.714C145.424 142.68 145.604 142.658 145.786 142.648C148.447 142.64 151.094 143.034 153.637 143.816C153.832 143.866 154.028 143.915 154.223 143.968C154.388 144.001 154.56 143.971 154.703 143.883C154.847 143.795 154.951 143.655 154.996 143.493C155.041 143.33 155.023 143.157 154.945 143.008C154.867 142.858 154.735 142.744 154.576 142.688C152.275 142.033 149.918 141.589 147.536 141.362C146.28 141.104 144.973 141.277 143.828 141.854C143.714 141.936 143.621 142.043 143.557 142.167C143.492 142.29 143.456 142.427 143.454 142.567C143.451 142.707 143.481 142.845 143.54 142.971C143.6 143.098 143.689 143.208 143.799 143.294C144.829 144.133 145.997 144.787 147.25 145.229C148.652 145.869 150.074 146.45 151.504 147.019C149.506 147.377 147.542 147.903 145.632 148.592C144.376 148.897 143.256 149.608 142.447 150.616C142.377 150.742 142.338 150.882 142.334 151.026C142.329 151.169 142.358 151.312 142.418 151.442C142.479 151.572 142.57 151.686 142.683 151.775C142.796 151.864 142.928 151.924 143.069 151.952C144.367 152.264 145.708 152.359 147.037 152.232C149.437 152.203 151.824 152.056 154.213 151.882C157.021 151.675 159.826 151.421 162.629 151.122C165.435 152.082 168.254 152.991 171.087 153.851C173.604 154.616 176.136 155.344 178.696 155.952C180.379 156.424 182.107 156.713 183.852 156.813C184.649 156.872 185.44 156.637 186.076 156.152C186.876 155.418 186.396 154.43 185.756 153.79C184.872 152.991 183.882 152.318 182.813 151.792C181.888 151.286 180.941 150.832 179.981 150.394C179.821 150.322 179.661 150.25 179.501 150.181C178.724 149.848 178.047 150.992 178.831 151.328C180.439 151.998 181.991 152.796 183.471 153.715C183.893 153.971 184.292 154.263 184.664 154.587C185.429 155.28 185.25 155.261 184.344 155.466C184.287 155.466 184.229 155.477 184.172 155.478C183.608 155.488 183.044 155.449 182.487 155.362C181.624 155.228 180.766 155.064 179.914 154.87C177.596 154.354 175.304 153.715 173.034 153.045C170.598 152.324 168.174 151.564 165.764 150.765C168.015 150.502 170.262 150.21 172.506 149.888C175.109 149.506 177.72 149.088 180.306 148.541ZM156.626 150.36C154.141 150.568 151.652 150.746 149.159 150.84C147.507 150.946 145.85 150.938 144.199 150.816L144.093 150.805C144.29 150.667 144.495 150.541 144.708 150.429C145.97 149.818 147.297 149.35 148.663 149.032C149.848 148.712 151.045 148.448 152.25 148.218C152.442 148.18 152.634 148.145 152.826 148.112C152.934 148.1 153.035 148.055 153.115 147.982C153.196 147.91 153.252 147.814 153.276 147.709C153.506 147.797 153.732 147.89 153.96 147.978C155.856 148.702 157.765 149.397 159.677 150.077C158.656 150.178 157.639 150.274 156.623 150.36H156.626Z" fill="#B26EE6"/>
<path d="M320.232 41.9968C319.898 40.5624 319.205 39.2362 318.219 38.1424C316.272 36.0836 313.6 34.8631 310.769 34.7392C307.938 34.6153 305.169 35.5976 303.05 37.4784C301.81 38.653 300.893 40.1268 300.387 41.7582C299.881 43.3895 299.804 45.1236 300.162 46.7936C303.158 59.32 323.021 54.28 320.232 41.9968Z" fill="#76D3DE"/>
<path d="M297.979 36.16C299.495 37.1824 301.043 38.1573 302.619 39.0832C306.659 41.4864 310.783 43.744 314.991 45.856C316.807 46.768 318.639 47.6528 320.509 48.448C321.714 49.0307 322.983 49.4725 324.29 49.7648C324.928 49.9197 325.6 49.8325 326.178 49.52C326.925 49.0288 326.728 48.1376 326.285 47.5136C325.045 46.0363 323.553 44.7904 321.879 43.8336C321.159 43.368 320.491 44.5184 321.208 44.9808C322.291 45.6667 323.317 46.4394 324.275 47.2912C324.679 47.6228 325.028 48.0146 325.312 48.4528C323.982 48.4006 322.68 48.0518 321.503 47.432C319.85 46.7363 318.22 45.9854 316.618 45.1808C312.696 43.2394 308.84 41.1673 305.056 38.968C302.397 37.4737 299.821 35.8356 297.339 34.0608H297.371C299.481 34.4376 301.521 35.1319 303.423 36.12C304.191 36.48 304.863 35.3344 304.091 34.9728C302.419 34.1625 300.677 33.5074 298.885 33.016C297.91 32.6311 296.831 32.5988 295.835 32.9248C295.73 32.9811 295.639 33.0592 295.566 33.1539C295.494 33.2486 295.443 33.3577 295.416 33.4739C295.39 33.59 295.389 33.7105 295.413 33.8272C295.437 33.9439 295.485 34.0541 295.555 34.1504C296.224 34.9724 297.048 35.6552 297.979 36.16Z" fill="#B26EE6"/>
<path d="M326.646 53.5856C325.231 51.8531 323.527 50.3771 321.611 49.2224C320.901 48.7424 320.235 49.8928 320.941 50.3712C322.209 51.2135 323.406 52.158 324.52 53.1952C325.024 53.6199 325.443 54.1355 325.757 54.7152C325.487 54.7726 325.212 54.7984 324.936 54.792C321.64 53.764 318.462 52.3927 315.453 50.7008C310.873 48.3144 306.375 45.7743 301.966 43.0848C298.732 41.2992 295.66 39.2337 292.786 36.912C294.182 37.0772 295.545 37.4509 296.83 38.0208C297.837 38.408 298.826 38.8368 299.8 39.3008L300.28 39.5312C301.043 39.9088 301.72 38.7632 300.949 38.384C299.007 37.3931 296.978 36.5838 294.888 35.9664C293.786 35.5027 292.555 35.4421 291.413 35.7952C291.303 35.8551 291.207 35.9381 291.132 36.0385C291.057 36.1389 291.005 36.2543 290.979 36.3768C290.953 36.4993 290.953 36.626 290.981 36.7482C291.008 36.8704 291.062 36.9852 291.138 37.0848C291.41 37.4726 291.742 37.8141 292.123 38.096C292.701 38.576 293.309 39.0304 293.922 39.4672C295.682 40.7216 297.498 41.8848 299.328 43.0256C303.968 45.9152 308.709 48.64 313.55 51.2C315.667 52.32 317.803 53.4096 319.987 54.4C321.386 55.1077 322.859 55.6567 324.379 56.0368C325.093 56.2281 325.851 56.153 326.514 55.8256C327.373 55.2912 327.131 54.2864 326.646 53.5856ZM157.174 26.9072C153.37 29.9788 149.772 33.298 146.405 36.8432C145.816 37.4624 146.754 38.4048 147.344 37.7824C150.711 34.2372 154.309 30.918 158.114 27.8464C158.779 27.3104 157.834 26.376 157.174 26.9072ZM169.92 21.7968C164.545 25.8324 159.403 30.1694 154.518 34.7872C153.896 35.376 154.838 36.3152 155.458 35.7264C160.256 31.1825 165.309 26.9148 170.592 22.944C171.272 22.4368 170.611 21.28 169.92 21.7968ZM168.37 30.304C165.867 32.4374 163.36 34.5654 160.85 36.688C160.727 36.8136 160.658 36.9821 160.658 37.1576C160.658 37.3331 160.727 37.5017 160.85 37.6272C160.976 37.7481 161.145 37.8156 161.32 37.8156C161.495 37.8156 161.664 37.7481 161.79 37.6272L169.31 31.2432C169.434 31.1181 169.503 30.9494 169.503 30.7736C169.503 30.5979 169.434 30.4292 169.31 30.304C169.184 30.182 169.015 30.1138 168.84 30.1138C168.664 30.1138 168.496 30.182 168.37 30.304ZM322.805 66.1968C321.033 68.9392 319.161 71.6107 317.189 74.2112C317.101 74.364 317.077 74.5449 317.122 74.7151C317.167 74.8853 317.276 75.0313 317.427 75.1216C317.581 75.2061 317.761 75.2285 317.93 75.1842C318.099 75.1398 318.245 75.0321 318.338 74.8832C320.307 72.2816 322.178 69.6102 323.952 66.8688C324.418 66.1472 323.267 65.4816 322.805 66.1968ZM339.822 69.9104C339.732 69.7594 339.586 69.6498 339.416 69.6053C339.246 69.5607 339.065 69.5846 338.912 69.672C335.404 72.3824 331.894 75.0912 328.382 77.7984C328.235 77.8915 328.128 78.0371 328.084 78.2058C328.04 78.3745 328.061 78.5537 328.144 78.7072C328.234 78.8585 328.379 78.9683 328.549 79.0129C328.72 79.0575 328.9 79.0333 329.053 78.9456L339.584 70.8208C339.732 70.7275 339.838 70.5816 339.883 70.4126C339.927 70.2436 339.905 70.0641 339.822 69.9104ZM336.984 86.1536L330.538 88.1856C329.725 88.4432 330.074 89.7264 330.891 89.4656L337.338 87.432C338.15 87.1776 337.803 85.8944 336.984 86.1536Z" fill="#B26EE6"/>
<path d="M254.043 303.896L238.101 304.362C237.924 304.362 237.756 304.432 237.631 304.556C237.506 304.681 237.437 304.849 237.437 305.026C237.437 305.202 237.506 305.371 237.631 305.495C237.756 305.62 237.924 305.69 238.101 305.69L254.043 305.226C254.214 305.217 254.375 305.144 254.492 305.02C254.61 304.896 254.676 304.732 254.676 304.561C254.676 304.39 254.61 304.226 254.492 304.102C254.375 303.978 254.214 303.904 254.043 303.896ZM262.67 309.864C259.806 309.046 256.798 308.864 253.856 309.328C253.687 309.376 253.543 309.489 253.456 309.642C253.37 309.795 253.346 309.976 253.392 310.146C253.442 310.313 253.554 310.455 253.707 310.542C253.859 310.628 254.038 310.652 254.208 310.61C256.918 310.198 259.684 310.381 262.317 311.146C262.483 311.183 262.658 311.154 262.804 311.066C262.95 310.978 263.057 310.837 263.102 310.673C263.148 310.508 263.128 310.333 263.048 310.182C262.967 310.032 262.832 309.918 262.67 309.864ZM301.88 310.304C297.694 310.423 293.51 310.546 289.326 310.67C288.473 310.696 288.47 312.026 289.326 311.998L301.88 311.634C302.731 311.608 302.736 310.28 301.88 310.304ZM352.782 303.496C348.485 303.678 344.184 303.71 339.881 303.59C339.705 303.59 339.536 303.66 339.412 303.785C339.287 303.909 339.217 304.078 339.217 304.254C339.217 304.43 339.287 304.599 339.412 304.724C339.536 304.848 339.705 304.918 339.881 304.918C344.181 305.038 348.481 305.006 352.782 304.824C353.633 304.789 353.638 303.459 352.782 303.496Z" fill="#76D3DE"/>
<path d="M270.319 171.971C269.434 178.443 269.033 184.972 269.119 191.504C269.142 193.362 269.211 195.218 269.327 197.072C269.331 197.17 269.357 197.266 269.402 197.354C269.438 197.441 269.494 197.519 269.566 197.582C269.638 197.644 269.723 197.689 269.815 197.714C286.295 202.573 311.44 204.602 328.747 197.714C328.883 197.669 329.002 197.583 329.088 197.469C329.174 197.355 329.222 197.217 329.227 197.074C330.397 182.272 329.504 159.432 324.443 144.357C322.908 139.284 320.371 134.572 316.981 130.498C315.424 128.716 313.578 127.21 311.519 126.045C311.962 124.325 314.061 116.056 314.677 113.646C317.803 114.098 321.136 111.648 320.459 108.24C320.287 107.565 319.952 106.943 319.485 106.427C319.017 105.912 318.431 105.518 317.776 105.28C319.61 103.71 320.952 101.645 321.643 99.3316C322.334 97.0185 322.344 94.5554 321.672 92.2368C319.077 82.0816 310.514 83.7472 310.472 83.7568C311.05 83.6432 310.589 80.5296 310.499 80.016C310.231 78.4027 309.365 76.9493 308.075 75.944C303.927 72.7872 300.104 75.8128 299.381 80.256C297.599 78.1328 294.725 77.216 292.491 79.2336C291.527 80.0599 290.918 81.2264 290.791 82.4903C290.665 83.7543 291.031 85.0182 291.813 86.0192C291.813 86.0192 288.194 85.4528 286.949 91.3328C286.801 92.2824 286.849 93.2523 287.09 94.1826C287.331 95.113 287.76 95.9841 288.351 96.7424C286.825 98.7955 285.791 101.171 285.328 103.687C284.866 106.203 284.987 108.791 285.683 111.253C286.748 114.922 289.07 118.098 292.243 120.226C291.922 122.291 291.749 124.376 291.727 126.466C290.534 127.164 289.406 127.967 288.355 128.866C287.773 129.362 287.218 129.882 286.679 130.419C279.48 126.281 273.772 119.976 270.37 112.402C269.541 110.515 268.871 108.562 268.365 106.565C268.219 106.866 267.725 107.864 267.626 108.061C267.586 108.139 267.538 108.221 267.498 108.296C269.029 113.462 271.601 118.261 275.055 122.397C278.081 125.988 281.699 129.035 285.754 131.405C282.246 135.399 279.431 139.951 277.424 144.874C276.865 146.18 276.34 147.501 275.85 148.835C275.294 148.555 274.743 148.271 274.197 147.986C270.058 145.911 266.257 143.221 262.925 140.006C260.63 137.687 258.607 135.115 256.895 132.338C256.824 132.658 256.56 133.898 256.498 134.21C258.139 136.688 260.028 138.993 262.135 141.09C265.374 144.197 269.047 146.818 273.039 148.87C269.737 148.609 266.483 147.919 263.36 146.816C258.736 145.152 254.468 142.629 250.781 139.379C250.675 139.28 250.541 139.217 250.398 139.198C250.254 139.18 250.108 139.207 249.981 139.277C249.722 139.417 249.469 139.566 249.221 139.725C248.92 139.374 248.626 139.018 248.319 138.678C246.402 136.349 244.053 134.412 241.4 132.976C240.282 132.381 239.016 132.119 237.754 132.219C235.709 132.555 233.756 133.311 232.018 134.438C230.493 135.314 229.147 136.47 228.051 137.845C227.445 138.656 226.847 139.941 227.757 140.771C228.306 141.106 228.93 141.299 229.572 141.333C230.214 141.368 230.855 141.243 231.437 140.97C230.967 141.542 230.614 142.201 230.4 142.91C230.215 143.549 230.277 144.235 230.573 144.83C230.869 145.426 231.379 145.889 232 146.126C232.624 146.295 233.278 146.329 233.916 146.225C234.554 146.122 235.163 145.883 235.703 145.526C235.315 146.291 235.117 147.138 235.125 147.995C235.114 148.228 235.149 148.46 235.228 148.679C235.307 148.897 235.429 149.098 235.586 149.27C235.743 149.441 235.933 149.579 236.144 149.677C236.355 149.775 236.584 149.83 236.816 149.838C237.797 149.773 238.744 149.454 239.565 148.912C240.055 148.636 240.53 148.334 240.989 148.008C241.205 148.203 241.421 148.398 241.629 148.597C241.499 148.858 241.36 149.114 241.239 149.378C240.665 150.633 240.191 151.932 239.821 153.262C239.621 153.989 239.453 154.725 239.314 155.466C239.256 155.62 239.239 155.786 239.263 155.948C239.288 156.111 239.353 156.265 239.453 156.395C239.787 156.743 240.143 157.069 240.52 157.37C241.355 158.102 242.216 158.81 243.093 159.493C245.966 161.744 249.012 163.765 252.203 165.536C256.375 167.875 260.818 169.693 265.432 170.95C267.042 171.375 268.673 171.716 270.319 171.971ZM307.96 130.278C305.72 132.176 298.714 133.504 295 132.122C294.422 131.957 293.931 131.574 293.631 131.054C293.356 130.41 293.193 129.723 293.151 129.024C292.936 126.333 293.044 123.626 293.471 120.96C294.821 121.695 296.279 122.213 297.791 122.496C300.501 122.973 303.29 122.717 305.868 121.754C308.447 120.791 310.721 119.157 312.455 117.019C309.829 127.31 309.827 128.696 307.96 130.278ZM287.672 112.838C286.611 110.419 286.193 107.766 286.458 105.138C286.723 102.509 287.663 99.994 289.186 97.8352C289.33 97.6352 289.472 97.4352 289.627 97.2416C291.297 95.1303 293.538 93.543 296.084 92.6685C298.629 91.7941 301.373 91.6692 303.987 92.3088C306.605 93.0289 308.971 94.4614 310.822 96.4467C312.673 98.4321 313.937 100.892 314.472 103.554C314.611 104.233 314.704 104.921 314.752 105.613C314.753 105.789 314.824 105.957 314.948 106.081C315.072 106.206 315.24 106.277 315.416 106.278C315.775 106.246 316.137 106.258 316.493 106.314C317.12 106.372 317.715 106.621 318.196 107.028C318.678 107.434 319.023 107.978 319.186 108.587C319.717 111.258 316.626 112.859 314.375 112.221C312.872 111.792 311 121.757 300.123 121.419C297.456 121.287 294.878 120.414 292.679 118.899C290.48 117.384 288.746 115.287 287.672 112.842V112.838ZM241.511 146.693C241.406 146.592 241.272 146.527 241.128 146.509C240.984 146.49 240.837 146.518 240.711 146.589C240.151 147.012 239.563 147.396 238.951 147.739C238.522 147.993 238.068 148.202 237.597 148.365C237.399 148.435 237.193 148.483 236.984 148.507C236.859 148.532 236.73 148.515 236.616 148.458C236.471 148.365 236.437 147.742 236.498 147.39C236.619 146.792 236.826 146.215 237.112 145.677C237.493 144.911 237.944 144.183 238.461 143.502C238.941 142.882 237.944 142.206 237.416 142.702C236.949 143.13 236.448 143.519 235.917 143.864C235.058 144.553 233.999 144.946 232.898 144.984C232.695 144.973 232.498 144.917 232.32 144.819C232.142 144.721 231.989 144.585 231.872 144.419C231.755 144.254 231.677 144.064 231.644 143.864C231.61 143.663 231.623 143.459 231.68 143.264C232.071 142.265 232.722 141.388 233.567 140.726C234.098 140.228 234.669 139.774 235.274 139.368C235.417 139.274 235.518 139.13 235.557 138.963C235.596 138.797 235.57 138.622 235.483 138.475C235.397 138.327 235.257 138.219 235.093 138.172C234.929 138.124 234.753 138.142 234.602 138.221C233.935 138.581 233.247 138.902 232.543 139.181C231.458 139.743 230.242 140.005 229.023 139.939C228.639 139.867 228.488 139.795 228.743 139.246C228.864 138.995 229.012 138.758 229.184 138.539C230.181 137.328 231.395 136.312 232.763 135.546C234.307 134.548 236.032 133.865 237.84 133.536C238.913 133.45 239.986 133.688 240.922 134.219C243.273 135.535 245.369 137.264 247.107 139.323C247.463 139.71 247.794 140.104 248.135 140.496C246.968 141.429 245.896 142.475 244.935 143.619C243.936 144.791 243.048 146.054 242.283 147.39C242.023 147.158 241.77 146.92 241.511 146.693ZM250.04 162.726C247.777 161.33 245.599 159.8 243.517 158.146C242.525 157.354 241.597 156.488 240.637 155.672C241.052 153.56 241.73 151.509 242.656 149.566C242.755 149.36 242.861 149.155 242.965 148.95C244.634 145.602 247.146 142.746 250.255 140.662C257.24 146.679 266.091 150.096 275.307 150.334H276.717C284.326 150.198 291.761 148.032 298.255 144.062C302.497 141.463 306.283 138.185 309.464 134.36C309.506 134.309 309.551 134.261 309.592 134.208C310.133 133.555 309.197 132.608 308.653 133.27C303.197 139.937 295.883 144.833 287.64 147.338C284.25 148.342 280.743 148.895 277.208 148.984C280.13 141.098 284.683 132.57 291.755 128.01V128.083C291.829 129.566 291.946 131.558 293.179 132.59C294.834 133.668 296.799 134.165 298.767 134.005C301.299 134.035 303.816 133.601 306.192 132.725C307.38 132.373 308.457 131.72 309.319 130.831C310.182 129.941 310.8 128.845 311.115 127.646L311.178 127.411C312.175 127.977 313.115 128.638 313.984 129.386C317.605 132.783 320.371 136.989 322.053 141.661C327.541 155.394 328.613 174.746 328.253 189.472C328.203 191.853 328.096 194.233 327.933 196.61C318.423 200.29 308.015 201.162 297.895 200.744C288.68 200.344 279.536 198.941 270.624 196.562C270.202 188.893 270.47 181.202 271.424 173.581C271.482 173.11 271.551 172.64 271.613 172.168C274.87 172.597 278.166 172.644 281.434 172.309C287.633 171.475 293.662 169.672 299.301 166.966C303.571 165.112 307.57 162.685 311.186 159.752C313.371 157.978 315.278 155.887 316.843 153.547C317.572 152.5 318.139 151.349 318.528 150.134C318.543 150.085 318.559 150.034 318.57 149.982C318.596 149.858 318.586 149.728 318.543 149.609C318.5 149.489 318.425 149.383 318.325 149.304C318.226 149.224 318.106 149.174 317.98 149.158C317.854 149.142 317.726 149.162 317.61 149.214C317.528 149.254 317.457 149.313 317.402 149.384C317.346 149.456 317.308 149.54 317.29 149.629C316.604 151.536 315.574 153.301 314.25 154.835C309.922 159.653 304.553 163.421 298.551 165.853C296.295 166.855 293.993 167.75 291.653 168.536C276.839 173.557 263.541 171.083 250.04 162.72V162.726ZM329.664 297.461C328.766 296.534 327.644 295.855 326.406 295.49C325.168 295.126 323.857 295.088 322.6 295.381C316.331 296.603 310.172 298.334 304.184 300.557C303.024 300.932 301.988 301.617 301.187 302.538C300.814 303.02 300.635 303.625 300.685 304.232C300.736 304.84 301.013 305.407 301.461 305.821C302.139 306.224 302.932 306.392 303.715 306.301L329.315 306.014C329.701 306.13 330.108 306.154 330.504 306.083C330.901 306.012 331.274 305.849 331.596 305.606C331.917 305.364 332.177 305.049 332.353 304.687C332.53 304.325 332.619 303.927 332.613 303.525C332.637 302.353 332.382 301.192 331.87 300.137C331.357 299.083 330.601 298.166 329.664 297.461ZM293.589 299.237C292.554 298.071 291.395 297.023 290.131 296.11C287.091 294.006 282.432 295.734 279.115 296.501C274.801 297.501 270.577 298.859 266.488 300.562C265.327 300.936 264.29 301.621 263.49 302.542C263.116 303.025 262.937 303.629 262.988 304.237C263.038 304.845 263.315 305.412 263.763 305.826C264.442 306.227 265.234 306.396 266.018 306.306L291.618 306.019C294.352 306.363 295.682 303.526 294.891 301.162C294.597 300.436 294.153 299.78 293.589 299.237Z" fill="black"/>
<path d="M292.824 107.29C292.445 109.818 292.485 114.01 296.906 114.01C301.28 114.01 302.093 110.478 302.178 108.293C302.195 107.801 302.033 107.32 301.722 106.94C301.411 106.559 300.971 106.305 300.486 106.224C298.886 105.952 296.6 105.717 295.027 105.57C294.51 105.522 293.994 105.673 293.584 105.993C293.175 106.312 292.903 106.776 292.824 107.29Z" fill="black"/>
<path d="M304.767 104.989C304.767 105.311 304.895 105.621 305.123 105.849C305.351 106.077 305.66 106.205 305.983 106.205C306.305 106.205 306.614 106.077 306.842 105.849C307.07 105.621 307.199 105.311 307.199 104.989C307.199 104.666 307.07 104.357 306.842 104.129C306.614 103.901 306.305 103.773 305.983 103.773C305.66 103.773 305.351 103.901 305.123 104.129C304.895 104.357 304.767 104.666 304.767 104.989Z" fill="black"/>
<path d="M293.741 100.579C293.741 100.338 293.67 100.103 293.536 99.9023C293.403 99.7019 293.213 99.5455 292.99 99.4531C292.768 99.3607 292.523 99.3364 292.287 99.3832C292.05 99.43 291.833 99.5458 291.663 99.7161C291.492 99.8863 291.376 100.103 291.329 100.339C291.282 100.576 291.306 100.821 291.398 101.043C291.49 101.266 291.646 101.456 291.847 101.59C292.047 101.724 292.282 101.795 292.523 101.795C292.846 101.795 293.155 101.667 293.384 101.439C293.612 101.211 293.74 100.902 293.741 100.579ZM308.92 100.539C309.493 101.555 309.19 102.61 310.026 102.571C310.346 102.558 310.738 102.277 310.69 101.907C310.604 100.801 310.134 99.7605 309.362 98.9648C308.878 98.5078 308.282 98.187 307.634 98.0352C307.472 97.9977 307.307 97.9736 307.141 97.9632C306.965 97.9649 306.797 98.0356 306.673 98.1601C306.548 98.2846 306.478 98.4529 306.477 98.6288C306.515 99.4832 308.114 99.1168 308.92 100.539ZM291.718 97.0448C292.518 97.5104 292.47 96.4144 293.915 96.1056C294.652 95.9976 295.403 96.1353 296.053 96.4976C296.206 96.5815 296.385 96.6036 296.554 96.5593C296.723 96.5149 296.868 96.4075 296.96 96.2592C297.047 96.1064 297.071 95.9255 297.027 95.7553C296.982 95.5851 296.873 95.4391 296.722 95.3488C296.149 95.0209 295.511 94.8232 294.853 94.7695C294.195 94.7159 293.534 94.8077 292.915 95.0384C292.348 95.2716 291.851 95.6495 291.475 96.1344C291.388 96.2876 291.364 96.4691 291.41 96.6395C291.455 96.81 291.566 96.9556 291.718 97.0448Z" fill="black"/>
<defs>
<linearGradient id="paint0_linear_21292_20037" x1="204.402" y1="292.967" x2="363.843" y2="89.0296" gradientUnits="userSpaceOnUse">
<stop stop-color="#53389E"/>
<stop offset="1" stop-color="#6941C6"/>
</linearGradient>
</defs>
</svg>
