<svg width="480" height="320" viewBox="0 0 480 320" fill="none" xmlns="http://www.w3.org/2000/svg">
<rect width="480" height="320" fill="#FFF0D9"/>
<path d="M258.929 89.888C257.564 83.3808 262.488 76.4608 260.641 69.9376C260.28 68.4161 259.413 67.0622 258.182 66.0976C254.632 63.5824 243.563 67.3968 240.636 77.4496C235.576 95.12 263.233 106.472 257.8 124.01C256.121 128.81 251.598 131.605 249.38 136.65C248.326 139.481 247.956 142.521 248.3 145.522C248.644 148.523 249.692 151.401 251.36 153.92C253.749 152.913 256.042 151.691 258.209 150.269C254.862 145.05 256.468 138.277 260.769 133.715C265.147 128.755 270.595 124.736 271.153 115.942C272.052 102.72 260.742 98.5408 258.929 89.888ZM251.963 93.0512C252.621 95.7751 254.098 98.232 256.195 100.091C256.665 100.51 255.971 101.202 255.502 100.784C253.282 98.8062 251.719 96.1976 251.022 93.3072C250.88 92.6976 251.816 92.4384 251.963 93.0512ZM257.422 73.8176C256.135 76.0767 255.5 78.6481 255.587 81.2464C255.611 81.8784 254.627 81.8752 254.606 81.2464C254.499 78.4721 255.182 75.7245 256.576 73.3232C256.645 73.22 256.752 73.1473 256.873 73.1197C256.995 73.0921 257.122 73.1117 257.23 73.1745C257.338 73.2374 257.417 73.3388 257.453 73.4582C257.489 73.5776 257.478 73.7061 257.422 73.8176ZM262.976 107.446C261.724 105.431 260.32 103.515 258.776 101.715C258.366 101.235 259.056 100.544 259.467 101.022C261.069 102.883 262.525 104.866 263.82 106.952C264.16 107.49 263.307 107.981 262.976 107.446ZM259.225 129.411C257.874 131.301 256.759 133.349 255.905 135.509C255.678 136.091 254.731 135.829 254.961 135.25C255.836 133.006 256.984 130.88 258.38 128.918C258.744 128.408 259.592 128.899 259.225 129.411ZM253.172 144.872L254.283 150.64C254.4 151.258 253.456 151.518 253.337 150.901L252.228 145.133C252.11 144.517 253.054 144.254 253.172 144.872ZM261.131 116.96C261.343 114.634 260.674 112.313 259.257 110.456C258.875 109.963 259.566 109.266 259.95 109.763C261.551 111.805 262.323 114.377 262.11 116.963C262.056 117.584 261.075 117.589 261.131 116.96ZM265.067 121.798C264.784 122.362 263.947 121.866 264.222 121.302C265.2 119.358 265.72 117.215 265.742 115.038C265.749 114.913 265.804 114.795 265.895 114.709C265.986 114.623 266.107 114.575 266.232 114.575C266.358 114.575 266.479 114.623 266.57 114.709C266.661 114.795 266.716 114.913 266.723 115.038C266.69 117.388 266.123 119.699 265.067 121.798ZM248.52 78.7024C248.78 78.128 249.622 78.6256 249.366 79.1968C248.268 81.6492 247.754 84.3232 247.865 87.008C247.891 87.64 246.905 87.6368 246.888 87.008C246.781 84.1505 247.34 81.3072 248.52 78.7024Z" fill="#FFD35C"/>
<path d="M330.488 167.04C319.596 157.842 301.65 154.149 286.927 156.182C292.162 159.046 294.84 165.984 294.767 171.741C294.429 177.392 288.068 180.187 283.335 181.461C277.944 182.925 272.286 183.104 266.813 181.985C261.341 180.865 256.207 178.478 251.824 175.014C243.253 175.797 237.789 174.374 232.428 171.477C209.879 177.981 200.696 184.33 193.708 189.371C186.57 194.525 182.996 202.872 182.007 211.654C186.167 209.431 190.797 208.23 195.514 208.151C200.23 208.072 204.898 209.117 209.13 211.2C213.13 203.946 225.208 197.85 252.52 201.384C256.28 212.248 268.821 222.725 267.053 233.722C266.733 235.661 265.588 240.101 264.855 242.842L266.295 243.835C270.22 242.195 274.292 240.928 278.455 240.051C281.89 239.206 291.698 236.176 294.698 235.752C294.603 235.727 294.518 235.676 294.451 235.605C294.384 235.533 294.339 235.444 294.321 235.348C294.303 235.252 294.313 235.153 294.35 235.062C294.386 234.971 294.447 234.892 294.527 234.835C300.191 230.925 305.319 227.918 309.82 223.413C309.397 223.285 308.975 223.158 308.565 222.99C307.988 222.755 308.245 221.808 308.826 222.046C309.399 222.276 309.987 222.465 310.586 222.614C310.887 222.288 311.18 221.956 311.464 221.618C311.348 221.338 311.503 220.965 311.989 220.965C313.376 219.373 314.412 217.507 315.029 215.488C315.646 213.469 315.83 211.343 315.57 209.248C315.41 208.232 315.044 207.274 314.858 206.272C313.48 198.122 306.714 192.608 300.796 186.872C300.343 186.432 301.036 185.741 301.49 186.179C307.143 191.658 313.49 196.899 315.493 204.48C315.634 205.043 315.7 205.621 315.829 206.186C316.309 207.626 316.598 209.123 316.687 210.638C316.783 214.357 315.583 217.994 313.292 220.925C315.377 220.813 317.418 220.277 319.29 219.352C319.853 219.072 320.349 219.917 319.784 220.198C317.526 221.32 315.041 221.911 312.519 221.926C312.264 222.246 311.994 222.546 311.719 222.848C312.911 223.048 314.125 223.085 315.327 222.958C315.952 222.891 315.948 223.872 315.327 223.939C313.859 224.089 312.377 224.005 310.935 223.691C309.093 225.56 307.103 227.275 304.983 228.821C302.554 230.635 295.084 235.666 294.924 235.718C299.038 235.662 303.085 236.771 306.596 238.918C309.661 240.706 312.232 243.231 314.074 246.264C315.916 249.297 316.971 252.742 317.144 256.286C322.944 255.52 328.49 253.429 333.353 250.176C338.215 246.923 342.264 242.595 345.186 237.526C356.688 217.909 351.948 185.16 330.488 167.04ZM233.21 200C233.202 200.078 233.177 200.153 233.137 200.22C233.096 200.286 233.041 200.343 232.976 200.386C232.911 200.429 232.836 200.456 232.759 200.466C232.681 200.477 232.603 200.469 232.528 200.445C232.441 200.5 232.337 200.522 232.235 200.508C232.132 200.494 232.038 200.444 231.968 200.368C230.752 199.153 229.95 197.585 229.676 195.888C229.576 195.272 230.52 195.008 230.62 195.629C230.829 196.94 231.392 198.17 232.247 199.186C232.285 197.429 231.901 195.688 231.127 194.11C230.847 193.547 231.692 193.053 231.973 193.616C232.973 195.587 233.402 197.798 233.21 200ZM274.936 197.76L271.824 191.253C271.504 190.586 272.498 190.003 272.818 190.672C273.857 192.839 274.895 195.009 275.932 197.179C276.252 197.838 275.256 198.422 274.936 197.76ZM311.797 168.397L305.178 171.667C304.514 171.987 303.932 171.002 304.596 170.672L311.215 167.402C311.877 167.067 312.461 168.062 311.797 168.39V168.397ZM330.037 187.245C329.349 189.954 328.597 192.645 327.88 195.347C327.837 195.491 327.739 195.613 327.608 195.685C327.476 195.758 327.321 195.777 327.176 195.737C327.031 195.697 326.907 195.602 326.831 195.472C326.756 195.342 326.734 195.188 326.77 195.042L328.925 186.938C328.965 186.789 329.062 186.663 329.195 186.586C329.328 186.51 329.487 186.489 329.635 186.529C329.783 186.569 329.91 186.666 329.986 186.799C330.063 186.932 330.084 187.09 330.044 187.238L330.037 187.245Z" fill="#FCAFB7"/>
<path d="M222.345 150.587C222.234 148.91 221.706 147.287 220.809 145.866C219.882 144.686 218.675 143.757 217.297 143.163C215.919 142.57 214.414 142.33 212.92 142.467C208.992 142.674 205.27 144.418 201.54 145.518C194.528 147.587 186.675 148.669 180.006 144.939C177.128 143.396 174.869 140.911 173.606 137.899C172.535 134.769 172.071 131.463 172.24 128.158C172.24 121.981 172.793 115.122 168.526 110.078C164.219 104.981 154.913 102.37 144.384 106.491C140.98 107.738 137.504 109.176 133.806 108.917C132.154 108.853 130.559 108.3 129.223 107.326C127.888 106.352 126.872 105.003 126.307 103.45C125.342 100.174 124.857 96.7751 124.867 93.36L124.452 87.3952C124.401 86.6592 123.249 86.6544 123.3 87.3952C123.977 97.1168 123.729 103.795 127.553 107.506C133.75 112.856 140.76 108.71 147.34 106.694C156.38 103.926 167.094 106.25 170.049 115.107C170.963 118.38 171.324 121.783 171.118 125.174C171.06 131.624 170.945 138.576 175.968 143.39C184.06 151.146 196.435 148.819 206.976 144.99C210.518 143.818 214.627 142.691 218.038 144.83C218.721 145.226 219.311 145.762 219.771 146.403C220.23 147.044 220.548 147.775 220.704 148.549C220.803 149.383 221.025 150.197 221.361 150.966C221.682 150.822 222.01 150.695 222.345 150.587ZM267.403 143.2C266.657 139.512 270.323 136.43 273.833 135.888C277.846 135.099 281.859 135.627 285.724 132.099C291.72 126.648 293.152 115.459 291.34 107.382C289.39 98.6896 283.001 91.7376 281.288 82.992C280.571 79.0169 281.057 74.9185 282.684 71.2215C284.311 67.5244 287.004 64.3971 290.419 62.24C292.224 61.1296 294.449 60.4256 295.627 58.5344C296.574 56.5193 296.792 54.2381 296.244 52.08C295.457 46.3419 294.192 40.6795 292.462 35.152C292.241 34.4464 291.129 34.7472 291.352 35.4576C292.886 40.3589 294.055 45.3673 294.849 50.4416C295.18 52.56 295.766 55.064 295.019 57.1616C294.246 59.3248 291.854 60.0416 290.059 61.1216C286.775 63.1366 284.093 65.9961 282.292 69.4015C280.491 72.8069 279.637 76.6334 279.819 80.4816C280.635 93.7728 293.419 101.504 290.593 119.163C289.432 126.346 286.044 133.048 278.86 134.032C276.333 134.216 273.832 134.662 271.396 135.363C268.286 136.59 264.996 140.584 266.499 144.043C266.826 143.792 267.129 143.509 267.403 143.2Z" fill="#B26EE6"/>
<path d="M272.538 160.349C272.538 160.219 272.589 160.094 272.681 160.003C272.773 159.911 272.897 159.859 273.027 159.859C273.157 159.859 273.282 159.911 273.374 160.003C273.465 160.094 273.517 160.219 273.517 160.349C273.562 169.835 262.618 174.005 253.253 174.886C265.851 184.398 283.535 183.054 291.368 176.408C292.382 175.551 293.134 174.425 293.537 173.16C293.941 171.895 293.98 170.542 293.65 169.256C291.25 153.941 280.965 156.253 273.28 152.296C273.208 152.252 273.148 152.19 273.106 152.116C273.065 152.042 273.043 151.958 273.043 151.874C273.043 151.789 273.065 151.705 273.106 151.631C273.148 151.557 273.208 151.495 273.28 151.451C273.917 151.099 274.422 150.55 274.72 149.886C275.419 146.902 273.92 142.318 270.813 142.488C269.147 142.578 268.047 143.973 266.872 144.998C262.758 148.693 258.144 151.789 253.167 154.195C250.146 155.623 246.912 156.546 243.592 156.925C236.928 157.766 226.005 157.885 222.101 152.459C221.533 159.674 226.722 168.072 235.002 171.672C239.343 173.702 244.087 174.699 251.978 174.026C261.184 173.424 272.579 169.536 272.538 160.349ZM235.898 161.373C235.991 160.75 236.935 161.016 236.842 161.632C236.514 162.858 236.585 164.156 237.043 165.339C237.246 165.781 237.608 166.131 238.057 166.317C238.507 166.503 239.01 166.513 239.466 166.344C240.024 166.045 240.517 166.891 239.962 167.189C239.354 167.471 238.665 167.527 238.02 167.346C237.375 167.166 236.815 166.761 236.442 166.205C236.037 165.475 235.781 164.672 235.687 163.843C235.594 163.014 235.666 162.174 235.898 161.373ZM252.456 160.226L253.615 163.294C253.839 163.886 252.891 164.141 252.671 163.555L251.511 160.486C251.288 159.894 252.234 159.642 252.456 160.226ZM268.488 150.082C271.039 147.042 270.96 145.83 271.707 146.301C271.812 146.368 271.888 146.471 271.919 146.592C271.951 146.712 271.936 146.839 271.877 146.949C271.089 148.299 270.187 149.579 269.181 150.774C268.775 151.258 268.087 150.56 268.488 150.08V150.082ZM229.685 162.906C229.291 162.141 228.897 161.378 228.503 160.616C228.213 160.056 229.059 159.562 229.349 160.122L230.53 162.41C230.819 162.97 229.975 163.466 229.685 162.906ZM248.791 170.074C248.665 170.039 248.559 169.956 248.495 169.843C248.431 169.73 248.414 169.596 248.449 169.471C248.484 169.346 248.566 169.24 248.679 169.176C248.792 169.112 248.926 169.095 249.051 169.13C250.856 169.625 252.772 169.531 254.52 168.863C256.268 168.195 257.758 166.987 258.773 165.414C259.106 164.878 259.954 165.371 259.619 165.909C258.505 167.679 256.849 169.041 254.898 169.792C252.946 170.544 250.804 170.645 248.791 170.08V170.074Z" fill="#FFCEB6"/>
<path d="M223.415 100.101C223.702 96.2192 223.475 92.3165 222.739 88.4944C221.363 81.3888 215.091 75.176 207.779 77.1008C204.595 78.0304 202.029 80.2496 198.989 81.4912C197.521 82.2086 195.851 82.4002 194.258 82.0338C192.666 81.6674 191.247 80.7653 190.24 79.4784C185.229 73.6544 188.496 64.9184 185.25 56.7712C182.757 49.8784 174.949 45.3168 168.514 49.5296C161.911 53.9696 161.968 62.9808 162.943 70.0096C163.755 77.2414 166.701 84.0678 171.407 89.6192C178.202 97.2448 189.919 100.408 198.831 95.296C200.393 94.1782 202.035 93.1766 203.744 92.2992C208.607 90.3152 213.504 94.5904 215 100.15C215.979 103.781 216.234 107.83 219.077 110.603C220.178 111.714 221.641 112.392 223.2 112.514C224.512 112.64 222.653 109.944 223.415 100.101ZM215.68 90.088C214.073 89.0847 212.15 88.7172 210.287 89.0576C209.669 89.1728 209.408 88.2288 210.027 88.1136C212.145 87.7083 214.339 88.1107 216.175 89.2416C216.712 89.5728 216.219 90.4224 215.68 90.088ZM204.592 83.984C206.947 83.5136 209.318 83.1296 211.704 82.832C212.328 82.7536 212.32 83.7344 211.704 83.8112C209.407 84.1024 207.123 84.4757 204.853 84.9312C204.237 85.0512 203.976 84.1072 204.594 83.984H204.592ZM199.163 87.528C196.615 88.4984 193.822 88.6263 191.195 87.8928C191.077 87.8523 190.979 87.7683 190.92 87.6578C190.862 87.5474 190.848 87.4188 190.881 87.2983C190.914 87.1778 190.992 87.0744 191.098 87.0091C191.205 86.9439 191.332 86.9218 191.455 86.9472C193.911 87.6293 196.522 87.502 198.901 86.584C199.495 86.3584 199.746 87.3072 199.165 87.528H199.163ZM175.056 64.496C174.662 62.4261 174.559 60.3113 174.749 58.2128C174.805 57.5888 175.786 57.584 175.728 58.2128C175.537 60.2231 175.628 62.2503 176 64.2352C176.117 64.8528 175.175 65.12 175.056 64.496ZM183.323 73.6976C183.666 74.2288 182.818 74.7184 182.477 74.1904C180.529 71.1613 179.697 67.5488 180.122 63.9728C180.199 63.3536 181.176 63.3488 181.101 63.9728C180.683 67.3745 181.469 70.8151 183.323 73.6976ZM186.349 91.656C183.454 91.414 180.723 90.2142 178.586 88.2464C178.12 87.8176 178.815 87.1264 179.279 87.552C181.225 89.3471 183.711 90.4455 186.349 90.6752C186.973 90.728 186.976 91.7088 186.349 91.656ZM178.205 78.88C178.632 79.8995 179.292 80.8049 180.131 81.5239C180.971 82.2429 181.967 82.7555 183.04 83.0208C183.159 83.0608 183.258 83.1449 183.317 83.2558C183.376 83.3667 183.391 83.4959 183.357 83.617C183.324 83.7381 183.245 83.8418 183.138 83.9067C183.03 83.9717 182.902 83.9931 182.779 83.9664C181.547 83.6489 180.407 83.0468 179.45 82.2084C178.493 81.37 177.746 80.3188 177.269 79.1392C177.021 78.56 177.967 78.3056 178.205 78.88ZM170.655 71.7408C169.862 68.9679 169.544 66.0806 169.717 63.2016C169.749 62.5728 170.728 62.5712 170.696 63.2016C170.351 69.816 172.378 71.7952 171.237 72.0704C171.116 72.102 170.987 72.0851 170.878 72.0232C170.77 71.9614 170.689 71.8595 170.655 71.7392V71.7408Z" fill="#B26EE6"/>
<path d="M234.125 38.336C231.776 37.1072 231.014 37.9712 227.43 37.816C224.87 37.4016 223.344 33.976 226.47 29.3008C231.632 20.8832 236.203 22.5056 233.107 14.4592C231.818 10.5824 228.661 7.14399 224.48 8.18399C223.524 8.42445 222.644 8.90243 221.922 9.57364C221.199 10.2448 220.658 11.0875 220.349 12.0236C220.039 12.9596 219.97 13.9587 220.15 14.9282C220.329 15.8977 220.75 16.8063 221.374 17.5696C223.334 19.752 224.75 19.5136 225.534 21.6944C226.069 24.0736 223.486 25.7968 221.898 27.0192C215.938 30.904 218.36 39.6944 226.088 40.9792C228.934 41.496 232.518 40.5968 234.202 42.7536C236.07 45.6336 231.802 49.0048 232.515 52.9824C232.582 53.48 233.174 53.3152 233.014 53.344C233.122 53.3664 233.235 53.3453 233.327 53.2854C233.42 53.2255 233.485 53.1316 233.509 53.024C234.552 48.0368 236.522 46.784 237.059 42.6752C236.976 41.7629 236.664 40.8864 236.151 40.1276C235.638 39.3688 234.941 38.7524 234.125 38.336Z" fill="#6DD3A8"/>
<path d="M192.584 107.904C189.675 107.19 187.12 110.28 187.35 113.264C187.581 116.248 192.045 116.893 194.336 114.965C194.837 114.44 195.198 113.797 195.384 113.096C195.57 112.394 195.576 111.657 195.402 110.953C195.227 110.248 194.877 109.599 194.384 109.066C193.892 108.534 193.272 108.134 192.584 107.904Z" fill="#FCAFB7"/>
<path d="M211.655 56.8208C211.02 56.6287 210.346 56.6069 209.7 56.7574C209.054 56.9079 208.459 57.2255 207.975 57.6784C207.642 58.2026 207.473 58.814 207.489 59.4347C207.506 60.0554 207.706 60.6571 208.066 61.1632C208.47 61.4587 208.941 61.6504 209.437 61.7214C209.933 61.7924 210.438 61.7405 210.909 61.5703C211.38 61.4002 211.802 61.1169 212.138 60.7454C212.474 60.374 212.714 59.9257 212.836 59.44C212.951 58.9344 212.898 58.405 212.685 57.9322C212.472 57.4594 212.11 57.0692 211.655 56.8208Z" fill="#FFD35C"/>
<path d="M237.403 141.397C233.388 141.923 229.343 142.177 225.294 142.157C225.269 138.943 225.503 135.733 225.995 132.557C226.023 132.437 226.008 132.31 225.952 132.2C225.896 132.09 225.803 132.003 225.689 131.956C225.575 131.908 225.448 131.902 225.33 131.939C225.213 131.976 225.112 132.054 225.046 132.158C223.862 134.015 222.119 135.448 220.068 136.251C219.454 136.491 219.721 137.493 220.345 137.251C226.984 134.674 224.092 130.01 224.252 142.672C224.255 142.809 224.311 142.94 224.408 143.036C224.505 143.133 224.635 143.188 224.772 143.19C228.527 143.223 232.279 143.02 236.008 142.584C233.779 144.793 231.623 147.073 229.544 149.422C229.102 149.92 229.835 150.656 230.276 150.155C232.676 147.437 235.174 144.811 237.769 142.275C238.062 141.997 237.867 141.336 237.403 141.397Z" fill="#6DD3A8"/>
<path d="M273.992 24.8C270.101 20.6992 266.013 16.4 264.33 10.864C264.117 10.1568 263.004 10.4576 263.22 11.1696C264.807 16.3968 268.413 20.5696 272.101 24.4784C270.061 24.3577 268.018 24.6631 266.103 25.3751C264.187 26.0872 262.441 27.1904 260.975 28.6144C260.352 29.2272 259.711 29.9712 260.226 30.8656C262.2 33.3082 264.715 35.2591 267.572 36.5648L257.764 36.512C257.611 36.512 257.464 36.5727 257.356 36.6807C257.248 36.7887 257.188 36.9352 257.188 37.088C257.188 37.2408 257.248 37.3873 257.356 37.4953C257.464 37.6033 257.611 37.664 257.764 37.664L270.69 37.7328C270.827 37.7293 270.958 37.6774 271.06 37.5862C271.163 37.495 271.229 37.3706 271.249 37.2349C271.268 37.0993 271.238 36.9612 271.165 36.8452C271.092 36.7293 270.981 36.643 270.85 36.6016C267.189 35.4865 263.912 33.3733 261.386 30.4992C261.192 30.2544 261.16 30.152 261.352 29.8944C262.874 28.2671 264.772 27.0388 266.88 26.3179C268.988 25.5969 271.241 25.4053 273.44 25.76C273.561 25.7863 273.687 25.7736 273.799 25.7236C273.912 25.6737 274.006 25.5891 274.068 25.4821C274.129 25.3751 274.155 25.2514 274.142 25.1287C274.128 25.0061 274.076 24.8909 273.992 24.8Z" fill="#FF9F48"/>
<path d="M248.52 78.7024C247.34 81.3073 246.782 84.1505 246.888 87.008C246.912 87.6368 247.891 87.64 247.866 87.008C247.754 84.3232 248.268 81.6492 249.367 79.1968C249.623 78.6256 248.781 78.128 248.52 78.7024ZM255.587 81.2464C255.482 78.6462 256.118 76.0696 257.423 73.8176C257.478 73.7061 257.489 73.5776 257.454 73.4582C257.418 73.3388 257.338 73.2374 257.231 73.1745C257.123 73.1117 256.996 73.0921 256.874 73.1197C256.752 73.1473 256.646 73.22 256.576 73.3232C255.183 75.7247 254.5 78.4722 254.607 81.2464C254.632 81.8752 255.611 81.8784 255.587 81.2464ZM256.195 100.096C254.099 98.2365 252.622 95.7798 251.963 93.056C251.816 92.4432 250.872 92.7024 251.021 93.3168C251.718 96.2072 253.281 98.8158 255.501 100.794C255.973 101.206 256.667 100.515 256.195 100.096ZM259.467 101.022C259.056 100.542 258.367 101.24 258.776 101.715C260.32 103.516 261.725 105.432 262.976 107.446C263.307 107.982 264.155 107.49 263.821 106.952C262.525 104.866 261.069 102.884 259.467 101.022ZM259.258 110.456C260.678 112.311 261.347 114.634 261.131 116.96C261.075 117.589 262.056 117.584 262.111 116.96C262.324 114.374 261.553 111.802 259.951 109.76C259.567 109.266 258.88 109.963 259.258 110.456ZM265.743 115.04C265.705 117.215 265.186 119.354 264.223 121.304C263.939 121.867 264.784 122.363 265.067 121.8C266.125 119.702 266.69 117.39 266.72 115.04C266.708 114.919 266.651 114.806 266.561 114.724C266.471 114.643 266.353 114.597 266.231 114.597C266.109 114.597 265.992 114.643 265.902 114.724C265.811 114.806 265.755 114.919 265.743 115.04ZM258.381 128.918C256.984 130.879 255.835 133.006 254.962 135.25C254.731 135.837 255.677 136.091 255.906 135.509C256.759 133.348 257.874 131.3 259.226 129.411C259.594 128.898 258.744 128.408 258.381 128.918ZM252.229 145.133L253.338 150.901C253.456 151.518 254.402 151.258 254.283 150.64L253.173 144.872C253.055 144.254 252.111 144.515 252.229 145.133ZM231.978 193.611C231.695 193.046 230.858 193.541 231.131 194.106C231.906 195.683 232.29 197.424 232.251 199.181C231.396 198.165 230.833 196.935 230.624 195.624C230.525 195.003 229.581 195.267 229.68 195.883C229.955 197.58 230.758 199.147 231.973 200.363C232.043 200.439 232.137 200.488 232.239 200.502C232.341 200.516 232.445 200.494 232.533 200.44C232.607 200.464 232.686 200.472 232.763 200.462C232.841 200.451 232.915 200.424 232.98 200.381C233.046 200.338 233.101 200.282 233.141 200.215C233.182 200.148 233.207 200.073 233.215 199.995C233.395 197.794 232.967 195.586 231.978 193.611Z" fill="black"/>
<path d="M207.741 220.928C207.374 220.428 207.167 219.829 207.148 219.21C206.808 216.702 207.197 214.15 208.268 211.858C204.21 209.921 199.749 208.978 195.255 209.104C190.761 209.231 186.361 210.424 182.418 212.586C181.959 221.16 182.794 229.754 184.895 238.08C185.733 240.499 187.784 243.267 190.724 242.624C193.535 242.01 193.432 238.541 193.25 236.306C193.207 235.763 193.903 235.722 194.164 236.059L197.284 240.122C198.018 241.082 198.943 242.723 200.359 242.589C200.983 242.469 201.553 242.155 201.987 241.691C202.422 241.228 202.699 240.638 202.778 240.008C202.864 238.385 202.516 236.769 201.77 235.325C201.599 234.899 202.152 234.594 202.49 234.771C206.215 237.171 205.42 239.363 208.535 241.811C208.878 241.985 209.253 242.085 209.638 242.103C210.022 242.121 210.405 242.057 210.763 241.916C211.121 241.776 211.444 241.56 211.713 241.285C211.981 241.01 212.188 240.681 212.32 240.32C214.05 236.139 212.896 230.701 210.68 226.904C210.629 226.81 210.609 226.702 210.624 226.596C210.639 226.491 210.688 226.392 210.764 226.317C210.839 226.241 210.937 226.192 211.043 226.176C211.149 226.161 211.257 226.181 211.351 226.232C213.821 227.992 217.464 228.672 218.824 225.912C219.855 223.365 216.33 222.026 214.436 221.861C211.722 221.669 209.554 222.515 207.741 220.928ZM189.264 230.627C189.048 231.216 188.101 230.96 188.319 230.368C188.652 229.48 188.867 228.553 188.959 227.61C189.016 226.986 189.997 226.982 189.938 227.61C189.848 228.641 189.622 229.656 189.264 230.627ZM196.572 229.323C196.472 229.946 195.528 229.682 195.628 229.062L195.948 227.053C196.048 226.432 196.991 226.698 196.892 227.314C196.787 227.985 196.68 228.654 196.572 229.323ZM204.647 227.598C204.538 228.218 203.596 227.954 203.703 227.338L204.232 224.298C204.34 223.677 205.285 223.941 205.176 224.557C205 225.572 204.822 226.586 204.64 227.598H204.647Z" fill="#FFCEB6"/>
<path d="M282.417 273.734C281.473 271.06 280.752 268.313 280.261 265.52C278.021 268.835 277.267 273.118 273.701 274.32C273.106 274.481 272.477 274.453 271.899 274.239C271.322 274.026 270.826 273.637 270.48 273.128C270.132 272.279 270.053 271.343 270.254 270.448C270.856 264.086 270.934 264.154 270.667 263.954C270.115 263.542 267.389 264.274 265.766 266.306C264.166 268.109 264.233 268.722 263.046 270.01C262.789 270.234 262.482 270.393 262.151 270.475C261.819 270.556 261.473 270.557 261.142 270.477C260.81 270.397 260.502 270.239 260.244 270.016C259.986 269.793 259.784 269.512 259.657 269.195C258.857 267.574 259.582 266.325 261.995 258.989C258.881 259.533 257.006 264.616 254.024 265.206C253.444 265.336 252.837 265.23 252.335 264.912C251.833 264.594 251.478 264.09 251.349 263.51C251.255 261.852 251.718 260.21 252.664 258.845C255.375 254.142 258.721 249.834 262.608 246.045C263.309 245.258 263.462 244.973 266.278 243.816C264.088 242.296 262.048 240.902 260.137 239.462C260.058 239.414 259.968 239.389 259.876 239.389C259.783 239.389 259.693 239.414 259.614 239.462C241.329 253.33 240.094 253.355 240.293 254.192C241.957 261.592 244.083 268.881 246.657 276.016C247.765 278.963 247.665 278.813 248.417 279.229C265.483 288.613 264.955 288.189 265.277 287.998C271.417 284.031 277.115 279.419 282.273 274.238C282.34 274.175 282.389 274.095 282.414 274.006C282.439 273.917 282.44 273.824 282.417 273.734ZM241.472 254.854C241.404 254.782 241.36 254.689 241.347 254.591C241.334 254.492 241.352 254.392 241.398 254.304L241.389 254.264C241.577 254.122 241.526 254.104 241.689 254.038C241.772 254.004 241.863 253.998 241.95 254.02C242.036 254.042 242.113 254.092 242.169 254.162C244.588 256.893 247.354 259.295 250.397 261.309C250.923 261.654 250.432 262.502 249.904 262.154C246.789 260.097 243.954 257.645 241.472 254.858V254.854ZM264.865 287.373C263.172 282.777 261.739 278.089 260.574 273.331C260.425 272.717 261.374 272.458 261.52 273.07C262.685 277.828 264.117 282.516 265.809 287.112C266.029 287.709 265.081 287.962 264.865 287.376V287.373Z" fill="#FFD35C"/>
<path d="M281.184 262.942C290.633 254.87 304.086 257.216 316.128 255.902C315.812 252.515 314.741 249.241 312.995 246.322C311.088 243.494 308.551 241.148 305.583 239.467C302.615 237.787 299.298 236.818 295.892 236.637C294.208 236.578 293.587 236.848 289.747 237.917C271.507 242.955 271.713 242.686 266.676 244.718C264.98 245.217 263.49 246.25 262.428 247.664C258.779 251.304 255.67 255.448 253.196 259.97C252.691 260.968 251.707 262.84 252.587 263.891C253.728 265.25 255.66 263.19 256.419 262.363C258.139 260.486 259.86 257.92 262.702 257.957C262.833 257.959 262.958 258.012 263.049 258.106C263.141 258.199 263.191 258.325 263.19 258.456C263.19 258.574 263.278 258.278 261.305 264.261C260.974 265.157 260.689 266.07 260.452 266.995C260.306 267.411 260.286 267.861 260.396 268.288C260.505 268.716 260.739 269.101 261.067 269.395C263.147 270.851 263.985 264.034 269.188 263.006C269.838 262.811 270.534 262.842 271.164 263.093C271.416 263.267 271.609 263.513 271.72 263.798C271.831 264.083 271.853 264.395 271.785 264.693C271.252 271.365 270.924 271.464 271.305 272.587C271.463 272.856 271.691 273.077 271.964 273.226C272.237 273.376 272.546 273.449 272.857 273.438C276.494 273.554 277.633 265.976 281.184 262.942ZM265.299 252.382C265.299 252.512 265.247 252.637 265.155 252.729C265.064 252.82 264.939 252.872 264.809 252.872C264.679 252.872 264.555 252.82 264.463 252.729C264.371 252.637 264.32 252.512 264.32 252.382V250.08C264.32 249.95 264.371 249.826 264.463 249.734C264.555 249.642 264.679 249.59 264.809 249.59C264.939 249.59 265.064 249.642 265.155 249.734C265.247 249.826 265.299 249.95 265.299 250.08V252.382ZM278.683 256.57C278.945 257.844 279.042 259.147 278.971 260.446C278.934 261.074 277.956 261.075 277.992 260.446C278.065 259.235 277.98 258.02 277.739 256.83C277.612 256.213 278.56 255.95 278.683 256.568V256.57ZM271.963 256.114L271.6 253.512C271.513 252.894 272.459 252.63 272.545 253.251L272.907 255.853C272.992 256.469 272.046 256.733 271.961 256.112L271.963 256.114Z" fill="#FFCEB6"/>
<path d="M194.016 251.547C194.025 251.464 194.009 251.381 193.972 251.307C193.934 251.233 193.875 251.171 193.803 251.13C199.106 248.924 204.574 247.14 210.157 245.794C210.71 245.456 210.515 244.674 210.192 244.272C209.79 243.776 209.118 244.424 209.421 244.934C204.056 246.249 198.798 247.964 193.69 250.064C193.71 250 193.717 249.932 193.711 249.865C193.704 249.798 193.685 249.732 193.653 249.673C193.621 249.613 193.578 249.56 193.526 249.518C193.474 249.475 193.413 249.443 193.349 249.424C175.555 243.8 173.139 244.531 171 242.59C170.898 242.497 170.764 242.447 170.626 242.453C170.488 242.458 170.358 242.518 170.264 242.619C170.264 242.619 170.238 242.206 170.229 242L182.936 237.659C183.565 237.445 183.294 236.443 182.661 236.659L170.125 240.941C169.902 240.51 169.12 240.582 169.147 241.163C169.483 248.581 170.114 255.974 171.038 263.344C171.122 263.998 172.158 264.006 172.075 263.344C171.242 256.704 170.652 250.041 170.304 243.355C173.533 245.814 174.501 244.547 192.949 250.386C192.875 250.443 192.818 250.519 192.781 250.605C192.745 250.691 192.731 250.785 192.741 250.877C192.75 250.97 192.784 251.059 192.837 251.136C192.891 251.212 192.963 251.274 193.046 251.315C192.608 256.204 193.104 261.132 194.509 265.835C194.545 265.968 194.633 266.081 194.753 266.148C194.812 266.182 194.877 266.204 194.945 266.212C195.012 266.221 195.081 266.216 195.146 266.198C195.212 266.18 195.274 266.149 195.327 266.107C195.381 266.065 195.426 266.013 195.46 265.954C195.493 265.895 195.515 265.829 195.523 265.762C195.532 265.694 195.527 265.626 195.509 265.56C194.126 261.026 193.62 256.271 194.016 251.547ZM220.187 257.92C212.275 260.935 204.484 264.242 196.814 267.84C196.211 268.123 196.738 269.016 197.339 268.736C204.593 265.338 211.959 262.198 219.438 259.317C219.376 259.289 219.32 259.25 219.273 259.201C219.227 259.152 219.19 259.094 219.166 259.031C219.141 258.967 219.13 258.9 219.131 258.832C219.133 258.764 219.148 258.697 219.176 258.635C219.414 258.094 220.01 258.414 220.776 258.613C220.917 258.24 220.651 257.741 220.187 257.92Z" fill="#B26EE6"/>
<path d="M191.79 269.381C191.79 269.381 178.875 265.718 177.302 265.261C175.906 264.955 174.608 264.305 173.526 263.37C173.046 262.902 172.317 263.635 172.792 264.104C174.803 265.928 175.078 265.704 191.512 270.381C191.642 270.408 191.777 270.386 191.89 270.317C192.003 270.248 192.086 270.139 192.121 270.012C192.157 269.884 192.142 269.748 192.081 269.631C192.019 269.513 191.916 269.424 191.79 269.381ZM219.862 244.922C219.821 244.259 218.784 244.254 218.826 244.922C219.068 248.868 219.427 252.807 219.902 256.739C219.981 257.394 221.022 257.402 220.939 256.739C220.462 252.812 220.104 248.873 219.862 244.922Z" fill="#B26EE6"/>
<path d="M214.08 278.24C208.448 276.621 202.819 274.992 197.328 272.944C196.702 272.71 196.432 273.712 197.053 273.944C202.544 275.991 208.135 277.758 213.805 279.24C213.937 279.277 214.079 279.259 214.199 279.191C214.318 279.123 214.406 279.01 214.442 278.878C214.479 278.745 214.461 278.603 214.393 278.484C214.325 278.364 214.213 278.277 214.08 278.24ZM213.678 280.64L214.837 301.085C214.875 301.749 215.912 301.754 215.874 301.085L214.72 280.64C214.678 279.982 213.642 279.978 213.678 280.64ZM239.84 266.848C233.631 262.987 226.858 260.118 219.765 258.346C219.641 258.322 219.513 258.343 219.404 258.407C219.296 258.471 219.214 258.572 219.175 258.692C219.135 258.811 219.141 258.941 219.191 259.057C219.241 259.173 219.331 259.266 219.445 259.32C226.471 261.068 233.18 263.91 239.325 267.741C239.886 268.096 240.406 267.2 239.84 266.848ZM220.11 280.333C236.643 273.989 236.648 274.291 238.568 272.446C239.024 271.966 238.293 271.226 237.835 271.714C236.117 273.314 236.523 272.942 219.835 279.333C219.218 279.57 219.486 280.573 220.11 280.333ZM213.216 299.813C200.186 295.542 199.888 295.653 198.083 294.122C197.594 293.669 196.859 294.402 197.35 294.854C199.27 296.627 202.008 297.234 204.429 298.026L212.941 300.813C213.576 301.021 213.85 300.019 213.216 299.813ZM238.734 293.514C233.705 296.446 228.405 298.889 222.909 300.808C221.04 301.626 219.012 302.015 216.973 301.947C216.31 301.874 216.317 302.907 216.973 302.984C218.997 303.068 221.014 302.702 222.88 301.912C228.573 299.958 234.058 297.445 239.256 294.41C239.374 294.34 239.459 294.226 239.493 294.094C239.528 293.962 239.508 293.821 239.439 293.703C239.371 293.585 239.258 293.499 239.126 293.463C238.994 293.428 238.853 293.446 238.734 293.514Z" fill="#6DD3A8"/>
<path d="M187.747 274.062L173.378 278.382C173.251 278.349 173.117 278.359 172.997 278.411L172.253 278.739C171.651 279.003 172.082 279.978 172.698 279.792L188.058 275.17C188.196 275.122 188.311 275.022 188.379 274.892C188.447 274.762 188.463 274.611 188.424 274.47C188.384 274.329 188.292 274.208 188.166 274.132C188.041 274.056 187.891 274.031 187.747 274.062ZM193.403 278.04C193.403 277.887 193.343 277.741 193.235 277.633C193.127 277.525 192.98 277.464 192.827 277.464C192.675 277.464 192.528 277.525 192.42 277.633C192.312 277.741 192.251 277.887 192.251 278.04C192.41 284.461 192.97 290.865 193.928 297.216C194.039 297.946 195.149 297.637 195.048 296.909C194.126 290.657 193.577 284.357 193.403 278.04ZM186.679 297.76C169.698 304.31 169.947 304.349 167.421 304.814L167.535 304.584C167.574 304.499 167.593 304.406 167.591 304.313C167.589 304.22 167.566 304.128 167.523 304.045C167.48 303.962 167.419 303.89 167.344 303.834C167.27 303.778 167.183 303.739 167.091 303.722C166.26 296.624 165.62 289.508 165.171 282.374C165.125 281.638 163.971 281.634 164.019 282.374C164.279 286.509 165.714 304.533 166.178 305.285C166.026 305.64 166.178 306.118 166.669 306.077C168.335 305.893 169.968 305.477 171.519 304.84C173.242 304.19 186.989 298.872 186.989 298.872C187.671 298.613 187.373 297.498 186.679 297.76ZM164.97 278.632C158.823 276.096 152.465 274.109 145.968 272.694C154.075 269.958 162.084 266.941 169.995 263.642C170.669 263.362 170.373 262.245 169.688 262.531C150.968 270.357 144.568 271.53 144.33 272.277C144.135 272.226 143.939 272.181 143.744 272.13C143.598 272.093 143.444 272.115 143.314 272.191C143.184 272.267 143.089 272.39 143.049 272.536C143.009 272.681 143.027 272.835 143.1 272.967C143.173 273.099 143.294 273.197 143.439 273.24C150.688 274.79 157.79 276.967 164.664 279.744C165.347 280.026 165.647 278.912 164.97 278.632Z" fill="#FF9F48"/>
<path d="M168.057 249.509C161.509 252.788 154.653 255.414 147.59 257.349C146.95 257.552 147.412 258.789 147.958 259L149.312 269.418C149.392 270.034 150.372 270.042 150.291 269.418L148.985 259.373C152.73 260.776 156.638 261.696 160.616 262.109C161.243 262.174 161.238 261.195 160.616 261.131C157.116 260.762 150.678 259.394 148.628 258.069C155.498 256.131 162.169 253.547 168.552 250.352C169.12 250.072 168.62 249.227 168.057 249.509ZM214.428 220.875C211.98 220.683 208.041 221.821 208.1 219.016C207.785 216.566 208.21 214.077 209.321 211.87C209.384 211.758 209.401 211.625 209.368 211.5C209.336 211.375 209.256 211.267 209.145 211.2H209.129C204.9 209.113 200.234 208.066 195.519 208.146C190.804 208.226 186.176 209.43 182.02 211.659C181.826 211.727 181.661 211.859 181.552 212.034C181.444 212.208 181.399 212.415 181.425 212.619C181.074 218.25 181.335 223.902 182.204 229.477C183.099 236.517 183.804 239.469 186.204 242.128C187.016 242.968 188.098 243.497 189.259 243.622C190.421 243.747 191.59 243.461 192.563 242.813C193.214 242.175 193.71 241.396 194.013 240.536C194.315 239.676 194.417 238.758 194.308 237.853L197.12 241.504C198.032 242.688 199.152 243.854 200.788 243.515C203.777 242.715 204.403 239.413 203.296 236.618C205.806 239.427 205.536 241.054 208.358 242.824C209.138 243.157 210.011 243.202 210.821 242.951C211.631 242.699 212.325 242.168 212.779 241.451C215.131 238.102 214.043 231.597 212.273 227.851C214.956 229.336 218.513 229.112 219.771 226.146C220.945 222.901 216.995 221.075 214.428 220.875ZM218.817 225.904C217.457 228.674 213.79 227.984 211.344 226.224C211.25 226.173 211.142 226.153 211.036 226.168C210.93 226.184 210.832 226.233 210.756 226.309C210.681 226.384 210.632 226.483 210.617 226.588C210.602 226.694 210.622 226.802 210.673 226.896C212.881 230.682 214.048 236.117 212.313 240.312C212.181 240.673 211.975 241.001 211.707 241.276C211.439 241.551 211.116 241.766 210.759 241.907C210.402 242.048 210.019 242.112 209.636 242.095C209.252 242.078 208.877 241.979 208.534 241.806C205.412 239.357 206.222 237.166 202.489 234.766C202.152 234.589 201.6 234.893 201.769 235.32C202.515 236.764 202.863 238.38 202.777 240.003C202.697 240.633 202.421 241.222 201.986 241.686C201.552 242.15 200.982 242.464 200.358 242.584C198.94 242.718 198.016 241.072 197.283 240.117L194.163 236.054C193.904 235.717 193.203 235.758 193.249 236.301C193.43 238.541 193.534 242.003 190.723 242.619C187.784 243.259 185.732 240.496 184.894 238.075C182.793 229.748 181.958 221.152 182.416 212.576C186.359 210.418 190.759 209.226 195.253 209.1C199.746 208.973 204.206 209.915 208.265 211.848C207.195 214.141 206.806 216.693 207.145 219.2C207.26 222.861 211.945 221.672 214.427 221.843C216.32 222.018 219.848 223.36 218.817 225.904Z" fill="black"/>
<path d="M204.232 224.306L203.703 227.346C203.594 227.962 204.54 228.226 204.647 227.606C204.825 226.595 205.001 225.582 205.176 224.566C205.28 223.947 204.341 223.68 204.232 224.306ZM195.951 227.053L195.631 229.062C195.532 229.68 196.476 229.946 196.575 229.323L196.895 227.314C196.994 226.696 196.05 226.432 195.951 227.053ZM188.96 227.61C188.869 228.553 188.654 229.481 188.32 230.368C188.103 230.96 189.048 231.214 189.266 230.627C189.621 229.655 189.847 228.641 189.938 227.61C189.994 226.982 189.015 226.986 188.96 227.61ZM319.285 219.339C317.413 220.265 315.372 220.8 313.287 220.912C314.742 219.076 315.764 216.935 316.279 214.65C316.794 212.364 316.788 209.992 316.261 207.709C316.138 207.19 315.941 206.69 315.824 206.173C315.693 205.608 315.631 205.032 315.488 204.467C313.482 196.89 307.143 191.65 301.485 186.166C301.031 185.728 300.338 186.419 300.791 186.859C307.047 192.922 313.484 198.158 314.853 206.259C315.247 208.394 317.724 213.611 311.984 220.952C311.61 220.952 311.429 221.158 311.423 221.413C311.416 221.667 311.679 221.413 310.581 222.602C309.982 222.453 309.394 222.263 308.821 222.034C308.237 221.795 307.983 222.742 308.56 222.978C308.97 223.138 309.392 223.272 309.815 223.4C305.3 227.915 300.215 230.898 294.522 234.822C294.443 234.88 294.381 234.958 294.345 235.049C294.308 235.14 294.298 235.239 294.316 235.335C294.334 235.431 294.379 235.52 294.446 235.592C294.513 235.663 294.598 235.715 294.693 235.739C291.541 236.184 282.656 239.003 278.45 240.038C273.713 241.045 269.096 242.551 264.677 244.531C263.865 244.842 263.152 245.367 262.615 246.051C258.729 249.842 255.383 254.149 252.671 258.851C251.857 260.083 251.385 261.51 251.303 262.984C251.292 263.577 251.516 264.151 251.928 264.579C252.339 265.006 252.903 265.253 253.496 265.266C256.677 265.326 258.744 259.563 262.002 258.995C259.615 266.272 258.855 267.571 259.664 269.202C259.792 269.518 259.993 269.8 260.251 270.023C260.509 270.246 260.817 270.404 261.149 270.484C261.48 270.563 261.826 270.562 262.158 270.481C262.489 270.4 262.796 270.24 263.053 270.016C264.21 268.76 264.144 268.149 265.773 266.312C267.303 264.392 270.076 263.514 270.674 263.96C270.933 264.152 270.874 264.064 270.261 270.454C270.06 271.35 270.139 272.285 270.487 273.134C270.833 273.643 271.33 274.031 271.907 274.245C272.484 274.459 273.113 274.487 273.708 274.326C276.46 273.397 277.274 271.098 279.244 267.248C280.685 264.389 283.092 262.132 286.037 260.877C295.455 256.298 305.826 258.115 316.666 256.832C316.795 256.83 316.919 256.778 317.011 256.687C317.103 256.595 317.155 256.472 317.157 256.342C316.886 252.628 315.751 249.029 313.844 245.83C311.903 242.9 309.31 240.458 306.268 238.696C303.226 236.935 299.817 235.901 296.309 235.677C294.912 235.61 294.8 235.803 295.021 235.677C301.016 231.541 306.143 228.56 310.94 223.688C312.381 224.003 313.864 224.087 315.332 223.936C315.952 223.869 315.959 222.89 315.332 222.955C314.129 223.083 312.916 223.045 311.724 222.845C311.992 222.542 312.26 222.237 312.524 221.923C315.045 221.907 317.53 221.316 319.789 220.195C320.344 219.906 319.85 219.061 319.285 219.339ZM295.893 236.64C299.3 236.816 302.619 237.783 305.588 239.464C308.556 241.145 311.092 243.494 312.996 246.325C314.742 249.244 315.813 252.518 316.128 255.906C304.01 257.226 290.631 254.877 281.184 262.946C277.634 265.986 276.495 273.555 272.85 273.429C272.539 273.44 272.23 273.366 271.957 273.216C271.684 273.067 271.456 272.846 271.298 272.578C270.936 271.491 271.24 271.32 271.778 264.683C271.846 264.385 271.823 264.073 271.713 263.788C271.602 263.503 271.409 263.257 271.157 263.083C270.527 262.831 269.831 262.801 269.181 262.997C264.012 264.016 263.135 270.837 261.06 269.386C260.732 269.09 260.5 268.705 260.39 268.278C260.281 267.851 260.3 267.402 260.445 266.986C260.684 266.051 263.208 258.406 263.165 258.568C263.184 258.495 263.186 258.418 263.171 258.344C263.156 258.27 263.124 258.2 263.078 258.14C263.031 258.08 262.972 258.031 262.904 257.998C262.836 257.965 262.761 257.947 262.685 257.947C259.844 257.912 258.124 260.477 256.402 262.354C255.644 263.181 253.711 265.234 252.57 263.882C251.69 262.83 252.674 260.958 253.18 259.96C255.651 255.437 258.76 251.293 262.412 247.654C263.473 246.24 264.963 245.207 266.66 244.709C273.178 242.082 276.08 241.755 282.97 239.813C294.978 236.424 294.37 236.589 295.893 236.64Z" fill="black"/>
<path d="M264.32 250.08V252.384C264.32 252.514 264.372 252.638 264.464 252.73C264.555 252.822 264.68 252.874 264.81 252.874C264.94 252.874 265.064 252.822 265.156 252.73C265.248 252.638 265.299 252.514 265.299 252.384V250.08C265.299 249.95 265.248 249.826 265.156 249.734C265.064 249.642 264.94 249.59 264.81 249.59C264.68 249.59 264.555 249.642 264.464 249.734C264.372 249.826 264.32 249.95 264.32 250.08ZM271.599 253.51L271.962 256.112C272.048 256.733 272.992 256.469 272.906 255.851L272.544 253.25C272.458 252.629 271.52 252.893 271.599 253.51ZM277.739 256.829C277.979 258.018 278.064 259.234 277.992 260.445C277.955 261.074 278.935 261.072 278.971 260.445C279.045 259.145 278.948 257.842 278.683 256.568C278.56 255.952 277.615 256.213 277.739 256.829ZM293.255 163.936C289.789 154.016 281.08 154.824 274.464 151.776C274.894 151.425 275.244 150.987 275.49 150.49C275.737 149.994 275.876 149.45 275.896 148.896C275.962 145.84 274.667 141.931 271.319 141.52C270.603 141.489 269.889 141.617 269.227 141.893C268.566 142.17 267.974 142.589 267.493 143.12C264.465 145.909 261.187 148.416 257.703 150.608C251.823 154.556 244.854 156.565 237.775 156.352C232.872 156.456 229.045 156.226 224.891 153.774C223.692 153.075 222.792 151.961 222.36 150.642C222.282 150.154 221.525 150.197 221.415 150.642C219.282 159.466 226.675 171.992 241.664 174.802C245.034 175.254 248.444 175.327 251.831 175.018C256.213 178.481 261.347 180.869 266.819 181.988C272.292 183.108 277.95 182.928 283.341 181.464C288.074 180.184 294.437 177.395 294.773 171.744C294.807 169.065 294.29 166.407 293.255 163.936ZM293.528 173.262C290.952 180.84 269.235 186.958 253.253 174.886C262.661 174 273.562 169.81 273.517 160.349C273.517 160.219 273.465 160.094 273.374 160.003C273.282 159.911 273.157 159.859 273.027 159.859C272.898 159.859 272.773 159.911 272.681 160.003C272.589 160.094 272.538 160.219 272.538 160.349C272.591 171.981 255.098 175.069 243.098 174.016C229.754 172.328 221.362 161.778 222.099 152.458C224.514 155.84 229.277 156.869 233.36 157.21C240.11 157.874 246.919 156.837 253.165 154.194C258.143 151.787 262.756 148.691 266.871 144.997C268.045 143.97 269.146 142.578 270.811 142.486C273.914 142.317 275.418 146.899 274.719 149.885C274.42 150.548 273.915 151.097 273.279 151.45C273.206 151.494 273.146 151.556 273.105 151.63C273.063 151.704 273.041 151.787 273.041 151.872C273.041 151.957 273.063 152.04 273.105 152.114C273.146 152.188 273.206 152.25 273.279 152.294C280.973 156.258 291.248 153.931 293.648 169.254C293.907 170.583 293.866 171.952 293.528 173.262Z" fill="black"/>
<path d="M229.349 160.122C229.059 159.562 228.213 160.056 228.502 160.616L229.685 162.906C229.974 163.464 230.819 162.97 230.53 162.41L229.349 160.122ZM252.67 163.555C252.891 164.141 253.838 163.886 253.614 163.294C253.227 162.273 252.841 161.25 252.456 160.226C252.235 159.642 251.288 159.894 251.51 160.486L252.67 163.555ZM258.773 165.414C257.763 166.992 256.274 168.205 254.524 168.874C252.774 169.542 250.856 169.632 249.051 169.13C248.926 169.095 248.792 169.112 248.679 169.176C248.566 169.24 248.483 169.346 248.449 169.471C248.414 169.596 248.431 169.73 248.495 169.843C248.559 169.956 248.665 170.039 248.79 170.074C250.803 170.625 252.939 170.518 254.887 169.77C256.835 169.021 258.493 167.67 259.619 165.914C259.954 165.371 259.11 164.882 258.773 165.414ZM239.466 166.344C239.01 166.515 238.506 166.506 238.056 166.32C237.606 166.133 237.244 165.783 237.043 165.339C236.585 164.156 236.514 162.858 236.842 161.632C236.934 161.016 235.99 160.75 235.898 161.373C235.666 162.175 235.595 163.014 235.689 163.843C235.783 164.673 236.04 165.475 236.445 166.205C236.818 166.761 237.378 167.166 238.023 167.346C238.668 167.527 239.357 167.471 239.965 167.189C240.517 166.893 240.022 166.045 239.466 166.344ZM271.03 146.454C270.278 147.727 269.428 148.94 268.488 150.082C268.085 150.562 268.774 151.258 269.181 150.774C270.188 149.579 271.09 148.299 271.877 146.949C271.932 146.837 271.943 146.709 271.908 146.589C271.872 146.47 271.792 146.369 271.685 146.306C271.577 146.243 271.45 146.223 271.328 146.251C271.207 146.278 271.1 146.351 271.03 146.454ZM272.222 47.872C271.625 47.3543 270.886 47.0263 270.102 46.93C269.317 46.8337 268.521 46.9733 267.816 47.3312C265.536 49.6128 266.95 53.4976 269.842 53.5216C273.082 53.5072 274.792 49.6592 272.222 47.872ZM275.426 86.5152C274.122 86.5681 272.817 86.5119 271.523 86.3472C272.323 85.2496 273.101 84.1232 273.811 82.9584C274.141 82.4192 273.293 81.9264 272.965 82.464C272.29 83.5712 271.558 84.64 270.797 85.6848C269.824 84.4278 269.045 83.0327 268.485 81.5456C268.267 80.96 267.32 81.2128 267.539 81.8064C268.113 83.3293 268.898 84.7637 269.872 86.0672C269.062 85.9097 268.261 85.7089 267.472 85.4656C266.869 85.2768 266.611 86.2224 267.211 86.4096C268.052 86.6698 268.907 86.8834 269.771 87.0496C268.924 88.1348 268.031 89.1827 267.093 90.1904C266.661 90.6512 267.352 91.3456 267.784 90.8848C268.866 89.7296 269.887 88.5243 270.848 87.2688C271.868 88.4168 273.039 89.4221 274.328 90.2576C274.859 90.6 275.352 89.752 274.822 89.4112C273.926 88.8289 273.09 88.1578 272.328 87.408C273.358 87.5048 274.393 87.5352 275.427 87.4992C276.054 87.4672 276.058 86.4896 275.426 86.5152ZM248.123 120.627C246.851 119.687 245.689 118.606 244.659 117.405C245.571 117.356 246.485 117.379 247.394 117.474C248.019 117.544 248.013 116.565 247.394 116.494C246.591 116.41 245.784 116.381 244.978 116.406C245.491 115.368 246.003 114.326 246.554 113.304C246.851 112.749 246.006 112.254 245.707 112.81C245.067 113.994 244.472 115.195 243.882 116.4C243.206 115.527 242.597 114.604 242.061 113.638C241.762 113.085 240.915 113.578 241.216 114.133C241.688 114.989 242.216 115.813 242.798 116.598C241.837 116.734 240.889 116.948 239.963 117.238C239.365 117.429 239.619 118.374 240.222 118.182C241.241 117.864 242.287 117.64 243.347 117.515C242.75 118.779 242.168 120.05 241.621 121.336C241.378 121.91 242.221 122.41 242.467 121.832C242.981 120.621 243.531 119.432 244.091 118.238C245.152 119.441 246.338 120.528 247.629 121.48C248.138 121.848 248.627 120.998 248.123 120.627ZM202.336 130.171C201.325 130.734 200.328 131.331 199.325 131.91C199.624 131.064 199.912 130.213 200.166 129.35C200.201 129.225 200.184 129.091 200.12 128.978C200.056 128.865 199.95 128.783 199.825 128.748C199.7 128.713 199.566 128.73 199.453 128.794C199.34 128.858 199.257 128.964 199.222 129.09C199.045 129.69 198.856 130.286 198.656 130.877C198.176 129.917 197.696 128.947 197.256 127.962C197.002 127.386 196.155 127.885 196.41 128.456C196.966 129.712 197.566 130.947 198.192 132.17C197.946 132.84 198.512 132.376 194.128 134.912C194.02 134.979 193.942 135.086 193.911 135.21C193.881 135.334 193.9 135.465 193.964 135.575C194.029 135.685 194.133 135.766 194.256 135.8C194.379 135.834 194.511 135.818 194.622 135.757L197.419 134.141C197.099 134.89 196.779 135.632 196.435 136.365C196.165 136.931 197.008 137.429 197.28 136.859C197.83 135.707 198.335 134.534 198.795 133.339L198.818 133.326C199.368 134.358 199.923 135.387 200.522 136.39C200.591 136.494 200.698 136.566 200.819 136.594C200.941 136.622 201.068 136.602 201.176 136.539C201.284 136.476 201.363 136.375 201.399 136.255C201.435 136.136 201.423 136.008 201.368 135.896C200.777 134.89 200.209 133.87 199.666 132.837L202.83 131.008C202.925 130.935 202.99 130.83 203.013 130.713C203.035 130.595 203.014 130.474 202.953 130.371C202.893 130.268 202.796 130.191 202.683 130.154C202.569 130.117 202.445 130.123 202.336 130.171ZM156.592 84.7744C155.259 84.3616 153.936 83.9248 152.616 83.4784C153.485 83.0784 154.341 82.6496 155.168 82.1648C155.273 82.0962 155.348 81.9898 155.377 81.8674C155.406 81.7451 155.387 81.6163 155.324 81.5078C155.26 81.3992 155.158 81.3191 155.037 81.2842C154.916 81.2492 154.787 81.262 154.675 81.32C153.565 81.9569 152.414 82.5181 151.229 83C150.973 82.9104 150.715 82.8256 150.461 82.7344C150.869 81.103 151.168 79.4459 151.354 77.7744C151.419 77.1488 150.438 77.1536 150.374 77.7744C150.199 79.3322 149.923 80.8768 149.546 82.3984C147.72 81.7381 145.907 81.0448 144.106 80.3184C143.522 80.08 143.269 81.0272 143.846 81.2624C150.077 83.7872 149.386 83.096 149.202 83.7456C147.998 84.1471 146.768 84.4678 145.522 84.7056C144.902 84.8208 145.165 85.7648 145.781 85.6496C146.811 85.4505 147.83 85.1958 148.834 84.8864C148.418 86.2099 147.925 87.5081 147.358 88.7744C147.099 89.344 147.944 89.8416 148.205 89.2704C150.779 83.5456 148.971 84.9504 151.259 84.0368C152.939 84.6192 154.619 85.1824 156.325 85.7072C156.936 85.9056 157.192 84.96 156.592 84.7744ZM186.917 25.224C186.498 25.5088 186.062 25.7584 185.626 26.0096L186.627 24.5696C186.987 24.0512 186.147 23.5616 185.782 24.0752L184.469 25.9648C184.05 24.8525 183.764 23.6946 183.618 22.5152C183.542 21.8976 182.562 21.8896 182.638 22.5152C182.824 24.0287 183.218 25.5093 183.808 26.9152C182.495 27.517 181.114 27.9555 179.694 28.2208C179.077 28.3392 179.338 29.2848 179.955 29.1648C180.92 28.969 181.869 28.7016 182.794 28.3648L180.61 31.52C180.25 32.0384 181.09 32.528 181.456 32.0128L184.282 27.9488C184.872 29.1267 185.602 30.2295 186.456 31.2336C186.866 31.7136 187.555 31.0176 187.149 30.5408C186.337 29.5855 185.647 28.5332 185.094 27.408C185.895 27.0157 186.669 26.571 187.411 26.0768C187.93 25.7168 187.44 24.8688 186.917 25.224ZM238.571 58.5008C238.37 57.9056 237.424 58.1616 237.626 58.7616C237.838 59.3904 239.816 65.2512 239.917 65.6208C239.985 65.9047 239.939 66.2038 239.79 66.4546C239.64 66.7053 239.399 66.8878 239.117 66.9632C236.189 67.5268 233.17 67.4013 230.299 66.5968C229.965 66.512 229.557 66.8336 229.696 67.1984C231.955 73.1248 234.213 79.0523 236.469 84.9808C233.509 84.5328 230.566 83.9728 227.654 83.2704C227.21 83.1632 226.787 83.7504 227.174 84.088C230.838 87.2368 234.441 90.4549 237.982 93.7424L230.019 95.5504C229.406 95.6896 229.666 96.6352 230.28 96.4944L239.134 94.4848C239.197 94.4669 239.255 94.4369 239.306 94.3965C239.356 94.3561 239.399 94.3061 239.43 94.2493C239.461 94.1925 239.481 94.1301 239.488 94.0656C239.496 94.0012 239.49 93.9359 239.472 93.8736C239.331 93.3936 229.642 84.9456 229.262 84.6192C231.856 85.1952 234.464 85.6976 237.094 86.0736C237.414 86.12 237.846 85.8624 237.698 85.472L230.946 67.7456C232.438 68.0714 233.959 68.2551 235.486 68.2944C236.978 68.4799 238.491 68.2668 239.874 67.6768C240.329 67.4395 240.676 67.0361 240.843 66.55C241.009 66.0639 240.982 65.5325 240.768 65.0656C240.538 64.1872 239.939 62.5696 238.571 58.5008ZM170.696 63.2C170.73 62.5696 169.75 62.5728 169.717 63.2C169.569 66.0783 169.885 68.9616 170.654 71.7392C170.689 71.8644 170.772 71.9707 170.885 72.0348C170.998 72.0988 171.132 72.1154 171.257 72.0808C171.382 72.0462 171.488 71.9633 171.552 71.8503C171.616 71.7374 171.633 71.6036 171.598 71.4784C170.855 68.7852 170.551 65.99 170.696 63.2ZM175.728 58.2128C175.787 57.584 174.806 57.5888 174.749 58.2128C174.557 60.3113 174.66 62.4262 175.056 64.496C175.173 65.1136 176.117 64.8512 176.002 64.2352C175.631 62.2502 175.539 60.2232 175.728 58.2128ZM183.323 73.6976C181.47 70.8147 180.684 67.3744 181.101 63.9728C181.178 63.3488 180.197 63.3536 180.122 63.9728C179.696 67.5489 180.528 71.1616 182.477 74.1904C182.818 74.72 183.666 74.2288 183.323 73.6976ZM182.771 83.9664C182.894 83.9931 183.022 83.9717 183.13 83.9067C183.237 83.8417 183.316 83.7381 183.349 83.617C183.382 83.4959 183.368 83.3667 183.309 83.2558C183.25 83.1449 183.151 83.0608 183.032 83.0208C181.961 82.7524 180.968 82.2386 180.13 81.5199C179.292 80.8012 178.633 79.8974 178.205 78.88C177.968 78.304 177.021 78.56 177.261 79.1408C177.734 80.3226 178.48 81.3758 179.437 82.2145C180.395 83.0531 181.537 83.6534 182.771 83.9664ZM186.349 90.6752C183.711 90.4467 181.224 89.3481 179.278 87.552C178.814 87.1248 178.12 87.8176 178.586 88.2464C180.722 90.2142 183.454 91.4139 186.349 91.656C186.976 91.7088 186.973 90.7296 186.349 90.6752ZM198.902 86.584C196.523 87.5004 193.913 87.6277 191.456 86.9472C191.334 86.9218 191.206 86.9439 191.1 87.0091C190.993 87.0743 190.915 87.1777 190.882 87.2983C190.849 87.4188 190.863 87.5473 190.922 87.6578C190.98 87.7683 191.079 87.8523 191.197 87.8928C193.824 88.6247 196.616 88.4968 199.165 87.528C199.746 87.3056 199.493 86.3568 198.902 86.584ZM211.706 82.832C209.322 83.1307 206.951 83.5147 204.594 83.984C203.976 84.1056 204.237 85.0512 204.854 84.928C207.124 84.4768 209.408 84.1035 211.706 83.808C212.32 83.7344 212.331 82.7536 211.706 82.832ZM216.176 89.2416C214.34 88.1093 212.147 87.7068 210.029 88.1136C209.408 88.2288 209.67 89.1728 210.288 89.0576C212.151 88.7154 214.075 89.083 215.682 90.088C216.219 90.4208 216.712 89.5744 216.176 89.2416ZM175.426 103.134C174.914 102.768 174.422 103.614 174.933 103.981C176.377 105.009 177.989 105.779 179.696 106.256C179.82 106.287 179.951 106.268 180.062 106.204C180.172 106.139 180.253 106.034 180.287 105.911C180.321 105.787 180.305 105.656 180.243 105.544C180.181 105.432 180.078 105.349 179.955 105.312C178.331 104.853 176.799 104.116 175.426 103.134ZM213.237 122.947C213.627 122.392 213.884 121.755 213.989 121.086C214.093 120.416 214.043 119.731 213.842 119.083C213.659 118.482 212.722 118.738 212.899 119.342C213.063 119.865 213.102 120.418 213.014 120.958C212.925 121.498 212.712 122.01 212.39 122.453C212.027 122.97 212.877 123.459 213.237 122.947ZM197.094 50.6624C197.723 50.6912 197.722 49.712 197.094 49.6816C195.504 49.6085 193.992 48.9715 192.829 47.8848C192.366 47.456 191.672 48.1472 192.134 48.576C193.487 49.8392 195.245 50.5789 197.094 50.6624ZM209.003 22.6096L210.232 17.2528C210.373 16.6384 209.432 16.3776 209.288 16.992L208.058 22.3504C207.917 22.9632 208.861 23.2256 209.003 22.6096ZM153.6 23.5424C154.216 23.6496 154.482 22.7056 153.861 22.5984C151.59 22.2136 149.521 21.0553 148.006 19.32C147.589 18.84 146.899 19.5408 147.314 20.0144C148.945 21.8737 151.163 23.1187 153.6 23.5424ZM279.16 115.806V121.566C279.167 121.692 279.222 121.809 279.313 121.895C279.404 121.982 279.525 122.03 279.65 122.03C279.776 122.03 279.896 121.982 279.988 121.895C280.079 121.809 280.134 121.692 280.141 121.566V115.806C280.134 115.681 280.079 115.563 279.988 115.477C279.896 115.391 279.776 115.343 279.65 115.343C279.525 115.343 279.404 115.391 279.313 115.477C279.222 115.563 279.167 115.681 279.16 115.806ZM322.547 155.347C321.918 155.298 321.922 156.278 322.547 156.326C337.12 157.462 346.029 171.242 352.856 182.426C353.184 182.962 354.032 182.47 353.701 181.93C346.198 169.648 337.483 156.586 322.547 155.347ZM358.595 174.866C356.075 169.29 352.395 164.316 347.802 160.274C343.209 156.232 337.807 153.215 331.957 151.424C331.834 151.397 331.706 151.419 331.598 151.484C331.491 151.549 331.412 151.652 331.379 151.773C331.346 151.894 331.36 152.024 331.419 152.135C331.478 152.245 331.577 152.33 331.696 152.37C337.423 154.13 342.71 157.091 347.203 161.055C351.695 165.019 355.291 169.896 357.75 175.36C358.005 175.934 358.853 175.435 358.595 174.866ZM150.925 222.939C146.253 216.846 141.994 210.449 138.174 203.789C138.107 203.681 138 203.603 137.876 203.572C137.752 203.542 137.621 203.561 137.511 203.625C137.401 203.689 137.321 203.794 137.287 203.917C137.253 204.04 137.268 204.171 137.33 204.283C141.147 210.944 145.406 217.343 150.078 223.435C150.456 223.928 151.309 223.44 150.925 222.939ZM149.043 226.678C140.472 223.805 132.137 220.269 124.114 216.104C123.557 215.814 123.059 216.659 123.621 216.95C131.718 221.156 140.131 224.724 148.782 227.624C149.382 227.826 149.64 226.88 149.043 226.678ZM143.072 231.592C137.134 233.483 130.983 234.628 124.762 235C124.134 235.037 124.13 236.018 124.762 235.981C131.071 235.605 137.309 234.448 143.333 232.536C143.931 232.346 143.68 231.4 143.072 231.592ZM268.563 295.264C268.43 294.646 267.485 294.907 267.618 295.523C268.768 300.899 269.917 306.276 271.064 311.653C271.195 312.269 272.141 312.008 272.01 311.392L268.563 295.264ZM272.699 293.882C272.298 293.402 271.61 294.091 272.005 294.576L284.31 309.536C284.712 310.016 285.4 309.326 285.005 308.843L272.699 293.882ZM292.16 297.666C287.128 294.9 281.844 292.619 276.379 290.854C275.776 290.661 275.52 291.605 276.117 291.798C281.501 293.536 286.708 295.784 291.666 298.51C292.227 298.814 292.722 297.97 292.16 297.666Z" fill="black"/>
<path d="M231.85 123.443C231.235 123.427 230.63 123.598 230.114 123.933C229.598 124.268 229.196 124.752 228.96 125.32C228.898 126.107 229.091 126.893 229.51 127.563C229.929 128.232 230.552 128.749 231.287 129.037C231.677 129.102 232.076 129.09 232.462 129.001C232.848 128.911 233.212 128.747 233.534 128.517C233.856 128.287 234.129 127.996 234.339 127.66C234.548 127.324 234.689 126.95 234.754 126.56C234.782 126.161 234.728 125.761 234.595 125.384C234.462 125.007 234.253 124.662 233.98 124.37C233.708 124.077 233.378 123.844 233.012 123.685C232.645 123.525 232.25 123.443 231.85 123.443ZM133.18 39.2464C137.639 40.1356 142.224 40.1844 146.701 39.3904C137.376 54.5568 138.434 52.6704 137.997 53.768C137.688 54.8768 138.077 55.8816 139.634 55.2464C140.914 54.7248 144.056 53.3904 151.98 50.08C147.77 62.216 146.874 64.0336 147.095 67.1488C147.096 67.2392 147.121 67.3276 147.167 67.4054C147.213 67.4833 147.278 67.5479 147.357 67.593C147.435 67.6381 147.524 67.6622 147.614 67.6629C147.704 67.6635 147.793 67.6408 147.872 67.5968C150.213 66.2349 152.276 64.4435 153.952 62.3168C154.359 61.7984 153.632 61.0592 153.218 61.5856C151.789 63.396 150.069 64.9559 148.128 66.2016C148.199 63.6592 148.656 62.8416 153.354 49.3008C153.474 48.9536 153.079 48.512 152.714 48.6608L138.954 54.4208C138.855 54.0784 139.295 53.4256 139.423 53.2192C139.839 52.5392 148.204 38.9392 148.204 38.9392C148.27 38.8172 148.286 38.6737 148.247 38.5402C148.208 38.4067 148.118 38.2941 147.996 38.2272C147.279 37.8336 142.716 39.8992 134.226 38.3872C136.531 35.3482 138.452 32.0362 139.944 28.5264C140.202 27.92 139.304 27.3904 139.05 28.0048C135.168 37.2144 131.533 38.7456 133.18 39.2464ZM294.472 137.035L285.968 140.347C285.285 140.614 285.583 141.728 286.274 141.467L294.778 138.154C295.46 137.88 295.164 136.765 294.472 137.035ZM295.231 101.626L296.784 111.992C296.893 112.722 298.002 112.411 297.895 111.685C297.376 108.231 296.859 104.776 296.343 101.32C296.232 100.589 295.122 100.901 295.231 101.626ZM148.997 127.958L150.04 136.419C150.128 137.146 151.282 137.154 151.192 136.419L150.149 127.958C150.06 127.232 148.908 127.222 148.997 127.958ZM160.024 155.443C165.704 150.539 167.704 150.68 167.064 149.683C166.986 149.56 166.864 149.47 166.723 149.433C166.582 149.396 166.432 149.414 166.303 149.483C163.797 150.995 161.424 152.717 159.21 154.63C158.648 155.114 159.466 155.925 160.024 155.443ZM181.946 122.208C182.102 123.707 182.62 125.146 183.456 126.4C183.869 127.011 184.868 126.435 184.452 125.819C183.715 124.745 183.25 123.508 183.098 122.214C183.016 121.48 181.866 121.47 181.946 122.208ZM120.778 113.293L116.205 115.291C115.527 115.587 116.114 116.581 116.786 116.286L121.359 114.288C122.037 113.99 121.452 113 120.778 113.293ZM117.6 67.4512C114.376 67.6772 111.14 67.2315 108.096 66.1424C107.399 65.8912 107.096 67.0048 107.791 67.2528C110.932 68.3757 114.272 68.8355 117.6 68.6032C118.335 68.552 118.34 67.3984 117.6 67.4512ZM224.351 51.176C222.817 49.8481 221.789 48.0309 221.44 46.032C221.308 45.3024 220.199 45.6112 220.32 46.3376C220.715 48.5333 221.849 50.528 223.533 51.9904C224.093 52.48 224.912 51.6624 224.351 51.176ZM244.65 26.0144C247.063 24.4496 249.477 22.8859 251.892 21.3232C252.512 20.9216 251.936 19.9248 251.311 20.3296L244.068 25.0192C243.448 25.4208 244.026 26.4192 244.65 26.0144ZM316.356 116.213L324.386 117.56C325.111 117.68 325.423 116.571 324.692 116.45L316.661 115.102C315.936 114.981 315.624 116.09 316.356 116.213ZM329.808 74.8144C329.304 71.7429 329.288 68.611 329.76 65.5344C329.872 64.8096 328.762 64.496 328.648 65.2288C328.143 68.5068 328.16 71.8441 328.698 75.1168C328.818 75.8512 329.928 75.5424 329.808 74.8144ZM311.215 167.395C309.01 168.486 306.804 169.577 304.596 170.666C303.932 170.995 304.514 171.989 305.178 171.661L311.797 168.39C312.461 168.062 311.877 167.067 311.215 167.395ZM328.932 186.931L326.776 195.035C326.74 195.181 326.762 195.336 326.838 195.465C326.914 195.595 327.037 195.69 327.182 195.73C327.327 195.77 327.482 195.752 327.614 195.679C327.746 195.606 327.844 195.485 327.887 195.341L330.044 187.238C330.076 187.094 330.051 186.943 329.975 186.816C329.898 186.689 329.776 186.596 329.633 186.557C329.491 186.517 329.338 186.534 329.208 186.604C329.077 186.674 328.978 186.791 328.932 186.931ZM250.696 217.968C251.416 218.138 251.725 217.027 251.002 216.858C249.026 216.396 247.121 215.669 245.34 214.698C244.688 214.344 244.106 215.338 244.759 215.693C246.627 216.714 248.624 217.479 250.696 217.968ZM272.818 190.666C272.498 189.995 271.504 190.579 271.824 191.246L274.936 197.754C275.256 198.422 276.25 197.84 275.932 197.173L272.818 190.666ZM368.176 203.211L371.528 209.254C371.602 209.388 371.727 209.487 371.873 209.529C372.02 209.571 372.178 209.553 372.312 209.479C372.445 209.405 372.544 209.281 372.586 209.134C372.628 208.987 372.61 208.83 372.536 208.696L369.176 202.653C369.094 202.537 368.972 202.456 368.834 202.424C368.695 202.393 368.55 202.414 368.426 202.483C368.302 202.552 368.208 202.665 368.162 202.799C368.116 202.934 368.121 203.08 368.176 203.211ZM358.111 112.205L353.471 114.454C352.804 114.774 353.386 115.771 354.05 115.45L358.69 113.2C359.36 112.877 358.775 111.883 358.111 112.205Z" fill="#B26EE6"/>
</svg>
