<svg width="176" height="176" viewBox="0 0 176 176" fill="none" xmlns="http://www.w3.org/2000/svg">
<path d="M98.4108 49.4384C97.6602 45.8595 100.368 42.0535 99.3524 38.4657C99.1537 37.6289 98.6768 36.8843 97.9999 36.3537C96.0471 34.9704 89.9593 37.0683 88.3498 42.5973C85.5663 52.316 100.778 58.5596 97.7895 68.2053C96.8664 70.8453 94.3787 72.3827 93.159 75.1573C92.5792 76.7144 92.3756 78.3864 92.5648 80.0371C92.7539 81.6879 93.3305 83.2705 94.2475 84.656C95.5617 84.1024 96.8226 83.4302 98.0148 82.6479C96.1739 79.7773 97.0574 76.0523 99.4228 73.5434C101.831 70.8154 104.827 68.6048 105.134 63.7683C105.629 56.496 99.4079 54.1975 98.4108 49.4384ZM94.5793 51.1782C94.9414 52.6763 95.7537 54.0276 96.9069 55.0502C97.1656 55.2808 96.7837 55.6609 96.5259 55.4312C95.3048 54.3435 94.4452 52.9087 94.0619 51.319C93.9835 50.9837 94.4983 50.8412 94.5793 51.1782ZM97.5819 40.5997C96.8742 41.8422 96.5249 43.2565 96.5725 44.6856C96.5857 45.0332 96.0445 45.0314 96.0331 44.6856C95.9743 43.1597 96.3499 41.6485 97.1163 40.3278C97.1548 40.2711 97.2133 40.231 97.2802 40.2159C97.347 40.2007 97.4171 40.2115 97.4763 40.246C97.5355 40.2806 97.5793 40.3364 97.5989 40.402C97.6185 40.4677 97.6124 40.5384 97.5819 40.5997ZM100.636 59.0956C99.9482 57.9872 99.1759 56.9334 98.3263 55.9434C98.1011 55.6794 98.4803 55.2992 98.7065 55.5624C99.5877 56.5859 100.388 57.6763 101.101 58.8236C101.288 59.1193 100.819 59.3895 100.636 59.0956ZM98.5736 71.1762C97.8306 72.2155 97.2174 73.3418 96.7476 74.5299C96.6227 74.8502 96.1017 74.7059 96.2284 74.3873C96.7094 73.1536 97.3411 71.984 98.109 70.9051C98.3087 70.6244 98.7751 70.8946 98.5736 71.1762ZM95.2446 79.6796L95.8553 82.852C95.9195 83.1917 95.4003 83.3352 95.3352 82.9955L94.7254 79.8231C94.6603 79.4843 95.1795 79.34 95.2446 79.6796ZM99.6217 64.328C99.7384 63.0487 99.3706 61.7721 98.5912 60.7508C98.3809 60.4798 98.7611 60.0961 98.9723 60.3698C99.853 61.493 100.277 62.9073 100.16 64.3298C100.13 64.6712 99.5909 64.6739 99.6217 64.328ZM101.787 66.9892C101.631 67.2989 101.171 67.0261 101.322 66.7164C101.86 65.6467 102.146 64.4683 102.158 63.2712C102.162 63.2023 102.192 63.1375 102.242 63.0902C102.292 63.0428 102.359 63.0164 102.428 63.0164C102.497 63.0164 102.563 63.0428 102.613 63.0902C102.663 63.1375 102.693 63.2023 102.697 63.2712C102.679 64.5635 102.368 65.8348 101.787 66.9892ZM92.6855 43.2864C92.829 42.9704 93.2919 43.2441 93.1511 43.5583C92.5469 44.9071 92.2643 46.3778 92.3256 47.8544C92.3397 48.202 91.7976 48.2003 91.7879 47.8544C91.7294 46.2828 92.0367 44.719 92.6855 43.2864Z" fill="#FFD35C"/>
<path d="M137.768 91.872C131.777 86.8128 121.907 84.7818 113.81 85.9003C116.689 87.4755 118.162 91.2911 118.122 94.4574C117.936 97.5655 114.437 99.1029 111.834 99.8034C108.869 100.609 105.757 100.707 102.747 100.092C99.7371 99.4758 96.9135 98.1628 94.5032 96.2579C89.789 96.6882 86.7838 95.9059 83.835 94.3122C71.4331 97.8894 66.3828 101.381 62.539 104.154C58.6133 106.989 56.6474 111.58 56.1035 116.41C58.3916 115.187 60.9381 114.526 63.5322 114.483C66.1263 114.439 68.6935 115.014 71.0213 116.16C73.2213 112.17 79.8644 108.817 94.886 110.761C96.954 116.736 103.851 122.499 102.879 128.547C102.703 129.613 102.073 132.055 101.67 133.563L102.462 134.109C104.621 133.207 106.86 132.51 109.15 132.028C111.039 131.563 116.434 129.897 118.084 129.664C118.032 129.65 117.984 129.622 117.948 129.583C117.911 129.543 117.886 129.494 117.876 129.441C117.867 129.388 117.872 129.334 117.892 129.284C117.912 129.234 117.946 129.191 117.99 129.159C121.105 127.009 123.925 125.355 126.401 122.877C126.168 122.807 125.936 122.737 125.711 122.645C125.393 122.515 125.535 121.994 125.854 122.125C126.169 122.252 126.493 122.356 126.822 122.438C126.988 122.258 127.149 122.076 127.305 121.89C127.241 121.736 127.326 121.531 127.594 121.531C128.357 120.655 128.926 119.629 129.266 118.518C129.605 117.408 129.706 116.239 129.563 115.086C129.475 114.528 129.274 114 129.172 113.45C128.414 108.967 124.692 105.934 121.437 102.78C121.188 102.538 121.569 102.157 121.819 102.399C124.928 105.412 128.419 108.295 129.521 112.464C129.598 112.774 129.635 113.091 129.706 113.402C129.97 114.194 130.128 115.018 130.178 115.851C130.231 117.897 129.57 119.897 128.31 121.509C129.457 121.447 130.58 121.153 131.609 120.644C131.919 120.49 132.192 120.954 131.881 121.109C130.639 121.726 129.272 122.051 127.885 122.059C127.745 122.235 127.596 122.4 127.445 122.566C128.101 122.676 128.768 122.697 129.43 122.627C129.774 122.59 129.771 123.13 129.43 123.167C128.622 123.249 127.807 123.203 127.014 123.03C126.001 124.058 124.906 125.001 123.74 125.851C122.404 126.849 118.296 129.616 118.208 129.645C120.471 129.614 122.697 130.224 124.627 131.405C126.313 132.388 127.727 133.777 128.74 135.445C129.753 137.113 130.334 139.008 130.429 140.957C133.619 140.536 136.669 139.386 139.344 137.597C142.018 135.808 144.245 133.427 145.852 130.639C152.178 119.85 149.571 101.838 137.768 91.872ZM84.2653 110C84.2611 110.043 84.2473 110.084 84.2251 110.121C84.2028 110.157 84.1725 110.189 84.1365 110.212C84.1006 110.236 84.0597 110.251 84.0171 110.256C83.9745 110.262 83.9312 110.258 83.8904 110.245C83.8422 110.275 83.785 110.287 83.7288 110.279C83.6725 110.271 83.6207 110.244 83.5824 110.202C82.9134 109.534 82.4722 108.672 82.3214 107.738C82.2668 107.4 82.786 107.254 82.8406 107.596C82.9557 108.317 83.2651 108.993 83.7355 109.552C83.7563 108.586 83.5451 107.628 83.1195 106.761C82.9655 106.451 83.4302 106.179 83.585 106.489C84.135 107.573 84.3707 108.789 84.2653 110ZM107.215 108.768L105.503 105.189C105.327 104.822 105.874 104.502 106.05 104.87C106.621 106.062 107.192 107.255 107.762 108.449C107.938 108.811 107.391 109.132 107.215 108.768ZM127.488 92.6182L123.848 94.4169C123.482 94.5929 123.162 94.0508 123.527 93.8695L127.168 92.0708C127.532 91.8869 127.853 92.4343 127.488 92.6147V92.6182ZM137.52 102.985C137.142 104.474 136.728 105.955 136.334 107.441C136.31 107.52 136.256 107.587 136.184 107.627C136.112 107.667 136.026 107.677 135.947 107.655C135.867 107.633 135.799 107.581 135.757 107.509C135.715 107.438 135.703 107.353 135.723 107.273L136.909 102.816C136.931 102.734 136.984 102.665 137.057 102.622C137.13 102.58 137.217 102.569 137.299 102.591C137.38 102.613 137.45 102.666 137.492 102.739C137.534 102.813 137.546 102.9 137.524 102.981L137.52 102.985Z" fill="#FCAFB7"/>
<path d="M78.29 82.8229C78.229 81.9005 77.9387 81.0078 77.4452 80.2261C76.9353 79.5772 76.2711 79.0663 75.5132 78.7398C74.7553 78.4133 73.9277 78.2817 73.1059 78.3569C70.9455 78.4705 68.8986 79.4297 66.8474 80.0351C62.9903 81.1729 58.6713 81.7678 55.0034 79.7165C53.4206 78.868 52.1778 77.5008 51.4834 75.8445C50.8943 74.1228 50.6392 72.3045 50.7319 70.4871C50.7319 67.0894 51.0364 63.3169 48.6894 60.5431C46.3205 57.7394 41.2024 56.3032 35.4111 58.5701C33.5394 59.2556 31.6271 60.0468 29.5934 59.9042C28.685 59.8694 27.8076 59.5648 27.073 59.0292C26.3384 58.4937 25.7799 57.7515 25.4689 56.8973C24.938 55.0955 24.6712 53.2263 24.6769 51.348L24.449 48.0673C24.4208 47.6625 23.7872 47.6599 23.8154 48.0673C24.1876 53.4142 24.0512 57.0873 26.1544 59.1281C29.5626 62.0708 33.4179 59.7907 37.0374 58.6819C42.0094 57.1595 47.9018 58.4373 49.5272 63.3089C50.0298 65.109 50.2285 66.9804 50.115 68.8459C50.0834 72.3932 50.02 76.2168 52.7823 78.8647C57.2334 83.1301 64.0393 81.8505 69.8367 79.7447C71.785 79.0997 74.0449 78.4801 75.921 79.6567C76.2964 79.8742 76.6212 80.169 76.874 80.5216C77.1267 80.8742 77.3017 81.2765 77.3871 81.7018C77.4419 82.1604 77.5638 82.6084 77.7488 83.0315C77.9252 82.952 78.1059 82.8823 78.29 82.8229ZM103.072 78.76C102.662 76.7316 104.678 75.0367 106.608 74.7384C108.815 74.3045 111.022 74.5949 113.149 72.6545C116.446 69.6564 117.234 63.5025 116.237 59.0603C115.165 54.2793 111.651 50.4557 110.708 45.6456C110.314 43.4593 110.582 41.2052 111.476 39.1718C112.371 37.1384 113.852 35.4184 115.73 34.232C116.723 33.6213 117.947 33.2341 118.595 32.1939C119.116 31.0856 119.236 29.8309 118.935 28.644C118.502 25.488 117.806 22.3737 116.854 19.3336C116.733 18.9455 116.121 19.1109 116.244 19.5017C117.088 22.1974 117.731 24.952 118.167 27.7429C118.349 28.908 118.671 30.2852 118.26 31.4389C117.835 32.6286 116.52 33.0229 115.532 33.6169C113.727 34.7251 112.251 36.2978 111.261 38.1708C110.27 40.0438 109.8 42.1484 109.9 44.2649C110.349 51.575 117.38 55.8272 115.826 65.5397C115.188 69.49 113.325 73.1764 109.373 73.7176C107.983 73.8188 106.608 74.0642 105.268 74.4497C103.557 75.1247 101.748 77.3212 102.574 79.2237C102.755 79.0854 102.921 78.9301 103.072 78.76Z" fill="#B26EE6"/>
<path d="M105.895 88.1918C105.895 88.1204 105.924 88.0519 105.974 88.0014C106.025 87.9509 106.093 87.9225 106.165 87.9225C106.236 87.9225 106.305 87.9509 106.355 88.0014C106.406 88.0519 106.434 88.1204 106.434 88.1918C106.459 93.4093 100.439 95.7026 95.2887 96.1875C102.218 101.419 111.944 100.68 116.252 97.0244C116.81 96.5528 117.223 95.9337 117.445 95.238C117.667 94.5423 117.688 93.7981 117.507 93.0908C116.187 84.6674 110.53 85.939 106.304 83.7628C106.264 83.7385 106.231 83.7044 106.208 83.6637C106.185 83.623 106.173 83.5771 106.173 83.5304C106.173 83.4838 106.185 83.4379 106.208 83.3972C106.231 83.3565 106.264 83.3224 106.304 83.2981C106.654 83.1046 106.932 82.8025 107.096 82.4375C107.48 80.7963 106.656 78.2751 104.947 78.3684C104.031 78.4176 103.425 79.185 102.779 79.7491C100.517 81.7809 97.9791 83.4838 95.2412 84.8073C93.58 85.5929 91.801 86.1001 89.9753 86.3086C86.3101 86.7715 80.3023 86.8366 78.1551 83.8525C77.8427 87.8204 80.6966 92.4396 85.2506 94.4196C87.638 95.5363 90.2472 96.0845 94.5874 95.714C99.6509 95.3832 105.918 93.2448 105.895 88.1918ZM85.7434 88.755C85.7944 88.4127 86.3136 88.5588 86.2626 88.8976C86.0825 89.5718 86.1214 90.2858 86.3734 90.9365C86.4849 91.1797 86.6841 91.3718 86.9312 91.4743C87.1783 91.5767 87.4549 91.5821 87.7058 91.4892C88.0129 91.3246 88.2839 91.7901 87.9786 91.9538C87.6443 92.109 87.2656 92.1397 86.9107 92.0405C86.5558 91.9413 86.2479 91.7186 86.0426 91.4126C85.8201 91.0112 85.6791 90.5697 85.6277 90.1137C85.5764 89.6576 85.6157 89.1958 85.7434 88.755ZM94.8505 88.124L95.4876 89.8119C95.6108 90.1375 95.0898 90.2774 94.9684 89.9553L94.3304 88.2675C94.2081 87.9419 94.7282 87.8028 94.8505 88.124ZM103.668 82.5448C105.071 80.8728 105.028 80.2067 105.439 80.4654C105.496 80.5021 105.538 80.5592 105.555 80.6253C105.572 80.6914 105.564 80.7616 105.532 80.8218C105.099 81.5642 104.603 82.2682 104.049 82.9259C103.826 83.1916 103.447 82.808 103.668 82.544V82.5448ZM82.3263 89.598C82.1099 89.1774 81.8931 88.7576 81.676 88.3388C81.5167 88.0308 81.9823 87.7588 82.1415 88.0668L82.791 89.3252C82.9503 89.6332 82.4856 89.906 82.3263 89.598ZM92.8344 93.5404C92.7656 93.5214 92.7071 93.4758 92.6718 93.4137C92.6366 93.3516 92.6275 93.278 92.6465 93.2091C92.6656 93.1403 92.7111 93.0818 92.7733 93.0466C92.8354 93.0113 92.909 93.0022 92.9778 93.0212C93.9705 93.2935 95.0242 93.2421 95.9857 92.8747C96.9473 92.5072 97.7666 91.8428 98.3247 90.9779C98.5078 90.6831 98.9742 90.9541 98.7902 91.2498C98.1775 92.2232 97.2666 92.9724 96.1933 93.3858C95.12 93.7993 93.9418 93.8547 92.8344 93.544V93.5404Z" fill="#FFCEB6"/>
<path d="M78.8783 55.0554C79.0366 52.9205 78.9117 50.7741 78.5069 48.6719C77.7501 44.7638 74.3005 41.3468 70.2789 42.4054C68.5277 42.9167 67.1162 44.1373 65.4442 44.8202C64.6367 45.2148 63.7182 45.3201 62.8423 45.1186C61.9664 44.9171 61.1863 44.4209 60.6324 43.7131C57.8762 40.5099 59.6732 35.7051 57.8876 31.2242C56.5166 27.4331 52.2222 24.9242 48.6828 27.2413C45.0511 29.6833 45.0828 34.6394 45.6187 38.5053C46.0654 42.4828 47.686 46.2373 50.2739 49.2906C54.0112 53.4846 60.4555 55.2244 65.3571 52.4128C66.2164 51.798 67.1196 51.2471 68.0596 50.7646C70.7339 49.6734 73.4276 52.0247 74.2504 55.0827C74.7889 57.0794 74.9288 59.3067 76.4926 60.8318C77.0982 61.4425 77.9029 61.8154 78.7604 61.8825C79.482 61.952 78.4594 60.4692 78.8783 55.0554ZM74.6244 49.5484C73.7407 48.9966 72.6828 48.7945 71.6579 48.9817C71.3182 49.045 71.1748 48.5258 71.5153 48.4625C72.6802 48.2395 73.8864 48.4609 74.8963 49.0829C75.192 49.265 74.9209 49.7323 74.6244 49.5484ZM68.526 46.1912C69.8213 45.9325 71.1252 45.7213 72.4376 45.5576C72.7808 45.5145 72.7764 46.0539 72.4376 46.0962C71.1739 46.2563 69.9178 46.4617 68.6694 46.7122C68.3306 46.7782 68.1872 46.259 68.5268 46.1912H68.526ZM65.5401 48.1404C64.1384 48.6741 62.6024 48.7444 61.1577 48.341C61.0927 48.3188 61.0386 48.2726 61.0065 48.2118C60.9743 48.151 60.9666 48.0803 60.9847 48.014C61.0029 47.9478 61.0457 47.8909 61.1043 47.855C61.1629 47.8192 61.233 47.807 61.3003 47.821C62.6515 48.1961 64.0876 48.1261 65.3958 47.6212C65.7223 47.4971 65.8604 48.019 65.541 48.1404H65.5401ZM52.2812 35.4728C52.0645 34.3343 52.0076 33.1712 52.1122 32.017C52.143 31.6738 52.6824 31.6712 52.6508 32.017C52.5456 33.1227 52.5959 34.2377 52.8004 35.3294C52.8646 35.669 52.3463 35.816 52.2812 35.4728ZM56.8281 40.5337C57.0165 40.8258 56.55 41.0951 56.3626 40.8047C55.2914 39.1387 54.8334 37.1519 55.0672 35.185C55.1095 34.8445 55.6472 34.8418 55.6058 35.185C55.376 37.056 55.8084 38.9483 56.8281 40.5337ZM58.4922 50.4108C56.9001 50.2777 55.3977 49.6178 54.2224 48.5355C53.9664 48.2997 54.3483 47.9195 54.6035 48.1536C55.6738 49.1409 57.0416 49.745 58.4922 49.8714C58.8354 49.9004 58.8372 50.4398 58.4922 50.4108ZM54.013 43.384C54.2479 43.9447 54.6108 44.4427 55.0726 44.8382C55.5343 45.2336 56.0822 45.5155 56.6724 45.6614C56.7378 45.6835 56.7924 45.7297 56.8248 45.7907C56.8573 45.8517 56.8651 45.9228 56.8467 45.9894C56.8284 46.0559 56.7852 46.113 56.7261 46.1487C56.667 46.1844 56.5964 46.1962 56.5289 46.1815C55.8513 46.0069 55.2241 45.6757 54.6977 45.2146C54.1713 44.7535 53.7605 44.1753 53.4982 43.5266C53.3618 43.208 53.8819 43.0681 54.013 43.384ZM49.8603 39.4574C49.4241 37.9323 49.2497 36.3443 49.3446 34.7609C49.3622 34.415 49.9008 34.4142 49.8832 34.7609C49.6931 38.3988 50.808 39.4874 50.1806 39.6387C50.114 39.6561 50.0432 39.6468 49.9834 39.6128C49.9236 39.5787 49.8794 39.5227 49.8603 39.4566V39.4574Z" fill="#B26EE6"/>
<path d="M84.7686 21.0848C83.4767 20.409 83.0578 20.8842 81.0866 20.7988C79.6786 20.5709 78.8391 18.6868 80.5586 16.1155C83.3975 11.4858 85.9117 12.3781 84.2089 7.9526C83.4996 5.82036 81.7634 3.92924 79.4639 4.50124C78.938 4.63349 78.454 4.89638 78.0568 5.26554C77.6596 5.6347 77.362 6.09818 77.1917 6.613C77.0213 7.12783 76.9837 7.67733 77.0823 8.21056C77.1809 8.74379 77.4126 9.24348 77.7558 9.66332C78.8338 10.8636 79.6126 10.7325 80.0438 11.932C80.3377 13.2405 78.9174 14.1883 78.0436 14.8606C74.7656 16.9972 76.0979 21.832 80.3483 22.5386C81.9138 22.8228 83.885 22.3283 84.8108 23.5145C85.8386 25.0985 83.4908 26.9527 83.8833 29.1404C83.9202 29.414 84.2458 29.3234 84.1578 29.3392C84.2172 29.3515 84.279 29.34 84.3299 29.307C84.3808 29.2741 84.4167 29.2224 84.4298 29.1632C85.0035 26.4203 86.0868 25.7312 86.3825 23.4714C86.337 22.9696 86.1651 22.4876 85.8829 22.0702C85.6007 21.6529 85.2173 21.3139 84.7686 21.0848Z" fill="#6DD3A8"/>
<path d="M61.9216 59.3472C60.3218 58.9547 58.9164 60.654 59.0431 62.2952C59.1698 63.9364 61.625 64.291 62.8852 63.2306C63.1609 62.942 63.3592 62.5883 63.4616 62.2025C63.5641 61.8168 63.5674 61.4113 63.4713 61.0239C63.3752 60.6365 63.1827 60.2797 62.9118 59.9865C62.6408 59.6934 62.3002 59.4735 61.9216 59.3472Z" fill="#FCAFB7"/>
<path d="M72.4098 31.2514C72.0607 31.1458 71.6899 31.1338 71.3347 31.2165C70.9795 31.2993 70.6522 31.474 70.3858 31.7231C70.2028 32.0114 70.1098 32.3477 70.1188 32.6891C70.1277 33.0304 70.2381 33.3614 70.4359 33.6397C70.6583 33.8023 70.9172 33.9077 71.1899 33.9467C71.4625 33.9858 71.7406 33.9573 71.9997 33.8637C72.2587 33.7701 72.4908 33.6143 72.6756 33.41C72.8603 33.2057 72.9921 32.9591 73.0592 32.692C73.1226 32.4139 73.0935 32.1227 72.9763 31.8627C72.8591 31.6027 72.6601 31.388 72.4098 31.2514Z" fill="#FFD35C"/>
<path d="M86.5719 77.7682C84.3639 78.0579 82.1389 78.1976 79.912 78.1862C79.898 76.4187 80.0269 74.653 80.2975 72.9062C80.3131 72.8402 80.3048 72.7706 80.274 72.7101C80.2433 72.6496 80.192 72.6019 80.1294 72.5756C80.0668 72.5493 79.9968 72.5461 79.932 72.5665C79.8673 72.5869 79.8118 72.6297 79.7756 72.6871C79.1244 73.7084 78.1658 74.4966 77.0379 74.9382C76.7 75.0702 76.847 75.621 77.1902 75.4882C80.8413 74.0705 79.2511 71.5053 79.3391 78.4696C79.3405 78.545 79.3711 78.6168 79.4245 78.67C79.4778 78.7232 79.5498 78.7536 79.6251 78.7547C81.6899 78.7726 83.7537 78.6612 85.8045 78.4212C84.5788 79.6359 83.3931 80.8903 82.2493 82.1823C82.0064 82.456 82.4095 82.8608 82.6523 82.5854C83.9723 81.0905 85.346 79.6459 86.7734 78.2514C86.9344 78.0982 86.8271 77.7348 86.5719 77.7682Z" fill="#6DD3A8"/>
<path d="M106.696 13.64C104.556 11.3846 102.307 9.01999 101.381 5.97519C101.264 5.58623 100.652 5.75167 100.771 6.14327C101.644 9.01823 103.627 11.3133 105.656 13.4631C104.534 13.3967 103.41 13.5647 102.356 13.9563C101.303 14.348 100.342 14.9547 99.5361 15.7379C99.1938 16.075 98.8409 16.4842 99.1242 16.9761C100.21 18.3195 101.593 19.3925 103.164 20.1106L97.7699 20.0816C97.6859 20.0816 97.6053 20.115 97.5459 20.1744C97.4865 20.2338 97.4531 20.3144 97.4531 20.3984C97.4531 20.4824 97.4865 20.563 97.5459 20.6224C97.6053 20.6818 97.6859 20.7152 97.7699 20.7152L104.879 20.753C104.955 20.7511 105.027 20.7225 105.083 20.6724C105.14 20.6223 105.176 20.5538 105.187 20.4792C105.197 20.4046 105.181 20.3286 105.141 20.2649C105.101 20.2011 105.039 20.1536 104.967 20.1309C102.954 19.5175 101.152 18.3553 99.7622 16.7746C99.6558 16.6399 99.6382 16.5836 99.7438 16.4419C100.581 15.5469 101.625 14.8714 102.784 14.4748C103.943 14.0783 105.182 13.9729 106.392 14.168C106.458 14.1825 106.528 14.1755 106.59 14.148C106.652 14.1205 106.703 14.074 106.737 14.0151C106.771 13.9563 106.785 13.8882 106.778 13.8208C106.77 13.7533 106.742 13.69 106.696 13.64Z" fill="#FF9F48"/>
<path d="M92.6863 43.2863C92.0375 44.719 91.7302 46.2828 91.7887 47.8544C91.8019 48.2002 92.3405 48.202 92.3264 47.8544C92.2651 46.3777 92.5477 44.907 93.1518 43.5582C93.2926 43.2441 92.8298 42.9704 92.6863 43.2863ZM96.5733 44.6855C96.5152 43.2554 96.8653 41.8383 97.5826 40.5997C97.6132 40.5383 97.6193 40.4677 97.5997 40.402C97.5801 40.3363 97.5362 40.2806 97.4771 40.246C97.4179 40.2114 97.3478 40.2006 97.2809 40.2158C97.2141 40.231 97.1556 40.271 97.1171 40.3278C96.351 41.6486 95.9754 43.1597 96.0338 44.6855C96.0479 45.0314 96.5865 45.0331 96.5733 44.6855ZM96.9077 55.0528C95.7546 54.0301 94.9424 52.6789 94.5801 51.1808C94.4991 50.8438 93.9799 50.9863 94.0618 51.3242C94.4451 52.914 95.3047 54.3487 96.5258 55.4365C96.7854 55.6635 97.1673 55.2834 96.9077 55.0528ZM98.7073 55.5623C98.4811 55.2983 98.1018 55.682 98.3271 55.9434C99.1765 56.9335 99.9487 57.9874 100.637 59.0955C100.819 59.3903 101.286 59.1193 101.102 58.8236C100.389 57.6765 99.5882 56.5861 98.7073 55.5623ZM98.592 60.7508C99.3731 61.7712 99.7411 63.0484 99.6225 64.328C99.5917 64.6738 100.131 64.6712 100.161 64.328C100.279 62.9054 99.8542 61.491 98.973 60.368C98.7618 60.0961 98.3843 60.4798 98.592 60.7508ZM102.159 63.272C102.138 64.4681 101.853 65.6448 101.323 66.7172C101.167 67.027 101.632 67.2998 101.787 66.99C102.369 65.8358 102.68 64.5643 102.696 63.272C102.69 63.2053 102.659 63.1434 102.609 63.0984C102.559 63.0534 102.495 63.0285 102.427 63.0285C102.36 63.0285 102.296 63.0534 102.246 63.0984C102.196 63.1434 102.165 63.2053 102.159 63.272ZM98.1098 70.9051C97.3414 71.9836 96.7097 73.1533 96.2292 74.3873C96.1025 74.7102 96.6226 74.8502 96.7484 74.5298C97.2177 73.3415 97.8309 72.2152 98.5744 71.1762C98.7768 70.8937 98.3095 70.6244 98.1098 70.9051ZM94.7262 79.823L95.336 82.9954C95.4011 83.3351 95.9212 83.1917 95.8561 82.852L95.2454 79.6796C95.1802 79.3399 94.661 79.4834 94.7262 79.823ZM83.588 106.486C83.4322 106.176 82.972 106.447 83.1225 106.758C83.5485 107.626 83.7597 108.583 83.7385 109.549C83.2681 108.991 82.9587 108.314 82.8435 107.593C82.789 107.252 82.2698 107.397 82.3243 107.736C82.4757 108.669 82.9169 109.531 83.5854 110.2C83.6238 110.242 83.6755 110.269 83.7318 110.276C83.788 110.284 83.8451 110.272 83.8934 110.242C83.9342 110.255 83.9775 110.259 84.0201 110.254C84.0627 110.248 84.1035 110.233 84.1395 110.21C84.1755 110.186 84.2057 110.155 84.228 110.118C84.2503 110.081 84.2641 110.04 84.2682 109.997C84.3676 108.787 84.1323 107.572 83.588 106.486Z" fill="black"/>
<path d="M70.2576 121.51C70.0557 121.236 69.9419 120.906 69.9312 120.565C69.7444 119.186 69.9582 117.783 70.5472 116.522C68.3152 115.457 65.8622 114.938 63.3902 115.007C60.9183 115.077 58.4983 115.733 56.3299 116.922C56.0776 121.638 56.5368 126.365 57.6921 130.944C58.1532 132.275 59.2814 133.797 60.898 133.443C62.4441 133.105 62.3878 131.197 62.2875 129.968C62.2637 129.67 62.6465 129.647 62.79 129.833L64.506 132.067C64.9099 132.595 65.4185 133.498 66.1973 133.424C66.5405 133.358 66.854 133.185 67.093 132.93C67.332 132.675 67.4842 132.351 67.5279 132.004C67.5752 131.112 67.3838 130.223 66.9735 129.429C66.8793 129.195 67.1838 129.026 67.3695 129.124C69.4181 130.444 68.9808 131.65 70.6941 132.996C70.8827 133.092 71.0894 133.146 71.3006 133.156C71.5118 133.166 71.7228 133.132 71.9195 133.054C72.1162 132.977 72.2943 132.858 72.442 132.707C72.5897 132.556 72.7036 132.375 72.7762 132.176C73.7275 129.877 73.093 126.885 71.8742 124.797C71.8458 124.746 71.835 124.686 71.8432 124.628C71.8515 124.57 71.8784 124.516 71.92 124.474C71.9615 124.432 72.0155 124.405 72.0737 124.397C72.1319 124.389 72.1913 124.399 72.2429 124.428C73.6016 125.396 75.6054 125.77 76.3534 124.252C76.9201 122.851 74.9815 122.114 73.9396 122.023C72.4471 121.918 71.2547 122.383 70.2576 121.51ZM60.0954 126.845C59.9766 127.169 59.4556 127.028 59.5753 126.702C59.7585 126.214 59.8768 125.704 59.9273 125.185C59.959 124.842 60.4984 124.84 60.4659 125.185C60.4164 125.752 60.2918 126.311 60.0954 126.845ZM64.1144 126.128C64.0598 126.47 63.5406 126.325 63.5952 125.984L63.7712 124.879C63.8266 124.538 64.3449 124.684 64.2904 125.022C64.2329 125.391 64.1742 125.76 64.1144 126.128ZM68.5557 125.179C68.4959 125.52 67.9776 125.374 68.0365 125.036L68.3278 123.364C68.3867 123.022 68.9068 123.167 68.847 123.506C68.7502 124.065 68.6519 124.622 68.5522 125.179H68.5557Z" fill="#FFCEB6"/>
<path d="M111.329 150.554C110.81 149.083 110.413 147.572 110.143 146.036C108.911 147.859 108.497 150.215 106.535 150.876C106.208 150.965 105.862 150.949 105.545 150.832C105.227 150.714 104.954 150.5 104.764 150.22C104.572 149.753 104.529 149.239 104.64 148.746C104.971 145.248 105.014 145.284 104.867 145.174C104.563 144.948 103.064 145.35 102.171 146.468C101.291 147.46 101.328 147.797 100.675 148.505C100.534 148.629 100.365 148.716 100.183 148.761C100 148.806 99.8102 148.806 99.6277 148.762C99.4453 148.719 99.276 148.632 99.134 148.509C98.9919 148.386 98.8814 148.232 98.8114 148.057C98.3714 147.166 98.7701 146.479 100.097 142.444C98.3846 142.743 97.3533 145.539 95.713 145.864C95.3941 145.935 95.06 145.877 94.7841 145.702C94.5082 145.527 94.313 145.25 94.2416 144.931C94.19 144.019 94.4446 143.115 94.965 142.365C96.4559 139.778 98.2963 137.409 100.434 135.325C100.82 134.892 100.904 134.735 102.453 134.099C101.248 133.263 100.126 132.496 99.0754 131.704C99.0321 131.678 98.9823 131.664 98.9316 131.664C98.8808 131.664 98.831 131.678 98.7877 131.704C88.731 139.331 88.0517 139.345 88.1608 139.806C89.0765 143.876 90.2456 147.885 91.6614 151.809C92.2704 153.43 92.2158 153.347 92.6294 153.576C102.016 158.737 101.725 158.504 101.902 158.399C105.279 156.217 108.413 153.68 111.25 150.831C111.287 150.796 111.314 150.752 111.328 150.703C111.342 150.655 111.342 150.603 111.329 150.554ZM88.8094 140.17C88.7721 140.13 88.7482 140.079 88.7409 140.025C88.7336 139.971 88.7434 139.916 88.7689 139.867L88.7636 139.845C88.8674 139.767 88.8393 139.757 88.929 139.721C88.9744 139.702 89.0247 139.699 89.0723 139.711C89.1199 139.723 89.1623 139.751 89.193 139.789C90.5235 141.291 92.0447 142.612 93.718 143.72C94.0075 143.91 93.7374 144.376 93.447 144.184C91.7337 143.054 90.1748 141.705 88.8094 140.172V140.17ZM101.676 158.055C100.745 155.527 99.9566 152.949 99.3157 150.332C99.2338 149.994 99.7557 149.852 99.8358 150.189C100.477 152.805 101.264 155.384 102.195 157.912C102.316 158.24 101.795 158.379 101.676 158.057V158.055Z" fill="#FFD35C"/>
<path d="M110.652 144.618C115.849 140.179 123.248 141.469 129.871 140.746C129.697 138.883 129.108 137.083 128.148 135.477C127.099 133.922 125.703 132.631 124.071 131.707C122.439 130.783 120.615 130.25 118.741 130.15C117.815 130.118 117.473 130.266 115.361 130.854C105.329 133.625 105.443 133.477 102.673 134.595C101.74 134.869 100.92 135.438 100.336 136.215C98.3289 138.217 96.619 140.496 95.2586 142.983C94.9805 143.532 94.4393 144.562 94.9233 145.14C95.5508 145.887 96.6138 144.755 97.0309 144.3C97.9769 143.267 98.9238 141.856 100.487 141.876C100.559 141.877 100.627 141.907 100.678 141.958C100.728 142.009 100.756 142.079 100.755 142.151C100.755 142.216 100.804 142.053 99.7185 145.343C99.5363 145.836 99.3798 146.338 99.2494 146.847C99.169 147.076 99.1581 147.324 99.2183 147.559C99.2784 147.794 99.4068 148.005 99.5873 148.167C100.731 148.968 101.192 145.218 104.054 144.653C104.411 144.546 104.795 144.563 105.141 144.701C105.279 144.797 105.386 144.932 105.447 145.089C105.507 145.246 105.52 145.417 105.482 145.581C105.189 149.251 105.009 149.305 105.218 149.923C105.305 150.071 105.431 150.192 105.581 150.274C105.731 150.357 105.901 150.397 106.072 150.391C108.072 150.454 108.699 146.287 110.652 144.618ZM101.915 138.81C101.915 138.882 101.887 138.95 101.836 139.001C101.786 139.051 101.717 139.08 101.646 139.08C101.574 139.08 101.506 139.051 101.455 139.001C101.405 138.95 101.376 138.882 101.376 138.81V137.544C101.376 137.473 101.405 137.404 101.455 137.354C101.506 137.303 101.574 137.275 101.646 137.275C101.717 137.275 101.786 137.303 101.836 137.354C101.887 137.404 101.915 137.473 101.915 137.544V138.81ZM109.276 141.113C109.42 141.814 109.473 142.531 109.435 143.246C109.414 143.59 108.877 143.591 108.896 143.246C108.936 142.579 108.889 141.911 108.757 141.257C108.687 140.917 109.208 140.773 109.276 141.112V141.113ZM105.58 140.862L105.38 139.432C105.333 139.092 105.853 138.947 105.9 139.288L106.099 140.719C106.146 141.058 105.626 141.203 105.579 140.862L105.58 140.862Z" fill="#FFCEB6"/>
<path d="M62.7085 138.351C62.7134 138.305 62.7049 138.259 62.6841 138.219C62.6634 138.178 62.6311 138.144 62.5915 138.121C65.5079 136.908 68.5154 135.927 71.5859 135.186C71.8904 135.001 71.7831 134.57 71.6053 134.35C71.3844 134.077 71.0148 134.433 71.1811 134.714C68.2307 135.437 65.3385 136.38 62.529 137.535C62.5401 137.5 62.544 137.463 62.5406 137.426C62.5372 137.389 62.5264 137.353 62.509 137.32C62.4915 137.287 62.4677 137.258 62.439 137.235C62.4102 137.211 62.3771 137.194 62.3415 137.183C52.5551 134.09 51.2263 134.492 50.0497 133.425C49.9939 133.373 49.9199 133.346 49.844 133.349C49.7681 133.352 49.6965 133.385 49.6449 133.441C49.6449 133.441 49.6308 133.214 49.6255 133.1L56.6145 130.713C56.9603 130.595 56.8116 130.044 56.4631 130.163L49.5683 132.517C49.446 132.281 49.0157 132.32 49.0307 132.64C49.2155 136.719 49.5622 140.786 50.0708 144.839C50.1166 145.199 50.6868 145.204 50.6411 144.839C50.1829 141.187 49.8581 137.523 49.6669 133.845C51.4427 135.198 51.9751 134.501 62.1215 137.712C62.0811 137.744 62.0495 137.785 62.0294 137.833C62.0094 137.88 62.0017 137.931 62.0071 137.983C62.0125 138.034 62.0307 138.083 62.0601 138.125C62.0895 138.167 62.1291 138.201 62.1752 138.223C61.9341 140.912 62.207 143.623 62.9795 146.209C62.9996 146.282 63.0478 146.344 63.1136 146.382C63.1462 146.4 63.182 146.412 63.2192 146.417C63.2564 146.421 63.2941 146.419 63.3302 146.409C63.3663 146.399 63.4001 146.382 63.4297 146.359C63.4593 146.336 63.484 146.307 63.5025 146.275C63.521 146.242 63.5329 146.206 63.5376 146.169C63.5422 146.132 63.5395 146.094 63.5295 146.058C62.7692 143.564 62.4906 140.949 62.7085 138.351ZM77.1027 141.856C72.7508 143.514 68.4658 145.333 64.2476 147.312C63.9159 147.468 64.2054 147.959 64.5363 147.805C68.5256 145.936 72.5771 144.209 76.6908 142.624C76.6567 142.609 76.6258 142.587 76.6001 142.56C76.5743 142.533 76.5542 142.502 76.5408 142.467C76.5273 142.432 76.5209 142.395 76.5219 142.357C76.5229 142.32 76.5313 142.283 76.5465 142.249C76.6776 141.952 77.005 142.128 77.4265 142.237C77.5039 142.032 77.3579 141.757 77.1027 141.856Z" fill="#B26EE6"/>
<path d="M61.4852 148.159C61.4852 148.159 54.3818 146.145 53.5168 145.893C52.7486 145.725 52.0346 145.368 51.44 144.853C51.176 144.596 50.7747 144.999 51.0361 145.257C52.1422 146.26 52.2936 146.137 61.3321 148.709C61.4033 148.725 61.4776 148.712 61.5399 148.674C61.6022 148.637 61.6477 148.577 61.6672 148.506C61.6867 148.436 61.6788 148.361 61.645 148.297C61.6111 148.232 61.554 148.183 61.4852 148.159ZM76.9248 134.707C76.9019 134.343 76.3317 134.34 76.3546 134.707C76.4877 136.878 76.6852 139.044 76.9468 141.207C76.9899 141.566 77.5628 141.571 77.517 141.207C77.2548 139.046 77.0574 136.88 76.9248 134.707Z" fill="#B26EE6"/>
<path d="M73.7439 153.032C70.6463 152.141 67.5504 151.246 64.5303 150.119C64.1862 149.991 64.0374 150.542 64.3789 150.669C67.399 151.795 70.4741 152.767 73.5925 153.582C73.6654 153.602 73.7433 153.592 73.8091 153.555C73.8749 153.518 73.9231 153.456 73.9432 153.383C73.9632 153.31 73.9535 153.232 73.9161 153.166C73.8788 153.1 73.8168 153.052 73.7439 153.032ZM73.523 154.352L74.1601 165.597C74.1812 165.962 74.7514 165.964 74.7303 165.597L74.0958 154.352C74.073 153.99 73.5027 153.988 73.523 154.352ZM87.9119 146.766C84.4971 144.643 80.7718 143.065 76.8705 142.09C76.8025 142.077 76.732 142.089 76.6722 142.124C76.6125 142.159 76.5676 142.215 76.546 142.28C76.5244 142.346 76.5275 142.418 76.5549 142.481C76.5822 142.545 76.6319 142.596 76.6945 142.626C80.5592 143.588 84.2489 145.151 87.6285 147.257C87.9374 147.453 88.2234 146.96 87.9119 146.766ZM77.0606 154.183C86.1536 150.694 86.1563 150.86 87.2123 149.846C87.4631 149.582 87.0609 149.174 86.8092 149.443C85.8641 150.323 86.0876 150.118 76.9092 153.633C76.5695 153.763 76.7174 154.315 77.0606 154.183ZM73.2687 164.897C66.1019 162.548 65.9383 162.609 64.9456 161.767C64.6763 161.518 64.2724 161.921 64.5426 162.17C65.5986 163.145 67.1042 163.479 68.4357 163.914L73.1173 165.447C73.4666 165.561 73.6171 165.011 73.2687 164.897ZM87.3038 161.433C84.5375 163.045 81.6227 164.389 78.5997 165.444C77.5719 165.894 76.4563 166.108 75.3349 166.071C74.9706 166.031 74.9741 166.599 75.3349 166.641C76.4482 166.687 77.5578 166.486 78.5839 166.052C81.715 164.977 84.732 163.595 87.5907 161.925C87.6553 161.887 87.7022 161.825 87.7212 161.752C87.7401 161.679 87.7294 161.602 87.6916 161.537C87.6538 161.472 87.5918 161.424 87.5191 161.405C87.4465 161.385 87.3691 161.395 87.3038 161.433Z" fill="#6DD3A8"/>
<path d="M59.2605 150.734L51.3572 153.11C51.2876 153.092 51.2138 153.097 51.1478 153.126L50.7386 153.307C50.4077 153.452 50.6444 153.988 50.9832 153.886L59.4312 151.343C59.5075 151.317 59.5707 151.262 59.6081 151.191C59.6455 151.119 59.6542 151.036 59.6324 150.958C59.6106 150.881 59.56 150.814 59.4909 150.773C59.4218 150.731 59.3394 150.717 59.2605 150.734ZM62.3713 152.922C62.3713 152.838 62.3379 152.757 62.2785 152.698C62.2191 152.639 62.1385 152.605 62.0545 152.605C61.9705 152.605 61.8899 152.639 61.8305 152.698C61.7711 152.757 61.7377 152.838 61.7377 152.922C61.8248 156.453 62.1328 159.976 62.6599 163.469C62.7207 163.87 63.3314 163.7 63.2759 163.3C62.7687 159.862 62.4666 156.396 62.3713 152.922ZM58.6727 163.768C49.3332 167.371 49.4705 167.392 48.081 167.648L48.1435 167.521C48.1649 167.475 48.1755 167.424 48.1744 167.372C48.1733 167.321 48.1605 167.27 48.137 167.225C48.1135 167.179 48.08 167.139 48.0389 167.108C47.9977 167.078 47.9502 167.057 47.8997 167.047C47.4427 163.143 47.0907 159.23 46.8437 155.306C46.8182 154.901 46.1837 154.899 46.2101 155.306C46.3527 157.58 47.142 167.493 47.3972 167.907C47.3136 168.102 47.3972 168.365 47.6674 168.342C48.5839 168.241 49.4817 168.012 50.3347 167.662C51.2824 167.305 58.8434 164.38 58.8434 164.38C59.2183 164.237 59.0546 163.624 58.6727 163.768ZM46.7328 153.248C43.3523 151.853 39.8551 150.76 36.2819 149.982C40.7406 148.477 45.1456 146.817 49.4969 145.003C49.8674 144.849 49.7046 144.235 49.3279 144.392C39.0319 148.696 35.5119 149.341 35.3808 149.752C35.2735 149.724 35.1661 149.699 35.0587 149.671C34.9785 149.651 34.8935 149.663 34.8221 149.705C34.7506 149.747 34.6984 149.815 34.6764 149.895C34.6544 149.974 34.6646 150.06 34.7046 150.132C34.7446 150.204 34.8114 150.258 34.8907 150.282C38.8781 151.135 42.7841 152.332 46.5647 153.859C46.9405 154.014 47.1051 153.402 46.7328 153.248Z" fill="#FF9F48"/>
<path d="M48.4317 137.23C44.8301 139.033 41.0595 140.478 37.1747 141.542C36.8227 141.654 37.0771 142.334 37.3771 142.45L38.1216 148.18C38.1656 148.518 38.7051 148.523 38.6602 148.18L37.9421 142.655C40.0016 143.427 42.1512 143.933 44.3388 144.16C44.6838 144.196 44.6811 143.657 44.3388 143.622C42.4143 143.419 38.8731 142.666 37.7459 141.938C41.5241 140.872 45.193 139.451 48.7036 137.694C49.016 137.54 48.7415 137.075 48.4317 137.23ZM73.9359 121.481C72.5895 121.376 70.4229 122.001 70.4555 120.459C70.2821 119.111 70.5159 117.742 71.1269 116.529C71.1616 116.467 71.171 116.394 71.1529 116.325C71.1349 116.256 71.0908 116.197 71.0301 116.16H71.0213C68.6954 115.012 66.1291 114.436 63.5358 114.48C60.9425 114.524 58.3971 115.187 56.1115 116.413C56.0046 116.45 55.9137 116.522 55.8541 116.618C55.7945 116.715 55.7698 116.828 55.7841 116.941C55.5909 120.038 55.7346 123.146 56.2127 126.212C56.7046 130.084 57.0927 131.708 58.4127 133.17C58.8593 133.633 59.454 133.923 60.093 133.992C60.732 134.061 61.375 133.904 61.9098 133.547C62.268 133.196 62.5409 132.768 62.7073 132.295C62.8738 131.822 62.9294 131.317 62.8699 130.819L64.416 132.827C64.9176 133.478 65.5336 134.12 66.4339 133.933C68.0777 133.493 68.4218 131.677 67.8128 130.14C69.1935 131.685 69.0448 132.58 70.5971 133.553C71.0261 133.737 71.5063 133.761 71.9518 133.623C72.3973 133.485 72.779 133.192 73.0286 132.798C74.3222 130.956 73.7238 127.378 72.7505 125.318C74.2263 126.135 76.1825 126.012 76.8742 124.38C77.5201 122.595 75.3474 121.591 73.9359 121.481ZM76.3497 124.247C75.6017 125.77 73.5847 125.391 72.2392 124.423C72.1876 124.395 72.1282 124.384 72.07 124.393C72.0118 124.401 71.9578 124.428 71.9163 124.47C71.8747 124.511 71.8478 124.565 71.8396 124.624C71.8313 124.682 71.8422 124.741 71.8705 124.793C73.0849 126.875 73.7264 129.864 72.7725 132.172C72.7 132.37 72.5863 132.551 72.439 132.702C72.2916 132.853 72.114 132.971 71.9176 133.049C71.7213 133.127 71.5108 133.162 71.2999 133.152C71.089 133.143 70.8825 133.089 70.6939 132.994C68.9771 131.646 69.4223 130.442 67.3693 129.122C67.1836 129.024 66.88 129.191 66.9733 129.426C67.3836 130.22 67.575 131.109 67.5277 132.002C67.4839 132.348 67.3316 132.672 67.0927 132.927C66.8537 133.182 66.5403 133.355 66.1971 133.421C65.4175 133.495 64.9088 132.59 64.5058 132.064L62.7898 129.83C62.6472 129.644 62.2618 129.667 62.2873 129.965C62.3867 131.197 62.4439 133.102 60.8978 133.441C59.2812 133.793 58.1531 132.273 57.6919 130.941C56.5365 126.361 56.077 121.634 56.3288 116.917C58.4979 115.73 60.9177 115.075 63.3893 115.005C65.8609 114.935 68.3137 115.453 70.5461 116.516C69.9575 117.777 69.7437 119.181 69.9301 120.56C69.9935 122.573 72.5701 121.92 73.935 122.014C74.976 122.11 76.9164 122.848 76.3497 124.247Z" fill="black"/>
<path d="M68.328 123.368L68.0367 125.04C67.9768 125.379 68.4969 125.524 68.5559 125.184C68.6538 124.627 68.7509 124.07 68.8472 123.512C68.9044 123.171 68.3878 123.024 68.328 123.368ZM63.7731 124.879L63.5971 125.984C63.5425 126.324 64.0617 126.47 64.1163 126.128L64.2923 125.022C64.3468 124.683 63.8276 124.538 63.7731 124.879ZM59.9284 125.185C59.8783 125.704 59.7599 126.214 59.5764 126.702C59.4567 127.028 59.9768 127.168 60.0964 126.845C60.2918 126.31 60.4161 125.752 60.466 125.185C60.4968 124.84 59.9583 124.842 59.9284 125.185ZM131.607 120.637C130.577 121.146 129.455 121.44 128.308 121.502C129.108 120.492 129.671 119.314 129.954 118.057C130.237 116.8 130.234 115.495 129.944 114.24C129.876 113.955 129.768 113.679 129.704 113.395C129.631 113.084 129.597 112.768 129.519 112.457C128.415 108.289 124.929 105.407 121.817 102.392C121.567 102.15 121.186 102.531 121.435 102.773C124.876 106.107 128.416 108.987 129.169 113.443C129.386 114.616 130.748 117.486 127.592 121.524C127.386 121.524 127.286 121.637 127.283 121.777C127.279 121.917 127.423 121.777 126.82 122.431C126.49 122.349 126.167 122.245 125.852 122.118C125.531 121.987 125.391 122.508 125.708 122.638C125.934 122.726 126.166 122.8 126.398 122.87C123.915 125.353 121.118 126.994 117.987 129.152C117.944 129.184 117.91 129.227 117.89 129.277C117.87 129.327 117.864 129.381 117.874 129.434C117.884 129.487 117.909 129.536 117.945 129.576C117.982 129.615 118.029 129.643 118.081 129.657C116.348 129.901 111.461 131.452 109.148 132.021C106.542 132.575 104.003 133.403 101.573 134.492C101.126 134.663 100.734 134.952 100.438 135.328C98.301 137.413 96.4606 139.782 94.9691 142.368C94.5214 143.046 94.2618 143.83 94.2167 144.641C94.2105 144.968 94.3341 145.283 94.5603 145.518C94.7865 145.753 95.0968 145.889 95.4232 145.896C97.1726 145.93 98.3096 142.76 100.101 142.447C98.7883 146.45 98.3703 147.164 98.8156 148.061C98.8855 148.235 98.9961 148.39 99.1381 148.513C99.2801 148.635 99.4494 148.722 99.6319 148.766C99.8143 148.81 100.005 148.809 100.187 148.765C100.369 148.72 100.538 148.632 100.679 148.509C101.316 147.818 101.28 147.482 102.175 146.472C103.017 145.416 104.542 144.932 104.871 145.178C105.013 145.284 104.981 145.235 104.644 148.75C104.533 149.242 104.577 149.757 104.768 150.224C104.958 150.504 105.231 150.717 105.549 150.835C105.866 150.952 106.213 150.968 106.539 150.88C108.053 150.368 108.501 149.104 109.584 146.986C110.377 145.414 111.701 144.173 113.321 143.482C118.5 140.964 124.204 141.963 130.166 141.258C130.238 141.257 130.306 141.228 130.356 141.178C130.407 141.127 130.435 141.06 130.437 140.988C130.287 138.946 129.663 136.966 128.614 135.207C127.547 133.595 126.121 132.252 124.447 131.283C122.774 130.314 120.9 129.746 118.97 129.622C118.202 129.585 118.14 129.692 118.262 129.622C121.559 127.347 124.379 125.708 127.017 123.028C127.81 123.202 128.625 123.248 129.433 123.165C129.774 123.128 129.777 122.589 129.433 122.625C128.771 122.695 128.104 122.675 127.448 122.565C127.596 122.398 127.743 122.23 127.888 122.058C129.275 122.049 130.642 121.724 131.884 121.107C132.19 120.948 131.918 120.483 131.607 120.637ZM118.741 130.152C120.615 130.249 122.441 130.78 124.073 131.705C125.706 132.63 127.101 133.922 128.148 135.479C129.108 137.084 129.697 138.885 129.871 140.748C123.206 141.474 115.847 140.182 110.652 144.62C108.699 146.292 108.072 150.455 106.068 150.386C105.896 150.392 105.727 150.351 105.577 150.269C105.426 150.187 105.301 150.065 105.214 149.918C105.015 149.32 105.182 149.226 105.478 145.576C105.516 145.412 105.503 145.24 105.442 145.083C105.381 144.927 105.275 144.792 105.137 144.696C104.79 144.557 104.407 144.54 104.05 144.648C101.207 145.209 100.724 148.96 99.5829 148.162C99.403 148 99.275 147.788 99.2149 147.553C99.1548 147.318 99.1652 147.071 99.245 146.842C99.3761 146.328 100.765 142.124 100.741 142.212C100.751 142.172 100.753 142.13 100.744 142.089C100.736 142.048 100.718 142.01 100.693 141.977C100.667 141.944 100.635 141.917 100.597 141.899C100.56 141.88 100.519 141.871 100.477 141.871C98.9141 141.852 97.9681 143.262 97.0212 144.294C96.6041 144.749 95.5411 145.878 94.9136 145.135C94.4296 144.557 94.9708 143.527 95.2489 142.978C96.6083 140.49 98.3184 138.211 100.327 136.21C100.91 135.432 101.73 134.864 102.663 134.59C106.248 133.145 107.844 132.965 111.634 131.897C118.238 130.033 117.904 130.124 118.741 130.152Z" fill="black"/>
<path d="M101.376 137.544V138.811C101.376 138.883 101.404 138.951 101.455 139.002C101.505 139.052 101.574 139.08 101.645 139.08C101.716 139.08 101.785 139.052 101.835 139.002C101.886 138.951 101.914 138.883 101.914 138.811V137.544C101.914 137.473 101.886 137.404 101.835 137.354C101.785 137.303 101.716 137.275 101.645 137.275C101.574 137.275 101.505 137.303 101.455 137.354C101.404 137.404 101.376 137.473 101.376 137.544ZM105.379 139.431L105.579 140.862C105.626 141.203 106.145 141.058 106.098 140.718L105.899 139.287C105.851 138.946 105.336 139.091 105.379 139.431ZM108.756 141.256C108.888 141.91 108.935 142.578 108.895 143.245C108.875 143.59 109.414 143.59 109.434 143.245C109.474 142.53 109.421 141.813 109.275 141.112C109.208 140.774 108.688 140.917 108.756 141.256ZM117.29 90.1648C115.384 84.7088 110.594 85.1532 106.955 83.4768C107.191 83.2838 107.383 83.0427 107.519 82.7696C107.655 82.4965 107.731 82.1976 107.742 81.8928C107.779 80.212 107.067 78.0621 105.225 77.836C104.831 77.8191 104.438 77.8892 104.075 78.0413C103.711 78.1934 103.385 78.4237 103.121 78.716C101.455 80.25 99.6526 81.6285 97.736 82.8344C94.5019 85.0059 90.6693 86.1106 86.7756 85.9936C84.0793 86.0508 81.9743 85.924 79.6898 84.5759C79.0304 84.1914 78.535 83.5783 78.2977 82.8528C78.2545 82.5844 77.8383 82.6082 77.7776 82.8528C76.6045 87.706 80.671 94.5956 88.9149 96.1408C90.7684 96.3898 92.644 96.4296 94.5064 96.2596C96.9167 98.1646 99.7402 99.4777 102.75 100.093C105.76 100.709 108.872 100.61 111.837 99.8052C114.44 99.1012 117.94 97.5673 118.125 94.4592C118.143 92.9856 117.859 91.524 117.29 90.1648ZM117.44 95.2943C116.023 99.462 104.079 102.827 95.2887 96.1875C100.463 95.7 106.459 93.3952 106.434 88.1918C106.434 88.1204 106.406 88.0519 106.355 88.0014C106.305 87.9509 106.236 87.9225 106.165 87.9225C106.093 87.9225 106.025 87.9509 105.974 88.0014C105.924 88.0519 105.895 88.1204 105.895 88.1918C105.924 94.5894 96.3033 96.2878 89.7033 95.7088C82.3641 94.7804 77.7485 88.9776 78.1542 83.8516C79.4821 85.712 82.1019 86.2778 84.3477 86.4652C88.0601 86.8309 91.805 86.2606 95.2403 84.8064C97.978 83.4826 100.516 81.7798 102.778 79.7482C103.424 79.1832 104.03 78.4176 104.946 78.3675C106.652 78.2742 107.479 80.7945 107.095 82.4366C106.93 82.8013 106.653 83.1032 106.303 83.2972C106.263 83.3215 106.23 83.3556 106.207 83.3963C106.184 83.437 106.172 83.4829 106.172 83.5296C106.172 83.5762 106.184 83.6221 106.207 83.6628C106.23 83.7035 106.263 83.7376 106.303 83.7619C110.535 85.9416 116.186 84.6621 117.506 93.0899C117.648 93.8205 117.626 94.5735 117.44 95.2943Z" fill="black"/>
<path d="M82.1416 88.0669C81.9823 87.7589 81.5168 88.0309 81.676 88.3389L82.3264 89.5981C82.4856 89.9053 82.9503 89.6333 82.791 89.3253L82.1416 88.0669ZM94.9684 89.9554C95.0899 90.2775 95.6108 90.1376 95.4876 89.812C95.2747 89.2499 95.0623 88.6873 94.8505 88.1241C94.7291 87.8029 94.2081 87.942 94.3304 88.2676L94.9684 89.9554ZM98.3248 90.978C97.7695 91.8459 96.9504 92.5127 95.988 92.8805C95.0255 93.2484 93.9705 93.2977 92.9779 93.0213C92.909 93.0023 92.8354 93.0114 92.7733 93.0466C92.7112 93.0819 92.6656 93.1404 92.6466 93.2092C92.6275 93.2781 92.6367 93.3516 92.6719 93.4138C92.7071 93.4759 92.7656 93.5215 92.8344 93.5405C93.9414 93.8435 95.1163 93.785 96.1876 93.3734C97.259 92.9618 98.1709 92.2188 98.7903 91.2525C98.9742 90.9542 98.5104 90.6849 98.3248 90.978ZM87.7058 91.4893C87.455 91.5832 87.1779 91.5784 86.9306 91.4758C86.6832 91.3732 86.4841 91.1805 86.3735 90.9366C86.1214 90.2859 86.0826 89.5719 86.2626 88.8976C86.3136 88.5588 85.7944 88.4128 85.7434 88.7551C85.616 89.1961 85.577 89.6578 85.6286 90.1139C85.6803 90.57 85.8216 91.0114 86.0444 91.4127C86.2497 91.7187 86.5576 91.9414 86.9125 92.0406C87.2674 92.1398 87.6461 92.1091 87.9804 91.9539C88.284 91.7911 88.012 91.3247 87.7058 91.4893ZM105.066 80.55C104.652 81.25 104.185 81.917 103.668 82.5449C103.446 82.8089 103.826 83.1917 104.049 82.926C104.603 82.2685 105.099 81.5645 105.532 80.8219C105.563 80.7605 105.569 80.6899 105.549 80.6242C105.529 80.5585 105.486 80.5028 105.426 80.4682C105.367 80.4336 105.297 80.4228 105.23 80.438C105.163 80.4532 105.105 80.4932 105.066 80.55ZM105.722 26.3296C105.393 26.0449 104.987 25.8645 104.556 25.8115C104.124 25.7586 103.686 25.8354 103.299 26.0322C102.045 27.2871 102.822 29.4237 104.413 29.4369C106.195 29.429 107.135 27.3126 105.722 26.3296ZM107.484 47.5834C106.767 47.6125 106.049 47.5816 105.337 47.491C105.777 46.8873 106.205 46.2678 106.596 45.6272C106.777 45.3306 106.311 45.0596 106.13 45.3553C105.759 45.9642 105.357 46.5521 104.938 47.1267C104.403 46.4354 103.975 45.668 103.666 44.8501C103.547 44.528 103.026 44.6671 103.146 44.9936C103.462 45.8312 103.894 46.6201 104.429 47.337C103.984 47.2504 103.543 47.14 103.109 47.0061C102.778 46.9023 102.636 47.4224 102.966 47.5253C103.428 47.6684 103.898 47.7859 104.374 47.8773C103.908 48.4742 103.417 49.0505 102.901 49.6048C102.663 49.8582 103.043 50.2401 103.281 49.9867C103.876 49.3513 104.438 48.6884 104.966 47.9979C105.527 48.6293 106.171 49.1822 106.88 49.6417C107.172 49.8301 107.443 49.3637 107.152 49.1762C106.659 48.856 106.199 48.4869 105.78 48.0745C106.347 48.1277 106.916 48.1444 107.485 48.1246C107.83 48.107 107.831 47.5693 107.484 47.5834ZM92.4675 66.345C91.7679 65.8277 91.1288 65.2332 90.5623 64.5727C91.0638 64.5457 91.5667 64.5583 92.0662 64.6105C92.4103 64.6493 92.4068 64.1107 92.0662 64.072C91.6249 64.0255 91.1809 64.0093 90.7374 64.0236C91.0199 63.4524 91.3015 62.8796 91.6042 62.3173C91.7679 62.0119 91.3032 61.74 91.1387 62.0453C90.7867 62.6965 90.4593 63.3574 90.1346 64.0201C89.7629 63.5398 89.4281 63.0321 89.1332 62.5012C88.9686 62.1967 88.5031 62.4677 88.6685 62.7731C88.928 63.2441 89.2188 63.6971 89.5388 64.1292C89.0104 64.204 88.4889 64.3217 87.9795 64.4812C87.6504 64.5859 87.7903 65.106 88.122 65.0004C88.6823 64.8251 89.2577 64.7022 89.8407 64.6334C89.5125 65.3286 89.1921 66.0273 88.8912 66.7348C88.7574 67.0508 89.2212 67.3253 89.3567 67.0076C89.6392 66.3415 89.9419 65.6877 90.2499 65.0312C90.8335 65.6927 91.4857 66.2903 92.1956 66.8141C92.4754 67.0165 92.7447 66.5492 92.4675 66.345ZM67.2845 71.5942C66.7284 71.904 66.1801 72.2322 65.6284 72.5508C65.7929 72.0853 65.9513 71.6171 66.0912 71.1428C66.1103 71.0739 66.1012 71.0003 66.0659 70.9382C66.0307 70.8761 65.9722 70.8305 65.9034 70.8114C65.8345 70.7924 65.7609 70.8015 65.6988 70.8368C65.6367 70.872 65.5911 70.9305 65.572 70.9993C65.4747 71.3296 65.3708 71.6573 65.2605 71.9823C64.9965 71.4543 64.7325 70.921 64.4905 70.3789C64.3506 70.0621 63.8851 70.3367 64.025 70.6509C64.3312 71.3417 64.6612 72.021 65.0053 72.6933C64.8698 73.062 65.1813 72.8069 62.7701 74.2017C62.7106 74.2387 62.6678 74.2976 62.651 74.3657C62.6342 74.4338 62.6446 74.5057 62.68 74.5663C62.7154 74.6268 62.7731 74.6711 62.8407 74.6898C62.9083 74.7085 62.9806 74.7001 63.042 74.6663L64.5803 73.7775C64.4043 74.1893 64.2283 74.5976 64.0391 75.0007C63.8904 75.3122 64.3541 75.5859 64.5037 75.2726C64.8064 74.639 65.0842 73.9937 65.3371 73.3366L65.3494 73.3296C65.6521 73.8972 65.9575 74.463 66.2866 75.0148C66.325 75.0715 66.3836 75.1115 66.4504 75.1267C66.5173 75.1419 66.5874 75.1311 66.6465 75.0965C66.7057 75.062 66.7496 75.0062 66.7692 74.9405C66.7888 74.8749 66.7827 74.8042 66.7521 74.7428C66.427 74.1893 66.1148 73.6283 65.8158 73.0603L67.5564 72.0544C67.6086 72.0144 67.6442 71.9566 67.6567 71.8921C67.6692 71.8275 67.6576 71.7606 67.6241 71.704C67.5907 71.6474 67.5377 71.605 67.4751 71.5848C67.4126 71.5645 67.3448 71.5679 67.2845 71.5942ZM42.1253 46.626C41.3923 46.3989 40.6645 46.1587 39.9385 45.9132C40.4164 45.6932 40.8872 45.4573 41.3421 45.1907C41.4001 45.153 41.4413 45.0944 41.4572 45.0271C41.4732 44.9599 41.4627 44.889 41.4278 44.8293C41.393 44.7696 41.3365 44.7256 41.2701 44.7063C41.2037 44.6871 41.1324 44.6942 41.0711 44.7261C40.4607 45.0763 39.8275 45.385 39.1756 45.6501C39.0348 45.6008 38.8931 45.5541 38.7532 45.504C38.9779 44.6067 39.1419 43.6953 39.2442 42.776C39.2803 42.4319 38.7408 42.4345 38.7056 42.776C38.6094 43.6328 38.4571 44.4823 38.2498 45.3192C37.246 44.956 36.2487 44.5747 35.2578 44.1752C34.9366 44.0441 34.7976 44.565 35.1152 44.6944C38.542 46.083 38.1618 45.7029 38.0606 46.0601C37.3984 46.281 36.7223 46.4573 36.0366 46.5881C35.696 46.6515 35.8404 47.1707 36.1792 47.1073C36.746 46.9978 37.3065 46.8577 37.8582 46.6876C37.6294 47.4155 37.3585 48.1295 37.0468 48.826C36.9043 49.1393 37.3689 49.4129 37.5124 49.0988C38.9283 45.9501 37.9339 46.7228 39.1923 46.2203C40.1163 46.5406 41.0403 46.8504 41.9784 47.139C42.3145 47.2481 42.4553 46.7281 42.1253 46.626ZM58.804 13.8732C58.5734 14.0299 58.334 14.1672 58.0938 14.3053L58.6447 13.5133C58.8427 13.2282 58.3807 12.9589 58.18 13.2414L57.4576 14.2807C57.2272 13.6689 57.0701 13.0321 56.9894 12.3834C56.948 12.0437 56.4086 12.0393 56.4508 12.3834C56.553 13.2158 56.7694 14.0302 57.0941 14.8034C56.3722 15.1344 55.6123 15.3756 54.8316 15.5215C54.492 15.5866 54.6354 16.1067 54.9751 16.0407C55.5057 15.933 56.0275 15.7859 56.5362 15.6007L55.335 17.336C55.137 17.6212 55.599 17.8904 55.8005 17.6071L57.3546 15.3719C57.6796 16.0198 58.0811 16.6263 58.5505 17.1785C58.7758 17.4425 59.1551 17.0597 58.9316 16.7975C58.4851 16.2721 58.1056 15.6933 57.8016 15.0744C58.242 14.8587 58.6677 14.6141 59.0759 14.3423C59.361 14.1443 59.0917 13.6779 58.804 13.8732ZM87.2139 32.1755C87.103 31.8481 86.5829 31.9889 86.6938 32.3189C86.8108 32.6648 87.8985 35.8882 87.954 36.0915C87.9913 36.2476 87.9662 36.4122 87.884 36.5501C87.8018 36.688 87.6691 36.7883 87.514 36.8298C85.9037 37.1398 84.2433 37.0708 82.6643 36.6283C82.4804 36.5816 82.256 36.7585 82.3325 36.9592C83.5751 40.2187 84.8168 43.4788 86.0576 46.7395C84.4296 46.4931 82.8112 46.1851 81.2096 45.7988C80.965 45.7398 80.7327 46.0628 80.9456 46.2485C82.9608 47.9803 84.9423 49.7503 86.89 51.5584L82.5103 52.5528C82.1732 52.6293 82.3158 53.1494 82.6537 53.072L87.5236 51.9667C87.5579 51.9569 87.59 51.9404 87.6179 51.9181C87.6458 51.8959 87.669 51.8684 87.6863 51.8372C87.7035 51.8059 87.7145 51.7716 87.7184 51.7361C87.7224 51.7007 87.7193 51.6648 87.7093 51.6305C87.6319 51.3665 82.3026 46.7201 82.094 46.5406C83.5205 46.8574 84.9549 47.1337 86.4016 47.3405C86.5776 47.3661 86.8152 47.2244 86.7334 47.0096L83.0198 37.2601C83.8409 37.4393 84.6771 37.5404 85.5172 37.562C86.3375 37.664 87.17 37.5468 87.9302 37.2223C88.1809 37.0918 88.3717 36.8699 88.4633 36.6026C88.5549 36.3352 88.5401 36.0429 88.4221 35.7861C88.2954 35.303 87.9663 34.4133 87.2139 32.1755ZM49.8825 34.76C49.901 34.4133 49.3624 34.4151 49.344 34.76C49.2626 36.3431 49.4367 37.9289 49.8596 39.4566C49.8787 39.5255 49.9243 39.5839 49.9864 39.6192C50.0485 39.6544 50.1221 39.6635 50.191 39.6445C50.2598 39.6255 50.3183 39.5799 50.3535 39.5177C50.3888 39.4556 50.3979 39.382 50.3788 39.3132C49.9703 37.8319 49.8027 36.2946 49.8825 34.76ZM52.6501 32.0171C52.6827 31.6712 52.1432 31.6739 52.1116 32.0171C52.0061 33.1712 52.063 34.3345 52.2805 35.4728C52.3448 35.8125 52.864 35.6682 52.8006 35.3294C52.5967 34.2377 52.5461 33.1228 52.6501 32.0171ZM56.8275 40.5337C55.8083 38.9482 55.3759 37.056 55.6052 35.1851C55.6474 34.8419 55.108 34.8445 55.0666 35.1851C54.8323 37.1519 55.2903 39.139 56.362 40.8048C56.5494 41.0961 57.0158 40.8259 56.8275 40.5337ZM56.5239 46.1816C56.5914 46.1962 56.6619 46.1845 56.721 46.1488C56.7801 46.113 56.8233 46.056 56.8417 45.9894C56.86 45.9228 56.8522 45.8517 56.8198 45.7907C56.7873 45.7297 56.7328 45.6835 56.6673 45.6615C56.0784 45.5139 55.532 45.2313 55.0712 44.836C54.6104 44.4407 54.2479 43.9436 54.0124 43.384C53.8821 43.0672 53.3612 43.2081 53.4932 43.5275C53.7533 44.1775 54.1635 44.7567 54.6902 45.218C55.2169 45.6793 55.8452 46.0094 56.5239 46.1816ZM58.4916 49.8714C57.0407 49.7457 55.6728 49.1415 54.6028 48.1537C54.3476 47.9187 53.9657 48.2997 54.2218 48.5356C55.3971 49.6179 56.8994 50.2777 58.4916 50.4109C58.8365 50.4399 58.8348 49.9013 58.4916 49.8714ZM65.396 47.6213C64.0876 48.1253 62.6518 48.1953 61.3005 47.821C61.2332 47.807 61.1631 47.8192 61.1045 47.8551C61.0459 47.8909 61.0031 47.9478 60.985 48.0141C60.9668 48.0804 60.9746 48.1511 61.0067 48.2118C61.0389 48.2726 61.0929 48.3188 61.158 48.3411C62.6027 48.7436 64.1384 48.6733 65.5404 48.1405C65.8598 48.0181 65.7208 47.4963 65.396 47.6213ZM72.4378 45.5577C71.1266 45.7219 69.8227 45.9331 68.5262 46.1913C68.1865 46.2581 68.33 46.7782 68.6696 46.7105C69.9181 46.4623 71.1741 46.257 72.4378 46.0945C72.7757 46.054 72.7819 45.5145 72.4378 45.5577ZM74.8965 49.0829C73.8869 48.4602 72.6805 48.2388 71.5156 48.4625C71.1741 48.5259 71.3184 49.0451 71.6581 48.9817C72.683 48.7935 73.7412 48.9957 74.6246 49.5485C74.9203 49.7315 75.1913 49.266 74.8965 49.0829ZM52.4838 56.724C52.2022 56.5224 51.932 56.988 52.2128 57.1895C53.0071 57.755 53.8935 58.1784 54.8325 58.4409C54.9008 58.4579 54.973 58.4476 55.0337 58.4121C55.0944 58.3766 55.1388 58.3187 55.1575 58.2509C55.1761 58.1831 55.1674 58.1106 55.1334 58.0491C55.0993 57.9876 55.0425 57.9418 54.9751 57.9216C54.0818 57.6691 53.2389 57.2639 52.4838 56.724ZM73.28 67.621C73.4943 67.3158 73.6358 66.9655 73.6935 66.5971C73.7512 66.2286 73.7235 65.8519 73.6126 65.4958C73.5123 65.1649 72.9966 65.3057 73.0943 65.6384C73.1843 65.9256 73.2059 66.2299 73.1573 66.5269C73.1088 66.824 72.9913 67.1055 72.8144 67.3491C72.6147 67.6333 73.082 67.9026 73.28 67.621ZM64.4016 27.8644C64.7475 27.8802 64.7466 27.3416 64.4016 27.3249C63.527 27.2847 62.6953 26.9344 62.0556 26.3367C61.8012 26.1008 61.4193 26.481 61.6736 26.7168C62.4176 27.4116 63.3848 27.8185 64.4016 27.8644ZM70.9515 12.4353L71.6273 9.48909C71.7048 9.15117 71.1873 9.00773 71.1081 9.34565L70.4314 12.2928C70.354 12.6298 70.8732 12.7741 70.9515 12.4353ZM40.4797 12.9484C40.8185 13.0073 40.9646 12.4881 40.6232 12.4292C39.374 12.2175 38.2364 11.5805 37.4032 10.626C37.1736 10.362 36.7943 10.7475 37.0222 11.008C37.9193 12.0306 39.1395 12.7153 40.4797 12.9484ZM109.538 63.6936V66.8616C109.542 66.9304 109.572 66.9952 109.622 67.0426C109.672 67.0899 109.738 67.1163 109.807 67.1163C109.876 67.1163 109.943 67.0899 109.993 67.0426C110.043 66.9952 110.073 66.9304 110.077 66.8616V63.6936C110.073 63.6247 110.043 63.5599 109.993 63.5126C109.943 63.4652 109.876 63.4388 109.807 63.4388C109.738 63.4388 109.672 63.4652 109.622 63.5126C109.572 63.5599 109.542 63.6247 109.538 63.6936ZM133.401 85.441C133.055 85.4137 133.057 85.9532 133.401 85.9796C141.416 86.6044 146.316 94.1829 150.071 100.334C150.251 100.629 150.717 100.359 150.535 100.061C146.409 93.3064 141.615 86.1221 133.401 85.441ZM153.227 96.1761C151.841 93.1097 149.817 90.3739 147.291 88.1508C144.765 85.9277 141.794 84.2683 138.576 83.2832C138.508 83.2686 138.438 83.2803 138.379 83.3161C138.32 83.3518 138.277 83.4088 138.258 83.4754C138.24 83.542 138.248 83.6131 138.28 83.6741C138.312 83.7351 138.367 83.7813 138.433 83.8033C141.583 84.7713 144.49 86.3999 146.961 88.5803C149.432 90.7607 151.41 93.4429 152.762 96.4481C152.902 96.764 153.369 96.4894 153.227 96.1761ZM39.0084 122.617C36.4391 119.266 34.0964 115.747 31.9956 112.084C31.9586 112.024 31.8997 111.982 31.8316 111.965C31.7635 111.948 31.6916 111.958 31.631 111.994C31.5705 112.029 31.5262 112.087 31.5075 112.154C31.4888 112.222 31.4972 112.294 31.531 112.356C33.6308 116.019 35.9733 119.538 38.5428 122.889C38.7505 123.16 39.2196 122.892 39.0084 122.617ZM37.9735 124.673C33.2593 123.093 28.675 121.148 24.2622 118.857C23.956 118.698 23.6823 119.163 23.9912 119.323C28.4448 121.636 33.0718 123.598 37.83 125.193C38.16 125.304 38.3017 124.784 37.9735 124.673ZM34.6893 127.376C31.4232 128.416 28.0403 129.046 24.6186 129.25C24.2736 129.27 24.271 129.81 24.6186 129.789C28.0886 129.583 31.5195 128.946 34.8328 127.895C35.1619 127.79 35.0237 127.27 34.6893 127.376ZM103.709 162.395C103.636 162.056 103.116 162.199 103.189 162.538C103.822 165.495 104.454 168.452 105.085 171.409C105.157 171.748 105.677 171.604 105.605 171.266L103.709 162.395ZM105.984 161.635C105.763 161.371 105.385 161.75 105.602 162.017L112.37 170.245C112.591 170.509 112.97 170.13 112.752 169.864L105.984 161.635ZM116.688 163.716C113.92 162.195 111.014 160.94 108.008 159.97C107.677 159.863 107.536 160.383 107.864 160.489C110.825 161.445 113.689 162.681 116.416 164.181C116.725 164.348 116.997 163.883 116.688 163.716Z" fill="black"/>
<path d="M83.5173 67.8938C83.179 67.8849 82.846 67.9787 82.5623 68.163C82.2785 68.3473 82.0573 68.6134 81.928 68.9261C81.8937 69.359 81.9996 69.7914 82.23 70.1596C82.4604 70.5277 82.8031 70.8119 83.2075 70.9703C83.4222 71.0062 83.6418 70.9994 83.8539 70.9504C84.0659 70.9013 84.2662 70.811 84.4434 70.6844C84.6205 70.5579 84.7709 70.3977 84.8861 70.213C85.0012 70.0284 85.0788 69.8228 85.1145 69.6081C85.1301 69.3888 85.1003 69.1687 85.0271 68.9614C84.9539 68.7541 84.8388 68.5642 84.6889 68.4033C84.5391 68.2425 84.3577 68.1143 84.1561 68.0266C83.9546 67.9389 83.7371 67.8937 83.5173 67.8938ZM29.2486 21.5856C31.701 22.0746 34.2231 22.1015 36.6854 21.6648C31.5568 30.0063 32.1385 28.9688 31.8982 29.5725C31.7284 30.1823 31.9422 30.7349 32.7985 30.3856C33.5025 30.0987 35.2308 29.3648 39.5886 27.5441C37.2733 34.2189 36.7805 35.2185 36.9019 36.9319C36.9028 36.9816 36.9165 37.0302 36.9418 37.073C36.967 37.1158 37.0029 37.1514 37.046 37.1762C37.089 37.201 37.1378 37.2142 37.1875 37.2146C37.2372 37.215 37.2862 37.2025 37.3296 37.1783C38.617 36.4292 39.7515 35.444 40.6736 34.2743C40.8971 33.9892 40.4976 33.5826 40.2697 33.8721C39.4839 34.8678 38.5379 35.7258 37.4704 36.4109C37.5091 35.0126 37.7608 34.5629 40.3445 27.1155C40.4105 26.9245 40.1931 26.6817 39.9925 26.7635L32.4245 29.9315C32.3699 29.7432 32.6119 29.3841 32.6823 29.2706C32.9111 28.8966 37.5117 21.4166 37.5117 21.4166C37.5485 21.3495 37.557 21.2706 37.5356 21.1971C37.5141 21.1237 37.4644 21.0618 37.3974 21.025C37.0031 20.8085 34.4933 21.9446 29.8241 21.113C31.0917 19.4416 32.1481 17.62 32.9692 15.6896C33.1109 15.3561 32.6172 15.0648 32.4773 15.4027C30.3424 20.468 28.343 21.3101 29.2486 21.5856ZM117.96 75.3694L113.282 77.191C112.907 77.338 113.07 77.9505 113.45 77.807L118.128 75.9845C118.503 75.8341 118.34 75.2207 117.96 75.3694ZM118.377 55.8941L119.231 61.5957C119.291 61.9969 119.901 61.8262 119.842 61.4267C119.557 59.5271 119.272 57.6269 118.988 55.7261C118.928 55.3239 118.317 55.4955 118.377 55.8941ZM37.9482 70.3772L38.522 75.0306C38.5704 75.4301 39.2049 75.4345 39.1556 75.0306L38.5818 70.3772C38.5325 69.9777 37.899 69.9724 37.9482 70.3772ZM44.0132 85.4938C47.1372 82.7966 48.2372 82.8741 47.8852 82.3258C47.8422 82.2579 47.7751 82.2088 47.6974 82.1884C47.6197 82.168 47.5371 82.1778 47.4663 82.2158C46.0882 83.0474 44.7832 83.9944 43.5653 85.0468C43.2564 85.3125 43.7061 85.7587 44.0132 85.4938ZM56.0701 67.2145C56.1559 68.039 56.441 68.8303 56.9008 69.5201C57.1278 69.8562 57.6769 69.5394 57.4481 69.2006C57.0429 68.6099 56.7874 67.9294 56.7037 67.218C56.6588 66.8141 56.0261 66.8088 56.0701 67.2145ZM22.4277 62.3111L19.9126 63.4102C19.5395 63.573 19.8625 64.1195 20.2321 63.9576L22.7471 62.8585C23.1202 62.6948 22.7982 62.1501 22.4277 62.3111ZM20.68 37.0982C18.9066 37.2225 17.1266 36.9774 15.4528 36.3784C15.0691 36.2402 14.9028 36.8527 15.2847 36.9891C17.0125 37.6067 18.8496 37.8595 20.68 37.7318C21.0839 37.7037 21.0865 37.0692 20.68 37.0982ZM79.3927 28.1469C78.5489 27.4165 77.9834 26.4171 77.792 25.3177C77.719 24.9164 77.1091 25.0862 77.176 25.4857C77.3929 26.6934 78.0165 27.7904 78.943 28.5948C79.251 28.8641 79.7016 28.4144 79.3927 28.1469ZM90.5573 14.308C91.8843 13.4473 93.2119 12.5873 94.5402 11.7278C94.8816 11.5069 94.5648 10.9587 94.2207 11.1813L90.237 13.7606C89.8964 13.9815 90.2141 14.5306 90.5573 14.308ZM129.995 63.9171L134.412 64.6581C134.811 64.7241 134.982 64.1142 134.58 64.0473L130.163 63.3064C129.765 63.2395 129.593 63.8493 129.995 63.9171ZM137.394 41.148C137.117 39.4586 137.108 37.7361 137.368 36.044C137.43 35.6453 136.819 35.4729 136.756 35.8759C136.479 37.6788 136.488 39.5143 136.784 41.3143C136.85 41.7182 137.46 41.5484 137.394 41.148ZM127.168 92.0674C125.955 92.6676 124.742 93.2672 123.527 93.8661C123.162 94.0474 123.482 94.5939 123.848 94.4135L127.488 92.6148C127.853 92.4344 127.532 91.887 127.168 92.0674ZM136.912 102.812L135.727 107.269C135.707 107.35 135.719 107.435 135.761 107.506C135.802 107.578 135.87 107.63 135.95 107.652C136.03 107.674 136.115 107.664 136.187 107.624C136.26 107.584 136.314 107.517 136.338 107.437L137.524 102.981C137.541 102.902 137.528 102.818 137.486 102.749C137.444 102.679 137.377 102.628 137.298 102.606C137.22 102.585 137.136 102.594 137.064 102.632C136.992 102.671 136.938 102.735 136.912 102.812ZM93.8828 119.882C94.2788 119.976 94.4486 119.365 94.0509 119.272C92.9641 119.018 91.9165 118.618 90.9365 118.084C90.5784 117.889 90.2581 118.436 90.6171 118.631C91.6446 119.193 92.743 119.614 93.8828 119.882ZM106.05 104.866C105.874 104.497 105.327 104.819 105.503 105.186L107.215 108.765C107.391 109.132 107.937 108.812 107.762 108.445L106.05 104.866ZM158.497 111.766L160.34 115.09C160.381 115.163 160.449 115.218 160.53 115.241C160.611 115.264 160.698 115.254 160.771 115.214C160.845 115.173 160.899 115.105 160.922 115.024C160.945 114.943 160.936 114.856 160.895 114.783L159.047 111.459C159.002 111.395 158.934 111.351 158.858 111.333C158.782 111.316 158.702 111.328 158.634 111.366C158.566 111.404 158.514 111.466 158.489 111.54C158.463 111.614 158.466 111.694 158.497 111.766ZM152.961 61.7127L150.409 62.95C150.042 63.126 150.362 63.6742 150.727 63.4973L153.279 62.2601C153.648 62.0823 153.326 61.5358 152.961 61.7127Z" fill="#B26EE6"/>
</svg>
