<svg width="176" height="176" viewBox="0 0 176 176" fill="none" xmlns="http://www.w3.org/2000/svg">
<path d="M138.291 111.879C138.738 111.973 139.733 111.715 139.87 111.407C140.016 111.079 139.782 112.597 140.342 112.491C140.819 112.338 141.26 112.089 141.638 111.761C141.198 113.709 142.989 112.893 143.099 111.973C143.17 111.383 142.981 113.34 143.593 113.198C144 113.1 144.371 112.888 144.663 112.588C144.955 112.288 145.156 111.911 145.243 111.501C145.503 110.445 146.563 105.138 146.563 105.138L139.682 102.781C137.455 103.345 137.017 104.919 136.426 107.613L138.435 108.141L138.24 109.947C138.24 109.947 137.843 111.784 138.291 111.879Z" fill="white"/>
<path d="M133.87 109.783C116.939 109.384 121.135 109.776 98.6258 106.74C98.6258 106.74 96.6898 117.134 96.6458 121.471C96.3519 148.472 96.8904 150.159 97.7299 164.624C95.625 165.687 88.9115 169.096 87.3125 170.516C87.3125 170.516 96.8341 171.376 100.181 171.294C103.527 171.211 108.548 171.67 108.712 171.128C108.875 169.279 108.788 167.416 108.454 165.59C108.073 163.87 108.854 158.944 108.902 153.974C108.965 147.223 109.277 124.535 115.807 123.077C115.807 123.077 118.21 122.346 118.376 122.393C119.418 122.69 125.55 165.176 125.563 165.264C125.563 165.264 124.809 170.192 125.399 171.132C130.151 171.396 145.304 170.892 146.139 170.731C143.894 168.687 138.702 166.172 135.816 164.747C135.607 129.8 135.104 116.745 133.87 109.783Z" fill="white"/>
<path d="M101.148 46.8775C100.984 53.3763 104.258 58.1178 110.623 56.7995C110.623 56.7995 109.892 58.5199 110.528 59.1095C111.096 59.6079 111.78 59.9555 112.517 60.1202C113.254 60.2849 114.021 60.2615 114.747 60.052C120.731 58.7144 115.566 56.5417 117.035 53.3121C117.978 51.2379 119.392 49.2342 118.473 46.7359C118.473 46.7359 121.608 46.8071 122.386 45.4871C123.163 44.1671 123.299 42.6905 122.644 42.2311C121.547 41.7458 120.302 41.7119 119.18 42.137C118.001 42.5611 114.885 42.3288 113.877 40.7932C112.699 39.1078 111.726 37.2884 110.978 35.3733C110.978 35.3733 104.685 37.1641 102.002 37.3762C101.997 37.3797 101.353 38.8475 101.148 46.8775Z" fill="white"/>
<path d="M125.16 42.8323C124.514 38.471 125.424 35.4306 123.632 32.4544C121.481 28.8869 115.844 26.3015 112.132 29.7669C111.608 29.019 110.903 28.4167 110.082 28.0164C109.262 27.6161 108.353 27.4312 107.441 27.4789C99.3451 27.5141 95.8374 34.1748 100.442 36.8351C99.9682 37.0111 98.2346 48.9307 98.2258 49.0196C98.18 49.5115 97.7242 56.2796 97.8738 56.7266C98.2425 57.8389 106.369 58.6098 109.233 58.3528C109.28 58.3766 110.717 57.4816 110.082 57.2687C108.478 56.7301 107.277 57.3162 105.77 56.5647C104.399 55.586 103.21 54.3736 102.259 52.9831C102.303 52.8951 101.14 53.0403 101.669 41.6698C101.743 40.0858 102.224 38.6056 101.505 37.2865C105.654 36.5948 104.025 37.6561 111.026 35.3769C111.153 38.0495 113.761 41.4049 116.753 42.1415C118.937 42.6783 119.864 41.8352 121.367 41.8616C124.322 41.9127 124.359 47.08 119.134 46.6427C118.99 46.6448 118.851 46.6983 118.743 46.7935C118.635 46.8886 118.564 47.0193 118.544 47.1619C119.078 49.9304 117.897 50.908 117.295 53.2418C117.009 54.3488 116.558 55.2341 117.17 56.1775C120.029 60.5863 125.292 62.0339 127.595 61.5851C128.961 61.3211 129.366 59.7784 129.347 58.1302C129.267 51.6182 126.115 49.273 125.16 42.8323Z" fill="#FFB949"/>
<path d="M146.588 170.398C144.677 169.085 142.694 167.881 140.649 166.79C140.981 166.403 141.333 166.032 141.705 165.682C141.986 165.418 141.56 165.018 141.281 165.258C140.855 165.633 140.46 166.043 140.102 166.483C139.631 166.224 139.134 165.988 138.641 165.729C139.042 165.303 139.469 164.902 139.92 164.529C139.974 164.472 140.003 164.397 140.001 164.319C140 164.241 139.968 164.167 139.913 164.112C139.858 164.057 139.784 164.025 139.706 164.024C139.628 164.022 139.553 164.051 139.496 164.105C137.427 165.704 138.979 165.77 136.008 164.483C135.837 145.953 136.184 128.051 134.072 109.71C134.028 109.333 133.44 109.333 133.483 109.71C135.445 126.998 135.439 146.186 135.439 164.506C132.234 164.813 129.005 164.718 125.8 165.048C123.65 153.248 123.08 143.332 120.897 132.077C118.813 121.328 117.807 122.597 119.884 122.719C120.261 122.742 120.261 122.155 119.884 122.131C113.266 121.7 111.39 126.179 110.315 132.619C107.868 147.294 109.199 145.467 108.1 165.26C104.756 165.025 101.289 165.331 98.0127 164.529C97.9247 164.529 94.7911 128.487 98.7167 107.212C98.7863 106.835 98.2204 106.693 98.1509 107.047C95.3252 121.452 95.9747 135.68 96.6663 152.086C96.9189 158.088 97.3404 163.559 97.4434 164.647C96.8071 164.93 96.1471 165.213 95.5074 165.519C95.0439 165.015 94.5394 164.55 93.9991 164.129C93.9334 164.09 93.8552 164.078 93.7811 164.097C93.7071 164.115 93.6432 164.162 93.6031 164.226C93.563 164.291 93.5499 164.369 93.5667 164.444C93.5835 164.518 93.6288 164.583 93.6928 164.624C94.1381 164.976 94.5631 165.354 94.9653 165.755C92.7855 166.746 93.9867 166.826 92.232 165.283C91.9434 165.031 91.5219 165.451 91.8079 165.708C92.1986 166.055 92.5682 166.425 92.9149 166.815C90.8211 167.929 88.7767 169.133 86.7875 170.423C86.7341 170.456 86.6927 170.506 86.6694 170.564C86.6461 170.622 86.6421 170.686 86.658 170.747C86.6738 170.807 86.7087 170.861 86.7575 170.901C86.8063 170.94 86.8665 170.963 86.9291 170.966C94.8491 171.592 100.266 171.602 106.679 171.602C109.168 171.602 109.319 171.904 109.154 168.443C109.093 167.442 108.943 166.449 108.706 165.474C109.599 152.078 108.421 148.259 110.686 134.105C111.506 128.979 112.534 123.055 118.109 122.675C118.098 122.701 118.092 122.729 118.092 122.757C118.092 122.785 118.098 122.813 118.109 122.839C123.25 139.424 124.065 164.1 125.345 165.38C124.897 167.11 124.745 168.903 124.897 170.683C124.985 171.677 125.575 171.554 126.476 171.554C134.546 171.554 137.521 171.621 146.438 170.938C146.485 170.936 146.53 170.923 146.57 170.9C146.611 170.877 146.645 170.845 146.671 170.806C146.696 170.767 146.712 170.723 146.718 170.677C146.723 170.631 146.717 170.584 146.701 170.54C146.679 170.482 146.64 170.432 146.588 170.398ZM108.478 170.75C108.384 171.486 90.5829 170.593 87.7854 170.398C89.5614 169.26 91.3856 168.198 93.2528 167.217C93.6154 167.68 93.9463 168.169 94.2428 168.677C94.4285 169.009 94.9468 168.701 94.7611 168.371C94.4744 167.869 94.1509 167.388 93.7931 166.933C94.3115 166.675 94.8069 166.415 95.3252 166.179C95.8074 166.753 96.2264 167.377 96.5748 168.041C96.7438 168.369 97.263 168.086 97.0931 167.735C96.7606 167.088 96.3575 166.479 95.8911 165.92C96.5273 165.613 97.1873 165.331 97.8271 165.048C101.197 165.873 104.732 165.567 108.149 165.803C108.53 167.423 108.64 169.095 108.478 170.752V170.75ZM126.319 170.986C125.615 170.986 125.447 171.103 125.447 170.562C125.324 168.918 125.451 167.265 125.824 165.659C129.1 165.329 132.424 165.447 135.7 165.093C136.375 165.348 137.035 165.639 137.679 165.965C137.227 166.53 136.833 167.138 136.5 167.78C136.333 168.109 136.83 168.416 137.019 168.087C137.352 167.425 137.755 166.801 138.221 166.225C138.716 166.461 139.211 166.719 139.705 166.979C139.357 167.435 139.042 167.915 138.763 168.416C138.575 168.746 139.096 169.055 139.281 168.723C139.571 168.215 139.895 167.727 140.249 167.262C142.065 168.23 143.832 169.286 145.552 170.42C136.136 171.124 126.231 170.984 126.319 170.984V170.986Z" fill="#501200"/>
<path d="M151.064 84.2565C150.976 64.2805 136.968 64.4565 117.952 57.4596L117.362 59.1096C116.844 59.5804 114.986 59.8585 114.275 59.8875C112.766 59.9474 111.187 59.8171 110.268 58.5438C109.107 57.8248 83.1643 54.3435 64.8999 51.4034C64.1625 57.4816 63.675 59.4669 64.4282 59.18C75.1783 64.115 86.9756 69.8007 98.1419 73.8214C98.8248 106.909 97.3825 107.295 98.4605 107.684C105.955 109.182 113.564 110.033 121.204 110.229C127.771 110.304 129.736 110.332 131.764 110.158C135.073 109.874 135.29 110.172 131.912 76.1904C137.464 78.679 142.236 78.8603 140.767 91.447C140.384 94.7346 139.493 100.855 138.952 103.019C141.609 103.432 144.143 104.421 146.376 105.918C149.482 99.1195 151.081 91.7303 151.064 84.2565Z" fill="#CEA6F9"/>
<path d="M57.0995 46.9251C56.8206 47.8474 58.3403 48.4722 59.1235 49.2571C59.9419 50.0755 57.9012 48.2011 54.1955 47.3493C53.1712 47.1117 51.8327 46.7201 51.3672 47.6555C50.6852 49.0239 54.0952 49.368 52.3572 49.1401C51.6048 49.0424 50.2549 48.7881 49.6935 49.3759C49.2165 49.874 49.3687 50.7223 50.5189 51.2618C51.6691 51.8012 51.3611 51.3911 50.3297 51.4967C49.2535 51.6076 48.9516 52.9118 50.5418 53.5709C51.0486 53.7838 51.5687 53.9642 52.0976 54.113C51.2572 54.113 50.1229 54.1015 50.2127 55.1267C50.3112 56.2602 51.8846 56.4423 53.0876 56.7055C56.6261 57.5396 60.2526 57.942 63.8878 57.904C63.966 57.904 64.041 57.8729 64.0963 57.8177C64.1516 57.7624 64.1826 57.6874 64.1826 57.6092C64.1826 57.531 64.1516 57.456 64.0963 57.4008C64.041 57.3455 63.966 57.3144 63.8878 57.3144C60.2235 57.3253 56.57 56.9142 52.9996 56.0894C52.1592 55.9046 51.046 55.7374 50.8313 55.2411C50.5479 54.5838 51.5414 54.7457 52.1038 54.7457H55.2638C55.342 54.7457 55.417 54.7146 55.4723 54.6593C55.5276 54.6041 55.5586 54.5291 55.5586 54.4509C55.5586 54.3727 55.5276 54.2977 55.4723 54.2424C55.417 54.1871 55.342 54.1561 55.2638 54.1561C50.4502 53.6422 45.8549 50.6097 56.018 53.1001C56.0912 53.1165 56.1678 53.1044 56.2324 53.0663C56.297 53.0282 56.3446 52.9669 56.3656 52.8949C56.3865 52.8229 56.3793 52.7456 56.3453 52.6788C56.3113 52.6119 56.2531 52.5606 56.1826 52.5351C54.2388 52.0241 52.3333 51.3772 50.4802 50.5991C49.3608 49.9347 49.5042 48.5654 57.3618 51.047C57.7384 51.1658 57.8581 50.6176 57.5263 50.4812C57.4383 50.4451 52.403 48.422 52.271 48.3595C51.4526 47.9741 51.7025 47.2683 54.4622 48.0533C56.3577 48.5725 58.1503 49.4085 59.7651 50.5278C59.9059 51.2978 59.9305 52.0846 59.8363 52.8616C59.8126 53.2382 60.396 53.2382 60.4259 52.8616C60.7656 48.4238 58.629 48.6323 57.7155 47.3704C57.5457 47.1372 57.7155 46.9005 57.9795 46.8283C58.7363 46.6171 62.2546 48.708 64.3419 51.7062C64.5549 52.0124 65.0785 51.7264 64.8611 51.3999C63.2947 49.0741 57.8722 44.367 57.0995 46.9251Z" fill="#501200"/>
<path d="M121.322 44.3089C121.397 44.327 121.476 44.3148 121.542 44.2749C121.608 44.235 121.656 44.1707 121.675 44.0959C121.684 44.0588 121.686 44.0202 121.681 43.9823C121.675 43.9444 121.662 43.908 121.643 43.8752C121.623 43.8424 121.597 43.8138 121.566 43.7911C121.535 43.7684 121.5 43.7521 121.463 43.743C120.506 43.4702 119.121 44.0246 119.439 44.4972C119.639 45.004 120.25 43.9516 121.322 44.3089Z" fill="#501200"/>
<path d="M106.686 47.2076C106.85 47.5376 107.371 47.2543 107.204 46.9014C106.901 46.2634 106.243 46.0003 105.743 45.5348C104.775 44.6372 105.719 44.1532 106.026 43.8144C106.966 42.7742 106.721 41.2949 106.474 40.0427C106.399 39.6669 105.834 39.8315 105.908 40.2081C106.218 41.1905 106.168 42.2515 105.766 43.2001C105.448 43.678 104.067 44.4585 105.13 45.746C105.578 46.288 106.356 46.552 106.686 47.2068V47.2076Z" fill="#501200"/>
<path d="M109.775 41.6538C109.64 42.2012 109.784 43.0926 110.391 43.1498C110.831 43.1938 111.063 42.5866 110.972 42.0648C110.866 41.477 109.986 40.8046 109.775 41.6538Z" fill="#501200"/>
<path d="M102.748 41.9831C102.666 42.5304 102.836 43.2863 103.388 43.3427C103.822 43.3867 104.084 42.7513 103.961 42.2163C103.856 41.7604 102.919 40.832 102.748 41.9831Z" fill="#501200"/>
<path d="M125.752 44.1672C124.777 39.2154 127.54 32.9032 120.048 28.6598C116.958 26.9086 113.96 27.5264 112.392 29.2758C107.862 23.525 92.3941 31.4811 99.8539 36.7233C98.6307 44.0642 97.2852 50.9898 97.2852 56.0965C97.2847 56.155 97.3017 56.2123 97.334 56.2611C97.3663 56.3099 97.4125 56.348 97.4666 56.3704C97.5206 56.3928 97.5802 56.3985 97.6375 56.3869C97.6949 56.3752 97.7475 56.3468 97.7885 56.305C97.8159 56.2777 97.8377 56.2452 97.8525 56.2094C97.8673 56.1736 97.8748 56.1352 97.8748 56.0965C97.8616 50.4029 99.0047 45.8665 100.396 37.0533C101.53 37.6913 101.617 37.4 101.504 37.737C100.984 45.5338 100.735 47.6001 101.126 50.1574C101.821 54.6867 104.91 58.1944 110.102 57.2273C109.94 57.6338 110.032 57.5221 109.867 57.6048C108.648 58.458 107.68 59.6217 107.062 60.9752C106.637 61.9256 107.616 62.084 108.688 62.7898C112.075 65.0188 112.736 66.697 112.931 65.736C113.143 64.2277 113.379 62.744 113.591 61.2339C114.44 62.8686 115.459 64.4092 116.631 65.8302C116.664 65.8618 116.705 65.8853 116.749 65.8991C116.792 65.9128 116.839 65.9164 116.884 65.9095C116.93 65.9027 116.973 65.8855 117.011 65.8594C117.049 65.8333 117.08 65.7989 117.103 65.7589C120.597 59.4229 120.411 59.4686 120.308 59.0885C119.71 58.0057 118.809 57.1214 117.715 56.5444C117.302 55.8976 117.088 55.1436 117.099 54.3761C117.317 52.2896 119.922 50.5111 118.914 46.8811C123.691 47.043 124.217 43.4192 122.897 42.1678C121.602 40.9358 119.785 42.02 118.3 42.1203C115.616 42.3016 112.397 40.4096 111.395 35.1208C111.256 34.3878 109.477 35.7773 105.46 36.5534C101.898 37.2398 101.487 37.0568 100.314 36.3097C98.3156 35.0354 97.682 32.7686 99.9885 30.7129C103.313 27.7508 109.933 26.4889 112.126 29.8654C112.617 30.6214 112.816 28.5718 115.708 28.2154C119.013 27.8071 123.632 30.9663 124.617 35.1208C125.276 37.9016 124.681 40.8012 125.089 43.6286C125.901 49.2712 131.337 55.3634 128.294 60.8573C128.11 61.189 128.628 61.4962 128.812 61.1635C131.961 55.4831 126.797 49.4657 125.752 44.1672ZM112.436 65.0232C111.081 63.6476 109.523 62.4873 107.817 61.5824C107.482 61.4064 107.497 61.38 107.604 61.1107C108.13 59.9864 108.923 59.0076 109.914 58.2595C110.025 58.7495 110.269 59.1996 110.618 59.5611C110.967 59.9225 111.408 60.1815 111.894 60.3099C112.287 60.4094 112.69 60.4648 113.096 60.4745C112.886 61.9846 112.65 63.4929 112.438 65.0241L112.436 65.0232ZM117.833 58.7752C118.026 58.3369 118.059 57.845 117.927 57.3848C118.379 57.684 118.79 58.0395 119.153 58.4408C119.847 59.2214 119.878 59.2504 119.412 59.9966C119.244 60.375 117.799 63.1646 116.772 65.0637C115.634 63.6252 114.654 62.0686 113.849 60.4208C115.201 60.28 117.216 60.1647 117.832 58.784L117.833 58.7752ZM102.09 37.7054C102.09 37.1422 104.094 38.0723 110.88 35.5846C112.055 40.9112 115.591 43.0232 118.587 42.6545C119.855 42.4987 121.937 41.5017 122.688 42.8903C122.813 43.1551 122.879 43.4435 122.883 43.7361C122.887 44.0287 122.829 44.3188 122.712 44.587C122.071 46.2352 119.954 46.3786 118.446 46.2845C117.543 46.2845 119.434 48.0788 117.742 51.3005C117.098 52.5228 116.223 53.7997 116.516 55.2605C116.83 56.8225 119.537 59.6605 113.452 59.8558C110.967 59.9368 110.058 58.3598 110.624 57.3813C110.655 57.335 110.67 57.2796 110.665 57.224C110.661 57.1685 110.638 57.116 110.6 57.075C111.425 56.8722 112.229 56.5959 113.005 56.2496C113.357 56.1 113.049 55.5834 112.697 55.7304C109.335 57.1454 105.841 57.2994 103.53 54.4588C100.496 50.7417 101.542 45.2443 102.092 37.7098L102.09 37.7054Z" fill="#501200"/>
<path d="M109.825 48.4335C107.172 49.7596 105.62 49.302 106.03 49.918C106.03 50.0835 106.845 52.2016 106.973 52.5105C107.754 54.4034 109.313 54.5512 110.084 53.4301C110.985 52.1154 110.86 48.048 109.825 48.4335Z" fill="#501200"/>
<path d="M110.811 39.006C111.005 39.248 111.508 38.991 111.236 38.5818C110.496 37.6482 108.953 37.5391 109.02 38.0398C109.023 38.1136 109.049 38.1848 109.094 38.2434C109.139 38.302 109.201 38.3452 109.271 38.3671C109.318 38.3819 109.367 38.387 109.416 38.3821C109.682 38.3584 109.95 38.4032 110.195 38.5125C110.439 38.6217 110.651 38.7916 110.811 39.006Z" fill="#501200"/>
<path d="M102.42 39.9959C102.49 40.0297 102.57 40.0372 102.645 40.0172C102.721 39.9972 102.786 39.951 102.831 39.8868C103.088 39.5328 103.474 39.2929 103.905 39.218C104.655 39.218 104.472 38.6284 104.141 38.6284C103.032 38.6319 101.855 39.7135 102.42 39.9959Z" fill="#501200"/>
<path d="M98.3915 70.0691C98.0536 70.0691 97.9902 70.4581 97.9902 72.9916C97.9898 73.0501 98.0068 73.1074 98.0391 73.1562C98.0714 73.205 98.1176 73.2431 98.1717 73.2655C98.2257 73.2879 98.2852 73.2936 98.3426 73.282C98.4 73.2703 98.4525 73.2418 98.4936 73.2001C98.521 73.1728 98.5427 73.1402 98.5575 73.1045C98.5723 73.0687 98.5799 73.0303 98.5798 72.9916C98.5798 70.429 98.8984 70.0691 98.3915 70.0691Z" fill="#501200"/>
<path d="M132.211 76.3383C131.683 74.1875 132.299 73.4158 131.715 73.4158C131.072 73.4158 131.509 75.8798 131.669 76.5028C131.736 76.8566 132.304 76.7149 132.211 76.3383Z" fill="#501200"/>
<path d="M148.803 115.744C149.32 111.235 147.124 108.918 146.163 108.561C146.338 107.7 146.489 106.833 146.616 105.963C146.616 105.633 146.026 105.656 145.98 106.01C145.795 107.393 145.071 112.333 143.716 112.915C143.475 113.019 143.434 112.952 143.434 112.067C143.433 111.595 143.465 111.122 143.528 110.653C143.547 110.579 143.536 110.5 143.498 110.434C143.46 110.368 143.398 110.318 143.325 110.297C143.251 110.275 143.172 110.283 143.104 110.319C143.037 110.355 142.986 110.415 142.962 110.488C142.351 112.04 142.195 112.829 141.906 112.656C141.642 112.499 142.361 110.352 142.402 110.111C142.42 110.037 142.409 109.958 142.372 109.892C142.334 109.825 142.272 109.776 142.198 109.754C142.125 109.733 142.046 109.741 141.978 109.777C141.91 109.813 141.859 109.873 141.836 109.946C141.737 110.22 141.336 111.95 140.422 112.161C139.888 112.284 140.246 111.302 140.374 110.771C141.46 108.816 140.28 108.819 140.28 109.239C140.379 109.239 140.129 109.383 139.832 110.511C139.578 111.021 138.968 111.822 138.418 111.573C137.685 111.29 139.274 107.671 138.536 107.566C138.487 107.555 136.702 107.23 136.674 107.188C136.616 107.1 137.092 103.645 139.196 103.276C139.574 103.21 139.409 102.643 139.031 102.71C137.266 103.026 136.546 104.867 136.179 106.623C136.146 106.77 136.122 106.919 136.108 107.07C135.587 107.163 135.089 107.359 134.644 107.646C134.2 107.933 133.816 108.305 133.516 108.742C132.841 109.756 132.399 110.906 132.22 112.111C129.691 111.526 127.108 111.21 124.513 111.169C122.474 111.566 122.261 113.341 119.497 122.246C115.43 135.331 118.472 134.952 124.941 136.811C148.798 143.663 150.208 143.754 151.809 142.184C152.677 141.332 153.058 138.917 154.943 130.636C157.979 117.252 157.585 118.096 148.803 115.744ZM135.228 112.703C135.313 112.097 135.604 111.538 136.053 111.121C136.502 110.704 137.081 110.455 137.692 110.415C137.542 111.404 137.593 111.939 138.241 112.158C138.473 112.22 138.716 112.221 138.948 112.159C139.18 112.097 139.391 111.975 139.561 111.806C139.5 112.962 140.574 112.985 141.281 112.277C141.143 113.448 142.348 113.613 142.837 112.513C142.837 112.49 142.86 112.466 142.86 112.419C142.86 114.154 144.415 113.588 145.019 112.398H145.028C145.373 112.329 145.547 114.565 145.547 114.943C140.417 113.735 138.631 113.415 135.228 112.703Z" fill="#501200"/>
<path d="M155.52 126.632C155.344 126.544 121.524 117.935 121.182 118.054C120.839 118.173 120.97 118.69 121.276 118.642C121.364 118.672 124.19 119.299 127.427 120.151C127.354 120.261 126.677 122.506 127.121 123.309C127.579 124.139 128.92 124.02 129.454 122.625C129.578 122.303 129.929 120.851 129.949 120.763C145.589 124.667 145.551 124.605 145.551 124.817C144.135 129.065 146.929 128.899 147.625 127.08C147.817 126.5 147.974 125.91 148.097 125.312C148.127 125.321 155.291 127.16 155.261 127.15C155.568 127.316 155.848 126.802 155.52 126.632Z" fill="white"/>
<path d="M110.953 4.66398C110.882 4.28646 110.316 4.4519 110.387 4.82854C111.412 10.237 112.155 15.1501 112.79 20.1247C112.836 20.4767 113.427 20.4767 113.38 20.1009C113.468 20.1045 112.402 12.3992 110.953 4.66398Z" fill="#FF7449"/>
<path d="M127.143 4.76166C127.281 4.40966 126.703 4.2451 126.578 4.59622C124.659 10.0525 123.03 15.6066 121.699 21.2353C121.611 21.6145 122.17 21.7773 122.265 21.4007C123.411 15.7248 125.043 10.1579 127.143 4.76166Z" fill="#FF7449"/>
<path d="M142.016 11.88C142.3 11.6222 141.87 11.2156 141.591 11.4559C137.268 15.1747 132.74 19.4718 128.817 23.1924C128.582 23.4564 128.983 23.8762 129.265 23.6166C129.395 23.6157 129.936 22.8519 142.016 11.88Z" fill="#FF7449"/>
<path d="M162.874 123.804C162.802 124.181 163.367 124.322 163.44 123.969C163.881 121.697 163.791 119.353 163.178 117.121C162.565 114.889 161.445 112.829 159.905 111.101C159.641 110.799 159.221 111.219 159.48 111.501C159.786 111.501 164.215 116.795 162.874 123.804Z" fill="#501200"/>
<path d="M168.648 125.454C168.525 125.806 169.088 125.97 169.213 125.619C170.026 123.321 170.318 120.871 170.07 118.446C169.821 116.021 169.038 113.681 167.776 111.595C167.565 111.243 167.045 111.549 167.257 111.879C167.52 111.879 171.125 118.365 168.648 125.454Z" fill="#501200"/>
<path d="M96.4577 145.369C90.3091 122.267 83.5058 99.1619 79.4174 86.24C81.1078 82.9268 81.8286 81.1633 85.1919 80.1829C92.2407 78.1281 87.142 71.3125 89.4573 66.513C90.6787 63.9822 93.0178 61.9045 93.0873 59.1131C93.1586 56.2091 90.6611 54.0971 89.269 51.6894C87.685 48.9438 88.2341 46.2114 87.831 43.2282C87.2617 39.0095 84.839 38.28 82.3874 37.0533C79.0196 35.3689 78.2443 32.7597 76.2362 29.9833C71.6672 23.6658 68.361 27.3645 64.6404 26.6833C61.2304 26.0594 58.784 22.0193 55.0009 22.418C51.3049 22.8034 48.9403 26.7564 45.291 26.994C43.1226 27.133 40.8822 26.2785 38.7394 26.9473C35.0821 28.0913 35.1446 32.6867 32.5644 34.9369C29.8082 37.3401 25.1196 36.3528 23.019 41.1118C22.2659 42.7633 22.1484 44.6345 22.689 46.3672C22.6448 46.4189 22.6186 46.4836 22.6143 46.5515C22.61 46.6195 22.6279 46.6869 22.6653 46.7438C24.7201 50.5586 18.9807 54.2951 19.9786 58.7171C20.651 61.6933 23.3702 63.5149 23.9615 66.6829C24.5388 69.7682 23.3376 73.3955 23.8445 76.7465C24.823 83.2207 29.4598 81.7405 31.8525 83.6281C32.4765 84.1455 33.0241 84.7487 33.4787 85.4198C23.1766 103.817 14.1856 119.761 5.85727 137.034C5.73407 137.29 5.95231 137.695 6.25767 137.576C11.5725 135.485 16.7181 132.987 21.6489 130.104C22.917 135.603 24.4738 141.032 26.3129 146.367C26.3354 146.432 26.3755 146.49 26.4286 146.533C26.4818 146.577 26.546 146.606 26.6142 146.615C26.6823 146.625 26.7519 146.616 26.8152 146.589C26.8785 146.561 26.933 146.517 26.9729 146.461C37.2372 130.21 44.9442 111.455 52.6372 94.7056C55.0572 95.8698 57.2422 95.6129 59.6842 94.4416C63.8352 113.121 67.2285 131.1 73.8012 150.058C73.8167 150.108 73.8426 150.154 73.8772 150.193C73.9118 150.232 73.9544 150.263 74.002 150.285C74.0497 150.307 74.1014 150.318 74.1537 150.318C74.206 150.318 74.2577 150.307 74.3054 150.286C74.3691 150.257 74.4231 150.21 74.4612 150.152C77.3783 145.319 80.0464 140.34 82.4551 135.235C86.6723 139.072 91.1731 142.586 95.9191 145.746C95.978 145.786 96.0478 145.807 96.119 145.806C96.1902 145.805 96.2596 145.783 96.3178 145.742C96.3761 145.702 96.4206 145.644 96.4454 145.577C96.4709 145.511 96.4752 145.438 96.4577 145.369Z" fill="#F15929"/>
<path d="M81.3743 52.5105C76.9523 34.2189 54.478 26.151 39.9651 39.8781C22.835 56.0816 29.2291 83.3642 54.6963 85.7649C76.0495 87.7783 85.4188 69.2437 81.3735 52.5105H81.3743ZM73.3144 79.9199C65.5027 86.7364 52.1337 86.6008 43.2184 81.7116C22.6467 70.4308 30.7321 40.6613 49.9117 34.7196C54.9639 33.2445 60.3572 33.4381 65.2907 35.2717C70.2241 37.1052 74.4348 40.481 77.2973 44.8976C84.3461 55.7357 82.3327 72.0509 73.3144 79.9199Z" fill="white"/>
<path d="M45.2446 90.5968C40.739 89.7503 39.6285 91.6678 34.0493 86.0208C33.721 85.6891 33.2018 86.2083 33.5309 86.5392C38.994 92.0383 40.4829 90.7579 44.0909 91.1583C46.9322 91.5052 49.6015 92.7052 51.7469 94.6C52.0989 94.9088 52.6181 94.3896 52.2661 94.0808C50.2806 92.3105 47.8553 91.1071 45.2446 90.5968Z" fill="white"/>
<path d="M78.8047 86.8727C74.0386 93.5079 66.1714 85.2166 60.4453 93.8485C60.1813 94.2463 60.8237 94.6044 61.0815 94.226C66.6818 86.0007 73.889 94.3387 79.4172 87.2265C79.6953 86.8692 79.0713 86.504 78.8047 86.8727Z" fill="white"/>
<path d="M66.2629 57.3654C64.3121 56.9361 62.3213 56.7148 60.3238 56.7054C59.596 54.8865 57.8395 51.8654 56.8355 49.588C56.8019 49.5338 56.7551 49.489 56.6994 49.458C56.6438 49.4269 56.5811 49.4106 56.5173 49.4106C56.4536 49.4106 56.3909 49.4269 56.3352 49.458C56.2796 49.489 56.2327 49.5338 56.1992 49.588C55.009 51.9568 53.947 54.3879 53.018 56.8709C50.9676 56.7996 48.941 56.8471 46.8897 56.8709C46.6081 56.8709 46.3723 57.2704 46.631 57.4869C48.112 58.7065 49.4927 60.3724 50.6139 61.4935C51.1348 62.0145 51.5511 61.6765 50.3076 65.406C49.9104 66.4956 49.5951 67.6134 49.3643 68.75C49.3476 68.8199 49.3518 68.8931 49.3764 68.9606C49.4011 69.0281 49.445 69.0869 49.5028 69.1296C49.5606 69.1722 49.6297 69.197 49.7014 69.2007C49.7732 69.2044 49.8445 69.1869 49.9063 69.1504C52.0307 67.8357 54.3151 66.8175 56.2934 65.2379C57.9654 66.6996 59.838 67.9131 61.5734 69.3387C61.6311 69.3935 61.705 69.4282 61.784 69.4378C61.8631 69.4473 61.9431 69.4311 62.0122 69.3916C62.0813 69.3521 62.1359 69.2914 62.1678 69.2185C62.1997 69.1455 62.2073 69.0643 62.1894 68.9867C61.9254 67.0507 61.6235 65.1446 61.5056 63.1884C63.226 61.5164 64.7106 59.6059 66.4785 57.9797C66.5122 57.9268 66.5335 57.867 66.5408 57.8047C66.548 57.7424 66.5409 57.6792 66.5202 57.6201C66.4994 57.5609 66.4654 57.5072 66.4209 57.4631C66.3763 57.419 66.3223 57.3856 66.2629 57.3654Z" fill="white"/>
</svg>
