<svg width="480" height="320" viewBox="0 0 480 320" fill="none" xmlns="http://www.w3.org/2000/svg">
<rect width="480" height="320" fill="#FFF0D9"/>
<path d="M235.094 114.214C239.414 114.563 243.952 115.962 246.632 119.574C249.019 122.661 249.793 126.678 250.259 130.544C250.315 119.997 249.915 111.483 249.195 100.579C248.981 97.3152 248.264 93.2384 245.233 92.1888C244.293 91.9594 243.309 91.9901 242.385 92.2776C241.461 92.5651 240.633 93.0986 239.989 93.8208C238.949 94.9891 238.121 96.3297 237.542 97.7824C238.59 94.52 236.377 90.208 232.997 89.7424C229.734 89.28 226.704 92.7728 226.704 96.16C225.019 87.0592 218.419 87.2208 215.517 95.9264C212.361 105.96 212.694 120.462 215.357 130.893C217.44 118.658 222.974 113.44 235.094 114.214ZM217.04 246.864C220.336 247.36 223.483 247.899 225.773 248.346C225.262 249.534 224.16 255.142 223.79 256.619C218.937 255.926 217.312 256.395 203.63 251.491C201.833 250.851 199.235 249.978 199.03 247.901C171.479 249.963 144.116 254.046 117.163 260.115C158.299 275.381 201.643 289.131 244.651 298.221C284.622 278.643 317.833 266.408 362.117 260.93C314.646 249.525 265.817 244.791 217.04 246.864Z" fill="#F0B211"/>
<path d="M147.578 140.55C145.069 143.173 142.683 146.029 140.237 148.71C140.191 148.756 140.155 148.811 140.13 148.871C140.105 148.931 140.092 148.995 140.092 149.06C140.092 149.125 140.105 149.189 140.13 149.249C140.155 149.309 140.191 149.364 140.237 149.41C140.283 149.455 140.337 149.492 140.397 149.517C140.457 149.542 140.522 149.554 140.587 149.554C140.652 149.554 140.716 149.542 140.776 149.517C140.836 149.492 140.89 149.455 140.936 149.41C143.383 146.73 145.831 143.933 148.277 141.25C148.37 141.157 148.422 141.031 148.422 140.9C148.422 140.769 148.37 140.643 148.277 140.55C148.184 140.458 148.059 140.406 147.927 140.406C147.796 140.406 147.671 140.458 147.578 140.55ZM145.714 136.821C142.218 136.472 138.722 136.006 135.226 135.656C134.643 135.539 134.643 136.59 135.226 136.706C138.722 137.054 142.218 137.522 145.714 137.87C146.296 137.87 146.296 136.821 145.714 136.821ZM142.56 125.168C142.203 124.709 141.512 125.402 141.861 125.869C144.192 128.898 146.523 131.811 148.853 134.842C149.203 135.307 149.903 134.608 149.552 134.141C147.229 131.112 144.853 128.117 142.56 125.168ZM177.901 192.082C177.78 192.026 177.656 191.98 177.528 191.942C163.203 188.76 163.671 175.733 165.291 161.411C166.373 152.403 166.746 151.04 166.224 151.04C166.23 150.977 166.223 150.914 166.201 150.854C166.18 150.795 166.146 150.74 166.101 150.696C166.057 150.651 166.002 150.617 165.943 150.596C165.883 150.574 165.82 150.567 165.757 150.573C163.349 151.03 160.857 150.704 158.648 149.642C156.131 148.202 155.408 145.162 156.435 144.522C157.483 143.939 158.533 145.453 159.232 145.92C159.679 146.261 160.19 146.509 160.735 146.647C161.28 146.785 161.847 146.812 162.403 146.725C162.958 146.638 163.49 146.439 163.966 146.141C164.443 145.842 164.854 145.45 165.175 144.989C165.591 144.296 165.777 143.49 165.706 142.685C165.635 141.881 165.311 141.119 164.78 140.511C164.249 139.902 163.539 139.477 162.751 139.297C161.964 139.118 161.14 139.192 160.397 139.51C159.906 139.738 159.438 140.012 158.999 140.328C158.601 140.711 158.173 141.061 157.719 141.374C157.503 141.509 157.26 141.591 157.008 141.616C156.755 141.64 156.501 141.606 156.264 141.516C156.027 141.426 155.814 141.282 155.641 141.096C155.469 140.91 155.342 140.686 155.271 140.443C155.12 139.901 155.105 139.331 155.227 138.782C155.349 138.233 155.604 137.723 155.97 137.296C157.138 135.859 158.799 134.907 160.63 134.627C162.461 134.347 164.331 134.758 165.875 135.781C166.614 136.851 167.519 137.795 168.555 138.579C169.023 138.928 169.488 138.346 169.255 137.878C168.581 136.759 167.665 135.804 166.575 135.083C165.167 133.02 164.397 130.589 164.36 128.091C164.313 127.764 164.353 127.43 164.476 127.123C164.598 126.816 164.8 126.547 165.059 126.342C165.318 126.217 165.605 126.162 165.891 126.183C166.177 126.203 166.453 126.299 166.691 126.459C167.699 127.133 168.951 130.459 169.371 131.579C170.045 133.587 171.16 135.419 172.635 136.939C172.723 137.017 172.833 137.062 172.95 137.068C173.066 137.075 173.181 137.041 173.276 136.973C173.371 136.905 173.44 136.807 173.471 136.694C173.503 136.582 173.495 136.463 173.45 136.355C172.112 133.49 173.65 126.334 174.965 126.334C175.133 126.313 175.304 126.347 175.451 126.431C175.598 126.515 175.714 126.644 175.781 126.8C175.936 127.329 175.976 127.886 175.898 128.432C175.898 143.68 174.685 148.686 174.499 156.283C174.384 158.021 174.635 167.643 174.848 168.283C175.386 173.376 176.514 177.27 181.141 179.586C181.725 179.818 182.191 179.003 181.608 178.77C175.178 175.554 175.787 168.062 175.432 160.939C175.093 155.534 177.613 136.072 176.946 128.077C177.024 127.611 176.967 127.133 176.781 126.7C176.595 126.266 176.289 125.895 175.898 125.63C173.45 124.464 172.635 128.427 172.402 130.058C172.054 131.586 171.936 133.157 172.051 134.72C169.906 131.346 169.011 126.4 166.931 125.514C166.596 125.389 166.238 125.336 165.88 125.358C165.523 125.38 165.174 125.476 164.856 125.641C164.538 125.805 164.258 126.034 164.033 126.313C163.809 126.592 163.645 126.915 163.552 127.261C163.418 128.27 163.457 129.295 163.667 130.291C163.816 131.331 164.09 132.348 164.483 133.322C164.607 133.741 164.804 134.136 165.066 134.486C159.45 132.246 153.658 136.629 154.229 140.43C154.316 140.929 154.519 141.4 154.823 141.805C155.127 142.21 155.522 142.537 155.976 142.76C156.441 142.945 156.947 143 157.44 142.917C157.933 142.835 158.394 142.62 158.773 142.294C159.823 141.478 160.639 140.546 162.037 140.546C162.437 140.539 162.834 140.618 163.201 140.778C163.568 140.938 163.896 141.175 164.164 141.473C164.431 141.772 164.631 142.124 164.75 142.506C164.869 142.888 164.904 143.292 164.853 143.689C164.803 144.086 164.667 144.467 164.456 144.808C164.245 145.148 163.963 145.438 163.629 145.66C163.296 145.881 162.919 146.029 162.523 146.091C162.128 146.154 161.724 146.131 161.338 146.024C160.192 145.598 159.156 144.921 158.307 144.042C157.894 143.791 157.411 143.679 156.929 143.721C156.448 143.763 155.992 143.957 155.627 144.275C154.027 146.098 156.088 153.075 165.416 151.85C164.424 165.238 157.347 189.55 177.536 193.336C178.192 193.44 178.327 192.456 177.901 192.082ZM245.699 191.71C244.04 187.562 237.391 168.054 236.96 163.742C236.966 163.679 236.959 163.616 236.937 163.556C236.916 163.497 236.882 163.443 236.837 163.398C236.793 163.354 236.738 163.319 236.679 163.298C236.619 163.277 236.556 163.269 236.493 163.275C236.433 163.242 236.365 163.226 236.297 163.227C236.228 163.228 236.161 163.248 236.102 163.283C236.043 163.318 235.995 163.368 235.961 163.428C235.927 163.488 235.91 163.555 235.911 163.624C233.44 169.795 229.578 192 229.152 193.92C229.152 194.486 228.906 193.95 233.231 197.883C235.582 199.916 237.588 202.316 239.173 204.99C239.231 205.065 239.308 205.123 239.396 205.159C239.483 205.195 239.578 205.208 239.672 205.196C239.766 205.185 239.855 205.149 239.931 205.093C240.007 205.036 240.067 204.961 240.106 204.875C241.394 200.985 243.029 197.217 244.991 193.619C245.48 192.72 245.816 192.174 245.699 191.71ZM224.258 131.346C224.267 131.601 224.212 131.855 224.1 132.084C223.987 132.314 223.82 132.513 223.613 132.662C223.406 132.812 223.165 132.908 222.911 132.943C222.658 132.978 222.4 132.949 222.16 132.861C221.766 132.666 221.462 132.328 221.31 131.916C221.158 131.503 221.171 131.048 221.344 130.645C221.693 130.062 220.762 129.597 220.528 130.181C220.336 130.52 220.225 130.9 220.206 131.29C220.186 131.679 220.258 132.068 220.416 132.425C220.574 132.782 220.814 133.097 221.115 133.345C221.417 133.592 221.772 133.766 222.153 133.851C222.534 133.937 222.929 133.932 223.308 133.837C223.686 133.742 224.037 133.559 224.333 133.304C224.628 133.049 224.86 132.728 225.009 132.368C225.157 132.007 225.22 131.616 225.191 131.227C225.191 130.645 224.258 130.645 224.258 131.346ZM245.351 130.062C245.127 129.477 244.184 129.714 244.418 130.296C244.651 130.995 245 132.976 243.602 132.394C242.786 132.043 242.554 130.878 242.087 130.296C241.738 129.83 241.039 130.53 241.387 130.995C242.203 131.928 242.554 133.555 244.069 133.442C245.816 133.326 245.837 131.338 245.351 130.062ZM238.824 138.57C238.318 139.409 237.605 140.105 236.755 140.592C235.904 141.079 234.943 141.34 233.963 141.352C232.983 141.364 232.016 141.126 231.153 140.659C230.291 140.193 229.562 139.515 229.035 138.688C228.687 138.104 227.871 138.688 228.219 139.152C228.806 140.145 229.64 140.968 230.642 141.54C231.643 142.112 232.777 142.413 233.93 142.413C235.083 142.413 236.216 142.112 237.218 141.54C238.219 140.968 239.054 140.145 239.64 139.152C239.707 139.044 239.73 138.914 239.705 138.789C239.68 138.664 239.608 138.553 239.504 138.479C239.401 138.405 239.273 138.373 239.147 138.39C239.02 138.407 238.905 138.471 238.824 138.57ZM224.258 123.771C224.84 123.653 224.607 122.722 224.024 122.837C222.142 123.225 220.454 124.255 219.247 125.75C218.896 126.218 219.595 126.915 219.946 126.451C221.001 125.054 222.538 124.099 224.258 123.771ZM245.234 124.936C243.866 123.901 242.166 123.404 240.456 123.538C239.874 123.538 239.874 124.586 240.456 124.586C242.003 124.484 243.535 124.938 244.776 125.866C245.234 126.218 245.699 125.28 245.234 124.936Z" fill="black"/>
<path d="M290.1 205.578C288.638 202.711 287.768 199.58 287.54 196.371C287.888 196.022 287.423 195.44 287.072 195.555C286.836 195.555 282.064 200.035 281.13 200.915C274.118 190.298 266.286 180.245 257.706 170.85C254.359 167.129 250.466 163.938 246.16 161.387C246.06 156.856 246.16 152.427 246.053 147.893C246.28 147.893 250.989 146.133 251.677 138.811C252.1 139.253 252.634 139.573 253.224 139.736C253.814 139.898 254.436 139.899 255.026 139.736C257.94 139.037 257.823 134.491 257.94 132.162C257.823 130.179 257.823 126.101 255.143 125.053C255.026 125.053 254.909 124.936 254.792 124.936C254.045 121.614 252.484 118.53 250.248 115.962C247.215 112.549 243.327 110.005 238.986 108.592C234.644 107.179 230.004 106.948 225.543 107.922C216.616 109.962 210.975 115.469 210.16 124.702C207.615 125.662 207.247 128.874 207.247 131.582C207.125 133.476 207.363 135.376 207.946 137.182C208.056 137.638 208.255 138.066 208.533 138.443C208.811 138.82 209.162 139.137 209.565 139.375C209.968 139.614 210.414 139.77 210.878 139.833C211.342 139.896 211.814 139.865 212.266 139.742C212.725 139.622 213.149 139.395 213.505 139.081C213.86 138.767 214.137 138.375 214.314 137.934C215.472 142.062 218.901 145.88 224.618 147.782C224.967 152.536 225.084 157.01 225.429 161.762C222.182 163.592 219.332 166.05 217.044 168.992C208.732 173.704 192.26 181.632 183.132 178.898C183.132 178.549 182.783 178.43 182.549 178.43C182.502 178.424 182.453 178.428 182.408 178.443C182.362 178.459 182.321 178.484 182.287 178.518C182.253 178.552 182.228 178.594 182.213 178.639C182.198 178.685 182.193 178.733 182.2 178.781C179.232 188.212 177.661 198.027 177.54 207.914C177.547 208.035 177.599 208.149 177.685 208.235C177.77 208.321 177.884 208.373 178.005 208.381H186.045C186.279 208.381 186.628 208.147 186.512 207.914C186.045 203.485 185.463 199.058 184.997 194.634C192.962 195.493 201.016 194.901 208.77 192.886C208.304 197.314 208.071 201.859 207.722 206.403C206.479 226.267 206.268 223.802 205.973 227.03V227.264C205.973 227.496 206.207 227.73 206.439 227.613C212.644 227.613 183.834 227.245 267.62 226.565C267.74 226.556 267.854 226.504 267.939 226.418C268.025 226.332 268.077 226.218 268.085 226.098C268.085 222.37 267.736 218.64 267.386 214.91C274.845 211.997 282.186 209.085 289.644 206.171C290.1 206.277 290.33 205.93 290.1 205.578ZM211.2 124.469C211.413 121.138 212.588 117.94 214.581 115.262C224.255 103.333 248.81 106.73 253.736 124.586C253.002 124.632 252.301 124.913 251.738 125.386C251.174 125.859 250.777 126.501 250.604 127.216C250.213 123.437 248.518 119.911 245.812 117.245C241.207 113.112 233.303 112.346 227.167 113.747C224.134 114.43 221.398 116.063 219.359 118.41C217.024 121.35 215.501 124.853 214.944 128.566C214.56 126.339 213.466 124.469 211.2 124.469ZM222.738 146.027C217.952 143.853 215.133 139.787 214.8 136.35C215.053 134.921 215.174 133.471 215.164 132.019C215.604 128.235 216.75 124.568 218.543 121.206C222.141 115.208 228.08 113.762 235.09 114.214C239.41 114.563 243.948 115.962 246.628 119.574C248.631 122.566 249.824 126.026 250.09 129.616C249.812 132.167 250.03 134.747 250.73 137.216C250.629 146.176 245.482 148.488 236.845 148.243C232.183 148.126 227.055 148.126 222.743 146.027H222.738ZM225.652 148.126C227.903 148.711 230.208 149.063 232.532 149.174C236.448 149.362 241.311 149.675 245 148.358C245.112 152.6 245.01 156.584 245.104 160.803C242.196 159.336 238.971 158.607 235.714 158.68C232.457 158.752 229.268 159.624 226.428 161.219C226.112 156.784 225.991 152.584 225.656 148.126H225.652ZM185.685 207.442H178.693C178.501 195.122 182.172 184.23 182.655 181.571C183.704 190.195 184.64 198.818 185.685 207.442ZM185.22 193.691C184.712 193.691 185.239 194.755 183.354 180.056C191.77 182.646 208.164 175.291 215.751 170.968C212.021 176.677 210.175 183.574 208.992 190.195C208.887 190.781 208.876 191.362 208.759 191.944C202.183 194.133 192.05 194.41 185.22 193.691ZM207.127 226.786C210.498 203.709 206.327 178.786 221.81 165.606C230.013 158.646 240.997 157.349 249.08 164.674C256 170.947 259.821 182.2 262.248 191.243C264.015 197.564 265.316 204.006 266.141 210.517C266.7 214.598 267.034 218.707 267.143 222.826C267.164 223.755 267.258 224.688 267.258 225.739C266.18 225.805 210.266 226.629 207.127 226.786ZM259.567 179.586C257.984 175.408 255.869 171.451 253.274 167.814C254.44 168.864 255.488 170.029 256.538 171.078C264.688 179.389 273.752 191.813 280.311 201.493C275.991 205.456 271.804 209.534 267.375 213.613C265.973 202.424 263.445 189.53 259.567 179.59V179.586ZM269.584 212.96C275.41 207.6 280.66 202.547 286.604 197.302C286.692 199.967 287.358 202.581 288.554 204.963C282.028 207.528 276.226 210.4 269.584 212.96ZM116.581 263.146C113.023 264.18 109.643 265.752 106.559 267.806C106.092 268.155 106.559 268.971 107.024 268.622C109.999 266.551 113.311 265.013 116.813 264.077C117.512 263.84 117.28 262.926 116.581 263.146ZM129.165 268.389C126.055 269.175 123.178 270.693 120.775 272.818C120.682 272.91 120.63 273.036 120.63 273.167C120.63 273.298 120.682 273.424 120.775 273.517C120.868 273.61 120.993 273.662 121.124 273.662C121.256 273.662 121.381 273.61 121.474 273.517C123.75 271.517 126.465 270.08 129.399 269.322C129.981 269.205 129.749 268.272 129.165 268.389ZM143.383 273.28C139.572 274.494 136.18 276.755 133.594 279.806C133.501 279.899 133.449 280.025 133.449 280.156C133.449 280.287 133.501 280.413 133.594 280.506C133.687 280.598 133.812 280.65 133.944 280.65C134.075 280.65 134.2 280.598 134.293 280.506C136.775 277.55 140.05 275.366 143.733 274.213C144.32 274.099 144.085 273.061 143.383 273.28ZM155.852 278.061C152.121 280.097 148.641 282.561 145.48 285.403C145.388 285.496 145.336 285.622 145.336 285.753C145.336 285.884 145.388 286.01 145.48 286.102C145.573 286.195 145.699 286.247 145.83 286.247C145.961 286.247 146.087 286.195 146.18 286.102C149.259 283.331 152.664 280.944 156.319 278.994C156.901 278.528 156.444 277.726 155.852 278.061ZM171.584 286.219C168.554 288.2 165.64 290.181 162.612 292.163C162.028 292.512 162.612 293.328 163.077 292.978C166.108 290.997 169.02 289.016 172.05 287.034C172.64 286.685 172.05 285.869 171.584 286.219ZM189.064 292.861C186.174 294.238 183.745 296.424 182.072 299.154C182.025 299.207 181.991 299.27 181.971 299.339C181.951 299.407 181.947 299.479 181.959 299.55C181.97 299.62 181.997 299.687 182.038 299.745C182.079 299.804 182.132 299.852 182.194 299.888C182.256 299.923 182.325 299.944 182.396 299.95C182.467 299.955 182.538 299.945 182.604 299.919C182.671 299.894 182.731 299.854 182.78 299.802C182.829 299.75 182.866 299.689 182.888 299.621C184.483 297.069 186.792 295.042 189.53 293.794C189.649 293.729 189.738 293.621 189.778 293.492C189.819 293.363 189.808 293.223 189.747 293.103C189.687 292.982 189.582 292.889 189.455 292.844C189.327 292.799 189.187 292.805 189.064 292.861ZM209.224 295.774C205.373 297.026 201.998 299.427 199.552 302.654C199.204 303.122 200.018 303.704 200.368 303.122C202.676 300.11 205.847 297.874 209.458 296.712C210.157 296.48 209.92 295.541 209.224 295.774ZM227.754 299.27C224.326 301.033 221.369 303.59 219.13 306.728C218.781 307.195 219.596 307.778 219.946 307.195C222.096 304.198 224.933 301.761 228.22 300.086C228.8 299.853 228.336 298.922 227.754 299.27ZM240.223 303.115C237.641 305.484 235.441 308.236 233.698 311.275C233.348 311.858 234.28 312.323 234.512 311.741C236.178 308.717 238.345 305.998 240.922 303.701C241.389 303.466 240.69 302.766 240.223 303.115ZM335.314 245.666C331.672 246.129 328.106 247.069 324.709 248.462C324.127 248.694 324.36 249.627 324.943 249.394C328.264 248.017 331.75 247.076 335.314 246.597C335.431 246.587 335.54 246.534 335.619 246.448C335.699 246.361 335.743 246.248 335.743 246.131C335.743 246.014 335.699 245.901 335.619 245.815C335.54 245.729 335.431 245.675 335.314 245.666ZM344.172 248.811C340.975 249.319 337.872 250.301 334.965 251.725C334.383 251.958 334.848 252.89 335.431 252.541C338.237 251.171 341.217 250.191 344.288 249.627C345.103 249.744 344.754 248.694 344.172 248.811ZM358.738 251.491C355.144 252.203 351.658 253.379 348.367 254.987C347.784 255.221 348.25 256.154 348.832 255.803C352.066 254.279 355.47 253.144 358.972 252.424C359.671 252.307 359.32 251.378 358.738 251.491ZM372.96 256.16C369.334 257.326 365.575 258.03 361.773 258.258C361.191 258.258 361.191 259.306 361.773 259.306C365.689 259.07 369.561 258.366 373.309 257.208C373.887 256.853 373.655 255.923 372.96 256.16Z" fill="black"/>
<path d="M281.12 225.854C278.961 224.457 277.034 222.729 275.41 220.734C273.93 219.185 272.64 217.463 271.57 215.606C271.338 215.024 270.405 215.491 270.754 216.074C271.875 218 273.204 219.797 274.717 221.434C276.379 223.545 278.389 225.358 280.66 226.794C280.721 226.824 280.788 226.842 280.857 226.846C280.925 226.85 280.994 226.841 281.059 226.819C281.124 226.797 281.184 226.762 281.236 226.717C281.287 226.671 281.329 226.616 281.36 226.554C281.39 226.493 281.408 226.426 281.412 226.357C281.416 226.289 281.407 226.22 281.385 226.155C281.363 226.09 281.328 226.03 281.283 225.978C281.237 225.927 281.182 225.885 281.12 225.854ZM331.236 233.312C330.905 232.802 330.458 232.377 329.931 232.073C329.404 231.77 328.813 231.595 328.205 231.565C326.016 231.324 323.815 231.905 322.029 233.195C322.162 231.88 321.965 230.551 321.457 229.331C320.948 228.11 320.144 227.035 319.116 226.203C316.842 224.618 314.053 223.952 311.309 224.339C310.795 224.482 310.354 224.813 310.073 225.266C309.792 225.719 309.692 226.262 309.794 226.786C309.461 226.829 309.142 226.946 308.86 227.127C308.578 227.309 308.34 227.551 308.162 227.835C307.882 228.288 307.759 228.821 307.812 229.35C307.413 229.374 307.025 229.491 306.681 229.694C306.336 229.896 306.045 230.178 305.831 230.515C295.431 223.97 292.956 219.51 286.72 209.306C286.37 208.723 285.554 209.306 285.904 209.773C292.271 221.008 295.696 225.152 305.599 231.565C305.599 234.285 307.904 233.779 309.21 234.595C309.705 234.866 310.111 235.274 310.38 235.77C310.648 236.266 310.768 236.829 310.725 237.392C310.608 237.974 311.658 237.974 311.775 237.392C311.828 236.498 311.582 235.611 311.076 234.873C310.569 234.134 309.831 233.585 308.978 233.312C308.045 233.08 306.764 232.963 306.647 231.914C306.53 231.099 307.112 230.634 307.812 230.4C308.228 230.4 308.25 230.282 308.511 230.282C310.022 230.341 311.463 230.937 312.574 231.964C313.685 232.99 314.393 234.38 314.572 235.882C314.688 236.464 315.62 236.23 315.504 235.648C315.246 234.033 314.47 232.546 313.293 231.411C312.115 230.276 310.601 229.554 308.978 229.355C308.978 228.358 308.988 227.978 310.842 227.608C315.295 228.048 317.212 230.39 317.368 233.208C317.368 233.79 318.416 233.79 318.416 233.208C318.026 229.102 315.084 226.912 310.959 226.565C310.376 226.101 310.959 225.4 311.541 225.168C312.071 225.013 312.627 224.974 313.173 225.051C319.482 225.581 321.959 230.171 320.748 234.258C320.723 234.361 320.733 234.469 320.775 234.566C320.817 234.663 320.889 234.743 320.981 234.796C321.073 234.848 321.18 234.869 321.285 234.856C321.389 234.843 321.487 234.797 321.564 234.723C323.086 233.226 325.138 232.389 327.274 232.394C328.322 232.394 329.834 232.51 330.303 233.674C330.887 235.072 328.904 235.538 327.973 235.538C326.894 235.603 325.832 235.839 324.826 236.237C322.541 237.094 319.938 239.757 316.204 240.547C313.533 240.917 310.821 240.878 308.162 240.432C307.58 240.315 307.58 241.363 308.162 241.482C312.612 242.062 316.162 242.202 319.932 240.315C322.861 238.688 324.117 237.245 326.458 236.819C327.743 236.797 329.01 236.52 330.188 236.005C330.443 235.909 330.675 235.761 330.87 235.569C331.064 235.378 331.215 235.147 331.314 234.893C331.413 234.639 331.457 234.367 331.444 234.094C331.43 233.822 331.359 233.555 331.236 233.312Z" fill="black"/>
<path d="M291.498 98.72C257.418 40.96 199.245 43.4912 167.855 95.808C167.692 96.0905 167.587 96.4025 167.546 96.7259C167.505 97.0492 167.528 97.3775 167.615 97.6917C167.702 98.0059 167.85 98.2998 168.051 98.5562C168.253 98.8127 168.503 99.0266 168.787 99.1856C169.36 99.5064 170.036 99.5886 170.668 99.4142C171.301 99.2399 171.839 98.8232 172.167 98.2544C202.578 47.5696 255.527 48.16 287.186 100.934C287.513 101.503 288.051 101.921 288.684 102.095C289.317 102.269 289.993 102.187 290.565 101.866C290.844 101.733 291.093 101.542 291.294 101.307C291.495 101.072 291.644 100.797 291.732 100.501C291.82 100.204 291.845 99.8922 291.804 99.5854C291.764 99.2786 291.659 98.9838 291.498 98.72Z" fill="#F0B211"/>
<path d="M307.463 93.12C264.8 24.2016 193.244 26.488 152.24 88C152.08 88.283 151.976 88.5949 151.936 88.9179C151.896 89.2409 151.92 89.5687 152.006 89.8825C152.093 90.1962 152.24 90.4899 152.44 90.7467C152.64 91.0036 152.888 91.2185 153.172 91.3792C153.455 91.5399 153.766 91.6434 154.089 91.6835C154.412 91.7237 154.74 91.6999 155.054 91.6135C155.368 91.527 155.661 91.3796 155.918 91.1796C156.175 90.9796 156.39 90.731 156.551 90.448C200.391 24.6784 266.994 40.4544 303.85 95.6912C304.177 96.2606 304.715 96.678 305.348 96.853C305.981 97.0279 306.658 96.9462 307.231 96.6256C307.586 96.1183 307.796 95.5233 307.836 94.9052C307.877 94.2872 307.748 93.6697 307.463 93.12Z" fill="#FF9F48"/>
<path d="M323.544 83.4496C279.57 11.84 194.493 0.00799179 139.304 77.28C139.132 77.5603 139.02 77.873 138.974 78.1986C138.928 78.5243 138.949 78.8559 139.037 79.1729C139.124 79.4899 139.276 79.7856 139.482 80.0415C139.689 80.2975 139.946 80.5082 140.237 80.6608C140.52 80.8231 140.832 80.9278 141.155 80.9686C141.479 81.0095 141.807 80.9858 142.122 80.8989C142.436 80.812 142.73 80.6636 142.986 80.4623C143.243 80.2611 143.457 80.0109 143.616 79.7264C184.239 20.48 260.73 1.39359 319.117 85.664C319.444 86.2327 319.983 86.6495 320.615 86.8238C321.248 86.9981 321.924 86.916 322.496 86.5952C322.794 86.4836 323.063 86.3069 323.283 86.078C323.504 85.8491 323.67 85.5739 323.771 85.2724C323.871 84.9709 323.903 84.6507 323.864 84.3354C323.825 84.02 323.715 83.7174 323.544 83.4496Z" fill="#F55555"/>
<path d="M339.859 72.1456C323.337 45.984 294.524 21.6672 261.548 12.248C229.812 3.21282 197.868 8.93922 169.72 25.8816C153.027 36.1883 138.501 49.6461 126.952 65.504C126.78 65.7841 126.668 66.0965 126.622 66.4217C126.576 66.7469 126.598 67.0781 126.685 67.3947C126.772 67.7113 126.924 68.0066 127.13 68.2624C127.336 68.5182 127.592 68.7289 127.883 68.8816C128.455 69.2029 129.132 69.2853 129.765 69.111C130.398 68.9366 130.936 68.5196 131.264 67.9504C184.854 -5.17918 277.452 -6.20958 331.819 69.1152C333.099 70.864 334.265 72.6112 335.547 74.36C335.874 74.9291 336.412 75.3461 337.045 75.5204C337.678 75.6948 338.354 75.6124 338.926 75.2912C339.213 75.1671 339.47 74.9815 339.677 74.7474C339.885 74.5134 340.039 74.2365 340.128 73.9365C340.217 73.6365 340.239 73.3206 340.192 73.0112C340.146 72.7017 340.032 72.4062 339.859 72.1456Z" fill="#42AB44"/>
<path d="M218.197 138.104C218.197 138.846 218.59 139.557 219.29 140.082C219.989 140.606 220.938 140.901 221.927 140.901C222.916 140.901 223.865 140.606 224.564 140.082C225.264 139.557 225.656 138.846 225.656 138.104C225.656 137.362 225.264 136.651 224.564 136.126C223.865 135.602 222.916 135.307 221.927 135.307C220.938 135.307 219.989 135.602 219.29 136.126C218.59 136.651 218.197 137.362 218.197 138.104Z" fill="#F55555"/>
<path d="M241.387 137.754C241.387 138.495 241.78 139.207 242.479 139.731C243.179 140.256 244.127 140.55 245.116 140.55C246.105 140.55 247.054 140.256 247.754 139.731C248.453 139.207 248.846 138.495 248.846 137.754C248.846 137.012 248.453 136.3 247.754 135.776C247.054 135.251 246.105 134.957 245.116 134.957C244.127 134.957 243.179 135.251 242.479 135.776C241.78 136.3 241.387 137.012 241.387 137.754Z" fill="#F55555"/>
<path d="M314.688 250.442C293.911 230.603 266.148 219.759 237.426 220.261C209.923 220.96 181.256 232.613 161.33 252.075C160.325 253.064 159.622 254.317 159.303 255.69C158.983 257.062 159.059 258.497 159.523 259.828C159.987 261.158 160.819 262.33 161.922 263.206C163.026 264.082 164.356 264.627 165.757 264.778C193.142 267.69 204.33 268.739 223.909 263.378C263.53 268.498 279.845 272.235 311.774 262.795C313.003 262.42 314.111 261.73 314.99 260.793C315.868 259.856 316.485 258.706 316.78 257.456C317.075 256.206 317.037 254.9 316.67 253.669C316.303 252.439 315.619 251.326 314.688 250.442ZM223.79 256.619C218.938 255.926 217.312 256.395 203.63 251.491C202.102 250.944 200.134 250.326 199.31 248.811C198.379 247.064 199.778 245.664 201.408 245.432C205.187 244.952 219.104 247.048 225.765 248.346C225.262 249.534 224.16 255.142 223.79 256.619ZM258.752 242.4C258.544 242.577 258.303 242.709 258.042 242.789C257.782 242.869 257.508 242.895 257.237 242.866C257.077 242.866 246.254 243.216 245.582 243.216C245.555 243.189 244.243 241.122 243.835 240.302C247.237 239.358 254.509 238.438 257.115 239.022C257.634 239.1 258.122 239.313 258.532 239.64C258.941 239.968 259.257 240.398 259.446 240.886C259.479 241.178 259.431 241.473 259.309 241.739C259.187 242.006 258.994 242.234 258.752 242.4Z" fill="#FCAFB7"/>
<path d="M293.362 244.267C291.264 244.85 289.166 245.432 287.186 246.014C287.095 246.02 287.009 246.058 286.945 246.123C286.88 246.187 286.842 246.272 286.837 246.363C274.584 243.579 278.285 245.968 287.419 243.685C288.723 243.527 289.986 243.132 291.147 242.518C291.41 242.353 291.628 242.126 291.784 241.857C291.939 241.589 292.026 241.286 292.037 240.976C292.049 240.666 291.984 240.357 291.85 240.078C291.715 239.798 291.514 239.555 291.264 239.371C289.797 238.464 288.233 237.722 286.603 237.158C278.595 233.72 268.282 233.731 259.563 234.011C256.533 234.126 252.338 234.011 250.706 237.04C250.487 237.347 250.365 237.713 250.357 238.09C247.793 238.319 245.257 238.787 242.781 239.488C242.503 239.111 242.13 238.815 241.7 238.631C241.27 238.447 240.798 238.381 240.334 238.44C230.094 237.504 220.235 239.931 209.454 242.518C209.338 242.518 209.338 242.635 209.221 242.635C207.781 241.677 206.151 241.041 204.443 240.771C203.163 240.536 201.997 240.304 200.714 240.187C191.409 239.388 182.152 242.184 174.846 248C173.915 248.699 173.099 249.398 172.166 250.214C171.666 250.576 171.298 251.091 171.117 251.681C170.936 252.27 170.952 252.903 171.163 253.483C171.374 254.063 171.768 254.558 172.286 254.893C172.804 255.229 173.417 255.387 174.032 255.342C174.981 255.237 173.408 255.493 203.864 252.546C204.563 252.778 205.144 253.011 205.728 253.245C211.466 255.295 217.403 256.74 223.442 257.557C223.208 259.304 222.976 261.17 222.859 262.917C222.859 263.499 223.792 263.499 223.907 262.917C224.024 260.934 224.258 258.955 224.491 256.974C226.482 248.515 225.032 253.374 227.171 246.95C238.278 244.64 249.621 243.661 260.96 244.032C264.339 244.267 267.718 244.614 271.098 244.733C277.908 245.422 284.651 246.67 291.257 248.462C291.84 248.579 292.19 247.646 291.491 247.528C286.731 246.106 286.387 247.482 293.238 245.198C294.178 245.083 293.944 244.032 293.362 244.267ZM223.79 256.619C218.938 255.926 217.421 256.082 203.63 251.491C202.115 250.909 200.134 250.326 199.31 248.811C198.379 247.064 199.778 245.664 201.408 245.432C205.187 244.952 219.104 247.048 225.765 248.346C225.262 249.534 224.16 255.142 223.79 256.619ZM227.054 246.014C226.934 246.012 226.816 246.044 226.713 246.105C226.61 246.167 226.527 246.256 226.472 246.363L226.122 247.413C221.273 246.368 216.372 245.59 211.438 245.083C211.133 244.449 210.741 243.86 210.274 243.334C219.48 241.118 228.802 238.789 238.358 239.256C239.417 239.238 240.474 239.356 241.504 239.605C242.549 240.128 244.309 243.285 244.418 243.445C238.584 243.957 232.786 244.815 227.054 246.014ZM258.752 242.4C258.544 242.577 258.303 242.709 258.042 242.789C257.782 242.869 257.508 242.895 257.237 242.866C257.085 242.866 246.254 243.216 245.582 243.216C245.555 243.189 244.243 241.118 243.835 240.302C247.237 239.358 254.509 238.438 257.115 239.022C257.634 239.1 258.122 239.313 258.532 239.64C258.941 239.968 259.257 240.398 259.446 240.886C259.479 241.178 259.432 241.473 259.31 241.74C259.187 242.006 258.994 242.235 258.752 242.4Z" fill="black"/>
<path d="M185.219 193.691C184.712 193.691 185.238 194.755 183.354 180.056C191.77 182.646 208.163 175.291 215.75 170.968C212.021 176.677 210.174 183.574 208.992 190.195C208.886 190.781 208.875 191.362 208.758 191.944C202.182 194.133 192.05 194.41 185.219 193.691ZM259.566 179.59C257.983 175.413 255.868 171.456 253.274 167.819C254.44 168.869 255.488 170.034 256.538 171.083C264.688 179.394 273.752 191.818 280.31 201.498C275.99 205.461 271.803 209.539 267.374 213.618C265.973 202.424 263.445 189.53 259.566 179.59Z" fill="#42AB44"/>
<path d="M207.126 226.786C210.497 203.709 206.326 178.786 221.809 165.606C230.012 158.646 240.996 157.349 249.08 164.674C256 170.947 259.82 182.2 262.248 191.243C264.014 197.564 265.315 204.006 266.14 210.517C266.699 214.598 267.034 218.707 267.142 222.826C267.163 223.755 267.257 224.688 267.257 225.739C266.179 225.805 210.265 226.629 207.126 226.786Z" fill="#42AB44"/>
</svg>
