<svg width="480" height="320" viewBox="0 0 480 320" fill="none" xmlns="http://www.w3.org/2000/svg">
<rect width="480" height="320" fill="url(#paint0_linear_21293_20317)" fill-opacity="0.5"/>
<path d="M331.441 203.416C332.254 203.587 334.062 203.118 334.311 202.558C334.577 201.962 334.151 204.722 335.169 204.53C336.036 204.251 336.838 203.799 337.526 203.202C336.726 206.744 339.982 205.259 340.182 203.587C340.311 202.515 339.967 206.072 341.081 205.814C341.821 205.636 342.495 205.251 343.026 204.705C343.557 204.159 343.923 203.474 344.081 202.73C344.553 200.81 346.481 191.16 346.481 191.16L333.969 186.875C329.921 187.901 329.124 190.762 328.049 195.659L331.702 196.619L331.348 199.904C331.348 199.904 330.626 203.243 331.441 203.416Z" fill="white"/>
<path d="M323.403 199.605C292.619 198.88 300.249 199.594 259.323 194.074C259.323 194.074 255.803 212.971 255.723 220.856C255.188 269.949 256.167 273.016 257.694 299.317C253.867 301.25 241.66 307.446 238.753 310.029C238.753 310.029 256.065 311.594 262.15 311.443C268.235 311.293 277.363 312.128 277.662 311.142C277.958 307.78 277.799 304.394 277.191 301.074C276.5 297.946 277.919 288.989 278.006 279.954C278.121 267.678 278.689 226.427 290.561 223.776C290.561 223.776 294.931 222.448 295.231 222.533C297.126 223.074 308.276 300.32 308.3 300.48C308.3 300.48 306.929 309.44 308.001 311.149C316.641 311.629 344.191 310.714 345.71 310.421C341.628 306.704 332.188 302.131 326.942 299.541C326.561 236 325.647 212.264 323.403 199.605Z" fill="white"/>
<path d="M263.906 85.232C263.607 97.048 269.559 105.669 281.133 103.272C281.133 103.272 279.804 106.4 280.961 107.472C281.993 108.378 283.236 109.01 284.577 109.31C285.917 109.609 287.311 109.566 288.631 109.186C299.511 106.754 290.119 102.803 292.791 96.9313C294.506 93.16 297.076 89.5169 295.405 84.9745C295.405 84.9745 301.105 85.104 302.519 82.704C303.933 80.304 304.18 77.6193 302.989 76.7841C300.994 75.9016 298.731 75.8401 296.69 76.6128C294.548 77.384 288.882 76.9616 287.049 74.1696C284.908 71.1052 283.138 67.7972 281.778 64.3152C281.778 64.3152 270.337 67.5712 265.458 67.9568C265.449 67.9632 264.277 70.632 263.906 85.232Z" fill="white"/>
<path d="M307.564 77.8768C306.39 69.9472 308.044 64.4192 304.787 59.008C300.875 52.5216 290.627 47.8208 283.876 54.1216C282.924 52.7619 281.642 51.6666 280.15 50.9389C278.658 50.2111 277.006 49.8748 275.348 49.9616C260.628 50.0256 254.251 62.136 262.622 66.9728C261.761 67.2928 258.609 88.9648 258.593 89.1264C258.51 90.0208 257.681 102.326 257.953 103.139C258.623 105.162 273.399 106.563 278.606 106.096C278.692 106.139 281.305 104.512 280.15 104.125C277.233 103.146 275.049 104.211 272.31 102.845C269.816 101.065 267.655 98.8611 265.926 96.3328C266.006 96.1728 263.892 96.4368 264.854 75.7632C264.988 72.8832 265.863 70.192 264.555 67.7936C272.099 66.536 269.137 68.4656 281.867 64.3216C282.097 69.1808 286.839 75.2816 292.279 76.6208C296.251 77.5968 297.935 76.064 300.668 76.112C306.041 76.2048 306.108 85.6 296.607 84.8048C296.346 84.8087 296.094 84.9059 295.897 85.079C295.701 85.252 295.572 85.4896 295.535 85.7488C296.507 90.7824 294.359 92.56 293.265 96.8032C292.745 98.816 291.924 100.426 293.036 102.141C298.235 110.157 307.804 112.789 311.991 111.973C314.475 111.493 315.212 108.688 315.177 105.691C315.031 93.8512 309.3 89.5872 307.564 77.8768Z" fill="#FFB949"/>
<path d="M346.524 309.814C343.05 307.428 339.444 305.238 335.725 303.254C336.33 302.55 336.97 301.877 337.645 301.24C338.157 300.76 337.381 300.032 336.874 300.469C336.1 301.15 335.383 301.896 334.732 302.696C333.874 302.226 332.972 301.797 332.074 301.325C332.804 300.55 333.58 299.822 334.401 299.144C334.498 299.041 334.551 298.903 334.548 298.762C334.546 298.62 334.488 298.485 334.388 298.386C334.288 298.285 334.153 298.227 334.012 298.226C333.87 298.222 333.732 298.275 333.629 298.373C329.868 301.28 332.69 301.4 327.289 299.059C326.977 265.37 327.609 232.819 323.769 199.474C323.689 198.787 322.618 198.787 322.697 199.474C326.265 230.906 326.253 265.792 326.253 299.102C320.426 299.659 314.554 299.488 308.727 300.088C304.818 278.634 303.783 260.603 299.813 240.139C296.025 220.597 294.196 222.904 297.972 223.126C298.657 223.168 298.657 222.101 297.972 222.056C285.938 221.272 282.529 229.416 280.573 241.125C276.124 267.808 278.545 264.485 276.546 300.474C270.466 300.045 264.162 300.602 258.205 299.144C258.045 299.144 252.348 233.613 259.485 194.931C259.612 194.245 258.583 193.987 258.457 194.63C253.319 220.822 254.5 246.691 255.757 276.52C256.217 287.434 256.983 297.381 257.17 299.358C256.013 299.874 254.813 300.387 253.65 300.944C252.807 300.027 251.89 299.181 250.908 298.416C250.788 298.345 250.646 298.325 250.511 298.358C250.377 298.391 250.261 298.476 250.188 298.593C250.115 298.711 250.091 298.853 250.122 298.988C250.152 299.124 250.234 299.242 250.351 299.317C251.161 299.957 251.933 300.643 252.665 301.373C248.701 303.174 250.885 303.32 247.695 300.515C247.17 300.056 246.404 300.821 246.924 301.288C247.634 301.918 248.306 302.59 248.937 303.301C245.13 305.325 241.413 307.514 237.796 309.861C237.699 309.921 237.624 310.01 237.581 310.116C237.539 310.222 237.531 310.339 237.56 310.449C237.589 310.559 237.653 310.657 237.741 310.729C237.83 310.8 237.939 310.842 238.053 310.846C252.453 311.986 262.303 312.003 273.962 312.003C278.487 312.003 278.762 312.552 278.461 306.261C278.351 304.441 278.079 302.634 277.647 300.862C279.271 276.506 277.13 269.562 281.247 243.827C282.738 234.507 284.607 223.736 294.745 223.045C294.723 223.092 294.713 223.143 294.713 223.194C294.713 223.246 294.723 223.297 294.745 223.344C304.092 253.498 305.573 298.363 307.9 300.691C307.085 303.836 306.81 307.096 307.085 310.333C307.245 312.141 308.319 311.917 309.957 311.917C324.629 311.917 330.039 312.038 346.252 310.797C346.336 310.793 346.418 310.769 346.492 310.727C346.565 310.685 346.628 310.627 346.674 310.556C346.721 310.486 346.75 310.406 346.76 310.322C346.77 310.238 346.759 310.153 346.73 310.074C346.69 309.968 346.618 309.877 346.524 309.814ZM277.233 310.454C277.063 311.792 244.697 310.17 239.61 309.814C242.839 307.745 246.156 305.815 249.551 304.03C250.21 304.874 250.812 305.762 251.351 306.686C251.689 307.29 252.631 306.73 252.293 306.13C251.772 305.216 251.184 304.342 250.533 303.515C251.476 303.045 252.377 302.573 253.319 302.144C254.196 303.188 254.957 304.323 255.591 305.53C255.898 306.125 256.842 305.611 256.533 304.973C255.929 303.796 255.196 302.689 254.348 301.674C255.505 301.115 256.705 300.602 257.868 300.088C263.996 301.587 270.423 301.03 276.636 301.459C277.327 304.405 277.529 307.446 277.233 310.458V310.454ZM309.671 310.883C308.391 310.883 308.085 311.096 308.085 310.112C307.861 307.123 308.093 304.118 308.772 301.198C314.729 300.598 320.772 300.813 326.727 300.17C327.954 300.632 329.156 301.162 330.325 301.755C329.505 302.782 328.787 303.887 328.183 305.054C327.879 305.653 328.783 306.211 329.125 305.613C329.732 304.41 330.464 303.275 331.311 302.227C332.212 302.656 333.111 303.126 334.01 303.598C333.376 304.426 332.803 305.3 332.297 306.211C331.954 306.811 332.903 307.373 333.239 306.77C333.765 305.845 334.354 304.958 334.999 304.112C338.3 305.872 341.513 307.792 344.641 309.854C327.521 311.134 309.511 310.88 309.671 310.88V310.883Z" fill="#501200"/>
<path d="M354.664 153.194C354.504 116.874 329.036 117.194 294.46 104.472L293.388 107.472C292.445 108.328 289.068 108.834 287.775 108.886C285.031 108.995 282.16 108.758 280.49 106.443C278.378 105.136 231.21 98.8064 198.002 93.4608C196.661 104.512 195.775 108.122 197.144 107.6C216.69 116.573 238.14 126.91 258.442 134.221C259.684 194.381 257.061 195.082 259.021 195.789C272.647 198.512 286.482 200.06 300.373 200.416C312.312 200.554 315.885 200.603 319.573 200.288C325.589 199.771 325.984 200.312 319.842 138.528C329.936 143.053 338.613 143.382 335.943 166.267C335.245 172.245 333.626 183.373 332.642 187.307C337.472 188.057 342.08 189.856 346.141 192.578C351.787 180.217 354.695 166.782 354.664 153.194Z" fill="#FCCAC2"/>
<path d="M183.818 85.3184C183.311 86.9952 186.074 88.1312 187.498 89.5584C188.986 91.0464 185.276 87.6384 178.538 86.0896C176.676 85.6576 174.242 84.9456 173.396 86.6464C172.156 89.1344 178.356 89.76 175.196 89.3456C173.828 89.168 171.374 88.7056 170.353 89.7744C169.486 90.68 169.762 92.2224 171.854 93.2032C173.945 94.184 173.385 93.4384 171.51 93.6304C169.553 93.832 169.004 96.2032 171.895 97.4016C172.817 97.7888 173.762 98.1168 174.724 98.3872C173.196 98.3872 171.134 98.3664 171.297 100.23C171.476 102.291 174.337 102.622 176.524 103.101C182.958 104.617 189.551 105.349 196.161 105.28C196.303 105.28 196.439 105.224 196.54 105.123C196.64 105.023 196.697 104.886 196.697 104.744C196.697 104.602 196.64 104.466 196.54 104.365C196.439 104.264 196.303 104.208 196.161 104.208C189.498 104.228 182.856 103.48 176.364 101.981C174.836 101.645 172.812 101.341 172.422 100.438C171.906 99.2432 173.713 99.5376 174.735 99.5376H180.481C180.623 99.5376 180.759 99.4811 180.86 99.3806C180.96 99.2801 181.017 99.1438 181.017 99.0016C181.017 98.8595 180.96 98.7231 180.86 98.6226C180.759 98.5221 180.623 98.4656 180.481 98.4656C171.729 97.5312 163.374 92.0176 181.852 96.5456C181.985 96.5755 182.124 96.5535 182.242 96.4842C182.359 96.4148 182.446 96.3034 182.484 96.1725C182.522 96.0416 182.509 95.9011 182.447 95.7796C182.385 95.6581 182.279 95.5647 182.151 95.5184C178.617 94.5893 175.152 93.4131 171.783 91.9984C169.748 90.7904 170.009 88.3008 184.295 92.8128C184.98 93.0288 185.198 92.032 184.594 91.784C184.434 91.7184 175.279 88.04 175.039 87.9264C173.551 87.2256 174.006 85.9424 179.023 87.3696C182.47 88.3136 185.729 89.8336 188.665 91.8688C188.921 93.2688 188.966 94.6992 188.794 96.112C188.751 96.7968 189.812 96.7968 189.866 96.112C190.484 88.0432 186.599 88.4224 184.938 86.128C184.63 85.704 184.938 85.2736 185.418 85.1424C186.794 84.7584 193.191 88.56 196.986 94.0112C197.374 94.568 198.326 94.048 197.93 93.4544C195.082 89.2256 185.223 80.6672 183.818 85.3184Z" fill="#501200"/>
<path d="M300.588 80.5616C300.725 80.5946 300.869 80.5724 300.989 80.4999C301.109 80.4274 301.196 80.3104 301.23 80.1744C301.247 80.107 301.251 80.0368 301.241 79.9679C301.231 79.899 301.207 79.8328 301.171 79.7731C301.135 79.7135 301.088 79.6615 301.032 79.6202C300.976 79.579 300.912 79.5493 300.844 79.5328C299.105 79.0368 296.587 80.0448 297.164 80.904C297.528 81.8256 298.64 79.912 300.588 80.5616Z" fill="#501200"/>
<path d="M273.977 85.832C274.276 86.432 275.223 85.9168 274.919 85.2752C274.369 84.1152 273.172 83.6368 272.263 82.7904C270.503 81.1584 272.22 80.2784 272.777 79.6624C274.485 77.7712 274.041 75.0816 273.591 72.8048C273.455 72.1216 272.428 72.4208 272.562 73.1056C273.127 74.8917 273.036 76.8208 272.305 78.5456C271.727 79.4144 269.215 80.8336 271.148 83.1744C271.962 84.16 273.377 84.64 273.977 85.8304V85.832Z" fill="#501200"/>
<path d="M279.591 75.7344C279.345 76.7296 279.607 78.3504 280.711 78.4544C281.511 78.5344 281.932 77.4304 281.767 76.4816C281.574 75.4128 279.974 74.1904 279.591 75.7344Z" fill="#501200"/>
<path d="M266.815 76.3328C266.666 77.328 266.975 78.7024 267.978 78.8048C268.767 78.8848 269.243 77.7296 269.019 76.7568C268.829 75.928 267.125 74.24 266.815 76.3328Z" fill="#501200"/>
<path d="M308.64 80.304C306.867 71.3008 311.89 59.824 298.269 52.1088C292.651 48.9248 287.2 50.048 284.349 53.2288C276.112 42.7728 247.989 57.2384 261.552 66.7696C259.328 80.1168 256.882 92.7088 256.882 101.994C256.881 102.1 256.912 102.204 256.971 102.293C257.029 102.382 257.113 102.451 257.212 102.492C257.31 102.532 257.418 102.543 257.523 102.522C257.627 102.5 257.722 102.449 257.797 102.373C257.847 102.323 257.886 102.264 257.913 102.199C257.94 102.134 257.954 102.064 257.954 101.994C257.93 91.6416 260.008 83.3936 262.538 67.3696C264.6 68.5296 264.757 68 264.552 68.6128C263.607 82.7888 263.154 86.5456 263.866 91.1952C265.128 99.4304 270.746 105.808 280.186 104.05C279.891 104.789 280.058 104.586 279.759 104.736C277.542 106.287 275.781 108.403 274.658 110.864C273.885 112.592 275.666 112.88 277.615 114.163C283.773 118.216 284.975 121.267 285.328 119.52C285.714 116.778 286.143 114.08 286.528 111.334C288.072 114.306 289.925 117.108 292.056 119.691C292.117 119.749 292.19 119.791 292.27 119.816C292.35 119.841 292.434 119.848 292.517 119.836C292.599 119.823 292.678 119.792 292.747 119.744C292.816 119.697 292.873 119.634 292.914 119.562C299.267 108.042 298.928 108.125 298.741 107.434C297.655 105.465 296.016 103.857 294.027 102.808C293.276 101.632 292.886 100.261 292.907 98.8656C293.303 95.072 298.04 91.8384 296.207 85.2384C304.893 85.5328 305.848 78.944 303.448 76.6688C301.095 74.4288 297.791 76.4 295.091 76.5824C290.211 76.912 284.359 73.472 282.536 63.856C282.283 62.5232 279.048 65.0496 271.746 66.4608C265.269 67.7088 264.522 67.376 262.389 66.0176C258.755 63.7008 257.603 59.5792 261.797 55.8416C267.842 50.456 279.877 48.1616 283.866 54.3008C284.757 55.6752 285.12 51.9488 290.378 51.3008C296.387 50.5584 304.786 56.3024 306.576 63.856C307.775 68.912 306.693 74.184 307.434 79.3248C308.911 89.584 318.794 100.661 313.261 110.65C312.927 111.253 313.869 111.811 314.203 111.206C319.928 100.878 310.539 89.9376 308.64 80.304ZM284.429 118.224C281.965 115.723 279.133 113.613 276.031 111.968C275.421 111.648 275.448 111.6 275.643 111.11C276.6 109.066 278.042 107.287 279.843 105.926C280.046 106.817 280.489 107.636 281.123 108.293C281.758 108.95 282.56 109.421 283.443 109.654C284.159 109.835 284.891 109.936 285.629 109.954C285.247 112.699 284.818 115.442 284.432 118.226L284.429 118.224ZM294.242 106.864C294.592 106.067 294.653 105.173 294.413 104.336C295.234 104.88 295.981 105.526 296.642 106.256C297.903 107.675 297.96 107.728 297.112 109.085C296.807 109.773 294.179 114.845 292.312 118.298C290.244 115.682 288.462 112.852 286.999 109.856C289.456 109.6 293.12 109.39 294.24 106.88L294.242 106.864ZM265.618 68.5552C265.618 67.5312 269.261 69.2224 281.6 64.6992C283.736 74.384 290.165 78.224 295.613 77.5536C297.919 77.2704 301.704 75.4576 303.069 77.9824C303.296 78.4638 303.417 78.9881 303.424 79.5201C303.432 80.0522 303.325 80.5796 303.112 81.0672C301.947 84.064 298.098 84.3248 295.355 84.1536C293.714 84.1536 297.152 87.416 294.075 93.2736C292.906 95.496 291.314 97.8176 291.847 100.474C292.418 103.314 297.339 108.474 286.275 108.829C281.759 108.976 280.106 106.109 281.135 104.33C281.191 104.245 281.217 104.145 281.21 104.044C281.202 103.943 281.16 103.847 281.091 103.773C282.59 103.404 284.053 102.902 285.463 102.272C286.103 102 285.543 101.061 284.904 101.328C278.791 103.901 272.437 104.181 268.235 99.016C262.72 92.2576 264.621 82.2624 265.621 68.5632L265.618 68.5552Z" fill="#501200"/>
<path d="M279.681 88.0608C274.859 90.472 272.036 89.64 272.782 90.76C272.782 91.0608 274.263 94.912 274.495 95.4736C275.916 98.9152 278.75 99.184 280.153 97.1456C281.791 94.7552 281.564 87.36 279.681 88.0608Z" fill="#501200"/>
<path d="M281.476 70.9201C281.828 71.3601 282.743 70.8929 282.247 70.1489C280.903 68.4513 278.097 68.2529 278.219 69.1633C278.224 69.2976 278.271 69.4269 278.353 69.5334C278.435 69.64 278.548 69.7186 278.676 69.7585C278.761 69.7853 278.85 69.7946 278.939 69.7857C279.423 69.7425 279.911 69.8241 280.355 70.0227C280.799 70.2212 281.185 70.5302 281.476 70.9201Z" fill="#501200"/>
<path d="M266.22 72.72C266.348 72.7813 266.493 72.795 266.63 72.7587C266.767 72.7223 266.887 72.6383 266.967 72.5216C267.436 71.8779 268.136 71.4418 268.921 71.3056C270.284 71.3056 269.951 70.2336 269.35 70.2336C267.334 70.24 265.193 72.2064 266.22 72.72Z" fill="#501200"/>
<path d="M258.894 127.398C258.279 127.398 258.164 128.106 258.164 132.712C258.163 132.818 258.194 132.923 258.253 133.011C258.312 133.1 258.396 133.169 258.494 133.21C258.592 133.251 258.7 133.261 258.805 133.24C258.909 133.219 259.005 133.167 259.079 133.091C259.129 133.041 259.169 132.982 259.196 132.917C259.222 132.852 259.236 132.782 259.236 132.712C259.236 128.053 259.815 127.398 258.894 127.398Z" fill="#501200"/>
<path d="M320.385 138.797C319.425 134.886 320.545 133.483 319.484 133.483C318.315 133.483 319.108 137.963 319.399 139.096C319.521 139.739 320.555 139.482 320.385 138.797Z" fill="#501200"/>
<path d="M350.552 210.443C351.492 202.245 347.499 198.034 345.752 197.384C346.07 195.818 346.345 194.243 346.576 192.661C346.576 192.061 345.504 192.102 345.419 192.746C345.083 195.261 343.766 204.242 341.304 205.301C340.865 205.49 340.79 205.368 340.79 203.758C340.788 202.899 340.846 202.04 340.961 201.187C340.995 201.052 340.975 200.91 340.906 200.789C340.838 200.668 340.725 200.579 340.592 200.539C340.458 200.5 340.314 200.515 340.191 200.58C340.068 200.645 339.975 200.755 339.932 200.888C338.82 203.709 338.537 205.144 338.012 204.829C337.532 204.544 338.84 200.64 338.913 200.202C338.947 200.067 338.927 199.924 338.858 199.803C338.79 199.683 338.677 199.593 338.544 199.554C338.41 199.514 338.266 199.529 338.143 199.594C338.02 199.659 337.927 199.77 337.884 199.902C337.705 200.4 336.976 203.546 335.313 203.93C334.344 204.154 334.993 202.366 335.227 201.402C337.201 197.848 335.056 197.853 335.056 198.616C335.236 198.616 334.782 198.878 334.241 200.93C333.779 201.856 332.67 203.312 331.67 202.859C330.337 202.346 333.227 195.765 331.884 195.574C331.796 195.555 328.55 194.963 328.499 194.888C328.393 194.728 329.259 188.445 333.084 187.774C333.772 187.654 333.472 186.624 332.785 186.746C329.576 187.32 328.267 190.667 327.6 193.859C327.539 194.127 327.495 194.399 327.47 194.672C326.522 194.842 325.618 195.198 324.809 195.719C324 196.241 323.303 196.919 322.758 197.712C321.531 199.556 320.726 201.648 320.401 203.838C315.804 202.774 311.107 202.2 306.388 202.125C302.681 202.848 302.294 206.075 297.268 222.266C289.873 246.056 295.404 245.368 307.166 248.747C350.544 261.206 353.107 261.371 356.017 258.517C357.596 256.966 358.288 252.576 361.716 237.52C367.235 213.186 366.52 214.72 350.552 210.443ZM325.87 204.915C326.024 203.812 326.554 202.796 327.37 202.039C328.186 201.281 329.239 200.828 330.35 200.755C330.078 202.552 330.171 203.525 331.348 203.923C331.769 204.037 332.213 204.038 332.634 203.925C333.056 203.813 333.44 203.592 333.748 203.283C333.638 205.386 335.59 205.427 336.876 204.141C336.625 206.269 338.816 206.57 339.705 204.57C339.705 204.526 339.747 204.483 339.747 204.398C339.747 207.554 342.574 206.523 343.672 204.36H343.689C344.316 204.235 344.632 208.299 344.632 208.987C335.305 206.79 332.057 206.21 325.87 204.915Z" fill="#501200"/>
<path d="M362.764 230.24C362.444 230.08 300.953 214.427 300.33 214.643C299.708 214.859 299.945 215.8 300.502 215.714C300.662 215.768 305.801 216.907 311.686 218.456C311.553 218.656 310.322 222.738 311.129 224.198C311.962 225.707 314.401 225.491 315.37 222.955C315.596 222.37 316.234 219.73 316.271 219.57C344.708 226.667 344.638 226.555 344.638 226.941C342.063 234.664 347.143 234.362 348.409 231.054C348.757 230.001 349.044 228.927 349.266 227.84C349.322 227.856 362.346 231.2 362.292 231.182C362.85 231.483 363.361 230.549 362.764 230.24Z" fill="white"/>
<path d="M281.733 8.48003C281.604 7.79363 280.575 8.09443 280.705 8.77923C282.569 18.6128 283.919 27.5456 285.074 36.5904C285.157 37.2304 286.233 37.2304 286.146 36.5472C286.306 36.5536 284.369 22.544 281.733 8.48003Z" fill="#FF7449"/>
<path d="M311.172 8.65763C311.422 8.01763 310.372 7.71843 310.143 8.35683C306.654 18.2773 303.693 28.3757 301.273 38.6096C301.113 39.2992 302.13 39.5952 302.302 38.9104C304.386 28.5905 307.354 18.469 311.172 8.65763Z" fill="#FF7449"/>
<path d="M338.21 21.6C338.727 21.1312 337.946 20.392 337.439 20.8288C329.578 27.5904 321.345 35.4032 314.214 42.168C313.785 42.648 314.514 43.4112 315.028 42.9392C315.263 42.9376 316.247 41.5488 338.21 21.6Z" fill="#FF7449"/>
<path d="M376.133 225.098C376.002 225.784 377.031 226.04 377.162 225.398C377.964 221.267 377.802 217.006 376.687 212.948C375.572 208.889 373.535 205.143 370.735 202.002C370.255 201.453 369.492 202.216 369.962 202.73C370.519 202.73 378.572 212.355 376.133 225.098Z" fill="#501200"/>
<path d="M386.633 228.098C386.409 228.738 387.433 229.037 387.66 228.398C389.138 224.22 389.67 219.765 389.218 215.356C388.766 210.947 387.342 206.693 385.047 202.901C384.663 202.261 383.718 202.816 384.103 203.416C384.582 203.416 391.137 215.21 386.633 228.098Z" fill="#501200"/>
<path d="M255.38 264.307C244.2 222.304 231.831 180.294 224.397 156.8C227.471 150.776 228.781 147.57 234.896 145.787C247.712 142.051 238.442 129.659 242.652 120.933C244.872 116.331 249.125 112.554 249.252 107.478C249.381 102.198 244.84 98.3584 242.309 93.9808C239.429 88.9888 240.428 84.0208 239.695 78.5968C238.66 70.9264 234.255 69.6 229.797 67.3696C223.674 64.3072 222.264 59.5632 218.613 54.5152C210.306 43.0288 204.295 49.7536 197.53 48.5152C191.33 47.3808 186.882 40.0352 180.004 40.76C173.284 41.4608 168.984 48.648 162.349 49.08C158.407 49.3328 154.333 47.7792 150.437 48.9952C143.788 51.0752 143.901 59.4304 139.21 63.5216C134.199 67.8912 125.674 66.096 121.855 74.7488C120.485 77.7515 120.272 81.1537 121.255 84.304C121.174 84.3981 121.127 84.5157 121.119 84.6392C121.111 84.7627 121.144 84.8854 121.212 84.9888C124.948 91.9248 114.512 98.7184 116.327 106.758C117.549 112.17 122.493 115.482 123.568 121.242C124.618 126.851 122.434 133.446 123.356 139.539C125.135 151.31 133.565 148.619 137.916 152.051C139.05 152.992 140.046 154.089 140.872 155.309C122.141 188.758 105.794 217.747 90.6515 249.152C90.4275 249.618 90.8243 250.355 91.3795 250.138C101.043 246.336 110.399 241.794 119.364 236.554C121.669 246.552 124.5 256.421 127.844 266.122C127.885 266.24 127.957 266.345 128.054 266.424C128.151 266.504 128.267 266.556 128.391 266.573C128.515 266.591 128.642 266.574 128.757 266.525C128.872 266.475 128.971 266.395 129.044 266.293C147.706 236.746 161.719 202.645 175.706 172.192C180.106 174.309 184.079 173.842 188.519 171.712C196.066 205.675 202.236 238.363 214.186 272.832C214.214 272.923 214.261 273.007 214.324 273.078C214.387 273.149 214.464 273.206 214.551 273.246C214.638 273.285 214.732 273.305 214.827 273.305C214.922 273.305 215.016 273.285 215.103 273.246C215.218 273.194 215.317 273.11 215.386 273.003C220.69 264.216 225.541 255.164 229.92 245.882C237.588 252.859 245.771 259.247 254.4 264.992C254.507 265.065 254.634 265.103 254.764 265.102C254.893 265.101 255.019 265.06 255.125 264.986C255.231 264.912 255.312 264.808 255.357 264.686C255.404 264.565 255.411 264.433 255.38 264.307Z" fill="#F15929"/>
<path d="M227.954 95.4737C219.914 62.2161 179.052 47.5473 152.664 72.5057C121.519 101.966 133.144 151.571 179.448 155.936C218.272 159.597 235.308 125.898 227.952 95.4737H227.954ZM213.3 145.309C199.096 157.702 174.789 157.456 158.58 148.566C121.176 128.056 135.877 73.9297 170.749 63.1265C179.935 60.4445 189.741 60.7965 198.711 64.1303C207.681 67.4641 215.337 73.6018 220.541 81.6321C233.357 101.338 229.696 131.002 213.3 145.309Z" fill="white"/>
<path d="M162.264 164.722C154.072 163.182 152.053 166.669 141.909 156.402C141.312 155.798 140.368 156.742 140.967 157.344C150.899 167.342 153.607 165.014 160.167 165.742C165.332 166.373 170.186 168.555 174.087 172C174.727 172.562 175.671 171.618 175.031 171.056C171.421 167.837 167.011 165.649 162.264 164.722Z" fill="white"/>
<path d="M223.283 157.95C214.618 170.014 200.314 154.939 189.903 170.634C189.423 171.357 190.591 172.008 191.059 171.32C201.242 156.365 214.346 171.525 224.397 158.594C224.903 157.944 223.768 157.28 223.283 157.95Z" fill="white"/>
<path d="M200.48 104.301C196.933 103.52 193.313 103.118 189.682 103.101C188.358 99.7936 185.165 94.3008 183.339 90.16C183.278 90.0614 183.193 89.9801 183.092 89.9236C182.991 89.8672 182.877 89.8376 182.761 89.8376C182.645 89.8376 182.531 89.8672 182.43 89.9236C182.329 89.9801 182.243 90.0614 182.182 90.16C180.018 94.467 178.088 98.8872 176.398 103.402C172.67 103.272 168.986 103.358 165.256 103.402C164.744 103.402 164.315 104.128 164.786 104.522C167.478 106.739 169.989 109.768 172.027 111.806C172.974 112.754 173.731 112.139 171.47 118.92C170.748 120.901 170.175 122.933 169.755 125C169.725 125.127 169.733 125.26 169.777 125.383C169.822 125.506 169.902 125.613 170.007 125.69C170.112 125.768 170.238 125.813 170.368 125.819C170.499 125.826 170.628 125.794 170.741 125.728C174.603 123.338 178.757 121.486 182.354 118.614C185.394 121.272 188.798 123.478 191.954 126.07C192.059 126.17 192.193 126.233 192.337 126.251C192.48 126.268 192.626 126.238 192.751 126.167C192.877 126.095 192.976 125.984 193.034 125.852C193.092 125.719 193.106 125.571 193.074 125.43C192.594 121.91 192.045 118.445 191.83 114.888C194.958 111.848 197.658 108.374 200.872 105.418C200.933 105.322 200.972 105.213 200.985 105.099C200.998 104.986 200.986 104.871 200.948 104.764C200.91 104.656 200.848 104.559 200.767 104.478C200.686 104.398 200.588 104.337 200.48 104.301Z" fill="white"/>
<defs>
<linearGradient id="paint0_linear_21293_20317" x1="-59.8518" y1="331.355" x2="470.293" y2="400.115" gradientUnits="userSpaceOnUse">
<stop stop-color="#F5AE4C"/>
<stop offset="1" stop-color="#9745FF"/>
</linearGradient>
</defs>
</svg>
