<svg width="333" height="37" viewBox="0 0 333 37" fill="none" xmlns="http://www.w3.org/2000/svg">
<path d="M12.472 33.328C12.016 33.448 11.608 33.328 11.248 32.968C10.912 32.608 10.672 32.08 10.528 31.384C10.384 30.688 10.408 29.896 10.6 29.008C10.72 28.72 10.816 28.432 10.888 28.144C10.96 27.88 10.996 27.664 10.996 27.496C11.044 27.304 11.164 26.884 11.356 26.236C11.548 25.564 11.776 24.796 12.04 23.932C12.328 23.068 12.604 22.216 12.868 21.376C13.156 20.512 13.396 19.792 13.588 19.216C13.804 18.616 13.936 18.28 13.984 18.208C14.08 18.208 14.164 18.124 14.236 17.956C14.308 17.788 14.344 17.62 14.344 17.452C14.344 17.26 14.38 17.044 14.452 16.804C14.548 16.564 14.644 16.396 14.74 16.3C14.74 16.18 14.764 16.048 14.812 15.904C14.884 15.736 14.92 15.604 14.92 15.508C14.92 15.412 14.944 15.316 14.992 15.22C15.064 15.124 15.1 15.028 15.1 14.932C15.244 14.668 15.46 14.176 15.748 13.456C16.06 12.712 16.408 11.848 16.792 10.864C17.2 9.856 17.608 8.824 18.016 7.768C18.424 6.688 18.808 5.668 19.168 4.708C19.528 3.748 19.816 2.956 20.032 2.332C20.248 1.708 20.356 1.348 20.356 1.252C20.356 1.06 20.488 0.867998 20.752 0.675998C21.016 0.459999 21.244 0.352 21.436 0.352C21.508 0.279999 21.592 0.231999 21.688 0.207999C21.808 0.183998 21.916 0.171998 22.012 0.171998C22.012 0.171998 22.06 0.219998 22.156 0.315998C22.252 0.411998 22.396 0.555999 22.588 0.747999C22.78 0.915998 22.984 1.168 23.2 1.504C23.416 1.816 23.524 2.116 23.524 2.404C23.524 2.716 23.488 2.992 23.416 3.232C23.344 3.472 23.2 3.82 22.984 4.276C22.768 4.732 22.432 5.44 21.976 6.4C21.904 6.592 21.76 6.928 21.544 7.408C21.328 7.888 21.088 8.428 20.824 9.028C20.584 9.628 20.332 10.216 20.068 10.792C19.828 11.344 19.624 11.812 19.456 12.196C19.312 12.58 19.24 12.796 19.24 12.844C19.24 12.94 19.192 13.084 19.096 13.276C19.024 13.468 18.94 13.708 18.844 13.996C18.748 14.188 18.616 14.476 18.448 14.86C18.28 15.22 18.1 15.616 17.908 16.048C17.74 16.456 17.596 16.816 17.476 17.128C17.356 17.416 17.296 17.584 17.296 17.632C17.296 17.728 17.284 17.824 17.26 17.92C17.26 18.016 17.212 18.112 17.116 18.208C17.02 18.208 16.96 18.28 16.936 18.424C16.936 18.544 16.936 18.604 16.936 18.604C16.936 18.844 16.744 19.48 16.36 20.512C16.192 21.04 15.988 21.724 15.748 22.564C15.508 23.404 15.244 24.304 14.956 25.264C14.692 26.2 14.44 27.112 14.2 28C13.96 28.912 13.756 29.704 13.588 30.376C13.444 31.048 13.372 31.516 13.372 31.78C13.372 32.356 13.264 32.728 13.048 32.896C12.856 33.088 12.664 33.232 12.472 33.328ZM3.04 21.772C2.896 21.772 2.716 21.772 2.5 21.772C2.284 21.748 2.044 21.688 1.78 21.592C1.42 21.592 1.132 21.52 0.916 21.376C0.7 21.232 0.544 21.076 0.448 20.908C0.184 20.548 0.208 20.284 0.52 20.116C0.832 19.924 1.432 19.78 2.32 19.684C2.584 19.612 3.124 19.552 3.94 19.504C4.756 19.456 5.716 19.42 6.82 19.396C7.948 19.348 9.124 19.312 10.348 19.288C11.596 19.264 12.784 19.252 13.912 19.252C15.064 19.228 16.06 19.216 16.9 19.216C17.764 19.192 18.352 19.18 18.664 19.18C19.288 19.18 19.708 19.228 19.924 19.324C20.14 19.42 20.38 19.6 20.644 19.864C21.004 20.224 21.088 20.596 20.896 20.98C20.728 21.364 20.368 21.508 19.816 21.412C19.648 21.436 19.372 21.46 18.988 21.484C18.628 21.508 18.232 21.544 17.8 21.592C17.704 21.592 17.308 21.604 16.612 21.628C15.94 21.628 15.076 21.64 14.02 21.664C12.988 21.664 11.884 21.676 10.708 21.7C9.556 21.7 8.428 21.712 7.324 21.736C6.244 21.736 5.32 21.748 4.552 21.772C3.784 21.772 3.28 21.772 3.04 21.772ZM3.544 33.328C3.088 33.448 2.68 33.328 2.32 32.968C1.984 32.608 1.744 32.08 1.6 31.384C1.456 30.688 1.48 29.896 1.672 29.008C1.792 28.72 1.888 28.432 1.96 28.144C2.032 27.88 2.068 27.664 2.068 27.496C2.116 27.304 2.236 26.884 2.428 26.236C2.62 25.564 2.848 24.796 3.112 23.932C3.4 23.068 3.676 22.216 3.94 21.376C4.228 20.512 4.468 19.792 4.66 19.216C4.876 18.616 5.008 18.28 5.056 18.208C5.152 18.208 5.236 18.124 5.308 17.956C5.38 17.788 5.416 17.62 5.416 17.452C5.416 17.26 5.452 17.044 5.524 16.804C5.62 16.564 5.716 16.396 5.812 16.3C5.812 16.18 5.836 16.048 5.884 15.904C5.956 15.736 5.992 15.604 5.992 15.508C5.992 15.412 6.016 15.316 6.064 15.22C6.136 15.124 6.172 15.028 6.172 14.932C6.316 14.668 6.532 14.176 6.82 13.456C7.132 12.712 7.48 11.848 7.864 10.864C8.272 9.856 8.68 8.824 9.088 7.768C9.496 6.688 9.88 5.668 10.24 4.708C10.6 3.748 10.888 2.956 11.104 2.332C11.32 1.708 11.428 1.348 11.428 1.252C11.428 1.06 11.56 0.867998 11.824 0.675998C12.088 0.459999 12.316 0.352 12.508 0.352C12.58 0.279999 12.664 0.231999 12.76 0.207999C12.88 0.183998 12.988 0.171998 13.084 0.171998C13.084 0.171998 13.132 0.219998 13.228 0.315998C13.324 0.411998 13.468 0.555999 13.66 0.747999C13.852 0.915998 14.056 1.168 14.272 1.504C14.488 1.816 14.596 2.116 14.596 2.404C14.596 2.716 14.56 2.992 14.488 3.232C14.416 3.472 14.272 3.82 14.056 4.276C13.84 4.732 13.504 5.44 13.048 6.4C12.976 6.592 12.832 6.928 12.616 7.408C12.4 7.888 12.16 8.428 11.896 9.028C11.656 9.628 11.404 10.216 11.14 10.792C10.9 11.344 10.696 11.812 10.528 12.196C10.384 12.58 10.312 12.796 10.312 12.844C10.312 12.94 10.264 13.084 10.168 13.276C10.096 13.468 10.012 13.708 9.916 13.996C9.82 14.188 9.688 14.476 9.52 14.86C9.352 15.22 9.172 15.616 8.98 16.048C8.812 16.456 8.668 16.816 8.548 17.128C8.428 17.416 8.368 17.584 8.368 17.632C8.368 17.728 8.356 17.824 8.332 17.92C8.332 18.016 8.284 18.112 8.188 18.208C8.092 18.208 8.032 18.28 8.008 18.424C8.008 18.544 8.008 18.604 8.008 18.604C8.008 18.844 7.816 19.48 7.432 20.512C7.264 21.04 7.06 21.724 6.82 22.564C6.58 23.404 6.316 24.304 6.028 25.264C5.764 26.2 5.512 27.112 5.272 28C5.032 28.912 4.828 29.704 4.66 30.376C4.516 31.048 4.444 31.516 4.444 31.78C4.444 32.356 4.336 32.728 4.12 32.896C3.928 33.088 3.736 33.232 3.544 33.328ZM5.236 14.536C5.092 14.536 4.912 14.536 4.696 14.536C4.48 14.512 4.24 14.452 3.976 14.356C3.616 14.356 3.328 14.296 3.112 14.176C2.92 14.032 2.776 13.876 2.68 13.708C2.416 13.348 2.428 13.072 2.716 12.88C3.028 12.688 3.628 12.544 4.516 12.448C4.78 12.376 5.32 12.316 6.136 12.268C6.952 12.22 7.924 12.184 9.052 12.16C10.18 12.112 11.356 12.076 12.58 12.052C13.828 12.028 15.016 12.016 16.144 12.016C17.296 11.992 18.292 11.98 19.132 11.98C19.996 11.956 20.584 11.944 20.896 11.944C21.52 11.944 21.94 11.992 22.156 12.088C22.372 12.184 22.612 12.364 22.876 12.628C23.236 12.988 23.32 13.36 23.128 13.744C22.936 14.128 22.564 14.272 22.012 14.176C21.844 14.2 21.58 14.224 21.22 14.248C20.86 14.272 20.464 14.308 20.032 14.356C19.936 14.356 19.54 14.368 18.844 14.392C18.172 14.392 17.308 14.404 16.252 14.428C15.22 14.428 14.116 14.44 12.94 14.464C11.764 14.464 10.624 14.476 9.52 14.5C8.44 14.5 7.516 14.512 6.748 14.536C5.98 14.536 5.476 14.536 5.236 14.536ZM26.1734 29.908C25.7414 29.932 25.3814 29.728 25.0934 29.296C24.8054 28.864 24.6734 28.504 24.6974 28.216C24.7214 27.832 24.8294 27.28 25.0214 26.56C25.2134 25.84 25.4294 25.108 25.6694 24.364C25.9094 23.62 26.1254 23.032 26.3174 22.6C26.4134 22.216 26.4974 21.88 26.5694 21.592C26.6654 21.28 26.7254 21.076 26.7494 20.98C26.8214 20.884 26.9294 20.632 27.0734 20.224C27.2414 19.816 27.3734 19.42 27.4694 19.036C27.5174 18.844 27.6134 18.484 27.7574 17.956C27.9254 17.404 28.1174 16.768 28.3334 16.048C28.5734 15.328 28.8014 14.62 29.0174 13.924C29.2574 13.228 29.4614 12.616 29.6294 12.088C29.7974 11.56 29.9054 11.212 29.9534 11.044C30.1454 10.756 30.2894 10.48 30.3854 10.216C30.4814 9.952 30.5414 9.772 30.5654 9.676C30.7094 9.58 30.7934 9.46 30.8174 9.316C30.8414 9.148 30.8534 9.016 30.8534 8.92C30.8534 8.8 30.8894 8.704 30.9614 8.632C31.0574 8.56 31.1054 8.476 31.1054 8.38C31.2014 8.308 31.2614 8.296 31.2854 8.344C31.3094 8.392 31.3814 8.356 31.5014 8.236L31.6814 7.012L34.8854 6.976C34.8374 7.264 34.7654 7.624 34.6694 8.056C34.5734 8.464 34.3454 9.016 33.9854 9.712C33.8654 10.192 33.7214 10.624 33.5534 11.008C33.4094 11.392 33.3494 11.644 33.3734 11.764C33.3254 11.812 33.2174 12.052 33.0494 12.484C32.9054 12.916 32.7254 13.444 32.5094 14.068C32.3174 14.692 32.1134 15.316 31.8974 15.94C31.7054 16.564 31.5254 17.116 31.3574 17.596C31.2134 18.052 31.1174 18.34 31.0694 18.46C30.8774 18.844 30.6614 19.408 30.4214 20.152C30.1814 20.896 29.8214 21.904 29.3414 23.176C29.1494 23.56 28.9094 24.136 28.6214 24.904C28.3574 25.672 28.1414 26.368 27.9734 26.992C27.7094 27.928 27.4694 28.6 27.2534 29.008C27.0614 29.416 26.8814 29.656 26.7134 29.728C26.5454 29.824 26.3654 29.884 26.1734 29.908ZM26.4974 8.74C25.5134 8.836 24.8414 8.716 24.4814 8.38C24.1454 8.044 24.0254 7.684 24.1214 7.3C24.1934 7.012 24.3614 6.772 24.6254 6.58C24.9134 6.364 25.4294 6.184 26.1734 6.04C26.4374 5.992 26.7734 5.932 27.1814 5.86C27.6134 5.788 28.0214 5.716 28.4054 5.644C29.1974 5.548 29.8454 5.464 30.3494 5.392C30.8774 5.32 31.4174 5.26 31.9694 5.212C32.5214 5.164 33.2174 5.116 34.0574 5.068C34.7534 5.02 35.3414 4.984 35.8214 4.96C36.3254 4.912 36.5774 4.888 36.5774 4.888C36.6494 4.888 36.9014 4.912 37.3334 4.96C37.7654 5.008 38.2334 5.068 38.7374 5.14C39.2414 5.212 39.6134 5.296 39.8534 5.392C40.4054 5.512 40.8494 5.728 41.1854 6.04C41.5214 6.352 41.7374 6.712 41.8334 7.12C41.9054 7.408 41.9054 7.636 41.8334 7.804C41.7614 7.948 41.6294 8.068 41.4374 8.164C40.8854 8.332 40.4294 8.476 40.0694 8.596C39.7334 8.692 39.3974 8.68 39.0614 8.56C38.9414 8.44 38.7974 8.332 38.6294 8.236C38.4854 8.14 38.2214 8.068 37.8374 8.02C37.4774 7.948 36.9014 7.888 36.1094 7.84C35.4374 7.912 34.8494 7.948 34.3454 7.948C33.8414 7.948 33.5894 8.008 33.5894 8.128L31.4654 8.236L29.7014 8.416C29.4614 8.44 29.1254 8.476 28.6934 8.524C28.2614 8.548 27.8414 8.584 27.4334 8.632C27.0254 8.656 26.7134 8.692 26.4974 8.74ZM33.9108 36.388C33.8148 36.388 33.6708 36.388 33.4788 36.388C33.3108 36.412 33.1668 36.316 33.0468 36.1C32.9508 35.98 32.8068 35.74 32.6148 35.38C32.4228 35.044 32.3868 34.564 32.5068 33.94C32.6268 33.532 32.7228 33.124 32.7948 32.716C32.8668 32.332 32.9028 32.044 32.9028 31.852C32.9028 31.756 32.9268 31.564 32.9748 31.276C33.0468 31.012 33.0828 30.82 33.0828 30.7C33.2028 30.508 33.2988 30.244 33.3708 29.908C33.4428 29.572 33.4788 29.272 33.4788 29.008C33.4788 28.72 33.6228 28.456 33.9108 28.216C33.9108 28.024 33.9468 27.784 34.0188 27.496C34.1148 27.208 34.1628 27.016 34.1628 26.92C34.2348 26.584 34.3908 25.996 34.6308 25.156C34.8948 24.292 35.2068 23.32 35.5668 22.24C35.9508 21.16 36.3228 20.104 36.6828 19.072C37.0428 18.04 37.3668 17.164 37.6548 16.444C37.9428 15.772 38.1828 15.148 38.3748 14.572C38.5668 13.996 38.6628 13.588 38.6628 13.348C38.6628 13.252 38.6868 13.18 38.7348 13.132C38.7828 13.06 38.8908 12.928 39.0588 12.736C39.2988 12.496 39.6108 12.412 39.9948 12.484C40.4028 12.532 40.7388 12.652 41.0028 12.844C41.1948 13.156 41.3268 13.444 41.3988 13.708C41.4948 13.948 41.4948 14.332 41.3988 14.86C41.3988 15.22 41.3148 15.556 41.1468 15.868C40.9788 16.156 40.8228 16.396 40.6788 16.588C40.5588 16.756 40.5228 16.828 40.5708 16.804C41.6268 16.156 42.5748 15.808 43.4148 15.76C44.2788 15.688 44.9988 15.832 45.5748 16.192C46.1748 16.528 46.6308 16.996 46.9428 17.596C47.2548 18.196 47.4108 18.844 47.4108 19.54C47.4108 19.828 47.3148 20.212 47.1228 20.692C46.9308 21.172 46.7148 21.628 46.4748 22.06C46.2348 22.468 46.0428 22.744 45.8988 22.888C45.8028 22.888 45.7068 22.972 45.6108 23.14C45.5148 23.284 45.4188 23.452 45.3228 23.644C45.1308 23.884 44.8068 24.16 44.3508 24.472C43.9188 24.76 43.4748 25 43.0188 25.192C42.5628 25.36 42.2388 25.408 42.0468 25.336C42.0468 25.336 42.0108 25.36 41.9388 25.408C41.8908 25.456 41.8668 25.54 41.8668 25.66C41.8668 25.708 41.6988 25.804 41.3628 25.948C41.0268 26.092 40.6308 26.224 40.1748 26.344C39.7188 26.464 39.2988 26.524 38.9148 26.524C38.4108 26.524 38.0508 26.428 37.8348 26.236C37.7868 26.284 37.7268 26.356 37.6548 26.452C37.6068 26.548 37.5828 26.632 37.5828 26.704C37.5828 26.848 37.5228 27.076 37.4028 27.388C37.3068 27.7 37.1868 27.976 37.0428 28.216C36.8988 28.48 36.7668 28.612 36.6468 28.612C36.6468 28.612 36.6228 28.648 36.5748 28.72C36.5268 28.792 36.5508 28.888 36.6468 29.008C36.6468 29.008 36.6348 29.14 36.6108 29.404C36.6108 29.692 36.5508 29.932 36.4308 30.124C36.4308 30.316 36.3948 30.604 36.3228 30.988C36.2508 31.372 36.1668 31.66 36.0708 31.852C36.0708 32.14 36.0228 32.416 35.9268 32.68C35.8548 32.968 35.7708 33.112 35.6748 33.112C35.5788 33.136 35.5188 33.28 35.4948 33.544C35.4708 33.832 35.4588 34.036 35.4588 34.156C35.4348 34.756 35.2428 35.272 34.8828 35.704C34.5228 36.16 34.1988 36.388 33.9108 36.388ZM38.5188 23.788C38.7108 23.788 39.0588 23.704 39.5628 23.536C40.0668 23.368 40.5948 23.164 41.1468 22.924C41.6988 22.66 42.1308 22.396 42.4428 22.132C43.0668 21.58 43.5468 21.04 43.8828 20.512C44.2428 19.984 44.2188 19.396 43.8108 18.748C43.6188 18.412 43.3068 18.28 42.8748 18.352C42.4668 18.4 42.0108 18.592 41.5068 18.928C41.0028 19.264 40.4868 19.684 39.9588 20.188C39.6708 20.5 39.4068 20.86 39.1668 21.268C38.9268 21.676 38.7228 22.072 38.5548 22.456C38.4108 22.84 38.3268 23.164 38.3028 23.428C38.2788 23.668 38.3508 23.788 38.5188 23.788ZM49.7843 27.244C49.6883 27.052 49.4723 26.86 49.1363 26.668C48.8243 26.476 48.6683 26.332 48.6683 26.236C48.6683 26.14 48.6083 25.996 48.4883 25.804C48.3923 25.588 48.2963 25.432 48.2003 25.336C48.0803 25.192 48.1163 24.844 48.3083 24.292C48.5003 23.716 48.7883 23.02 49.1723 22.204C49.5563 21.388 49.9763 20.56 50.4323 19.72C50.6243 19.528 50.8163 19.276 51.0083 18.964C51.2003 18.652 51.3443 18.448 51.4403 18.352C51.4403 18.256 51.4763 18.172 51.5483 18.1C51.6203 18.004 51.7043 17.956 51.8003 17.956L52.0883 17.38C52.1363 17.284 52.2803 17.092 52.5203 16.804C52.7843 16.516 53.0963 16.204 53.4563 15.868C53.8163 15.508 54.1763 15.172 54.5363 14.86C54.9203 14.548 55.2323 14.32 55.4723 14.176C55.9763 13.84 56.4923 13.684 57.0203 13.708C57.5723 13.732 58.0403 13.9 58.4243 14.212C58.4963 14.284 58.6523 14.428 58.8923 14.644C59.1563 14.86 59.4443 15.1 59.7563 15.364C60.0923 15.628 60.3803 15.868 60.6203 16.084L61.9523 17.272L61.3403 19.072C61.0283 20.032 60.9443 20.872 61.0883 21.592C61.2323 22.312 61.4603 22.936 61.7723 23.464C61.8923 23.728 62.0483 23.932 62.2403 24.076C62.4563 24.22 62.7323 24.316 63.0683 24.364C63.2603 24.388 63.4403 24.46 63.6083 24.58C63.7763 24.7 63.8603 24.892 63.8603 25.156C63.8603 25.732 63.7523 26.152 63.5363 26.416C63.3443 26.656 63.1283 26.8 62.8883 26.848C62.0963 26.944 61.3403 26.86 60.6203 26.596C59.9003 26.332 59.2523 25.648 58.6763 24.544C58.5803 24.4 58.4483 24.136 58.2803 23.752C58.1363 23.344 58.0523 23.08 58.0283 22.96C57.9323 23.08 57.8003 23.236 57.6323 23.428C57.4883 23.596 57.3443 23.752 57.2003 23.896C55.4963 25.624 54.0323 26.752 52.8083 27.28C51.6083 27.784 50.6003 27.772 49.7843 27.244ZM51.7643 24.256C51.9323 24.28 52.1963 24.196 52.5563 24.004C52.9163 23.788 53.3963 23.44 53.9963 22.96C54.8123 22.264 55.4843 21.688 56.0123 21.232C56.5403 20.776 57.0563 20.188 57.5603 19.468L58.3523 18.172C58.1123 17.62 57.8963 17.26 57.7043 17.092C57.5123 16.924 57.3203 16.84 57.1283 16.84C56.8163 16.84 56.4443 17.044 56.0123 17.452C55.5803 17.836 55.0883 18.412 54.5363 19.18C54.0083 19.924 53.4083 20.86 52.7363 21.988C52.4243 22.516 52.1843 23.032 52.0163 23.536C51.8483 24.016 51.7643 24.256 51.7643 24.256ZM74.8867 28.108C74.6947 28.108 74.5507 28.12 74.4547 28.144C74.3587 28.168 74.2147 28.144 74.0227 28.072C73.8547 28.024 73.5067 27.904 72.9787 27.712C72.7387 27.304 72.5947 26.896 72.5467 26.488C72.5227 26.056 72.5467 25.624 72.6187 25.192C72.7147 24.736 72.8467 24.292 73.0147 23.86C73.1827 23.428 73.3387 23.02 73.4827 22.636C73.4587 22.66 73.4227 22.672 73.3747 22.672C73.3267 22.672 73.2787 22.684 73.2307 22.708C73.0147 22.756 72.7987 22.804 72.5827 22.852C72.3667 22.876 72.1387 22.912 71.8987 22.96C71.5147 23.032 71.1427 23.104 70.7827 23.176C70.4227 23.224 70.0507 23.296 69.6667 23.392C69.5947 23.344 69.5107 23.296 69.4147 23.248C69.3427 23.2 69.2707 23.164 69.1987 23.14C69.1267 23.404 69.0667 23.692 69.0187 24.004C68.9707 24.316 68.9107 24.628 68.8387 24.94C68.7907 25.252 68.7187 25.564 68.6227 25.876C68.5507 26.164 68.4427 26.44 68.2987 26.704C67.7707 26.776 67.3867 26.8 67.1467 26.776C66.9067 26.752 66.5347 26.656 66.0307 26.488C65.8387 26.224 65.6947 25.96 65.5987 25.696C65.5267 25.408 65.4907 25.12 65.4907 24.832C65.4907 24.256 65.6107 23.68 65.8507 23.104C66.0907 22.504 66.3067 21.94 66.4987 21.412C66.5947 21.148 66.6667 20.908 66.7147 20.692C66.7867 20.452 66.8227 20.212 66.8227 19.972C66.8707 19.924 66.9547 19.768 67.0747 19.504C67.1947 19.216 67.3387 18.88 67.5067 18.496C67.7227 17.968 67.9507 17.404 68.1907 16.804C68.4307 16.204 68.6347 15.664 68.8027 15.184C68.9707 14.68 69.0667 14.344 69.0907 14.176C69.1147 13.6 69.4027 13.312 69.9547 13.312C70.3147 13.288 70.6987 13.408 71.1067 13.672C71.5147 13.936 71.8267 14.26 72.0427 14.644C72.2587 15.028 72.2467 15.4 72.0067 15.76C71.8867 16.072 71.7667 16.384 71.6467 16.696C71.5267 17.008 71.4067 17.332 71.2867 17.668C71.1667 17.98 71.0467 18.292 70.9267 18.604C70.8067 18.916 70.6867 19.228 70.5667 19.54C70.5427 19.636 70.5187 19.72 70.4947 19.792C70.4707 19.864 70.4347 19.948 70.3867 20.044C70.5307 20.02 70.6747 19.996 70.8187 19.972C70.9867 19.924 71.1307 19.864 71.2507 19.792C71.4907 19.792 71.8387 19.792 72.2947 19.792C72.7747 19.792 73.2067 19.792 73.5907 19.792C73.8307 19.912 74.0227 20.044 74.1667 20.188C74.3827 19.684 74.5987 19.18 74.8147 18.676C75.0307 18.148 75.2227 17.62 75.3907 17.092C75.5827 16.54 75.7267 16 75.8227 15.472C75.8947 15.136 76.0387 14.848 76.2547 14.608C76.4707 14.368 76.7227 14.164 77.0107 13.996C77.5387 14.188 78.0067 14.38 78.4147 14.572C78.8467 14.764 79.1227 15.172 79.2427 15.796C79.1467 16.012 79.0867 16.24 79.0627 16.48C79.0387 16.72 78.9787 16.948 78.8827 17.164C78.5707 17.932 78.2467 18.724 77.9107 19.54C77.5747 20.332 77.2627 21.136 76.9747 21.952C76.7107 22.744 76.4947 23.56 76.3267 24.4C76.2787 24.664 76.2067 24.928 76.1107 25.192C76.0147 25.456 75.9187 25.732 75.8227 26.02C75.7507 26.284 75.6907 26.548 75.6427 26.812C75.6187 27.076 75.5467 27.328 75.4267 27.568C75.3067 27.784 75.1267 27.964 74.8867 28.108ZM86.9588 27.676C86.6468 27.82 86.2868 27.88 85.8788 27.856C85.4708 27.832 84.9188 27.7 84.2228 27.46C84.1748 27.46 84.0068 27.352 83.7188 27.136C83.4308 26.92 83.1428 26.668 82.8548 26.38C82.5668 26.092 82.3748 25.852 82.2788 25.66C81.8948 25.108 81.7748 24.292 81.9188 23.212C82.0868 22.132 82.4708 20.836 83.0708 19.324C83.2388 18.964 83.4908 18.508 83.8268 17.956C84.1868 17.404 84.5348 16.9 84.8708 16.444C85.2308 15.964 85.4828 15.688 85.6268 15.616C85.6268 15.616 85.7588 15.568 86.0228 15.472C86.2868 15.376 86.6228 15.22 87.0308 15.004C87.1508 14.956 87.3548 14.896 87.6428 14.824C87.9548 14.752 88.2668 14.692 88.5788 14.644C88.9148 14.572 89.1428 14.548 89.2628 14.572C89.7428 14.596 90.2348 14.776 90.7388 15.112C91.2668 15.424 91.6988 15.796 92.0348 16.228C92.3708 16.636 92.4788 16.996 92.3588 17.308C92.3588 17.356 92.2868 17.512 92.1428 17.776C92.0228 18.016 91.8908 18.268 91.7468 18.532C91.6028 18.772 91.4828 18.952 91.3868 19.072C91.2668 19.216 91.0508 19.276 90.7388 19.252C90.4508 19.228 90.1868 19.132 89.9468 18.964C89.7068 18.796 89.5748 18.568 89.5508 18.28C89.5028 18.088 89.3228 17.908 89.0108 17.74C88.7228 17.572 88.5788 17.488 88.5788 17.488C88.3868 17.488 88.1348 17.68 87.8228 18.064C87.5108 18.448 87.1868 18.88 86.8508 19.36C86.4188 19.792 86.1068 20.26 85.9148 20.764C85.7468 21.244 85.6268 21.7 85.5548 22.132C85.5068 22.54 85.4468 22.852 85.3748 23.068C85.2788 23.308 85.2788 23.608 85.3748 23.968C85.4708 24.328 85.5908 24.532 85.7348 24.58C85.9508 24.604 86.2388 24.592 86.5988 24.544C86.9828 24.472 87.3788 24.388 87.7868 24.292C88.2188 24.172 88.6508 24.052 89.0828 23.932C89.5148 23.788 89.8988 23.644 90.2348 23.5C90.6908 23.212 91.0868 23.104 91.4228 23.176C91.7588 23.224 92.0108 23.272 92.1788 23.32C92.4428 23.416 92.5748 23.62 92.5748 23.932C92.5748 24.244 92.4668 24.58 92.2508 24.94C92.0348 25.276 91.7228 25.552 91.3148 25.768C90.9308 25.96 90.5828 26.176 90.2708 26.416C89.9828 26.632 89.8388 26.8 89.8388 26.92C89.7428 26.92 89.6348 26.956 89.5148 27.028C89.4188 27.076 89.3348 27.088 89.2628 27.064C89.2148 27.064 89.0228 27.1 88.6868 27.172C88.3508 27.244 88.0028 27.328 87.6428 27.424C87.3068 27.52 87.0788 27.604 86.9588 27.676ZM94.9247 28.432C94.6127 28.336 94.3247 28.144 94.0607 27.856C93.8207 27.568 93.6287 27.364 93.4847 27.244C93.4607 27.172 93.4247 27.1 93.3767 27.028C93.3527 26.956 93.3287 26.884 93.3047 26.812C93.3047 26.572 93.3287 26.404 93.3767 26.308C93.4487 26.212 93.6047 26.044 93.8447 25.804C94.0127 25.54 94.1807 25.396 94.3487 25.372C94.5167 25.348 94.6727 25.36 94.8167 25.408C95.2967 25.048 95.7527 24.712 96.1847 24.4C96.6407 24.064 97.0007 23.704 97.2647 23.32C97.6007 22.816 97.9247 22.3 98.2367 21.772C98.5727 21.244 98.8967 20.716 99.2087 20.188C99.3287 19.972 99.4607 19.72 99.6047 19.432C99.7487 19.144 99.8927 18.856 100.037 18.568C100.181 18.256 100.301 17.992 100.397 17.776C100.157 17.728 99.9887 17.68 99.8927 17.632C99.7967 17.56 99.6767 17.476 99.5327 17.38C99.4607 17.116 99.3647 16.828 99.2447 16.516C99.1487 16.204 99.0887 15.964 99.0647 15.796C99.0647 15.196 99.3527 14.824 99.9287 14.68C100.649 14.512 101.273 14.404 101.801 14.356C102.329 14.308 102.845 14.224 103.349 14.104C103.829 13.984 104.333 13.948 104.861 13.996C105.389 14.02 105.881 14.128 106.337 14.32C106.577 14.416 106.793 14.548 106.985 14.716C107.177 14.884 107.357 15.112 107.525 15.4C107.789 15.784 107.945 16.204 107.993 16.66C108.065 17.116 108.089 17.524 108.065 17.884C108.065 18.22 108.077 18.436 108.101 18.532C108.029 18.796 107.921 19.204 107.777 19.756C107.633 20.308 107.465 20.896 107.273 21.52C107.105 22.144 106.937 22.708 106.769 23.212C106.625 23.692 106.529 24.016 106.481 24.184C106.385 24.568 106.253 24.964 106.085 25.372C105.941 25.756 105.845 26.128 105.797 26.488C105.701 26.992 105.497 27.34 105.185 27.532C104.873 27.7 104.597 27.844 104.357 27.964C104.093 28.06 103.853 28.036 103.637 27.892C103.421 27.748 103.217 27.592 103.025 27.424C102.857 26.968 102.761 26.632 102.737 26.416C102.737 26.176 102.809 25.852 102.953 25.444C103.025 25.252 103.157 24.82 103.349 24.148C103.541 23.476 103.757 22.72 103.997 21.88C104.237 21.04 104.465 20.272 104.681 19.576C104.897 18.856 105.041 18.352 105.113 18.064C105.161 17.824 105.197 17.62 105.221 17.452C105.245 17.26 105.245 17.08 105.221 16.912C105.053 16.864 104.813 16.84 104.501 16.84C104.189 16.84 103.901 16.864 103.637 16.912C103.589 16.936 103.529 16.948 103.457 16.948C103.409 16.948 103.361 16.96 103.313 16.984C103.217 17.416 103.097 17.848 102.953 18.28C102.809 18.688 102.629 19.132 102.413 19.612C102.221 20.068 101.981 20.584 101.693 21.16C101.429 21.736 101.105 22.384 100.721 23.104C100.481 23.584 100.241 24.016 100.001 24.4C99.7607 24.784 99.5087 25.144 99.2447 25.48L98.8127 26.056C98.6687 26.2 98.5127 26.356 98.3447 26.524C98.1767 26.692 98.0207 26.848 97.8767 26.992C97.7327 27.112 97.6127 27.22 97.5167 27.316L96.4007 28.18C96.1847 28.348 95.9567 28.432 95.7167 28.432C95.4767 28.432 95.2127 28.432 94.9247 28.432ZM119.976 28.108C119.232 27.844 118.62 27.376 118.14 26.704C117.684 26.008 117.36 25.288 117.168 24.544C117.072 24.64 116.976 24.736 116.88 24.832C116.808 24.904 116.712 25 116.592 25.12C116.232 25.504 115.812 25.9 115.332 26.308C114.852 26.716 114.36 27.064 113.856 27.352C113.352 27.616 112.848 27.724 112.344 27.676C111.96 27.412 111.588 27.16 111.228 26.92C110.892 26.656 110.628 26.296 110.436 25.84C110.436 25.816 110.424 25.804 110.4 25.804C110.4 25.804 110.4 25.792 110.4 25.768C110.208 25.216 110.064 24.724 109.968 24.292C109.896 23.836 109.92 23.236 110.04 22.492C110.184 21.748 110.46 20.692 110.868 19.324C111.036 18.748 111.216 18.172 111.408 17.596C111.6 16.996 111.792 16.456 111.984 15.976C112.176 15.472 112.356 15.052 112.524 14.716C112.692 14.38 112.848 14.164 112.992 14.068C113.112 14.068 113.22 14.068 113.316 14.068C113.412 14.044 113.508 14.032 113.604 14.032C113.82 14.032 114.084 14.152 114.396 14.392C114.588 14.512 114.768 14.644 114.936 14.788C115.128 14.932 115.248 15.064 115.296 15.184C115.44 15.448 115.392 15.976 115.152 16.768C114.912 17.56 114.624 18.424 114.288 19.36C113.976 20.272 113.688 21.172 113.424 22.06C113.184 22.924 113.112 23.596 113.208 24.076C113.472 24.004 113.712 23.92 113.928 23.824C114.168 23.704 114.384 23.56 114.576 23.392C114.984 23.104 115.356 22.768 115.692 22.384C116.028 22 116.316 21.604 116.556 21.196C116.82 20.764 117.024 20.368 117.168 20.008C117.384 19.456 117.576 18.976 117.744 18.568C117.912 18.136 118.044 17.776 118.14 17.488C118.236 17.176 118.296 16.912 118.32 16.696C118.368 16.48 118.392 16.288 118.392 16.12C118.368 15.688 118.416 15.376 118.536 15.184C118.68 14.968 118.944 14.752 119.328 14.536C119.52 14.536 119.712 14.548 119.904 14.572C120.096 14.572 120.276 14.584 120.444 14.608C120.636 14.776 120.828 14.968 121.02 15.184C121.236 15.376 121.44 15.568 121.632 15.76C121.824 16.312 121.8 16.972 121.56 17.74C121.344 18.484 121.104 19.264 120.84 20.08C120.576 20.92 120.36 21.76 120.192 22.6C120.048 23.416 120.168 24.136 120.552 24.76C120.912 24.592 121.248 24.4 121.56 24.184C121.872 23.944 122.184 23.704 122.496 23.464C122.808 23.224 123.12 23.008 123.432 22.816C123.816 23.056 124.116 23.476 124.332 24.076C124.548 24.676 124.656 25.192 124.656 25.624C124.584 25.72 124.5 25.804 124.404 25.876C124.332 25.948 124.248 26.02 124.152 26.092C123.96 26.452 123.612 26.824 123.108 27.208C122.604 27.568 122.064 27.844 121.488 28.036C120.912 28.228 120.408 28.252 119.976 28.108ZM127.258 34.66C126.922 34.756 126.574 34.672 126.214 34.408C125.878 34.144 125.614 33.784 125.422 33.328C125.254 32.872 125.254 32.404 125.422 31.924C125.47 31.78 125.542 31.54 125.638 31.204C125.734 30.892 125.794 30.616 125.818 30.376C125.842 30.208 125.914 29.92 126.034 29.512C126.154 29.128 126.286 28.744 126.43 28.36C126.598 27.976 126.73 27.7 126.826 27.532C126.97 27.292 127.066 27.016 127.114 26.704C127.186 26.392 127.222 26.152 127.222 25.984C127.27 25.816 127.33 25.624 127.402 25.408C127.498 25.192 127.594 25.024 127.69 24.904C127.738 24.712 127.81 24.508 127.906 24.292C128.002 24.052 128.11 23.848 128.23 23.68C128.278 23.512 128.314 23.308 128.338 23.068C128.386 22.828 128.458 22.696 128.554 22.672C128.578 22.576 128.59 22.48 128.59 22.384C128.614 22.288 128.662 22.156 128.734 21.988C128.782 21.724 128.89 21.34 129.058 20.836C129.226 20.332 129.43 19.78 129.67 19.18C129.934 18.484 130.114 17.884 130.21 17.38C130.306 16.852 130.174 16.516 129.814 16.372C129.622 16.276 129.502 16.06 129.454 15.724C129.406 15.364 129.43 15.004 129.526 14.644C129.622 14.284 129.766 14.068 129.958 13.996C130.174 13.9 130.438 13.84 130.75 13.816C131.062 13.792 131.338 13.792 131.578 13.816C131.842 13.816 131.962 13.84 131.938 13.888C131.938 14.008 131.998 14.08 132.118 14.104C132.166 14.032 132.262 14.14 132.406 14.428C132.574 14.692 132.73 14.992 132.874 15.328C133.018 15.664 133.09 15.892 133.09 16.012C133.042 16.108 133.018 16.168 133.018 16.192C133.018 16.192 133.066 16.192 133.162 16.192C133.162 16.192 133.294 16.132 133.558 16.012C133.822 15.868 134.098 15.712 134.386 15.544C134.698 15.352 134.902 15.208 134.998 15.112C134.998 15.112 135.058 15.088 135.178 15.04C135.322 14.968 135.442 14.884 135.538 14.788C136.018 14.596 136.534 14.56 137.086 14.68C137.662 14.8 138.118 15.016 138.454 15.328C138.934 15.928 139.294 16.672 139.534 17.56C139.798 18.448 139.762 19.312 139.426 20.152C139.378 20.272 139.27 20.476 139.102 20.764C138.958 21.028 138.814 21.28 138.67 21.52C138.526 21.736 138.454 21.844 138.454 21.844C137.902 22.708 137.29 23.428 136.618 24.004C135.97 24.58 135.262 25.084 134.494 25.516C134.254 25.684 133.918 25.84 133.486 25.984C133.078 26.128 132.694 26.236 132.334 26.308C131.998 26.38 131.794 26.392 131.722 26.344C131.458 26.152 131.218 25.744 131.002 25.12C130.882 25.432 130.762 25.744 130.642 26.056C130.546 26.344 130.486 26.536 130.462 26.632C130.438 26.8 130.414 26.944 130.39 27.064C130.366 27.16 130.306 27.244 130.21 27.316C130.21 27.316 130.198 27.364 130.174 27.46C130.15 27.556 130.066 27.7 129.922 27.892C129.682 28.588 129.49 29.128 129.346 29.512C129.202 29.92 129.082 30.244 128.986 30.484C128.914 30.748 128.842 31.024 128.77 31.312C128.722 31.96 128.566 32.644 128.302 33.364C128.062 34.084 127.714 34.516 127.258 34.66ZM132.622 22.96C132.718 22.912 132.886 22.828 133.126 22.708C133.39 22.588 133.678 22.444 133.99 22.276C134.302 22.084 134.59 21.904 134.854 21.736C135.142 21.544 135.346 21.376 135.466 21.232C135.658 21.016 135.766 20.848 135.79 20.728C135.814 20.584 135.874 20.356 135.97 20.044C136.042 19.852 136.126 19.636 136.222 19.396C136.318 19.156 136.402 18.928 136.474 18.712C136.57 18.52 136.606 18.328 136.582 18.136C136.582 17.92 136.51 17.74 136.366 17.596C136.27 17.572 136.042 17.608 135.682 17.704C135.346 17.8 134.95 17.992 134.494 18.28C134.062 18.568 133.63 18.988 133.198 19.54C132.694 20.188 132.358 20.776 132.19 21.304C132.022 21.808 131.986 22.216 132.082 22.528C132.178 22.816 132.358 22.96 132.622 22.96ZM144.03 36.568C143.934 36.592 143.79 36.556 143.598 36.46C143.43 36.364 143.286 36.196 143.166 35.956C143.046 35.716 143.01 35.404 143.058 35.02C142.962 34.684 142.974 34.264 143.094 33.76C143.238 33.28 143.538 32.56 143.994 31.6C144.234 31.216 144.45 30.76 144.642 30.232C144.858 29.704 145.098 29.176 145.362 28.648C145.482 28.432 145.686 28.06 145.974 27.532C146.286 27.004 146.622 26.38 146.982 25.66C147.366 24.916 147.714 24.148 148.026 23.356C147.402 24.004 146.862 24.616 146.406 25.192C145.974 25.744 145.578 26.188 145.218 26.524C144.882 26.836 144.522 26.98 144.138 26.956C143.826 26.884 143.454 26.68 143.022 26.344C142.59 26.008 142.314 25.636 142.194 25.228C142.098 24.7 142.062 24.028 142.086 23.212C142.134 22.396 142.29 21.16 142.554 19.504C142.746 18.688 142.83 18.064 142.806 17.632C142.806 17.176 142.746 16.84 142.626 16.624C142.506 16.408 142.35 16.216 142.158 16.048C141.846 15.76 141.822 15.448 142.086 15.112C142.35 14.776 142.65 14.524 142.986 14.356C143.49 14.236 143.886 14.212 144.174 14.284C144.486 14.332 144.798 14.536 145.11 14.896C145.302 15.208 145.494 15.544 145.686 15.904C145.878 16.264 145.974 16.78 145.974 17.452C145.974 17.74 145.962 18.064 145.938 18.424C145.914 18.76 145.89 19.072 145.866 19.36C145.842 19.648 145.818 19.876 145.794 20.044C145.554 20.932 145.338 21.7 145.146 22.348C144.954 22.996 144.918 23.32 145.038 23.32C145.518 22.936 145.926 22.564 146.262 22.204C146.622 21.844 147.006 21.412 147.414 20.908C147.822 20.404 148.326 19.744 148.926 18.928C149.142 18.52 149.358 18.124 149.574 17.74C149.79 17.356 149.97 16.96 150.114 16.552C150.258 16.24 150.45 15.916 150.69 15.58C150.93 15.22 151.098 15.028 151.194 15.004C151.314 14.956 151.482 14.968 151.698 15.04C151.914 15.112 152.118 15.196 152.31 15.292C152.526 15.364 152.634 15.424 152.634 15.472C152.658 15.496 152.778 15.52 152.994 15.544C153.21 15.568 153.426 15.592 153.642 15.616C153.858 15.616 153.966 15.652 153.966 15.724C153.966 15.772 153.894 15.952 153.75 16.264C153.63 16.576 153.486 16.924 153.318 17.308C153.15 17.692 152.994 18.04 152.85 18.352C152.73 18.64 152.682 18.808 152.706 18.856C152.754 18.904 152.718 19.084 152.598 19.396C152.478 19.684 152.334 20.008 152.166 20.368C152.022 20.728 151.89 21.052 151.77 21.34C151.53 22.132 151.254 22.924 150.942 23.716C150.63 24.484 150.258 25.252 149.826 26.02C149.682 26.308 149.466 26.752 149.178 27.352C148.914 27.952 148.65 28.54 148.386 29.116C148.146 29.716 147.954 30.172 147.81 30.484C147.714 30.676 147.57 30.976 147.378 31.384C147.21 31.816 147.018 32.284 146.802 32.788C146.61 33.292 146.418 33.76 146.226 34.192C146.034 34.648 145.89 34.996 145.794 35.236C145.746 35.692 145.638 36.028 145.47 36.244C145.254 36.46 144.954 36.568 144.57 36.568C144.21 36.568 144.03 36.568 144.03 36.568ZM163.104 28.216C162.936 28.312 162.708 28.276 162.42 28.108C162.156 27.94 161.892 27.688 161.628 27.352C161.46 27.064 161.328 26.776 161.232 26.488C161.16 26.176 161.124 25.72 161.124 25.12C161.148 24.64 161.148 24.316 161.124 24.148C161.124 23.956 161.016 23.944 160.8 24.112C160.608 24.256 160.212 24.616 159.612 25.192C159.012 25.792 158.436 26.308 157.884 26.74C157.356 27.148 156.924 27.34 156.588 27.316C156.42 27.316 156.192 27.208 155.904 26.992C155.616 26.776 155.34 26.512 155.076 26.2C154.812 25.864 154.62 25.552 154.5 25.264C154.356 24.688 154.344 23.944 154.464 23.032C154.608 22.12 154.836 21.172 155.148 20.188C155.46 19.18 155.808 18.244 156.192 17.38C156.6 16.492 156.996 15.784 157.38 15.256C157.788 14.704 158.136 14.44 158.424 14.464C158.832 14.512 159.18 14.716 159.468 15.076C159.78 15.412 160.02 15.784 160.188 16.192C160.284 16.36 160.32 16.504 160.296 16.624C160.296 16.744 160.2 16.888 160.008 17.056C159.792 17.344 159.528 17.764 159.216 18.316C158.928 18.844 158.628 19.42 158.316 20.044C158.028 20.668 157.764 21.268 157.524 21.844C157.308 22.396 157.152 22.852 157.056 23.212C156.96 23.572 156.96 23.752 157.056 23.752C157.392 23.752 157.704 23.668 157.992 23.5C158.28 23.308 158.64 23.008 159.072 22.6C159.576 22.096 160.02 21.592 160.404 21.088C160.788 20.56 161.184 19.96 161.592 19.288C161.904 18.808 162.228 18.28 162.564 17.704C162.924 17.128 163.152 16.72 163.248 16.48C163.584 15.856 163.836 15.388 164.004 15.076C164.172 14.764 164.376 14.572 164.616 14.5C164.736 14.5 164.904 14.5 165.12 14.5C165.336 14.5 165.444 14.5 165.444 14.5C165.588 14.524 165.756 14.632 165.948 14.824C166.14 14.92 166.332 15.052 166.524 15.22C166.74 15.388 166.848 15.532 166.848 15.652C166.752 15.892 166.596 16.252 166.38 16.732C166.188 17.188 166.044 17.524 165.948 17.74C165.492 18.772 165.048 19.792 164.616 20.8C164.208 21.784 163.908 22.792 163.716 23.824C163.668 24.16 163.656 24.556 163.68 25.012C163.728 25.444 163.8 25.756 163.896 25.948C163.968 26.092 164.052 26.26 164.148 26.452C164.268 26.62 164.4 26.764 164.544 26.884C164.76 27.028 164.748 27.208 164.508 27.424C164.292 27.64 164.016 27.832 163.68 28C163.368 28.144 163.176 28.216 163.104 28.216ZM162.708 12.304C161.868 12.328 161.196 12.1 160.692 11.62C160.188 11.14 159.732 10.312 159.324 9.136C159.252 8.872 159.24 8.632 159.288 8.416C159.336 8.176 159.396 7.996 159.468 7.876C159.636 7.684 159.828 7.576 160.044 7.552C160.284 7.504 160.452 7.504 160.548 7.552C160.884 7.672 161.184 7.84 161.448 8.056C161.712 8.248 161.832 8.584 161.808 9.064C161.856 9.184 161.892 9.304 161.916 9.424C161.964 9.52 162 9.592 162.024 9.64C162.096 9.808 162.204 9.904 162.348 9.928C162.492 9.928 162.6 9.916 162.672 9.892C163.152 9.7 163.572 9.508 163.932 9.316C164.316 9.1 164.664 8.836 164.976 8.524C165.24 8.26 165.48 8.044 165.696 7.876C165.912 7.684 166.14 7.468 166.38 7.228L166.416 7.192C166.656 7 166.932 6.952 167.244 7.048C167.556 7.12 167.724 7.216 167.748 7.336C167.868 7.456 167.94 7.66 167.964 7.948C168.012 8.212 168.036 8.44 168.036 8.632L168 8.776C167.904 8.944 167.808 9.172 167.712 9.46C167.616 9.724 167.364 10 166.956 10.288C166.524 10.672 166.092 10.984 165.66 11.224C165.228 11.464 164.736 11.74 164.184 12.052C164.016 12.148 163.812 12.22 163.572 12.268C163.332 12.292 163.044 12.304 162.708 12.304ZM171.198 26.812C170.742 26.62 170.37 26.332 170.082 25.948C169.818 25.54 169.686 25.048 169.686 24.472C169.686 24.232 169.734 23.824 169.83 23.248C169.926 22.672 170.058 22.024 170.226 21.304C170.394 20.584 170.562 19.912 170.73 19.288C170.97 18.856 171.126 18.424 171.198 17.992C171.294 17.56 171.342 17.296 171.342 17.2C171.39 16.912 171.474 16.528 171.594 16.048C171.714 15.568 171.834 15.136 171.954 14.752C172.098 14.344 172.194 14.116 172.242 14.068C172.362 13.948 172.566 13.876 172.854 13.852C173.142 13.828 173.43 13.864 173.718 13.96C174.006 14.032 174.198 14.188 174.294 14.428C174.558 14.716 174.702 15.148 174.726 15.724C174.774 16.3 174.666 16.972 174.402 17.74C174.186 18.22 173.97 18.784 173.754 19.432C173.538 20.08 173.346 20.68 173.178 21.232C173.034 21.76 172.95 22.12 172.926 22.312L171.63 22.276C172.038 21.892 172.422 21.496 172.782 21.088C173.142 20.656 173.406 20.32 173.574 20.08C173.982 19.528 174.33 19.072 174.618 18.712C174.93 18.328 175.326 17.872 175.806 17.344C176.286 16.792 176.802 16.408 177.354 16.192C177.906 15.952 178.314 15.832 178.578 15.832C179.106 15.928 179.574 16.204 179.982 16.66C180.414 17.092 180.678 17.74 180.774 18.604C180.774 18.94 180.738 19.336 180.666 19.792C180.618 20.248 180.594 20.476 180.594 20.476C180.594 20.476 180.786 20.236 181.17 19.756C181.578 19.276 182.118 18.736 182.79 18.136C183.246 17.8 183.69 17.608 184.122 17.56C184.554 17.488 184.938 17.632 185.274 17.992C185.898 18.328 186.354 18.916 186.642 19.756C186.93 20.596 187.026 21.544 186.93 22.6C186.858 23.224 186.858 23.728 186.93 24.112C187.026 24.472 187.122 24.796 187.218 25.084C187.53 25.516 187.578 25.9 187.362 26.236C187.146 26.548 186.954 26.704 186.786 26.704C186.546 26.704 186.186 26.656 185.706 26.56C185.226 26.464 184.782 26.296 184.374 26.056C183.99 25.816 183.798 25.492 183.798 25.084V22.852C183.798 22.324 183.774 21.94 183.726 21.7C183.702 21.436 183.642 21.268 183.546 21.196C183.282 21.052 182.958 21.16 182.574 21.52C182.19 21.88 181.77 22.396 181.314 23.068C180.882 23.716 180.414 24.448 179.91 25.264C179.454 26.008 179.082 26.464 178.794 26.632C178.506 26.776 178.23 26.764 177.966 26.596C177.438 26.428 177.102 26.2 176.958 25.912C176.838 25.6 176.826 25.252 176.922 24.868C177.042 24.46 177.186 23.932 177.354 23.284C177.546 22.636 177.726 22.012 177.894 21.412C178.062 20.788 178.17 20.332 178.218 20.044C178.122 19.852 177.954 19.792 177.714 19.864C177.498 19.912 177.27 20.02 177.03 20.188C176.742 20.38 176.43 20.584 176.094 20.8C175.782 21.016 175.41 21.472 174.978 22.168C174.69 22.624 174.366 23.128 174.006 23.68C173.646 24.208 173.31 24.688 172.998 25.12C172.71 25.552 172.47 25.852 172.278 26.02C172.11 26.452 171.954 26.728 171.81 26.848C171.666 26.944 171.462 26.932 171.198 26.812ZM195.861 27.28C195.141 27.688 194.373 27.928 193.557 28C192.765 28.048 192.021 27.94 191.325 27.676C190.629 27.388 190.065 26.968 189.633 26.416C189.393 26.104 189.165 25.612 188.949 24.94C188.733 24.244 188.697 23.308 188.841 22.132C188.985 21.028 189.321 19.912 189.849 18.784C190.401 17.656 191.073 16.66 191.865 15.796C192.657 14.932 193.521 14.344 194.457 14.032C194.793 13.912 195.129 13.828 195.465 13.78C195.825 13.708 196.293 13.696 196.869 13.744C197.421 13.816 197.913 13.96 198.345 14.176C198.777 14.368 199.089 14.584 199.281 14.824C199.665 15.208 199.917 15.58 200.037 15.94C200.157 16.3 200.205 16.648 200.181 16.984C200.061 17.752 199.713 18.58 199.137 19.468C198.585 20.356 197.805 21.016 196.797 21.448C196.389 21.616 195.909 21.724 195.357 21.772C194.805 21.82 194.049 21.748 193.089 21.556C192.513 21.436 192.129 21.496 191.937 21.736C191.769 21.976 191.697 22.444 191.721 23.14C191.769 23.572 191.865 23.956 192.009 24.292C192.177 24.604 192.477 24.82 192.909 24.94C193.461 25.036 193.857 25.048 194.097 24.976C194.337 24.88 194.637 24.748 194.997 24.58C195.189 24.46 195.369 24.328 195.537 24.184C195.729 24.04 195.909 23.896 196.077 23.752C196.269 23.608 196.425 23.5 196.545 23.428C196.665 23.332 196.785 23.272 196.905 23.248C197.025 23.224 197.145 23.212 197.265 23.212C197.529 23.236 197.781 23.38 198.021 23.644C198.261 23.908 198.417 24.16 198.489 24.4C198.489 24.592 198.369 24.868 198.129 25.228C197.889 25.564 197.565 25.924 197.157 26.308C196.773 26.668 196.341 26.992 195.861 27.28ZM195.393 19.252C195.561 19.18 195.801 19.012 196.113 18.748C196.449 18.484 196.749 18.208 197.013 17.92C197.277 17.608 197.409 17.368 197.409 17.2C197.409 16.936 197.229 16.708 196.869 16.516C196.533 16.324 196.089 16.288 195.537 16.408C195.345 16.456 195.117 16.588 194.853 16.804C194.589 17.02 194.325 17.272 194.061 17.56C193.797 17.824 193.569 18.088 193.377 18.352C193.185 18.592 193.053 18.784 192.981 18.928C193.077 19.048 193.269 19.144 193.557 19.216C193.845 19.288 194.157 19.324 194.493 19.324C194.853 19.324 195.153 19.3 195.393 19.252ZM217.575 31.492C217.407 31.012 217.347 30.628 217.395 30.34C217.443 30.052 217.575 29.692 217.791 29.26C217.935 28.972 218.067 28.684 218.187 28.396C218.331 28.108 218.463 27.82 218.583 27.532C218.727 27.244 218.847 26.956 218.943 26.668C218.463 26.716 217.971 26.788 217.467 26.884C216.963 26.956 216.471 27.052 215.991 27.172C215.511 27.268 215.031 27.388 214.551 27.532C214.335 27.604 214.119 27.64 213.903 27.64C213.687 27.616 213.459 27.628 213.219 27.676C212.571 27.772 212.007 27.796 211.527 27.748C211.047 27.7 210.507 27.52 209.907 27.208C209.715 26.896 209.547 26.584 209.403 26.272C209.259 25.936 209.187 25.576 209.187 25.192C209.187 24.88 209.283 24.4 209.475 23.752C209.667 23.08 209.919 22.336 210.231 21.52C210.543 20.68 210.855 19.828 211.167 18.964C211.503 18.1 211.803 17.308 212.067 16.588C212.331 15.844 212.511 15.256 212.607 14.824C212.679 14.488 212.811 14.26 213.003 14.14C213.195 13.996 213.411 13.924 213.651 13.924C214.083 13.924 214.527 14.128 214.983 14.536C215.439 14.944 215.703 15.448 215.775 16.048C215.655 16.384 215.535 16.732 215.415 17.092C215.319 17.452 215.211 17.812 215.091 18.172C214.971 18.508 214.839 18.844 214.695 19.18C214.311 20.068 213.915 20.944 213.507 21.808C213.099 22.648 212.799 23.548 212.607 24.508C212.823 24.484 213.063 24.448 213.327 24.4C213.615 24.352 213.903 24.304 214.191 24.256C214.479 24.184 214.755 24.112 215.019 24.04C215.307 23.944 215.547 23.86 215.739 23.788C215.835 23.524 215.979 23.128 216.171 22.6C216.387 22.072 216.579 21.556 216.747 21.052C216.939 20.548 217.035 20.2 217.035 20.008C217.035 19.84 217.059 19.66 217.107 19.468C217.179 19.252 217.263 19.048 217.359 18.856C217.455 18.64 217.539 18.472 217.611 18.352C217.875 17.752 218.091 17.152 218.259 16.552C218.427 15.952 218.619 15.34 218.835 14.716C219.003 14.644 219.159 14.584 219.303 14.536C219.447 14.464 219.579 14.368 219.699 14.248C220.491 14.272 221.091 14.464 221.499 14.824C221.907 15.184 222.111 15.772 222.111 16.588C221.583 17.644 221.115 18.736 220.707 19.864C220.299 20.968 219.927 22.084 219.591 23.212C219.759 23.116 219.915 23.032 220.059 22.96C220.227 22.888 220.395 22.828 220.563 22.78C220.731 22.732 220.899 22.696 221.067 22.672C221.211 22.792 221.343 22.912 221.463 23.032C221.607 23.152 221.727 23.272 221.823 23.392C222.063 23.656 222.243 23.932 222.363 24.22C222.483 24.484 222.543 24.772 222.543 25.084C222.543 25.372 222.483 25.696 222.363 26.056C222.267 26.392 222.111 26.776 221.895 27.208C221.799 27.424 221.679 27.736 221.535 28.144C221.391 28.576 221.235 29.02 221.067 29.476C220.899 29.956 220.731 30.376 220.563 30.736C220.419 31.096 220.287 31.336 220.167 31.456C219.855 31.768 219.423 31.924 218.871 31.924C218.343 31.924 217.911 31.78 217.575 31.492ZM229.089 28.648C227.769 28.648 226.749 28.264 226.029 27.496C225.333 26.728 224.985 25.552 224.985 23.968C224.985 23.104 225.141 22.156 225.453 21.124C225.789 20.092 226.221 19.084 226.749 18.1C227.301 17.116 227.901 16.264 228.549 15.544C229.197 14.8 229.845 14.284 230.493 13.996C230.733 13.876 230.985 13.792 231.249 13.744C231.537 13.672 231.813 13.636 232.077 13.636C232.365 13.636 232.677 13.66 233.013 13.708C233.373 13.732 233.709 13.804 234.021 13.924C234.573 14.092 235.053 14.416 235.461 14.896C235.893 15.376 236.109 16.072 236.109 16.984C236.109 17.224 236.085 17.488 236.037 17.776C235.989 18.04 235.905 18.304 235.785 18.568C235.473 19.36 234.993 20.116 234.345 20.836C233.721 21.556 233.061 22.06 232.365 22.348C232.173 22.444 231.981 22.516 231.789 22.564C231.621 22.588 231.441 22.6 231.249 22.6C230.745 22.6 230.289 22.528 229.881 22.384C229.497 22.24 229.137 22.048 228.801 21.808L228.513 21.556L228.333 21.916C228.165 22.372 228.045 22.756 227.973 23.068C227.925 23.38 227.901 23.608 227.901 23.752C227.901 24.04 227.913 24.34 227.937 24.652C227.961 24.94 228.033 25.18 228.153 25.372C228.249 25.492 228.369 25.588 228.513 25.66C228.681 25.732 228.885 25.768 229.125 25.768C229.269 25.768 229.401 25.768 229.521 25.768C229.665 25.744 229.785 25.72 229.881 25.696C230.313 25.6 230.661 25.444 230.925 25.228C231.213 24.988 231.513 24.784 231.825 24.616L231.969 24.544L231.933 24.436C232.341 24.22 232.617 24.088 232.761 24.04C232.905 23.968 233.013 23.908 233.085 23.86C233.181 23.764 233.289 23.716 233.409 23.716C233.745 23.668 234.069 23.764 234.381 24.004C234.717 24.22 234.885 24.496 234.885 24.832C234.885 24.976 234.777 25.204 234.561 25.516C234.369 25.828 234.117 26.14 233.805 26.452C233.517 26.74 233.217 26.968 232.905 27.136C232.833 27.16 232.761 27.196 232.689 27.244C232.617 27.268 232.545 27.304 232.473 27.352H232.509C232.293 27.64 232.077 27.784 231.861 27.784H231.573C231.477 27.952 231.165 28.132 230.637 28.324C230.109 28.54 229.593 28.648 229.089 28.648ZM230.961 19.972C231.177 19.972 231.369 19.936 231.537 19.864C231.729 19.792 231.909 19.708 232.077 19.612C232.653 19.204 233.025 18.676 233.193 18.028C233.361 17.38 233.301 16.888 233.013 16.552C232.965 16.48 232.905 16.432 232.833 16.408C232.761 16.36 232.677 16.336 232.581 16.336C232.317 16.336 232.017 16.42 231.681 16.588C231.369 16.756 231.057 16.996 230.745 17.308C230.433 17.62 230.145 17.992 229.881 18.424L229.413 19.18C229.461 19.156 229.497 19.144 229.521 19.144C229.569 19.12 229.605 19.108 229.629 19.108C229.845 19.108 229.989 19.18 230.061 19.324C230.133 19.468 230.217 19.612 230.312 19.756C230.433 19.9 230.649 19.972 230.961 19.972ZM240.622 27.748C240.31 27.724 239.95 27.676 239.542 27.604C239.158 27.532 238.822 27.388 238.534 27.172C238.246 26.956 238.102 26.644 238.102 26.236C238.102 26.044 238.114 25.864 238.138 25.696C238.162 25.528 238.222 25.372 238.318 25.228C238.342 25.18 238.366 25.144 238.39 25.12C238.414 25.096 238.438 25.072 238.462 25.048C238.438 24.928 238.414 24.808 238.39 24.688C238.39 24.568 238.402 24.448 238.426 24.328C238.546 24.016 238.618 23.728 238.642 23.464C238.666 23.176 238.726 22.876 238.822 22.564C238.846 22.516 238.858 22.468 238.858 22.42C238.858 22.372 238.87 22.336 238.894 22.312C239.038 21.808 239.17 21.292 239.29 20.764C239.41 20.236 239.59 19.744 239.83 19.288C240.262 18.424 240.658 17.56 241.018 16.696C241.402 15.808 241.774 14.92 242.134 14.032C242.278 13.672 242.446 13.42 242.638 13.276C242.83 13.132 243.034 13.06 243.25 13.06C243.682 13.06 244.114 13.264 244.546 13.672C244.978 14.056 245.314 14.452 245.554 14.86C245.314 15.316 245.05 15.784 244.762 16.264C244.474 16.72 244.198 17.188 243.934 17.668C243.67 18.124 243.466 18.604 243.322 19.108C243.658 19.132 243.982 19.12 244.294 19.072C244.606 19.024 244.93 19.024 245.266 19.072C245.674 19.096 246.082 19.072 246.49 19C246.898 18.904 247.294 18.88 247.678 18.928C247.75 18.616 247.858 18.22 248.002 17.74C248.146 17.236 248.326 16.72 248.542 16.192C248.758 15.664 248.998 15.196 249.262 14.788C249.55 14.38 249.85 14.116 250.162 13.996C250.546 13.852 250.846 13.864 251.062 14.032C251.278 14.2 251.518 14.38 251.782 14.572C252.214 14.884 252.478 15.136 252.574 15.328C252.694 15.52 252.682 15.736 252.538 15.976C252.418 16.192 252.226 16.516 251.962 16.948C251.794 17.212 251.662 17.512 251.566 17.848C251.494 18.16 251.362 18.46 251.17 18.748C251.122 18.82 251.026 19.036 250.882 19.396C250.762 19.756 250.606 20.2 250.414 20.728C250.222 21.232 250.042 21.748 249.874 22.276C249.706 22.78 249.562 23.236 249.442 23.644C249.322 24.028 249.25 24.268 249.226 24.364C249.178 24.676 249.13 24.988 249.082 25.3C249.034 25.612 248.998 25.936 248.974 26.272C248.95 26.656 248.83 26.932 248.614 27.1C248.398 27.244 248.134 27.316 247.822 27.316C247.51 27.316 247.198 27.256 246.886 27.136C246.574 27.016 246.322 26.884 246.13 26.74C245.938 26.572 245.794 26.38 245.698 26.164C245.626 25.948 245.59 25.72 245.59 25.48C245.59 25.048 245.674 24.616 245.842 24.184C246.01 23.752 246.142 23.416 246.238 23.176C246.286 22.984 246.346 22.804 246.418 22.636C246.514 22.444 246.586 22.252 246.634 22.06C245.962 21.988 245.278 21.976 244.582 22.024C243.91 22.072 243.226 22.132 242.53 22.204C242.386 22.492 242.254 22.828 242.134 23.212C242.038 23.596 241.942 24.004 241.846 24.436C241.774 24.868 241.678 25.288 241.558 25.696C241.486 25.984 241.402 26.26 241.306 26.524C241.234 26.764 241.138 26.992 241.018 27.208C240.898 27.424 240.766 27.604 240.622 27.748ZM265.354 14.68C265.69 14.488 266.11 14.428 266.614 14.5C267.118 14.548 267.526 14.752 267.838 15.112C268.174 15.472 268.246 16.012 268.054 16.732C267.958 16.924 267.838 17.152 267.694 17.416C267.55 17.68 267.406 17.968 267.262 18.28C267.118 18.568 266.974 18.844 266.83 19.108C266.71 19.372 266.626 19.6 266.578 19.792V19.9C266.866 19.996 267.046 20.236 267.118 20.62C267.214 21.004 267.226 21.28 267.154 21.448C266.986 21.712 266.842 21.88 266.722 21.952C266.626 22.024 266.374 22.12 265.966 22.24C265.87 22.264 265.786 22.288 265.714 22.312C265.666 22.336 265.63 22.396 265.606 22.492C265.534 22.948 265.45 23.38 265.354 23.788C265.282 24.172 265.186 24.556 265.066 24.94C264.97 25.3 264.862 25.672 264.742 26.056C264.694 26.248 264.598 26.452 264.454 26.668C264.31 26.884 263.998 27.016 263.518 27.064C263.038 26.872 262.69 26.74 262.474 26.668C262.282 26.572 262.114 26.464 261.97 26.344C261.826 26.248 261.754 26.008 261.754 25.624C261.778 25.24 261.838 24.904 261.934 24.616C262.054 24.256 262.162 23.944 262.258 23.68C262.378 23.392 262.486 22.948 262.582 22.348C262.318 22.348 262.066 22.372 261.826 22.42C261.61 22.444 261.394 22.48 261.178 22.528C260.986 22.552 260.782 22.588 260.566 22.636C260.374 22.684 260.17 22.72 259.954 22.744C259.81 22.744 259.654 22.744 259.486 22.744C259.318 22.744 259.15 22.744 258.982 22.744C258.814 22.72 258.622 22.684 258.406 22.636L258.262 22.744C258.238 22.984 258.13 23.308 257.938 23.716C257.77 24.1 257.686 24.496 257.686 24.904C257.662 25.216 257.59 25.636 257.47 26.164C257.374 26.668 257.314 27.088 257.29 27.424C257.266 27.952 256.966 28.264 256.39 28.36C255.838 28.48 255.202 28.204 254.482 27.532C254.386 27.46 254.314 27.376 254.266 27.28C254.242 27.184 254.206 27.064 254.158 26.92L254.698 24.184C254.794 23.848 254.878 23.536 254.95 23.248C255.022 22.936 255.106 22.636 255.202 22.348C255.394 21.82 255.586 21.256 255.778 20.656C255.97 20.032 256.174 19.54 256.39 19.18C256.438 19.084 256.486 18.94 256.534 18.748C256.606 18.556 256.678 18.352 256.75 18.136C256.822 17.92 256.894 17.716 256.966 17.524C257.038 17.332 257.098 17.176 257.146 17.056C257.242 16.816 257.362 16.468 257.506 16.012C257.674 15.532 257.83 15.088 257.974 14.68C258.118 14.272 258.19 14.056 258.19 14.032C258.262 13.768 258.406 13.6 258.622 13.528C258.838 13.432 259.018 13.384 259.162 13.384C259.93 13.384 260.458 13.588 260.746 13.996C261.034 14.404 261.166 14.776 261.142 15.112C261.118 15.256 261.106 15.388 261.106 15.508C261.106 15.628 261.082 15.724 261.034 15.796L259.414 19.828L259.342 20.008C259.582 20.008 259.822 19.984 260.062 19.936C260.326 19.864 260.578 19.828 260.818 19.828C260.938 19.804 261.118 19.78 261.358 19.756C261.622 19.732 261.91 19.72 262.222 19.72C262.558 19.72 262.894 19.756 263.23 19.828C263.542 19.084 263.782 18.448 263.95 17.92C264.118 17.368 264.394 16.756 264.778 16.084C264.802 16.036 264.85 15.868 264.922 15.58C265.018 15.268 265.162 14.968 265.354 14.68ZM274.368 28.324C274.056 28.348 273.804 28.312 273.612 28.216C273.42 28.144 273.18 28.024 272.892 27.856C272.364 27.448 271.92 26.944 271.56 26.344C271.224 25.744 271.068 25.24 271.092 24.832C271.14 24.616 271.14 24.424 271.092 24.256C271.068 24.088 271.056 24.004 271.056 24.004C270.912 23.884 270.864 23.812 270.912 23.788C270.96 23.74 270.996 23.668 271.02 23.572C271.212 23.524 271.236 23.392 271.092 23.176C271.02 22.984 271.056 22.552 271.2 21.88C271.368 21.184 271.584 20.536 271.848 19.936C271.968 19.672 272.136 19.324 272.352 18.892C272.592 18.46 272.856 18.028 273.144 17.596C273.432 17.14 273.696 16.78 273.936 16.516C274.464 15.916 274.932 15.424 275.34 15.04C275.772 14.656 276.252 14.368 276.78 14.176C277.26 13.984 277.74 13.9 278.22 13.924C278.724 13.948 279.168 14.116 279.552 14.428C280.128 14.596 280.644 14.86 281.1 15.22C281.556 15.556 281.868 16.036 282.036 16.66C282.228 17.356 282.288 18.184 282.216 19.144C282.168 20.08 281.76 21.292 280.992 22.78C280.536 23.716 280.08 24.472 279.624 25.048C279.192 25.624 278.664 26.176 278.04 26.704C277.584 27.088 276.996 27.424 276.276 27.712C275.556 28 274.92 28.204 274.368 28.324ZM277.5 22.888C277.812 22.456 278.052 22.036 278.22 21.628C278.412 21.22 278.592 20.656 278.76 19.936C278.832 19.672 278.868 19.348 278.868 18.964C278.892 18.58 278.88 18.232 278.832 17.92C278.808 17.584 278.724 17.404 278.58 17.38C278.268 17.26 277.944 17.26 277.608 17.38C277.296 17.476 276.924 17.764 276.492 18.244C276.108 18.676 275.796 19.084 275.556 19.468C275.34 19.828 275.136 20.272 274.944 20.8C274.776 21.304 274.584 21.964 274.368 22.78C274.176 23.572 274.164 24.208 274.332 24.688C274.524 25.168 274.884 25.3 275.412 25.084C275.94 24.868 276.636 24.136 277.5 22.888ZM288.639 27.712C288.111 27.712 287.715 27.688 287.451 27.64C287.211 27.592 287.031 27.52 286.911 27.424C286.791 27.328 286.635 27.196 286.443 27.028C286.347 26.836 286.179 26.596 285.939 26.308C285.699 25.996 285.531 25.792 285.435 25.696C285.339 25.336 285.303 24.844 285.327 24.22C285.375 23.596 285.483 22.924 285.651 22.204C285.819 21.484 286.023 20.836 286.263 20.26C286.359 20.068 286.443 19.876 286.515 19.684C286.587 19.492 286.623 19.396 286.623 19.396C286.623 19.276 286.767 18.988 287.055 18.532C287.367 18.076 287.703 17.596 288.063 17.092C288.447 16.588 288.759 16.228 288.999 16.012C289.167 15.82 289.419 15.616 289.755 15.4C290.115 15.184 290.427 15.028 290.691 14.932C290.955 14.836 291.315 14.716 291.771 14.572C292.227 14.404 292.635 14.32 292.995 14.32C293.331 14.32 293.691 14.392 294.075 14.536C294.459 14.68 294.783 14.932 295.047 15.292C295.479 15.724 295.755 16.24 295.875 16.84C295.995 17.44 296.007 17.956 295.911 18.388C295.791 18.868 295.551 19.264 295.191 19.576C294.831 19.864 294.447 20.02 294.039 20.044C293.631 20.044 293.271 19.876 292.959 19.54C292.863 19.348 292.815 19.192 292.815 19.072C292.815 18.928 292.863 18.724 292.959 18.46C293.055 18.124 293.103 17.824 293.103 17.56C293.103 17.296 292.995 17.164 292.779 17.164C292.467 17.164 292.215 17.26 292.023 17.452C291.831 17.62 291.543 17.908 291.159 18.316C290.991 18.508 290.775 18.784 290.511 19.144C290.247 19.504 289.983 19.9 289.719 20.332C289.479 20.74 289.263 21.16 289.071 21.592C288.807 22.384 288.639 22.9 288.567 23.14C288.519 23.356 288.495 23.464 288.495 23.464C288.495 23.56 288.483 23.656 288.459 23.752C288.435 23.824 288.423 23.908 288.423 24.004C288.423 24.292 288.591 24.52 288.927 24.688C289.191 24.856 289.407 24.94 289.575 24.94C289.767 24.916 290.127 24.784 290.655 24.544C291.039 24.352 291.399 24.1 291.735 23.788C292.095 23.476 292.467 23.2 292.851 22.96C293.115 22.792 293.319 22.648 293.463 22.528C293.631 22.408 293.715 22.396 293.715 22.492C293.715 22.588 293.751 22.636 293.823 22.636C293.895 22.636 293.979 22.588 294.075 22.492C294.219 22.3 294.399 22.228 294.615 22.276C294.831 22.3 295.023 22.36 295.191 22.456C295.383 22.552 295.479 22.636 295.479 22.708C295.431 22.924 295.479 23.104 295.623 23.248C295.623 23.344 295.587 23.476 295.515 23.644C295.467 23.788 295.395 23.908 295.299 24.004C295.179 24.172 294.999 24.412 294.759 24.724C294.543 25.036 294.339 25.312 294.147 25.552C293.955 25.792 293.859 25.912 293.859 25.912C293.763 25.888 293.667 25.912 293.571 25.984C293.499 26.056 293.415 26.14 293.319 26.236C293.127 26.404 292.947 26.536 292.779 26.632C292.611 26.704 292.479 26.74 292.383 26.74C292.215 26.836 292.083 26.896 291.987 26.92C291.915 26.944 291.879 27.004 291.879 27.1C291.639 27.34 291.207 27.508 290.583 27.604C289.959 27.676 289.311 27.712 288.639 27.712ZM300.835 26.812C300.379 26.62 300.007 26.332 299.719 25.948C299.455 25.54 299.323 25.048 299.323 24.472C299.323 24.232 299.371 23.824 299.467 23.248C299.563 22.672 299.695 22.024 299.863 21.304C300.031 20.584 300.199 19.912 300.367 19.288C300.607 18.856 300.763 18.424 300.835 17.992C300.931 17.56 300.979 17.296 300.979 17.2C301.027 16.912 301.111 16.528 301.231 16.048C301.351 15.568 301.471 15.136 301.591 14.752C301.735 14.344 301.831 14.116 301.879 14.068C301.999 13.948 302.203 13.876 302.491 13.852C302.779 13.828 303.067 13.864 303.355 13.96C303.643 14.032 303.835 14.188 303.931 14.428C304.195 14.716 304.339 15.148 304.363 15.724C304.411 16.3 304.303 16.972 304.039 17.74C303.823 18.22 303.607 18.784 303.391 19.432C303.175 20.08 302.983 20.68 302.815 21.232C302.671 21.76 302.587 22.12 302.563 22.312L301.267 22.276C301.675 21.892 302.059 21.496 302.419 21.088C302.779 20.656 303.043 20.32 303.211 20.08C303.619 19.528 303.967 19.072 304.255 18.712C304.567 18.328 304.963 17.872 305.443 17.344C305.923 16.792 306.439 16.408 306.991 16.192C307.543 15.952 307.951 15.832 308.215 15.832C308.743 15.928 309.211 16.204 309.619 16.66C310.051 17.092 310.315 17.74 310.411 18.604C310.411 18.94 310.375 19.336 310.303 19.792C310.255 20.248 310.231 20.476 310.231 20.476C310.231 20.476 310.423 20.236 310.807 19.756C311.215 19.276 311.755 18.736 312.427 18.136C312.883 17.8 313.327 17.608 313.759 17.56C314.191 17.488 314.575 17.632 314.911 17.992C315.535 18.328 315.991 18.916 316.279 19.756C316.567 20.596 316.663 21.544 316.567 22.6C316.495 23.224 316.495 23.728 316.567 24.112C316.663 24.472 316.759 24.796 316.855 25.084C317.167 25.516 317.215 25.9 316.999 26.236C316.783 26.548 316.591 26.704 316.423 26.704C316.183 26.704 315.823 26.656 315.343 26.56C314.863 26.464 314.419 26.296 314.011 26.056C313.627 25.816 313.435 25.492 313.435 25.084V22.852C313.435 22.324 313.411 21.94 313.363 21.7C313.339 21.436 313.279 21.268 313.183 21.196C312.919 21.052 312.595 21.16 312.211 21.52C311.827 21.88 311.407 22.396 310.951 23.068C310.519 23.716 310.051 24.448 309.547 25.264C309.091 26.008 308.719 26.464 308.431 26.632C308.143 26.776 307.867 26.764 307.603 26.596C307.075 26.428 306.739 26.2 306.595 25.912C306.475 25.6 306.463 25.252 306.559 24.868C306.679 24.46 306.823 23.932 306.991 23.284C307.183 22.636 307.363 22.012 307.531 21.412C307.699 20.788 307.807 20.332 307.855 20.044C307.759 19.852 307.591 19.792 307.351 19.864C307.135 19.912 306.907 20.02 306.667 20.188C306.379 20.38 306.067 20.584 305.731 20.8C305.419 21.016 305.047 21.472 304.615 22.168C304.327 22.624 304.003 23.128 303.643 23.68C303.283 24.208 302.947 24.688 302.635 25.12C302.347 25.552 302.107 25.852 301.915 26.02C301.747 26.452 301.591 26.728 301.447 26.848C301.303 26.944 301.099 26.932 300.835 26.812ZM328.893 27.928C328.653 27.688 328.461 27.364 328.317 26.956C328.173 26.524 328.029 26.032 327.885 25.48C327.837 25.288 327.813 25.072 327.813 24.832C327.837 24.592 327.837 24.4 327.813 24.256C327.741 24.424 327.621 24.64 327.453 24.904C327.309 25.168 327.165 25.36 327.021 25.48C326.925 25.576 326.709 25.768 326.373 26.056C326.037 26.32 325.701 26.536 325.365 26.704C324.573 27.208 323.865 27.448 323.241 27.424C322.641 27.376 322.113 27.064 321.657 26.488C321.273 26.176 320.961 25.78 320.721 25.3C320.481 24.82 320.433 24.244 320.577 23.572C320.625 22.732 320.745 21.916 320.937 21.124C321.129 20.308 321.525 19.228 322.125 17.884C322.629 16.9 323.013 16.132 323.277 15.58C323.541 15.028 323.709 14.704 323.781 14.608C324.141 14.488 324.585 14.5 325.113 14.644C325.641 14.764 325.929 14.992 325.977 15.328C326.121 15.568 326.121 16.024 325.977 16.696C325.833 17.344 325.545 18.088 325.113 18.928C324.777 19.744 324.453 20.536 324.141 21.304C323.853 22.072 323.673 22.72 323.601 23.248C323.553 23.776 323.697 24.1 324.033 24.22C324.249 24.34 324.561 24.328 324.969 24.184C325.401 24.04 325.905 23.608 326.481 22.888C327.057 22.168 327.669 21.028 328.317 19.468C328.509 18.988 328.653 18.568 328.749 18.208C328.845 17.824 328.905 17.404 328.929 16.948C328.881 16.66 328.953 16.36 329.145 16.048C329.361 15.736 329.613 15.496 329.901 15.328C329.997 15.208 330.129 15.1 330.297 15.004C330.465 14.884 330.573 14.884 330.621 15.004L331.197 14.968C331.293 14.944 331.401 15.04 331.521 15.256C331.641 15.472 331.761 15.628 331.881 15.724C332.145 15.94 332.265 16.408 332.241 17.128C332.217 17.848 331.929 18.856 331.377 20.152C330.921 21.136 330.609 21.88 330.441 22.384C330.297 22.888 330.213 23.38 330.189 23.86C330.189 24.292 330.225 24.664 330.297 24.976C330.369 25.264 330.585 25.564 330.945 25.876C331.209 26.044 331.353 26.332 331.377 26.74C331.425 27.124 331.437 27.46 331.413 27.748C331.365 27.964 331.173 28.108 330.837 28.18C330.525 28.276 330.177 28.3 329.793 28.252C329.433 28.204 329.133 28.096 328.893 27.928Z" fill="#F15929"/>
</svg>
