<svg width="312" height="38" viewBox="0 0 312 38" fill="none" xmlns="http://www.w3.org/2000/svg">
<path d="M12.472 33.328C12.016 33.448 11.608 33.328 11.248 32.968C10.912 32.608 10.672 32.08 10.528 31.384C10.384 30.688 10.408 29.896 10.6 29.008C10.72 28.72 10.816 28.432 10.888 28.144C10.96 27.88 10.996 27.664 10.996 27.496C11.044 27.304 11.164 26.884 11.356 26.236C11.548 25.564 11.776 24.796 12.04 23.932C12.328 23.068 12.604 22.216 12.868 21.376C13.156 20.512 13.396 19.792 13.588 19.216C13.804 18.616 13.936 18.28 13.984 18.208C14.08 18.208 14.164 18.124 14.236 17.956C14.308 17.788 14.344 17.62 14.344 17.452C14.344 17.26 14.38 17.044 14.452 16.804C14.548 16.564 14.644 16.396 14.74 16.3C14.74 16.18 14.764 16.048 14.812 15.904C14.884 15.736 14.92 15.604 14.92 15.508C14.92 15.412 14.944 15.316 14.992 15.22C15.064 15.124 15.1 15.028 15.1 14.932C15.244 14.668 15.46 14.176 15.748 13.456C16.06 12.712 16.408 11.848 16.792 10.864C17.2 9.856 17.608 8.824 18.016 7.768C18.424 6.688 18.808 5.668 19.168 4.708C19.528 3.748 19.816 2.956 20.032 2.332C20.248 1.708 20.356 1.348 20.356 1.252C20.356 1.06 20.488 0.867998 20.752 0.675998C21.016 0.459999 21.244 0.352 21.436 0.352C21.508 0.279999 21.592 0.231999 21.688 0.207999C21.808 0.183998 21.916 0.171998 22.012 0.171998C22.012 0.171998 22.06 0.219998 22.156 0.315998C22.252 0.411998 22.396 0.555999 22.588 0.747999C22.78 0.915998 22.984 1.168 23.2 1.504C23.416 1.816 23.524 2.116 23.524 2.404C23.524 2.716 23.488 2.992 23.416 3.232C23.344 3.472 23.2 3.82 22.984 4.276C22.768 4.732 22.432 5.44 21.976 6.4C21.904 6.592 21.76 6.928 21.544 7.408C21.328 7.888 21.088 8.428 20.824 9.028C20.584 9.628 20.332 10.216 20.068 10.792C19.828 11.344 19.624 11.812 19.456 12.196C19.312 12.58 19.24 12.796 19.24 12.844C19.24 12.94 19.192 13.084 19.096 13.276C19.024 13.468 18.94 13.708 18.844 13.996C18.748 14.188 18.616 14.476 18.448 14.86C18.28 15.22 18.1 15.616 17.908 16.048C17.74 16.456 17.596 16.816 17.476 17.128C17.356 17.416 17.296 17.584 17.296 17.632C17.296 17.728 17.284 17.824 17.26 17.92C17.26 18.016 17.212 18.112 17.116 18.208C17.02 18.208 16.96 18.28 16.936 18.424C16.936 18.544 16.936 18.604 16.936 18.604C16.936 18.844 16.744 19.48 16.36 20.512C16.192 21.04 15.988 21.724 15.748 22.564C15.508 23.404 15.244 24.304 14.956 25.264C14.692 26.2 14.44 27.112 14.2 28C13.96 28.912 13.756 29.704 13.588 30.376C13.444 31.048 13.372 31.516 13.372 31.78C13.372 32.356 13.264 32.728 13.048 32.896C12.856 33.088 12.664 33.232 12.472 33.328ZM3.04 21.772C2.896 21.772 2.716 21.772 2.5 21.772C2.284 21.748 2.044 21.688 1.78 21.592C1.42 21.592 1.132 21.52 0.916 21.376C0.7 21.232 0.544 21.076 0.448 20.908C0.184 20.548 0.208 20.284 0.52 20.116C0.832 19.924 1.432 19.78 2.32 19.684C2.584 19.612 3.124 19.552 3.94 19.504C4.756 19.456 5.716 19.42 6.82 19.396C7.948 19.348 9.124 19.312 10.348 19.288C11.596 19.264 12.784 19.252 13.912 19.252C15.064 19.228 16.06 19.216 16.9 19.216C17.764 19.192 18.352 19.18 18.664 19.18C19.288 19.18 19.708 19.228 19.924 19.324C20.14 19.42 20.38 19.6 20.644 19.864C21.004 20.224 21.088 20.596 20.896 20.98C20.728 21.364 20.368 21.508 19.816 21.412C19.648 21.436 19.372 21.46 18.988 21.484C18.628 21.508 18.232 21.544 17.8 21.592C17.704 21.592 17.308 21.604 16.612 21.628C15.94 21.628 15.076 21.64 14.02 21.664C12.988 21.664 11.884 21.676 10.708 21.7C9.556 21.7 8.428 21.712 7.324 21.736C6.244 21.736 5.32 21.748 4.552 21.772C3.784 21.772 3.28 21.772 3.04 21.772ZM3.544 33.328C3.088 33.448 2.68 33.328 2.32 32.968C1.984 32.608 1.744 32.08 1.6 31.384C1.456 30.688 1.48 29.896 1.672 29.008C1.792 28.72 1.888 28.432 1.96 28.144C2.032 27.88 2.068 27.664 2.068 27.496C2.116 27.304 2.236 26.884 2.428 26.236C2.62 25.564 2.848 24.796 3.112 23.932C3.4 23.068 3.676 22.216 3.94 21.376C4.228 20.512 4.468 19.792 4.66 19.216C4.876 18.616 5.008 18.28 5.056 18.208C5.152 18.208 5.236 18.124 5.308 17.956C5.38 17.788 5.416 17.62 5.416 17.452C5.416 17.26 5.452 17.044 5.524 16.804C5.62 16.564 5.716 16.396 5.812 16.3C5.812 16.18 5.836 16.048 5.884 15.904C5.956 15.736 5.992 15.604 5.992 15.508C5.992 15.412 6.016 15.316 6.064 15.22C6.136 15.124 6.172 15.028 6.172 14.932C6.316 14.668 6.532 14.176 6.82 13.456C7.132 12.712 7.48 11.848 7.864 10.864C8.272 9.856 8.68 8.824 9.088 7.768C9.496 6.688 9.88 5.668 10.24 4.708C10.6 3.748 10.888 2.956 11.104 2.332C11.32 1.708 11.428 1.348 11.428 1.252C11.428 1.06 11.56 0.867998 11.824 0.675998C12.088 0.459999 12.316 0.352 12.508 0.352C12.58 0.279999 12.664 0.231999 12.76 0.207999C12.88 0.183998 12.988 0.171998 13.084 0.171998C13.084 0.171998 13.132 0.219998 13.228 0.315998C13.324 0.411998 13.468 0.555999 13.66 0.747999C13.852 0.915998 14.056 1.168 14.272 1.504C14.488 1.816 14.596 2.116 14.596 2.404C14.596 2.716 14.56 2.992 14.488 3.232C14.416 3.472 14.272 3.82 14.056 4.276C13.84 4.732 13.504 5.44 13.048 6.4C12.976 6.592 12.832 6.928 12.616 7.408C12.4 7.888 12.16 8.428 11.896 9.028C11.656 9.628 11.404 10.216 11.14 10.792C10.9 11.344 10.696 11.812 10.528 12.196C10.384 12.58 10.312 12.796 10.312 12.844C10.312 12.94 10.264 13.084 10.168 13.276C10.096 13.468 10.012 13.708 9.916 13.996C9.82 14.188 9.688 14.476 9.52 14.86C9.352 15.22 9.172 15.616 8.98 16.048C8.812 16.456 8.668 16.816 8.548 17.128C8.428 17.416 8.368 17.584 8.368 17.632C8.368 17.728 8.356 17.824 8.332 17.92C8.332 18.016 8.284 18.112 8.188 18.208C8.092 18.208 8.032 18.28 8.008 18.424C8.008 18.544 8.008 18.604 8.008 18.604C8.008 18.844 7.816 19.48 7.432 20.512C7.264 21.04 7.06 21.724 6.82 22.564C6.58 23.404 6.316 24.304 6.028 25.264C5.764 26.2 5.512 27.112 5.272 28C5.032 28.912 4.828 29.704 4.66 30.376C4.516 31.048 4.444 31.516 4.444 31.78C4.444 32.356 4.336 32.728 4.12 32.896C3.928 33.088 3.736 33.232 3.544 33.328ZM5.236 14.536C5.092 14.536 4.912 14.536 4.696 14.536C4.48 14.512 4.24 14.452 3.976 14.356C3.616 14.356 3.328 14.296 3.112 14.176C2.92 14.032 2.776 13.876 2.68 13.708C2.416 13.348 2.428 13.072 2.716 12.88C3.028 12.688 3.628 12.544 4.516 12.448C4.78 12.376 5.32 12.316 6.136 12.268C6.952 12.22 7.924 12.184 9.052 12.16C10.18 12.112 11.356 12.076 12.58 12.052C13.828 12.028 15.016 12.016 16.144 12.016C17.296 11.992 18.292 11.98 19.132 11.98C19.996 11.956 20.584 11.944 20.896 11.944C21.52 11.944 21.94 11.992 22.156 12.088C22.372 12.184 22.612 12.364 22.876 12.628C23.236 12.988 23.32 13.36 23.128 13.744C22.936 14.128 22.564 14.272 22.012 14.176C21.844 14.2 21.58 14.224 21.22 14.248C20.86 14.272 20.464 14.308 20.032 14.356C19.936 14.356 19.54 14.368 18.844 14.392C18.172 14.392 17.308 14.404 16.252 14.428C15.22 14.428 14.116 14.44 12.94 14.464C11.764 14.464 10.624 14.476 9.52 14.5C8.44 14.5 7.516 14.512 6.748 14.536C5.98 14.536 5.476 14.536 5.236 14.536ZM29.3774 31.852C28.9454 31.732 28.5614 31.456 28.2254 31.024C27.8894 30.616 27.7454 30.232 27.7934 29.872C27.9374 29.392 28.0694 28.852 28.1894 28.252C28.3094 27.652 28.4174 27.16 28.5134 26.776L26.0294 25.444C25.7654 25.228 25.3694 24.868 24.8414 24.364C24.3134 23.86 23.8094 23.26 23.3294 22.564C22.8494 21.868 22.5374 21.148 22.3934 20.404C22.1534 19.396 22.1294 18.268 22.3214 17.02C22.5134 15.748 22.8734 14.488 23.4014 13.24C23.9534 11.968 24.6374 10.852 25.4534 9.892C26.0774 9.196 26.7374 8.62 27.4334 8.164C28.1294 7.684 28.8134 7.192 29.4854 6.688C29.6294 6.592 29.8454 6.472 30.1334 6.328C30.4454 6.184 30.7694 6.04 31.1054 5.896C31.4654 5.728 31.7654 5.608 32.0054 5.536C32.2694 5.464 32.4854 5.416 32.6534 5.392C32.8454 5.344 33.0614 5.308 33.3014 5.284C33.5654 5.26 33.9254 5.26 34.3814 5.284L35.7854 5.32C35.7854 5.008 35.8214 4.66 35.8934 4.276C35.9894 3.868 36.0854 3.472 36.1814 3.088C36.2774 2.68 36.3374 2.344 36.3614 2.08C36.3614 1.792 36.4934 1.528 36.7574 1.288C37.0454 1.048 37.3694 0.975999 37.7294 1.072C38.2094 1.168 38.6294 1.396 38.9894 1.756C39.3494 2.092 39.5294 2.368 39.5294 2.584C39.5294 2.824 39.5174 3.028 39.4934 3.196C39.4934 3.34 39.4814 3.472 39.4574 3.592L38.8454 6.04C38.9414 6.064 39.0254 6.1 39.0974 6.148C39.1934 6.172 39.2774 6.208 39.3494 6.256L39.4214 6.292C39.6134 6.388 39.7934 6.472 39.9614 6.544C40.1294 6.592 40.2854 6.676 40.4294 6.796C40.7414 6.94 41.0294 7.096 41.2934 7.264C41.5814 7.432 41.8454 7.612 42.0854 7.804C42.8294 8.308 43.3934 8.764 43.7774 9.172C44.1854 9.556 44.4854 10.012 44.6774 10.54C44.8694 11.044 45.0254 11.74 45.1454 12.628C45.1934 13.204 45.2054 13.684 45.1814 14.068C45.1814 14.452 45.1574 14.812 45.1094 15.148C45.0614 15.46 44.9774 15.832 44.8574 16.264C44.7614 16.696 44.6174 17.26 44.4254 17.956C44.0414 18.628 43.7294 19.216 43.4894 19.72C43.2494 20.224 43.0214 20.68 42.8054 21.088C42.5894 21.472 42.3254 21.856 42.0134 22.24C41.7014 22.624 41.2934 23.056 40.7894 23.536C40.5974 23.728 40.3694 23.932 40.1054 24.148C39.8654 24.34 39.5894 24.568 39.2774 24.832C38.9174 25.168 38.3534 25.516 37.5854 25.876C36.8414 26.212 36.0614 26.5 35.2454 26.74C34.4534 26.98 33.8054 27.1 33.3014 27.1C33.0854 27.124 32.8574 27.148 32.6174 27.172C32.3774 27.172 32.1374 27.16 31.8974 27.136L31.5374 27.1C31.5134 27.556 31.4534 28.084 31.3574 28.684C31.2614 29.308 31.1174 30.1 30.9254 31.06C30.6854 31.516 30.4334 31.78 30.1694 31.852C29.9054 31.948 29.6414 31.948 29.3774 31.852ZM29.1974 23.824C29.2214 23.752 29.2334 23.668 29.2334 23.572C29.2334 23.476 29.2454 23.38 29.2694 23.284C29.3174 23.02 29.3654 22.756 29.4134 22.492C29.4854 22.204 29.5454 21.94 29.5934 21.7C29.6654 21.46 29.7254 21.268 29.7734 21.124C29.8934 20.812 30.0494 20.38 30.2414 19.828C30.4574 19.252 30.6734 18.616 30.8894 17.92C31.1294 17.224 31.3814 16.504 31.6454 15.76C31.9094 15.016 32.1734 14.296 32.4374 13.6C32.7254 12.88 32.9894 12.22 33.2294 11.62C33.3254 11.332 33.4454 11.02 33.5894 10.684C33.7334 10.348 33.8774 10.012 34.0214 9.676C34.1894 9.316 34.3454 8.968 34.4894 8.632C34.2494 8.608 34.0094 8.608 33.7694 8.632C33.5294 8.632 33.3014 8.656 33.0854 8.704C32.6534 8.8 32.1734 8.992 31.6454 9.28C31.1174 9.568 30.6134 9.892 30.1334 10.252C29.6534 10.588 29.2454 10.888 28.9094 11.152C28.0934 11.8 27.4934 12.496 27.1094 13.24C26.7494 13.912 26.4494 14.536 26.2094 15.112C25.9694 15.664 25.7774 16.168 25.6334 16.624C25.5134 17.08 25.4534 17.464 25.4534 17.776C25.3814 18.088 25.3334 18.328 25.3094 18.496C25.2854 18.664 25.2734 18.844 25.2734 19.036C25.2734 19.588 25.3574 20.056 25.5254 20.44C25.6934 20.824 25.8854 21.172 26.1014 21.484C26.3654 21.916 26.6774 22.288 27.0374 22.6C27.4214 22.912 27.8054 23.164 28.1894 23.356C28.5734 23.548 28.9094 23.704 29.1974 23.824ZM32.3294 24.256C32.4734 24.208 32.6174 24.16 32.7614 24.112C32.9294 24.064 33.0854 24.016 33.2294 23.968C33.3734 23.92 33.5174 23.872 33.6614 23.824C33.9254 23.704 34.2134 23.608 34.5254 23.536C34.8614 23.464 35.2454 23.332 35.6774 23.14C36.7334 22.732 37.6814 22.084 38.5214 21.196C39.3614 20.308 40.1894 19.096 41.0054 17.56C41.1254 17.296 41.2814 16.828 41.4734 16.156C41.6894 15.46 41.8574 14.812 41.9774 14.212C42.0254 13.996 42.0614 13.804 42.0854 13.636C42.1094 13.444 42.1334 13.3 42.1574 13.204C42.1814 12.988 42.1814 12.784 42.1574 12.592C42.1574 12.4 42.1334 12.22 42.0854 12.052C41.9414 11.404 41.5694 10.888 40.9694 10.504C40.4414 10.192 40.0094 9.94 39.6734 9.748C39.3614 9.556 39.0614 9.4 38.7734 9.28C38.5094 9.136 38.1734 8.992 37.7654 8.848C37.7174 9.064 37.6454 9.292 37.5494 9.532C37.4774 9.748 37.3574 10.036 37.1894 10.396C37.0454 10.756 36.8534 11.26 36.6134 11.908C36.5174 12.148 36.3494 12.556 36.1094 13.132C35.8934 13.708 35.6414 14.356 35.3534 15.076C35.0894 15.796 34.8134 16.528 34.5254 17.272C34.2614 17.992 34.0214 18.652 33.8054 19.252C33.6134 19.828 33.4814 20.26 33.4094 20.548C33.2894 21.004 33.1334 21.46 32.9414 21.916C32.7734 22.348 32.6534 22.804 32.5814 23.284C32.5574 23.452 32.5214 23.62 32.4734 23.788C32.4254 23.932 32.3774 24.088 32.3294 24.256ZM47.4308 27.748C47.1188 27.748 46.8668 27.688 46.6748 27.568C46.5068 27.448 46.2908 27.28 46.0268 27.064C45.5708 26.584 45.1988 26.068 44.9108 25.516C44.6468 24.964 44.5508 24.484 44.6228 24.076C44.6948 23.884 44.7188 23.704 44.6948 23.536C44.6948 23.344 44.6948 23.248 44.6948 23.248C44.5748 23.128 44.5388 23.056 44.5868 23.032C44.6348 22.984 44.6828 22.912 44.7308 22.816C44.8748 22.816 44.9228 22.684 44.8748 22.42C44.8268 22.228 44.8988 21.82 45.0908 21.196C45.3068 20.548 45.5948 19.936 45.9548 19.36C46.0988 19.12 46.3148 18.808 46.6028 18.424C46.8908 18.016 47.2028 17.62 47.5388 17.236C47.8988 16.828 48.2228 16.504 48.5108 16.264C49.1108 15.76 49.6628 15.352 50.1668 15.04C50.6948 14.728 51.2228 14.512 51.7508 14.392C52.2788 14.272 52.8188 14.212 53.3708 14.212C53.9468 14.212 54.4148 14.404 54.7748 14.788C55.3268 15.028 55.7108 15.352 55.9268 15.76C56.1668 16.168 56.3228 16.696 56.3948 17.344C56.4668 18.064 56.3948 18.952 56.1788 20.008C55.9628 21.04 55.3748 22.24 54.4148 23.608C53.8148 24.472 53.2268 25.144 52.6508 25.624C52.0748 26.104 51.4388 26.548 50.7428 26.956C50.2388 27.292 49.6988 27.496 49.1228 27.568C48.5468 27.64 47.9828 27.7 47.4308 27.748ZM51.1028 23.356C51.6308 22.9 52.0028 22.396 52.2188 21.844C52.4588 21.292 52.7108 20.644 52.9748 19.9C53.0708 19.756 53.1308 19.516 53.1548 19.18C53.2028 18.844 53.2148 18.52 53.1908 18.208C53.1668 17.872 53.0828 17.68 52.9388 17.632C52.7228 17.464 52.5068 17.428 52.2908 17.524C52.0748 17.596 51.7988 17.752 51.4628 17.992C50.7428 18.592 50.0708 19.288 49.4468 20.08C48.8468 20.848 48.4268 21.796 48.1868 22.924C48.1148 23.524 48.1748 23.98 48.3668 24.292C48.5828 24.58 48.9188 24.664 49.3748 24.544C49.8548 24.4 50.4308 24.004 51.1028 23.356ZM56.6218 36.388C56.5258 36.388 56.3818 36.388 56.1898 36.388C56.0218 36.412 55.8778 36.316 55.7578 36.1C55.6618 35.98 55.5178 35.74 55.3258 35.38C55.1338 35.044 55.0978 34.564 55.2178 33.94C55.3378 33.532 55.4338 33.124 55.5058 32.716C55.5778 32.332 55.6138 32.044 55.6138 31.852C55.6138 31.756 55.6378 31.564 55.6858 31.276C55.7578 31.012 55.7938 30.82 55.7938 30.7C55.9138 30.508 56.0098 30.244 56.0818 29.908C56.1538 29.572 56.1898 29.272 56.1898 29.008C56.1898 28.72 56.3338 28.456 56.6218 28.216C56.6218 28.024 56.6578 27.784 56.7298 27.496C56.8258 27.208 56.8738 27.016 56.8738 26.92C56.9458 26.584 57.1018 25.996 57.3418 25.156C57.6058 24.292 57.9178 23.32 58.2778 22.24C58.6618 21.16 59.0338 20.104 59.3938 19.072C59.7538 18.04 60.0778 17.164 60.3658 16.444C60.6538 15.772 60.8938 15.148 61.0858 14.572C61.2778 13.996 61.3738 13.588 61.3738 13.348C61.3738 13.252 61.3978 13.18 61.4458 13.132C61.4938 13.06 61.6018 12.928 61.7698 12.736C62.0098 12.496 62.3218 12.412 62.7058 12.484C63.1138 12.532 63.4498 12.652 63.7138 12.844C63.9058 13.156 64.0378 13.444 64.1098 13.708C64.2058 13.948 64.2058 14.332 64.1098 14.86C64.1098 15.22 64.0258 15.556 63.8578 15.868C63.6898 16.156 63.5338 16.396 63.3898 16.588C63.2698 16.756 63.2338 16.828 63.2818 16.804C64.3378 16.156 65.2858 15.808 66.1258 15.76C66.9898 15.688 67.7098 15.832 68.2858 16.192C68.8858 16.528 69.3418 16.996 69.6538 17.596C69.9658 18.196 70.1218 18.844 70.1218 19.54C70.1218 19.828 70.0258 20.212 69.8338 20.692C69.6418 21.172 69.4258 21.628 69.1858 22.06C68.9458 22.468 68.7538 22.744 68.6098 22.888C68.5138 22.888 68.4178 22.972 68.3218 23.14C68.2258 23.284 68.1298 23.452 68.0338 23.644C67.8418 23.884 67.5178 24.16 67.0618 24.472C66.6298 24.76 66.1858 25 65.7298 25.192C65.2738 25.36 64.9498 25.408 64.7578 25.336C64.7578 25.336 64.7218 25.36 64.6498 25.408C64.6018 25.456 64.5778 25.54 64.5778 25.66C64.5778 25.708 64.4098 25.804 64.0738 25.948C63.7378 26.092 63.3418 26.224 62.8858 26.344C62.4298 26.464 62.0098 26.524 61.6258 26.524C61.1218 26.524 60.7618 26.428 60.5458 26.236C60.4978 26.284 60.4378 26.356 60.3658 26.452C60.3178 26.548 60.2938 26.632 60.2938 26.704C60.2938 26.848 60.2338 27.076 60.1138 27.388C60.0178 27.7 59.8978 27.976 59.7538 28.216C59.6098 28.48 59.4778 28.612 59.3578 28.612C59.3578 28.612 59.3338 28.648 59.2858 28.72C59.2378 28.792 59.2618 28.888 59.3578 29.008C59.3578 29.008 59.3458 29.14 59.3218 29.404C59.3218 29.692 59.2618 29.932 59.1418 30.124C59.1418 30.316 59.1058 30.604 59.0338 30.988C58.9618 31.372 58.8778 31.66 58.7818 31.852C58.7818 32.14 58.7338 32.416 58.6378 32.68C58.5658 32.968 58.4818 33.112 58.3858 33.112C58.2898 33.136 58.2298 33.28 58.2058 33.544C58.1818 33.832 58.1698 34.036 58.1698 34.156C58.1458 34.756 57.9538 35.272 57.5938 35.704C57.2338 36.16 56.9098 36.388 56.6218 36.388ZM61.2298 23.788C61.4218 23.788 61.7698 23.704 62.2738 23.536C62.7778 23.368 63.3058 23.164 63.8578 22.924C64.4098 22.66 64.8418 22.396 65.1538 22.132C65.7778 21.58 66.2578 21.04 66.5938 20.512C66.9538 19.984 66.9298 19.396 66.5218 18.748C66.3298 18.412 66.0178 18.28 65.5858 18.352C65.1778 18.4 64.7218 18.592 64.2178 18.928C63.7138 19.264 63.1978 19.684 62.6698 20.188C62.3818 20.5 62.1178 20.86 61.8778 21.268C61.6378 21.676 61.4338 22.072 61.2658 22.456C61.1218 22.84 61.0378 23.164 61.0138 23.428C60.9898 23.668 61.0618 23.788 61.2298 23.788ZM89.9193 27.82C89.5353 27.892 89.1513 27.904 88.7673 27.856C88.3833 27.808 88.0233 27.664 87.6873 27.424C87.5193 27.088 87.3513 26.776 87.1833 26.488C87.0393 26.2 87.0513 25.864 87.2193 25.48C87.3633 25.096 87.4233 24.712 87.3993 24.328C87.3993 23.92 87.4593 23.524 87.5793 23.14C87.6033 23.092 87.6153 23.044 87.6153 22.996C87.6393 22.948 87.6633 22.912 87.6873 22.888C87.8073 22.672 87.8793 22.42 87.9033 22.132C87.9513 21.844 88.0113 21.58 88.0833 21.34C88.1073 21.268 88.1313 21.124 88.1553 20.908C88.1793 20.692 88.2033 20.452 88.2273 20.188C88.2513 19.9 88.2753 19.636 88.2993 19.396C88.3473 19.204 88.3712 19.036 88.3712 18.892C88.3953 18.724 88.4073 18.628 88.4073 18.604C88.3353 18.676 88.1073 18.976 87.7233 19.504C87.3393 20.032 86.9073 20.632 86.4273 21.304C85.9473 21.952 85.5273 22.528 85.1673 23.032C85.1193 23.128 85.0713 23.212 85.0233 23.284C84.9753 23.332 84.9273 23.392 84.8793 23.464C84.7593 23.632 84.6633 23.776 84.5913 23.896C84.5193 23.992 84.4833 24.052 84.4833 24.076C84.1713 24.58 83.7753 25.096 83.2953 25.624C82.8153 26.128 82.3593 26.584 81.9273 26.992C81.4473 27.088 81.0633 27.064 80.7753 26.92C80.5113 26.752 80.1753 26.62 79.7673 26.524C79.6713 26.332 79.5753 26.14 79.4793 25.948C79.3833 25.732 79.2873 25.528 79.1913 25.336C79.2393 25.096 79.3233 24.664 79.4433 24.04C79.5873 23.392 79.7313 22.672 79.8753 21.88C80.0433 21.088 80.1633 20.356 80.2353 19.684C80.2593 19.564 80.2713 19.456 80.2713 19.36C80.2953 19.264 80.3073 19.168 80.3073 19.072C80.3313 19.024 80.3433 18.976 80.3433 18.928C80.3433 18.88 80.3433 18.832 80.3433 18.784C80.3673 18.616 80.3793 18.46 80.3793 18.316C80.3793 18.172 80.3673 18.052 80.3433 17.956C80.3433 17.908 80.3433 17.872 80.3433 17.848C80.3433 17.8 80.3313 17.764 80.3073 17.74C79.7313 18.868 79.1793 19.756 78.6513 20.404C78.1473 21.052 77.6673 21.64 77.2113 22.168C76.8273 22.648 76.4433 23.14 76.0593 23.644C75.6993 24.124 75.3033 24.592 74.8713 25.048C74.6313 25.288 74.3673 25.528 74.0793 25.768C73.8153 26.008 73.5273 26.236 73.2153 26.452C73.0713 26.764 72.8793 26.992 72.6393 27.136C72.3993 27.28 72.1473 27.352 71.8833 27.352C71.4753 27.352 71.0913 27.22 70.7313 26.956C70.3713 26.668 70.1913 26.332 70.1913 25.948C70.1913 25.588 70.3593 25.24 70.6953 24.904C70.7433 24.832 70.7913 24.76 70.8393 24.688C70.8873 24.592 70.9233 24.508 70.9473 24.436C71.4273 23.932 71.9793 23.356 72.6033 22.708C73.2513 22.06 73.8633 21.424 74.4393 20.8C75.0153 20.176 75.4353 19.66 75.6993 19.252C75.8193 19.06 75.9753 18.808 76.1673 18.496C76.3833 18.184 76.6353 17.848 76.9233 17.488C77.2833 16.984 77.6673 16.48 78.0753 15.976C78.4833 15.448 78.8673 14.968 79.2273 14.536C79.6113 14.08 79.8993 13.756 80.0913 13.564C80.3073 13.708 80.5353 13.828 80.7753 13.924C81.0393 13.996 81.2913 14.032 81.5313 14.032C81.6513 14.2 81.7713 14.368 81.8913 14.536C82.0353 14.68 82.1913 14.824 82.3593 14.968C82.6473 15.208 82.8393 15.556 82.9353 16.012C83.0553 16.468 83.1153 16.972 83.1153 17.524C83.1153 18.412 83.0193 19.348 82.8273 20.332C82.6593 21.292 82.5273 22.108 82.4313 22.78C82.4793 22.732 82.5153 22.684 82.5393 22.636C82.5873 22.564 82.6233 22.504 82.6473 22.456C83.1033 21.76 83.5473 21.1 83.9793 20.476C84.4113 19.852 84.8433 19.276 85.2753 18.748C85.6593 18.244 86.0433 17.776 86.4273 17.344C86.8113 16.888 87.1833 16.456 87.5433 16.048C87.9273 15.64 88.3113 15.244 88.6953 14.86C88.8873 14.668 89.0793 14.476 89.2713 14.284C89.4873 14.092 89.7033 13.9 89.9193 13.708C90.1353 13.732 90.3633 13.744 90.6033 13.744C90.8673 13.72 91.1193 13.708 91.3593 13.708C91.5993 13.876 91.8033 13.996 91.9713 14.068C92.1393 14.116 92.3673 14.176 92.6553 14.248C92.6553 14.56 92.6913 14.848 92.7633 15.112C92.8353 15.376 92.8473 15.664 92.7993 15.976C92.7513 16.24 92.7153 16.432 92.6913 16.552C92.6913 16.672 92.6193 16.864 92.4753 17.128C92.3313 17.392 92.1873 17.824 92.0433 18.424C91.8993 19 91.7793 19.6 91.6833 20.224C91.5873 20.824 91.5033 21.304 91.4313 21.664C91.4073 21.88 91.3593 22.108 91.2873 22.348C91.2153 22.564 91.0953 22.804 90.9273 23.068C90.8793 23.308 90.8553 23.524 90.8553 23.716C90.8793 23.884 90.8313 24.088 90.7113 24.328C90.7113 24.376 90.7113 24.436 90.7113 24.508C90.7113 24.556 90.7113 24.604 90.7113 24.652C90.7353 24.82 90.7353 24.988 90.7113 25.156C90.7113 25.3 90.6753 25.456 90.6033 25.624C90.6033 25.888 90.6033 26.08 90.6033 26.2C90.6273 26.32 90.6873 26.512 90.7833 26.776C90.6393 26.944 90.4953 27.112 90.3513 27.28C90.2073 27.448 90.0633 27.628 89.9193 27.82ZM105.175 28.108C104.431 27.844 103.819 27.376 103.339 26.704C102.883 26.008 102.559 25.288 102.367 24.544C102.271 24.64 102.175 24.736 102.079 24.832C102.007 24.904 101.911 25 101.791 25.12C101.431 25.504 101.011 25.9 100.531 26.308C100.051 26.716 99.5588 27.064 99.0548 27.352C98.5508 27.616 98.0468 27.724 97.5428 27.676C97.1588 27.412 96.7868 27.16 96.4268 26.92C96.0908 26.656 95.8268 26.296 95.6348 25.84C95.6348 25.816 95.6228 25.804 95.5988 25.804C95.5988 25.804 95.5988 25.792 95.5988 25.768C95.4068 25.216 95.2628 24.724 95.1668 24.292C95.0948 23.836 95.1188 23.236 95.2388 22.492C95.3828 21.748 95.6588 20.692 96.0668 19.324C96.2348 18.748 96.4148 18.172 96.6068 17.596C96.7988 16.996 96.9908 16.456 97.1828 15.976C97.3748 15.472 97.5548 15.052 97.7228 14.716C97.8908 14.38 98.0468 14.164 98.1908 14.068C98.3108 14.068 98.4188 14.068 98.5148 14.068C98.6108 14.044 98.7068 14.032 98.8028 14.032C99.0188 14.032 99.2828 14.152 99.5948 14.392C99.7868 14.512 99.9668 14.644 100.135 14.788C100.327 14.932 100.447 15.064 100.495 15.184C100.639 15.448 100.591 15.976 100.351 16.768C100.111 17.56 99.8228 18.424 99.4868 19.36C99.1748 20.272 98.8868 21.172 98.6228 22.06C98.3828 22.924 98.3108 23.596 98.4068 24.076C98.6708 24.004 98.9108 23.92 99.1268 23.824C99.3668 23.704 99.5828 23.56 99.7748 23.392C100.183 23.104 100.555 22.768 100.891 22.384C101.227 22 101.515 21.604 101.755 21.196C102.019 20.764 102.223 20.368 102.367 20.008C102.583 19.456 102.775 18.976 102.943 18.568C103.111 18.136 103.243 17.776 103.339 17.488C103.435 17.176 103.495 16.912 103.519 16.696C103.567 16.48 103.591 16.288 103.591 16.12C103.567 15.688 103.615 15.376 103.735 15.184C103.879 14.968 104.143 14.752 104.527 14.536C104.719 14.536 104.911 14.548 105.103 14.572C105.295 14.572 105.475 14.584 105.643 14.608C105.835 14.776 106.027 14.968 106.219 15.184C106.435 15.376 106.639 15.568 106.831 15.76C107.023 16.312 106.999 16.972 106.759 17.74C106.543 18.484 106.303 19.264 106.039 20.08C105.775 20.92 105.559 21.76 105.391 22.6C105.247 23.416 105.367 24.136 105.751 24.76C106.111 24.592 106.447 24.4 106.759 24.184C107.071 23.944 107.383 23.704 107.695 23.464C108.007 23.224 108.319 23.008 108.631 22.816C109.015 23.056 109.315 23.476 109.531 24.076C109.747 24.676 109.855 25.192 109.855 25.624C109.783 25.72 109.699 25.804 109.603 25.876C109.531 25.948 109.447 26.02 109.351 26.092C109.159 26.452 108.811 26.824 108.307 27.208C107.803 27.568 107.263 27.844 106.687 28.036C106.111 28.228 105.607 28.252 105.175 28.108ZM111.593 36.748C111.425 36.676 111.161 36.496 110.801 36.208C110.465 35.92 110.153 35.608 109.865 35.272C109.601 34.96 109.469 34.732 109.469 34.588C109.469 34.444 109.529 34.06 109.649 33.436C109.769 32.836 109.925 32.092 110.117 31.204C110.333 30.34 110.561 29.452 110.801 28.54C111.065 27.652 111.329 26.86 111.593 26.164C111.641 26.044 111.797 25.648 112.061 24.976C112.349 24.28 112.625 23.44 112.889 22.456C113.081 21.832 113.333 21.124 113.645 20.332C113.957 19.54 114.281 18.748 114.617 17.956C114.953 17.14 115.229 16.42 115.445 15.796C115.661 15.172 115.901 14.548 116.165 13.924C116.429 13.276 116.573 12.904 116.597 12.808C116.645 12.664 116.777 12.544 116.993 12.448C117.233 12.328 117.473 12.232 117.713 12.16C117.953 12.064 118.109 12.004 118.181 11.98C118.613 11.86 118.985 12.04 119.297 12.52C119.417 12.736 119.441 13.036 119.369 13.42C119.321 13.78 119.201 14.176 119.009 14.608L118.757 15.328L120.053 15.04C120.269 15.04 120.569 15.052 120.953 15.076C121.337 15.1 121.709 15.124 122.069 15.148C122.453 15.172 122.717 15.208 122.861 15.256C123.437 15.28 123.833 15.388 124.049 15.58C124.289 15.772 124.493 16.024 124.661 16.336C124.781 16.456 124.925 16.624 125.093 16.84C125.261 17.032 125.357 17.224 125.381 17.416C125.477 17.824 125.441 18.304 125.273 18.856C125.129 19.408 124.901 19.972 124.589 20.548C124.301 21.1 123.953 21.616 123.545 22.096C123.161 22.552 122.789 22.9 122.429 23.14C122.189 23.236 121.973 23.344 121.781 23.464C121.589 23.56 121.493 23.608 121.493 23.608C121.469 23.728 121.217 23.932 120.737 24.22C120.281 24.508 119.741 24.784 119.117 25.048C118.517 25.288 117.977 25.444 117.497 25.516C117.329 25.54 117.089 25.564 116.777 25.588C116.465 25.612 116.225 25.576 116.057 25.48C115.793 25.432 115.613 25.408 115.517 25.408C115.421 25.408 115.373 25.456 115.373 25.552C115.349 25.6 115.181 25.984 114.869 26.704C114.557 27.424 114.233 28.42 113.897 29.692C113.441 31.084 113.069 32.224 112.781 33.112C112.493 34.024 112.265 34.732 112.097 35.236C111.953 35.74 111.845 36.1 111.773 36.316C111.701 36.556 111.641 36.7 111.593 36.748ZM116.237 22.384C116.309 22.528 116.561 22.576 116.993 22.528C117.425 22.456 117.917 22.312 118.469 22.096C119.021 21.88 119.513 21.628 119.945 21.34C120.401 21.028 120.665 20.704 120.737 20.368C121.265 19.768 121.637 19.336 121.853 19.072C122.069 18.784 122.057 18.556 121.817 18.388C121.553 18.004 121.169 17.824 120.665 17.848C120.185 17.872 119.417 18.172 118.361 18.748C117.953 18.892 117.677 19.024 117.533 19.144C117.389 19.24 117.269 19.396 117.173 19.612C117.101 19.828 116.957 20.176 116.741 20.656C116.525 21.184 116.381 21.58 116.309 21.844C116.237 22.108 116.213 22.288 116.237 22.384ZM129.264 36.568C129.168 36.592 129.024 36.556 128.832 36.46C128.664 36.364 128.52 36.196 128.4 35.956C128.28 35.716 128.244 35.404 128.292 35.02C128.196 34.684 128.208 34.264 128.328 33.76C128.472 33.28 128.772 32.56 129.228 31.6C129.468 31.216 129.684 30.76 129.876 30.232C130.092 29.704 130.332 29.176 130.596 28.648C130.716 28.432 130.92 28.06 131.208 27.532C131.52 27.004 131.856 26.38 132.216 25.66C132.6 24.916 132.948 24.148 133.26 23.356C132.636 24.004 132.096 24.616 131.64 25.192C131.208 25.744 130.812 26.188 130.452 26.524C130.116 26.836 129.756 26.98 129.372 26.956C129.06 26.884 128.688 26.68 128.256 26.344C127.824 26.008 127.548 25.636 127.428 25.228C127.332 24.7 127.296 24.028 127.32 23.212C127.368 22.396 127.524 21.16 127.788 19.504C127.98 18.688 128.064 18.064 128.04 17.632C128.04 17.176 127.98 16.84 127.86 16.624C127.74 16.408 127.584 16.216 127.392 16.048C127.08 15.76 127.056 15.448 127.32 15.112C127.584 14.776 127.884 14.524 128.22 14.356C128.724 14.236 129.12 14.212 129.408 14.284C129.72 14.332 130.032 14.536 130.344 14.896C130.536 15.208 130.728 15.544 130.92 15.904C131.112 16.264 131.208 16.78 131.208 17.452C131.208 17.74 131.196 18.064 131.172 18.424C131.148 18.76 131.124 19.072 131.1 19.36C131.076 19.648 131.052 19.876 131.028 20.044C130.788 20.932 130.572 21.7 130.38 22.348C130.188 22.996 130.152 23.32 130.272 23.32C130.752 22.936 131.16 22.564 131.496 22.204C131.856 21.844 132.24 21.412 132.648 20.908C133.056 20.404 133.56 19.744 134.16 18.928C134.376 18.52 134.592 18.124 134.808 17.74C135.024 17.356 135.204 16.96 135.348 16.552C135.492 16.24 135.684 15.916 135.924 15.58C136.164 15.22 136.332 15.028 136.428 15.004C136.548 14.956 136.716 14.968 136.932 15.04C137.148 15.112 137.352 15.196 137.544 15.292C137.76 15.364 137.868 15.424 137.868 15.472C137.892 15.496 138.012 15.52 138.228 15.544C138.444 15.568 138.66 15.592 138.876 15.616C139.092 15.616 139.2 15.652 139.2 15.724C139.2 15.772 139.128 15.952 138.984 16.264C138.864 16.576 138.72 16.924 138.552 17.308C138.384 17.692 138.228 18.04 138.084 18.352C137.964 18.64 137.916 18.808 137.94 18.856C137.988 18.904 137.952 19.084 137.832 19.396C137.712 19.684 137.568 20.008 137.4 20.368C137.256 20.728 137.124 21.052 137.004 21.34C136.764 22.132 136.488 22.924 136.176 23.716C135.864 24.484 135.492 25.252 135.06 26.02C134.916 26.308 134.7 26.752 134.412 27.352C134.148 27.952 133.884 28.54 133.62 29.116C133.38 29.716 133.188 30.172 133.044 30.484C132.948 30.676 132.804 30.976 132.612 31.384C132.444 31.816 132.252 32.284 132.036 32.788C131.844 33.292 131.652 33.76 131.46 34.192C131.268 34.648 131.124 34.996 131.028 35.236C130.98 35.692 130.872 36.028 130.704 36.244C130.488 36.46 130.188 36.568 129.804 36.568C129.444 36.568 129.264 36.568 129.264 36.568ZM148.338 28.216C148.17 28.312 147.942 28.276 147.654 28.108C147.39 27.94 147.126 27.688 146.862 27.352C146.694 27.064 146.562 26.776 146.466 26.488C146.394 26.176 146.358 25.72 146.358 25.12C146.382 24.64 146.382 24.316 146.358 24.148C146.358 23.956 146.25 23.944 146.034 24.112C145.842 24.256 145.446 24.616 144.846 25.192C144.246 25.792 143.67 26.308 143.118 26.74C142.59 27.148 142.158 27.34 141.822 27.316C141.654 27.316 141.426 27.208 141.138 26.992C140.85 26.776 140.574 26.512 140.31 26.2C140.046 25.864 139.854 25.552 139.734 25.264C139.59 24.688 139.578 23.944 139.698 23.032C139.842 22.12 140.07 21.172 140.382 20.188C140.694 19.18 141.042 18.244 141.426 17.38C141.834 16.492 142.23 15.784 142.614 15.256C143.022 14.704 143.37 14.44 143.658 14.464C144.066 14.512 144.414 14.716 144.702 15.076C145.014 15.412 145.254 15.784 145.422 16.192C145.518 16.36 145.554 16.504 145.53 16.624C145.53 16.744 145.434 16.888 145.242 17.056C145.026 17.344 144.762 17.764 144.45 18.316C144.162 18.844 143.862 19.42 143.55 20.044C143.262 20.668 142.998 21.268 142.758 21.844C142.542 22.396 142.386 22.852 142.29 23.212C142.194 23.572 142.194 23.752 142.29 23.752C142.626 23.752 142.938 23.668 143.226 23.5C143.514 23.308 143.874 23.008 144.306 22.6C144.81 22.096 145.254 21.592 145.638 21.088C146.022 20.56 146.418 19.96 146.826 19.288C147.138 18.808 147.462 18.28 147.798 17.704C148.158 17.128 148.386 16.72 148.482 16.48C148.818 15.856 149.07 15.388 149.238 15.076C149.406 14.764 149.61 14.572 149.85 14.5C149.97 14.5 150.138 14.5 150.354 14.5C150.57 14.5 150.678 14.5 150.678 14.5C150.822 14.524 150.99 14.632 151.182 14.824C151.374 14.92 151.566 15.052 151.758 15.22C151.974 15.388 152.082 15.532 152.082 15.652C151.986 15.892 151.83 16.252 151.614 16.732C151.422 17.188 151.278 17.524 151.182 17.74C150.726 18.772 150.282 19.792 149.85 20.8C149.442 21.784 149.142 22.792 148.95 23.824C148.902 24.16 148.89 24.556 148.914 25.012C148.962 25.444 149.034 25.756 149.13 25.948C149.202 26.092 149.286 26.26 149.382 26.452C149.502 26.62 149.634 26.764 149.778 26.884C149.994 27.028 149.982 27.208 149.742 27.424C149.526 27.64 149.25 27.832 148.914 28C148.602 28.144 148.41 28.216 148.338 28.216ZM147.942 12.304C147.102 12.328 146.43 12.1 145.926 11.62C145.422 11.14 144.966 10.312 144.558 9.136C144.486 8.872 144.474 8.632 144.522 8.416C144.57 8.176 144.63 7.996 144.702 7.876C144.87 7.684 145.062 7.576 145.278 7.552C145.518 7.504 145.686 7.504 145.782 7.552C146.118 7.672 146.418 7.84 146.682 8.056C146.946 8.248 147.066 8.584 147.042 9.064C147.09 9.184 147.126 9.304 147.15 9.424C147.198 9.52 147.234 9.592 147.258 9.64C147.33 9.808 147.438 9.904 147.582 9.928C147.726 9.928 147.834 9.916 147.906 9.892C148.386 9.7 148.806 9.508 149.166 9.316C149.55 9.1 149.898 8.836 150.21 8.524C150.474 8.26 150.714 8.044 150.93 7.876C151.146 7.684 151.374 7.468 151.614 7.228L151.65 7.192C151.89 7 152.166 6.952 152.478 7.048C152.79 7.12 152.958 7.216 152.982 7.336C153.102 7.456 153.174 7.66 153.198 7.948C153.246 8.212 153.27 8.44 153.27 8.632L153.234 8.776C153.138 8.944 153.042 9.172 152.946 9.46C152.85 9.724 152.598 10 152.19 10.288C151.758 10.672 151.326 10.984 150.894 11.224C150.462 11.464 149.97 11.74 149.418 12.052C149.25 12.148 149.046 12.22 148.806 12.268C148.566 12.292 148.278 12.304 147.942 12.304ZM156.433 26.812C155.977 26.62 155.605 26.332 155.317 25.948C155.053 25.54 154.921 25.048 154.921 24.472C154.921 24.232 154.969 23.824 155.065 23.248C155.161 22.672 155.293 22.024 155.461 21.304C155.629 20.584 155.797 19.912 155.965 19.288C156.205 18.856 156.361 18.424 156.433 17.992C156.529 17.56 156.577 17.296 156.577 17.2C156.625 16.912 156.709 16.528 156.829 16.048C156.949 15.568 157.069 15.136 157.189 14.752C157.333 14.344 157.429 14.116 157.477 14.068C157.597 13.948 157.801 13.876 158.089 13.852C158.377 13.828 158.665 13.864 158.953 13.96C159.241 14.032 159.433 14.188 159.529 14.428C159.793 14.716 159.937 15.148 159.961 15.724C160.009 16.3 159.901 16.972 159.637 17.74C159.421 18.22 159.205 18.784 158.989 19.432C158.773 20.08 158.581 20.68 158.413 21.232C158.269 21.76 158.185 22.12 158.161 22.312L156.865 22.276C157.273 21.892 157.657 21.496 158.017 21.088C158.377 20.656 158.641 20.32 158.809 20.08C159.217 19.528 159.565 19.072 159.853 18.712C160.165 18.328 160.561 17.872 161.041 17.344C161.521 16.792 162.037 16.408 162.589 16.192C163.141 15.952 163.549 15.832 163.813 15.832C164.341 15.928 164.809 16.204 165.217 16.66C165.649 17.092 165.913 17.74 166.009 18.604C166.009 18.94 165.973 19.336 165.901 19.792C165.853 20.248 165.829 20.476 165.829 20.476C165.829 20.476 166.021 20.236 166.405 19.756C166.813 19.276 167.353 18.736 168.025 18.136C168.481 17.8 168.925 17.608 169.357 17.56C169.789 17.488 170.173 17.632 170.509 17.992C171.133 18.328 171.589 18.916 171.877 19.756C172.165 20.596 172.261 21.544 172.165 22.6C172.093 23.224 172.093 23.728 172.165 24.112C172.261 24.472 172.357 24.796 172.453 25.084C172.765 25.516 172.813 25.9 172.597 26.236C172.381 26.548 172.189 26.704 172.021 26.704C171.781 26.704 171.421 26.656 170.941 26.56C170.461 26.464 170.017 26.296 169.609 26.056C169.225 25.816 169.033 25.492 169.033 25.084V22.852C169.033 22.324 169.009 21.94 168.961 21.7C168.937 21.436 168.877 21.268 168.781 21.196C168.517 21.052 168.193 21.16 167.809 21.52C167.425 21.88 167.005 22.396 166.549 23.068C166.117 23.716 165.649 24.448 165.145 25.264C164.689 26.008 164.317 26.464 164.029 26.632C163.741 26.776 163.465 26.764 163.201 26.596C162.673 26.428 162.337 26.2 162.193 25.912C162.073 25.6 162.061 25.252 162.157 24.868C162.277 24.46 162.421 23.932 162.589 23.284C162.781 22.636 162.961 22.012 163.129 21.412C163.297 20.788 163.405 20.332 163.453 20.044C163.357 19.852 163.189 19.792 162.949 19.864C162.733 19.912 162.505 20.02 162.265 20.188C161.977 20.38 161.665 20.584 161.329 20.8C161.017 21.016 160.645 21.472 160.213 22.168C159.925 22.624 159.601 23.128 159.241 23.68C158.881 24.208 158.545 24.688 158.233 25.12C157.945 25.552 157.705 25.852 157.513 26.02C157.345 26.452 157.189 26.728 157.045 26.848C156.901 26.944 156.697 26.932 156.433 26.812ZM181.095 27.28C180.375 27.688 179.607 27.928 178.791 28C177.999 28.048 177.255 27.94 176.559 27.676C175.863 27.388 175.299 26.968 174.867 26.416C174.627 26.104 174.399 25.612 174.183 24.94C173.967 24.244 173.931 23.308 174.075 22.132C174.219 21.028 174.555 19.912 175.083 18.784C175.635 17.656 176.307 16.66 177.099 15.796C177.891 14.932 178.755 14.344 179.691 14.032C180.027 13.912 180.363 13.828 180.699 13.78C181.059 13.708 181.527 13.696 182.103 13.744C182.655 13.816 183.147 13.96 183.579 14.176C184.011 14.368 184.323 14.584 184.515 14.824C184.899 15.208 185.151 15.58 185.271 15.94C185.391 16.3 185.439 16.648 185.415 16.984C185.295 17.752 184.947 18.58 184.371 19.468C183.819 20.356 183.039 21.016 182.031 21.448C181.623 21.616 181.143 21.724 180.591 21.772C180.039 21.82 179.283 21.748 178.323 21.556C177.747 21.436 177.363 21.496 177.171 21.736C177.003 21.976 176.931 22.444 176.955 23.14C177.003 23.572 177.099 23.956 177.243 24.292C177.411 24.604 177.711 24.82 178.143 24.94C178.695 25.036 179.091 25.048 179.331 24.976C179.571 24.88 179.871 24.748 180.231 24.58C180.423 24.46 180.603 24.328 180.771 24.184C180.963 24.04 181.143 23.896 181.311 23.752C181.503 23.608 181.659 23.5 181.779 23.428C181.899 23.332 182.019 23.272 182.139 23.248C182.259 23.224 182.379 23.212 182.499 23.212C182.763 23.236 183.015 23.38 183.255 23.644C183.495 23.908 183.651 24.16 183.723 24.4C183.723 24.592 183.603 24.868 183.363 25.228C183.123 25.564 182.799 25.924 182.391 26.308C182.007 26.668 181.575 26.992 181.095 27.28ZM180.627 19.252C180.795 19.18 181.035 19.012 181.347 18.748C181.683 18.484 181.983 18.208 182.247 17.92C182.511 17.608 182.643 17.368 182.643 17.2C182.643 16.936 182.463 16.708 182.103 16.516C181.767 16.324 181.323 16.288 180.771 16.408C180.579 16.456 180.351 16.588 180.087 16.804C179.823 17.02 179.559 17.272 179.295 17.56C179.031 17.824 178.803 18.088 178.611 18.352C178.419 18.592 178.287 18.784 178.215 18.928C178.311 19.048 178.503 19.144 178.791 19.216C179.079 19.288 179.391 19.324 179.727 19.324C180.087 19.324 180.387 19.3 180.627 19.252ZM196.149 28.108C195.957 28.06 195.705 27.88 195.393 27.568C195.081 27.232 194.793 26.86 194.529 26.452C194.289 26.044 194.169 25.708 194.169 25.444C194.289 25.18 194.445 24.724 194.637 24.076C194.829 23.404 195.069 22.636 195.357 21.772C195.549 21.508 195.693 21.196 195.789 20.836C195.909 20.476 196.017 20.152 196.113 19.864C196.305 19.48 196.521 18.988 196.761 18.388C197.025 17.764 197.289 17.14 197.553 16.516C197.817 15.868 198.045 15.328 198.237 14.896C198.357 14.68 198.477 14.464 198.597 14.248C198.717 14.032 198.825 13.816 198.921 13.6C198.921 13.48 198.981 13.372 199.101 13.276C199.221 13.156 199.377 13.072 199.569 13.024C199.689 12.976 199.821 12.94 199.965 12.916C200.133 12.892 200.301 12.88 200.469 12.88C200.805 12.88 201.105 13.096 201.369 13.528C201.657 13.936 201.801 14.308 201.801 14.644C201.801 15.148 201.717 15.568 201.549 15.904C201.405 16.216 201.237 16.492 201.045 16.732C200.853 16.948 200.673 17.176 200.505 17.416C200.361 17.656 200.289 17.968 200.289 18.352C200.289 18.448 200.373 18.46 200.541 18.388C200.709 18.292 200.901 18.184 201.117 18.064C201.309 17.968 201.585 17.776 201.945 17.488C202.329 17.2 202.725 16.912 203.133 16.624C203.541 16.312 203.877 16.12 204.141 16.048C204.669 15.688 205.089 15.424 205.401 15.256C205.713 15.064 205.941 14.968 206.085 14.968C206.349 14.968 206.625 15.136 206.913 15.472C207.201 15.784 207.345 16.084 207.345 16.372C207.345 16.612 207.249 16.852 207.057 17.092C206.889 17.308 206.649 17.548 206.337 17.812C205.833 18.22 205.245 18.628 204.573 19.036C203.901 19.42 203.289 19.756 202.737 20.044C202.209 20.308 201.897 20.5 201.801 20.62C201.801 20.644 201.885 20.788 202.053 21.052C202.245 21.292 202.449 21.568 202.665 21.88C202.809 22.144 202.941 22.408 203.061 22.672C203.205 22.912 203.325 23.14 203.421 23.356C203.733 24.004 203.997 24.508 204.213 24.868C204.453 25.204 204.729 25.408 205.041 25.48C205.353 25.528 205.809 25.468 206.409 25.3C206.865 25.156 207.213 25.24 207.453 25.552C207.717 25.864 207.849 26.152 207.849 26.416C207.849 26.536 207.777 26.668 207.633 26.812C207.513 26.956 207.357 27.112 207.165 27.28C206.781 27.592 206.325 27.868 205.797 28.108C205.293 28.372 204.909 28.504 204.645 28.504C204.381 28.504 204.093 28.432 203.781 28.288C203.469 28.144 203.073 27.832 202.593 27.352C202.113 26.872 201.477 26.116 200.685 25.084C200.685 24.988 200.625 24.832 200.505 24.616C200.385 24.376 200.265 24.136 200.145 23.896C200.049 23.704 199.953 23.548 199.857 23.428C199.785 23.284 199.737 23.2 199.713 23.176C199.713 23.296 199.689 23.272 199.641 23.104C199.617 22.936 199.557 22.756 199.461 22.564C199.365 22.348 199.221 22.24 199.029 22.24C198.933 22.24 198.801 22.396 198.633 22.708C198.465 22.996 198.285 23.356 198.093 23.788C197.973 24.076 197.853 24.388 197.733 24.724C197.613 25.06 197.517 25.396 197.445 25.732C197.397 26.044 197.373 26.344 197.373 26.632C197.373 26.992 197.265 27.328 197.049 27.64C196.857 27.952 196.557 28.108 196.149 28.108ZM209.194 37.252C208.666 37.348 208.306 37.36 208.114 37.288C207.922 37.216 207.658 37.096 207.322 36.928C207.058 36.736 206.866 36.592 206.746 36.496C206.626 36.4 206.542 36.304 206.494 36.208C206.254 35.704 206.218 35.332 206.386 35.092C206.554 34.852 206.794 34.696 207.106 34.624C207.442 34.576 207.73 34.552 207.97 34.552C208.138 34.648 208.414 34.696 208.798 34.696C209.206 34.696 209.458 34.648 209.554 34.552C209.554 34.552 209.662 34.48 209.878 34.336C210.118 34.216 210.43 34.12 210.814 34.048C211.558 33.688 212.146 33.316 212.578 32.932C213.01 32.572 213.49 31.948 214.018 31.06C214.234 30.724 214.462 30.328 214.702 29.872C214.942 29.44 215.11 29.008 215.206 28.576C215.398 28.096 215.614 27.448 215.854 26.632C216.118 25.816 216.346 25.012 216.538 24.22C216.73 23.404 216.838 22.792 216.862 22.384C217.006 21.04 217.282 19.744 217.69 18.496C218.098 17.224 218.422 15.88 218.662 14.464C218.806 14.128 218.914 13.936 218.986 13.888C219.058 13.816 219.214 13.78 219.454 13.78C219.718 13.78 220.03 13.864 220.39 14.032C220.75 14.176 221.014 14.38 221.182 14.644C221.422 15.1 221.53 15.64 221.506 16.264C221.506 16.864 221.35 17.392 221.038 17.848C220.798 18.184 220.582 18.712 220.39 19.432C220.222 20.128 220.054 21.004 219.886 22.06C219.766 22.588 219.634 23.212 219.49 23.932C219.37 24.628 219.238 25.408 219.094 26.272C218.998 26.512 218.866 26.884 218.698 27.388C218.53 27.868 218.422 28.252 218.374 28.54C218.35 28.636 218.278 28.828 218.158 29.116C218.038 29.404 217.918 29.68 217.798 29.944C217.678 30.232 217.594 30.424 217.546 30.52C216.394 32.848 215.062 34.528 213.55 35.56C212.062 36.592 210.61 37.156 209.194 37.252ZM212.218 27.064C211.954 27.064 211.678 26.92 211.39 26.632C211.126 26.344 210.946 26.116 210.85 25.948C210.754 25.708 210.574 25.48 210.31 25.264C210.046 25.048 209.818 24.784 209.626 24.472C209.434 24.16 209.386 23.776 209.482 23.32C209.578 23.008 209.722 22.54 209.914 21.916C210.106 21.268 210.334 20.56 210.598 19.792C210.862 19 211.126 18.22 211.39 17.452C211.678 16.684 211.942 16 212.182 15.4C212.422 14.8 212.626 14.38 212.794 14.14C212.938 13.948 213.166 13.804 213.478 13.708C213.79 13.612 214.102 13.588 214.414 13.636C214.726 13.684 214.954 13.828 215.098 14.068C215.362 14.404 215.506 14.74 215.53 15.076C215.578 15.388 215.41 15.892 215.026 16.588C214.93 16.852 214.81 17.14 214.666 17.452C214.522 17.74 214.45 17.932 214.45 18.028C214.426 18.076 214.378 18.244 214.306 18.532C214.258 18.796 214.198 19.048 214.126 19.288C214.054 19.528 213.982 19.648 213.91 19.648C213.814 19.744 213.706 19.996 213.586 20.404C213.49 20.812 213.394 21.268 213.298 21.772C213.226 22.252 213.178 22.684 213.154 23.068C213.13 23.428 213.166 23.608 213.262 23.608C214.006 23.608 214.726 23.38 215.422 22.924C216.118 22.444 216.874 21.652 217.69 20.548L218.014 23.932C217.678 24.1 217.366 24.28 217.078 24.472C216.79 24.64 216.526 24.844 216.286 25.084C216.214 25.18 216.046 25.312 215.782 25.48C215.518 25.648 215.254 25.804 214.99 25.948C214.75 26.068 214.594 26.128 214.522 26.128C214.522 26.128 214.486 26.14 214.414 26.164C214.366 26.164 214.342 26.212 214.342 26.308C214.342 26.356 214.186 26.452 213.874 26.596C213.562 26.716 213.238 26.824 212.902 26.92C212.566 27.016 212.338 27.064 212.218 27.064ZM224.408 27.352C224.096 27.568 223.7 27.628 223.22 27.532C222.764 27.436 222.368 27.34 222.032 27.244C221.984 27.1 221.924 26.968 221.852 26.848C221.804 26.704 221.756 26.56 221.708 26.416C221.612 26.152 221.552 25.936 221.528 25.768C221.528 25.6 221.54 25.468 221.564 25.372C221.612 25.156 221.696 24.988 221.816 24.868C221.936 24.724 222.08 24.592 222.248 24.472C222.392 24.472 222.536 24.472 222.68 24.472C222.824 24.472 222.968 24.472 223.112 24.472C223.208 24.376 223.304 24.292 223.4 24.22C223.496 24.148 223.616 24.1 223.76 24.076C224.168 23.74 224.576 23.284 224.984 22.708C225.416 22.132 225.824 21.508 226.208 20.836C226.616 20.14 226.988 19.456 227.324 18.784C227.66 18.088 227.936 17.476 228.152 16.948C228.176 16.876 228.2 16.804 228.224 16.732C228.248 16.66 228.272 16.6 228.296 16.552C228.128 16.696 227.924 16.78 227.684 16.804C227.468 16.828 227.24 16.828 227 16.804C226.928 16.78 226.856 16.768 226.784 16.768C226.712 16.744 226.64 16.72 226.568 16.696C226.304 16.624 226.064 16.516 225.848 16.372C225.656 16.228 225.536 16.084 225.488 15.94C225.416 15.82 225.344 15.712 225.272 15.616C225.2 15.496 225.128 15.388 225.056 15.292C225.2 14.956 225.416 14.62 225.704 14.284C226.016 13.948 226.352 13.732 226.712 13.636C227.264 13.468 227.912 13.348 228.656 13.276C229.424 13.204 230.192 13.204 230.96 13.276C231.752 13.324 232.472 13.492 233.12 13.78C233.216 13.828 233.312 13.876 233.408 13.924C233.504 13.972 233.6 14.02 233.696 14.068C233.888 14.164 234.056 14.284 234.2 14.428C234.344 14.572 234.476 14.716 234.596 14.86C234.716 15.028 234.824 15.22 234.92 15.436C235.04 15.628 235.124 15.844 235.172 16.084C235.244 16.396 235.268 16.756 235.244 17.164C235.22 17.572 235.172 17.98 235.1 18.388C234.98 18.916 234.836 19.444 234.668 19.972C234.5 20.5 234.356 20.968 234.236 21.376C233.924 22.336 233.612 23.296 233.3 24.256C233.012 25.192 232.736 26.152 232.472 27.136C231.992 27.28 231.536 27.292 231.104 27.172C230.696 27.052 230.324 26.8 229.988 26.416C229.82 25.96 229.736 25.552 229.736 25.192C229.736 24.808 229.844 24.4 230.06 23.968C230.252 23.56 230.372 23.128 230.42 22.672C230.468 22.216 230.636 21.796 230.924 21.412C230.924 21.22 230.936 21.088 230.96 21.016C231.008 20.656 231.08 20.308 231.176 19.972C231.272 19.612 231.38 19.264 231.5 18.928C231.644 18.592 231.764 18.256 231.86 17.92C231.98 17.56 232.064 17.212 232.112 16.876C232.136 16.78 232.148 16.696 232.148 16.624C232.148 16.528 232.148 16.432 232.148 16.336C232.1 16.312 231.92 16.276 231.608 16.228C231.32 16.18 231.164 16.18 231.14 16.228C231.116 16.276 231.092 16.336 231.068 16.408C231.068 16.456 231.056 16.504 231.032 16.552C230.936 16.792 230.84 17.044 230.744 17.308C230.648 17.548 230.54 17.788 230.42 18.028C230.228 18.436 230.036 18.844 229.844 19.252C229.676 19.66 229.52 20.08 229.376 20.512C229.352 20.608 229.28 20.788 229.16 21.052C229.04 21.316 228.92 21.58 228.8 21.844C228.68 22.084 228.596 22.252 228.548 22.348C228.404 22.588 228.26 22.828 228.116 23.068C227.996 23.308 227.852 23.524 227.684 23.716C227.18 24.34 226.676 24.988 226.172 25.66C225.668 26.332 225.08 26.896 224.408 27.352ZM236.687 25.084C236.663 24.628 236.711 24.076 236.831 23.428C236.975 22.756 237.167 22.108 237.407 21.484C237.647 20.836 237.887 20.308 238.127 19.9C238.151 19.492 238.247 19.168 238.415 18.928C238.607 18.664 238.739 18.448 238.811 18.28C238.883 18.04 239.039 17.692 239.279 17.236C239.519 16.78 239.783 16.324 240.071 15.868C240.359 15.388 240.611 15.04 240.827 14.824C241.019 14.224 241.223 13.792 241.439 13.528C241.655 13.264 241.919 13.084 242.231 12.988C242.375 13.012 242.567 13.048 242.807 13.096C243.071 13.144 243.323 13.312 243.563 13.6C243.635 13.696 243.779 13.84 243.995 14.032C244.211 14.2 244.367 14.488 244.463 14.896C244.463 15.328 244.355 15.676 244.139 15.94C243.947 16.18 243.791 16.396 243.671 16.588C243.503 16.804 243.347 17.008 243.203 17.2C243.083 17.368 242.963 17.536 242.843 17.704C242.723 17.872 242.579 18.064 242.411 18.28C242.459 18.304 242.483 18.316 242.483 18.316C242.507 18.316 242.531 18.316 242.555 18.316C242.867 18.292 243.227 18.352 243.635 18.496C244.043 18.64 244.427 18.82 244.787 19.036C245.147 19.228 245.411 19.408 245.579 19.576C245.747 19.744 245.927 19.924 246.119 20.116C246.311 20.284 246.491 20.488 246.659 20.728C246.851 20.944 246.995 21.22 247.091 21.556C247.163 21.652 247.259 21.844 247.379 22.132C247.499 22.42 247.547 22.72 247.523 23.032C247.523 23.104 247.511 23.176 247.487 23.248C247.487 23.32 247.475 23.392 247.451 23.464C247.355 24.064 247.079 24.616 246.623 25.12C246.167 25.6 245.699 25.996 245.219 26.308C244.307 26.836 243.431 27.22 242.591 27.46C241.751 27.7 240.743 27.808 239.567 27.784C239.471 27.784 239.387 27.784 239.315 27.784C239.243 27.784 239.171 27.772 239.099 27.748C238.739 27.7 238.403 27.568 238.091 27.352C237.803 27.136 237.491 26.812 237.155 26.38C236.867 25.972 236.711 25.54 236.687 25.084ZM240.035 24.472C240.443 24.424 240.755 24.376 240.971 24.328C241.211 24.28 241.511 24.208 241.871 24.112C242.135 23.968 242.411 23.836 242.699 23.716C242.987 23.572 243.275 23.404 243.563 23.212C243.875 22.996 244.139 22.72 244.355 22.384C244.451 22.192 244.523 22.012 244.571 21.844C244.619 21.652 244.559 21.508 244.391 21.412C244.151 21.22 243.923 21.088 243.707 21.016C243.515 20.92 243.287 20.872 243.023 20.872C242.951 20.896 242.867 20.896 242.771 20.872C242.699 20.824 242.627 20.788 242.555 20.764C242.219 20.668 241.943 20.656 241.727 20.728C241.535 20.8 241.343 20.86 241.151 20.908C241.175 21.004 241.163 21.088 241.115 21.16C241.091 21.232 241.031 21.34 240.935 21.484C240.935 21.532 240.875 21.616 240.755 21.736C240.683 21.856 240.611 22.036 240.539 22.276C240.491 22.492 240.431 22.72 240.359 22.96C240.311 23.2 240.251 23.428 240.179 23.644C240.155 23.74 240.119 23.86 240.071 24.004C240.023 24.124 240.011 24.28 240.035 24.472ZM251.363 26.668C251.291 26.572 251.135 26.452 250.895 26.308C250.655 26.164 250.535 26.044 250.535 25.948C250.535 25.9 250.523 25.84 250.499 25.768C250.499 25.696 250.451 25.66 250.355 25.66C250.283 25.588 250.319 25.324 250.463 24.868C250.631 24.412 250.847 23.872 251.111 23.248C251.399 22.624 251.699 22.024 252.011 21.448C252.323 20.848 252.587 20.368 252.803 20.008C252.923 19.936 252.995 19.84 253.019 19.72C253.067 19.576 253.067 19.504 253.019 19.504C253.019 19.504 253.079 19.396 253.199 19.18C253.343 18.94 253.451 18.784 253.523 18.712C253.715 18.376 253.859 18.04 253.955 17.704C254.051 17.344 254.075 17.044 254.027 16.804C253.931 16.684 253.823 16.648 253.703 16.696C253.583 16.744 253.523 16.768 253.523 16.768C253.427 16.792 253.283 16.84 253.091 16.912C252.923 16.96 252.767 17.032 252.623 17.128C252.071 17.512 251.663 17.704 251.399 17.704C251.159 17.704 250.919 17.416 250.679 16.84C250.583 16.576 250.547 16.324 250.571 16.084C250.595 15.844 250.691 15.652 250.859 15.508C251.051 15.34 251.291 15.172 251.579 15.004C251.867 14.812 252.059 14.68 252.155 14.608C252.419 14.44 252.791 14.26 253.271 14.068C253.751 13.876 254.039 13.768 254.135 13.744C254.759 13.552 255.287 13.552 255.719 13.744C256.151 13.912 256.475 14.248 256.691 14.752C257.027 15.16 257.195 15.592 257.195 16.048C257.195 16.504 257.027 17.068 256.691 17.74L256.331 18.28C256.211 18.52 256.187 18.64 256.259 18.64C256.355 18.64 256.463 18.556 256.583 18.388C256.655 18.292 256.799 18.148 257.015 17.956C257.231 17.764 257.375 17.668 257.447 17.668C257.447 17.668 257.471 17.656 257.519 17.632C257.591 17.608 257.627 17.512 257.627 17.344C257.699 17.272 257.771 17.2 257.843 17.128C257.939 17.056 257.987 17.02 257.987 17.02C258.083 17.02 258.203 16.972 258.347 16.876C258.515 16.756 258.791 16.54 259.175 16.228C259.439 16.036 259.679 15.94 259.895 15.94C260.447 15.772 260.891 15.952 261.227 16.48C261.587 17.008 261.767 17.692 261.767 18.532L261.011 20.476L262.307 18.892C262.451 18.7 262.595 18.532 262.739 18.388C262.907 18.244 263.051 18.124 263.171 18.028C263.219 17.86 263.291 17.764 263.387 17.74C263.483 17.716 263.531 17.704 263.531 17.704C263.531 17.704 263.555 17.704 263.603 17.704C263.651 17.68 263.675 17.632 263.675 17.56C263.795 17.464 263.927 17.38 264.071 17.308C264.215 17.212 264.311 17.116 264.359 17.02C264.767 16.852 265.259 16.828 265.835 16.948C266.411 17.044 266.819 17.344 267.059 17.848C267.227 18.136 267.383 18.388 267.527 18.604C267.671 18.82 267.743 19.144 267.743 19.576C267.695 19.936 267.647 20.188 267.599 20.332C267.575 20.476 267.551 20.632 267.527 20.8C267.503 20.944 267.467 21.208 267.419 21.592C267.323 21.784 267.263 21.988 267.239 22.204C267.239 22.42 267.239 22.624 267.239 22.816C267.239 23.128 267.251 23.344 267.275 23.464C267.299 23.56 267.395 23.608 267.563 23.608C267.899 23.536 268.175 23.428 268.391 23.284C268.631 23.116 268.895 22.9 269.183 22.636C269.543 22.3 269.855 22.252 270.119 22.492C270.407 22.708 270.587 22.96 270.659 23.248C270.707 23.344 270.659 23.56 270.515 23.896C270.371 24.232 270.203 24.556 270.011 24.868C269.819 25.18 269.663 25.336 269.543 25.336C269.471 25.336 269.327 25.432 269.111 25.624C268.895 25.816 268.727 25.948 268.607 26.02C268.439 26.188 268.271 26.344 268.103 26.488C267.959 26.632 267.791 26.704 267.599 26.704C267.503 26.704 267.383 26.74 267.239 26.812C267.119 26.86 266.975 26.884 266.807 26.884C266.567 26.956 266.195 26.92 265.691 26.776C265.211 26.632 264.899 26.296 264.755 25.768C264.659 25.504 264.515 25.168 264.323 24.76C264.155 24.352 264.119 23.848 264.215 23.248C264.311 22.816 264.371 22.42 264.395 22.06C264.419 21.7 264.467 21.448 264.539 21.304C264.539 21.232 264.539 21.064 264.539 20.8C264.539 20.512 264.503 20.368 264.431 20.368C264.335 20.368 264.155 20.488 263.891 20.728C263.627 20.968 263.315 21.292 262.955 21.7C262.595 22.084 262.223 22.504 261.839 22.96C261.479 23.416 261.155 23.872 260.867 24.328C260.651 24.592 260.459 24.916 260.291 25.3C260.123 25.684 260.003 25.9 259.931 25.948C259.763 26.14 259.475 26.164 259.067 26.02C258.683 25.876 258.395 25.648 258.203 25.336C258.131 25.192 258.047 25.108 257.951 25.084C257.855 25.036 257.771 24.964 257.699 24.868C257.651 24.748 257.651 24.52 257.699 24.184C257.771 23.848 257.927 23.308 258.167 22.564C258.431 21.748 258.659 21.016 258.851 20.368C259.067 19.696 259.175 19.36 259.175 19.36C259.175 19.264 258.995 19.36 258.635 19.648C258.275 19.912 257.855 20.248 257.375 20.656C257.159 20.92 256.871 21.256 256.511 21.664C256.175 22.072 255.779 22.552 255.323 23.104C254.891 23.656 254.399 24.304 253.847 25.048C253.151 26.032 252.623 26.632 252.263 26.848C251.927 27.064 251.627 27.004 251.363 26.668ZM274.706 36.568C274.61 36.592 274.466 36.556 274.274 36.46C274.106 36.364 273.962 36.196 273.842 35.956C273.722 35.716 273.686 35.404 273.734 35.02C273.638 34.684 273.65 34.264 273.77 33.76C273.914 33.28 274.214 32.56 274.67 31.6C274.91 31.216 275.126 30.76 275.318 30.232C275.534 29.704 275.774 29.176 276.038 28.648C276.158 28.432 276.362 28.06 276.65 27.532C276.962 27.004 277.298 26.38 277.658 25.66C278.042 24.916 278.39 24.148 278.702 23.356C278.078 24.004 277.538 24.616 277.082 25.192C276.65 25.744 276.254 26.188 275.894 26.524C275.558 26.836 275.198 26.98 274.814 26.956C274.502 26.884 274.13 26.68 273.698 26.344C273.266 26.008 272.99 25.636 272.87 25.228C272.774 24.7 272.738 24.028 272.762 23.212C272.81 22.396 272.966 21.16 273.23 19.504C273.422 18.688 273.506 18.064 273.482 17.632C273.482 17.176 273.422 16.84 273.302 16.624C273.182 16.408 273.026 16.216 272.834 16.048C272.522 15.76 272.498 15.448 272.762 15.112C273.026 14.776 273.326 14.524 273.662 14.356C274.166 14.236 274.562 14.212 274.85 14.284C275.162 14.332 275.474 14.536 275.786 14.896C275.978 15.208 276.17 15.544 276.362 15.904C276.554 16.264 276.65 16.78 276.65 17.452C276.65 17.74 276.638 18.064 276.614 18.424C276.59 18.76 276.566 19.072 276.542 19.36C276.518 19.648 276.494 19.876 276.47 20.044C276.23 20.932 276.014 21.7 275.822 22.348C275.63 22.996 275.594 23.32 275.714 23.32C276.194 22.936 276.602 22.564 276.938 22.204C277.298 21.844 277.682 21.412 278.09 20.908C278.498 20.404 279.002 19.744 279.602 18.928C279.818 18.52 280.034 18.124 280.25 17.74C280.466 17.356 280.646 16.96 280.79 16.552C280.934 16.24 281.126 15.916 281.366 15.58C281.606 15.22 281.774 15.028 281.87 15.004C281.99 14.956 282.158 14.968 282.374 15.04C282.59 15.112 282.794 15.196 282.986 15.292C283.202 15.364 283.31 15.424 283.31 15.472C283.334 15.496 283.454 15.52 283.67 15.544C283.886 15.568 284.102 15.592 284.318 15.616C284.534 15.616 284.642 15.652 284.642 15.724C284.642 15.772 284.57 15.952 284.426 16.264C284.306 16.576 284.162 16.924 283.994 17.308C283.826 17.692 283.67 18.04 283.526 18.352C283.406 18.64 283.358 18.808 283.382 18.856C283.43 18.904 283.394 19.084 283.274 19.396C283.154 19.684 283.01 20.008 282.842 20.368C282.698 20.728 282.566 21.052 282.446 21.34C282.206 22.132 281.93 22.924 281.618 23.716C281.306 24.484 280.934 25.252 280.502 26.02C280.358 26.308 280.142 26.752 279.854 27.352C279.59 27.952 279.326 28.54 279.062 29.116C278.822 29.716 278.63 30.172 278.486 30.484C278.39 30.676 278.246 30.976 278.054 31.384C277.886 31.816 277.694 32.284 277.478 32.788C277.286 33.292 277.094 33.76 276.902 34.192C276.71 34.648 276.566 34.996 276.47 35.236C276.422 35.692 276.314 36.028 276.146 36.244C275.93 36.46 275.63 36.568 275.246 36.568C274.886 36.568 274.706 36.568 274.706 36.568ZM284.491 36.748C284.323 36.676 284.059 36.496 283.699 36.208C283.363 35.92 283.051 35.608 282.763 35.272C282.499 34.96 282.367 34.732 282.367 34.588C282.367 34.444 282.427 34.06 282.547 33.436C282.667 32.836 282.823 32.092 283.015 31.204C283.231 30.34 283.459 29.452 283.699 28.54C283.963 27.652 284.227 26.86 284.491 26.164C284.539 26.044 284.695 25.648 284.959 24.976C285.247 24.28 285.523 23.44 285.787 22.456C285.979 21.832 286.231 21.124 286.543 20.332C286.855 19.54 287.179 18.748 287.515 17.956C287.851 17.14 288.127 16.42 288.343 15.796C288.559 15.172 288.799 14.548 289.063 13.924C289.327 13.276 289.471 12.904 289.495 12.808C289.543 12.664 289.675 12.544 289.891 12.448C290.131 12.328 290.371 12.232 290.611 12.16C290.851 12.064 291.007 12.004 291.079 11.98C291.511 11.86 291.883 12.04 292.195 12.52C292.315 12.736 292.339 13.036 292.267 13.42C292.219 13.78 292.099 14.176 291.907 14.608L291.655 15.328L292.951 15.04C293.167 15.04 293.467 15.052 293.851 15.076C294.235 15.1 294.607 15.124 294.967 15.148C295.351 15.172 295.615 15.208 295.759 15.256C296.335 15.28 296.731 15.388 296.947 15.58C297.187 15.772 297.391 16.024 297.559 16.336C297.679 16.456 297.823 16.624 297.991 16.84C298.159 17.032 298.255 17.224 298.279 17.416C298.375 17.824 298.339 18.304 298.171 18.856C298.027 19.408 297.799 19.972 297.487 20.548C297.199 21.1 296.851 21.616 296.443 22.096C296.059 22.552 295.687 22.9 295.327 23.14C295.087 23.236 294.871 23.344 294.679 23.464C294.487 23.56 294.391 23.608 294.391 23.608C294.367 23.728 294.115 23.932 293.635 24.22C293.179 24.508 292.639 24.784 292.015 25.048C291.415 25.288 290.875 25.444 290.395 25.516C290.227 25.54 289.987 25.564 289.675 25.588C289.363 25.612 289.123 25.576 288.955 25.48C288.691 25.432 288.511 25.408 288.415 25.408C288.319 25.408 288.271 25.456 288.271 25.552C288.247 25.6 288.079 25.984 287.767 26.704C287.455 27.424 287.131 28.42 286.795 29.692C286.339 31.084 285.967 32.224 285.679 33.112C285.391 34.024 285.163 34.732 284.995 35.236C284.851 35.74 284.743 36.1 284.671 36.316C284.599 36.556 284.539 36.7 284.491 36.748ZM289.135 22.384C289.207 22.528 289.459 22.576 289.891 22.528C290.323 22.456 290.815 22.312 291.367 22.096C291.919 21.88 292.411 21.628 292.843 21.34C293.299 21.028 293.563 20.704 293.635 20.368C294.163 19.768 294.535 19.336 294.751 19.072C294.967 18.784 294.955 18.556 294.715 18.388C294.451 18.004 294.067 17.824 293.563 17.848C293.083 17.872 292.315 18.172 291.259 18.748C290.851 18.892 290.575 19.024 290.431 19.144C290.287 19.24 290.167 19.396 290.071 19.612C289.999 19.828 289.855 20.176 289.639 20.656C289.423 21.184 289.279 21.58 289.207 21.844C289.135 22.108 289.111 22.288 289.135 22.384ZM299.643 35.488C298.779 35.656 297.951 35.68 297.159 35.56C296.367 35.464 295.707 35.26 295.179 34.948C294.627 34.636 294.291 34.288 294.171 33.904C294.027 33.352 294.099 32.944 294.387 32.68C294.675 32.416 295.023 32.26 295.431 32.212C295.815 32.164 296.067 32.212 296.187 32.356C296.379 32.476 296.679 32.656 297.087 32.896C297.519 33.136 298.047 33.196 298.671 33.076C299.223 32.956 299.715 32.692 300.147 32.284C300.579 31.876 300.963 31.444 301.299 30.988C301.491 30.7 301.815 30.184 302.271 29.44C302.727 28.696 303.195 27.88 303.675 26.992C304.179 26.08 304.599 25.24 304.935 24.472C305.007 24.28 305.091 24.052 305.187 23.788C305.283 23.524 305.403 23.308 305.547 23.14C305.691 22.852 305.811 22.588 305.907 22.348C306.027 22.084 306.099 21.904 306.123 21.808C306.147 21.688 306.255 21.448 306.447 21.088C306.639 20.728 306.819 20.368 306.987 20.008C307.107 19.648 307.287 19.12 307.527 18.424C307.767 17.728 308.007 17.164 308.247 16.732C308.535 16.18 308.763 15.736 308.931 15.4C309.123 15.04 309.327 14.824 309.543 14.752C309.759 14.584 309.963 14.5 310.155 14.5C310.347 14.5 310.575 14.572 310.839 14.716C311.127 15.004 311.355 15.292 311.523 15.58C311.715 15.844 311.787 16.18 311.739 16.588C311.715 16.972 311.523 17.5 311.163 18.172C310.971 18.748 310.755 19.276 310.515 19.756C310.299 20.212 310.131 20.512 310.011 20.656C309.891 20.944 309.747 21.268 309.579 21.628C309.435 21.964 309.303 22.276 309.183 22.564C308.751 23.524 308.379 24.304 308.067 24.904C307.755 25.504 307.479 26.056 307.239 26.56C306.999 27.064 306.747 27.652 306.483 28.324C305.931 29.212 305.391 30.052 304.863 30.844C304.359 31.66 303.819 32.416 303.243 33.112C303.003 33.328 302.655 33.604 302.199 33.94C301.767 34.3 301.311 34.624 300.831 34.912C300.375 35.224 299.979 35.416 299.643 35.488ZM304.143 27.352C303.783 27.304 303.387 27.064 302.955 26.632C302.547 26.2 302.199 25.744 301.911 25.264C301.647 24.784 301.539 24.448 301.587 24.256C301.587 24.136 301.587 24.04 301.587 23.968C301.587 23.896 301.587 23.86 301.587 23.86C301.443 23.86 301.323 23.656 301.227 23.248C301.155 22.816 301.095 22.276 301.047 21.628C301.023 20.98 301.011 20.308 301.011 19.612C301.035 18.916 301.071 18.28 301.119 17.704C301.215 17.296 301.263 16.852 301.263 16.372C301.263 15.868 301.275 15.472 301.299 15.184C301.275 14.8 301.347 14.488 301.515 14.248C301.707 14.008 301.851 13.852 301.947 13.78C302.835 13.396 303.483 13.6 303.891 14.392C304.299 15.184 304.443 16.444 304.323 18.172C304.275 19.132 304.251 20.056 304.251 20.944C304.251 21.808 304.335 22.552 304.503 23.176C304.671 23.8 304.959 24.244 305.367 24.508C305.535 24.604 305.595 24.808 305.547 25.12C305.499 25.432 305.391 25.768 305.223 26.128C305.055 26.464 304.863 26.764 304.647 27.028C304.455 27.268 304.287 27.376 304.143 27.352Z" fill="#F15929"/>
</svg>
