<svg width="171" height="74" viewBox="0 0 171 74" fill="none" xmlns="http://www.w3.org/2000/svg">
<path d="M12.472 33.328C12.016 33.448 11.608 33.328 11.248 32.968C10.912 32.608 10.672 32.08 10.528 31.384C10.384 30.688 10.408 29.896 10.6 29.008C10.72 28.72 10.816 28.432 10.888 28.144C10.96 27.88 10.996 27.664 10.996 27.496C11.044 27.304 11.164 26.884 11.356 26.236C11.548 25.564 11.776 24.796 12.04 23.932C12.328 23.068 12.604 22.216 12.868 21.376C13.156 20.512 13.396 19.792 13.588 19.216C13.804 18.616 13.936 18.28 13.984 18.208C14.08 18.208 14.164 18.124 14.236 17.956C14.308 17.788 14.344 17.62 14.344 17.452C14.344 17.26 14.38 17.044 14.452 16.804C14.548 16.564 14.644 16.396 14.74 16.3C14.74 16.18 14.764 16.048 14.812 15.904C14.884 15.736 14.92 15.604 14.92 15.508C14.92 15.412 14.944 15.316 14.992 15.22C15.064 15.124 15.1 15.028 15.1 14.932C15.244 14.668 15.46 14.176 15.748 13.456C16.06 12.712 16.408 11.848 16.792 10.864C17.2 9.856 17.608 8.824 18.016 7.768C18.424 6.688 18.808 5.668 19.168 4.708C19.528 3.748 19.816 2.956 20.032 2.332C20.248 1.708 20.356 1.348 20.356 1.252C20.356 1.06 20.488 0.867998 20.752 0.675998C21.016 0.459999 21.244 0.352 21.436 0.352C21.508 0.279999 21.592 0.231999 21.688 0.207999C21.808 0.183998 21.916 0.171998 22.012 0.171998C22.012 0.171998 22.06 0.219998 22.156 0.315998C22.252 0.411998 22.396 0.555999 22.588 0.747999C22.78 0.915998 22.984 1.168 23.2 1.504C23.416 1.816 23.524 2.116 23.524 2.404C23.524 2.716 23.488 2.992 23.416 3.232C23.344 3.472 23.2 3.82 22.984 4.276C22.768 4.732 22.432 5.44 21.976 6.4C21.904 6.592 21.76 6.928 21.544 7.408C21.328 7.888 21.088 8.428 20.824 9.028C20.584 9.628 20.332 10.216 20.068 10.792C19.828 11.344 19.624 11.812 19.456 12.196C19.312 12.58 19.24 12.796 19.24 12.844C19.24 12.94 19.192 13.084 19.096 13.276C19.024 13.468 18.94 13.708 18.844 13.996C18.748 14.188 18.616 14.476 18.448 14.86C18.28 15.22 18.1 15.616 17.908 16.048C17.74 16.456 17.596 16.816 17.476 17.128C17.356 17.416 17.296 17.584 17.296 17.632C17.296 17.728 17.284 17.824 17.26 17.92C17.26 18.016 17.212 18.112 17.116 18.208C17.02 18.208 16.96 18.28 16.936 18.424C16.936 18.544 16.936 18.604 16.936 18.604C16.936 18.844 16.744 19.48 16.36 20.512C16.192 21.04 15.988 21.724 15.748 22.564C15.508 23.404 15.244 24.304 14.956 25.264C14.692 26.2 14.44 27.112 14.2 28C13.96 28.912 13.756 29.704 13.588 30.376C13.444 31.048 13.372 31.516 13.372 31.78C13.372 32.356 13.264 32.728 13.048 32.896C12.856 33.088 12.664 33.232 12.472 33.328ZM3.04 21.772C2.896 21.772 2.716 21.772 2.5 21.772C2.284 21.748 2.044 21.688 1.78 21.592C1.42 21.592 1.132 21.52 0.916 21.376C0.7 21.232 0.544 21.076 0.448 20.908C0.184 20.548 0.208 20.284 0.52 20.116C0.832 19.924 1.432 19.78 2.32 19.684C2.584 19.612 3.124 19.552 3.94 19.504C4.756 19.456 5.716 19.42 6.82 19.396C7.948 19.348 9.124 19.312 10.348 19.288C11.596 19.264 12.784 19.252 13.912 19.252C15.064 19.228 16.06 19.216 16.9 19.216C17.764 19.192 18.352 19.18 18.664 19.18C19.288 19.18 19.708 19.228 19.924 19.324C20.14 19.42 20.38 19.6 20.644 19.864C21.004 20.224 21.088 20.596 20.896 20.98C20.728 21.364 20.368 21.508 19.816 21.412C19.648 21.436 19.372 21.46 18.988 21.484C18.628 21.508 18.232 21.544 17.8 21.592C17.704 21.592 17.308 21.604 16.612 21.628C15.94 21.628 15.076 21.64 14.02 21.664C12.988 21.664 11.884 21.676 10.708 21.7C9.556 21.7 8.428 21.712 7.324 21.736C6.244 21.736 5.32 21.748 4.552 21.772C3.784 21.772 3.28 21.772 3.04 21.772ZM3.544 33.328C3.088 33.448 2.68 33.328 2.32 32.968C1.984 32.608 1.744 32.08 1.6 31.384C1.456 30.688 1.48 29.896 1.672 29.008C1.792 28.72 1.888 28.432 1.96 28.144C2.032 27.88 2.068 27.664 2.068 27.496C2.116 27.304 2.236 26.884 2.428 26.236C2.62 25.564 2.848 24.796 3.112 23.932C3.4 23.068 3.676 22.216 3.94 21.376C4.228 20.512 4.468 19.792 4.66 19.216C4.876 18.616 5.008 18.28 5.056 18.208C5.152 18.208 5.236 18.124 5.308 17.956C5.38 17.788 5.416 17.62 5.416 17.452C5.416 17.26 5.452 17.044 5.524 16.804C5.62 16.564 5.716 16.396 5.812 16.3C5.812 16.18 5.836 16.048 5.884 15.904C5.956 15.736 5.992 15.604 5.992 15.508C5.992 15.412 6.016 15.316 6.064 15.22C6.136 15.124 6.172 15.028 6.172 14.932C6.316 14.668 6.532 14.176 6.82 13.456C7.132 12.712 7.48 11.848 7.864 10.864C8.272 9.856 8.68 8.824 9.088 7.768C9.496 6.688 9.88 5.668 10.24 4.708C10.6 3.748 10.888 2.956 11.104 2.332C11.32 1.708 11.428 1.348 11.428 1.252C11.428 1.06 11.56 0.867998 11.824 0.675998C12.088 0.459999 12.316 0.352 12.508 0.352C12.58 0.279999 12.664 0.231999 12.76 0.207999C12.88 0.183998 12.988 0.171998 13.084 0.171998C13.084 0.171998 13.132 0.219998 13.228 0.315998C13.324 0.411998 13.468 0.555999 13.66 0.747999C13.852 0.915998 14.056 1.168 14.272 1.504C14.488 1.816 14.596 2.116 14.596 2.404C14.596 2.716 14.56 2.992 14.488 3.232C14.416 3.472 14.272 3.82 14.056 4.276C13.84 4.732 13.504 5.44 13.048 6.4C12.976 6.592 12.832 6.928 12.616 7.408C12.4 7.888 12.16 8.428 11.896 9.028C11.656 9.628 11.404 10.216 11.14 10.792C10.9 11.344 10.696 11.812 10.528 12.196C10.384 12.58 10.312 12.796 10.312 12.844C10.312 12.94 10.264 13.084 10.168 13.276C10.096 13.468 10.012 13.708 9.916 13.996C9.82 14.188 9.688 14.476 9.52 14.86C9.352 15.22 9.172 15.616 8.98 16.048C8.812 16.456 8.668 16.816 8.548 17.128C8.428 17.416 8.368 17.584 8.368 17.632C8.368 17.728 8.356 17.824 8.332 17.92C8.332 18.016 8.284 18.112 8.188 18.208C8.092 18.208 8.032 18.28 8.008 18.424C8.008 18.544 8.008 18.604 8.008 18.604C8.008 18.844 7.816 19.48 7.432 20.512C7.264 21.04 7.06 21.724 6.82 22.564C6.58 23.404 6.316 24.304 6.028 25.264C5.764 26.2 5.512 27.112 5.272 28C5.032 28.912 4.828 29.704 4.66 30.376C4.516 31.048 4.444 31.516 4.444 31.78C4.444 32.356 4.336 32.728 4.12 32.896C3.928 33.088 3.736 33.232 3.544 33.328ZM5.236 14.536C5.092 14.536 4.912 14.536 4.696 14.536C4.48 14.512 4.24 14.452 3.976 14.356C3.616 14.356 3.328 14.296 3.112 14.176C2.92 14.032 2.776 13.876 2.68 13.708C2.416 13.348 2.428 13.072 2.716 12.88C3.028 12.688 3.628 12.544 4.516 12.448C4.78 12.376 5.32 12.316 6.136 12.268C6.952 12.22 7.924 12.184 9.052 12.16C10.18 12.112 11.356 12.076 12.58 12.052C13.828 12.028 15.016 12.016 16.144 12.016C17.296 11.992 18.292 11.98 19.132 11.98C19.996 11.956 20.584 11.944 20.896 11.944C21.52 11.944 21.94 11.992 22.156 12.088C22.372 12.184 22.612 12.364 22.876 12.628C23.236 12.988 23.32 13.36 23.128 13.744C22.936 14.128 22.564 14.272 22.012 14.176C21.844 14.2 21.58 14.224 21.22 14.248C20.86 14.272 20.464 14.308 20.032 14.356C19.936 14.356 19.54 14.368 18.844 14.392C18.172 14.392 17.308 14.404 16.252 14.428C15.22 14.428 14.116 14.44 12.94 14.464C11.764 14.464 10.624 14.476 9.52 14.5C8.44 14.5 7.516 14.512 6.748 14.536C5.98 14.536 5.476 14.536 5.236 14.536ZM22.8614 29.404C22.1654 29.356 21.6614 29.2 21.3494 28.936C21.0374 28.696 20.8814 28.3 20.8814 27.748C21.0254 27.244 21.1694 26.824 21.3134 26.488C21.4814 26.152 21.5894 25.828 21.6374 25.516C21.7094 25.228 21.7814 24.952 21.8534 24.688C21.9254 24.424 22.0214 24.1 22.1414 23.716C22.3334 23.14 22.5494 22.432 22.7894 21.592C23.0534 20.752 23.3294 19.912 23.6174 19.072C23.9054 18.208 24.1574 17.5 24.3734 16.948C24.5654 16.396 24.7214 15.928 24.8414 15.544C24.9854 15.16 25.1294 14.788 25.2734 14.428C25.4174 14.068 25.5734 13.648 25.7414 13.168C25.7414 13.168 25.8014 12.988 25.9214 12.628C26.0654 12.244 26.2094 11.812 26.3534 11.332C26.5214 10.828 26.6654 10.384 26.7854 10C26.9294 9.616 27.0014 9.424 27.0014 9.424C27.2654 8.872 27.4934 8.356 27.6854 7.876C27.9014 7.372 28.0814 6.844 28.2254 6.292C28.1054 6.1 28.0214 5.884 27.9734 5.644C27.9494 5.404 27.9614 5.188 28.0094 4.996C28.1054 4.66 28.2854 4.396 28.5494 4.204C28.8134 4.012 29.1614 3.964 29.5934 4.06C29.9294 4.132 30.3734 4.192 30.9254 4.24C31.5014 4.288 32.0174 4.312 32.4734 4.312C32.9534 4.312 33.1934 4.312 33.1934 4.312C33.3374 4.24 33.7574 4.144 34.4534 4.024C35.1494 3.904 35.9894 3.772 36.9734 3.628C37.9574 3.484 38.9534 3.352 39.9614 3.232C40.9934 3.112 41.9054 3.004 42.6974 2.908C42.9854 2.86 43.2734 2.86 43.5614 2.908C43.8734 2.956 44.1494 3.004 44.3894 3.052C44.9174 3.148 45.3494 3.424 45.6854 3.88C46.0454 4.336 46.1654 4.816 46.0454 5.32C45.9014 5.752 45.7094 5.992 45.4694 6.04C45.2534 6.088 44.8574 5.968 44.2814 5.68C44.0654 6.016 43.9454 6.22 43.9214 6.292C43.8974 6.364 43.8734 6.472 43.8494 6.616C43.8494 6.76 43.7294 7.096 43.4894 7.624C43.3934 7.768 43.2494 8.056 43.0574 8.488C42.8894 8.92 42.7094 9.412 42.5174 9.964C42.3494 10.492 42.2054 10.984 42.0854 11.44C41.9654 11.896 41.9054 12.22 41.9054 12.412C41.8814 12.436 41.7734 12.772 41.5814 13.42C41.4134 14.068 41.1974 14.872 40.9334 15.832C40.7174 16.552 40.4894 17.308 40.2494 18.1C40.0334 18.892 39.8174 19.672 39.6014 20.44C39.3854 21.184 39.1934 21.856 39.0254 22.456C38.8574 23.056 38.7254 23.524 38.6294 23.86C38.5334 24.172 38.4854 24.304 38.4854 24.256C38.4614 24.784 38.4014 25.288 38.3054 25.768C38.2334 26.248 38.1854 26.728 38.1614 27.208C38.2334 27.424 38.2214 27.604 38.1254 27.748C38.0534 27.892 37.9694 27.976 37.8734 28C37.5614 28.264 37.1174 28.396 36.5414 28.396C35.9654 28.396 35.5574 28.24 35.3174 27.928C35.1494 27.592 35.0294 27.316 34.9574 27.1C34.8854 26.884 34.8614 26.68 34.8854 26.488C34.9334 25.792 35.0174 25.108 35.1374 24.436C35.2574 23.74 35.3654 23.08 35.4614 22.456C35.6054 21.76 35.7614 21.148 35.9294 20.62C36.0974 20.068 36.2054 19.828 36.2534 19.9L36.9734 17.308C37.1894 16.708 37.3334 16.204 37.4054 15.796C37.4774 15.364 37.5614 14.92 37.6574 14.464C37.7774 14.008 37.9574 13.432 38.1974 12.736C38.4374 12.16 38.6294 11.572 38.7734 10.972C38.9414 10.372 39.0974 9.772 39.2414 9.172C39.3374 8.86 39.4574 8.488 39.6014 8.056C39.7454 7.6 39.8894 7.204 40.0334 6.868C40.1774 6.508 40.2734 6.328 40.3214 6.328C39.7694 6.376 39.3134 6.436 38.9534 6.508C38.6174 6.58 38.2574 6.652 37.8734 6.724C37.5134 6.772 36.9974 6.844 36.3254 6.94C35.9894 6.964 35.5694 7.024 35.0654 7.12C34.5854 7.192 34.0934 7.264 33.5894 7.336C33.0854 7.408 32.6654 7.468 32.3294 7.516C32.1854 7.54 32.0534 7.564 31.9334 7.588C31.8374 7.588 31.7654 7.588 31.7174 7.588C31.6214 7.852 31.4174 8.332 31.1054 9.028C30.7934 9.724 30.4574 10.492 30.0974 11.332C29.7374 12.172 29.4134 12.928 29.1254 13.6C29.0054 13.912 28.8854 14.236 28.7654 14.572C28.6454 14.884 28.5134 15.196 28.3694 15.508C28.2494 15.82 28.1294 16.144 28.0094 16.48C27.8894 16.792 27.7694 17.116 27.6494 17.452C27.5294 17.764 27.4094 18.076 27.2894 18.388C27.0494 19.156 26.8334 19.84 26.6414 20.44C26.4734 21.04 26.3054 21.568 26.1374 22.024C25.9934 22.48 25.8614 22.888 25.7414 23.248C25.6214 23.608 25.5014 23.944 25.3814 24.256C25.2374 24.712 25.0934 25.156 24.9494 25.588C24.8294 25.996 24.7094 26.5 24.5894 27.1C24.5654 27.316 24.5294 27.532 24.4814 27.748C24.4334 27.94 24.3854 28.144 24.3374 28.36C24.1694 28.72 23.9774 28.984 23.7614 29.152C23.5694 29.344 23.2694 29.428 22.8614 29.404ZM45.8839 27.748C45.5719 27.748 45.3199 27.688 45.1279 27.568C44.9599 27.448 44.7439 27.28 44.4799 27.064C44.0239 26.584 43.6519 26.068 43.3639 25.516C43.0999 24.964 43.0039 24.484 43.0759 24.076C43.1479 23.884 43.1719 23.704 43.1479 23.536C43.1479 23.344 43.1479 23.248 43.1479 23.248C43.0279 23.128 42.9919 23.056 43.0399 23.032C43.0879 22.984 43.1359 22.912 43.1839 22.816C43.3279 22.816 43.3759 22.684 43.3279 22.42C43.2799 22.228 43.3519 21.82 43.5439 21.196C43.7599 20.548 44.0479 19.936 44.4079 19.36C44.5519 19.12 44.7679 18.808 45.0559 18.424C45.3439 18.016 45.6559 17.62 45.9919 17.236C46.3519 16.828 46.6759 16.504 46.9639 16.264C47.5639 15.76 48.1159 15.352 48.6199 15.04C49.1479 14.728 49.6759 14.512 50.2039 14.392C50.7319 14.272 51.2719 14.212 51.8239 14.212C52.3999 14.212 52.8679 14.404 53.2279 14.788C53.7799 15.028 54.1639 15.352 54.3799 15.76C54.6199 16.168 54.7759 16.696 54.8479 17.344C54.9199 18.064 54.8479 18.952 54.6319 20.008C54.4159 21.04 53.8279 22.24 52.8679 23.608C52.2679 24.472 51.6799 25.144 51.1039 25.624C50.5279 26.104 49.8919 26.548 49.1959 26.956C48.6919 27.292 48.1519 27.496 47.5759 27.568C46.9999 27.64 46.4359 27.7 45.8839 27.748ZM49.5559 23.356C50.0839 22.9 50.4559 22.396 50.6719 21.844C50.9119 21.292 51.1639 20.644 51.4279 19.9C51.5239 19.756 51.5839 19.516 51.6079 19.18C51.6559 18.844 51.6679 18.52 51.6439 18.208C51.6199 17.872 51.5359 17.68 51.3919 17.632C51.1759 17.464 50.9599 17.428 50.7439 17.524C50.5279 17.596 50.2519 17.752 49.9159 17.992C49.1959 18.592 48.5239 19.288 47.8999 20.08C47.2999 20.848 46.8799 21.796 46.6399 22.924C46.5679 23.524 46.6279 23.98 46.8199 24.292C47.0359 24.58 47.3719 24.664 47.8279 24.544C48.3079 24.4 48.8839 24.004 49.5559 23.356ZM60.0789 28.468C59.5509 28.492 59.0229 28.396 58.4949 28.18C57.9909 27.988 57.5829 27.604 57.2709 27.028C57.0309 26.572 56.8629 26.08 56.7669 25.552C56.6709 25.024 56.6709 24.52 56.7669 24.04C57.0549 22.456 57.2949 21.304 57.4869 20.584C57.6789 19.864 57.7869 19.456 57.8109 19.36C57.8589 19.264 57.9309 19.048 58.0269 18.712C58.1469 18.376 58.2789 18.088 58.4229 17.848C58.5429 17.488 58.5789 17.068 58.5309 16.588C58.5069 16.396 58.5309 16.168 58.6029 15.904C58.6989 15.64 58.8189 15.448 58.9629 15.328C59.3709 15.016 59.6949 14.608 59.9349 14.104C60.0069 13.936 60.1269 13.684 60.2949 13.348C60.4629 12.988 60.6429 12.628 60.8349 12.268C61.0509 11.884 61.2189 11.572 61.3389 11.332C61.7229 10.852 62.1189 10.288 62.5269 9.64C62.9349 8.992 63.3909 8.44 63.8949 7.984C64.2069 7.456 64.5909 6.988 65.0469 6.58C65.5269 6.148 65.9949 5.752 66.4509 5.392C66.9309 5.008 67.3149 4.672 67.6029 4.384C67.7949 4.168 68.1789 4 68.7549 3.88C69.3309 3.76 69.7869 3.652 70.1229 3.556C70.5069 3.436 70.9389 3.508 71.4189 3.772C71.8989 4.036 72.2229 4.276 72.3909 4.492C72.7509 5.116 72.9669 5.644 73.0389 6.076C73.1109 6.484 73.0629 6.952 72.8949 7.48C72.7269 7.984 72.4269 8.692 71.9949 9.604C71.5149 10.564 70.8189 11.5 69.9069 12.412C68.9949 13.324 68.0349 14.128 67.0269 14.824C66.5709 15.232 66.0669 15.616 65.5149 15.976C64.9629 16.336 64.4349 16.648 63.9309 16.912C63.6189 17.08 63.2949 17.236 62.9589 17.38C62.6469 17.5 62.3229 17.62 61.9869 17.74C61.8189 17.788 61.6989 17.92 61.6269 18.136C61.5789 18.352 61.4949 18.616 61.3749 18.928C61.3509 19.144 61.2909 19.336 61.1949 19.504C61.1229 19.648 61.0629 19.756 61.0149 19.828C60.9429 19.9 60.8589 20.116 60.7629 20.476C60.6669 20.836 60.5709 21.268 60.4749 21.772C60.3789 22.276 60.2829 22.768 60.1869 23.248C60.0909 23.728 60.0189 24.1 59.9709 24.364C59.9229 24.628 59.9109 24.82 59.9349 24.94C59.9829 25.036 60.0669 25.108 60.1869 25.156C60.4509 25.108 60.6429 25 60.7629 24.832C60.9069 24.64 61.0629 24.448 61.2309 24.256C61.4229 23.92 61.5789 23.608 61.6989 23.32C61.8429 23.032 61.9989 22.672 62.1669 22.24C62.2629 21.976 62.3589 21.676 62.4549 21.34C62.5749 20.98 62.6949 20.68 62.8149 20.44C62.8149 19.936 62.8029 19.564 62.7789 19.324C62.7789 19.06 62.7549 18.844 62.7069 18.676C62.6829 18.508 62.6349 18.328 62.5629 18.136C62.7309 17.488 62.8869 17.116 63.0309 17.02C63.1749 16.9 63.3309 16.864 63.4989 16.912C63.9789 17.008 64.3869 17.164 64.7229 17.38C65.0829 17.596 65.4069 17.836 65.6949 18.1C65.8389 18.22 65.9349 18.376 65.9829 18.568C66.0549 18.76 66.0669 18.916 66.0189 19.036C65.9949 19.324 65.9589 19.636 65.9109 19.972C65.8869 20.284 65.8749 20.572 65.8749 20.836C65.7069 21.22 65.5509 21.712 65.4069 22.312C65.2629 22.912 65.0829 23.464 64.8669 23.968C64.7229 24.28 64.4829 24.7 64.1469 25.228C63.8349 25.732 63.5829 26.116 63.3909 26.38C63.0789 26.764 62.6349 27.124 62.0589 27.46C61.5069 27.796 60.9909 28.132 60.5109 28.468H60.0789ZM62.7429 14.14C62.8869 14.188 63.0309 14.188 63.1749 14.14C63.3429 14.068 63.4989 13.996 63.6429 13.924C64.5069 13.54 65.3349 13.036 66.1269 12.412C66.9429 11.764 67.6629 11.092 68.2869 10.396C68.9349 9.676 69.4029 9.028 69.6909 8.452C69.8349 8.188 69.9909 7.852 70.1589 7.444C70.3509 7.036 70.4589 6.568 70.4829 6.04L70.3749 5.788C69.9429 6.1 69.4989 6.46 69.0429 6.868C68.5869 7.276 68.0469 7.804 67.4229 8.452C67.1829 8.692 66.8589 9.028 66.4509 9.46C66.0429 9.868 65.5989 10.336 65.1189 10.864C64.6629 11.392 64.2189 11.944 63.7869 12.52C63.3549 13.072 63.0069 13.612 62.7429 14.14ZM73.823 27.82C73.007 28.036 72.407 28.132 72.023 28.108C71.663 28.108 71.291 27.952 70.907 27.64C70.787 27.52 70.655 27.388 70.511 27.244C70.367 27.1 70.283 26.836 70.259 26.452C70.235 26.284 70.331 26.08 70.547 25.84C70.787 25.576 71.135 25.468 71.591 25.516C71.831 25.636 72.155 25.672 72.563 25.624C72.971 25.576 73.391 25.444 73.823 25.228C74.279 25.012 74.699 24.712 75.083 24.328C75.563 23.752 75.947 23.212 76.235 22.708C76.523 22.18 76.679 21.76 76.703 21.448C76.679 21.304 76.643 21.172 76.595 21.052C76.547 20.932 76.475 20.812 76.379 20.692C75.947 20.836 75.599 21.004 75.335 21.196C75.095 21.364 74.855 21.544 74.615 21.736C73.871 22.336 73.319 22.816 72.959 23.176C72.623 23.512 72.359 23.824 72.167 24.112C71.975 24.4 71.735 24.76 71.447 25.192C71.255 25.504 71.027 25.792 70.763 26.056C70.499 26.296 70.319 26.476 70.223 26.596C70.079 27.1 69.779 27.4 69.323 27.496C68.723 27.376 68.291 27.172 68.027 26.884C67.787 26.572 67.715 26.116 67.811 25.516C67.859 25.18 67.955 24.724 68.099 24.148C68.267 23.548 68.411 23.092 68.531 22.78C69.227 20.524 69.911 18.688 70.583 17.272C71.279 15.856 71.735 14.812 71.951 14.14L72.527 13.78C72.935 13.804 73.295 13.924 73.607 14.14C73.919 14.332 74.111 14.752 74.183 15.4C74.183 15.52 74.087 15.796 73.895 16.228C73.727 16.66 73.523 17.164 73.283 17.74C73.043 18.292 72.815 18.82 72.599 19.324C72.407 19.804 72.263 20.164 72.167 20.404C72.095 20.596 72.155 20.608 72.347 20.44C72.563 20.248 72.875 19.972 73.283 19.612C73.595 19.348 73.895 19.144 74.183 19C74.471 18.832 74.711 18.712 74.903 18.64C75.239 18.496 75.563 18.412 75.875 18.388C76.211 18.364 76.463 18.34 76.631 18.316C77.447 18.34 78.035 18.496 78.395 18.784C78.779 19.072 79.019 19.396 79.115 19.756C79.235 20.116 79.295 20.416 79.295 20.656C79.415 21.04 79.475 21.424 79.475 21.808C79.499 22.192 79.463 22.576 79.367 22.96C79.295 23.152 79.139 23.452 78.899 23.86C78.659 24.244 78.383 24.64 78.071 25.048C77.783 25.456 77.471 25.768 77.135 25.984C76.919 26.2 76.595 26.44 76.163 26.704C75.755 26.968 75.335 27.208 74.903 27.424C74.471 27.616 74.111 27.748 73.823 27.82ZM81.995 28.432C81.275 28.384 80.735 28.24 80.375 28C80.039 27.736 79.775 27.28 79.583 26.632C79.583 26.104 79.631 25.66 79.727 25.3C79.847 24.916 79.943 24.556 80.015 24.22C80.207 23.38 80.387 22.768 80.555 22.384C80.723 21.976 80.915 21.508 81.131 20.98C81.251 20.716 81.371 20.416 81.491 20.08C81.611 19.744 81.719 19.42 81.815 19.108C81.935 18.724 82.031 18.376 82.103 18.064C82.199 17.728 82.295 17.404 82.391 17.092C82.511 16.684 82.619 16.276 82.715 15.868C82.811 15.46 82.907 15.028 83.003 14.572C83.411 14.14 83.843 13.96 84.299 14.032C84.755 14.104 85.247 14.44 85.775 15.04C85.967 15.496 86.063 15.868 86.063 16.156C86.087 16.444 86.027 16.768 85.883 17.128C85.835 17.248 85.751 17.476 85.631 17.812C85.511 18.124 85.367 18.508 85.199 18.964C85.055 19.396 84.887 19.864 84.695 20.368C84.479 20.992 84.263 21.628 84.047 22.276C83.855 22.9 83.687 23.452 83.543 23.932C83.399 24.388 83.303 24.7 83.255 24.868C83.111 25.252 83.003 25.6 82.931 25.912C82.859 26.224 82.787 26.632 82.715 27.136C82.763 27.328 82.727 27.544 82.607 27.784C82.511 28.024 82.307 28.24 81.995 28.432ZM88.9335 27.46C88.7895 27.436 88.5255 27.304 88.1415 27.064C87.7815 26.824 87.4335 26.476 87.0975 26.02C86.7855 25.54 86.6055 24.952 86.5575 24.256C86.5335 23.848 86.5575 23.44 86.6295 23.032C86.7015 22.624 86.8215 22.192 86.9895 21.736C87.2295 21.184 87.4575 20.656 87.6735 20.152C87.9135 19.648 88.1535 19.144 88.3935 18.64C88.8255 17.584 89.2335 16.804 89.6175 16.3C90.0255 15.796 90.4095 15.544 90.7695 15.544C91.2975 15.592 91.7655 15.832 92.1735 16.264C92.5815 16.696 92.7735 17.116 92.7495 17.524C92.7015 17.716 92.6055 17.944 92.4615 18.208C92.3415 18.472 92.1855 18.736 91.9935 19C91.6575 19.312 91.3935 19.648 91.2015 20.008C91.0335 20.344 90.8775 20.74 90.7335 21.196C90.4215 21.796 90.2055 22.204 90.0855 22.42C89.9895 22.636 89.8815 22.912 89.7615 23.248C89.9055 23.296 90.0375 23.32 90.1575 23.32C90.3015 23.296 90.4455 23.248 90.5895 23.176C90.7335 23.08 90.8655 22.948 90.9855 22.78C91.4175 22.3 91.7535 21.94 91.9935 21.7C92.2335 21.46 92.4495 21.22 92.6415 20.98C92.7135 20.908 92.8935 20.68 93.1815 20.296C93.4695 19.888 93.7575 19.48 94.0455 19.072C94.3575 18.64 94.5735 18.352 94.6935 18.208C94.8855 17.944 95.0415 17.704 95.1615 17.488C95.3055 17.272 95.4255 17.056 95.5215 16.84C95.5695 16.528 95.7135 16.3 95.9535 16.156C96.1935 16.012 96.4695 15.964 96.7815 16.012C97.2375 16.252 97.5735 16.48 97.7895 16.696C98.0295 16.912 98.2335 17.236 98.4015 17.668C98.5215 17.908 98.5215 18.256 98.4015 18.712C98.2815 19.144 98.0055 19.78 97.5735 20.62C97.3815 21.004 97.2015 21.424 97.0335 21.88C96.8655 22.312 96.7815 22.732 96.7815 23.14C96.7815 23.428 96.8295 23.668 96.9255 23.86C96.9975 23.788 97.1655 23.632 97.4295 23.392C97.6935 23.128 97.9935 22.84 98.3295 22.528C98.6655 22.192 98.9535 21.904 99.1935 21.664C99.2175 21.616 99.3495 21.448 99.5895 21.16C99.8535 20.848 100.033 20.632 100.129 20.512L101.605 18.676C101.773 18.484 101.941 18.208 102.109 17.848C102.301 17.488 102.517 17.176 102.757 16.912C102.997 16.648 103.285 16.576 103.621 16.696C104.413 16.96 104.965 17.548 105.277 18.46C105.301 19.036 105.181 19.624 104.917 20.224C104.677 20.8 104.497 21.496 104.377 22.312C104.329 22.672 104.293 23.092 104.269 23.572C104.245 24.028 104.233 24.28 104.233 24.328C104.401 24.544 104.605 24.592 104.845 24.472C105.085 24.352 105.313 24.28 105.529 24.256C106.033 24.424 106.321 24.796 106.393 25.372C106.465 25.924 106.297 26.416 105.889 26.848C105.601 27.016 105.325 27.136 105.061 27.208C104.821 27.256 104.593 27.268 104.377 27.244C103.993 27.172 103.669 27.052 103.405 26.884C103.165 26.692 102.973 26.512 102.829 26.344C102.685 26.152 102.577 26.032 102.505 25.984C102.217 25.72 101.977 25.408 101.785 25.048C101.593 24.688 101.461 24.208 101.389 23.608C101.245 23.776 101.017 24.016 100.705 24.328C100.393 24.64 100.081 24.964 99.7695 25.3C99.4575 25.612 99.1815 25.888 98.9415 26.128C98.7015 26.344 98.5815 26.452 98.5815 26.452C98.2215 26.788 97.8615 27.016 97.5015 27.136C97.1415 27.256 96.7335 27.268 96.2775 27.172C95.9175 26.98 95.5575 26.704 95.1975 26.344C94.8375 25.96 94.6095 25.648 94.5135 25.408C94.4175 25.144 94.3335 24.928 94.2615 24.76C94.1895 24.568 94.1295 24.4 94.0815 24.256C94.0575 24.136 94.0335 24.028 94.0095 23.932C93.9855 23.836 93.9615 23.752 93.9375 23.68C93.8415 23.8 93.6975 23.956 93.5055 24.148C93.3375 24.316 93.1575 24.496 92.9655 24.688C92.7735 24.856 92.5815 25.012 92.3895 25.156C91.6695 25.828 91.1415 26.332 90.8055 26.668C90.4695 26.98 90.2175 27.196 90.0495 27.316C89.9055 27.412 89.7135 27.46 89.4735 27.46H88.9335ZM109.093 27.244C108.997 27.052 108.781 26.86 108.445 26.668C108.133 26.476 107.977 26.332 107.977 26.236C107.977 26.14 107.917 25.996 107.797 25.804C107.701 25.588 107.605 25.432 107.509 25.336C107.389 25.192 107.425 24.844 107.617 24.292C107.809 23.716 108.097 23.02 108.481 22.204C108.865 21.388 109.285 20.56 109.741 19.72C109.933 19.528 110.125 19.276 110.317 18.964C110.509 18.652 110.653 18.448 110.749 18.352C110.749 18.256 110.785 18.172 110.857 18.1C110.929 18.004 111.013 17.956 111.109 17.956L111.397 17.38C111.445 17.284 111.589 17.092 111.829 16.804C112.093 16.516 112.405 16.204 112.765 15.868C113.125 15.508 113.485 15.172 113.845 14.86C114.229 14.548 114.541 14.32 114.781 14.176C115.285 13.84 115.801 13.684 116.329 13.708C116.881 13.732 117.349 13.9 117.733 14.212C117.805 14.284 117.961 14.428 118.201 14.644C118.465 14.86 118.753 15.1 119.065 15.364C119.401 15.628 119.689 15.868 119.929 16.084L121.261 17.272L120.649 19.072C120.337 20.032 120.253 20.872 120.397 21.592C120.541 22.312 120.769 22.936 121.081 23.464C121.201 23.728 121.357 23.932 121.549 24.076C121.765 24.22 122.041 24.316 122.377 24.364C122.569 24.388 122.749 24.46 122.917 24.58C123.085 24.7 123.169 24.892 123.169 25.156C123.169 25.732 123.061 26.152 122.845 26.416C122.653 26.656 122.437 26.8 122.197 26.848C121.405 26.944 120.649 26.86 119.929 26.596C119.209 26.332 118.561 25.648 117.985 24.544C117.889 24.4 117.757 24.136 117.589 23.752C117.445 23.344 117.361 23.08 117.337 22.96C117.241 23.08 117.109 23.236 116.941 23.428C116.797 23.596 116.653 23.752 116.509 23.896C114.805 25.624 113.341 26.752 112.117 27.28C110.917 27.784 109.909 27.772 109.093 27.244ZM111.073 24.256C111.241 24.28 111.505 24.196 111.865 24.004C112.225 23.788 112.705 23.44 113.305 22.96C114.121 22.264 114.793 21.688 115.321 21.232C115.849 20.776 116.365 20.188 116.869 19.468L117.661 18.172C117.421 17.62 117.205 17.26 117.013 17.092C116.821 16.924 116.629 16.84 116.437 16.84C116.125 16.84 115.753 17.044 115.321 17.452C114.889 17.836 114.397 18.412 113.845 19.18C113.317 19.924 112.717 20.86 112.045 21.988C111.733 22.516 111.493 23.032 111.325 23.536C111.157 24.016 111.073 24.256 111.073 24.256ZM133.115 28.216C132.947 28.312 132.719 28.276 132.431 28.108C132.167 27.94 131.903 27.688 131.639 27.352C131.471 27.064 131.339 26.776 131.243 26.488C131.171 26.176 131.135 25.72 131.135 25.12C131.159 24.64 131.159 24.316 131.135 24.148C131.135 23.956 131.027 23.944 130.811 24.112C130.619 24.256 130.223 24.616 129.623 25.192C129.023 25.792 128.447 26.308 127.895 26.74C127.367 27.148 126.935 27.34 126.599 27.316C126.431 27.316 126.203 27.208 125.915 26.992C125.627 26.776 125.351 26.512 125.087 26.2C124.823 25.864 124.631 25.552 124.511 25.264C124.367 24.688 124.355 23.944 124.475 23.032C124.619 22.12 124.847 21.172 125.159 20.188C125.471 19.18 125.819 18.244 126.203 17.38C126.611 16.492 127.007 15.784 127.391 15.256C127.799 14.704 128.147 14.44 128.435 14.464C128.843 14.512 129.191 14.716 129.479 15.076C129.791 15.412 130.031 15.784 130.199 16.192C130.295 16.36 130.331 16.504 130.307 16.624C130.307 16.744 130.211 16.888 130.019 17.056C129.803 17.344 129.539 17.764 129.227 18.316C128.939 18.844 128.639 19.42 128.327 20.044C128.039 20.668 127.775 21.268 127.535 21.844C127.319 22.396 127.163 22.852 127.067 23.212C126.971 23.572 126.971 23.752 127.067 23.752C127.403 23.752 127.715 23.668 128.003 23.5C128.291 23.308 128.651 23.008 129.083 22.6C129.587 22.096 130.031 21.592 130.415 21.088C130.799 20.56 131.195 19.96 131.603 19.288C131.915 18.808 132.239 18.28 132.575 17.704C132.935 17.128 133.163 16.72 133.259 16.48C133.595 15.856 133.847 15.388 134.015 15.076C134.183 14.764 134.387 14.572 134.627 14.5C134.747 14.5 134.915 14.5 135.131 14.5C135.347 14.5 135.455 14.5 135.455 14.5C135.599 14.524 135.767 14.632 135.959 14.824C136.151 14.92 136.343 15.052 136.535 15.22C136.751 15.388 136.859 15.532 136.859 15.652C136.763 15.892 136.607 16.252 136.391 16.732C136.199 17.188 136.055 17.524 135.959 17.74C135.503 18.772 135.059 19.792 134.627 20.8C134.219 21.784 133.919 22.792 133.727 23.824C133.679 24.16 133.667 24.556 133.691 25.012C133.739 25.444 133.811 25.756 133.907 25.948C133.979 26.092 134.063 26.26 134.159 26.452C134.279 26.62 134.411 26.764 134.555 26.884C134.771 27.028 134.759 27.208 134.519 27.424C134.303 27.64 134.027 27.832 133.691 28C133.379 28.144 133.187 28.216 133.115 28.216ZM132.719 12.304C131.879 12.328 131.207 12.1 130.703 11.62C130.199 11.14 129.743 10.312 129.335 9.136C129.263 8.872 129.251 8.632 129.299 8.416C129.347 8.176 129.407 7.996 129.479 7.876C129.647 7.684 129.839 7.576 130.055 7.552C130.295 7.504 130.463 7.504 130.559 7.552C130.895 7.672 131.195 7.84 131.459 8.056C131.723 8.248 131.843 8.584 131.819 9.064C131.867 9.184 131.903 9.304 131.927 9.424C131.975 9.52 132.011 9.592 132.035 9.64C132.107 9.808 132.215 9.904 132.359 9.928C132.503 9.928 132.611 9.916 132.683 9.892C133.163 9.7 133.583 9.508 133.943 9.316C134.327 9.1 134.675 8.836 134.987 8.524C135.251 8.26 135.491 8.044 135.707 7.876C135.923 7.684 136.151 7.468 136.391 7.228L136.427 7.192C136.667 7 136.943 6.952 137.255 7.048C137.567 7.12 137.735 7.216 137.759 7.336C137.879 7.456 137.951 7.66 137.975 7.948C138.023 8.212 138.047 8.44 138.047 8.632L138.011 8.776C137.915 8.944 137.819 9.172 137.723 9.46C137.627 9.724 137.375 10 136.967 10.288C136.535 10.672 136.103 10.984 135.671 11.224C135.239 11.464 134.747 11.74 134.195 12.052C134.027 12.148 133.823 12.22 133.583 12.268C133.343 12.292 133.055 12.304 132.719 12.304ZM141.21 26.812C140.754 26.62 140.382 26.332 140.094 25.948C139.83 25.54 139.698 25.048 139.698 24.472C139.698 24.232 139.746 23.824 139.842 23.248C139.938 22.672 140.07 22.024 140.238 21.304C140.406 20.584 140.574 19.912 140.742 19.288C140.982 18.856 141.138 18.424 141.21 17.992C141.306 17.56 141.354 17.296 141.354 17.2C141.402 16.912 141.486 16.528 141.606 16.048C141.726 15.568 141.846 15.136 141.966 14.752C142.11 14.344 142.206 14.116 142.254 14.068C142.374 13.948 142.578 13.876 142.866 13.852C143.154 13.828 143.442 13.864 143.73 13.96C144.018 14.032 144.21 14.188 144.306 14.428C144.57 14.716 144.714 15.148 144.738 15.724C144.786 16.3 144.678 16.972 144.414 17.74C144.198 18.22 143.982 18.784 143.766 19.432C143.55 20.08 143.358 20.68 143.19 21.232C143.046 21.76 142.962 22.12 142.938 22.312L141.642 22.276C142.05 21.892 142.434 21.496 142.794 21.088C143.154 20.656 143.418 20.32 143.586 20.08C143.994 19.528 144.342 19.072 144.63 18.712C144.942 18.328 145.338 17.872 145.818 17.344C146.298 16.792 146.814 16.408 147.366 16.192C147.918 15.952 148.326 15.832 148.59 15.832C149.118 15.928 149.586 16.204 149.994 16.66C150.426 17.092 150.69 17.74 150.786 18.604C150.786 18.94 150.75 19.336 150.678 19.792C150.63 20.248 150.606 20.476 150.606 20.476C150.606 20.476 150.798 20.236 151.182 19.756C151.59 19.276 152.13 18.736 152.802 18.136C153.258 17.8 153.702 17.608 154.134 17.56C154.566 17.488 154.95 17.632 155.286 17.992C155.91 18.328 156.366 18.916 156.654 19.756C156.942 20.596 157.038 21.544 156.942 22.6C156.87 23.224 156.87 23.728 156.942 24.112C157.038 24.472 157.134 24.796 157.23 25.084C157.542 25.516 157.59 25.9 157.374 26.236C157.158 26.548 156.966 26.704 156.798 26.704C156.558 26.704 156.198 26.656 155.718 26.56C155.238 26.464 154.794 26.296 154.386 26.056C154.002 25.816 153.81 25.492 153.81 25.084V22.852C153.81 22.324 153.786 21.94 153.738 21.7C153.714 21.436 153.654 21.268 153.558 21.196C153.294 21.052 152.97 21.16 152.586 21.52C152.202 21.88 151.782 22.396 151.326 23.068C150.894 23.716 150.426 24.448 149.922 25.264C149.466 26.008 149.094 26.464 148.806 26.632C148.518 26.776 148.242 26.764 147.978 26.596C147.45 26.428 147.114 26.2 146.97 25.912C146.85 25.6 146.838 25.252 146.934 24.868C147.054 24.46 147.198 23.932 147.366 23.284C147.558 22.636 147.738 22.012 147.906 21.412C148.074 20.788 148.182 20.332 148.23 20.044C148.134 19.852 147.966 19.792 147.726 19.864C147.51 19.912 147.282 20.02 147.042 20.188C146.754 20.38 146.442 20.584 146.106 20.8C145.794 21.016 145.422 21.472 144.99 22.168C144.702 22.624 144.378 23.128 144.018 23.68C143.658 24.208 143.322 24.688 143.01 25.12C142.722 25.552 142.482 25.852 142.29 26.02C142.122 26.452 141.966 26.728 141.822 26.848C141.678 26.944 141.474 26.932 141.21 26.812ZM165.872 27.28C165.152 27.688 164.384 27.928 163.568 28C162.776 28.048 162.032 27.94 161.336 27.676C160.64 27.388 160.076 26.968 159.644 26.416C159.404 26.104 159.176 25.612 158.96 24.94C158.744 24.244 158.708 23.308 158.852 22.132C158.996 21.028 159.332 19.912 159.86 18.784C160.412 17.656 161.084 16.66 161.876 15.796C162.668 14.932 163.532 14.344 164.468 14.032C164.804 13.912 165.14 13.828 165.476 13.78C165.836 13.708 166.304 13.696 166.88 13.744C167.432 13.816 167.924 13.96 168.356 14.176C168.788 14.368 169.1 14.584 169.292 14.824C169.676 15.208 169.928 15.58 170.048 15.94C170.168 16.3 170.216 16.648 170.192 16.984C170.072 17.752 169.724 18.58 169.148 19.468C168.596 20.356 167.816 21.016 166.808 21.448C166.4 21.616 165.92 21.724 165.368 21.772C164.816 21.82 164.06 21.748 163.1 21.556C162.524 21.436 162.14 21.496 161.948 21.736C161.78 21.976 161.708 22.444 161.732 23.14C161.78 23.572 161.876 23.956 162.02 24.292C162.188 24.604 162.488 24.82 162.92 24.94C163.472 25.036 163.868 25.048 164.108 24.976C164.348 24.88 164.648 24.748 165.008 24.58C165.2 24.46 165.38 24.328 165.548 24.184C165.74 24.04 165.92 23.896 166.088 23.752C166.28 23.608 166.436 23.5 166.556 23.428C166.676 23.332 166.796 23.272 166.916 23.248C167.036 23.224 167.156 23.212 167.276 23.212C167.54 23.236 167.792 23.38 168.032 23.644C168.272 23.908 168.428 24.16 168.5 24.4C168.5 24.592 168.38 24.868 168.14 25.228C167.9 25.564 167.576 25.924 167.168 26.308C166.784 26.668 166.352 26.992 165.872 27.28ZM165.404 19.252C165.572 19.18 165.812 19.012 166.124 18.748C166.46 18.484 166.76 18.208 167.024 17.92C167.288 17.608 167.42 17.368 167.42 17.2C167.42 16.936 167.24 16.708 166.88 16.516C166.544 16.324 166.1 16.288 165.548 16.408C165.356 16.456 165.128 16.588 164.864 16.804C164.6 17.02 164.336 17.272 164.072 17.56C163.808 17.824 163.58 18.088 163.388 18.352C163.196 18.592 163.064 18.784 162.992 18.928C163.088 19.048 163.28 19.144 163.568 19.216C163.856 19.288 164.168 19.324 164.504 19.324C164.864 19.324 165.164 19.3 165.404 19.252ZM5.488 72.496C5.296 72.544 5.044 72.568 4.732 72.568C4.42 72.544 4.144 72.508 3.904 72.46C3.688 72.388 3.58 72.316 3.58 72.244C3.58 72.124 3.52 72.064 3.4 72.064C3.4 72.064 3.268 71.968 3.004 71.776C2.74 71.56 2.5 71.404 2.284 71.308C2.068 70.972 1.924 70.588 1.852 70.156C1.804 69.7 1.948 68.908 2.284 67.78C2.308 67.012 2.524 66.208 2.932 65.368C3.34 64.504 3.856 63.664 4.48 62.848C5.104 62.032 5.752 61.312 6.424 60.688C7.096 60.04 7.696 59.56 8.224 59.248C8.56 58.912 9.004 58.732 9.556 58.708C10.132 58.684 10.636 58.792 11.068 59.032C11.308 59.152 11.572 59.392 11.86 59.752C12.148 60.112 12.424 60.496 12.688 60.904C12.952 61.288 13.156 61.636 13.3 61.948C13.372 62.212 13.432 62.452 13.48 62.668C13.552 62.86 13.6 63.1 13.624 63.388C13.648 63.676 13.624 64.108 13.552 64.684C13.432 65.116 13.324 65.56 13.228 66.016C13.156 66.448 13.12 66.892 13.12 67.348C13.072 67.804 13.12 68.128 13.264 68.32C13.432 68.512 13.672 68.524 13.984 68.356C14.272 68.212 14.572 68.2 14.884 68.32C15.196 68.416 15.412 68.608 15.532 68.896C15.676 69.16 15.64 69.508 15.424 69.94C15.28 70.252 15.052 70.552 14.74 70.84C14.428 71.128 14.08 71.368 13.696 71.56C13.312 71.728 12.94 71.812 12.58 71.812C12.316 71.812 12.052 71.716 11.788 71.524C11.524 71.308 11.284 71.02 11.068 70.66C10.852 70.3 10.672 69.904 10.528 69.472L10.312 68.644L9.016 69.832C8.704 70.168 8.392 70.48 8.08 70.768C7.792 71.032 7.612 71.224 7.54 71.344C7.42 71.56 7.18 71.752 6.82 71.92C6.484 72.088 6.04 72.28 5.488 72.496ZM6.46 69.04C6.868 68.8 7.216 68.512 7.504 68.176C7.816 67.84 8.116 67.468 8.404 67.06C8.692 66.628 9.004 66.172 9.34 65.692C9.748 65.14 10.036 64.696 10.204 64.36C10.396 64.024 10.54 63.664 10.636 63.28C10.54 63.016 10.408 62.74 10.24 62.452C10.072 62.14 9.904 61.972 9.736 61.948C9.4 61.948 8.992 62.152 8.512 62.56C8.056 62.968 7.552 63.556 7 64.324C6.904 64.444 6.784 64.636 6.64 64.9C6.496 65.164 6.352 65.416 6.208 65.656C6.088 65.872 6.004 66.016 5.956 66.088C5.884 66.184 5.776 66.412 5.632 66.772C5.512 67.108 5.404 67.456 5.308 67.816C5.212 68.152 5.164 68.392 5.164 68.536C5.164 68.68 5.176 68.836 5.2 69.004C5.248 69.172 5.368 69.28 5.56 69.328C5.752 69.376 6.052 69.28 6.46 69.04ZM18.7155 73.108C18.5235 73.06 18.2715 72.88 17.9595 72.568C17.6475 72.232 17.3595 71.86 17.0955 71.452C16.8555 71.044 16.7355 70.708 16.7355 70.444C16.8555 70.18 17.0115 69.724 17.2035 69.076C17.3955 68.404 17.6355 67.636 17.9235 66.772C18.1155 66.508 18.2595 66.196 18.3555 65.836C18.4755 65.476 18.5835 65.152 18.6795 64.864C18.8715 64.48 19.0875 63.988 19.3275 63.388C19.5915 62.764 19.8555 62.14 20.1195 61.516C20.3835 60.868 20.6115 60.328 20.8035 59.896C20.9235 59.68 21.0435 59.464 21.1635 59.248C21.2835 59.032 21.3915 58.816 21.4875 58.6C21.4875 58.48 21.5475 58.372 21.6675 58.276C21.7875 58.156 21.9435 58.072 22.1355 58.024C22.2555 57.976 22.3875 57.94 22.5315 57.916C22.6995 57.892 22.8675 57.88 23.0355 57.88C23.3715 57.88 23.6715 58.096 23.9355 58.528C24.2235 58.936 24.3675 59.308 24.3675 59.644C24.3675 60.148 24.2835 60.568 24.1155 60.904C23.9715 61.216 23.8035 61.492 23.6115 61.732C23.4195 61.948 23.2395 62.176 23.0715 62.416C22.9275 62.656 22.8555 62.968 22.8555 63.352C22.8555 63.448 22.9395 63.46 23.1075 63.388C23.2755 63.292 23.4675 63.184 23.6835 63.064C23.8755 62.968 24.1515 62.776 24.5115 62.488C24.8955 62.2 25.2915 61.912 25.6995 61.624C26.1075 61.312 26.4435 61.12 26.7075 61.048C27.2355 60.688 27.6555 60.424 27.9675 60.256C28.2795 60.064 28.5075 59.968 28.6515 59.968C28.9155 59.968 29.1915 60.136 29.4795 60.472C29.7675 60.784 29.9115 61.084 29.9115 61.372C29.9115 61.612 29.8155 61.852 29.6235 62.092C29.4555 62.308 29.2155 62.548 28.9035 62.812C28.3995 63.22 27.8115 63.628 27.1395 64.036C26.4675 64.42 25.8555 64.756 25.3035 65.044C24.7755 65.308 24.4635 65.5 24.3675 65.62C24.3675 65.644 24.4515 65.788 24.6195 66.052C24.8115 66.292 25.0155 66.568 25.2315 66.88C25.3755 67.144 25.5075 67.408 25.6275 67.672C25.7715 67.912 25.8915 68.14 25.9875 68.356C26.2995 69.004 26.5635 69.508 26.7795 69.868C27.0195 70.204 27.2955 70.408 27.6075 70.48C27.9195 70.528 28.3755 70.468 28.9755 70.3C29.4315 70.156 29.7795 70.24 30.0195 70.552C30.2835 70.864 30.4155 71.152 30.4155 71.416C30.4155 71.536 30.3435 71.668 30.1995 71.812C30.0795 71.956 29.9235 72.112 29.7315 72.28C29.3475 72.592 28.8915 72.868 28.3635 73.108C27.8595 73.372 27.4755 73.504 27.2115 73.504C26.9475 73.504 26.6595 73.432 26.3475 73.288C26.0355 73.144 25.6395 72.832 25.1595 72.352C24.6795 71.872 24.0435 71.116 23.2515 70.084C23.2515 69.988 23.1915 69.832 23.0715 69.616C22.9515 69.376 22.8315 69.136 22.7115 68.896C22.6155 68.704 22.5195 68.548 22.4235 68.428C22.3515 68.284 22.3035 68.2 22.2795 68.176C22.2795 68.296 22.2555 68.272 22.2075 68.104C22.1835 67.936 22.1235 67.756 22.0275 67.564C21.9315 67.348 21.7875 67.24 21.5955 67.24C21.4995 67.24 21.3675 67.396 21.1995 67.708C21.0315 67.996 20.8515 68.356 20.6595 68.788C20.5395 69.076 20.4195 69.388 20.2995 69.724C20.1795 70.06 20.0835 70.396 20.0115 70.732C19.9635 71.044 19.9395 71.344 19.9395 71.632C19.9395 71.992 19.8315 72.328 19.6155 72.64C19.4235 72.952 19.1235 73.108 18.7155 73.108ZM34.2447 71.812C33.7887 71.62 33.4167 71.332 33.1287 70.948C32.8647 70.54 32.7327 70.048 32.7327 69.472C32.7327 69.232 32.7807 68.824 32.8767 68.248C32.9727 67.672 33.1047 67.024 33.2727 66.304C33.4407 65.584 33.6087 64.912 33.7767 64.288C34.0167 63.856 34.1727 63.424 34.2447 62.992C34.3407 62.56 34.3887 62.296 34.3887 62.2C34.4367 61.912 34.5207 61.528 34.6407 61.048C34.7607 60.568 34.8807 60.136 35.0007 59.752C35.1447 59.344 35.2407 59.116 35.2887 59.068C35.4087 58.948 35.6127 58.876 35.9007 58.852C36.1887 58.828 36.4767 58.864 36.7647 58.96C37.0527 59.032 37.2447 59.188 37.3407 59.428C37.6047 59.716 37.7487 60.148 37.7727 60.724C37.8207 61.3 37.7127 61.972 37.4487 62.74C37.2327 63.22 37.0167 63.784 36.8007 64.432C36.5847 65.08 36.3927 65.68 36.2247 66.232C36.0807 66.76 35.9967 67.12 35.9727 67.312L34.6767 67.276C35.0847 66.892 35.4687 66.496 35.8287 66.088C36.1887 65.656 36.4527 65.32 36.6207 65.08C37.0287 64.528 37.3767 64.072 37.6647 63.712C37.9767 63.328 38.3727 62.872 38.8527 62.344C39.3327 61.792 39.8487 61.408 40.4007 61.192C40.9527 60.952 41.3607 60.832 41.6247 60.832C42.1527 60.928 42.6207 61.204 43.0287 61.66C43.4607 62.092 43.7247 62.74 43.8207 63.604C43.8207 63.94 43.7847 64.336 43.7127 64.792C43.6647 65.248 43.6407 65.476 43.6407 65.476C43.6407 65.476 43.8327 65.236 44.2167 64.756C44.6247 64.276 45.1647 63.736 45.8367 63.136C46.2927 62.8 46.7367 62.608 47.1687 62.56C47.6007 62.488 47.9847 62.632 48.3207 62.992C48.9447 63.328 49.4007 63.916 49.6887 64.756C49.9767 65.596 50.0727 66.544 49.9767 67.6C49.9047 68.224 49.9047 68.728 49.9767 69.112C50.0727 69.472 50.1687 69.796 50.2647 70.084C50.5767 70.516 50.6247 70.9 50.4087 71.236C50.1927 71.548 50.0007 71.704 49.8327 71.704C49.5927 71.704 49.2327 71.656 48.7527 71.56C48.2727 71.464 47.8287 71.296 47.4207 71.056C47.0367 70.816 46.8447 70.492 46.8447 70.084V67.852C46.8447 67.324 46.8207 66.94 46.7727 66.7C46.7487 66.436 46.6887 66.268 46.5927 66.196C46.3287 66.052 46.0047 66.16 45.6207 66.52C45.2367 66.88 44.8167 67.396 44.3607 68.068C43.9287 68.716 43.4607 69.448 42.9567 70.264C42.5007 71.008 42.1287 71.464 41.8407 71.632C41.5527 71.776 41.2767 71.764 41.0127 71.596C40.4847 71.428 40.1487 71.2 40.0047 70.912C39.8847 70.6 39.8727 70.252 39.9687 69.868C40.0887 69.46 40.2327 68.932 40.4007 68.284C40.5927 67.636 40.7727 67.012 40.9407 66.412C41.1087 65.788 41.2167 65.332 41.2647 65.044C41.1687 64.852 41.0007 64.792 40.7607 64.864C40.5447 64.912 40.3167 65.02 40.0767 65.188C39.7887 65.38 39.4767 65.584 39.1407 65.8C38.8287 66.016 38.4567 66.472 38.0247 67.168C37.7367 67.624 37.4127 68.128 37.0527 68.68C36.6927 69.208 36.3567 69.688 36.0447 70.12C35.7567 70.552 35.5167 70.852 35.3247 71.02C35.1567 71.452 35.0007 71.728 34.8567 71.848C34.7127 71.944 34.5087 71.932 34.2447 71.812ZM63.635 73.612C63.203 73.66 62.819 73.564 62.483 73.324C62.147 73.084 61.883 72.82 61.691 72.532C61.451 72.148 61.271 71.704 61.151 71.2C61.031 70.672 60.971 70.18 60.971 69.724C60.971 69.7 60.959 69.676 60.935 69.652C60.935 69.628 60.935 69.616 60.935 69.616C60.935 69.592 60.923 69.592 60.899 69.616C60.611 69.928 60.191 70.312 59.639 70.768C59.111 71.2 58.547 71.584 57.947 71.92C57.371 72.232 56.855 72.376 56.399 72.352C56.111 72.328 55.823 72.196 55.535 71.956C55.271 71.692 55.031 71.392 54.815 71.056C54.599 70.72 54.455 70.42 54.383 70.156C54.287 69.772 54.311 69.148 54.455 68.284C54.599 67.396 54.815 66.412 55.103 65.332C55.415 64.228 55.775 63.172 56.183 62.164C56.591 61.132 57.011 60.292 57.443 59.644C57.899 58.972 58.331 58.636 58.739 58.636C59.099 58.636 59.411 58.828 59.675 59.212C59.939 59.572 60.131 59.896 60.251 60.184C60.395 60.544 60.467 60.796 60.467 60.94C60.467 61.06 60.335 61.264 60.071 61.552C59.831 61.792 59.579 62.188 59.315 62.74C59.051 63.268 58.787 63.868 58.523 64.54C58.259 65.188 58.019 65.8 57.803 66.376C57.611 66.952 57.455 67.408 57.335 67.744C57.287 68.008 57.239 68.212 57.191 68.356C57.143 68.5 57.107 68.668 57.083 68.86C57.131 68.86 57.179 68.86 57.227 68.86C57.299 68.836 57.359 68.812 57.407 68.788C57.863 68.62 58.331 68.284 58.811 67.78C59.315 67.276 59.807 66.676 60.287 65.98C60.767 65.26 61.223 64.528 61.655 63.784C62.111 63.016 62.543 62.308 62.951 61.66C63.359 60.988 63.719 60.448 64.031 60.04C64.367 59.608 64.643 59.392 64.859 59.392C65.099 59.368 65.387 59.428 65.723 59.572C66.059 59.692 66.335 59.872 66.551 60.112C66.791 60.328 66.887 60.58 66.839 60.868C66.743 61.42 66.491 62.128 66.083 62.992C65.675 63.832 65.255 64.756 64.823 65.764C64.415 66.772 64.115 67.816 63.923 68.896C63.827 69.448 63.863 69.94 64.031 70.372C64.199 70.78 64.451 71.188 64.787 71.596C65.171 72.052 65.195 72.496 64.859 72.928C64.547 73.336 64.139 73.564 63.635 73.612ZM71.5398 73.468C71.0118 73.492 70.4838 73.396 69.9558 73.18C69.4518 72.988 69.0438 72.604 68.7318 72.028C68.4918 71.572 68.3238 71.08 68.2278 70.552C68.1318 70.024 68.1318 69.52 68.2278 69.04C68.5158 67.456 68.7558 66.304 68.9478 65.584C69.1398 64.864 69.2478 64.456 69.2718 64.36C69.3198 64.264 69.3918 64.048 69.4878 63.712C69.6078 63.376 69.7398 63.088 69.8838 62.848C70.0038 62.488 70.0398 62.068 69.9918 61.588C69.9678 61.396 69.9918 61.168 70.0638 60.904C70.1598 60.64 70.2798 60.448 70.4238 60.328C70.8318 60.016 71.1558 59.608 71.3958 59.104C71.4678 58.936 71.5878 58.684 71.7558 58.348C71.9238 57.988 72.1038 57.628 72.2958 57.268C72.5118 56.884 72.6798 56.572 72.7998 56.332C73.1838 55.852 73.5798 55.288 73.9878 54.64C74.3958 53.992 74.8518 53.44 75.3558 52.984C75.6678 52.456 76.0518 51.988 76.5078 51.58C76.9878 51.148 77.4558 50.752 77.9118 50.392C78.3918 50.008 78.7758 49.672 79.0638 49.384C79.2558 49.168 79.6398 49 80.2158 48.88C80.7918 48.76 81.2478 48.652 81.5838 48.556C81.9678 48.436 82.3998 48.508 82.8798 48.772C83.3598 49.036 83.6838 49.276 83.8518 49.492C84.2118 50.116 84.4278 50.644 84.4998 51.076C84.5718 51.484 84.5238 51.952 84.3558 52.48C84.1878 52.984 83.8878 53.692 83.4558 54.604C82.9758 55.564 82.2798 56.5 81.3678 57.412C80.4558 58.324 79.4958 59.128 78.4878 59.824C78.0318 60.232 77.5278 60.616 76.9758 60.976C76.4238 61.336 75.8958 61.648 75.3918 61.912C75.0798 62.08 74.7558 62.236 74.4198 62.38C74.1078 62.5 73.7838 62.62 73.4478 62.74C73.2798 62.788 73.1598 62.92 73.0878 63.136C73.0398 63.352 72.9558 63.616 72.8358 63.928C72.8118 64.144 72.7518 64.336 72.6558 64.504C72.5838 64.648 72.5238 64.756 72.4758 64.828C72.4038 64.9 72.3198 65.116 72.2238 65.476C72.1278 65.836 72.0318 66.268 71.9358 66.772C71.8398 67.276 71.7438 67.768 71.6478 68.248C71.5518 68.728 71.4798 69.1 71.4318 69.364C71.3838 69.628 71.3718 69.82 71.3958 69.94C71.4438 70.036 71.5278 70.108 71.6478 70.156C71.9118 70.108 72.1038 70 72.2238 69.832C72.3678 69.64 72.5238 69.448 72.6918 69.256C72.8838 68.92 73.0398 68.608 73.1598 68.32C73.3038 68.032 73.4598 67.672 73.6278 67.24C73.7238 66.976 73.8198 66.676 73.9158 66.34C74.0358 65.98 74.1558 65.68 74.2758 65.44C74.2758 64.936 74.2638 64.564 74.2398 64.324C74.2398 64.06 74.2158 63.844 74.1678 63.676C74.1438 63.508 74.0958 63.328 74.0238 63.136C74.1918 62.488 74.3478 62.116 74.4918 62.02C74.6358 61.9 74.7918 61.864 74.9598 61.912C75.4398 62.008 75.8478 62.164 76.1838 62.38C76.5438 62.596 76.8678 62.836 77.1558 63.1C77.2998 63.22 77.3958 63.376 77.4438 63.568C77.5158 63.76 77.5278 63.916 77.4798 64.036C77.4558 64.324 77.4198 64.636 77.3718 64.972C77.3478 65.284 77.3358 65.572 77.3358 65.836C77.1678 66.22 77.0118 66.712 76.8678 67.312C76.7238 67.912 76.5438 68.464 76.3278 68.968C76.1838 69.28 75.9438 69.7 75.6078 70.228C75.2958 70.732 75.0438 71.116 74.8518 71.38C74.5398 71.764 74.0958 72.124 73.5198 72.46C72.9678 72.796 72.4518 73.132 71.9718 73.468H71.5398ZM74.2038 59.14C74.3478 59.188 74.4918 59.188 74.6358 59.14C74.8038 59.068 74.9598 58.996 75.1038 58.924C75.9678 58.54 76.7958 58.036 77.5878 57.412C78.4038 56.764 79.1238 56.092 79.7478 55.396C80.3958 54.676 80.8638 54.028 81.1518 53.452C81.2958 53.188 81.4518 52.852 81.6198 52.444C81.8118 52.036 81.9198 51.568 81.9438 51.04L81.8358 50.788C81.4038 51.1 80.9598 51.46 80.5038 51.868C80.0478 52.276 79.5078 52.804 78.8838 53.452C78.6438 53.692 78.3198 54.028 77.9118 54.46C77.5038 54.868 77.0598 55.336 76.5798 55.864C76.1238 56.392 75.6798 56.944 75.2478 57.52C74.8158 58.072 74.4678 58.612 74.2038 59.14ZM90.8125 73.108C90.6205 73.108 90.4765 73.12 90.3805 73.144C90.2845 73.168 90.1405 73.144 89.9485 73.072C89.7805 73.024 89.4325 72.904 88.9045 72.712C88.6645 72.304 88.5205 71.896 88.4725 71.488C88.4485 71.056 88.4725 70.624 88.5445 70.192C88.6405 69.736 88.7725 69.292 88.9405 68.86C89.1085 68.428 89.2645 68.02 89.4085 67.636C89.3845 67.66 89.3485 67.672 89.3005 67.672C89.2525 67.672 89.2045 67.684 89.1565 67.708C88.9405 67.756 88.7245 67.804 88.5085 67.852C88.2925 67.876 88.0645 67.912 87.8245 67.96C87.4405 68.032 87.0685 68.104 86.7085 68.176C86.3485 68.224 85.9765 68.296 85.5925 68.392C85.5205 68.344 85.4365 68.296 85.3405 68.248C85.2685 68.2 85.1965 68.164 85.1245 68.14C85.0525 68.404 84.9925 68.692 84.9445 69.004C84.8965 69.316 84.8365 69.628 84.7645 69.94C84.7165 70.252 84.6445 70.564 84.5485 70.876C84.4765 71.164 84.3685 71.44 84.2245 71.704C83.6965 71.776 83.3125 71.8 83.0725 71.776C82.8325 71.752 82.4605 71.656 81.9565 71.488C81.7645 71.224 81.6205 70.96 81.5245 70.696C81.4525 70.408 81.4165 70.12 81.4165 69.832C81.4165 69.256 81.5365 68.68 81.7765 68.104C82.0165 67.504 82.2325 66.94 82.4245 66.412C82.5205 66.148 82.5925 65.908 82.6405 65.692C82.7125 65.452 82.7485 65.212 82.7485 64.972C82.7965 64.924 82.8805 64.768 83.0005 64.504C83.1205 64.216 83.2645 63.88 83.4325 63.496C83.6485 62.968 83.8765 62.404 84.1165 61.804C84.3565 61.204 84.5605 60.664 84.7285 60.184C84.8965 59.68 84.9925 59.344 85.0165 59.176C85.0405 58.6 85.3285 58.312 85.8805 58.312C86.2405 58.288 86.6245 58.408 87.0325 58.672C87.4405 58.936 87.7525 59.26 87.9685 59.644C88.1845 60.028 88.1725 60.4 87.9325 60.76C87.8125 61.072 87.6925 61.384 87.5725 61.696C87.4525 62.008 87.3325 62.332 87.2125 62.668C87.0925 62.98 86.9725 63.292 86.8525 63.604C86.7325 63.916 86.6125 64.228 86.4925 64.54C86.4685 64.636 86.4445 64.72 86.4205 64.792C86.3965 64.864 86.3605 64.948 86.3125 65.044C86.4565 65.02 86.6005 64.996 86.7445 64.972C86.9125 64.924 87.0565 64.864 87.1765 64.792C87.4165 64.792 87.7645 64.792 88.2205 64.792C88.7005 64.792 89.1325 64.792 89.5165 64.792C89.7565 64.912 89.9485 65.044 90.0925 65.188C90.3085 64.684 90.5245 64.18 90.7405 63.676C90.9565 63.148 91.1485 62.62 91.3165 62.092C91.5085 61.54 91.6525 61 91.7485 60.472C91.8205 60.136 91.9645 59.848 92.1805 59.608C92.3965 59.368 92.6485 59.164 92.9365 58.996C93.4645 59.188 93.9325 59.38 94.3405 59.572C94.7725 59.764 95.0485 60.172 95.1685 60.796C95.0725 61.012 95.0125 61.24 94.9885 61.48C94.9645 61.72 94.9045 61.948 94.8085 62.164C94.4965 62.932 94.1725 63.724 93.8365 64.54C93.5005 65.332 93.1885 66.136 92.9005 66.952C92.6365 67.744 92.4205 68.56 92.2525 69.4C92.2045 69.664 92.1325 69.928 92.0365 70.192C91.9405 70.456 91.8445 70.732 91.7485 71.02C91.6765 71.284 91.6165 71.548 91.5685 71.812C91.5445 72.076 91.4725 72.328 91.3525 72.568C91.2325 72.784 91.0525 72.964 90.8125 73.108ZM99.3566 72.748C99.0446 72.748 98.7926 72.688 98.6006 72.568C98.4326 72.448 98.2166 72.28 97.9526 72.064C97.4966 71.584 97.1246 71.068 96.8366 70.516C96.5726 69.964 96.4766 69.484 96.5486 69.076C96.6206 68.884 96.6446 68.704 96.6206 68.536C96.6206 68.344 96.6206 68.248 96.6206 68.248C96.5006 68.128 96.4646 68.056 96.5126 68.032C96.5606 67.984 96.6086 67.912 96.6566 67.816C96.8006 67.816 96.8486 67.684 96.8006 67.42C96.7526 67.228 96.8246 66.82 97.0166 66.196C97.2326 65.548 97.5206 64.936 97.8806 64.36C98.0246 64.12 98.2406 63.808 98.5286 63.424C98.8166 63.016 99.1286 62.62 99.4646 62.236C99.8246 61.828 100.149 61.504 100.437 61.264C101.037 60.76 101.589 60.352 102.093 60.04C102.621 59.728 103.149 59.512 103.677 59.392C104.205 59.272 104.745 59.212 105.297 59.212C105.873 59.212 106.341 59.404 106.701 59.788C107.253 60.028 107.637 60.352 107.853 60.76C108.093 61.168 108.249 61.696 108.321 62.344C108.393 63.064 108.321 63.952 108.105 65.008C107.889 66.04 107.301 67.24 106.341 68.608C105.741 69.472 105.153 70.144 104.577 70.624C104.001 71.104 103.365 71.548 102.669 71.956C102.165 72.292 101.625 72.496 101.049 72.568C100.473 72.64 99.9086 72.7 99.3566 72.748ZM103.029 68.356C103.557 67.9 103.929 67.396 104.145 66.844C104.385 66.292 104.637 65.644 104.901 64.9C104.997 64.756 105.057 64.516 105.081 64.18C105.129 63.844 105.141 63.52 105.117 63.208C105.093 62.872 105.009 62.68 104.865 62.632C104.649 62.464 104.433 62.428 104.217 62.524C104.001 62.596 103.725 62.752 103.389 62.992C102.669 63.592 101.997 64.288 101.373 65.08C100.773 65.848 100.353 66.796 100.113 67.924C100.041 68.524 100.101 68.98 100.293 69.292C100.509 69.58 100.845 69.664 101.301 69.544C101.781 69.4 102.357 69.004 103.029 68.356ZM115.928 72.676C115.616 72.82 115.256 72.88 114.848 72.856C114.44 72.832 113.888 72.7 113.192 72.46C113.144 72.46 112.976 72.352 112.688 72.136C112.4 71.92 112.112 71.668 111.824 71.38C111.536 71.092 111.344 70.852 111.248 70.66C110.864 70.108 110.744 69.292 110.888 68.212C111.056 67.132 111.44 65.836 112.04 64.324C112.208 63.964 112.46 63.508 112.796 62.956C113.156 62.404 113.504 61.9 113.84 61.444C114.2 60.964 114.452 60.688 114.596 60.616C114.596 60.616 114.728 60.568 114.992 60.472C115.256 60.376 115.592 60.22 116 60.004C116.12 59.956 116.324 59.896 116.612 59.824C116.924 59.752 117.236 59.692 117.548 59.644C117.884 59.572 118.112 59.548 118.232 59.572C118.712 59.596 119.204 59.776 119.708 60.112C120.236 60.424 120.668 60.796 121.004 61.228C121.34 61.636 121.448 61.996 121.328 62.308C121.328 62.356 121.256 62.512 121.112 62.776C120.992 63.016 120.86 63.268 120.716 63.532C120.572 63.772 120.452 63.952 120.356 64.072C120.236 64.216 120.02 64.276 119.708 64.252C119.42 64.228 119.156 64.132 118.916 63.964C118.676 63.796 118.544 63.568 118.52 63.28C118.472 63.088 118.292 62.908 117.98 62.74C117.692 62.572 117.548 62.488 117.548 62.488C117.356 62.488 117.104 62.68 116.792 63.064C116.48 63.448 116.156 63.88 115.82 64.36C115.388 64.792 115.076 65.26 114.884 65.764C114.716 66.244 114.596 66.7 114.524 67.132C114.476 67.54 114.416 67.852 114.344 68.068C114.248 68.308 114.248 68.608 114.344 68.968C114.44 69.328 114.56 69.532 114.704 69.58C114.92 69.604 115.208 69.592 115.568 69.544C115.952 69.472 116.348 69.388 116.756 69.292C117.188 69.172 117.62 69.052 118.052 68.932C118.484 68.788 118.868 68.644 119.204 68.5C119.66 68.212 120.056 68.104 120.392 68.176C120.728 68.224 120.98 68.272 121.148 68.32C121.412 68.416 121.544 68.62 121.544 68.932C121.544 69.244 121.436 69.58 121.22 69.94C121.004 70.276 120.692 70.552 120.284 70.768C119.9 70.96 119.552 71.176 119.24 71.416C118.952 71.632 118.808 71.8 118.808 71.92C118.712 71.92 118.604 71.956 118.484 72.028C118.388 72.076 118.304 72.088 118.232 72.064C118.184 72.064 117.992 72.1 117.656 72.172C117.32 72.244 116.972 72.328 116.612 72.424C116.276 72.52 116.048 72.604 115.928 72.676ZM126.233 71.812C125.777 71.62 125.405 71.332 125.117 70.948C124.853 70.54 124.721 70.048 124.721 69.472C124.721 69.232 124.769 68.824 124.865 68.248C124.961 67.672 125.093 67.024 125.261 66.304C125.429 65.584 125.597 64.912 125.765 64.288C126.005 63.856 126.161 63.424 126.233 62.992C126.329 62.56 126.377 62.296 126.377 62.2C126.425 61.912 126.509 61.528 126.629 61.048C126.749 60.568 126.869 60.136 126.989 59.752C127.133 59.344 127.229 59.116 127.277 59.068C127.397 58.948 127.601 58.876 127.889 58.852C128.177 58.828 128.465 58.864 128.753 58.96C129.041 59.032 129.233 59.188 129.329 59.428C129.593 59.716 129.737 60.148 129.761 60.724C129.809 61.3 129.701 61.972 129.437 62.74C129.221 63.22 129.005 63.784 128.789 64.432C128.573 65.08 128.381 65.68 128.213 66.232C128.069 66.76 127.985 67.12 127.961 67.312L126.665 67.276C127.073 66.892 127.457 66.496 127.817 66.088C128.177 65.656 128.441 65.32 128.609 65.08C129.017 64.528 129.365 64.072 129.653 63.712C129.965 63.328 130.361 62.872 130.841 62.344C131.321 61.792 131.837 61.408 132.389 61.192C132.941 60.952 133.349 60.832 133.613 60.832C134.141 60.928 134.609 61.204 135.017 61.66C135.449 62.092 135.713 62.74 135.809 63.604C135.809 63.94 135.773 64.336 135.701 64.792C135.653 65.248 135.629 65.476 135.629 65.476C135.629 65.476 135.821 65.236 136.205 64.756C136.613 64.276 137.153 63.736 137.825 63.136C138.281 62.8 138.725 62.608 139.157 62.56C139.589 62.488 139.973 62.632 140.309 62.992C140.933 63.328 141.389 63.916 141.677 64.756C141.965 65.596 142.061 66.544 141.965 67.6C141.893 68.224 141.893 68.728 141.965 69.112C142.061 69.472 142.157 69.796 142.253 70.084C142.565 70.516 142.613 70.9 142.397 71.236C142.181 71.548 141.989 71.704 141.821 71.704C141.581 71.704 141.221 71.656 140.741 71.56C140.261 71.464 139.817 71.296 139.409 71.056C139.025 70.816 138.833 70.492 138.833 70.084V67.852C138.833 67.324 138.809 66.94 138.761 66.7C138.737 66.436 138.677 66.268 138.581 66.196C138.317 66.052 137.993 66.16 137.609 66.52C137.225 66.88 136.805 67.396 136.349 68.068C135.917 68.716 135.449 69.448 134.945 70.264C134.489 71.008 134.117 71.464 133.829 71.632C133.541 71.776 133.265 71.764 133.001 71.596C132.473 71.428 132.137 71.2 131.993 70.912C131.873 70.6 131.861 70.252 131.957 69.868C132.077 69.46 132.221 68.932 132.389 68.284C132.581 67.636 132.761 67.012 132.929 66.412C133.097 65.788 133.205 65.332 133.253 65.044C133.157 64.852 132.989 64.792 132.749 64.864C132.533 64.912 132.305 65.02 132.065 65.188C131.777 65.38 131.465 65.584 131.129 65.8C130.817 66.016 130.445 66.472 130.013 67.168C129.725 67.624 129.401 68.128 129.041 68.68C128.681 69.208 128.345 69.688 128.033 70.12C127.745 70.552 127.505 70.852 127.313 71.02C127.145 71.452 126.989 71.728 126.845 71.848C126.701 71.944 126.497 71.932 126.233 71.812ZM146.9 72.928C146.492 72.736 146.108 72.652 145.748 72.676C145.412 72.676 145.052 72.484 144.668 72.1C144.284 71.74 143.996 71.296 143.804 70.768C143.612 70.24 143.588 69.712 143.732 69.184C143.78 69.064 143.804 68.968 143.804 68.896C143.828 68.8 143.84 68.704 143.84 68.608C143.864 68.248 143.924 67.888 144.02 67.528C144.116 67.168 144.236 66.832 144.38 66.52C144.476 66.328 144.56 66.124 144.632 65.908C144.704 65.692 144.776 65.5 144.848 65.332C145.208 64.276 145.664 63.268 146.216 62.308C146.768 61.348 147.296 60.376 147.8 59.392C148.088 58.816 148.508 58.564 149.06 58.636C149.612 58.708 150.116 58.84 150.572 59.032C150.596 59.128 150.62 59.224 150.644 59.32C150.692 59.416 150.752 59.488 150.824 59.536C150.944 59.776 151.028 59.98 151.076 60.148C151.124 60.316 151.124 60.544 151.076 60.832C150.836 61.144 150.536 61.576 150.176 62.128C149.84 62.68 149.504 63.256 149.168 63.856C148.856 64.432 148.604 64.924 148.412 65.332C148.316 65.572 148.22 65.824 148.124 66.088C148.028 66.352 147.932 66.616 147.836 66.88C147.716 67.264 147.596 67.66 147.476 68.068C147.356 68.476 147.236 68.884 147.116 69.292C147.092 69.388 147.068 69.472 147.044 69.544C147.02 69.616 146.996 69.688 146.972 69.76C147.164 69.64 147.38 69.556 147.62 69.508C147.884 69.46 148.124 69.352 148.34 69.184C148.748 68.872 149.084 68.56 149.348 68.248C149.612 67.936 149.828 67.588 149.996 67.204C150.188 66.82 150.32 66.388 150.392 65.908C150.368 65.86 150.356 65.824 150.356 65.8C150.356 65.776 150.344 65.752 150.32 65.728C150.104 65.632 149.852 65.476 149.564 65.26C149.276 65.02 149.072 64.72 148.952 64.36C148.832 64 148.892 63.568 149.132 63.064C149.396 62.8 149.732 62.608 150.14 62.488C150.572 62.368 150.908 62.308 151.148 62.308C151.196 62.332 151.244 62.368 151.292 62.416C151.34 62.44 151.376 62.464 151.4 62.488C151.664 62.656 151.916 62.824 152.156 62.992C152.396 63.16 152.636 63.352 152.876 63.568C152.9 63.904 153.008 64.264 153.2 64.648C153.416 65.008 153.524 65.512 153.524 66.16C153.524 67.72 153.08 69.004 152.192 70.012C151.304 71.02 150.176 71.8 148.808 72.352C148.712 72.376 148.604 72.424 148.484 72.496C148.388 72.568 148.292 72.64 148.196 72.712C148.124 72.712 147.992 72.724 147.8 72.748C147.608 72.772 147.428 72.796 147.26 72.82C147.092 72.844 146.972 72.88 146.9 72.928Z" fill="#F15929"/>
</svg>
