<svg width="199" height="83" viewBox="0 0 199 83" fill="none" xmlns="http://www.w3.org/2000/svg">
<path d="M14.472 33.328C14.016 33.448 13.608 33.328 13.248 32.968C12.912 32.608 12.672 32.08 12.528 31.384C12.384 30.688 12.408 29.896 12.6 29.008C12.72 28.72 12.816 28.432 12.888 28.144C12.96 27.88 12.996 27.664 12.996 27.496C13.044 27.304 13.164 26.884 13.356 26.236C13.548 25.564 13.776 24.796 14.04 23.932C14.328 23.068 14.604 22.216 14.868 21.376C15.156 20.512 15.396 19.792 15.588 19.216C15.804 18.616 15.936 18.28 15.984 18.208C16.08 18.208 16.164 18.124 16.236 17.956C16.308 17.788 16.344 17.62 16.344 17.452C16.344 17.26 16.38 17.044 16.452 16.804C16.548 16.564 16.644 16.396 16.74 16.3C16.74 16.18 16.764 16.048 16.812 15.904C16.884 15.736 16.92 15.604 16.92 15.508C16.92 15.412 16.944 15.316 16.992 15.22C17.064 15.124 17.1 15.028 17.1 14.932C17.244 14.668 17.46 14.176 17.748 13.456C18.06 12.712 18.408 11.848 18.792 10.864C19.2 9.856 19.608 8.824 20.016 7.768C20.424 6.688 20.808 5.668 21.168 4.708C21.528 3.748 21.816 2.956 22.032 2.332C22.248 1.708 22.356 1.348 22.356 1.252C22.356 1.06 22.488 0.867998 22.752 0.675998C23.016 0.459999 23.244 0.352 23.436 0.352C23.508 0.279999 23.592 0.231999 23.688 0.207999C23.808 0.183998 23.916 0.171998 24.012 0.171998C24.012 0.171998 24.06 0.219998 24.156 0.315998C24.252 0.411998 24.396 0.555999 24.588 0.747999C24.78 0.915998 24.984 1.168 25.2 1.504C25.416 1.816 25.524 2.116 25.524 2.404C25.524 2.716 25.488 2.992 25.416 3.232C25.344 3.472 25.2 3.82 24.984 4.276C24.768 4.732 24.432 5.44 23.976 6.4C23.904 6.592 23.76 6.928 23.544 7.408C23.328 7.888 23.088 8.428 22.824 9.028C22.584 9.628 22.332 10.216 22.068 10.792C21.828 11.344 21.624 11.812 21.456 12.196C21.312 12.58 21.24 12.796 21.24 12.844C21.24 12.94 21.192 13.084 21.096 13.276C21.024 13.468 20.94 13.708 20.844 13.996C20.748 14.188 20.616 14.476 20.448 14.86C20.28 15.22 20.1 15.616 19.908 16.048C19.74 16.456 19.596 16.816 19.476 17.128C19.356 17.416 19.296 17.584 19.296 17.632C19.296 17.728 19.284 17.824 19.26 17.92C19.26 18.016 19.212 18.112 19.116 18.208C19.02 18.208 18.96 18.28 18.936 18.424C18.936 18.544 18.936 18.604 18.936 18.604C18.936 18.844 18.744 19.48 18.36 20.512C18.192 21.04 17.988 21.724 17.748 22.564C17.508 23.404 17.244 24.304 16.956 25.264C16.692 26.2 16.44 27.112 16.2 28C15.96 28.912 15.756 29.704 15.588 30.376C15.444 31.048 15.372 31.516 15.372 31.78C15.372 32.356 15.264 32.728 15.048 32.896C14.856 33.088 14.664 33.232 14.472 33.328ZM5.04 21.772C4.896 21.772 4.716 21.772 4.5 21.772C4.284 21.748 4.044 21.688 3.78 21.592C3.42 21.592 3.132 21.52 2.916 21.376C2.7 21.232 2.544 21.076 2.448 20.908C2.184 20.548 2.208 20.284 2.52 20.116C2.832 19.924 3.432 19.78 4.32 19.684C4.584 19.612 5.124 19.552 5.94 19.504C6.756 19.456 7.716 19.42 8.82 19.396C9.948 19.348 11.124 19.312 12.348 19.288C13.596 19.264 14.784 19.252 15.912 19.252C17.064 19.228 18.06 19.216 18.9 19.216C19.764 19.192 20.352 19.18 20.664 19.18C21.288 19.18 21.708 19.228 21.924 19.324C22.14 19.42 22.38 19.6 22.644 19.864C23.004 20.224 23.088 20.596 22.896 20.98C22.728 21.364 22.368 21.508 21.816 21.412C21.648 21.436 21.372 21.46 20.988 21.484C20.628 21.508 20.232 21.544 19.8 21.592C19.704 21.592 19.308 21.604 18.612 21.628C17.94 21.628 17.076 21.64 16.02 21.664C14.988 21.664 13.884 21.676 12.708 21.7C11.556 21.7 10.428 21.712 9.324 21.736C8.244 21.736 7.32 21.748 6.552 21.772C5.784 21.772 5.28 21.772 5.04 21.772ZM5.544 33.328C5.088 33.448 4.68 33.328 4.32 32.968C3.984 32.608 3.744 32.08 3.6 31.384C3.456 30.688 3.48 29.896 3.672 29.008C3.792 28.72 3.888 28.432 3.96 28.144C4.032 27.88 4.068 27.664 4.068 27.496C4.116 27.304 4.236 26.884 4.428 26.236C4.62 25.564 4.848 24.796 5.112 23.932C5.4 23.068 5.676 22.216 5.94 21.376C6.228 20.512 6.468 19.792 6.66 19.216C6.876 18.616 7.008 18.28 7.056 18.208C7.152 18.208 7.236 18.124 7.308 17.956C7.38 17.788 7.416 17.62 7.416 17.452C7.416 17.26 7.452 17.044 7.524 16.804C7.62 16.564 7.716 16.396 7.812 16.3C7.812 16.18 7.836 16.048 7.884 15.904C7.956 15.736 7.992 15.604 7.992 15.508C7.992 15.412 8.016 15.316 8.064 15.22C8.136 15.124 8.172 15.028 8.172 14.932C8.316 14.668 8.532 14.176 8.82 13.456C9.132 12.712 9.48 11.848 9.864 10.864C10.272 9.856 10.68 8.824 11.088 7.768C11.496 6.688 11.88 5.668 12.24 4.708C12.6 3.748 12.888 2.956 13.104 2.332C13.32 1.708 13.428 1.348 13.428 1.252C13.428 1.06 13.56 0.867998 13.824 0.675998C14.088 0.459999 14.316 0.352 14.508 0.352C14.58 0.279999 14.664 0.231999 14.76 0.207999C14.88 0.183998 14.988 0.171998 15.084 0.171998C15.084 0.171998 15.132 0.219998 15.228 0.315998C15.324 0.411998 15.468 0.555999 15.66 0.747999C15.852 0.915998 16.056 1.168 16.272 1.504C16.488 1.816 16.596 2.116 16.596 2.404C16.596 2.716 16.56 2.992 16.488 3.232C16.416 3.472 16.272 3.82 16.056 4.276C15.84 4.732 15.504 5.44 15.048 6.4C14.976 6.592 14.832 6.928 14.616 7.408C14.4 7.888 14.16 8.428 13.896 9.028C13.656 9.628 13.404 10.216 13.14 10.792C12.9 11.344 12.696 11.812 12.528 12.196C12.384 12.58 12.312 12.796 12.312 12.844C12.312 12.94 12.264 13.084 12.168 13.276C12.096 13.468 12.012 13.708 11.916 13.996C11.82 14.188 11.688 14.476 11.52 14.86C11.352 15.22 11.172 15.616 10.98 16.048C10.812 16.456 10.668 16.816 10.548 17.128C10.428 17.416 10.368 17.584 10.368 17.632C10.368 17.728 10.356 17.824 10.332 17.92C10.332 18.016 10.284 18.112 10.188 18.208C10.092 18.208 10.032 18.28 10.008 18.424C10.008 18.544 10.008 18.604 10.008 18.604C10.008 18.844 9.816 19.48 9.432 20.512C9.264 21.04 9.06 21.724 8.82 22.564C8.58 23.404 8.316 24.304 8.028 25.264C7.764 26.2 7.512 27.112 7.272 28C7.032 28.912 6.828 29.704 6.66 30.376C6.516 31.048 6.444 31.516 6.444 31.78C6.444 32.356 6.336 32.728 6.12 32.896C5.928 33.088 5.736 33.232 5.544 33.328ZM7.236 14.536C7.092 14.536 6.912 14.536 6.696 14.536C6.48 14.512 6.24 14.452 5.976 14.356C5.616 14.356 5.328 14.296 5.112 14.176C4.92 14.032 4.776 13.876 4.68 13.708C4.416 13.348 4.428 13.072 4.716 12.88C5.028 12.688 5.628 12.544 6.516 12.448C6.78 12.376 7.32 12.316 8.136 12.268C8.952 12.22 9.924 12.184 11.052 12.16C12.18 12.112 13.356 12.076 14.58 12.052C15.828 12.028 17.016 12.016 18.144 12.016C19.296 11.992 20.292 11.98 21.132 11.98C21.996 11.956 22.584 11.944 22.896 11.944C23.52 11.944 23.94 11.992 24.156 12.088C24.372 12.184 24.612 12.364 24.876 12.628C25.236 12.988 25.32 13.36 25.128 13.744C24.936 14.128 24.564 14.272 24.012 14.176C23.844 14.2 23.58 14.224 23.22 14.248C22.86 14.272 22.464 14.308 22.032 14.356C21.936 14.356 21.54 14.368 20.844 14.392C20.172 14.392 19.308 14.404 18.252 14.428C17.22 14.428 16.116 14.44 14.94 14.464C13.764 14.464 12.624 14.476 11.52 14.5C10.44 14.5 9.516 14.512 8.748 14.536C7.98 14.536 7.476 14.536 7.236 14.536ZM44.4094 29.728C44.3134 29.824 44.0854 29.848 43.7254 29.8C43.3654 29.776 43.0774 29.608 42.8614 29.296C42.6934 28.96 42.5974 28.576 42.5734 28.144C42.5494 27.712 42.5494 27.112 42.5734 26.344C42.7174 25.504 42.9574 24.4 43.2934 23.032C43.6294 21.664 44.0014 20.14 44.4094 18.46C44.8414 16.756 45.2734 15.016 45.7054 13.24C45.9214 12.4 46.0894 11.692 46.2094 11.116C46.3534 10.54 46.4494 10.108 46.4974 9.82C46.5694 9.508 46.6054 9.352 46.6054 9.352C46.5814 9.4 46.5454 9.448 46.4974 9.496C46.4734 9.544 46.4494 9.592 46.4254 9.64C46.4014 9.688 46.3774 9.736 46.3534 9.784C46.3534 9.784 46.3054 9.868 46.2094 10.036C46.1374 10.204 45.9694 10.492 45.7054 10.9C45.5134 11.188 45.3334 11.524 45.1654 11.908C44.9974 12.292 44.7094 12.796 44.3014 13.42C43.9174 14.14 43.4854 14.968 43.0054 15.904C42.5254 16.84 42.1174 17.584 41.7814 18.136C41.6134 18.4 41.4574 18.628 41.3134 18.82C41.1934 19.012 41.1094 19.168 41.0614 19.288C40.9654 19.552 40.8094 19.876 40.5934 20.26C40.3774 20.644 40.1254 21.016 39.8374 21.376C39.6934 21.592 39.5014 21.844 39.2614 22.132C39.0454 22.42 38.8534 22.684 38.6854 22.924C38.5174 23.14 38.4334 23.248 38.4334 23.248C38.3854 23.392 38.2294 23.62 37.9654 23.932C37.7014 24.244 37.3774 24.592 36.9934 24.976C36.6334 25.336 36.2614 25.672 35.8774 25.984C35.0374 26.656 34.3414 27.076 33.7894 27.244C33.2614 27.412 32.6494 27.208 31.9534 26.632C31.6414 26.248 31.3894 25.864 31.1974 25.48C31.0054 25.072 30.9094 24.52 30.9094 23.824C30.9094 23.128 31.0294 22.156 31.2694 20.908C31.4374 20.116 31.6174 19.276 31.8094 18.388C32.0254 17.5 32.2414 16.648 32.4574 15.832C32.6734 14.992 32.8654 14.272 33.0334 13.672C33.2254 13.048 33.3574 12.616 33.4294 12.376C33.5014 11.776 33.5134 11.464 33.4654 11.44C33.4174 11.392 33.2974 11.524 33.1054 11.836C32.9374 12.1 32.6254 12.652 32.1694 13.492C31.7134 14.332 31.1974 15.316 30.6214 16.444C30.0694 17.572 29.5294 18.7 29.0014 19.828C28.0174 21.652 27.1894 23.176 26.5174 24.4C25.8454 25.624 25.2934 26.608 24.8614 27.352C24.4294 28.072 24.0934 28.612 23.8534 28.972C23.6374 29.356 23.4694 29.62 23.3494 29.764C23.2534 29.932 23.1814 30.04 23.1334 30.088C22.7734 30.064 22.4614 29.896 22.1974 29.584C21.9334 29.272 21.7174 28.9 21.5494 28.468C21.5014 28.228 21.4654 27.976 21.4414 27.712C21.4174 27.448 21.4414 27.16 21.5134 26.848C21.6094 26.512 21.7534 26.152 21.9454 25.768C22.2574 25.144 22.5574 24.616 22.8454 24.184C23.1334 23.752 23.3134 23.488 23.3854 23.392C23.5054 23.224 23.6014 23.044 23.6734 22.852C23.7454 22.66 23.7934 22.48 23.8174 22.312C23.9374 22.168 24.1174 21.868 24.3574 21.412C24.6214 20.956 24.8854 20.464 25.1494 19.936C25.3414 19.624 25.6054 19.192 25.9414 18.64C26.2774 18.064 26.6374 17.452 27.0214 16.804C27.4054 16.132 27.7414 15.52 28.0294 14.968C29.0854 13.072 29.9254 11.56 30.5494 10.432C31.1734 9.28 31.6174 8.548 31.8814 8.236C32.0494 8.116 32.1934 7.888 32.3134 7.552C32.4574 7.192 32.5774 6.928 32.6734 6.76C33.0094 6.088 33.3454 5.536 33.6814 5.104C34.0414 4.648 34.3534 4.42 34.6174 4.42C34.8094 4.42 35.0494 4.492 35.3374 4.636C35.6494 4.78 35.9494 4.984 36.2374 5.248C36.5014 5.56 36.7414 5.98 36.9574 6.508C37.1974 7.012 37.2454 7.684 37.1014 8.524C37.0774 8.908 37.0174 9.376 36.9214 9.928C36.8254 10.456 36.7294 10.984 36.6334 11.512C36.5374 12.04 36.4414 12.484 36.3454 12.844C36.1534 13.924 35.9374 14.956 35.6974 15.94C35.4814 16.9 35.2774 17.788 35.0854 18.604C34.8934 19.42 34.7374 20.14 34.6174 20.764C34.4974 21.364 34.4134 21.856 34.3654 22.24C34.3414 22.624 34.3894 22.876 34.5094 22.996C34.5814 23.02 34.6774 22.996 34.7974 22.924C34.9414 22.828 35.0494 22.732 35.1214 22.636C35.2654 22.444 35.3974 22.252 35.5174 22.06C35.6374 21.868 35.7934 21.628 35.9854 21.34C36.3694 20.812 36.7654 20.236 37.1734 19.612C37.6054 18.964 38.1094 18.172 38.6854 17.236C39.2854 16.276 39.9934 15.1 40.8094 13.708C41.6254 12.292 42.6214 10.54 43.7974 8.452C44.3494 7.612 44.8774 6.772 45.3814 5.932C45.8854 5.092 46.3414 4.444 46.7494 3.988C47.1094 3.604 47.5534 3.472 48.0814 3.592C48.6334 3.712 49.1374 4.012 49.5934 4.492C50.0494 4.972 50.3014 5.56 50.3494 6.256C50.3734 6.592 50.3014 7.192 50.1334 8.056C49.9894 8.896 49.7854 9.844 49.5214 10.9C49.2574 11.956 48.9574 12.988 48.6214 13.996C48.5494 14.404 48.4294 14.944 48.2614 15.616C48.0934 16.288 47.9134 16.972 47.7214 17.668C47.5294 18.364 47.3494 18.988 47.1814 19.54C47.0134 20.356 46.8694 21.004 46.7494 21.484C46.6534 21.964 46.6054 22.516 46.6054 23.14C46.3894 23.524 46.2454 24.076 46.1734 24.796C46.1014 25.516 46.0654 26.26 46.0654 27.028C45.9694 27.964 45.7654 28.624 45.4534 29.008C45.1654 29.392 44.9734 29.572 44.8774 29.548C44.6854 29.476 44.5294 29.536 44.4094 29.728ZM52.3839 27.748C52.0719 27.748 51.8199 27.688 51.6279 27.568C51.4599 27.448 51.2439 27.28 50.9799 27.064C50.5239 26.584 50.1519 26.068 49.8639 25.516C49.5999 24.964 49.5039 24.484 49.5759 24.076C49.6479 23.884 49.6719 23.704 49.6479 23.536C49.6479 23.344 49.6479 23.248 49.6479 23.248C49.5279 23.128 49.4919 23.056 49.5399 23.032C49.5879 22.984 49.6359 22.912 49.6839 22.816C49.8279 22.816 49.8759 22.684 49.8279 22.42C49.7799 22.228 49.8519 21.82 50.0439 21.196C50.2599 20.548 50.5479 19.936 50.9079 19.36C51.0519 19.12 51.2679 18.808 51.5559 18.424C51.8439 18.016 52.1559 17.62 52.4919 17.236C52.8519 16.828 53.1759 16.504 53.4639 16.264C54.0639 15.76 54.6159 15.352 55.1199 15.04C55.6479 14.728 56.1759 14.512 56.7039 14.392C57.2319 14.272 57.7719 14.212 58.3239 14.212C58.8999 14.212 59.3679 14.404 59.7279 14.788C60.2799 15.028 60.6639 15.352 60.8799 15.76C61.1199 16.168 61.2759 16.696 61.3479 17.344C61.4199 18.064 61.3479 18.952 61.1319 20.008C60.9159 21.04 60.3279 22.24 59.3679 23.608C58.7679 24.472 58.1799 25.144 57.6039 25.624C57.0279 26.104 56.3919 26.548 55.6959 26.956C55.1919 27.292 54.6519 27.496 54.0759 27.568C53.4999 27.64 52.9359 27.7 52.3839 27.748ZM56.0559 23.356C56.5839 22.9 56.9559 22.396 57.1719 21.844C57.4119 21.292 57.6639 20.644 57.9279 19.9C58.0239 19.756 58.0839 19.516 58.1079 19.18C58.1559 18.844 58.1679 18.52 58.1439 18.208C58.1199 17.872 58.0359 17.68 57.8919 17.632C57.6759 17.464 57.4599 17.428 57.2439 17.524C57.0279 17.596 56.7519 17.752 56.4159 17.992C55.6959 18.592 55.0239 19.288 54.3999 20.08C53.7999 20.848 53.3799 21.796 53.1399 22.924C53.0679 23.524 53.1279 23.98 53.3199 24.292C53.5359 24.58 53.8719 24.664 54.3279 24.544C54.8079 24.4 55.3839 24.004 56.0559 23.356ZM64.6709 26.812C64.2149 26.62 63.8429 26.332 63.5549 25.948C63.2909 25.54 63.1589 25.048 63.1589 24.472C63.1589 24.232 63.2069 23.824 63.3029 23.248C63.3989 22.672 63.5309 22.024 63.6989 21.304C63.8669 20.584 64.0349 19.912 64.2029 19.288C64.4429 18.856 64.5989 18.424 64.6709 17.992C64.7669 17.56 64.8149 17.296 64.8149 17.2C64.8629 16.912 64.9469 16.528 65.0669 16.048C65.1869 15.568 65.3069 15.136 65.4269 14.752C65.5709 14.344 65.6669 14.116 65.7149 14.068C65.8349 13.948 66.0389 13.876 66.3269 13.852C66.6149 13.828 66.9029 13.864 67.1909 13.96C67.4789 14.032 67.6709 14.188 67.7669 14.428C68.0309 14.716 68.1749 15.148 68.1989 15.724C68.2469 16.3 68.1389 16.972 67.8749 17.74C67.6589 18.22 67.4429 18.784 67.2269 19.432C67.0109 20.08 66.8189 20.68 66.6509 21.232C66.5069 21.76 66.4229 22.12 66.3989 22.312L65.1029 22.276C65.5109 21.892 65.8949 21.496 66.2549 21.088C66.6149 20.656 66.8789 20.32 67.0469 20.08C67.4549 19.528 67.8029 19.072 68.0909 18.712C68.4029 18.328 68.7989 17.872 69.2789 17.344C69.7589 16.792 70.2749 16.408 70.8269 16.192C71.3789 15.952 71.7869 15.832 72.0509 15.832C72.5789 15.928 73.0469 16.204 73.4549 16.66C73.8869 17.092 74.1509 17.74 74.2469 18.604C74.2469 18.94 74.2109 19.336 74.1389 19.792C74.0909 20.248 74.0669 20.476 74.0669 20.476C74.0669 20.476 74.2589 20.236 74.6429 19.756C75.0509 19.276 75.5909 18.736 76.2629 18.136C76.7189 17.8 77.1629 17.608 77.5949 17.56C78.0269 17.488 78.4109 17.632 78.7469 17.992C79.3709 18.328 79.8269 18.916 80.1149 19.756C80.4029 20.596 80.4989 21.544 80.4029 22.6C80.3309 23.224 80.3309 23.728 80.4029 24.112C80.4989 24.472 80.5949 24.796 80.6909 25.084C81.0029 25.516 81.0509 25.9 80.8349 26.236C80.6189 26.548 80.4269 26.704 80.2589 26.704C80.0189 26.704 79.6589 26.656 79.1789 26.56C78.6989 26.464 78.2549 26.296 77.8469 26.056C77.4629 25.816 77.2709 25.492 77.2709 25.084V22.852C77.2709 22.324 77.2469 21.94 77.1989 21.7C77.1749 21.436 77.1149 21.268 77.0189 21.196C76.7549 21.052 76.4309 21.16 76.0469 21.52C75.6629 21.88 75.2429 22.396 74.7869 23.068C74.3549 23.716 73.8869 24.448 73.3829 25.264C72.9269 26.008 72.5549 26.464 72.2669 26.632C71.9789 26.776 71.7029 26.764 71.4389 26.596C70.9109 26.428 70.5749 26.2 70.4309 25.912C70.3109 25.6 70.2989 25.252 70.3949 24.868C70.5149 24.46 70.6589 23.932 70.8269 23.284C71.0189 22.636 71.1989 22.012 71.3669 21.412C71.5349 20.788 71.6429 20.332 71.6909 20.044C71.5949 19.852 71.4269 19.792 71.1869 19.864C70.9709 19.912 70.7429 20.02 70.5029 20.188C70.2149 20.38 69.9029 20.584 69.5669 20.8C69.2549 21.016 68.8829 21.472 68.4509 22.168C68.1629 22.624 67.8389 23.128 67.4789 23.68C67.1189 24.208 66.7829 24.688 66.4709 25.12C66.1829 25.552 65.9429 25.852 65.7509 26.02C65.5829 26.452 65.4269 26.728 65.2829 26.848C65.1389 26.944 64.9349 26.932 64.6709 26.812ZM93.0772 28.108C92.3332 27.844 91.7212 27.376 91.2412 26.704C90.7852 26.008 90.4612 25.288 90.2692 24.544C90.1732 24.64 90.0772 24.736 89.9812 24.832C89.9092 24.904 89.8132 25 89.6932 25.12C89.3332 25.504 88.9132 25.9 88.4332 26.308C87.9532 26.716 87.4612 27.064 86.9572 27.352C86.4532 27.616 85.9492 27.724 85.4452 27.676C85.0612 27.412 84.6892 27.16 84.3292 26.92C83.9932 26.656 83.7292 26.296 83.5372 25.84C83.5372 25.816 83.5252 25.804 83.5012 25.804C83.5012 25.804 83.5012 25.792 83.5012 25.768C83.3092 25.216 83.1652 24.724 83.0692 24.292C82.9972 23.836 83.0212 23.236 83.1412 22.492C83.2852 21.748 83.5612 20.692 83.9692 19.324C84.1372 18.748 84.3172 18.172 84.5092 17.596C84.7012 16.996 84.8932 16.456 85.0852 15.976C85.2772 15.472 85.4572 15.052 85.6252 14.716C85.7932 14.38 85.9492 14.164 86.0932 14.068C86.2132 14.068 86.3212 14.068 86.4172 14.068C86.5132 14.044 86.6092 14.032 86.7052 14.032C86.9212 14.032 87.1852 14.152 87.4972 14.392C87.6892 14.512 87.8692 14.644 88.0372 14.788C88.2292 14.932 88.3492 15.064 88.3972 15.184C88.5412 15.448 88.4932 15.976 88.2532 16.768C88.0132 17.56 87.7252 18.424 87.3892 19.36C87.0772 20.272 86.7892 21.172 86.5252 22.06C86.2852 22.924 86.2132 23.596 86.3092 24.076C86.5732 24.004 86.8132 23.92 87.0292 23.824C87.2692 23.704 87.4852 23.56 87.6772 23.392C88.0852 23.104 88.4572 22.768 88.7932 22.384C89.1292 22 89.4172 21.604 89.6572 21.196C89.9212 20.764 90.1252 20.368 90.2692 20.008C90.4852 19.456 90.6772 18.976 90.8452 18.568C91.0132 18.136 91.1452 17.776 91.2412 17.488C91.3372 17.176 91.3972 16.912 91.4212 16.696C91.4692 16.48 91.4932 16.288 91.4932 16.12C91.4692 15.688 91.5172 15.376 91.6372 15.184C91.7812 14.968 92.0452 14.752 92.4292 14.536C92.6212 14.536 92.8132 14.548 93.0052 14.572C93.1972 14.572 93.3772 14.584 93.5452 14.608C93.7372 14.776 93.9292 14.968 94.1212 15.184C94.3372 15.376 94.5412 15.568 94.7332 15.76C94.9252 16.312 94.9012 16.972 94.6612 17.74C94.4452 18.484 94.2052 19.264 93.9412 20.08C93.6772 20.92 93.4612 21.76 93.2932 22.6C93.1492 23.416 93.2692 24.136 93.6532 24.76C94.0132 24.592 94.3492 24.4 94.6612 24.184C94.9732 23.944 95.2852 23.704 95.5972 23.464C95.9092 23.224 96.2212 23.008 96.5332 22.816C96.9172 23.056 97.2172 23.476 97.4332 24.076C97.6492 24.676 97.7572 25.192 97.7572 25.624C97.6852 25.72 97.6012 25.804 97.5052 25.876C97.4332 25.948 97.3492 26.02 97.2532 26.092C97.0612 26.452 96.7132 26.824 96.2092 27.208C95.7052 27.568 95.1652 27.844 94.5892 28.036C94.0132 28.228 93.5092 28.252 93.0772 28.108ZM101.115 23.032C101.019 22.648 101.019 22.18 101.115 21.628C101.211 21.076 101.319 20.512 101.439 19.936C101.583 19.36 101.679 18.868 101.727 18.46C101.607 18.388 101.487 18.28 101.367 18.136C101.247 17.992 101.127 17.872 101.007 17.776C101.079 17.272 101.175 16.876 101.295 16.588C101.415 16.3 101.727 16.036 102.231 15.796H102.555C102.579 15.772 102.591 15.748 102.591 15.724C102.615 15.676 102.639 15.64 102.663 15.616C102.855 15.28 103.035 14.884 103.203 14.428C103.371 13.972 103.503 13.552 103.599 13.168C103.815 12.496 104.079 11.896 104.391 11.368C104.703 10.816 105.015 10.252 105.327 9.676C105.375 9.604 105.411 9.532 105.435 9.46C105.483 9.388 105.519 9.304 105.543 9.208C105.807 8.704 106.143 8.188 106.551 7.66C106.983 7.132 107.427 6.64 107.883 6.184C108.363 5.728 108.807 5.368 109.215 5.104C109.695 4.816 110.115 4.648 110.475 4.6C110.835 4.528 111.279 4.48 111.807 4.456C112.239 4.696 112.647 5.032 113.031 5.464C113.439 5.896 113.643 6.388 113.643 6.94C113.643 7.18 113.643 7.42 113.643 7.66C113.643 7.876 113.583 8.104 113.463 8.344C113.463 8.536 113.427 8.716 113.355 8.884C113.307 9.052 113.259 9.22 113.211 9.388C113.187 9.508 113.139 9.64 113.067 9.784C113.019 9.904 112.995 10.036 112.995 10.18C112.587 11.044 112.203 11.776 111.843 12.376C111.507 12.976 111.147 13.516 110.763 13.996C110.379 14.452 109.923 14.92 109.395 15.4C108.891 15.856 108.279 16.384 107.559 16.984C108.039 17.32 108.327 17.656 108.423 17.992C108.543 18.328 108.615 18.736 108.639 19.216C108.663 19.384 108.675 19.588 108.675 19.828C108.675 20.044 108.687 20.284 108.711 20.548C108.735 20.764 108.747 20.98 108.747 21.196C108.771 21.412 108.783 21.616 108.783 21.808C108.783 21.976 108.771 22.156 108.747 22.348C108.747 22.516 108.735 22.696 108.711 22.888C108.711 22.936 108.711 22.996 108.711 23.068C108.711 23.14 108.699 23.2 108.675 23.248C108.627 23.632 108.543 24.016 108.423 24.4C108.303 24.784 108.147 25.18 107.955 25.588C107.931 25.66 107.895 25.732 107.847 25.804C107.799 25.876 107.751 25.936 107.703 25.984C107.247 26.656 106.719 27.148 106.119 27.46C105.543 27.748 104.835 27.976 103.995 28.144L103.419 28.072C103.179 27.88 102.999 27.784 102.879 27.784C102.783 27.76 102.579 27.724 102.267 27.676C102.171 27.1 101.967 26.62 101.655 26.236C101.367 25.852 101.223 25.36 101.223 24.76C101.223 24.712 101.211 24.652 101.187 24.58C101.163 24.508 101.127 24.436 101.079 24.364C101.031 24.316 100.983 24.268 100.935 24.22C100.887 24.148 100.839 24.088 100.791 24.04C100.839 23.992 100.887 23.956 100.935 23.932C101.007 23.884 101.067 23.848 101.115 23.824C101.067 23.68 101.031 23.548 101.007 23.428C100.983 23.308 101.019 23.176 101.115 23.032ZM104.499 25.264C105.195 24.904 105.651 24.436 105.867 23.86C106.107 23.284 106.215 22.648 106.191 21.952C106.167 21.256 106.083 20.536 105.939 19.792C105.915 19.648 105.891 19.492 105.867 19.324C105.843 19.156 105.831 19.012 105.831 18.892C105.807 18.772 105.699 18.652 105.507 18.532C105.339 18.388 105.219 18.268 105.147 18.172C105.051 18.244 104.955 18.364 104.859 18.532C104.787 18.7 104.715 18.904 104.643 19.144C104.523 19.576 104.415 20.08 104.319 20.656C104.247 21.232 104.199 21.808 104.175 22.384C104.175 22.936 104.187 23.44 104.211 23.896C104.259 24.328 104.331 24.64 104.427 24.832L104.499 25.264ZM108.567 9.46C108.063 10.204 107.583 11.044 107.127 11.98C106.671 12.892 106.239 13.9 105.831 15.004L105.903 14.968L107.631 13.96C108.063 13.624 108.435 13.312 108.747 13.024C109.083 12.712 109.371 12.4 109.611 12.088C109.851 11.776 110.055 11.464 110.223 11.152C110.391 10.84 110.511 10.504 110.583 10.144C110.679 9.784 110.727 9.424 110.727 9.064C110.727 8.704 110.691 8.368 110.619 8.056C110.571 7.744 110.487 7.468 110.367 7.228L110.331 7.156C110.019 7.492 109.707 7.852 109.395 8.236C109.107 8.62 108.831 9.028 108.567 9.46ZM121.639 28.612C121.207 28.66 120.823 28.564 120.487 28.324C120.151 28.084 119.887 27.82 119.695 27.532C119.455 27.148 119.275 26.704 119.155 26.2C119.035 25.672 118.975 25.18 118.975 24.724C118.975 24.7 118.963 24.676 118.939 24.652C118.939 24.628 118.939 24.616 118.939 24.616C118.939 24.592 118.927 24.592 118.903 24.616C118.615 24.928 118.195 25.312 117.643 25.768C117.115 26.2 116.551 26.584 115.951 26.92C115.375 27.232 114.859 27.376 114.403 27.352C114.115 27.328 113.827 27.196 113.539 26.956C113.275 26.692 113.035 26.392 112.819 26.056C112.603 25.72 112.459 25.42 112.387 25.156C112.291 24.772 112.315 24.148 112.459 23.284C112.603 22.396 112.819 21.412 113.107 20.332C113.419 19.228 113.779 18.172 114.187 17.164C114.595 16.132 115.015 15.292 115.447 14.644C115.903 13.972 116.335 13.636 116.743 13.636C117.103 13.636 117.415 13.828 117.679 14.212C117.943 14.572 118.135 14.896 118.255 15.184C118.399 15.544 118.471 15.796 118.471 15.94C118.471 16.06 118.339 16.264 118.075 16.552C117.835 16.792 117.583 17.188 117.319 17.74C117.055 18.268 116.791 18.868 116.527 19.54C116.263 20.188 116.023 20.8 115.807 21.376C115.615 21.952 115.459 22.408 115.339 22.744C115.291 23.008 115.243 23.212 115.195 23.356C115.147 23.5 115.111 23.668 115.087 23.86C115.135 23.86 115.183 23.86 115.231 23.86C115.303 23.836 115.363 23.812 115.411 23.788C115.867 23.62 116.335 23.284 116.815 22.78C117.319 22.276 117.811 21.676 118.291 20.98C118.771 20.26 119.227 19.528 119.659 18.784C120.115 18.016 120.547 17.308 120.955 16.66C121.363 15.988 121.723 15.448 122.035 15.04C122.371 14.608 122.647 14.392 122.863 14.392C123.103 14.368 123.391 14.428 123.727 14.572C124.063 14.692 124.339 14.872 124.555 15.112C124.795 15.328 124.891 15.58 124.843 15.868C124.747 16.42 124.495 17.128 124.087 17.992C123.679 18.832 123.259 19.756 122.827 20.764C122.419 21.772 122.119 22.816 121.927 23.896C121.831 24.448 121.867 24.94 122.035 25.372C122.203 25.78 122.455 26.188 122.791 26.596C123.175 27.052 123.199 27.496 122.863 27.928C122.551 28.336 122.143 28.564 121.639 28.612ZM125.476 36.748C125.308 36.676 125.044 36.496 124.684 36.208C124.348 35.92 124.036 35.608 123.748 35.272C123.484 34.96 123.352 34.732 123.352 34.588C123.352 34.444 123.412 34.06 123.532 33.436C123.652 32.836 123.808 32.092 124 31.204C124.216 30.34 124.444 29.452 124.684 28.54C124.948 27.652 125.212 26.86 125.476 26.164C125.524 26.044 125.68 25.648 125.944 24.976C126.232 24.28 126.508 23.44 126.772 22.456C126.964 21.832 127.216 21.124 127.528 20.332C127.84 19.54 128.164 18.748 128.5 17.956C128.836 17.14 129.112 16.42 129.328 15.796C129.544 15.172 129.784 14.548 130.048 13.924C130.312 13.276 130.456 12.904 130.48 12.808C130.528 12.664 130.66 12.544 130.876 12.448C131.116 12.328 131.356 12.232 131.596 12.16C131.836 12.064 131.992 12.004 132.064 11.98C132.496 11.86 132.868 12.04 133.18 12.52C133.3 12.736 133.324 13.036 133.252 13.42C133.204 13.78 133.084 14.176 132.892 14.608L132.64 15.328L133.936 15.04C134.152 15.04 134.452 15.052 134.836 15.076C135.22 15.1 135.592 15.124 135.952 15.148C136.336 15.172 136.6 15.208 136.744 15.256C137.32 15.28 137.716 15.388 137.932 15.58C138.172 15.772 138.376 16.024 138.544 16.336C138.664 16.456 138.808 16.624 138.976 16.84C139.144 17.032 139.24 17.224 139.264 17.416C139.36 17.824 139.324 18.304 139.156 18.856C139.012 19.408 138.784 19.972 138.472 20.548C138.184 21.1 137.836 21.616 137.428 22.096C137.044 22.552 136.672 22.9 136.312 23.14C136.072 23.236 135.856 23.344 135.664 23.464C135.472 23.56 135.376 23.608 135.376 23.608C135.352 23.728 135.1 23.932 134.62 24.22C134.164 24.508 133.624 24.784 133 25.048C132.4 25.288 131.86 25.444 131.38 25.516C131.212 25.54 130.972 25.564 130.66 25.588C130.348 25.612 130.108 25.576 129.94 25.48C129.676 25.432 129.496 25.408 129.4 25.408C129.304 25.408 129.256 25.456 129.256 25.552C129.232 25.6 129.064 25.984 128.752 26.704C128.44 27.424 128.116 28.42 127.78 29.692C127.324 31.084 126.952 32.224 126.664 33.112C126.376 34.024 126.148 34.732 125.98 35.236C125.836 35.74 125.728 36.1 125.656 36.316C125.584 36.556 125.524 36.7 125.476 36.748ZM130.12 22.384C130.192 22.528 130.444 22.576 130.876 22.528C131.308 22.456 131.8 22.312 132.352 22.096C132.904 21.88 133.396 21.628 133.828 21.34C134.284 21.028 134.548 20.704 134.62 20.368C135.148 19.768 135.52 19.336 135.736 19.072C135.952 18.784 135.94 18.556 135.7 18.388C135.436 18.004 135.052 17.824 134.548 17.848C134.068 17.872 133.3 18.172 132.244 18.748C131.836 18.892 131.56 19.024 131.416 19.144C131.272 19.24 131.152 19.396 131.056 19.612C130.984 19.828 130.84 20.176 130.624 20.656C130.408 21.184 130.264 21.58 130.192 21.844C130.12 22.108 130.096 22.288 130.12 22.384ZM140.627 35.488C139.763 35.656 138.935 35.68 138.143 35.56C137.351 35.464 136.691 35.26 136.163 34.948C135.611 34.636 135.275 34.288 135.155 33.904C135.011 33.352 135.083 32.944 135.371 32.68C135.659 32.416 136.007 32.26 136.415 32.212C136.799 32.164 137.051 32.212 137.171 32.356C137.363 32.476 137.663 32.656 138.071 32.896C138.503 33.136 139.031 33.196 139.655 33.076C140.207 32.956 140.699 32.692 141.131 32.284C141.563 31.876 141.947 31.444 142.283 30.988C142.475 30.7 142.799 30.184 143.255 29.44C143.711 28.696 144.179 27.88 144.659 26.992C145.163 26.08 145.583 25.24 145.919 24.472C145.991 24.28 146.075 24.052 146.171 23.788C146.267 23.524 146.387 23.308 146.531 23.14C146.675 22.852 146.795 22.588 146.891 22.348C147.011 22.084 147.083 21.904 147.107 21.808C147.131 21.688 147.239 21.448 147.431 21.088C147.623 20.728 147.803 20.368 147.971 20.008C148.091 19.648 148.271 19.12 148.511 18.424C148.751 17.728 148.991 17.164 149.231 16.732C149.519 16.18 149.747 15.736 149.915 15.4C150.107 15.04 150.311 14.824 150.527 14.752C150.743 14.584 150.947 14.5 151.139 14.5C151.331 14.5 151.559 14.572 151.823 14.716C152.111 15.004 152.339 15.292 152.507 15.58C152.699 15.844 152.771 16.18 152.723 16.588C152.699 16.972 152.507 17.5 152.147 18.172C151.955 18.748 151.739 19.276 151.499 19.756C151.283 20.212 151.115 20.512 150.995 20.656C150.875 20.944 150.731 21.268 150.563 21.628C150.419 21.964 150.287 22.276 150.167 22.564C149.735 23.524 149.363 24.304 149.051 24.904C148.739 25.504 148.463 26.056 148.223 26.56C147.983 27.064 147.731 27.652 147.467 28.324C146.915 29.212 146.375 30.052 145.847 30.844C145.343 31.66 144.803 32.416 144.227 33.112C143.987 33.328 143.639 33.604 143.183 33.94C142.751 34.3 142.295 34.624 141.815 34.912C141.359 35.224 140.963 35.416 140.627 35.488ZM145.127 27.352C144.767 27.304 144.371 27.064 143.939 26.632C143.531 26.2 143.183 25.744 142.895 25.264C142.631 24.784 142.523 24.448 142.571 24.256C142.571 24.136 142.571 24.04 142.571 23.968C142.571 23.896 142.571 23.86 142.571 23.86C142.427 23.86 142.307 23.656 142.211 23.248C142.139 22.816 142.079 22.276 142.031 21.628C142.007 20.98 141.995 20.308 141.995 19.612C142.019 18.916 142.055 18.28 142.103 17.704C142.199 17.296 142.247 16.852 142.247 16.372C142.247 15.868 142.259 15.472 142.283 15.184C142.259 14.8 142.331 14.488 142.499 14.248C142.691 14.008 142.835 13.852 142.931 13.78C143.819 13.396 144.467 13.6 144.875 14.392C145.283 15.184 145.427 16.444 145.307 18.172C145.259 19.132 145.235 20.056 145.235 20.944C145.235 21.808 145.319 22.552 145.487 23.176C145.655 23.8 145.943 24.244 146.351 24.508C146.519 24.604 146.579 24.808 146.531 25.12C146.483 25.432 146.375 25.768 146.207 26.128C146.039 26.464 145.847 26.764 145.631 27.028C145.439 27.268 145.271 27.376 145.127 27.352ZM161.869 28.216C161.701 28.312 161.473 28.276 161.185 28.108C160.921 27.94 160.657 27.688 160.393 27.352C160.225 27.064 160.093 26.776 159.997 26.488C159.925 26.176 159.889 25.72 159.889 25.12C159.913 24.64 159.913 24.316 159.889 24.148C159.889 23.956 159.781 23.944 159.565 24.112C159.373 24.256 158.977 24.616 158.377 25.192C157.777 25.792 157.201 26.308 156.649 26.74C156.121 27.148 155.689 27.34 155.353 27.316C155.185 27.316 154.957 27.208 154.669 26.992C154.381 26.776 154.105 26.512 153.841 26.2C153.577 25.864 153.385 25.552 153.265 25.264C153.121 24.688 153.109 23.944 153.229 23.032C153.373 22.12 153.601 21.172 153.913 20.188C154.225 19.18 154.573 18.244 154.957 17.38C155.365 16.492 155.761 15.784 156.145 15.256C156.553 14.704 156.901 14.44 157.189 14.464C157.597 14.512 157.945 14.716 158.233 15.076C158.545 15.412 158.785 15.784 158.953 16.192C159.049 16.36 159.085 16.504 159.061 16.624C159.061 16.744 158.965 16.888 158.773 17.056C158.557 17.344 158.293 17.764 157.981 18.316C157.693 18.844 157.393 19.42 157.081 20.044C156.793 20.668 156.529 21.268 156.289 21.844C156.073 22.396 155.917 22.852 155.821 23.212C155.725 23.572 155.725 23.752 155.821 23.752C156.157 23.752 156.469 23.668 156.757 23.5C157.045 23.308 157.405 23.008 157.837 22.6C158.341 22.096 158.785 21.592 159.169 21.088C159.553 20.56 159.949 19.96 160.357 19.288C160.669 18.808 160.993 18.28 161.329 17.704C161.689 17.128 161.917 16.72 162.013 16.48C162.349 15.856 162.601 15.388 162.769 15.076C162.937 14.764 163.141 14.572 163.381 14.5C163.501 14.5 163.669 14.5 163.885 14.5C164.101 14.5 164.209 14.5 164.209 14.5C164.353 14.524 164.521 14.632 164.713 14.824C164.905 14.92 165.097 15.052 165.289 15.22C165.505 15.388 165.613 15.532 165.613 15.652C165.517 15.892 165.361 16.252 165.145 16.732C164.953 17.188 164.809 17.524 164.713 17.74C164.257 18.772 163.813 19.792 163.381 20.8C162.973 21.784 162.673 22.792 162.481 23.824C162.433 24.16 162.421 24.556 162.445 25.012C162.493 25.444 162.565 25.756 162.661 25.948C162.733 26.092 162.817 26.26 162.913 26.452C163.033 26.62 163.165 26.764 163.309 26.884C163.525 27.028 163.513 27.208 163.273 27.424C163.057 27.64 162.781 27.832 162.445 28C162.133 28.144 161.941 28.216 161.869 28.216ZM161.473 12.304C160.633 12.328 159.961 12.1 159.457 11.62C158.953 11.14 158.497 10.312 158.089 9.136C158.017 8.872 158.005 8.632 158.053 8.416C158.101 8.176 158.161 7.996 158.233 7.876C158.401 7.684 158.593 7.576 158.809 7.552C159.049 7.504 159.217 7.504 159.313 7.552C159.649 7.672 159.949 7.84 160.213 8.056C160.477 8.248 160.597 8.584 160.573 9.064C160.621 9.184 160.657 9.304 160.681 9.424C160.729 9.52 160.765 9.592 160.789 9.64C160.861 9.808 160.969 9.904 161.113 9.928C161.257 9.928 161.365 9.916 161.437 9.892C161.917 9.7 162.337 9.508 162.697 9.316C163.081 9.1 163.429 8.836 163.741 8.524C164.005 8.26 164.245 8.044 164.461 7.876C164.677 7.684 164.905 7.468 165.145 7.228L165.181 7.192C165.421 7 165.697 6.952 166.009 7.048C166.321 7.12 166.489 7.216 166.513 7.336C166.633 7.456 166.705 7.66 166.729 7.948C166.777 8.212 166.801 8.44 166.801 8.632L166.765 8.776C166.669 8.944 166.573 9.172 166.477 9.46C166.381 9.724 166.129 10 165.721 10.288C165.289 10.672 164.857 10.984 164.425 11.224C163.993 11.464 163.501 11.74 162.949 12.052C162.781 12.148 162.577 12.22 162.337 12.268C162.097 12.292 161.809 12.304 161.473 12.304ZM169.964 26.812C169.508 26.62 169.136 26.332 168.848 25.948C168.584 25.54 168.452 25.048 168.452 24.472C168.452 24.232 168.5 23.824 168.596 23.248C168.692 22.672 168.824 22.024 168.992 21.304C169.16 20.584 169.328 19.912 169.496 19.288C169.736 18.856 169.892 18.424 169.964 17.992C170.06 17.56 170.108 17.296 170.108 17.2C170.156 16.912 170.24 16.528 170.36 16.048C170.48 15.568 170.6 15.136 170.72 14.752C170.864 14.344 170.96 14.116 171.008 14.068C171.128 13.948 171.332 13.876 171.62 13.852C171.908 13.828 172.196 13.864 172.484 13.96C172.772 14.032 172.964 14.188 173.06 14.428C173.324 14.716 173.468 15.148 173.492 15.724C173.54 16.3 173.432 16.972 173.168 17.74C172.952 18.22 172.736 18.784 172.52 19.432C172.304 20.08 172.112 20.68 171.944 21.232C171.8 21.76 171.716 22.12 171.692 22.312L170.396 22.276C170.804 21.892 171.188 21.496 171.548 21.088C171.908 20.656 172.172 20.32 172.34 20.08C172.748 19.528 173.096 19.072 173.384 18.712C173.696 18.328 174.092 17.872 174.572 17.344C175.052 16.792 175.568 16.408 176.12 16.192C176.672 15.952 177.08 15.832 177.344 15.832C177.872 15.928 178.34 16.204 178.748 16.66C179.18 17.092 179.444 17.74 179.54 18.604C179.54 18.94 179.504 19.336 179.432 19.792C179.384 20.248 179.36 20.476 179.36 20.476C179.36 20.476 179.552 20.236 179.936 19.756C180.344 19.276 180.884 18.736 181.556 18.136C182.012 17.8 182.456 17.608 182.888 17.56C183.32 17.488 183.704 17.632 184.04 17.992C184.664 18.328 185.12 18.916 185.408 19.756C185.696 20.596 185.792 21.544 185.696 22.6C185.624 23.224 185.624 23.728 185.696 24.112C185.792 24.472 185.888 24.796 185.984 25.084C186.296 25.516 186.344 25.9 186.128 26.236C185.912 26.548 185.72 26.704 185.552 26.704C185.312 26.704 184.952 26.656 184.472 26.56C183.992 26.464 183.548 26.296 183.14 26.056C182.756 25.816 182.564 25.492 182.564 25.084V22.852C182.564 22.324 182.54 21.94 182.492 21.7C182.468 21.436 182.408 21.268 182.312 21.196C182.048 21.052 181.724 21.16 181.34 21.52C180.956 21.88 180.536 22.396 180.08 23.068C179.648 23.716 179.18 24.448 178.676 25.264C178.22 26.008 177.848 26.464 177.56 26.632C177.272 26.776 176.996 26.764 176.732 26.596C176.204 26.428 175.868 26.2 175.724 25.912C175.604 25.6 175.592 25.252 175.688 24.868C175.808 24.46 175.952 23.932 176.12 23.284C176.312 22.636 176.492 22.012 176.66 21.412C176.828 20.788 176.936 20.332 176.984 20.044C176.888 19.852 176.72 19.792 176.48 19.864C176.264 19.912 176.036 20.02 175.796 20.188C175.508 20.38 175.196 20.584 174.86 20.8C174.548 21.016 174.176 21.472 173.744 22.168C173.456 22.624 173.132 23.128 172.772 23.68C172.412 24.208 172.076 24.688 171.764 25.12C171.476 25.552 171.236 25.852 171.044 26.02C170.876 26.452 170.72 26.728 170.576 26.848C170.432 26.944 170.228 26.932 169.964 26.812ZM194.626 27.28C193.906 27.688 193.138 27.928 192.322 28C191.53 28.048 190.786 27.94 190.09 27.676C189.394 27.388 188.83 26.968 188.398 26.416C188.158 26.104 187.93 25.612 187.714 24.94C187.498 24.244 187.462 23.308 187.606 22.132C187.75 21.028 188.086 19.912 188.614 18.784C189.166 17.656 189.838 16.66 190.63 15.796C191.422 14.932 192.286 14.344 193.222 14.032C193.558 13.912 193.894 13.828 194.23 13.78C194.59 13.708 195.058 13.696 195.634 13.744C196.186 13.816 196.678 13.96 197.11 14.176C197.542 14.368 197.854 14.584 198.046 14.824C198.43 15.208 198.682 15.58 198.802 15.94C198.922 16.3 198.97 16.648 198.946 16.984C198.826 17.752 198.478 18.58 197.902 19.468C197.35 20.356 196.57 21.016 195.562 21.448C195.154 21.616 194.674 21.724 194.122 21.772C193.57 21.82 192.814 21.748 191.854 21.556C191.278 21.436 190.894 21.496 190.702 21.736C190.534 21.976 190.462 22.444 190.486 23.14C190.534 23.572 190.63 23.956 190.774 24.292C190.942 24.604 191.242 24.82 191.674 24.94C192.226 25.036 192.622 25.048 192.862 24.976C193.102 24.88 193.402 24.748 193.762 24.58C193.954 24.46 194.134 24.328 194.302 24.184C194.494 24.04 194.674 23.896 194.842 23.752C195.034 23.608 195.19 23.5 195.31 23.428C195.43 23.332 195.55 23.272 195.67 23.248C195.79 23.224 195.91 23.212 196.03 23.212C196.294 23.236 196.546 23.38 196.786 23.644C197.026 23.908 197.182 24.16 197.254 24.4C197.254 24.592 197.134 24.868 196.894 25.228C196.654 25.564 196.33 25.924 195.922 26.308C195.538 26.668 195.106 26.992 194.626 27.28ZM194.158 19.252C194.326 19.18 194.566 19.012 194.878 18.748C195.214 18.484 195.514 18.208 195.778 17.92C196.042 17.608 196.174 17.368 196.174 17.2C196.174 16.936 195.994 16.708 195.634 16.516C195.298 16.324 194.854 16.288 194.302 16.408C194.11 16.456 193.882 16.588 193.618 16.804C193.354 17.02 193.09 17.272 192.826 17.56C192.562 17.824 192.334 18.088 192.142 18.352C191.95 18.592 191.818 18.784 191.746 18.928C191.842 19.048 192.034 19.144 192.322 19.216C192.61 19.288 192.922 19.324 193.258 19.324C193.618 19.324 193.918 19.3 194.158 19.252ZM3.456 82.252C2.928 82.348 2.568 82.36 2.376 82.288C2.184 82.216 1.92 82.096 1.584 81.928C1.32 81.736 1.128 81.592 1.008 81.496C0.888 81.4 0.804 81.304 0.756 81.208C0.516 80.704 0.48 80.332 0.648 80.092C0.816 79.852 1.056 79.696 1.368 79.624C1.704 79.576 1.992 79.552 2.232 79.552C2.4 79.648 2.676 79.696 3.06 79.696C3.468 79.696 3.72 79.648 3.816 79.552C3.816 79.552 3.924 79.48 4.14 79.336C4.38 79.216 4.692 79.12 5.076 79.048C5.82 78.688 6.408 78.316 6.84 77.932C7.272 77.572 7.752 76.948 8.28 76.06C8.496 75.724 8.724 75.328 8.964 74.872C9.204 74.44 9.372 74.008 9.468 73.576C9.66 73.096 9.876 72.448 10.116 71.632C10.38 70.816 10.608 70.012 10.8 69.22C10.992 68.404 11.1 67.792 11.124 67.384C11.268 66.04 11.544 64.744 11.952 63.496C12.36 62.224 12.684 60.88 12.924 59.464C13.068 59.128 13.176 58.936 13.248 58.888C13.32 58.816 13.476 58.78 13.716 58.78C13.98 58.78 14.292 58.864 14.652 59.032C15.012 59.176 15.276 59.38 15.444 59.644C15.684 60.1 15.792 60.64 15.768 61.264C15.768 61.864 15.612 62.392 15.3 62.848C15.06 63.184 14.844 63.712 14.652 64.432C14.484 65.128 14.316 66.004 14.148 67.06C14.028 67.588 13.896 68.212 13.752 68.932C13.632 69.628 13.5 70.408 13.356 71.272C13.26 71.512 13.128 71.884 12.96 72.388C12.792 72.868 12.684 73.252 12.636 73.54C12.612 73.636 12.54 73.828 12.42 74.116C12.3 74.404 12.18 74.68 12.06 74.944C11.94 75.232 11.856 75.424 11.808 75.52C10.656 77.848 9.324 79.528 7.812 80.56C6.324 81.592 4.872 82.156 3.456 82.252ZM6.48 72.064C6.216 72.064 5.94 71.92 5.652 71.632C5.388 71.344 5.208 71.116 5.112 70.948C5.016 70.708 4.836 70.48 4.572 70.264C4.308 70.048 4.08 69.784 3.888 69.472C3.696 69.16 3.648 68.776 3.744 68.32C3.84 68.008 3.984 67.54 4.176 66.916C4.368 66.268 4.596 65.56 4.86 64.792C5.124 64 5.388 63.22 5.652 62.452C5.94 61.684 6.204 61 6.444 60.4C6.684 59.8 6.888 59.38 7.056 59.14C7.2 58.948 7.428 58.804 7.74 58.708C8.052 58.612 8.364 58.588 8.676 58.636C8.988 58.684 9.216 58.828 9.36 59.068C9.624 59.404 9.768 59.74 9.792 60.076C9.84 60.388 9.672 60.892 9.288 61.588C9.192 61.852 9.072 62.14 8.928 62.452C8.784 62.74 8.712 62.932 8.712 63.028C8.688 63.076 8.64 63.244 8.568 63.532C8.52 63.796 8.46 64.048 8.388 64.288C8.316 64.528 8.244 64.648 8.172 64.648C8.076 64.744 7.968 64.996 7.848 65.404C7.752 65.812 7.656 66.268 7.56 66.772C7.488 67.252 7.44 67.684 7.416 68.068C7.392 68.428 7.428 68.608 7.524 68.608C8.268 68.608 8.988 68.38 9.684 67.924C10.38 67.444 11.136 66.652 11.952 65.548L12.276 68.932C11.94 69.1 11.628 69.28 11.34 69.472C11.052 69.64 10.788 69.844 10.548 70.084C10.476 70.18 10.308 70.312 10.044 70.48C9.78 70.648 9.516 70.804 9.252 70.948C9.012 71.068 8.856 71.128 8.784 71.128C8.784 71.128 8.748 71.14 8.676 71.164C8.628 71.164 8.604 71.212 8.604 71.308C8.604 71.356 8.448 71.452 8.136 71.596C7.824 71.716 7.5 71.824 7.164 71.92C6.828 72.016 6.6 72.064 6.48 72.064ZM27.3457 68.788C27.4657 68.716 27.5737 68.668 27.6697 68.644C27.7897 68.596 27.8977 68.56 27.9937 68.536C28.3297 68.488 28.5577 68.584 28.6777 68.824C28.8217 69.064 28.8937 69.316 28.8937 69.58C28.8937 69.748 28.8817 69.892 28.8577 70.012C28.8337 70.132 28.7977 70.216 28.7497 70.264C28.7497 70.36 28.7497 70.48 28.7497 70.624C28.7737 70.744 28.7617 70.864 28.7137 70.984C28.6177 71.32 28.3657 71.632 27.9577 71.92C27.5497 72.184 27.1057 72.364 26.6257 72.46C26.1697 72.532 25.7857 72.448 25.4737 72.208C25.2577 72.112 25.0417 71.98 24.8257 71.812C24.5617 71.548 24.3577 71.224 24.2137 70.84C24.0937 70.432 24.0337 69.976 24.0337 69.472C24.0337 69.088 24.0697 68.68 24.1417 68.248C24.2377 67.816 24.3577 67.372 24.5017 66.916C23.9977 67.324 23.4697 67.696 22.9177 68.032C22.3897 68.368 21.8497 68.704 21.2977 69.04C21.1777 69.04 21.0457 69.04 20.9017 69.04C20.7577 69.04 20.6257 69.04 20.5057 69.04C20.1937 69.04 19.9057 68.992 19.6417 68.896C19.4017 68.8 19.1737 68.632 18.9577 68.392C18.6457 68.056 18.4177 67.684 18.2737 67.276C18.1537 66.844 18.0937 66.4 18.0937 65.944C18.0937 65.104 18.2497 64.24 18.5617 63.352C18.8737 62.464 19.2217 61.612 19.6057 60.796C20.0137 59.98 20.3617 59.272 20.6497 58.672C21.1537 58.408 21.5737 58.36 21.9097 58.528C22.2697 58.672 22.5577 58.936 22.7737 59.32C23.0137 59.68 23.2057 60.076 23.3497 60.508C23.2537 60.964 23.0377 61.384 22.7017 61.768C22.3897 62.152 22.1377 62.68 21.9457 63.352C21.8497 63.712 21.7297 64.084 21.5857 64.468C21.4657 64.828 21.3697 65.2 21.2977 65.584C21.4897 65.488 21.7777 65.308 22.1617 65.044C22.5457 64.756 22.9777 64.444 23.4577 64.108C23.9377 63.748 24.3937 63.388 24.8257 63.028C25.2817 62.668 25.6777 62.344 26.0137 62.056C26.3497 61.768 26.5657 61.54 26.6617 61.372C26.8537 61.132 26.9617 60.904 26.9857 60.688C27.0097 60.472 27.1057 60.256 27.2737 60.04C27.7057 59.56 28.1497 59.368 28.6057 59.464C29.0857 59.536 29.5057 59.776 29.8657 60.184C30.2257 60.592 30.4177 61.06 30.4417 61.588C30.1537 62.02 29.8417 62.536 29.5057 63.136C29.1697 63.736 28.8457 64.384 28.5337 65.08C28.2217 65.752 27.9577 66.412 27.7417 67.06C27.5257 67.708 27.3937 68.284 27.3457 68.788ZM35.057 72.352C34.769 72.424 34.445 72.34 34.085 72.1C33.725 71.86 33.401 71.56 33.113 71.2C32.825 70.84 32.645 70.516 32.573 70.228C32.477 69.724 32.501 69.112 32.645 68.392C32.813 67.648 33.089 66.868 33.473 66.052C33.857 65.212 34.337 64.396 34.913 63.604C35.489 62.788 36.137 62.056 36.857 61.408C37.577 60.76 38.357 60.256 39.197 59.896C39.557 59.704 39.809 59.584 39.953 59.536C40.097 59.464 40.241 59.464 40.385 59.536C40.529 59.584 40.781 59.704 41.141 59.896C41.477 59.992 41.813 60.112 42.149 60.256C42.509 60.376 42.821 60.616 43.085 60.976C43.277 61.336 43.421 61.696 43.517 62.056C43.613 62.416 43.697 62.824 43.769 63.28C43.961 63.88 44.033 64.276 43.985 64.468C43.937 64.636 43.865 64.768 43.769 64.864C43.577 65.104 43.529 65.224 43.625 65.224C43.625 65.224 43.613 65.272 43.589 65.368C43.589 65.44 43.541 65.56 43.445 65.728C43.277 66.256 43.145 66.76 43.049 67.24C42.977 67.696 42.989 68.104 43.085 68.464C43.277 68.992 43.529 69.304 43.841 69.4C44.177 69.496 44.609 69.28 45.137 68.752C45.401 68.56 45.701 68.44 46.037 68.392C46.373 68.32 46.541 68.38 46.541 68.572C46.541 68.572 46.577 68.608 46.649 68.68C46.721 68.728 46.805 68.752 46.901 68.752C47.021 68.752 47.069 68.872 47.045 69.112C47.021 69.328 46.973 69.58 46.901 69.868C46.829 70.156 46.733 70.396 46.613 70.588C46.253 70.948 46.073 71.188 46.073 71.308C46.073 71.308 46.025 71.356 45.929 71.452C45.857 71.524 45.725 71.644 45.533 71.812C45.101 72.076 44.549 72.208 43.877 72.208C43.229 72.208 42.725 72.076 42.365 71.812C42.005 71.548 41.645 71.224 41.285 70.84C40.949 70.456 40.733 70.096 40.637 69.76L40.457 69.4L39.413 70.084C39.149 70.348 38.957 70.552 38.837 70.696C38.717 70.816 38.609 70.924 38.513 71.02C38.441 71.116 38.357 71.2 38.261 71.272C38.189 71.344 38.105 71.38 38.009 71.38C37.913 71.38 37.829 71.38 37.757 71.38C37.685 71.38 37.649 71.38 37.649 71.38C37.649 71.476 37.481 71.608 37.145 71.776C36.809 71.92 36.437 72.052 36.029 72.172C35.621 72.292 35.297 72.352 35.057 72.352ZM35.813 69.328C35.957 69.328 36.173 69.244 36.461 69.076C36.773 68.884 37.109 68.656 37.469 68.392C37.829 68.128 38.153 67.864 38.441 67.6C38.753 67.336 38.981 67.12 39.125 66.952C39.221 66.856 39.329 66.7 39.449 66.484C39.593 66.268 39.749 66.076 39.917 65.908C40.469 65.284 40.817 64.792 40.961 64.432C41.105 64.048 41.045 63.64 40.781 63.208C40.685 62.944 40.565 62.8 40.421 62.776C40.277 62.752 39.977 62.836 39.521 63.028C39.233 63.196 38.921 63.472 38.585 63.856C38.249 64.24 37.901 64.672 37.541 65.152C37.205 65.632 36.893 66.124 36.605 66.628C36.317 67.132 36.077 67.588 35.885 67.996C35.717 68.404 35.633 68.728 35.633 68.968C35.633 69.064 35.657 69.148 35.705 69.22C35.777 69.292 35.813 69.328 35.813 69.328ZM54.1541 72.676C53.8421 72.82 53.4821 72.88 53.0741 72.856C52.6661 72.832 52.1141 72.7 51.4181 72.46C51.3701 72.46 51.2021 72.352 50.9141 72.136C50.6261 71.92 50.3381 71.668 50.0501 71.38C49.7621 71.092 49.5701 70.852 49.4741 70.66C49.0901 70.108 48.9701 69.292 49.1141 68.212C49.2821 67.132 49.6661 65.836 50.2661 64.324C50.4341 63.964 50.6861 63.508 51.0221 62.956C51.3821 62.404 51.7301 61.9 52.0661 61.444C52.4261 60.964 52.6781 60.688 52.8221 60.616C52.8221 60.616 52.9541 60.568 53.2181 60.472C53.4821 60.376 53.8181 60.22 54.2261 60.004C54.3461 59.956 54.5501 59.896 54.8381 59.824C55.1501 59.752 55.4621 59.692 55.7741 59.644C56.1101 59.572 56.3381 59.548 56.4581 59.572C56.9381 59.596 57.4301 59.776 57.9341 60.112C58.4621 60.424 58.8941 60.796 59.2301 61.228C59.5661 61.636 59.6741 61.996 59.5541 62.308C59.5541 62.356 59.4821 62.512 59.3381 62.776C59.2181 63.016 59.0861 63.268 58.9421 63.532C58.7981 63.772 58.6781 63.952 58.5821 64.072C58.4621 64.216 58.2461 64.276 57.9341 64.252C57.6461 64.228 57.3821 64.132 57.1421 63.964C56.9021 63.796 56.7701 63.568 56.7461 63.28C56.6981 63.088 56.5181 62.908 56.2061 62.74C55.9181 62.572 55.7741 62.488 55.7741 62.488C55.5821 62.488 55.3301 62.68 55.0181 63.064C54.7061 63.448 54.3821 63.88 54.0461 64.36C53.6141 64.792 53.3021 65.26 53.1101 65.764C52.9421 66.244 52.8221 66.7 52.7501 67.132C52.7021 67.54 52.6421 67.852 52.5701 68.068C52.4741 68.308 52.4741 68.608 52.5701 68.968C52.6661 69.328 52.7861 69.532 52.9301 69.58C53.1461 69.604 53.4341 69.592 53.7941 69.544C54.1781 69.472 54.5741 69.388 54.9821 69.292C55.4141 69.172 55.8461 69.052 56.2781 68.932C56.7101 68.788 57.0941 68.644 57.4301 68.5C57.8861 68.212 58.2821 68.104 58.6181 68.176C58.9541 68.224 59.2061 68.272 59.3741 68.32C59.6381 68.416 59.7701 68.62 59.7701 68.932C59.7701 69.244 59.6621 69.58 59.4461 69.94C59.2301 70.276 58.9181 70.552 58.5101 70.768C58.1261 70.96 57.7781 71.176 57.4661 71.416C57.1781 71.632 57.0341 71.8 57.0341 71.92C56.9381 71.92 56.8301 71.956 56.7101 72.028C56.6141 72.076 56.5301 72.088 56.4581 72.064C56.4101 72.064 56.2181 72.1 55.8821 72.172C55.5461 72.244 55.1981 72.328 54.8381 72.424C54.5021 72.52 54.2741 72.604 54.1541 72.676ZM64.46 71.812C64.004 71.62 63.632 71.332 63.344 70.948C63.08 70.54 62.948 70.048 62.948 69.472C62.948 69.232 62.996 68.824 63.092 68.248C63.188 67.672 63.32 67.024 63.488 66.304C63.656 65.584 63.824 64.912 63.992 64.288C64.232 63.856 64.388 63.424 64.46 62.992C64.556 62.56 64.604 62.296 64.604 62.2C64.652 61.912 64.736 61.528 64.856 61.048C64.976 60.568 65.096 60.136 65.216 59.752C65.36 59.344 65.456 59.116 65.504 59.068C65.624 58.948 65.828 58.876 66.116 58.852C66.404 58.828 66.692 58.864 66.98 58.96C67.268 59.032 67.46 59.188 67.556 59.428C67.82 59.716 67.964 60.148 67.988 60.724C68.036 61.3 67.928 61.972 67.664 62.74C67.448 63.22 67.232 63.784 67.016 64.432C66.8 65.08 66.608 65.68 66.44 66.232C66.296 66.76 66.212 67.12 66.188 67.312L64.892 67.276C65.3 66.892 65.684 66.496 66.044 66.088C66.404 65.656 66.668 65.32 66.836 65.08C67.244 64.528 67.592 64.072 67.88 63.712C68.192 63.328 68.588 62.872 69.068 62.344C69.548 61.792 70.064 61.408 70.616 61.192C71.168 60.952 71.576 60.832 71.84 60.832C72.368 60.928 72.836 61.204 73.244 61.66C73.676 62.092 73.94 62.74 74.036 63.604C74.036 63.94 74 64.336 73.928 64.792C73.88 65.248 73.856 65.476 73.856 65.476C73.856 65.476 74.048 65.236 74.432 64.756C74.84 64.276 75.38 63.736 76.052 63.136C76.508 62.8 76.952 62.608 77.384 62.56C77.816 62.488 78.2 62.632 78.536 62.992C79.16 63.328 79.616 63.916 79.904 64.756C80.192 65.596 80.288 66.544 80.192 67.6C80.12 68.224 80.12 68.728 80.192 69.112C80.288 69.472 80.384 69.796 80.48 70.084C80.792 70.516 80.84 70.9 80.624 71.236C80.408 71.548 80.216 71.704 80.048 71.704C79.808 71.704 79.448 71.656 78.968 71.56C78.488 71.464 78.044 71.296 77.636 71.056C77.252 70.816 77.06 70.492 77.06 70.084V67.852C77.06 67.324 77.036 66.94 76.988 66.7C76.964 66.436 76.904 66.268 76.808 66.196C76.544 66.052 76.22 66.16 75.836 66.52C75.452 66.88 75.032 67.396 74.576 68.068C74.144 68.716 73.676 69.448 73.172 70.264C72.716 71.008 72.344 71.464 72.056 71.632C71.768 71.776 71.492 71.764 71.228 71.596C70.7 71.428 70.364 71.2 70.22 70.912C70.1 70.6 70.088 70.252 70.184 69.868C70.304 69.46 70.448 68.932 70.616 68.284C70.808 67.636 70.988 67.012 71.156 66.412C71.324 65.788 71.432 65.332 71.48 65.044C71.384 64.852 71.216 64.792 70.976 64.864C70.76 64.912 70.532 65.02 70.292 65.188C70.004 65.38 69.692 65.584 69.356 65.8C69.044 66.016 68.672 66.472 68.24 67.168C67.952 67.624 67.628 68.128 67.268 68.68C66.908 69.208 66.572 69.688 66.26 70.12C65.972 70.552 65.732 70.852 65.54 71.02C65.372 71.452 65.216 71.728 65.072 71.848C64.928 71.944 64.724 71.932 64.46 71.812ZM92.0742 73.108C91.8822 73.108 91.7382 73.12 91.6422 73.144C91.5462 73.168 91.4022 73.144 91.2102 73.072C91.0422 73.024 90.6942 72.904 90.1662 72.712C89.9262 72.304 89.7822 71.896 89.7342 71.488C89.7102 71.056 89.7342 70.624 89.8062 70.192C89.9022 69.736 90.0342 69.292 90.2022 68.86C90.3702 68.428 90.5262 68.02 90.6702 67.636C90.6462 67.66 90.6102 67.672 90.5622 67.672C90.5142 67.672 90.4662 67.684 90.4182 67.708C90.2022 67.756 89.9862 67.804 89.7702 67.852C89.5542 67.876 89.3262 67.912 89.0862 67.96C88.7022 68.032 88.3302 68.104 87.9702 68.176C87.6102 68.224 87.2382 68.296 86.8542 68.392C86.7822 68.344 86.6982 68.296 86.6022 68.248C86.5302 68.2 86.4582 68.164 86.3862 68.14C86.3142 68.404 86.2542 68.692 86.2062 69.004C86.1582 69.316 86.0982 69.628 86.0262 69.94C85.9782 70.252 85.9062 70.564 85.8102 70.876C85.7382 71.164 85.6302 71.44 85.4862 71.704C84.9582 71.776 84.5742 71.8 84.3342 71.776C84.0942 71.752 83.7222 71.656 83.2182 71.488C83.0262 71.224 82.8822 70.96 82.7862 70.696C82.7142 70.408 82.6782 70.12 82.6782 69.832C82.6782 69.256 82.7982 68.68 83.0382 68.104C83.2782 67.504 83.4942 66.94 83.6862 66.412C83.7822 66.148 83.8542 65.908 83.9022 65.692C83.9742 65.452 84.0102 65.212 84.0102 64.972C84.0582 64.924 84.1422 64.768 84.2622 64.504C84.3822 64.216 84.5262 63.88 84.6942 63.496C84.9102 62.968 85.1382 62.404 85.3782 61.804C85.6182 61.204 85.8222 60.664 85.9902 60.184C86.1582 59.68 86.2542 59.344 86.2782 59.176C86.3022 58.6 86.5902 58.312 87.1422 58.312C87.5022 58.288 87.8862 58.408 88.2942 58.672C88.7022 58.936 89.0142 59.26 89.2302 59.644C89.4462 60.028 89.4342 60.4 89.1942 60.76C89.0742 61.072 88.9542 61.384 88.8342 61.696C88.7142 62.008 88.5942 62.332 88.4742 62.668C88.3542 62.98 88.2342 63.292 88.1142 63.604C87.9942 63.916 87.8742 64.228 87.7542 64.54C87.7302 64.636 87.7062 64.72 87.6822 64.792C87.6582 64.864 87.6222 64.948 87.5742 65.044C87.7182 65.02 87.8622 64.996 88.0062 64.972C88.1742 64.924 88.3182 64.864 88.4382 64.792C88.6782 64.792 89.0262 64.792 89.4822 64.792C89.9622 64.792 90.3942 64.792 90.7782 64.792C91.0182 64.912 91.2102 65.044 91.3542 65.188C91.5702 64.684 91.7862 64.18 92.0022 63.676C92.2182 63.148 92.4102 62.62 92.5782 62.092C92.7702 61.54 92.9142 61 93.0102 60.472C93.0822 60.136 93.2262 59.848 93.4422 59.608C93.6582 59.368 93.9102 59.164 94.1982 58.996C94.7262 59.188 95.1942 59.38 95.6022 59.572C96.0342 59.764 96.3102 60.172 96.4302 60.796C96.3342 61.012 96.2742 61.24 96.2502 61.48C96.2262 61.72 96.1662 61.948 96.0702 62.164C95.7582 62.932 95.4342 63.724 95.0982 64.54C94.7622 65.332 94.4502 66.136 94.1622 66.952C93.8982 67.744 93.6822 68.56 93.5142 69.4C93.4662 69.664 93.3942 69.928 93.2982 70.192C93.2022 70.456 93.1062 70.732 93.0102 71.02C92.9382 71.284 92.8782 71.548 92.8302 71.812C92.8062 72.076 92.7342 72.328 92.6142 72.568C92.4942 72.784 92.3142 72.964 92.0742 73.108ZM106.666 72.928C106.426 72.688 106.234 72.364 106.09 71.956C105.946 71.524 105.802 71.032 105.658 70.48C105.61 70.288 105.586 70.072 105.586 69.832C105.61 69.592 105.61 69.4 105.586 69.256C105.514 69.424 105.394 69.64 105.226 69.904C105.082 70.168 104.938 70.36 104.794 70.48C104.698 70.576 104.482 70.768 104.146 71.056C103.81 71.32 103.474 71.536 103.138 71.704C102.346 72.208 101.638 72.448 101.014 72.424C100.414 72.376 99.8863 72.064 99.4303 71.488C99.0463 71.176 98.7343 70.78 98.4943 70.3C98.2543 69.82 98.2063 69.244 98.3503 68.572C98.3983 67.732 98.5183 66.916 98.7103 66.124C98.9023 65.308 99.2983 64.228 99.8983 62.884C100.402 61.9 100.786 61.132 101.05 60.58C101.314 60.028 101.482 59.704 101.554 59.608C101.914 59.488 102.358 59.5 102.886 59.644C103.414 59.764 103.702 59.992 103.75 60.328C103.894 60.568 103.894 61.024 103.75 61.696C103.606 62.344 103.318 63.088 102.886 63.928C102.55 64.744 102.226 65.536 101.914 66.304C101.626 67.072 101.446 67.72 101.374 68.248C101.326 68.776 101.47 69.1 101.806 69.22C102.022 69.34 102.334 69.328 102.742 69.184C103.174 69.04 103.678 68.608 104.254 67.888C104.83 67.168 105.442 66.028 106.09 64.468C106.282 63.988 106.426 63.568 106.522 63.208C106.618 62.824 106.678 62.404 106.702 61.948C106.654 61.66 106.726 61.36 106.918 61.048C107.134 60.736 107.386 60.496 107.674 60.328C107.77 60.208 107.902 60.1 108.07 60.004C108.238 59.884 108.346 59.884 108.394 60.004L108.97 59.968C109.066 59.944 109.174 60.04 109.294 60.256C109.414 60.472 109.534 60.628 109.654 60.724C109.918 60.94 110.038 61.408 110.014 62.128C109.99 62.848 109.702 63.856 109.15 65.152C108.694 66.136 108.382 66.88 108.214 67.384C108.07 67.888 107.986 68.38 107.962 68.86C107.962 69.292 107.998 69.664 108.07 69.976C108.142 70.264 108.358 70.564 108.718 70.876C108.982 71.044 109.126 71.332 109.15 71.74C109.198 72.124 109.21 72.46 109.186 72.748C109.138 72.964 108.946 73.108 108.61 73.18C108.298 73.276 107.95 73.3 107.566 73.252C107.206 73.204 106.906 73.096 106.666 72.928ZM111.891 72.208C111.651 72.04 111.471 71.884 111.351 71.74C111.231 71.596 111.183 71.392 111.207 71.128C111.255 70.768 111.327 70.408 111.423 70.048C111.519 69.688 111.639 69.316 111.783 68.932C111.879 68.596 112.011 68.188 112.179 67.708C112.371 67.204 112.551 66.712 112.719 66.232C113.127 65.08 113.535 64 113.943 62.992C114.351 61.96 114.855 60.7 115.455 59.212C115.575 58.948 115.683 58.744 115.779 58.6C115.875 58.432 115.995 58.276 116.139 58.132C116.235 57.94 116.427 57.832 116.715 57.808C117.027 57.784 117.339 57.808 117.651 57.88C117.963 57.952 118.179 58.06 118.299 58.204C118.515 58.372 118.659 58.576 118.731 58.816C118.803 59.032 118.815 59.272 118.767 59.536C118.767 59.632 118.719 59.764 118.623 59.932C118.527 60.076 118.431 60.22 118.335 60.364C118.239 60.532 118.155 60.724 118.083 60.94C118.011 61.132 117.927 61.348 117.831 61.588C117.591 62.26 117.339 62.824 117.075 63.28C116.835 63.736 116.595 64.252 116.355 64.828C116.259 65.164 116.163 65.524 116.067 65.908C115.971 66.292 115.887 66.616 115.815 66.88C115.599 67.336 115.431 67.72 115.311 68.032C115.191 68.32 115.107 68.596 115.059 68.86C114.891 69.676 114.711 70.384 114.519 70.984C114.327 71.56 114.123 72.016 113.907 72.352C113.811 72.568 113.583 72.664 113.223 72.64C112.887 72.592 112.443 72.448 111.891 72.208ZM121.719 73.072C121.335 73.048 120.999 72.976 120.711 72.856C120.423 72.736 120.027 72.448 119.523 71.992C119.091 71.56 118.611 71.032 118.083 70.408C117.579 69.784 117.063 69.136 116.535 68.464C116.031 67.792 115.563 67.168 115.131 66.592L117.363 64.576C117.675 64.96 117.975 65.332 118.263 65.692C118.575 66.052 118.803 66.364 118.947 66.628C119.403 67.228 119.775 67.756 120.063 68.212C120.375 68.668 120.663 69.076 120.927 69.436C121.191 69.772 121.479 70.084 121.791 70.372C122.103 70.636 122.511 70.888 123.015 71.128C123.087 71.176 123.159 71.296 123.231 71.488C123.327 71.656 123.375 71.836 123.375 72.028C123.303 72.316 123.147 72.544 122.907 72.712C122.691 72.88 122.295 73 121.719 73.072ZM115.923 66.16C115.923 65.872 115.947 65.572 115.995 65.26C116.067 64.948 116.235 64.624 116.499 64.288C116.595 64.12 116.739 63.964 116.931 63.82C117.123 63.652 117.231 63.52 117.255 63.424C117.279 63.376 117.399 63.268 117.615 63.1C117.831 62.908 118.023 62.74 118.191 62.596C118.479 62.38 118.851 62.092 119.307 61.732C119.763 61.372 120.219 61.012 120.675 60.652C121.131 60.292 121.527 59.98 121.863 59.716C122.199 59.452 122.403 59.284 122.475 59.212C122.595 59.092 122.775 59.032 123.015 59.032C123.255 59.008 123.483 59.044 123.699 59.14C123.987 59.212 124.203 59.392 124.347 59.68C124.491 59.944 124.575 60.256 124.599 60.616C124.647 60.856 124.539 61.132 124.275 61.444C124.011 61.732 123.615 62.044 123.087 62.38C122.895 62.5 122.571 62.728 122.115 63.064C121.659 63.4 121.311 63.676 121.071 63.892C120.903 63.988 120.615 64.18 120.207 64.468C119.823 64.756 119.523 64.996 119.307 65.188C119.115 65.308 118.839 65.536 118.479 65.872C118.143 66.184 117.843 66.448 117.579 66.664C116.979 67.216 116.607 67.432 116.463 67.312C116.343 67.192 116.163 66.808 115.923 66.16ZM131.185 72.712C130.681 72.808 130.297 72.784 130.033 72.64C129.793 72.472 129.541 72.268 129.277 72.028C128.893 71.836 128.545 71.572 128.233 71.236C127.921 70.876 127.681 70.504 127.513 70.12C127.345 69.736 127.273 69.436 127.297 69.22C127.369 68.38 127.561 67.468 127.873 66.484C128.209 65.5 128.629 64.54 129.133 63.604C129.661 62.668 130.249 61.84 130.897 61.12C131.569 60.376 132.289 59.836 133.057 59.5C133.537 59.308 134.053 59.236 134.605 59.284C135.157 59.332 135.529 59.56 135.721 59.968C136.081 60.664 135.997 61.108 135.469 61.3C135.397 61.3 135.313 61.336 135.217 61.408C135.121 61.456 135.073 61.528 135.073 61.624C135.169 61.672 135.433 61.684 135.865 61.66C136.297 61.612 136.729 61.54 137.161 61.444C137.617 61.324 137.917 61.204 138.061 61.084C138.205 61.012 138.313 60.976 138.385 60.976C138.457 60.976 138.637 61 138.925 61.048C139.333 61.168 139.537 61.312 139.537 61.48C139.537 61.576 139.573 61.732 139.645 61.948C139.717 62.14 139.801 62.236 139.897 62.236C140.065 62.26 140.101 62.428 140.005 62.74C139.933 63.052 139.657 63.376 139.177 63.712C138.721 64 138.433 64.192 138.313 64.288C138.217 64.36 138.205 64.528 138.277 64.792C138.469 65.248 138.457 65.8 138.241 66.448C138.025 67.096 137.665 67.768 137.161 68.464C136.657 69.16 136.057 69.82 135.361 70.444C134.689 71.044 133.981 71.56 133.237 71.992C132.517 72.4 131.833 72.64 131.185 72.712ZM131.293 69.688C131.389 69.688 131.557 69.64 131.797 69.544C132.037 69.424 132.229 69.328 132.373 69.256C132.469 69.16 132.589 69.052 132.733 68.932C132.901 68.788 133.033 68.704 133.129 68.68C133.225 68.68 133.285 68.644 133.309 68.572C133.333 68.476 133.417 68.296 133.561 68.032C133.705 67.744 133.993 67.324 134.425 66.772C134.905 66.244 135.217 65.824 135.361 65.512C135.505 65.176 135.517 64.816 135.397 64.432C135.373 64.336 135.301 64.276 135.181 64.252C135.085 64.228 134.953 64.168 134.785 64.072C134.545 64.072 134.377 64.132 134.281 64.252C134.209 64.348 134.041 64.288 133.777 64.072L133.201 63.352L132.589 63.964C132.205 64.348 131.857 64.828 131.545 65.404C131.257 65.98 131.029 66.568 130.861 67.168C130.693 67.768 130.585 68.296 130.537 68.752C130.513 69.112 130.573 69.352 130.717 69.472C130.861 69.592 131.053 69.664 131.293 69.688ZM144.345 73.468C143.817 73.492 143.289 73.396 142.761 73.18C142.257 72.988 141.849 72.604 141.537 72.028C141.297 71.572 141.129 71.08 141.033 70.552C140.937 70.024 140.937 69.52 141.033 69.04C141.321 67.456 141.561 66.304 141.753 65.584C141.945 64.864 142.053 64.456 142.077 64.36C142.125 64.264 142.197 64.048 142.293 63.712C142.413 63.376 142.545 63.088 142.689 62.848C142.809 62.488 142.845 62.068 142.797 61.588C142.773 61.396 142.797 61.168 142.869 60.904C142.965 60.64 143.085 60.448 143.229 60.328C143.637 60.016 143.961 59.608 144.201 59.104C144.273 58.936 144.393 58.684 144.561 58.348C144.729 57.988 144.909 57.628 145.101 57.268C145.317 56.884 145.485 56.572 145.605 56.332C145.989 55.852 146.385 55.288 146.793 54.64C147.201 53.992 147.657 53.44 148.161 52.984C148.473 52.456 148.857 51.988 149.313 51.58C149.793 51.148 150.261 50.752 150.717 50.392C151.197 50.008 151.581 49.672 151.869 49.384C152.061 49.168 152.445 49 153.021 48.88C153.597 48.76 154.053 48.652 154.389 48.556C154.773 48.436 155.205 48.508 155.685 48.772C156.165 49.036 156.489 49.276 156.657 49.492C157.017 50.116 157.233 50.644 157.305 51.076C157.377 51.484 157.329 51.952 157.161 52.48C156.993 52.984 156.693 53.692 156.261 54.604C155.781 55.564 155.085 56.5 154.173 57.412C153.261 58.324 152.301 59.128 151.293 59.824C150.837 60.232 150.333 60.616 149.781 60.976C149.229 61.336 148.701 61.648 148.197 61.912C147.885 62.08 147.561 62.236 147.225 62.38C146.913 62.5 146.589 62.62 146.253 62.74C146.085 62.788 145.965 62.92 145.893 63.136C145.845 63.352 145.761 63.616 145.641 63.928C145.617 64.144 145.557 64.336 145.461 64.504C145.389 64.648 145.329 64.756 145.281 64.828C145.209 64.9 145.125 65.116 145.029 65.476C144.933 65.836 144.837 66.268 144.741 66.772C144.645 67.276 144.549 67.768 144.453 68.248C144.357 68.728 144.285 69.1 144.237 69.364C144.189 69.628 144.177 69.82 144.201 69.94C144.249 70.036 144.333 70.108 144.453 70.156C144.717 70.108 144.909 70 145.029 69.832C145.173 69.64 145.329 69.448 145.497 69.256C145.689 68.92 145.845 68.608 145.965 68.32C146.109 68.032 146.265 67.672 146.433 67.24C146.529 66.976 146.625 66.676 146.721 66.34C146.841 65.98 146.961 65.68 147.081 65.44C147.081 64.936 147.069 64.564 147.045 64.324C147.045 64.06 147.021 63.844 146.973 63.676C146.949 63.508 146.901 63.328 146.829 63.136C146.997 62.488 147.153 62.116 147.297 62.02C147.441 61.9 147.597 61.864 147.765 61.912C148.245 62.008 148.653 62.164 148.989 62.38C149.349 62.596 149.673 62.836 149.961 63.1C150.105 63.22 150.201 63.376 150.249 63.568C150.321 63.76 150.333 63.916 150.285 64.036C150.261 64.324 150.225 64.636 150.177 64.972C150.153 65.284 150.141 65.572 150.141 65.836C149.973 66.22 149.817 66.712 149.673 67.312C149.529 67.912 149.349 68.464 149.133 68.968C148.989 69.28 148.749 69.7 148.413 70.228C148.101 70.732 147.849 71.116 147.657 71.38C147.345 71.764 146.901 72.124 146.325 72.46C145.773 72.796 145.257 73.132 144.777 73.468H144.345ZM147.009 59.14C147.153 59.188 147.297 59.188 147.441 59.14C147.609 59.068 147.765 58.996 147.909 58.924C148.773 58.54 149.601 58.036 150.393 57.412C151.209 56.764 151.929 56.092 152.553 55.396C153.201 54.676 153.669 54.028 153.957 53.452C154.101 53.188 154.257 52.852 154.425 52.444C154.617 52.036 154.725 51.568 154.749 51.04L154.641 50.788C154.209 51.1 153.765 51.46 153.309 51.868C152.853 52.276 152.313 52.804 151.689 53.452C151.449 53.692 151.125 54.028 150.717 54.46C150.309 54.868 149.865 55.336 149.385 55.864C148.929 56.392 148.485 56.944 148.053 57.52C147.621 58.072 147.273 58.612 147.009 59.14Z" fill="#F15929"/>
</svg>
