<svg width="166" height="35" viewBox="0 0 166 35" fill="none" xmlns="http://www.w3.org/2000/svg">
<g clip-path="url(#clip0_22992_74608)">
<path d="M15.7775 31.5549C24.4911 31.5549 31.5549 24.4911 31.5549 15.7775C31.5549 7.06381 24.4911 0 15.7775 0C7.06381 0 0 7.06381 0 15.7775C0 24.4911 7.06381 31.5549 15.7775 31.5549Z" fill="#F15929"/>
<path d="M12.1887 13.5681L13.1263 11.8223C13.6975 10.758 13.3903 9.48637 12.2938 8.89633C10.7958 8.09345 9.30587 9.35435 9.30587 9.35435C7.59503 10.8981 6.51733 13.1317 6.51733 15.6184C6.51733 20.2741 10.2947 23.8413 14.9449 24.046C21.4865 24.3343 25.7677 19.1183 25.7677 19.1183" stroke="white" stroke-width="2.46792" stroke-linecap="square" stroke-linejoin="round"/>
<path d="M17.2808 14.5994L18.2184 12.8535C18.7896 11.7893 18.4824 10.5176 17.3859 9.92758C15.8879 9.1247 14.398 10.3856 14.398 10.3856C13.4334 11.2531 12.8192 12.4278 12.1914 13.5702" stroke="white" stroke-width="2.46792" stroke-linecap="square" stroke-linejoin="round"/>
<path d="M22.3731 15.6287L23.3107 13.8828C23.8819 12.8186 23.5747 11.5469 22.4782 10.9569C20.9802 10.154 19.4903 11.4149 19.4903 11.4149C18.5257 12.2824 17.8656 13.4032 17.2837 14.5995" stroke="white" stroke-width="2.46792" stroke-linecap="square" stroke-linejoin="round"/>
<path d="M45.4828 13.0332H40.9835V24.4784H38.4805V13.0332H34V10.8994H45.4828V13.0332Z" fill="#1F1F1F"/>
<path d="M47.9104 10.8994H50.3945V20.5394L57.6878 10.8994H60.0345V24.4784H57.5531V14.8572L50.2598 24.4784H47.9131V10.8994H47.9104Z" fill="#1F1F1F"/>
<path d="M76.3803 24.4784L76.3614 15.4769L71.8997 22.9265H70.7736L66.3119 15.5928V24.4784H63.9248V10.8994H65.9994L71.3717 19.882L76.6874 10.8994H78.7431L78.7808 24.4784H76.3749H76.3803Z" fill="#1F1F1F"/>
<path d="M96.3878 21.8995C95.1458 22.9341 93.3811 23.4972 91.091 23.5861V25.0222H88.7631V23.5861C86.473 23.4703 84.7056 22.9018 83.4582 21.878C82.2108 20.8569 81.5857 19.4532 81.5857 17.6696C81.5857 15.886 82.2108 14.4796 83.4582 13.4504C84.7056 12.4212 86.4757 11.85 88.7631 11.7342V10.3574H91.091V11.7342C93.3811 11.85 95.1458 12.4239 96.3878 13.4504C97.6299 14.4796 98.2495 15.886 98.2495 17.6696C98.2495 19.4532 97.6299 20.8649 96.3878 21.8995ZM85.2633 20.4258C86.0716 21.0859 87.2382 21.4792 88.7658 21.6086V13.7333C85.6244 13.965 84.0509 15.2798 84.0509 17.6723C84.0509 18.8497 84.4551 19.7684 85.2633 20.4258ZM94.6231 20.4366C95.426 19.7711 95.8247 18.8416 95.8247 17.6534C95.8247 16.4653 95.4206 15.5384 94.6123 14.8784C93.804 14.2183 92.6294 13.8384 91.091 13.7333V21.6086C92.6428 21.4927 93.8202 21.102 94.6204 20.4339L94.6231 20.4366Z" fill="#1F1F1F"/>
<path d="M104.004 23.7724C102.892 23.1715 102.019 22.3363 101.386 21.2694C100.752 20.2025 100.435 19.009 100.435 17.6915C100.435 16.374 100.752 15.1804 101.386 14.1135C102.019 13.0466 102.892 12.2114 104.004 11.6106C105.117 11.0098 106.365 10.708 107.747 10.708C109.129 10.708 110.379 11.0098 111.492 11.6106C112.604 12.2114 113.477 13.0439 114.111 14.1027C114.744 15.1643 115.062 16.3605 115.062 17.6915C115.062 19.0224 114.744 20.2187 114.111 21.2802C113.477 22.3417 112.604 23.1715 111.492 23.7724C110.379 24.3732 109.132 24.6749 107.747 24.6749C106.362 24.6749 105.114 24.3732 104.004 23.7724ZM110.193 21.8514C110.918 21.4445 111.486 20.8761 111.901 20.1432C112.316 19.4131 112.521 18.594 112.521 17.6888C112.521 16.7835 112.313 15.9645 111.901 15.2343C111.486 14.5042 110.918 13.9357 110.193 13.5262C109.468 13.1193 108.655 12.9146 107.749 12.9146C106.844 12.9146 106.03 13.1193 105.306 13.5262C104.581 13.933 104.013 14.5015 103.598 15.2343C103.183 15.9645 102.978 16.7835 102.978 17.6888C102.978 18.594 103.185 19.4131 103.598 20.1432C104.013 20.8734 104.581 21.4418 105.306 21.8514C106.03 22.2582 106.844 22.463 107.749 22.463C108.655 22.463 109.468 22.2582 110.193 21.8514Z" fill="#1F1F1F"/>
<path d="M126.714 11.4814C127.587 11.8693 128.255 12.4244 128.721 13.1491C129.187 13.8739 129.419 14.7333 129.419 15.7302C129.419 16.727 129.187 17.5703 128.721 18.3005C128.255 19.0306 127.587 19.591 126.714 19.979C125.841 20.367 124.817 20.5609 123.64 20.5609H120.574V24.4784H118.052V10.8994H123.64C124.817 10.8994 125.841 11.0934 126.714 11.4814ZM126.024 17.7266C126.593 17.2605 126.878 16.595 126.878 15.7275C126.878 14.8599 126.593 14.1945 126.024 13.7284C125.456 13.2623 124.621 13.0306 123.521 13.0306H120.571V18.4244H123.521C124.621 18.4244 125.453 18.1927 126.024 17.7266Z" fill="#1F1F1F"/>
<path d="M135.077 23.7724C133.97 23.1715 133.105 22.339 132.477 21.2802C131.849 20.2187 131.537 19.0224 131.537 17.6915C131.537 16.3605 131.855 15.1643 132.488 14.1027C133.121 13.0412 133.991 12.2114 135.098 11.6106C136.203 11.0098 137.442 10.708 138.814 10.708C139.926 10.708 140.939 10.902 141.858 11.29C142.777 11.6779 143.553 12.241 144.186 12.9766L142.556 14.5096C141.573 13.448 140.363 12.92 138.93 12.92C137.997 12.92 137.165 13.1247 136.427 13.5316C135.688 13.9384 135.115 14.5042 134.7 15.2289C134.285 15.9537 134.08 16.7754 134.08 17.6915C134.08 18.6075 134.287 19.4319 134.7 20.154C135.115 20.8788 135.688 21.4445 136.427 21.8514C137.165 22.2582 137.997 22.463 138.93 22.463C140.366 22.463 141.575 21.9268 142.556 20.8518L144.186 22.4037C143.553 23.1419 142.774 23.7023 141.847 24.0903C140.923 24.4783 139.905 24.6722 138.792 24.6722C137.421 24.6722 136.184 24.3705 135.077 23.7697V23.7724Z" fill="#1F1F1F"/>
<path d="M150.085 4.03023C150.487 4.42898 150.686 4.92472 150.686 5.52284C150.686 5.97277 150.565 6.3796 150.32 6.74871C150.074 7.11782 149.708 7.4088 149.215 7.62704C148.722 7.84527 148.124 7.95304 147.415 7.95304C146.825 7.95304 146.257 7.87491 145.71 7.71595C145.163 7.55699 144.697 7.33875 144.312 7.05855L144.972 5.94314C145.271 6.18023 145.634 6.36613 146.063 6.50084C146.491 6.63825 146.936 6.70561 147.391 6.70561C147.935 6.70561 148.361 6.60053 148.671 6.39038C148.981 6.18023 149.137 5.89464 149.137 5.53361C149.137 5.17259 148.989 4.89239 148.695 4.68762C148.401 4.48556 147.949 4.38318 147.343 4.38318H146.588V3.39978L148.466 1.31175H144.71V0.107422H150.341V1.06926L148.334 3.30009C149.096 3.389 149.681 3.63148 150.083 4.03023H150.085Z" fill="#F15929"/>
<path d="M156.91 3.36241C157.344 3.55639 157.68 3.83659 157.926 4.19762C158.171 4.55865 158.292 4.97356 158.292 5.44505C158.292 5.94618 158.157 6.38534 157.891 6.76523C157.624 7.14512 157.26 7.43609 156.805 7.64355C156.347 7.84831 155.838 7.95339 155.269 7.95339C154.135 7.95339 153.256 7.622 152.631 6.95921C152.006 6.29643 151.694 5.34537 151.694 4.10871C151.694 3.24117 151.864 2.49756 152.2 1.88327C152.54 1.26899 153.014 0.800188 153.623 0.479574C154.232 0.15896 154.94 0 155.743 0C156.169 0 156.568 0.0431081 156.942 0.126629C157.317 0.210151 157.64 0.334085 157.915 0.49574L157.349 1.57882C156.94 1.32826 156.417 1.20432 155.778 1.20432C154.984 1.20432 154.361 1.43333 153.914 1.88866C153.464 2.34668 153.24 3.00407 153.24 3.86623V3.87701C153.486 3.61297 153.795 3.4109 154.173 3.2735C154.55 3.13879 154.975 3.06874 155.447 3.06874C155.991 3.06874 156.479 3.16573 156.91 3.36241ZM156.355 6.46617C156.654 6.22638 156.805 5.90846 156.805 5.50971C156.805 5.11097 156.654 4.78496 156.355 4.54787C156.056 4.31347 155.654 4.19493 155.151 4.19493C154.647 4.19493 154.251 4.31886 153.941 4.56943C153.631 4.81999 153.475 5.13791 153.475 5.52049C153.475 5.90307 153.626 6.20752 153.93 6.4527C154.232 6.70057 154.652 6.82181 155.188 6.82181C155.668 6.82181 156.059 6.70326 156.358 6.46347L156.355 6.46617Z" fill="#F15929"/>
<path d="M160.771 7.48213C160.251 7.1696 159.841 6.71158 159.542 6.11346C159.243 5.51534 159.092 4.80136 159.092 3.97693C159.092 3.15249 159.24 2.43852 159.542 1.8404C159.841 1.23958 160.251 0.784258 160.771 0.471727C161.291 0.159195 161.881 0.00292969 162.541 0.00292969C163.201 0.00292969 163.793 0.159195 164.316 0.471727C164.839 0.784258 165.251 1.24228 165.55 1.8404C165.849 2.44121 166 3.15249 166 3.97693C166 4.80136 165.849 5.51534 165.55 6.11346C165.251 6.71427 164.839 7.1696 164.316 7.48213C163.793 7.79466 163.201 7.95093 162.541 7.95093C161.881 7.95093 161.288 7.79466 160.771 7.48213ZM163.942 6.01916C164.284 5.56383 164.456 4.88219 164.456 3.97693C164.456 3.07167 164.284 2.39002 163.942 1.9347C163.599 1.47937 163.133 1.25036 162.543 1.25036C161.953 1.25036 161.498 1.47937 161.156 1.9347C160.814 2.39272 160.641 3.07167 160.641 3.97693C160.641 4.88219 160.814 5.56383 161.156 6.01916C161.498 6.47718 161.961 6.7035 162.543 6.7035C163.125 6.7035 163.599 6.47449 163.942 6.01916Z" fill="#F15929"/>
</g>
<defs>
<clipPath id="clip0_22992_74608">
<rect width="166" height="34.9766" fill="white"/>
</clipPath>
</defs>
</svg>
